<?xml version="1.0" encoding="utf-8"?>
<!-- Generator: Adobe Illustrator 19.0.0, SVG Export Plug-In . SVG Version: 6.00 Build 0)  -->
<svg version="1.1" id="Layer_1" xmlns="http://www.w3.org/2000/svg" xmlns:xlink="http://www.w3.org/1999/xlink" x="0px" y="0px"
	 viewBox="-403 328.9 175.5 92.8" style="enable-background:new -403 328.9 175.5 92.8;" xml:space="preserve">
<style type="text/css">
	.st0{fill:#EBF7F8;}
	.st1{fill:none;}
	.st2{fill:#D10000;}
	.st3{fill:#42BBEC;}
	.st4{fill:#80C342;}
	.st5{fill:#F7EC3C;}
	.st6{fill:#79897D;}
</style>
<rect x="-395.3" y="340.5" class="st0" width="58" height="78.9"/>
<path class="st1" d="M-385.2,371.4h16.4v16.4h-16.4V371.4z"/>
<path d="M-339.2,328.9h-54.1c-5.3,0-9.7,4.3-9.7,9.7v73.5c0,5.3,4.3,9.7,9.7,9.7h54.1c5.3,0,9.7-4.3,9.7-9.7v-73.5
	C-329.6,333.3-333.9,328.9-339.2,328.9z M-366.3,417.9c-3.2,0-5.8-2.6-5.8-5.8c0-3.2,2.6-5.8,5.8-5.8c3.2,0,5.8,2.6,5.8,5.8
	C-360.5,415.3-363.1,417.9-366.3,417.9z M-337.3,402.4h-58v-61.9h58V402.4z"/>
<rect x="-385.6" y="363.7" class="st2" width="10.8" height="8"/>
<rect x="-365" y="353.7" class="st3" width="10.8" height="8"/>
<rect x="-377" y="353.7" class="st4" width="10.8" height="8"/>
<path class="st5" d="M-351,371.7h-2.7c-2.2,0-4-1.8-4-4l0,0c0-2.2,1.8-4,4-4h2.7c2.2,0,4,1.8,4,4l0,0
	C-347,369.9-348.8,371.7-351,371.7z"/>
<path class="st6" d="M-366.3,348.7c-12.6,0-22.8,10.2-22.8,22.8c0,12.6,10.2,22.8,22.8,22.8c2.1,0,3.8-1.7,3.8-3.8
	c0-1-0.4-1.9-1-2.6c-0.6-0.7-1-1.5-1-2.5c0-2.1,1.7-3.8,3.8-3.8h4.5c7,0,12.7-5.7,12.7-12.7C-343.5,357.8-353.7,348.7-366.3,348.7z
	 M-380.2,371.5c-2.1,0-3.8-1.7-3.8-3.8c0-2.1,1.7-3.8,3.8-3.8c2.1,0,3.8,1.7,3.8,3.8C-376.4,369.8-378.1,371.5-380.2,371.5z
	 M-372.6,361.4c-2.1,0-3.8-1.7-3.8-3.8c0-2.1,1.7-3.8,3.8-3.8c2.1,0,3.8,1.7,3.8,3.8C-368.8,359.7-370.5,361.4-372.6,361.4z
	 M-360,361.4c-2.1,0-3.8-1.7-3.8-3.8c0-2.1,1.7-3.8,3.8-3.8c2.1,0,3.8,1.7,3.8,3.8C-356.2,359.7-357.9,361.4-360,361.4z
	 M-352.4,371.5c-2.1,0-3.8-1.7-3.8-3.8c0-2.1,1.7-3.8,3.8-3.8c2.1,0,3.8,1.7,3.8,3.8C-348.6,369.8-350.3,371.5-352.4,371.5z"/>
<g>
	<path class="st6" d="M-308.7,371.4l-1.3-5.4h-8.3l-1.3,5.4h-7.6l8.4-28.9h9.3l8.5,28.9H-308.7z M-311.4,359.6l-1.1-4.7
		c-0.3-1-0.6-2.4-0.9-4.1s-0.6-2.9-0.7-3.6c-0.1,0.7-0.3,1.8-0.6,3.3s-1,4.6-2.1,9.1H-311.4z"/>
	<path class="st6" d="M-286.7,348.7c0.6,0,1.2,0.1,1.7,0.2l0.4,0.1l-0.6,7.3c-0.6-0.2-1.3-0.2-2.3-0.2c-1.5,0-2.6,0.4-3.3,1.2
		c-0.7,0.8-1,1.9-1,3.3v11h-6.9v-22.3h5.1l1.1,3.6h0.3c0.6-1.2,1.4-2.1,2.4-2.9S-287.8,348.7-286.7,348.7z"/>
	<path class="st6" d="M-272.1,365.7c0.9,0,2-0.3,3.3-0.8v5.6c-0.9,0.4-1.8,0.8-2.6,1c-0.8,0.2-1.8,0.3-2.9,0.3c-2.3,0-4-0.6-5-1.9
		s-1.5-3.2-1.5-5.8v-9.2h-2.4v-3.1l3.1-2.4l1.8-4.7h4.5v4.5h4.9v5.8h-4.9v8.7C-274,364.9-273.3,365.7-272.1,365.7z"/>
	<path d="M-307.7,392.6c0,1.8-0.4,3.4-1.2,4.8c-0.8,1.4-2,2.5-3.5,3.2s-3.3,1.2-5.4,1.2c-1.7,0-3.1-0.1-4.3-0.4s-2.4-0.7-3.6-1.4
		V393c1.3,0.8,2.7,1.4,4.1,1.8c1.4,0.4,2.7,0.6,3.9,0.6c1,0,1.8-0.2,2.3-0.6s0.7-0.9,0.7-1.5c0-0.4-0.1-0.7-0.3-1s-0.5-0.6-0.9-0.9
		c-0.4-0.3-1.6-0.9-3.4-1.9c-1.7-0.9-2.9-1.7-3.8-2.5c-0.8-0.8-1.5-1.7-1.9-2.8c-0.4-1-0.6-2.3-0.6-3.7c0-2.7,0.9-4.7,2.6-6.2
		c1.7-1.5,4.1-2.2,7.1-2.2c2.7,0,5.4,0.7,8.1,2.1l-2.1,6c-2.4-1.2-4.5-1.9-6.2-1.9c-0.9,0-1.6,0.2-2,0.5s-0.6,0.8-0.6,1.3
		c0,0.6,0.3,1.1,0.8,1.5c0.5,0.4,1.9,1.3,4.2,2.4c2.2,1.1,3.8,2.3,4.6,3.6C-308.1,389.1-307.7,390.7-307.7,392.6z"/>
	<path d="M-294.3,395.7c0.9,0,2-0.3,3.3-0.8v5.6c-0.9,0.4-1.8,0.8-2.6,1s-1.8,0.3-2.9,0.3c-2.3,0-4-0.6-5-1.9s-1.5-3.2-1.5-5.8v-9.2
		h-2.4v-3.1l3.1-2.4l1.8-4.7h4.5v4.5h4.9v5.8h-4.9v8.7C-296.2,394.9-295.6,395.7-294.3,395.7z"/>
	<path d="M-268.5,390.2c0,3.6-0.9,6.5-2.6,8.5s-4.2,3.1-7.4,3.1c-3,0-5.4-1-7.2-3.1c-1.8-2.1-2.7-4.9-2.7-8.5c0-3.6,0.9-6.5,2.6-8.5
		c1.8-2,4.2-3,7.4-3c2,0,3.7,0.5,5.2,1.4s2.7,2.3,3.5,4S-268.5,387.8-268.5,390.2z M-281.4,390.2c0,1.9,0.2,3.4,0.7,4.4
		s1.2,1.5,2.3,1.5c1.1,0,1.8-0.5,2.3-1.5s0.7-2.5,0.7-4.4c0-1.9-0.2-3.3-0.7-4.3s-1.2-1.5-2.3-1.5c-1.1,0-1.8,0.5-2.3,1.4
		C-281.2,386.8-281.4,388.2-281.4,390.2z"/>
	<path d="M-252.6,378.7c0.6,0,1.2,0.1,1.7,0.2l0.4,0.1l-0.6,7.3c-0.6-0.2-1.3-0.2-2.3-0.2c-1.5,0-2.6,0.4-3.3,1.2
		c-0.7,0.8-1,1.9-1,3.3v11h-6.9v-22.3h5.1l1.1,3.6h0.3c0.6-1.2,1.4-2.1,2.4-2.9C-254.7,379-253.6,378.7-252.6,378.7z"/>
	<path d="M-238.1,401.8c-3.3,0-5.9-1-7.7-3c-1.8-2-2.8-4.8-2.8-8.4c0-3.8,0.8-6.7,2.5-8.7c1.7-2,4.1-3,7.3-3c3,0,5.3,0.9,7,2.6
		c1.6,1.8,2.5,4.3,2.5,7.6v3.4h-12.3c0,1.2,0.5,2.2,1.2,2.9c0.8,0.7,1.8,1.1,3.1,1.1c1.2,0,2.3-0.1,3.3-0.4s2.1-0.7,3.3-1.3v5.5
		c-1.1,0.6-2.2,1-3.3,1.3C-235.1,401.6-236.5,401.8-238.1,401.8z M-238.5,383.9c-0.8,0-1.5,0.3-2,0.9s-0.9,1.5-1,2.7h5.9
		c0-1.1-0.3-1.9-0.8-2.6S-237.6,383.9-238.5,383.9z"/>
</g>
</svg>
