<?xml version="1.0" encoding="utf-8"?>
<!-- Generator: Adobe Illustrator 19.0.0, SVG Export Plug-In . SVG Version: 6.00 Build 0)  -->
<svg version="1.1" id="Layer_1" xmlns="http://www.w3.org/2000/svg" xmlns:xlink="http://www.w3.org/1999/xlink" x="0px" y="0px"
	 viewBox="-403 328.9 73.5 92.8" style="enable-background:new -403 328.9 73.5 92.8;" xml:space="preserve">
<style type="text/css">
	.st0{fill:#EBF7F8;}
	.st1{fill:none;}
	.st2{fill:#D10000;}
	.st3{fill:#42BBEC;}
	.st4{fill:#80C342;}
	.st5{fill:#F7EC3C;}
	.st6{fill:#79897D;}
</style>
<rect x="-395.3" y="340.5" class="st0" width="58" height="78.9"/>
<path class="st1" d="M-385.2,371.4h16.4v16.4h-16.4V371.4z"/>
<path d="M-339.2,328.9h-54.1c-5.3,0-9.7,4.3-9.7,9.7v73.5c0,5.3,4.3,9.7,9.7,9.7h54.1c5.3,0,9.7-4.3,9.7-9.7v-73.5
	C-329.6,333.3-333.9,328.9-339.2,328.9z M-366.3,417.9c-3.2,0-5.8-2.6-5.8-5.8c0-3.2,2.6-5.8,5.8-5.8c3.2,0,5.8,2.6,5.8,5.8
	C-360.5,415.3-363.1,417.9-366.3,417.9z M-337.3,402.4h-58v-61.9h58V402.4z"/>
<rect x="-385.6" y="363.7" class="st2" width="10.8" height="8"/>
<rect x="-365" y="353.7" class="st3" width="10.8" height="8"/>
<rect x="-377" y="353.7" class="st4" width="10.8" height="8"/>
<path class="st5" d="M-351,371.7h-2.7c-2.2,0-4-1.8-4-4l0,0c0-2.2,1.8-4,4-4h2.7c2.2,0,4,1.8,4,4l0,0
	C-347,369.9-348.8,371.7-351,371.7z"/>
<path class="st6" d="M-366.3,348.7c-12.6,0-22.8,10.2-22.8,22.8c0,12.6,10.2,22.8,22.8,22.8c2.1,0,3.8-1.7,3.8-3.8
	c0-1-0.4-1.9-1-2.6c-0.6-0.7-1-1.5-1-2.5c0-2.1,1.7-3.8,3.8-3.8h4.5c7,0,12.7-5.7,12.7-12.7C-343.5,357.8-353.7,348.7-366.3,348.7z
	 M-380.2,371.5c-2.1,0-3.8-1.7-3.8-3.8c0-2.1,1.7-3.8,3.8-3.8c2.1,0,3.8,1.7,3.8,3.8C-376.4,369.8-378.1,371.5-380.2,371.5z
	 M-372.6,361.4c-2.1,0-3.8-1.7-3.8-3.8c0-2.1,1.7-3.8,3.8-3.8c2.1,0,3.8,1.7,3.8,3.8C-368.8,359.7-370.5,361.4-372.6,361.4z
	 M-360,361.4c-2.1,0-3.8-1.7-3.8-3.8c0-2.1,1.7-3.8,3.8-3.8c2.1,0,3.8,1.7,3.8,3.8C-356.2,359.7-357.9,361.4-360,361.4z
	 M-352.4,371.5c-2.1,0-3.8-1.7-3.8-3.8c0-2.1,1.7-3.8,3.8-3.8c2.1,0,3.8,1.7,3.8,3.8C-348.6,369.8-350.3,371.5-352.4,371.5z"/>
</svg>
