<?xml version="1.0" encoding="UTF-8" standalone="no"?>
<!-- Created with Inkscape (http://www.inkscape.org/) -->
<svg
   xmlns:svg="http://www.w3.org/2000/svg"
   xmlns="http://www.w3.org/2000/svg"
   version="1.0"
   width="135"
   height="35"
   id="svg2">
  <defs
     id="defs4" />
  <g
     id="layer1">
    <g
       transform="matrix(1.0036824,0,0,1.0036824,4.3467438,1.9219095)"
       id="g2404">
      <path
         d="M 33.995,0 L 0,0 L 0,5.222 L 32.298,5.222 L 32.298,5.226 C 33.232,5.226 33.983,5.981 33.983,6.91 L 33.983,24.455 L 33.976,24.467 C 33.968,25.396 33.214,26.142 32.288,26.142 L 6.908,26.142 C 5.978,26.142 5.22,25.39 5.22,24.455 L 5.22,17.364 C 5.22,16.433 5.978,15.68 6.908,15.68 L 28.747,15.68 L 28.747,10.46 L 5.207,10.46 C 2.33,10.46 0,12.787 0,15.663 L 0,26.155 C 0,29.03 2.33,31.363 5.207,31.363 L 33.995,31.363 C 36.874,31.363 39.202,29.03 39.202,26.155 L 39.202,5.207 C 39.202,2.331 36.874,0 33.995,0"
         id="path2384"
         style="fill:#0096d7" />
      <path
         d="M 58.628,0.01 L 62.711,12.225 C 63.2,13.714 63.54,14.06 64.394,14.06 L 65.227,14.06 L 65.227,16.209 L 56.309,16.209 L 56.309,14.06 L 57.038,14.06 C 57.773,14.06 58.387,13.961 58.387,13.693 C 58.387,13.447 58.359,13.179 58.264,12.814 L 57.751,11.053 L 52.764,11.053 L 52.473,12.03 C 52.202,12.885 52.106,13.251 52.106,13.593 C 52.106,13.988 52.96,14.061 53.623,14.061 L 54.327,14.061 L 54.327,16.21 L 47.147,16.21 L 47.147,14.06 L 47.976,14.06 C 48.831,14.06 49.172,13.714 49.664,12.225 L 53.744,0.01 L 58.628,0.01 M 53.467,8.905 L 57.016,8.905 L 55.256,3.648 L 55.21,3.648 L 53.467,8.905 z"
         id="path2386" />
      <path
         d="M 66.642,3.015 C 66.642,2.329 66.471,1.965 65.762,1.965 L 64.64,1.965 L 64.64,0.01 L 70.7,0.01 L 70.7,6.093 C 71.601,5.065 72.751,4.407 73.849,4.407 C 77.514,4.407 78.879,7.268 78.879,10.49 C 78.879,13.714 77.514,16.57 73.849,16.57 C 72.311,16.57 70.943,16.036 70.085,14.691 L 69.378,16.209 L 66.641,16.209 L 66.641,3.015 M 70.7,10.49 C 70.7,12.982 71.26,14.474 72.628,14.474 C 73.999,14.474 74.559,12.982 74.559,10.49 C 74.559,7.998 73.999,6.511 72.628,6.511 C 71.26,6.511 70.7,7.998 70.7,10.49"
         id="path2388" />
      <path
         d="M 80.35,3.015 C 80.35,2.329 80.176,1.965 79.472,1.965 L 78.347,1.965 L 78.347,0.01 L 84.408,0.01 L 84.408,6.093 C 85.311,5.065 86.46,4.407 87.559,4.407 C 91.222,4.407 92.592,7.268 92.592,10.49 C 92.592,13.714 91.222,16.57 87.559,16.57 C 86.017,16.57 84.652,16.036 83.793,14.691 L 83.086,16.209 L 80.35,16.209 L 80.35,3.015 M 84.407,10.49 C 84.407,12.982 84.97,14.474 86.335,14.474 C 87.705,14.474 88.266,12.982 88.266,10.49 C 88.266,7.998 87.705,6.511 86.335,6.511 C 84.971,6.511 84.407,7.998 84.407,10.49"
         id="path2390" />
      <path
         d="M 106.372,10.49 C 106.372,14.399 103.708,16.57 100.068,16.57 C 96.425,16.57 93.761,14.399 93.761,10.49 C 93.761,6.58 96.425,4.407 100.068,4.407 C 103.708,4.407 106.372,6.58 106.372,10.49 M 98.088,10.49 C 98.088,13.371 98.6,14.618 100.068,14.618 C 101.534,14.618 102.047,13.371 102.047,10.49 C 102.047,7.607 101.534,6.362 100.068,6.362 C 98.6,6.362 98.088,7.607 98.088,10.49"
         id="path2392" />
      <path
         d="M 123.793,10.687 L 123.793,12.594 C 123.793,13.713 123.55,14.377 122.62,14.377 C 122.057,14.377 121.79,13.96 121.79,13.446 L 121.79,6.726 L 124.793,6.726 L 124.793,4.775 L 121.79,4.775 L 121.79,0.23 L 119.371,0.23 C 119.173,2.257 118.54,4.775 116.098,4.775 L 112.286,4.775 L 112.286,0.23 L 109.868,0.23 C 109.669,2.257 109.036,4.775 106.593,4.775 L 106.593,6.726 L 108.232,6.726 L 108.232,12.861 C 108.232,15.353 109.623,16.57 112.138,16.57 C 115.073,16.57 116.242,15.255 116.242,12.861 L 116.242,10.686 L 114.293,10.686 L 114.293,12.593 C 114.293,13.712 114.046,14.376 113.117,14.376 C 112.554,14.376 112.287,13.959 112.287,13.445 L 112.287,6.725 L 117.738,6.725 L 117.738,12.86 C 117.738,15.352 119.127,16.569 121.643,16.569 C 124.577,16.569 125.75,15.254 125.75,12.86 L 125.75,10.685 L 123.793,10.685"
         id="path2394" />
    </g>
  </g>
</svg>
