<?xml version="1.0" encoding="utf-8"?>
<!-- Generator: Adobe Illustrator 21.0.2, SVG Export Plug-In . SVG Version: 6.00 Build 0)  -->
<svg version="1.1" id="Layer_1" xmlns="http://www.w3.org/2000/svg" xmlns:xlink="http://www.w3.org/1999/xlink" x="0px" y="0px"
	 viewBox="0 0 400 114" style="enable-background:new 0 0 400 114;" xml:space="preserve">
<style type="text/css">
	.st0{fill:#AA1133;}
</style>
<g>
	<path d="M12.8,92c0.1-0.3,0.2-0.7,0.3-1c0.6-4.5,3-7.7,7.1-9.6c2.4-1.2,5-1.8,7.7-2.1c2.1-0.3,4.3-0.3,6.4-0.3c1.4,0,2.9,0,4.3,0
		c0.1-0.1,0.1-0.1,0.1-0.2c0.1-1.4,0.1-2.9-0.2-4.3c-0.6-2.7-2.2-4.1-5-4.5c-1-0.1-2.1-0.1-3.1,0.1c-2.4,0.6-3.8,2.1-4.4,4.5
		c-0.1,0.3-0.1,0.5-0.2,0.9c-3.8,0-7.6,0-11.5,0c-0.1-0.6,0.1-1.2,0.2-1.8c1.1-5.4,4.3-8.9,9.3-10.9c3-1.2,6.1-1.5,9.3-1.5
		c2.8,0,5.5,0.3,8.1,1.2c1.6,0.5,3.1,1.3,4.5,2.4c2.8,2.2,4.3,5,4.8,8.4c0.2,1.2,0.3,2.4,0.3,3.7c0,9.1,0,18.3,0,27.4
		c0,0.3,0,0.6,0,1c-4,0-7.9,0-11.8,0c0-1.6,0-3.1,0-4.7c-0.2,0.2-0.3,0.3-0.4,0.4c-2.2,2.9-5.2,4.5-8.8,5.1
		c-0.8,0.1-1.6,0.2-2.4,0.3c-0.1,0-0.3,0-0.4,0c-0.3,0-0.6-0.1-0.9-0.1c-1.4-0.1-2.7-0.3-4-0.6c-5-1.5-8.1-4.7-8.8-10
		c0-0.3-0.2-0.6-0.3-0.9C12.8,93.8,12.8,92.9,12.8,92z M38.7,86.9c-0.6,0-1.1,0-1.6,0C35.1,87,33,87,31,87.1
		c-1.3,0.1-2.6,0.4-3.8,1.1c-1.2,0.7-2,1.7-2.2,3.1c-0.1,0.6-0.1,1.3-0.1,1.9c0.1,2.2,1.3,3.8,3.5,4.3c2.3,0.6,4.6,0.4,6.8-0.7
		c1.9-1,3.2-2.6,3.4-4.8C38.7,90.4,38.7,88.7,38.7,86.9z"/>
	<path d="M167.9,106.4c-0.5,0-0.9-0.1-1.4-0.1c-2.9-0.2-5.8-0.8-8.5-2c-4.9-2.3-8-6.2-9.6-11.3c-0.7-2.2-1-4.4-1.1-6.7
		c-0.2-3.5,0-7,1-10.4c1.2-4.1,3.3-7.7,6.7-10.4c2.8-2.2,6-3.5,9.5-3.9c3.7-0.5,7.3-0.3,10.9,0.9c6.3,2.1,10,6.5,11.5,12.9
		c0.5,2,0.6,4.1,0.7,6.2c0,1.5,0,3,0,4.6c0,0.2,0,0.4-0.1,0.7c-9.3,0-18.6,0-28,0c0.1,0.6,0.1,1.1,0.1,1.5c0.2,1.3,0.4,2.6,0.9,3.8
		c1.3,3.3,3.7,5.1,7.2,5.3c1.2,0.1,2.4,0,3.6-0.4c2.3-0.7,3.9-2.2,4.7-4.4c0.1-0.2,0.2-0.5,0.3-0.7c0,0,0,0,0.1-0.1
		c3.6,0,7.3,0,11,0c0,0.3-0.1,0.6-0.1,0.8c-1.3,6-4.9,9.9-10.6,12.1c-2.2,0.9-4.6,1.3-6.9,1.4c-0.4,0-0.8,0.1-1.2,0.1
		C168.4,106.4,168.1,106.4,167.9,106.4z M159.7,78.7c1,0.2,15.6,0.1,16.1-0.1c-0.1-1.9-0.4-3.8-1.3-5.5c-0.9-1.7-2.3-2.8-4.2-3.2
		c-0.5-0.1-1-0.2-1.5-0.2c-2.2-0.2-4.3,0.2-6,1.8C160.8,73.5,160.1,76.1,159.7,78.7z"/>
	<path d="M367.6,106.4c-0.5,0-1-0.1-1.5-0.1c-2.8-0.2-5.5-0.7-8.1-1.9c-5-2.3-8.2-6.1-9.9-11.3c-1.3-3.9-1.4-8-1.1-12.1
		c0.2-2.9,0.8-5.7,2-8.3c2.9-6.3,7.8-10,14.6-11.1c3.4-0.6,6.8-0.4,10.1,0.4c6.8,1.8,11,6.1,12.7,12.8c0.4,1.5,0.6,3,0.7,4.6
		c0,0.2,0.1,0.5,0.1,0.7c0,2.2,0,4.4,0,6.6c-0.3,0-0.7,0-1,0c-8.7,0-17.3,0-26,0c-0.3,0-0.6,0-1.1,0c0.1,0.8,0.1,1.4,0.2,2.1
		c0.3,1.8,0.7,3.5,1.6,5c0.9,1.5,2.2,2.6,3.9,3.2c1.7,0.5,3.4,0.6,5.1,0.3c2.9-0.5,4.9-2.1,5.8-4.9c0.1-0.2,0.1-0.4,0.2-0.5
		c1.1-0.2,10.5-0.1,11,0.1c0,0.2,0,0.4,0,0.7c0,0.2-0.1,0.3-0.1,0.5c-1.2,5-4.2,8.7-8.8,11c-2.7,1.3-5.5,1.9-8.4,2.1
		c-0.5,0-1,0.1-1.5,0.1C368,106.4,367.8,106.4,367.6,106.4z M375.4,78.8c-0.1-2-0.4-3.9-1.3-5.6c-0.9-1.6-2.3-2.7-4.1-3.1
		c-0.5-0.1-1-0.2-1.5-0.3c-3.4-0.3-6.2,1-7.8,4.2c-0.7,1.4-1.1,2.8-1.3,4.3c0,0.1,0,0.3,0,0.4C364.8,78.8,370.1,78.8,375.4,78.8z"/>
	<path d="M284.5,106.4c-0.3,0-0.6-0.1-0.9-0.1c-1.3-0.1-2.6-0.3-3.8-0.7c-4.2-1.4-6.6-4.4-7.8-8.6c-0.5-1.7-0.7-3.4-0.7-5.2
		c0-9.6,0-19.2,0-28.7c0-0.2,0-0.5,0-0.8c4.1,0,8.1,0,12.1,0c0,0.3,0,0.6,0,0.9c0,8.7,0,17.4,0,26.1c0,1.1,0,2.2,0.3,3.3
		c0.6,2.5,2.3,4,4.9,4.2c1.1,0.1,2.2,0.1,3.3-0.2c2.9-0.8,4.6-2.7,5.1-5.6c0.1-0.7,0.2-1.4,0.2-2.2c0-8.5,0-17.1,0-25.6
		c0-0.3,0-0.6,0-0.9c0.6-0.2,10.9-0.2,12-0.1c0,14.3,0,28.7,0,43c-0.5,0.2-10.8,0.2-12,0.1c0-1,0-2,0-2.9c0-1,0-1.9-0.1-2.9
		c-0.1,0.2-0.2,0.4-0.3,0.5c-2.1,3.5-5.3,5.5-9.3,6.1c-0.6,0.1-1.2,0.1-1.9,0.2c-0.2,0-0.4,0.1-0.7,0.1
		C284.8,106.4,284.7,106.4,284.5,106.4z"/>
	<path d="M77.8,106.4c-0.5,0-0.9-0.1-1.4-0.1c-3-0.2-5.9-0.8-8.6-2.2c-4.7-2.4-7.6-6.3-9.1-11.2c-1.1-3.5-1.3-7.2-1.1-10.9
		c0.2-2.8,0.6-5.6,1.7-8.2c2.8-6.8,7.9-10.8,15.1-12c3.9-0.7,7.8-0.4,11.6,0.9c5.8,2,9.3,6.1,10.7,12c0.2,0.8,0.3,1.7,0.4,2.5
		c0,0.1,0,0.3,0,0.5c-3.8,0-7.7,0-11.5,0c-0.1-0.3-0.2-0.7-0.3-1c-0.2-0.7-0.4-1.3-0.7-2c-1.3-2.9-3.8-4.1-6.9-3.9
		c-3,0.3-5,1.8-6.3,4.5c-0.9,1.7-1.3,3.6-1.4,5.5c-0.2,2.9-0.2,5.7,0.3,8.6c0.2,1.2,0.5,2.4,1.1,3.5c1.5,3.3,4.4,4.8,8,4.5
		c3.3-0.3,5.4-2.3,6.5-5.3c0.3-0.8,0.5-1.6,0.7-2.4c3.6,0,7.2,0,10.9,0c0.1,0.7-0.1,1.3-0.2,1.9c-0.7,4-2.3,7.5-5.3,10.2
		c-2.4,2.2-5.2,3.5-8.4,4.1c-1.4,0.3-2.9,0.3-4.3,0.5c-0.2,0-0.4,0.1-0.7,0.1C78.2,106.4,78,106.4,77.8,106.4z"/>
	<path d="M122.7,106.4c-0.5,0-0.9-0.1-1.4-0.1c-3.2-0.2-6.3-0.9-9.1-2.5c-4.3-2.3-7-5.9-8.5-10.5c-0.8-2.4-1.2-4.8-1.3-7.3
		c-0.2-3.5,0-6.9,1-10.2c1.4-4.9,4.1-8.9,8.6-11.6c2.7-1.6,5.6-2.5,8.7-2.8c3.5-0.3,7-0.1,10.3,1.1c5.7,2,9.2,6.1,10.6,12
		c0.2,0.8,0.3,1.6,0.4,2.4c0,0.2,0,0.3,0,0.5c-3.8,0-7.6,0-11.5,0c-0.1-0.3-0.2-0.6-0.3-0.9c-0.2-0.7-0.4-1.3-0.7-2
		c-1.3-2.9-3.7-4.2-6.9-3.9c-2.9,0.2-5,1.7-6.3,4.3c-0.9,1.8-1.4,3.7-1.5,5.7c-0.2,2.9-0.2,5.7,0.3,8.6c0.2,1.2,0.6,2.4,1.1,3.6
		c1.6,3.3,4.4,4.7,7.9,4.4c3.1-0.3,5.2-2.1,6.4-4.9c0.4-0.9,0.6-1.8,0.9-2.8c3.6,0,7.2,0,10.9,0c-0.1,0.7-0.1,1.3-0.2,1.9
		c-0.7,4.1-2.4,7.7-5.6,10.5c-2.6,2.2-5.6,3.5-8.9,4.1c-1.2,0.2-2.3,0.2-3.5,0.4c-0.2,0-0.4,0.1-0.7,0.1
		C123.1,106.4,122.9,106.4,122.7,106.4z"/>
	<path class="st0" d="M231.2,7.6c0.3,0.1,0.5,0.3,0.8,0.4c11.7,4.7,23.5,9.5,35.2,14.2c0.8,0.3,0.7,0.2,0.7,1.1c0,2.6,0,5.1,0,7.7
		c0,0.2,0,0.5,0,0.8c-12.3,5-24.6,9.9-36.9,14.9c0-3.9,0-7.7,0-11.5c7.1-2.6,14.2-5.3,21.3-7.9c0-0.1,0-0.1,0-0.2
		c-7.1-2.8-14.2-5.5-21.3-8.3c0-3.7,0-7.5,0-11.2C231.1,7.6,231.2,7.6,231.2,7.6z"/>
	<path d="M195,62.3c4,0,8,0,12,0c0,2,0,4,0,6c0,0,0.1,0,0.1,0c0.1-0.2,0.3-0.4,0.4-0.6c2.3-3.6,5.7-5.5,9.8-6.2
		c2.1-0.3,4.2-0.3,6.3,0.2c4.1,0.9,6.8,3.4,8.2,7.3c0.8,2.3,1.2,4.6,1.2,7c0,9.5,0,19.1,0,28.6c0,0.2,0,0.4,0,0.7c-4,0-8,0-12,0
		c0-0.3,0-0.6,0-0.9c0-8.6,0-17.3,0-25.9c0-0.9-0.1-1.7-0.2-2.6c-0.4-2.8-2-4.3-4.8-4.7c-1.3-0.2-2.6-0.1-3.9,0.2
		c-2.7,0.8-4.3,2.7-4.9,5.4c-0.2,0.8-0.2,1.6-0.2,2.5c0,8.4,0,16.7,0,25.1c0,0.3,0,0.6,0,0.9c-0.6,0.2-11.1,0.2-12,0.1
		C195,91,195,76.7,195,62.3z"/>
	<path d="M243.5,71.2c-1.7,0-3.3,0-5,0c0-3,0-5.9,0-9c1.6,0,3.3,0,4.9,0c0-2.7,0-5.4,0-8.1c4-1.6,8-3.3,12.1-4.9
		c0.2,0.3,0.1,0.6,0.1,0.9c0,3.7,0,7.4,0,11.2c0,0.3,0,0.6,0,1c2.8,0,5.4,0,8.1,0c0.2,0.6,0.2,7.8,0.1,9c-2.7,0-5.4,0-8.2,0
		c0,0.4,0,0.6,0,0.9c0,6.5,0,13,0,19.5c0,0.6,0.1,1.3,0.2,1.9c0.4,1.8,1.6,2.8,3.5,2.9c1.5,0.1,2.9,0,4.4-0.5c0.1,0,0.2-0.1,0.4-0.1
		c0,3.1,0,6.2,0,9.4c-0.4,0.1-0.8,0.2-1.3,0.3c-3.7,0.8-7.4,0.9-11-0.1c-2.8-0.7-5-2.1-6.5-4.7c-1-1.7-1.5-3.5-1.6-5.4
		c-0.1-1-0.1-2.1-0.1-3.1c0-6.6,0-13.3,0-19.9C243.5,71.9,243.5,71.6,243.5,71.2z"/>
	<path d="M330.3,69.8c2.5-5.5,6.7-8.2,12.8-8.1c0,4,0,7.9,0,11.8c-0.3,0-0.7,0.1-1,0.1c-1.9,0-3.8,0.2-5.6,0.8
		c-0.5,0.2-1.1,0.4-1.6,0.6c-2.6,1.2-4.1,3.3-4.5,6.1c-0.1,0.9-0.2,1.8-0.2,2.7c0,6.9,0,13.8,0,20.7c0,0.3,0,0.6,0,0.9
		c-4,0-8,0-12,0c0-14.4,0-28.7,0-43.1c4,0,8,0,12,0c0,2.5,0,5,0,7.4C330.2,69.7,330.3,69.7,330.3,69.8z"/>
</g>
</svg>
