<?xml version="1.0" encoding="utf-8"?>
<!-- Generator: Adobe Illustrator 16.0.0, SVG Export Plug-In . SVG Version: 6.00 Build 0)  -->
<!DOCTYPE svg PUBLIC "-//W3C//DTD SVG 1.1//EN" "http://www.w3.org/Graphics/SVG/1.1/DTD/svg11.dtd">
<svg version="1.1" id="Layer_1" xmlns="http://www.w3.org/2000/svg" xmlns:xlink="http://www.w3.org/1999/xlink" x="0px" y="0px"
	 width="1000px" height="239.252px" viewBox="0 0 1000 239.252" enable-background="new 0 0 1000 239.252" xml:space="preserve">
<path fill="#2D2E2D" d="M472.781,146.127l-12.893,35.818c0,1.439-1.434,1.439-1.434,1.439h-20.057c-1.434,0-1.434,0-1.434-1.439
	c11.459-30.082,28.653-81.659,41.546-116.048c0-1.427,1.435-4.295,1.435-11.458c0-1.434,0-1.434,1.434-1.434h27.219
	c1.435-1.434,1.435,0,1.435,0c14.319,41.546,31.515,85.96,45.841,127.513c0,1.428,0,1.428-1.427,1.428h-22.931
	c-1.428,0-1.428,0-1.428-1.428l-12.899-35.816h-44.407V146.127z M512.892,126.073c-4.295-12.893-14.326-40.112-17.188-54.439l0,0
	c-2.867,12.893-11.465,35.816-17.194,54.439H512.892z M568.773,134.67c0-28.654,21.49-51.578,55.865-51.578
	c4.309,0,8.604,0,11.473,1.434v-42.98c0-1.434,0-1.434,1.427-1.434h21.49c1.427,0,1.427,0,1.427,1.434v117.481
	c0,4.295,0,10.031,0,12.887c0,1.439,0,1.439-1.427,1.439c-12.899,5.723-27.227,10.031-40.112,10.031
	C588.822,184.813,568.773,169.059,568.773,134.67z M634.669,104.582c-2.868-1.434-7.163-1.434-11.459-1.434
	c-18.621,0-30.08,11.466-30.08,31.522c0,22.916,12.886,31.521,28.654,31.521c4.295,0,10.017-1.441,14.326-1.441v-60.168H634.669z
	 M780.804,133.243c0,31.508-20.063,51.57-48.716,51.57c-34.376,0-48.702-25.785-48.702-50.143c0-30.088,20.049-50.144,50.143-50.144
	C763.61,83.092,780.804,106.016,780.804,133.243z M707.744,133.243c0,20.049,8.591,32.949,24.345,32.949
	c12.899,0,22.931-8.605,22.931-32.949c0-18.629-7.163-32.956-24.357-32.956C717.761,101.714,707.744,113.18,707.744,133.243z
	 M823.785,41.546c1.428,0,1.428,0,1.428,1.434v45.841c7.162-2.861,14.326-4.295,21.489-4.295c27.227,0,44.421,20.056,44.421,45.849
	c0,34.375-27.227,55.865-58.748,55.865c-10.018,0-20.049-1.428-30.08-4.295c-1.427,0-1.427-1.428-1.427-1.428V42.98
	c0-1.434,0-1.434,1.427-1.434H823.785z M842.407,103.148c-5.722,0-11.458,1.434-15.754,2.868v58.734
	c2.868,1.441,7.163,1.441,11.458,1.441c14.327,0,31.521-11.459,31.521-34.391C868.192,113.18,856.734,103.148,842.407,103.148z
	 M936.971,138.965c0,15.768,10.018,25.785,30.081,25.785c7.162,0,15.754-1.428,24.357-4.295c0,0,1.428,0,1.428,1.441v15.754
	c0,1.426,0,1.426-1.428,2.867c-7.162,4.295-17.195,5.723-30.094,5.723c-35.817,0-50.145-24.344-50.145-50.145
	c0-28.646,17.195-51.57,47.29-51.57c30.081,0,41.538,22.924,41.538,41.546c0,8.598-1.426,12.893-1.426,12.893
	c-2.869,0-10.031,0-21.49,0H936.971z M968.478,123.204c7.164,0,8.605-1.426,8.605-1.426s0-1.435,0-2.869
	c0-5.729-4.295-18.622-20.063-18.622c-12.886,0-20.049,10.024-21.489,22.917H968.478z"/>
<path fill="#ED2224" d="M170.486,0l100.287,239.252V0H170.486z M0,0v239.252L100.287,0H0z M91.689,190.549h45.849l20.056,48.703
	h41.546L134.67,87.387L91.689,190.549z"/>
</svg>
