<svg  version="1.1" xmlns="http://www.w3.org/2000/svg" xml:space="preserve" overflow="visible" width="200" height="234.23" viewBox="0 0 28.133 32.948" enable-background="new 0 0 28.133 32.948">
<title>Archer Daniels Midland</title>
<path fill="#00A94F" d="M6.096,23.229c0.022-0.421,0.318-1.595,0.941-3.337c1.165-3.268,3.64-8.024,8.223-9.51l0.007,1.284
c0,0-4.43,1.417-7.807,8.392c-0.678,1.403-1.142,2.848-1.332,3.18L6.096,23.229z M12.392,22.127
c4.819-1.173,5.847-6.749,5.843-11.297c-0.002-3.389-0.574-6.208-0.574-6.208c-10.749,4.161-13.169,8.107-13.19,10.8
c0,0.997,0.283,1.805,0.512,2.146L5,17.557c-0.079-0.278-0.194-0.828-0.194-1.284c-0.022-2.393,2.039-5.892,11.672-9.622
c0,0,0.513,2.506,0.517,5.515c0.007,3.875-0.772,8.571-4.632,9.938L12.392,22.127z"/>
<path fill="#004B91" d="M18.11,3.793c-4.097,1.562-7.215,3.119-9.478,4.703c-2.283,1.596-3.717,3.216-4.387,4.954
c-0.161,0.419-0.328,1.007-0.358,1.593c-0.499-0.417-0.642-0.535-0.874-0.729c-0.726-0.605-1.496-1.3-1.496-2.411
c0-1.112,0.77-1.807,1.496-2.41C4.59,8.178,13.415,0.825,14.097,0.256C14.313,0.074,14.447,0,14.631,0
c0.183,0,0.315,0.074,0.532,0.256c0.682,0.569,9.508,7.922,11.086,9.237c0.725,0.603,1.494,1.298,1.494,2.41
c0,1.111-0.77,1.806-1.494,2.411c-1.578,1.315-10.404,8.667-11.086,9.234c-0.217,0.183-0.349,0.258-0.532,0.258
c-0.184,0-0.318-0.075-0.534-0.258c-0.144-0.119-0.404-0.338-1.133-0.944c2.229-0.676,3.823-2.349,4.763-4.722
c0.746-1.877,1.123-4.25,1.123-7.051C18.85,7.351,18.266,4.439,18.11,3.793"/>
<path fill="#00A94F" d="M4.7,29.248c-0.866,0-1.627,0.551-1.627,1.021c0,0.399,0.46,0.571,0.893,0.571c0.831,0,1.62-0.52,1.62-1.035
C5.586,29.482,5.225,29.248,4.7,29.248"/>
<path fill="#004B91" d="M23.391,31.681l-2.998-6.66h-1.73v7.927h1.199v-6.595h0.025l2.97,6.595h1.079l2.973-6.595h0.025v6.595h1.199
v-7.927h-1.731l-3.006,6.66H23.391z M9.502,25.021h3.163c2.865,0,4.669,1.478,4.669,3.966c0,2.366-1.711,3.961-4.669,3.961H9.502
V25.021z M10.768,32.058h1.904c2.313,0,3.397-1.301,3.397-3.064c0-1.887-1.174-3.084-3.37-3.084h-1.931V32.058z M4.428,25.976h-0.02
l-3.077,6.972H0l3.718-7.927h1.448l3.717,7.927H7.459L4.428,25.976z"/>
<path fill="#004B91" d="M19.411,23.136c-0.424,0-0.811-0.332-0.811-0.814c0-0.469,0.375-0.813,0.813-0.813
c0.47,0,0.819,0.371,0.815,0.817C20.227,22.778,19.873,23.136,19.411,23.136 M19.417,21.607c-0.406,0-0.72,0.322-0.72,0.715
c0,0.402,0.322,0.716,0.716,0.716c0.403,0,0.716-0.315,0.718-0.714C20.132,21.931,19.827,21.607,19.417,21.607 M19.399,21.862
c0.117,0,0.172,0,0.234,0.021c0.102,0.036,0.153,0.12,0.153,0.207c0,0.127-0.101,0.201-0.226,0.221
c0.108,0.037,0.143,0.09,0.162,0.201c0.023,0.133,0.03,0.184,0.075,0.266h-0.17c-0.022-0.042-0.03-0.082-0.04-0.126
c-0.005-0.021-0.021-0.123-0.025-0.146c-0.029-0.136-0.111-0.151-0.254-0.153h-0.074v0.426h-0.146v-0.915H19.399z M19.237,22.244
h0.17c0.063,0,0.23,0.002,0.23-0.145c0-0.041-0.018-0.078-0.047-0.101c-0.042-0.035-0.092-0.035-0.214-0.035h-0.14V22.244z"/>
</svg>
