<?xml version="1.0" encoding="UTF-8" standalone="no"?>
<!-- Created with Inkscape (http://www.inkscape.org/) -->

<svg
   xmlns:dc="http://purl.org/dc/elements/1.1/"
   xmlns:cc="http://creativecommons.org/ns#"
   xmlns:rdf="http://www.w3.org/1999/02/22-rdf-syntax-ns#"
   xmlns:svg="http://www.w3.org/2000/svg"
   xmlns="http://www.w3.org/2000/svg"
   xmlns:sodipodi="http://sodipodi.sourceforge.net/DTD/sodipodi-0.dtd"
   xmlns:inkscape="http://www.inkscape.org/namespaces/inkscape"
   width="371.578"
   height="85.695"
   id="svg3911"
   version="1.1"
   inkscape:version="0.48.0 r9654"
   sodipodi:docname="New document 3">
  <defs
     id="defs3913" />
  <sodipodi:namedview
     id="base"
     pagecolor="#ffffff"
     bordercolor="#666666"
     borderopacity="1.0"
     inkscape:pageopacity="0.0"
     inkscape:pageshadow="2"
     inkscape:zoom="0.98255146"
     inkscape:cx="142.45868"
     inkscape:cy="116.94587"
     inkscape:document-units="px"
     inkscape:current-layer="layer1"
     showgrid="false"
     fit-margin-top="0"
     fit-margin-left="0"
     fit-margin-right="0"
     fit-margin-bottom="0"
     showborder="false"
     inkscape:showpageshadow="false"
     inkscape:window-width="1366"
     inkscape:window-height="706"
     inkscape:window-x="-8"
     inkscape:window-y="-8"
     inkscape:window-maximized="1" />
  <metadata
     id="metadata3916">
    <rdf:RDF>
      <cc:Work
         rdf:about="">
        <dc:format>image/svg+xml</dc:format>
        <dc:type
           rdf:resource="http://purl.org/dc/dcmitype/StillImage" />
        <dc:title></dc:title>
      </cc:Work>
    </rdf:RDF>
  </metadata>
  <g
     inkscape:label="Layer 1"
     inkscape:groupmode="layer"
     id="layer1"
     transform="translate(-48.568,-918.8242)">
    <path
       inkscape:connector-curvature="0"
       d="m 91.302348,936.61272 c 0,-0.10584 0.20925,-0.10584 0.315,-0.10584 0.105661,0 0.209251,0 0.315001,0.10584 l 30.210821,55.36583 c 7.68377,-7.78951 12.42003,-18.41853 12.42003,-30.20854 0,-23.68353 -19.26005,-42.94581 -42.945852,-42.94581 -23.789304,0 -43.049348,19.26228 -43.049348,42.94581 0,11.79001 4.736261,22.52478 12.523529,30.20854"
       style="fill:#e51635;fill-opacity:1;fill-rule:nonzero;stroke:none"
       id="path3099" />
    <path
       inkscape:connector-curvature="0"
       d="m 101.93182,963.56155 -2.947505,8.20801 14.737535,26.84023 c 0.63,-0.4185 1.26225,-0.8415 1.89225,-1.26216 -4.20976,-10.42205 -9.26102,-22.94557 -13.68228,-33.78608"
       style="fill:#e51635;fill-opacity:1;fill-rule:nonzero;stroke:none"
       id="path3117" />
    <path
       inkscape:connector-curvature="0"
       d="m 95.196207,973.66532 -3.579759,-9.26326 -3.579758,9.26326 3.579758,6.52501"
       style="fill:#e51635;fill-opacity:1;fill-rule:nonzero;stroke:none"
       id="path3129" />
    <path
       inkscape:connector-curvature="0"
       d="m 88.153241,977.98209 -9.366772,24.21011 c 0.735752,0.315 1.471503,0.5265 2.209505,0.7358 l 9.684022,-17.7864"
       style="fill:#e51635;fill-opacity:1;fill-rule:nonzero;stroke:none"
       id="path3123" />
    <path
       inkscape:connector-curvature="0"
       d="m 94.248504,985.13809 9.787526,17.78631 c 0.738,-0.2093 1.368,-0.4208 2.10375,-0.7358 l -9.261019,-24.21002"
       style="fill:#e51635;fill-opacity:1;fill-rule:nonzero;stroke:none"
       id="path3105" />
    <path
       inkscape:connector-curvature="0"
       d="m 81.722276,962.29606 3.789009,6.84226 4.63276,-8.42176 -3.791259,-9.78977 c -1.368003,3.37051 -2.947506,7.15951 -4.63051,11.36927"
       style="fill:#e51635;fill-opacity:1;fill-rule:nonzero;stroke:none"
       id="path3135" />
    <path
       inkscape:connector-curvature="0"
       d="m 81.195775,963.56146 c -4.31551,10.84051 -9.369022,23.36403 -13.684532,33.89183 0.634502,0.42066 1.262253,0.84366 2.000255,1.1565 l 14.631783,-26.84032"
       style="fill:#e51635;fill-opacity:1;fill-rule:nonzero;stroke:none"
       id="path3081" />
    <path
       inkscape:connector-curvature="0"
       d="m 101.40667,962.29606 c -1.685253,-4.20976 -3.262507,-7.99876 -4.63051,-11.36927 l -3.791258,9.78977 4.62826,8.42176"
       style="fill:#e51635;fill-opacity:1;fill-rule:nonzero;stroke:none"
       id="path3093" />
    <path
       inkscape:connector-curvature="0"
       d="m 86.879288,949.55969 4.73851,8.63101 4.628261,-8.63101 c -2.733756,-6.63301 -4.52476,-11.15776 -4.628261,-11.47276 -0.21375,0.315 -2.002504,4.83975 -4.73851,11.47276"
       style="fill:#e51635;fill-opacity:1;fill-rule:nonzero;stroke:none"
       id="path3087" />
    <path
       inkscape:connector-curvature="0"
       d="m 91.617348,992.62565 -4.106259,11.78555 c 1.264503,0.108 2.632506,0.108 4.106259,0.108 1.368004,0 2.736007,0 4.10401,-0.108"
       style="fill:#e51635;fill-opacity:1;fill-rule:nonzero;stroke:none"
       id="path3111" />
    <path
       inkscape:connector-curvature="0"
       d="m 132.23759,988.91539 0,-0.87525 0.49725,0 c 0.297,0 0.6525,0.0427 0.6525,0.4275 0,0.42075 -0.378,0.44775 -0.70425,0.44775 l -0.4455,0 z m -0.576,1.86076 0.576,0 0,-1.36801 0.4185,0 0.74925,1.36801 0.69526,0 -0.85951,-1.42876 c 0.47925,-0.0675 0.74926,-0.4095 0.74926,-0.87525 0,-0.7245 -0.58501,-0.927 -1.20376,-0.927 l -1.125,0"
       style="fill:#e51635;fill-opacity:1;fill-rule:nonzero;stroke:none"
       id="path3145" />
    <path
       inkscape:connector-curvature="0"
       d="m 135.11625,989.19394 c 0,1.32976 -1.07775,2.40526 -2.40526,2.40526 -1.32975,0 -2.40525,-1.0755 -2.40525,-2.40526 0,-1.32975 1.0755,-2.40525 2.40525,-2.40525 1.32751,0 2.40526,1.0755 2.40526,2.40525 m 0.6075,0 c 0,-1.665 -1.35,-3.01275 -3.01276,-3.01275 -1.66725,0 -3.015,1.34775 -3.015,3.01275 0,1.66501 1.34775,3.01501 3.015,3.01501 1.66276,0 3.01276,-1.35 3.01276,-3.01501"
       style="fill:#e51635;fill-opacity:1;fill-rule:nonzero;stroke:none"
       id="path3141" />
    <path
       inkscape:connector-curvature="0"
       d="m 169.33613,944.29468 4.05901,0 14.13453,33.03005 -5.22451,0 -3.31201,-8.16526 -15.72079,0 -3.26701,8.16526 -5.22451,0 14.55529,-33.03005 z m 8.02351,20.94753 -6.15826,-15.16277 -0.0923,0 -6.25051,15.16277"
       style="fill:#000000;fill-opacity:1;fill-rule:nonzero;stroke:none"
       id="path3011" />
    <path
       inkscape:connector-curvature="0"
       d="m 190.14192,977.32473 4.19851,0 0,-35.26889 -4.19851,0 0,35.26889 z"
       style="fill:#000000;fill-opacity:1;fill-rule:nonzero;stroke:none"
       id="path3013" />
    <path
       inkscape:connector-curvature="0"
       d="m 201.33795,977.32473 4.19851,0 0,-35.2688 -4.19851,0 0,35.2688 z"
       style="fill:#000000;fill-opacity:1;fill-rule:nonzero;stroke:none"
       id="path3015" />
    <path
       inkscape:connector-curvature="0"
       d="m 214.86678,944.20243 c 1.6785,0 3.07801,1.39951 3.07801,3.07801 0,1.68075 -1.39951,3.08025 -3.07801,3.08025 -1.6785,0 -3.07801,-1.3995 -3.07801,-3.08025 0,-1.6785 1.39951,-3.07801 3.07801,-3.07801 m -2.09925,11.00927 4.19851,0 0,22.11303 -4.19851,0 0,-22.11303 z"
       style="fill:#000000;fill-opacity:1;fill-rule:nonzero;stroke:none"
       id="path3019" />
    <path
       inkscape:connector-curvature="0"
       d="m 223.7273,957.9162 c 2.33101,-2.19366 5.69026,-3.26466 8.77052,-3.26466 6.52952,0 9.23627,3.546 9.23627,7.37101 l 0,11.29051 c 0,1.53666 0.0472,2.84401 0.18675,4.00951 l -3.73276,0 c -0.0923,-1.11834 -0.1395,-2.23885 -0.1395,-3.35701 l -0.0945,0 c -1.86525,2.84401 -4.38301,3.91717 -7.74226,3.91717 -4.10626,0 -7.65002,-2.331 -7.65002,-6.62401 0,-5.69017 5.45626,-7.65217 12.17478,-7.65217 l 3.078,0 0,-0.9315 c 0,-2.286 -1.6785,-4.66435 -5.27176,-4.66435 -3.21751,0 -4.75651,1.35234 -6.29776,2.51785 l -2.51776,-2.61235 z m 11.84853,8.77051 c -3.96451,0 -8.81552,0.69984 -8.81552,4.24585 0,2.52 1.86525,3.591 4.75651,3.591 4.66651,0 6.29776,-3.4515 6.29776,-6.43734 l 0,-1.39951"
       style="fill:#000000;fill-opacity:1;fill-rule:nonzero;stroke:none"
       id="path3023" />
    <path
       inkscape:connector-curvature="0"
       d="m 247.38025,955.2117 4.19851,0 0,3.4065 0.0923,0 c 1.07551,-2.33325 3.87226,-3.9645 7.27877,-3.9645 4.29301,0 8.02577,2.565 8.02577,8.44201 l 0,14.22902 -4.20076,0 0,-13.06352 c 0,-4.15126 -2.37826,-5.69026 -5.03776,-5.69026 -3.49876,0 -6.15827,2.23876 -6.15827,7.37101 l 0,11.38277 -4.19851,0"
       style="fill:#000000;fill-opacity:1;fill-rule:nonzero;stroke:none"
       id="path3027" />
    <path
       inkscape:connector-curvature="0"
       d="m 287.7314,961.08826 c -1.53901,-1.63126 -3.17251,-2.47276 -5.50352,-2.47276 -4.57201,0 -6.90526,3.68551 -6.90526,7.83676 0,4.15351 2.79901,7.51276 7.13702,7.51276 2.33325,0 3.96675,-0.8415 5.36626,-2.47275 l 2.98575,2.98575 c -2.19375,2.42551 -5.17726,3.40651 -8.39702,3.40651 -6.81076,0 -11.56952,-4.71376 -11.56952,-11.52452 0,-6.81076 4.66651,-11.66176 11.56952,-11.66176 3.21976,0 6.29552,1.11825 8.48927,3.49875"
       style="fill:#000000;fill-opacity:1;fill-rule:nonzero;stroke:none"
       id="path3031" />
    <path
       inkscape:connector-curvature="0"
       d="m 297.80647,967.80677 c 0,3.87225 3.59101,6.43725 7.46327,6.43725 2.565,0 4.43251,-1.30725 6.06376,-3.312 l 3.17251,2.4255 c -2.33326,3.03301 -5.55076,4.52701 -9.79652,4.52701 -6.99527,0 -11.38053,-5.04001 -11.38053,-11.61677 0,-6.62626 4.80376,-11.61676 11.42778,-11.61676 7.79176,0 10.77752,5.97151 10.77752,11.66176 l 0,1.49401 -17.72779,0 z m 13.25028,-3.35926 c -0.0945,-3.6855 -2.14875,-6.43726 -6.39226,-6.43726 -4.15351,0 -6.85802,3.49876 -6.85802,6.43726"
       style="fill:#000000;fill-opacity:1;fill-rule:nonzero;stroke:none"
       id="path3035" />
    <path
       inkscape:connector-curvature="0"
       d="m 320.89782,944.29468 11.52228,0 c 13.95003,0 17.35429,10.40402 17.35429,16.51503 0,8.44426 -6.29552,16.51502 -18.10129,16.51502 l -10.77528,0 0,-33.03005 z m 4.47976,28.82929 5.64302,0 c 7.55776,0 13.99503,-4.15125 13.99503,-12.31426 0,-4.19851 -2.19151,-12.31652 -12.92178,-12.31652 l -6.71627,0"
       style="fill:#808080;fill-opacity:1;fill-rule:nonzero;stroke:none"
       id="path3041" />
    <path
       inkscape:connector-curvature="0"
       d="m 388.40023,958.8495 -6.01652,0 0,10.03052 c 0,2.47275 0,5.085 3.17026,5.085 0.981,0 2.14651,-0.1395 2.98576,-0.6525 l 0,3.82501 c -0.981,0.558 -2.93851,0.747 -3.78001,0.747 -6.48227,0 -6.57677,-3.96676 -6.57677,-7.51276 l 0,-11.52227 -4.85101,0 0,-3.63825 4.85101,0 0,-6.20551 4.20076,0 0,6.20551 6.01652,0"
       style="fill:#808080;fill-opacity:1;fill-rule:nonzero;stroke:none"
       id="path3053" />
    <path
       inkscape:connector-curvature="0"
       d="m 353.36675,957.9162 c 2.3355,-2.19375 5.69251,-3.26475 8.77052,-3.26475 6.53401,0 9.23627,3.546 9.23627,7.37101 l 0,11.29051 c 0,1.53675 0.0473,2.84401 0.189,4.00951 l -3.73276,0 c -0.0922,-1.11825 -0.1395,-2.23876 -0.1395,-3.35701 l -0.0945,0 c -1.86525,2.84401 -4.38526,3.91726 -7.74227,3.91726 -4.10626,0 -7.65002,-2.331 -7.65002,-6.62401 0,-5.69026 5.45627,-7.65226 12.17253,-7.65226 l 3.08026,0 0,-0.9315 c 0,-2.286 -1.6785,-4.66426 -5.27176,-4.66426 -3.21751,0 -4.75876,1.35225 -6.29777,2.51776 l -2.52,-2.61226 z m 11.85077,8.77051 c -3.96675,0 -8.81777,0.69975 -8.81777,4.24576 0,2.52 1.86751,3.591 4.75877,3.591 4.66651,0 6.29776,-3.4515 6.29776,-6.43725 l 0,-1.39951"
       style="fill:#808080;fill-opacity:1;fill-rule:nonzero;stroke:none"
       id="path3047" />
    <path
       inkscape:connector-curvature="0"
       d="m 392.50478,957.9162 c 2.33325,-2.19375 5.69026,-3.26475 8.77052,-3.26475 6.53176,0 9.23627,3.546 9.23627,7.37101 l 0,11.29051 c 0,1.53675 0.0473,2.84401 0.18675,4.00951 l -3.73276,0 c -0.0922,-1.11825 -0.1395,-2.23876 -0.1395,-3.35701 l -0.0923,0 c -1.86525,2.84401 -4.38526,3.91726 -7.74452,3.91726 -4.10626,0 -7.65002,-2.331 -7.65002,-6.62401 0,-5.69026 5.45627,-7.65226 12.17478,-7.65226 l 3.07801,0 0,-0.9315 c 0,-2.286 -1.67625,-4.66426 -5.26951,-4.66426 -3.21976,0 -4.75876,1.35225 -6.29777,2.51776 l -2.52,-2.61226 z m 11.84852,8.77051 c -3.96451,0 -8.81552,0.69975 -8.81552,4.24576 0,2.52 1.86526,3.591 4.75651,3.591 4.66652,0 6.29777,-3.4515 6.29777,-6.43725 l 0,-1.39951"
       style="fill:#808080;fill-opacity:1;fill-rule:nonzero;stroke:none"
       id="path3059" />
    <path
       inkscape:connector-curvature="0"
       d="m 416.65984,974.29532 0,-0.87525 0.495,0 c 0.297,0 0.65475,0.045 0.65475,0.42975 0,0.4185 -0.38025,0.4455 -0.70425,0.4455 l -0.4455,0 z m -0.576,1.86301 0.576,0 0,-1.36801 0.4185,0 0.74925,1.36801 0.69301,0 -0.85726,-1.42876 c 0.47926,-0.0675 0.74926,-0.41175 0.74926,-0.87525 0,-0.72675 -0.58501,-0.927 -1.20601,-0.927 l -1.12275,0"
       style="fill:#808080;fill-opacity:1;fill-rule:nonzero;stroke:none"
       id="path3069" />
    <path
       inkscape:connector-curvature="0"
       d="m 419.5385,974.57477 c 0,1.32976 -1.07775,2.40526 -2.40526,2.40526 -1.32975,0 -2.4075,-1.0755 -2.4075,-2.40526 0,-1.32975 1.07775,-2.40525 2.4075,-2.40525 1.32751,0 2.40526,1.0755 2.40526,2.40525 m 0.6075,0 c 0,-1.665 -1.35,-3.015 -3.01276,-3.015 -1.66725,0 -3.015,1.35 -3.015,3.015 0,1.66501 1.34775,3.01276 3.015,3.01276 1.66276,0 3.01276,-1.34775 3.01276,-3.01276"
       style="fill:#808080;fill-opacity:1;fill-rule:nonzero;stroke:none"
       id="path3065" />
  </g>
</svg>
