<?xml version="1.0" encoding="UTF-8" standalone="no"?>
<!-- Created with Inkscape (http://www.inkscape.org/) -->

<svg
   xmlns:dc="http://purl.org/dc/elements/1.1/"
   xmlns:cc="http://creativecommons.org/ns#"
   xmlns:rdf="http://www.w3.org/1999/02/22-rdf-syntax-ns#"
   xmlns:svg="http://www.w3.org/2000/svg"
   xmlns="http://www.w3.org/2000/svg"
   xmlns:sodipodi="http://sodipodi.sourceforge.net/DTD/sodipodi-0.dtd"
   xmlns:inkscape="http://www.inkscape.org/namespaces/inkscape"
   width="364.51001"
   height="137.57001"
   id="svg2"
   version="1.1"
   inkscape:version="0.47 r22583"
   sodipodi:docname="New document 1">
  <defs
     id="defs4">
    <inkscape:perspective
       sodipodi:type="inkscape:persp3d"
       inkscape:vp_x="0 : 526.18109 : 1"
       inkscape:vp_y="0 : 1000 : 0"
       inkscape:vp_z="744.09448 : 526.18109 : 1"
       inkscape:persp3d-origin="372.04724 : 350.78739 : 1"
       id="perspective10" />
    <clipPath
       id="clipPath2994"
       clipPathUnits="userSpaceOnUse">
      <path
         id="path2996"
         d="m 0,792.03 612,0 0,-792 -612,0 0,792 z" />
    </clipPath>
    <clipPath
       id="clipPath2986"
       clipPathUnits="userSpaceOnUse">
      <path
         id="path2988"
         clip-rule="evenodd"
         d="m 264.42,176.58 -13.92,0 0,571.86 13.92,0 0,-571.86 z" />
    </clipPath>
    <clipPath
       id="clipPath2974"
       clipPathUnits="userSpaceOnUse">
      <path
         id="path2976"
         d="m 0,792.03 612,0 0,-792 -612,0 0,792 z" />
    </clipPath>
    <clipPath
       id="clipPath2966"
       clipPathUnits="userSpaceOnUse">
      <path
         id="path2968"
         clip-rule="evenodd"
         d="m 264.42,52.26 -13.92,0 0,122.64 13.92,0 0,-122.64 z" />
    </clipPath>
    <clipPath
       id="clipPath2840"
       clipPathUnits="userSpaceOnUse">
      <path
         id="path2842"
         d="m 0,792.03 612,0 0,-792 -612,0 0,792 z" />
    </clipPath>
    <clipPath
       id="clipPath2832"
       clipPathUnits="userSpaceOnUse">
      <path
         id="path2834"
         clip-rule="evenodd"
         d="M 570,0 42,0 42,792 570,792 570,0 z" />
    </clipPath>
    <inkscape:perspective
       id="perspective2824"
       inkscape:persp3d-origin="0.5 : 0.33333333 : 1"
       inkscape:vp_z="1 : 0.5 : 1"
       inkscape:vp_y="0 : 1000 : 0"
       inkscape:vp_x="0 : 0.5 : 1"
       sodipodi:type="inkscape:persp3d" />
  </defs>
  <sodipodi:namedview
     id="base"
     pagecolor="#ffffff"
     bordercolor="#666666"
     borderopacity="1.0"
     inkscape:pageopacity="0.0"
     inkscape:pageshadow="2"
     inkscape:zoom="2.8"
     inkscape:cx="255.46244"
     inkscape:cy="27.155739"
     inkscape:document-units="px"
     inkscape:current-layer="layer1"
     showgrid="false"
     inkscape:window-width="1680"
     inkscape:window-height="1000"
     inkscape:window-x="-8"
     inkscape:window-y="-8"
     inkscape:window-maximized="1" />
  <metadata
     id="metadata7">
    <rdf:RDF>
      <cc:Work
         rdf:about="">
        <dc:format>image/svg+xml</dc:format>
        <dc:type
           rdf:resource="http://purl.org/dc/dcmitype/StillImage" />
        <dc:title></dc:title>
      </cc:Work>
    </rdf:RDF>
  </metadata>
  <g
     inkscape:label="Layer 1"
     inkscape:groupmode="layer"
     id="layer1"
     transform="translate(-222.48127,-322.08866)">
    <g
       id="g2846"
       transform="matrix(0,1.25,1.25,0,228.33484,381.22289)">
      <path
         d="m 0,0 -0.3,-0.84 -2.58,0.42 -22.74,10.08 -0.12,26.52 -0.12,26.52 2.52,6.48 2.88,0.54 2.58,0.06 4.74,-0.66 L -0.12,65.1 0.3,53.94 0.18,27 0,0"
         style="fill:#ffffff;fill-opacity:1;fill-rule:evenodd;stroke:none"
         id="path2848" />
    </g>
    <g
       id="g2850"
       transform="matrix(0,1.25,1.25,0,578.58483,362.47289)">
      <path
         d="M 0,0 0,0.72 C -0.976,6.102 -8.16,5.952 -8.76,0.48 l 0,-1.02 0.06,-0.18 c 0.142,-1.87 1.609,-3.529 3.42,-3.9 l 0.42,-0.06 0.48,0 c 1.974,-0.125 3.632,1.483 4.2,3.24 L -0.06,-0.96 0,-0.54 0,0 z m -8.1,0 0,0.42 0.12,0.36 c 0.655,4.133 6.488,4.205 7.14,0 L -0.78,0.42 -0.72,0 c -0.164,-4.698 -6.172,-5.431 -7.26,-0.84 l -0.12,0.48 0,0.36 z m 3.96,0.84 0,0.24 -0.12,0.24 -0.06,0.24 -0.06,0.12 -0.12,0.06 -0.18,0.18 -0.48,0.24 -0.24,0 -0.12,0.06 -0.18,-0.06 -0.18,0 L -6,2.1 C -6.577,1.944 -6.74,1.296 -6.84,0.78 l 0,-2.58 4.98,0 0,0.72 -2.28,0 0,1.02 2.28,1.32 0,0.84 -2.28,-1.26 z m -1.98,-0.54 0.06,0.42 0,0.18 c 0.179,0.481 0.168,0.57 0.72,0.54 l 0.12,0 0.06,-0.06 0.06,-0.12 0.12,-0.12 0,-0.3 0.06,-0.24 0,-1.68 -1.2,0 0,1.38"
         style="fill:#6b6c6b;fill-opacity:1;fill-rule:evenodd;stroke:none"
         id="path2852" />
    </g>
    <path
       id="path2856"
       style="fill:#c21229;fill-opacity:1;fill-rule:evenodd;stroke:none"
       d="m 315.25982,358.79789 -0.15,-1.275 -0.225,-1.05 c -1.15875,-2.21 -1.42625,-2.78 -3.45,-4.275 l -0.9,-0.675 -0.975,-0.6 -1.05,-0.525 -1.275,-0.375 -1.125,-0.225 -1.5,-0.225 -63.75,0 -12.975,28.05 -0.15,0.3 2.325,-17.25 4.95,-36.375 84.975,0 -4.725,34.5" />
    <g
       id="g2858"
       transform="matrix(0,1.25,1.25,0,240.10984,377.24789)">
      <path
         d="m 0,0 3.06,-1.14 0,-9.06 20.58,-2.76 0,68.16 -33.96,4.56 0.78,-0.24 c 3.091,-1.353 5.147,-4.628 5.16,-7.98 l 0,-5.46 L 3.06,45 3.06,6.84 0,6.66 0,0"
         style="fill:#c21229;fill-opacity:1;fill-rule:evenodd;stroke:none"
         id="path2860" />
    </g>
    <g
       id="g2862"
       transform="matrix(0,1.25,1.25,0,284.28484,357.89789)">
      <path
         d="m 0,0 0,-7.8 2.7,-0.42 0,7.86 6.72,-0.9 0,-7.8 2.46,-0.36 0,7.86 6.66,-0.9 3,2.4 L -8.04,3.9 -6.66,0.96 0,0"
         style="fill:#c21229;fill-opacity:1;fill-rule:evenodd;stroke:none"
         id="path2864" />
    </g>
    <g
       id="g2866"
       transform="matrix(0,1.25,1.25,0,299.65984,357.74789)">
      <path
         d="m 0,0 4.68,-0.6 0,2.22 C 4.408,4.029 0.338,4.571 0,1.86 L 0,0"
         style="fill:#c21229;fill-opacity:1;fill-rule:evenodd;stroke:none"
         id="path2868" />
    </g>
    <g
       id="g2870"
       transform="matrix(0,1.25,1.25,0,242.73484,369.82288)">
      <path
         d="M 0,0 0,4.02 -8.16,3.36 0,0"
         style="fill:#c21229;fill-opacity:1;fill-rule:evenodd;stroke:none"
         id="path2872" />
    </g>
    <g
       id="g2874"
       transform="matrix(0,1.25,1.25,0,259.83484,377.92289)">
      <path
         d="m 0,0 -12.18,-1.68 -15.78,-2.4 5.28,7.02 L -12,1.56 0,0"
         style="fill:#c21229;fill-opacity:1;fill-rule:evenodd;stroke:none"
         id="path2876" />
    </g>
    <g
       id="g2878"
       transform="matrix(0,1.25,1.25,0,323.50981,457.0479)">
      <path
         d="m 0,0 0,8.52 -7.38,1.08 0,5.4 c -0.432,4.831 -3.994,7.919 -8.7,8.4 l -0.54,0.06 -0.54,0 c -4.618,0.126 -7.11,-3.19 -7.32,-7.56 l -0.06,-1.02 0,-11.16 L 0,0 z m -17.82,11.22 0,0.84 c -0.526,4.797 4.855,3.205 4.26,-0.6 l 0,-0.9 -4.26,0.66"
         style="fill:#6b6c6b;fill-opacity:1;fill-rule:evenodd;stroke:none"
         id="path2880" />
    </g>
    <g
       id="g2882"
       transform="matrix(0,1.25,1.25,0,369.70982,425.92289)">
      <path
         d="m 0,0 0.06,-0.72 0,-0.72 0.06,-0.66 c 0.917,-6.788 5.805,-12.207 12.66,-13.32 l 0.78,-0.12 0.72,0 c 6.158,-0.449 10.405,3.689 11.16,9.6 l 0.06,0.66 0.06,0.72 0,1.38 C 25.26,3.425 20.934,9.688 14.28,11.1 l -0.72,0.24 -0.78,0.06 C 6.137,12.495 0.964,8.567 0.12,1.92 L 0.06,1.26 0.06,0.66 0,0 z m 8.1,-1.32 0.06,0.54 0,0.3 0.06,0.24 c 0.756,2.253 2.428,3.099 4.74,2.82 L 13.5,2.46 13.98,2.34 c 1.644,-0.69 3.107,-1.898 3.54,-3.66 l 0.12,-0.42 0.12,-0.48 0,-0.48 C 17.586,-8.559 9.265,-7.316 8.22,-2.28 L 8.1,-1.32"
         style="fill:#6b6c6b;fill-opacity:1;fill-rule:evenodd;stroke:none"
         id="path2884" />
    </g>
    <g
       id="g2886"
       transform="matrix(0,1.25,1.25,0,383.88482,426.37289)">
      <path
         d="m 0,0 24.54,4.74 0,7.44 -9.6,3.84 -0.48,0.3 -0.48,0.12 -0.9,0.24 -0.96,0.18 -0.9,0.3 0,0.24 13.32,0.72 0,7.68 L 0,37.98 0,28.92 10.38,24.9 l 1.02,-0.42 1.08,-0.3 2.16,-0.54 0,-0.18 L 0,22.32 0,15.6 l 10.14,-4.02 1.14,-0.48 1.08,-0.36 2.28,-0.6 0,-0.18 L 0,9.06 0,0"
         style="fill:#6b6c6b;fill-opacity:1;fill-rule:evenodd;stroke:none"
         id="path2888" />
    </g>
    <g
       id="g2890"
       transform="matrix(0,1.25,1.25,0,428.35982,457.0479)">
      <path
         d="m 0,0 0,16.62 -6.72,1.02 0,-7.74 -2.4,0.42 0,6.78 -6.36,0.96 0,-6.78 -2.34,0.3 0,7.5 -6.72,1.08 0,-16.44 L 0,0"
         style="fill:#6b6c6b;fill-opacity:1;fill-rule:evenodd;stroke:none"
         id="path2892" />
    </g>
    <g
       id="g2894"
       transform="matrix(0,1.25,1.25,0,452.43483,457.0479)">
      <path
         d="m 0,0 0,8.76 -7.92,1.2 0,0.18 L 0,12.78 0,23.1 -7.98,18.96 -8.22,18.9 -8.4,18.72 -8.64,18.54 -8.82,18.36 -9.12,18 l -0.3,-0.3 -0.18,0 -0.24,0.72 -0.24,0.54 c -1.021,3.656 -5.121,4.94 -8.52,4.62 l -0.54,-0.06 -0.42,-0.12 c -3.747,-1.03 -4.892,-4.831 -4.98,-8.34 l 0,-11.28 L 0,0 z m -17.82,11.52 0,1.2 c -0.012,0.875 0.392,2.112 1.5,1.98 l 0.6,0 c 1.451,-0.288 2.024,-1.152 2.04,-2.64 l 0,-1.2 -4.14,0.66"
         style="fill:#6b6c6b;fill-opacity:1;fill-rule:evenodd;stroke:none"
         id="path2896" />
    </g>
    <g
       id="g2898"
       transform="matrix(0,1.25,1.25,0,344.50982,377.77288)">
      <path
         d="m 0,0 0,6.66 3.06,0.36 0,9.3 -24.66,-4.92 0,-9.72 24.66,-12.12 0,9.3 L 0,0 z m -5.88,2.46 -7.5,2.76 0,0.3 1.62,0 0.72,0.06 0.78,0.06 4.38,0.36 0,-3.54"
         style="fill:#6b6c6b;fill-opacity:1;fill-rule:evenodd;stroke:none"
         id="path2900" />
    </g>
    <g
       id="g2902"
       transform="matrix(0,1.25,1.25,0,363.40983,381.5979)">
      <path
         d="m 0,0 0,8.64 -10.5,2.64 -3,0.72 0,0.3 0.78,-0.06 0.78,0 1.5,0.06 10.44,1.62 0,5.16 -11.1,5.28 -0.54,0.24 -0.6,0.24 -1.26,0.48 0,0.12 L 0,24.6 0,33.24 -24.66,33 l 0,-9.12 9.72,-4.26 1.56,-0.6 1.68,-0.48 0,-0.18 -12.96,-1.44 0,-9.18 L 0,0"
         style="fill:#6b6c6b;fill-opacity:1;fill-rule:evenodd;stroke:none"
         id="path2904" />
    </g>
    <g
       id="g2906"
       transform="matrix(0,1.25,1.25,0,408.33481,381.5979)">
      <path
         d="m 0,0 0,16.44 -6.72,1.02 0,-7.62 -2.46,0.3 0,6.78 -6.42,0.96 0,-6.78 -2.34,0.36 0,7.44 -6.72,1.02 0,-16.26 L 0,0"
         style="fill:#6b6c6b;fill-opacity:1;fill-rule:evenodd;stroke:none"
         id="path2908" />
    </g>
    <g
       id="g2910"
       transform="matrix(0,1.25,1.25,0,432.10982,381.5979)">
      <path
         d="m 0,0 0,8.64 -7.92,1.26 0,0.18 7.92,2.7 0,10.2 -7.98,-4.08 -0.24,-0.12 -0.3,-0.24 -0.18,-0.12 -0.18,-0.18 -0.3,-0.36 -0.3,-0.3 -0.18,0.06 -0.24,0.6 c -1.354,4.261 -4.689,5.448 -8.82,5.16 l -0.48,-0.06 -0.42,-0.12 c -3.61,-0.641 -5.105,-5.055 -5.04,-8.28 l 0,-11.16 L 0,0 z m -17.94,11.4 0,1.26 0.06,0.54 0.06,0.18 0.06,0.3 0.06,0.18 0.12,0.18 0.3,0.3 0.36,0.24 0.24,0 0.24,0.06 0.3,0 0.3,-0.06 c 1.386,0.056 2.15,-1.393 2.1,-2.64 l 0,-1.2 -4.2,0.66"
         style="fill:#6b6c6b;fill-opacity:1;fill-rule:evenodd;stroke:none"
         id="path2912" />
    </g>
    <g
       id="g2914"
       transform="matrix(0,1.25,1.25,0,463.00982,381.5979)">
      <path
         d="m 0,0 0,8.7 -24.66,3.66 0,-8.64 L 0,0"
         style="fill:#6b6c6b;fill-opacity:1;fill-rule:evenodd;stroke:none"
         id="path2916" />
    </g>
    <g
       id="g2918"
       transform="matrix(0,1.25,1.25,0,503.35982,351.29789)">
      <path
         d="m 0,0 -0.48,-1.44 c -2.591,-8.504 3.308,-17.428 11.82,-19.08 l 0.6,-0.12 0.66,-0.12 c 10.038,-0.616 13.649,7.631 11.16,16.5 l -0.12,0.3 -0.12,0.3 -9.24,1.74 0.48,-0.6 0.24,-0.36 c 2.524,-3.225 2.176,-8.82 -2.76,-8.76 l -0.48,0 -0.54,0.12 C 6.965,-10.279 5.577,-5.528 8.4,-2.16 L 8.94,-1.68 9.42,-1.2 0,0"
         style="fill:#6b6c6b;fill-opacity:1;fill-rule:evenodd;stroke:none"
         id="path2920" />
    </g>
    <g
       id="g2922"
       transform="matrix(0,1.25,1.25,0,512.73482,377.77288)">
      <path
         d="m 0,0 0,6.66 3.06,0.36 0,9.3 -24.66,-4.92 0,-9.78 24.66,-12.06 0,9.3 L 0,0 z m -5.88,2.46 -7.5,2.76 0,0.36 3.12,0 4.38,0.42 0,-3.54"
         style="fill:#6b6c6b;fill-opacity:1;fill-rule:evenodd;stroke:none"
         id="path2924" />
    </g>
    <g
       id="g2926"
       transform="matrix(0,1.25,1.25,0,535.38481,381.5979)">
      <path
         d="m 0,0 0,8.46 -7.98,1.2 c -1.262,0.27 -2.435,0.258 -3.72,0.24 l -1.2,0 0,0.24 12.9,5.82 0,8.4 -24.66,3.78 0,-8.46 7.38,-1.08 c 1.539,-0.42 3.166,-0.263 4.74,-0.3 l 1.56,0.06 0,-0.24 -13.68,-5.88 0,-8.46 L 0,0"
         style="fill:#6b6c6b;fill-opacity:1;fill-rule:evenodd;stroke:none"
         id="path2928" />
    </g>
    <g
       id="g2930"
       transform="matrix(0,1.25,1.25,0,327.93482,419.32289)">
      <path
         d="m 0,0 0,16.8 -6.72,1.02 0,-7.8 -2.52,0.42 0,6.78 -6.48,1.02 0,-6.84 -2.34,0.36 0,7.5 -6.84,1.02 0,-16.5 L 0,0"
         style="fill:#6b6c6b;fill-opacity:1;fill-rule:evenodd;stroke:none"
         id="path2932" />
    </g>
    <g
       id="g2934"
       transform="matrix(0,1.25,1.25,0,352.08481,419.32289)">
      <path
         d="m 0,0 0,16.62 -7.92,1.2 0,-7.5 -16.98,2.52 0,-9 L 0,0"
         style="fill:#6b6c6b;fill-opacity:1;fill-rule:evenodd;stroke:none"
         id="path2936" />
    </g>
    <g
       id="g2938"
       transform="matrix(0,1.25,1.25,0,375.48481,419.32289)">
      <path
         d="m 0,0 0,16.74 -6.72,1.02 0,-7.74 -2.52,0.36 0,6.84 -6.48,1.02 0,-6.9 -2.34,0.36 0,7.44 -6.84,1.14 0,-16.5 L 0,0"
         style="fill:#6b6c6b;fill-opacity:1;fill-rule:evenodd;stroke:none"
         id="path2940" />
    </g>
    <g
       id="g2942"
       transform="matrix(0,1.25,1.25,0,425.28483,388.94789)">
      <path
         d="m 0,0 -0.18,-0.66 -0.24,-0.72 c -2.409,-8.721 3.121,-17.02 11.76,-18.9 l 1.32,-0.24 c 9.964,-0.572 13.688,7.583 11.1,16.32 l -0.12,0.36 -0.12,0.3 -9.24,1.62 0.72,-0.9 c 2.707,-3.235 2.06,-8.806 -2.76,-8.7 l -0.96,0.12 c -4.163,1.217 -5.797,5.965 -2.76,9.24 L 8.94,-1.62 9.42,-1.2 0,0"
         style="fill:#6b6c6b;fill-opacity:1;fill-rule:evenodd;stroke:none"
         id="path2944" />
    </g>
    <g
       id="g2946"
       transform="matrix(0,1.25,1.25,0,426.48482,398.32289)">
      <path
         d="m 0,0 -0.24,4.86 17.04,-2.52 0,8.76 -17.04,2.52 0.24,4.74 -8.1,1.2 0,-18.3 L 0,0"
         style="fill:#6b6c6b;fill-opacity:1;fill-rule:evenodd;stroke:none"
         id="path2948" />
    </g>
    <g
       id="g2950"
       transform="matrix(0,1.25,1.25,0,449.13481,419.32289)">
      <path
         d="m 0,0 0,8.58 -7.98,1.2 0,0.12 L 0,12.6 0,22.68 -8.1,18.72 C -8.839,18.275 -8.96,18.01 -9.6,17.4 l -0.18,0 -0.18,0.72 -0.3,0.54 c -1.412,3.852 -4.998,4.726 -8.7,4.5 l -0.42,-0.06 -0.48,-0.12 c -3.763,-0.785 -5.047,-4.727 -5.04,-8.16 L -24.9,3.66 0,0 z m -18.12,11.28 0,0.66 0.06,0.54 c -0.115,0.874 0.412,2.063 1.44,1.98 l 0.66,0 c 1.491,-0.312 1.934,-1.206 2.04,-2.64 l 0,-1.2 -4.2,0.66"
         style="fill:#6b6c6b;fill-opacity:1;fill-rule:evenodd;stroke:none"
         id="path2952" />
    </g>
    <g
       id="g2954"
       transform="matrix(0,1.25,1.25,0,479.65983,419.32289)">
      <path
         d="m 0,0 0,8.64 -24.9,3.72 0,-8.7 L 0,0"
         style="fill:#6b6c6b;fill-opacity:1;fill-rule:evenodd;stroke:none"
         id="path2956" />
    </g>
    <g
       id="g2958"
       transform="matrix(0,1.25,1.25,0,520.00982,388.94789)">
      <path
         d="m 0,0 -0.18,-0.66 -0.24,-0.72 c -2.401,-8.758 3.106,-16.979 11.76,-18.9 l 1.32,-0.24 c 9.867,-0.622 13.714,7.539 11.1,16.26 l -0.12,0.42 -0.12,0.3 -9.24,1.62 0.72,-0.9 c 2.711,-3.235 2.052,-8.814 -2.76,-8.7 l -0.96,0.12 c -4.124,1.196 -5.817,5.953 -2.76,9.24 L 8.94,-1.68 9.42,-1.2 0,0"
         style="fill:#6b6c6b;fill-opacity:1;fill-rule:evenodd;stroke:none"
         id="path2960" />
    </g>
    <g
       id="g2962"
       transform="matrix(0,1.25,1.25,0,1192.8384,242.36218)">
      <g
         id="g2964"
         clip-path="url(#clipPath2966)">
        <g
           id="g2970">
          <g
             id="g2972"
             clip-path="url(#clipPath2974)">
            <g
               id="g2978">
              <g
                 id="g2980"
                 transform="matrix(0,122.75999,-14.039993,0,264.48,52.199997)" />
            </g>
          </g>
        </g>
      </g>
    </g>
    <g
       id="g2982"
       transform="matrix(0,1.25,1.25,0,1192.8384,242.36218)">
      <g
         id="g2984"
         clip-path="url(#clipPath2986)">
        <g
           id="g2990">
          <g
             id="g2992"
             clip-path="url(#clipPath2994)">
            <g
               id="g2998">
              <g
                 id="g3000"
                 transform="matrix(0,571.98,-14.039993,0,264.48,176.52)" />
            </g>
          </g>
        </g>
      </g>
    </g>
    <g
       id="g3012"
       transform="matrix(351.975,0,0,-322.35,1512.6384,929.96218)" />
  </g>
</svg>
