<?xml version="1.0" encoding="UTF-8" standalone="no"?>
<!-- Created with Inkscape (http://www.inkscape.org/) -->

<svg
   xmlns:dc="http://purl.org/dc/elements/1.1/"
   xmlns:cc="http://creativecommons.org/ns#"
   xmlns:rdf="http://www.w3.org/1999/02/22-rdf-syntax-ns#"
   xmlns:svg="http://www.w3.org/2000/svg"
   xmlns="http://www.w3.org/2000/svg"
   xmlns:sodipodi="http://sodipodi.sourceforge.net/DTD/sodipodi-0.dtd"
   xmlns:inkscape="http://www.inkscape.org/namespaces/inkscape"
   width="118.93"
   height="49.880001"
   id="svg2"
   version="1.1"
   inkscape:version="0.47 r22583"
   sodipodi:docname="New document 1">
  <defs
     id="defs4">
    <inkscape:perspective
       sodipodi:type="inkscape:persp3d"
       inkscape:vp_x="0 : 526.18109 : 1"
       inkscape:vp_y="0 : 1000 : 0"
       inkscape:vp_z="744.09448 : 526.18109 : 1"
       inkscape:persp3d-origin="372.04724 : 350.78739 : 1"
       id="perspective10" />
    <clipPath
       id="clipPath3382"
       clipPathUnits="userSpaceOnUse">
      <path
         id="path3384"
         d="m 321.214,171.545 249.686,0 0,179.22 -249.686,0 0,-179.22 z" />
    </clipPath>
    <clipPath
       id="clipPath3050"
       clipPathUnits="userSpaceOnUse">
      <path
         id="path3052"
         d="m 0,774 0,-14.354 c 198.071,0.849 158.09,-26.484 435.6,-26.484 l 0,0 0,40.838 L 0,774 z" />
    </clipPath>
    <clipPath
       id="clipPath2996"
       clipPathUnits="userSpaceOnUse">
      <path
         id="path2998"
         d="m 0,774 0,-14.354 c 198.071,0.849 158.09,-26.484 435.6,-26.484 l 0,0 0,40.838 L 0,774 z" />
    </clipPath>
    <clipPath
       id="clipPath2980"
       clipPathUnits="userSpaceOnUse">
      <path
         id="path2982"
         d="M 0,0 612,0 612,792 0,792 0,0 z" />
    </clipPath>
    <clipPath
       id="clipPath2952"
       clipPathUnits="userSpaceOnUse">
      <path
         id="path2954"
         d="m 453.129,734.308 93.543,0 0,38.302 -93.543,0 0,-38.302 z" />
    </clipPath>
    <clipPath
       id="clipPath2844"
       clipPathUnits="userSpaceOnUse">
      <path
         id="path2846"
         d="M 0,792 612,792 612,0 0,0 0,792 z" />
    </clipPath>
    <inkscape:perspective
       id="perspective2824"
       inkscape:persp3d-origin="0.5 : 0.33333333 : 1"
       inkscape:vp_z="1 : 0.5 : 1"
       inkscape:vp_y="0 : 1000 : 0"
       inkscape:vp_x="0 : 0.5 : 1"
       sodipodi:type="inkscape:persp3d" />
  </defs>
  <sodipodi:namedview
     id="base"
     pagecolor="#ffffff"
     bordercolor="#666666"
     borderopacity="1.0"
     inkscape:pageopacity="0.0"
     inkscape:pageshadow="2"
     inkscape:zoom="5.8279492"
     inkscape:cx="55.631336"
     inkscape:cy="24.000892"
     inkscape:document-units="px"
     inkscape:current-layer="layer1"
     showgrid="false"
     inkscape:window-width="1680"
     inkscape:window-height="1000"
     inkscape:window-x="-8"
     inkscape:window-y="-8"
     inkscape:window-maximized="1" />
  <metadata
     id="metadata7">
    <rdf:RDF>
      <cc:Work
         rdf:about="">
        <dc:format>image/svg+xml</dc:format>
        <dc:type
           rdf:resource="http://purl.org/dc/dcmitype/StillImage" />
        <dc:title></dc:title>
      </cc:Work>
    </rdf:RDF>
  </metadata>
  <g
     inkscape:label="Layer 1"
     inkscape:groupmode="layer"
     id="layer1"
     transform="translate(1103.4502,28.162989)">
    <g
       transform="matrix(1.25,0,0,-1.25,-1052.5637,-4.833599)"
       id="g2856">
      <path
         id="path2858"
         style="fill:#013353;fill-opacity:1;fill-rule:nonzero;stroke:none"
         d="m 0,0 c -0.297,0.813 -0.494,1.481 -0.619,2.023 l -0.024,0 C -0.74,1.455 -0.963,0.813 -1.234,0.049 l -1.407,-3.777 3.95,0 L 0,0 z m 3.85,-10.244 -1.606,4.072 -5.799,0 -1.506,-4.072 -2.937,0 6.318,16.34 2.172,0 6.541,-16.34 -3.183,0 z" />
    </g>
    <g
       transform="matrix(1.25,0,0,-1.25,-1042.383,7.971651)"
       id="g2860">
      <path
         id="path2862"
         style="fill:#013353;fill-opacity:1;fill-rule:nonzero;stroke:none"
         d="m 0,0 0,16.266 9.057,0 -0.813,-2.494 -5.258,0 0,-4.219 5.258,0 0,-2.494 -5.258,0 0,-4.565 6.071,0 L 9.057,0 0,0 z" />
    </g>
    <g
       transform="matrix(1.25,0,0,-1.25,-1023.1007,8.279271)"
       id="g2864">
      <path
         id="path2866"
         style="fill:#013353;fill-opacity:1;fill-rule:nonzero;stroke:none"
         d="m 0,0 c -2.295,0 -3.924,0.74 -5.01,1.481 l 1.209,2.197 c 0.889,-0.617 2.147,-1.235 3.678,-1.235 1.258,0 2.689,0.518 2.689,1.875 0,2.321 -3.949,2.741 -5.924,4.961 -0.64,0.717 -1.06,1.655 -1.06,2.914 0,2.418 1.9,4.467 5.307,4.467 1.726,0 3.109,-0.42 3.998,-0.914 L 4.838,13.08 c -1.26,0.691 -2.469,1.137 -3.801,1.137 -1.31,0 -2.346,-0.569 -2.346,-1.654 0,-3.012 7.034,-2.838 7.034,-7.899 C 5.725,1.801 3.209,0 0,0" />
    </g>
    <g
       transform="matrix(1.25,0,0,-1.25,-1059.8781,15.684021)"
       id="g2868">
      <path
         id="path2870"
         style="fill:#0573ac;fill-opacity:1;fill-rule:nonzero;stroke:none"
         d="m 0,0 -0.709,0 -0.326,-1.52 c -0.012,-0.068 -0.026,-0.123 -0.026,-0.173 0,-0.155 0.082,-0.233 0.235,-0.233 0.185,0 0.377,0.11 0.494,0.172 l 0.154,-0.432 c -0.297,-0.189 -0.599,-0.281 -0.931,-0.281 -0.356,0 -0.608,0.201 -0.608,0.602 0,0.092 0.012,0.185 0.037,0.289 L -1.336,0 l -0.498,0 0.109,0.498 0.493,0 0.142,0.66 0.647,0.153 -0.172,-0.813 0.818,0 L 0,0 z" />
    </g>
    <g
       transform="matrix(1.25,0,0,-1.25,-1056.2941,16.892521)"
       id="g2872">
      <path
         id="path2874"
         style="fill:#0573ac;fill-opacity:1;fill-rule:nonzero;stroke:none"
         d="m 0,0 -0.315,-1.445 -0.644,0 0.367,1.699 c 0.031,0.146 0.063,0.318 0.063,0.441 0,0.155 -0.063,0.278 -0.272,0.278 -0.295,0 -0.873,-0.338 -1.082,-1.305 l -0.234,-1.113 -0.647,0 0.961,4.357 0.635,0 L -1.483,1.51 C -1.525,1.299 -1.605,1.035 -1.648,0.898 l 0.005,0 c 0.29,0.401 0.684,0.635 1.088,0.635 0.383,0 0.678,-0.197 0.678,-0.646 C 0.123,0.658 0.086,0.4 0,0" />
    </g>
    <g
       transform="matrix(1.25,0,0,-1.25,-1053.7869,15.591271)"
       id="g2876">
      <path
         id="path2878"
         style="fill:#0573ac;fill-opacity:1;fill-rule:nonzero;stroke:none"
         d="m 0,0 c -0.395,0 -0.701,-0.346 -0.787,-0.727 l 1.207,0.02 c 0.029,0.078 0.049,0.178 0.049,0.252 C 0.469,-0.24 0.352,0 0,0 m 0.941,-1.182 -1.82,-0.025 c -0.062,-0.609 0.319,-0.818 0.652,-0.818 0.313,0 0.542,0.08 0.831,0.234 l 0.154,-0.432 c -0.301,-0.171 -0.69,-0.318 -1.127,-0.318 -0.744,0 -1.151,0.522 -1.151,1.231 0,1.021 0.684,1.802 1.577,1.802 0.689,0 1.021,-0.406 1.021,-0.961 0,-0.22 -0.062,-0.478 -0.137,-0.713" />
    </g>
    <g
       transform="matrix(1.25,0,0,-1.25,-1048.8625,15.630271)"
       id="g2880">
      <path
         id="path2882"
         style="fill:#0573ac;fill-opacity:1;fill-rule:nonzero;stroke:none"
         d="M 0,0 C -0.148,0 -0.26,-0.019 -0.352,-0.043 L -0.758,-1.92 c 0.129,-0.043 0.26,-0.074 0.455,-0.074 0.555,0 1.078,0.498 1.078,1.176 C 0.775,-0.277 0.469,0 0,0 m -0.303,-2.51 c -0.258,0 -0.418,0.03 -0.572,0.086 l -0.318,-1.484 -0.647,0 0.936,4.297 c 0.289,0.08 0.621,0.134 0.941,0.134 0.99,0 1.391,-0.572 1.391,-1.298 0,-1.151 -0.948,-1.735 -1.731,-1.735" />
    </g>
    <g
       transform="matrix(1.25,0,0,-1.25,-1044.1311,15.837771)"
       id="g2884">
      <path
         id="path2886"
         style="fill:#0573ac;fill-opacity:1;fill-rule:nonzero;stroke:none"
         d="m 0,0 c -0.1,0.104 -0.24,0.166 -0.438,0.166 -0.228,0 -0.431,-0.1 -0.578,-0.271 -0.214,-0.233 -0.338,-0.596 -0.338,-0.997 0,-0.234 0.067,-0.437 0.196,-0.566 0.105,-0.105 0.24,-0.166 0.426,-0.166 0.197,0 0.38,0.086 0.523,0.227 0.24,0.234 0.387,0.629 0.387,1.041 C 0.178,-0.32 0.123,-0.129 0,0 m 0.252,-1.939 c -0.277,-0.252 -0.641,-0.405 -1.041,-0.405 -0.393,0 -0.682,0.116 -0.867,0.313 -0.233,0.234 -0.332,0.578 -0.332,0.935 0,0.524 0.185,1.004 0.506,1.33 0.275,0.284 0.664,0.455 1.099,0.455 0.408,0 0.692,-0.128 0.881,-0.332 0.215,-0.228 0.315,-0.554 0.315,-0.904 0,-0.566 -0.209,-1.066 -0.561,-1.392" />
    </g>
    <g
       transform="matrix(1.25,0,0,-1.25,-1039.3141,18.723521)"
       id="g2888">
      <path
         id="path2890"
         style="fill:#0573ac;fill-opacity:1;fill-rule:nonzero;stroke:none"
         d="m 0,0 -0.492,0 -0.192,1.373 c -0.037,0.283 -0.062,0.475 -0.08,0.664 l -0.013,0 C -0.852,1.865 -0.955,1.639 -1.109,1.342 L -1.797,0 l -0.488,0 -0.467,2.93 0.621,0 0.186,-1.36 c 0.037,-0.283 0.068,-0.486 0.086,-0.732 l 0.011,0 c 0.08,0.178 0.172,0.381 0.303,0.646 l 0.719,1.446 0.443,0 0.18,-1.323 C -0.16,1.27 -0.129,1.053 -0.117,0.838 l 0.012,0 C -0.031,1.022 0.06,1.225 0.183,1.496 L 0.848,2.93 1.494,2.93 0,0 z" />
    </g>
    <g
       transform="matrix(1.25,0,0,-1.25,-1035.7302,15.591271)"
       id="g2892">
      <path
         id="path2894"
         style="fill:#0573ac;fill-opacity:1;fill-rule:nonzero;stroke:none"
         d="m 0,0 c -0.395,0 -0.701,-0.346 -0.787,-0.727 l 1.205,0.02 c 0.031,0.078 0.051,0.178 0.051,0.252 C 0.469,-0.24 0.35,0 0,0 m 0.941,-1.182 -1.822,-0.025 c -0.06,-0.609 0.32,-0.818 0.652,-0.818 0.315,0 0.543,0.08 0.833,0.234 l 0.154,-0.432 c -0.303,-0.171 -0.692,-0.318 -1.127,-0.318 -0.744,0 -1.152,0.522 -1.152,1.231 0,1.021 0.683,1.802 1.576,1.802 0.689,0 1.021,-0.406 1.021,-0.961 0,-0.22 -0.06,-0.478 -0.135,-0.713" />
    </g>
    <g
       transform="matrix(1.25,0,0,-1.25,-1031.6604,15.845151)"
       id="g2896">
      <path
         id="path2898"
         style="fill:#0573ac;fill-opacity:1;fill-rule:nonzero;stroke:none"
         d="m 0,0 c -0.086,0.055 -0.203,0.072 -0.295,0.072 -0.277,0 -0.609,-0.244 -0.838,-1.314 l -0.222,-1.041 -0.639,0 0.633,2.91 0.494,0 -0.063,-0.578 0.006,0 c 0.192,0.389 0.42,0.646 0.807,0.646 0.16,0 0.307,-0.043 0.412,-0.129 L 0,0 z" />
    </g>
    <g
       transform="matrix(1.25,0,0,-1.25,-1027.9226,15.837771)"
       id="g2900">
      <path
         id="path2902"
         style="fill:#0573ac;fill-opacity:1;fill-rule:nonzero;stroke:none"
         d="m 0,0 c -0.098,0.104 -0.24,0.166 -0.438,0.166 -0.226,0 -0.429,-0.1 -0.578,-0.271 -0.214,-0.233 -0.337,-0.596 -0.337,-0.997 0,-0.234 0.068,-0.437 0.197,-0.566 0.103,-0.105 0.238,-0.166 0.424,-0.166 0.197,0 0.38,0.086 0.523,0.227 0.24,0.234 0.389,0.629 0.389,1.041 C 0.18,-0.32 0.123,-0.129 0,0 m 0.252,-1.939 c -0.275,-0.252 -0.639,-0.405 -1.039,-0.405 -0.395,0 -0.684,0.116 -0.867,0.313 -0.235,0.234 -0.334,0.578 -0.334,0.935 0,0.524 0.185,1.004 0.506,1.33 0.275,0.284 0.664,0.455 1.101,0.455 0.406,0 0.69,-0.128 0.879,-0.332 0.217,-0.228 0.315,-0.554 0.315,-0.904 0,-0.566 -0.209,-1.066 -0.561,-1.392" />
    </g>
    <g
       transform="matrix(1.25,0,0,-1.25,-1023.6452,14.084901)"
       id="g2904">
      <path
         id="path2906"
         style="fill:#0573ac;fill-opacity:1;fill-rule:nonzero;stroke:none"
         d="m 0,0 c -0.135,0.094 -0.27,0.131 -0.432,0.131 -0.269,0 -0.503,-0.18 -0.584,-0.61 l -0.06,-0.302 0.707,0 -0.197,-0.504 -0.59,0 c -0.223,-1.397 -0.395,-3.004 -1.453,-3.817 l -0.387,0.393 c 0.824,0.771 0.959,1.83 1.213,3.424 l -0.463,0 0.068,0.504 0.455,0 0.069,0.351 c 0.166,0.873 0.781,1.096 1.216,1.096 0.235,0 0.463,-0.043 0.698,-0.186 L 0,0 z" />
    </g>
    <g
       transform="matrix(1.25,0,0,-1.25,-1020.7375,15.654651)"
       id="g2908">
      <path
         id="path2910"
         style="fill:#0573ac;fill-opacity:1;fill-rule:nonzero;stroke:none"
         d="m 0,0 c -0.301,0 -0.725,-0.313 -0.893,-1.088 l -0.183,-0.855 c 0.08,-0.026 0.183,-0.043 0.295,-0.043 0.566,0 1.23,0.486 1.23,1.341 C 0.449,-0.281 0.332,0 0,0 m -0.898,-2.49 c -0.375,0 -0.719,0.06 -0.905,0.146 l 0.916,4.266 0.641,0 L -0.535,0.58 C -0.572,0.394 -0.615,0.242 -0.676,0.068 l 0.012,0 c 0.252,0.34 0.561,0.475 0.916,0.475 0.443,0 0.863,-0.301 0.863,-1.113 0,-1.127 -0.943,-1.92 -2.013,-1.92" />
    </g>
    <g
       transform="matrix(1.25,0,0,-1.25,-1017.0217,15.591271)"
       id="g2912">
      <path
         id="path2914"
         style="fill:#0573ac;fill-opacity:1;fill-rule:nonzero;stroke:none"
         d="m 0,0 c -0.394,0 -0.701,-0.346 -0.787,-0.727 l 1.207,0.02 c 0.029,0.078 0.049,0.178 0.049,0.252 C 0.469,-0.24 0.352,0 0,0 m 0.941,-1.182 -1.82,-0.025 c -0.062,-0.609 0.319,-0.818 0.652,-0.818 0.313,0 0.542,0.08 0.831,0.234 l 0.154,-0.432 c -0.301,-0.171 -0.69,-0.318 -1.127,-0.318 -0.744,0 -1.15,0.522 -1.15,1.231 0,1.021 0.683,1.802 1.576,1.802 0.689,0 1.021,-0.406 1.021,-0.961 0,-0.22 -0.062,-0.478 -0.137,-0.713" />
    </g>
    <g
       transform="matrix(1.25,0,0,-1.25,-1014.136,14.443771)"
       id="g2916">
      <path
         id="path2918"
         style="fill:#0573ac;fill-opacity:1;fill-rule:nonzero;stroke:none"
         d="m 0,0 c -0.228,0 -0.383,0.152 -0.383,0.361 0,0.272 0.235,0.461 0.469,0.461 0.229,0 0.381,-0.166 0.381,-0.369 C 0.467,0.19 0.24,0 0,0 m -0.432,-3.404 -0.64,0 0.629,2.91 0.64,0 -0.629,-2.91 z" />
    </g>
    <g
       transform="matrix(1.25,0,0,-1.25,-1010.3274,16.653271)"
       id="g2920">
      <path
         id="path2922"
         style="fill:#0573ac;fill-opacity:1;fill-rule:nonzero;stroke:none"
         d="m 0,0 -0.357,-1.637 -0.647,0 0.369,1.7 c 0.031,0.146 0.055,0.324 0.055,0.435 -0.006,0.16 -0.072,0.283 -0.276,0.283 -0.277,0 -0.843,-0.289 -1.052,-1.285 l -0.24,-1.133 -0.641,0 0.627,2.91 0.506,0 -0.069,-0.578 0.006,0 c 0.254,0.375 0.672,0.647 1.115,0.647 0.399,0 0.684,-0.223 0.684,-0.696 C 0.08,0.449 0.055,0.277 0,0" />
    </g>
    <g
       transform="matrix(1.25,0,0,-1.25,-1007.6125,15.654651)"
       id="g2924">
      <path
         id="path2926"
         style="fill:#0573ac;fill-opacity:1;fill-rule:nonzero;stroke:none"
         d="m 0,0 c -0.709,0 -1.113,-0.707 -1.113,-1.316 0,-0.407 0.115,-0.659 0.424,-0.659 0.226,0 0.726,0.229 0.935,1.188 L 0.4,-0.055 C 0.295,-0.018 0.135,0 0,0 M 0.518,-2.504 C 0.32,-3.428 -0.16,-3.889 -0.99,-3.889 c -0.363,0 -0.715,0.061 -1.029,0.235 l 0.228,0.509 c 0.26,-0.146 0.492,-0.214 0.744,-0.214 0.541,0 0.801,0.283 0.955,0.898 l 0.104,0.424 -0.006,0 c -0.272,-0.319 -0.586,-0.453 -0.91,-0.453 -0.469,0 -0.844,0.306 -0.844,1.076 0,0.935 0.584,1.957 1.963,1.957 0.383,0 0.707,-0.092 0.91,-0.178 L 0.518,-2.504 z" />
    </g>
    <g
       transform="matrix(1.25,0,0,-1.25,-1002.3879,15.654651)"
       id="g2928">
      <path
         id="path2930"
         style="fill:#0573ac;fill-opacity:1;fill-rule:nonzero;stroke:none"
         d="m 0,0 c -0.709,0 -1.115,-0.707 -1.115,-1.316 0,-0.407 0.117,-0.659 0.425,-0.659 0.227,0 0.727,0.229 0.936,1.188 l 0.152,0.732 C 0.295,-0.018 0.135,0 0,0 m 0.516,-2.504 c -0.198,-0.924 -0.676,-1.385 -1.508,-1.385 -0.364,0 -0.713,0.061 -1.028,0.235 l 0.229,0.509 c 0.258,-0.146 0.49,-0.214 0.744,-0.214 0.541,0 0.801,0.283 0.953,0.898 l 0.106,0.424 -0.006,0 C -0.266,-2.356 -0.58,-2.49 -0.906,-2.49 c -0.467,0 -0.842,0.306 -0.842,1.076 0,0.935 0.584,1.957 1.963,1.957 0.381,0 0.707,-0.092 0.91,-0.178 L 0.516,-2.504 z" />
    </g>
    <g
       transform="matrix(1.25,0,0,-1.25,-999.86597,17.600521)"
       id="g2932">
      <path
         id="path2934"
         style="fill:#0573ac;fill-opacity:1;fill-rule:nonzero;stroke:none"
         d="m 0,0 c -0.012,-0.066 -0.017,-0.123 -0.017,-0.172 0,-0.191 0.109,-0.215 0.398,-0.185 l 0,-0.448 c -0.195,-0.093 -0.387,-0.129 -0.584,-0.129 -0.295,0 -0.498,0.159 -0.498,0.51 0,0.08 0.012,0.172 0.031,0.27 l 0.781,3.632 0.639,0 L 0,0 z" />
    </g>
    <g
       transform="matrix(1.25,0,0,-1.25,-996.44305,15.837771)"
       id="g2936">
      <path
         id="path2938"
         style="fill:#0573ac;fill-opacity:1;fill-rule:nonzero;stroke:none"
         d="m 0,0 c -0.098,0.104 -0.24,0.166 -0.438,0.166 -0.226,0 -0.429,-0.1 -0.578,-0.271 -0.214,-0.233 -0.338,-0.596 -0.338,-0.997 0,-0.234 0.069,-0.437 0.198,-0.566 0.105,-0.105 0.24,-0.166 0.424,-0.166 0.197,0 0.382,0.086 0.523,0.227 0.24,0.234 0.389,0.629 0.389,1.041 C 0.18,-0.32 0.123,-0.129 0,0 m 0.254,-1.939 c -0.277,-0.252 -0.641,-0.405 -1.041,-0.405 -0.395,0 -0.684,0.116 -0.867,0.313 -0.235,0.234 -0.334,0.578 -0.334,0.935 0,0.524 0.185,1.004 0.506,1.33 0.277,0.284 0.664,0.455 1.101,0.455 0.406,0 0.69,-0.128 0.881,-0.332 0.215,-0.228 0.313,-0.554 0.313,-0.904 0,-0.566 -0.21,-1.066 -0.559,-1.392" />
    </g>
    <g
       transform="matrix(1.25,0,0,-1.25,-992.87365,15.654651)"
       id="g2940">
      <path
         id="path2942"
         style="fill:#0573ac;fill-opacity:1;fill-rule:nonzero;stroke:none"
         d="m 0,0 c -0.301,0 -0.725,-0.313 -0.891,-1.088 l -0.185,-0.855 c 0.08,-0.026 0.185,-0.043 0.295,-0.043 0.566,0 1.23,0.486 1.23,1.341 C 0.449,-0.281 0.332,0 0,0 m -0.898,-2.49 c -0.375,0 -0.721,0.06 -0.905,0.146 l 0.918,4.266 0.639,0 L -0.533,0.58 C -0.57,0.394 -0.613,0.242 -0.676,0.068 l 0.012,0 c 0.252,0.34 0.56,0.475 0.916,0.475 0.443,0 0.863,-0.301 0.863,-1.113 0,-1.127 -0.943,-1.92 -2.013,-1.92" />
    </g>
    <g
       transform="matrix(1.25,0,0,-1.25,-989.13345,16.975521)"
       id="g2944">
      <path
         id="path2946"
         style="fill:#0573ac;fill-opacity:1;fill-rule:nonzero;stroke:none"
         d="m 0,0 c -0.69,0 -1.041,-0.229 -1.041,-0.555 0,-0.222 0.148,-0.363 0.375,-0.363 0.309,0 0.721,0.289 0.826,0.727 C 0.172,-0.117 0.185,-0.057 0.191,0 L 0,0 z M 0.856,0.111 0.775,-0.209 C 0.652,-0.715 0.652,-1.016 0.701,-1.299 L 0.172,-1.422 c -0.037,0.129 -0.08,0.307 -0.092,0.479 -0.154,-0.196 -0.512,-0.491 -0.93,-0.491 -0.503,0 -0.798,0.319 -0.798,0.768 0,0.812 0.712,1.115 1.599,1.133 l 0.344,0.006 c 0.006,0.062 0.019,0.129 0.019,0.185 0,0.258 -0.16,0.444 -0.517,0.444 -0.289,0 -0.592,-0.112 -0.862,-0.235 l -0.079,0.486 c 0.38,0.178 0.775,0.247 1.07,0.247 0.48,0 1.027,-0.178 1.027,-0.881 0,-0.172 -0.043,-0.381 -0.097,-0.608" />
    </g>
    <g
       id="g2948"
       transform="matrix(1.25,0,0,-1.25,-1669.0047,938.40115)">
      <g
         clip-path="url(#clipPath2952)"
         id="g2950">
        <g
           transform="translate(545.9224,736.6405)"
           id="g2956">
          <path
             id="path2958"
             style="fill:#0573ac;fill-opacity:1;fill-rule:nonzero;stroke:none"
             d="m 0,0 c -0.014,-0.066 -0.02,-0.123 -0.02,-0.172 0,-0.191 0.112,-0.215 0.401,-0.185 l 0,-0.448 c -0.197,-0.093 -0.387,-0.129 -0.584,-0.129 -0.297,0 -0.5,0.159 -0.5,0.51 0,0.08 0.012,0.172 0.031,0.27 l 0.781,3.632 0.641,0 L 0,0 z" />
        </g>
        <g
           transform="translate(455.4849,749.8358)"
           id="g2960">
          <path
             id="path2962"
             style="fill:#80cc28;fill-opacity:1;fill-rule:nonzero;stroke:none"
             d="m 0,0 c -1.488,2.307 -2.355,5.057 -2.355,8.006 0,8.158 6.613,14.768 14.769,14.768 3.15,0 4.488,-0.868 4.947,-1.253 0.811,-0.683 1.356,-1.628 1.291,-2.601 C 18.396,15.086 12.898,15.875 7.445,14.596 -0.512,12.73 -2.98,5.838 0,0" />
        </g>
        <g
           transform="translate(474.065,769.5272)"
           id="g2964">
          <path
             id="path2966"
             style="fill:#466d12;fill-opacity:1;fill-rule:nonzero;stroke:none"
             d="m 0,0 c 0.299,-1.141 0.16,-1.99 -0.24,-2.781 -2.84,-5.602 -13.766,-1.674 -16.377,-10.828 -1.061,-4.262 1.15,-9.334 5.65,-11.809 0.424,-0.234 0.377,-0.373 -0.086,-0.211 -3.121,1.094 -5.762,3.205 -7.527,5.938 -2.981,5.838 -0.512,12.73 7.445,14.595 5.453,1.28 10.951,0.491 11.207,4.325 C 0.09,-0.512 0.064,-0.252 0,0" />
        </g>
      </g>
    </g>
    <path
       d="m -1077.4124,-26.103099 c 5.1637,2.01875 9.1937,6.29375 10.8812,11.61125 0,0 1.2163,4.4825 -1.6112,8.3837504 -5.12,7.05874999 -14.2013,4.5125 -15.1,-0.35625 -1.4575,-7.8862504 9.355,-7.1025004 8.515,-14.8762504 -0.2513,-1.89375 -1.4275,-3.52 -2.8675,-4.5275 -0.5525,-0.38375 -0.44,-0.47625 0.1825,-0.235"
       style="fill:#0573ac;fill-opacity:1;fill-rule:nonzero;stroke:none"
       id="path2970" />
    <g
       transform="matrix(1.25,0,0,-1.25,-1078.1594,8.574651)"
       id="g2972">
      <path
         id="path2974"
         style="fill:#013353;fill-opacity:1;fill-rule:nonzero;stroke:none"
         d="m 0,0 c -0.428,-0.147 -0.514,-0.084 -0.111,0.223 0.759,0.576 1.408,1.521 1.24,2.802 -0.471,3.625 -5.672,3.094 -6.492,7.479 -0.393,2.105 0.463,4.582 3.675,6.883 C -3.275,16.15 -4.565,14.723 -4.066,12.031 -3.348,8.137 3.918,6.1 8.014,11.746 10.275,14.867 9.303,18.453 9.303,18.453 9.752,17.043 9.994,15.539 9.994,13.98 9.994,7.494 5.813,1.986 0,0" />
    </g>
  </g>
</svg>
