<?xml version="1.0" encoding="UTF-8" standalone="no"?>
<!-- Created with Inkscape (http://www.inkscape.org/) -->

<svg
   xmlns:dc="http://purl.org/dc/elements/1.1/"
   xmlns:cc="http://creativecommons.org/ns#"
   xmlns:rdf="http://www.w3.org/1999/02/22-rdf-syntax-ns#"
   xmlns:svg="http://www.w3.org/2000/svg"
   xmlns="http://www.w3.org/2000/svg"
   version="1.0"
   width="299.9993"
   height="162.23906"
   viewBox="0 0 239.99944 129.79125"
   id="svg2">
  <defs
     id="defs18" />
  <metadata
     id="metadata4">
Created by potrace 1.10, written by Peter Selinger 2001-2011
<rdf:RDF>
  <cc:Work
     rdf:about="">
    <dc:format>image/svg+xml</dc:format>
    <dc:type
       rdf:resource="http://purl.org/dc/dcmitype/StillImage" />
    <dc:title></dc:title>
  </cc:Work>
</rdf:RDF>
</metadata>
  <rect
     width="232.96947"
     height="122.66109"
     x="3.7231297"
     y="3.6641693"
     id="rect2986"
     style="fill:#ffffff;fill-opacity:1;stroke:#1ca3db;stroke-width:0.36094946;stroke-opacity:1" />
  <g
     transform="matrix(0.01429419,0,0,-0.01429419,0,129.79125)"
     id="g6"
     style="fill:#000000;stroke:none">
    <path
       d="M 0,4540 0,0 l 8395,0 8395,0 0,4540 0,4540 -8395,0 -8395,0 0,-4540 z m 16160,0 0,-3900 -7770,0 -7770,0 0,3900 0,3900 7770,0 7770,0 0,-3900 z"
       id="path8"
       style="fill:#00a4e4;fill-opacity:1" />
    <path
       d="m 12190,7174 c -215,-19 -460,-68 -648,-129 -397,-128 -701,-314 -997,-610 -342,-342 -563,-733 -686,-1211 -68,-269 -83,-398 -83,-724 -1,-296 7,-377 54,-607 83,-400 278,-803 538,-1113 102,-121 322,-335 435,-423 369,-287 803,-457 1299,-507 179,-19 570,-8 728,19 380,66 716,206 996,417 397,299 700,736 844,1218 80,269 110,480 117,844 l 6,262 -1062,0 -1061,0 0,-365 0,-365 640,0 c 505,0 640,-3 640,-12 0,-31 -61,-250 -89,-321 -112,-281 -306,-533 -536,-696 -97,-68 -290,-166 -395,-200 -412,-133 -898,-94 -1305,105 -513,250 -874,733 -989,1322 -73,374 -44,798 78,1147 236,676 783,1119 1489,1206 148,18 474,7 611,-21 454,-91 847,-343 1141,-733 l 58,-78 71,69 c 39,37 163,156 276,263 113,107 206,197 208,200 6,14 -161,210 -269,315 -266,259 -622,475 -979,594 -290,97 -500,131 -840,135 -135,1 -265,1 -290,-1 z"
       id="path10"
       style="fill:#00a4e4;fill-opacity:1" />
    <path
       d="M 4457,7008 C 4444,6979 3899,5822 3246,4438 2594,3053 2060,1918 2060,1915 c 0,-3 192,-4 427,-3 l 426,3 281,622 281,622 1090,1 1091,0 271,-622 271,-623 426,-3 c 234,-1 426,1 426,4 0,8 32,-63 -1625,3629 -229,512 -474,1056 -542,1210 -69,154 -130,286 -135,293 -8,8 -48,12 -138,12 l -129,0 -24,-52 z m 498,-2223 c 201,-455 364,-830 362,-832 -2,-2 -340,-2 -750,-1 l -746,3 381,833 c 209,458 382,831 384,829 2,-2 168,-376 369,-832 z"
       id="path12"
       style="fill:#00a4e4;fill-opacity:1" />
    <path
       d="m 7930,4455 0,-2535 390,0 390,0 0,2535 0,2535 -390,0 -390,0 0,-2535 z"
       id="path14"
       style="fill:#00a4e4;fill-opacity:1" />
  </g>
</svg>
