<?xml version="1.0" encoding="UTF-8" standalone="no"?>
<svg
   xmlns:dc="http://purl.org/dc/elements/1.1/"
   xmlns:cc="http://creativecommons.org/ns#"
   xmlns:rdf="http://www.w3.org/1999/02/22-rdf-syntax-ns#"
   xmlns:svg="http://www.w3.org/2000/svg"
   xmlns="http://www.w3.org/2000/svg"
   xmlns:sodipodi="http://sodipodi.sourceforge.net/DTD/sodipodi-0.dtd"
   xmlns:inkscape="http://www.inkscape.org/namespaces/inkscape"
   id="svg2"
   version="1.1"
   inkscape:version="0.48.2 r9819"
   width="176.56599"
   height="36.900002"
   viewBox="0 0 176.56599 36.900002"
   preserveAspectRatio="xMidYMid meet"
   xml:space="preserve"
   sodipodi:docname="assurant-logo-horizontal.svg"><metadata
     id="metadata8"><rdf:RDF><cc:Work
         rdf:about=""><dc:format>image/svg+xml</dc:format><dc:type
           rdf:resource="http://purl.org/dc/dcmitype/StillImage" /></cc:Work></rdf:RDF></metadata><defs
     id="defs6"><clipPath
       clipPathUnits="userSpaceOnUse"
       id="clipPath18"><path
         d="M 0,0 164,0 164,53 0,53 0,0 z"
         id="path20"
         inkscape:connector-curvature="0" /></clipPath></defs><sodipodi:namedview
     pagecolor="#ffffff"
     bordercolor="#666666"
     borderopacity="1"
     objecttolerance="10"
     gridtolerance="10"
     guidetolerance="10"
     inkscape:pageopacity="0"
     inkscape:pageshadow="2"
     inkscape:window-width="1147"
     inkscape:window-height="486"
     id="namedview4"
     showgrid="false"
     inkscape:zoom="3.090574"
     inkscape:cx="103.84025"
     inkscape:cy="8.8536592"
     inkscape:window-x="187"
     inkscape:window-y="235"
     inkscape:window-maximized="0"
     inkscape:current-layer="g10"
     fit-margin-top="0"
     fit-margin-left="0"
     fit-margin-right="0"
     fit-margin-bottom="0" /><g
     id="g10"
     inkscape:groupmode="layer"
     inkscape:label="assurant-logo-horizontal"
     transform="matrix(1.25,0,0,-1.25,-2.27875e-7,36.9)"><g
       id="g12" /><g
       id="g14"
       transform="matrix(0.99999858,0,0,1,-10.434985,-11.428)"><g
         id="g16"
         clip-path="url(#clipPath18)"><path
           d="m 75.312,22.099 c 1.168,0 1.897,0.656 1.897,1.504 0,1.265 -1.277,1.726 -2.382,2.442 -1.485,0.878 -2.261,1.714 -2.261,3.034 0,1.652 1.291,2.836 3.261,2.836 0.942,0 1.805,-0.211 2.699,-0.652 l -0.059,-1.715 c -1.002,0.545 -1.821,0.849 -2.502,0.849 -1.017,0 -1.594,-0.501 -1.594,-1.23 0,-0.984 1.236,-1.466 2.245,-2.119 1.641,-0.973 2.489,-1.91 2.489,-3.399 0,-1.867 -1.397,-3.202 -3.703,-3.202 -1.016,0 -2.001,0.214 -2.894,0.637 l -0.167,2.108 c 1.104,-0.713 2.061,-1.093 2.971,-1.093"
           style="fill:#706d6e;fill-opacity:1;fill-rule:nonzero;stroke:none"
           id="path22"
           inkscape:connector-curvature="0" /><path
           d="m 64.676,22.099 c 1.169,0 1.896,0.656 1.896,1.504 0,1.265 -1.276,1.726 -2.381,2.442 -1.486,0.878 -2.259,1.714 -2.259,3.034 0,1.652 1.288,2.836 3.258,2.836 0.943,0 1.805,-0.211 2.701,-0.652 l -0.059,-1.715 c -1.002,0.545 -1.821,0.849 -2.502,0.849 -1.017,0 -1.593,-0.501 -1.593,-1.23 0,-0.984 1.234,-1.466 2.245,-2.119 1.638,-0.973 2.486,-1.91 2.486,-3.399 0,-1.867 -1.395,-3.202 -3.701,-3.202 -1.017,0 -2.001,0.214 -2.895,0.637 l -0.167,2.108 c 1.108,-0.713 2.062,-1.093 2.971,-1.093"
           style="fill:#706d6e;fill-opacity:1;fill-rule:nonzero;stroke:none"
           id="path24"
           inkscape:connector-curvature="0" /><path
           d="m 85.162,25.283 c 0,-2.075 0.877,-3.137 2.59,-3.137 1.682,0 2.596,1.079 2.596,3.184 l 0,6.22 1.915,0 0,-6.248 c 0,-3.141 -1.704,-4.84 -4.502,-4.84 -2.886,0 -4.511,1.896 -4.511,4.809 l 0,6.279 1.912,0 0,-6.267"
           style="fill:#706d6e;fill-opacity:1;fill-rule:nonzero;stroke:none"
           id="path26"
           inkscape:connector-curvature="0" /><path
           d="m 102.209,28.364 c 0,1.677 -1.822,1.654 -3.367,1.654 l 0,-3.33 c 1.206,0 3.367,-0.121 3.367,1.676 z m -5.218,3.186 2.488,0 c 1.369,0 2.428,-0.088 3.353,-0.742 0.802,-0.563 1.258,-1.412 1.258,-2.291 0,-1.411 -0.834,-2.472 -2.35,-2.989 l 3.472,-4.713 -2.198,0 -3.263,4.456 -0.909,0 0,-4.456 -1.851,0 0,10.735"
           style="fill:#706d6e;fill-opacity:1;fill-rule:nonzero;stroke:none"
           id="path28"
           inkscape:connector-curvature="0" /><path
           d="m 140.399,20.815 -1.895,0 0,9.096 -3.625,0 0,1.639 9.127,0 0,-1.639 -3.607,0 0,-9.096"
           style="fill:#706d6e;fill-opacity:1;fill-rule:nonzero;stroke:none"
           id="path30"
           inkscape:connector-curvature="0" /><path
           d="m 51.59,25.097 c 0.491,1.362 1.04,2.584 1.8,3.792 0.748,-1.208 1.355,-2.492 1.809,-3.792 l -3.609,0 z m 1.864,6.802 c 0,0 -0.035,0.043 -0.08,0.043 -0.046,0 -0.082,-0.043 -0.082,-0.043 -2.664,-3.961 -3.674,-6.104 -5.286,-11.084 l 1.917,0 c 0.175,0.655 0.631,2.01 0.858,2.651 l 5.185,0 c 0.228,-0.641 0.683,-1.996 0.857,-2.651 l 1.919,0 c -1.629,5.025 -2.668,7.19 -5.288,11.084"
           style="fill:#706d6e;fill-opacity:1;fill-rule:nonzero;stroke:none"
           id="path32"
           inkscape:connector-curvature="0" /><path
           d="m 111.285,25.097 c 0.492,1.362 1.041,2.584 1.799,3.792 0.748,-1.208 1.357,-2.492 1.811,-3.792 l -3.61,0 z m 1.864,6.802 c 0,0 -0.036,0.043 -0.081,0.043 -0.044,0 -0.08,-0.043 -0.08,-0.043 -2.667,-3.961 -3.675,-6.104 -5.287,-11.084 l 1.917,0 c 0.175,0.655 0.63,2.01 0.86,2.651 l 5.182,0 c 0.229,-0.641 0.685,-1.996 0.86,-2.651 l 1.916,0 c -1.627,5.025 -2.666,7.19 -5.287,11.084"
           style="fill:#706d6e;fill-opacity:1;fill-rule:nonzero;stroke:none"
           id="path34"
           inkscape:connector-curvature="0" /><path
           d="m 123.904,27.489 7.042,-7.039 c 0,0 0.058,-0.006 0.091,0.028 0.016,0.015 0.029,0.051 0.029,0.088 l 0,10.984 -1.82,0 0,-6.641 -7.042,7.041 c 0,0 -0.059,0.004 -0.091,-0.027 -0.015,-0.016 -0.029,-0.054 -0.029,-0.089 l 0,-11.019 1.82,0 0,6.674"
           style="fill:#706d6e;fill-opacity:1;fill-rule:nonzero;stroke:none"
           id="path36"
           inkscape:connector-curvature="0" /><path
           d="m 10.457,27.023 c -0.016,-0.276 -0.022,-0.554 -0.022,-0.835 0,-2.755 0.753,-5.334 2.069,-7.541 0.934,3.102 2.266,6.372 3.988,9.654 -2.136,-0.318 -4.156,-0.748 -6.035,-1.278"
           style="fill:#f89c0e;fill-opacity:1;fill-rule:nonzero;stroke:none"
           id="path38"
           inkscape:connector-curvature="0" /><path
           d="m 13.024,34.543 c 2.485,0.53 5.169,0.903 7.992,1.091 1.345,1.869 2.75,3.582 4.179,5.117 -0.061,0.066 -0.121,0.131 -0.183,0.197 -4.977,-0.061 -9.359,-2.583 -11.988,-6.405"
           style="fill:#f89c0e;fill-opacity:1;fill-rule:nonzero;stroke:none"
           id="path40"
           inkscape:connector-curvature="0" /><path
           d="M 33.289,38.534 C 32.191,34.216 30.271,29.496 27.57,24.817 26.81,23.5 26.016,22.235 25.195,21.027 c 0.818,-1.204 1.661,-2.35 2.522,-3.433 1.213,0.05 2.404,0.134 3.568,0.251 0.762,1.136 1.5,2.322 2.209,3.551 2.182,3.776 3.862,7.573 5.022,11.158 -1.166,2.438 -2.985,4.508 -5.227,5.98"
           style="fill:#f89c0e;fill-opacity:1;fill-rule:nonzero;stroke:none"
           id="path42"
           inkscape:connector-curvature="0" /><path
           d="m 33.289,38.534 c -2.326,1.528 -5.105,2.414 -8.094,2.414 -0.061,0 -0.123,0 -0.183,0 2.219,-2.359 4.384,-5.147 6.365,-8.278 0.792,2.007 1.43,3.975 1.912,5.864"
           style="fill:#40b93c;fill-opacity:1;fill-rule:nonzero;stroke:none"
           id="path44"
           inkscape:connector-curvature="0" /><path
           d="m 38.516,32.554 c -0.782,-2.418 -1.801,-4.93 -3.051,-7.469 0.945,-2.101 1.727,-4.174 2.344,-6.179 0.087,0.02 0.175,0.042 0.263,0.062 1.199,2.135 1.883,4.597 1.883,7.22 0,2.28 -0.516,4.438 -1.439,6.366"
           style="fill:#40b93c;fill-opacity:1;fill-rule:nonzero;stroke:none"
           id="path46"
           inkscape:connector-curvature="0" /><path
           d="m 22.82,24.817 c -0.76,1.317 -1.459,2.637 -2.093,3.952 -1.453,-0.107 -2.867,-0.264 -4.235,-0.468 -0.565,-1.074 -1.088,-2.149 -1.566,-3.216 0.602,-1.226 1.26,-2.459 1.97,-3.689 2.178,-3.774 4.625,-7.127 7.148,-9.924 0.38,-0.029 0.765,-0.044 1.151,-0.044 2.391,0 4.649,0.567 6.647,1.578 -3.192,3.11 -6.321,7.132 -9.022,11.811"
           style="fill:#40b93c;fill-opacity:1;fill-rule:nonzero;stroke:none"
           id="path48"
           inkscape:connector-curvature="0" /><path
           d="m 38.072,18.968 c -3.153,-0.744 -6.65,-1.223 -10.355,-1.374 1.343,-1.691 2.728,-3.227 4.125,-4.588 2.623,1.325 4.795,3.408 6.23,5.962"
           style="fill:#1575c5;fill-opacity:1;fill-rule:nonzero;stroke:none"
           id="path50"
           inkscape:connector-curvature="0" /><path
           d="m 19.106,17.845 c -2.293,0.232 -4.479,0.592 -6.524,1.061 -0.026,-0.087 -0.053,-0.173 -0.078,-0.259 2.389,-4.013 6.629,-6.796 11.54,-7.175 -1.7,1.886 -3.367,4.023 -4.938,6.373"
           style="fill:#1575c5;fill-opacity:1;fill-rule:nonzero;stroke:none"
           id="path52"
           inkscape:connector-curvature="0" /><path
           d="m 25.195,35.771 c -4.359,0 -8.486,-0.441 -12.171,-1.228 -1.485,-2.161 -2.411,-4.737 -2.567,-7.52 4.289,1.21 9.336,1.908 14.738,1.908 1.521,0 3.013,-0.056 4.469,-0.162 0.633,1.309 1.205,2.613 1.713,3.901 -0.649,1.025 -1.318,2.015 -2.002,2.964 -1.363,0.091 -2.76,0.137 -4.18,0.137"
           style="fill:#1575c5;fill-opacity:1;fill-rule:nonzero;stroke:none"
           id="path54"
           inkscape:connector-curvature="0" /><path
           d="m 149.165,30.41 0,-0.881 c 0.032,-0.005 0.114,-0.007 0.248,-0.007 0.244,0 0.408,0.031 0.493,0.095 0.084,0.062 0.126,0.181 0.126,0.358 0,0.292 -0.189,0.438 -0.569,0.438 l -0.149,0 -0.149,-0.003 z m 1.051,-2.318 -0.67,1.133 -0.381,0 0,-1.133 -0.379,0 0,2.641 0.677,0 c 0.636,0 0.952,-0.243 0.952,-0.732 0,-0.337 -0.17,-0.578 -0.51,-0.717 l 0.721,-1.192 -0.41,0 z m 1.125,1.294 c 0,0.496 -0.174,0.918 -0.524,1.268 -0.349,0.349 -0.771,0.524 -1.267,0.524 -0.495,0 -0.918,-0.175 -1.269,-0.524 -0.35,-0.35 -0.526,-0.772 -0.526,-1.268 0,-0.495 0.176,-0.918 0.526,-1.268 0.351,-0.351 0.774,-0.526 1.269,-0.526 0.496,0 0.918,0.175 1.267,0.526 0.35,0.35 0.524,0.773 0.524,1.268 z m -3.934,0 c 0,0.591 0.21,1.095 0.629,1.513 0.419,0.418 0.924,0.627 1.514,0.627 0.59,0 1.095,-0.209 1.512,-0.627 0.417,-0.418 0.626,-0.922 0.626,-1.513 0,-0.59 -0.209,-1.094 -0.626,-1.513 -0.417,-0.418 -0.922,-0.628 -1.512,-0.628 -0.59,0 -1.095,0.21 -1.514,0.628 -0.419,0.419 -0.629,0.923 -0.629,1.513"
           style="fill:#706d6e;fill-opacity:1;fill-rule:nonzero;stroke:none"
           id="path56"
           inkscape:connector-curvature="0" /></g></g></g></svg>