<?xml version="1.0" encoding="UTF-8" standalone="no"?>
<!-- Created with Inkscape (http://www.inkscape.org/) -->

<svg
   xmlns:dc="http://purl.org/dc/elements/1.1/"
   xmlns:cc="http://creativecommons.org/ns#"
   xmlns:rdf="http://www.w3.org/1999/02/22-rdf-syntax-ns#"
   xmlns:svg="http://www.w3.org/2000/svg"
   xmlns="http://www.w3.org/2000/svg"
   xmlns:sodipodi="http://sodipodi.sourceforge.net/DTD/sodipodi-0.dtd"
   xmlns:inkscape="http://www.inkscape.org/namespaces/inkscape"
   width="509.72983"
   height="61.998283"
   id="svg5128"
   version="1.1"
   inkscape:version="0.48.1 "
   sodipodi:docname="arthurgallagher.svg">
  <defs
     id="defs5130" />
  <sodipodi:namedview
     id="base"
     pagecolor="#ffffff"
     bordercolor="#666666"
     borderopacity="1.0"
     inkscape:pageopacity="0.0"
     inkscape:pageshadow="2"
     inkscape:zoom="1.6527216"
     inkscape:cx="313.05877"
     inkscape:cy="5.5502354"
     inkscape:document-units="px"
     inkscape:current-layer="layer1"
     showgrid="false"
     inkscape:window-width="1280"
     inkscape:window-height="750"
     inkscape:window-x="-8"
     inkscape:window-y="-8"
     inkscape:window-maximized="1"
     showborder="false"
     inkscape:showpageshadow="false"
     fit-margin-top="0"
     fit-margin-left="0"
     fit-margin-right="0"
     fit-margin-bottom="0" />
  <metadata
     id="metadata5133">
    <rdf:RDF>
      <cc:Work
         rdf:about="">
        <dc:format>image/svg+xml</dc:format>
        <dc:type
           rdf:resource="http://purl.org/dc/dcmitype/StillImage" />
        <dc:title></dc:title>
      </cc:Work>
    </rdf:RDF>
  </metadata>
  <g
     inkscape:label="Layer 1"
     inkscape:groupmode="layer"
     id="layer1"
     transform="translate(-107.77451,-883.52509)">
    <rect
       style="fill:none;stroke:none"
       id="rect8659"
       width="509.72983"
       height="61.998283"
       x="107.77451"
       y="883.52509" />
    <path
       style="fill:#191516;fill-opacity:1;fill-rule:evenodd;stroke:none"
       d="m 604.14308,912.34857 c -4.6963,0 -8.50001,3.73782 -8.50001,8.3751 0,4.63729 3.80371,8.37511 8.50001,8.37511 4.69631,0 8.50001,-3.73782 8.50001,-8.37511 0,-4.63728 -3.8037,-8.3751 -8.50001,-8.3751 z m -0.0625,1.0625 c 2.95363,0 5.375,3.23309 5.375,7.2501 0,4.01701 -2.42137,7.25008 -5.375,7.25008 -2.95365,0 -5.31252,-3.23307 -5.31252,-7.25008 0,-4.01701 2.35887,-7.2501 5.31252,-7.2501 z"
       id="path8652"
       inkscape:connector-curvature="0" />
    <path
       inkscape:connector-curvature="0"
       d="m 171.195,943.13832 0,-18.53663 6.47387,0 0,-9.08474 -34.9691,0 0,9.08474 6.67778,0 0,7.9443 c 0,0 -17.28065,-3.02825 -19.01381,-16.90002 0,0 -1.17245,-9.96754 11.97921,-15.89501 0,0 13.25358,-6.43028 28.80107,-2.39683 l 0,-11.09495 c 0,0 17.5865,1.51401 31.34984,12.60896 0,0 8.71679,7.1905 8.30899,15.76621 0,0 1.6312,12.23535 -15.85334,21.57128 0,0 -9.1246,5.41866 -23.75451,6.93269"
       style="fill:#6dacdb;fill-opacity:1;fill-rule:nonzero;stroke:none"
       id="path4444" />
    <path
       inkscape:connector-curvature="0"
       d="m 129.59947,915.13737 81.25475,0"
       style="fill:none;stroke:#ffffff;stroke-width:0.76115882;stroke-linecap:butt;stroke-linejoin:miter;stroke-miterlimit:4;stroke-opacity:1;stroke-dasharray:none"
       id="path4450" />
    <path
       inkscape:connector-curvature="0"
       d="m 139.43749,900.76315 c 0,0 30.3813,10.72123 55.25728,-7.3193"
       style="fill:none;stroke:#ffffff;stroke-width:0.76115882;stroke-linecap:butt;stroke-linejoin:miter;stroke-miterlimit:4;stroke-opacity:1;stroke-dasharray:none"
       id="path5670" />
    <path
       inkscape:connector-curvature="0"
       d="m 170.58241,887.26499 c 0,0 26.60914,5.2962 27.62865,28.00152 0,0 0.6117,20.81106 -27.88352,27.24122"
       style="fill:none;stroke:#ffffff;stroke-width:0.76115882;stroke-linecap:butt;stroke-linejoin:miter;stroke-miterlimit:4;stroke-opacity:1;stroke-dasharray:none"
       id="path5680" />
    <path
       inkscape:connector-curvature="0"
       d="m 170.32754,890.04301 c 0,0 11.21459,6.55903 11.21459,25.22454 0,0 0.66266,16.51999 -11.21459,25.10216"
       style="fill:none;stroke:#ffffff;stroke-width:0.76115882;stroke-linecap:butt;stroke-linejoin:miter;stroke-miterlimit:4;stroke-opacity:1;stroke-dasharray:none"
       id="path5678" />
    <path
       inkscape:connector-curvature="0"
       d="m 139.69149,929.51941 c 0,0 14.37504,-6.1789 30.89106,-2.64812 0,0 11.52042,1.08242 23.90744,9.69036"
       style="fill:none;stroke:#ffffff;stroke-width:0.76115882;stroke-linecap:butt;stroke-linejoin:miter;stroke-miterlimit:4;stroke-opacity:1;stroke-dasharray:none"
       id="path5682" />
    <path
       inkscape:connector-curvature="0"
       d="m 160.23552,895.46779 0,46.67994"
       style="fill:none;stroke:#ffffff;stroke-width:0.76115882;stroke-linecap:butt;stroke-linejoin:miter;stroke-miterlimit:4;stroke-opacity:1;stroke-dasharray:none"
       id="path5672" />
    <path
       inkscape:connector-curvature="0"
       d="m 142.44493,899.12072 c 0,0 -8.81875,12.99564 0,32.03487"
       style="fill:none;stroke:#ffffff;stroke-width:0.76115882;stroke-linecap:butt;stroke-linejoin:miter;stroke-miterlimit:4;stroke-opacity:1;stroke-dasharray:none"
       id="path5676" />
    <path
       inkscape:connector-curvature="0"
       d="m 109.92163,917.03281 c 0,0 0.6117,11.22379 15.75137,19.29693 0,0 17.02577,10.46999 45.521,6.93917 l 0,-18.66551 6.57582,0 0,-9.0847 -35.07105,0 0,9.0847 6.42289,0 0,7.69299 c -20.54307,-5.10932 -18.40211,-18.72993 -18.40211,-18.72993 2.90561,-16.39758 27.52671,-17.34471 27.52671,-17.34471 0,0 7.28947,-0.38015 12.94774,1.26283 l 0,-11.22379 c 0,0 -22.42916,-4.2911 -45.62295,7.56415 0,0 -18.19821,9.39396 -15.64942,23.20787"
       style="fill:#191516;fill-opacity:1;fill-rule:nonzero;stroke:none"
       id="path4462" />
    <path
       sodipodi:type="arc"
       style="fill:#6dacdb;fill-opacity:1;fill-rule:evenodd;stroke:none"
       id="path3227"
       sodipodi:cx="164.95094"
       sodipodi:cy="135.74185"
       sodipodi:rx="46.93726"
       sodipodi:ry="95.215584"
       d="m 211.8882,135.74185 c 0,52.58612 -21.01452,95.21559 -46.93726,95.21559 -25.92273,0 -46.93726,-42.62947 -46.93726,-95.21559 0,-52.586113 21.01453,-95.215582 46.93726,-95.215582 25.92274,0 46.93726,42.629469 46.93726,95.215582 z"
       transform="matrix(0.04290841,0,0,0.02101573,205.22922,927.88645)" />
    <path
       transform="matrix(0.0364079,0,0,0.01783191,206.30138,928.3187)"
       d="m 211.8882,135.74185 c 0,52.58612 -21.01452,95.21559 -46.93726,95.21559 -25.92273,0 -46.93726,-42.62947 -46.93726,-95.21559 0,-52.586113 21.01453,-95.215582 46.93726,-95.215582 25.92274,0 46.93726,42.629469 46.93726,95.215582 z"
       sodipodi:ry="95.215584"
       sodipodi:rx="46.93726"
       sodipodi:cy="135.74185"
       sodipodi:cx="164.95094"
       id="path3229"
       style="fill:#ffffff;fill-rule:evenodd;stroke:none"
       sodipodi:type="arc" />
    <path
       class="fil1"
       d="m 211.81509,930.64097 -2.2e-4,-0.83606 c 0.168,0 0.54471,-0.01 0.68818,0.0215 0.20021,0.0456 0.31281,0.16384 0.31537,0.39541 0.002,0.24374 -0.10221,0.34828 -0.31697,0.39448 -0.19019,0.0408 -0.48195,0.0243 -0.68646,0.0243 z m -0.307,1.39088 c 0.0524,0.002 0.25569,0.002 0.30674,-1.2e-4 l 0,-1.11989 0.49256,0 c 0.014,0.0203 0.22951,0.52022 0.2467,0.55918 l 0.1852,0.42359 c 0.01,0.0213 0.0514,0.13389 0.067,0.13831 l 0.32879,0 -0.51569,-1.16462 c 0.0232,-0.0101 0.0638,-0.0181 0.0874,-0.0241 0.183,-0.0539 0.3457,-0.17771 0.42607,-0.35855 0.10459,-0.23509 0.0462,-0.5313 -0.0894,-0.69671 -0.24683,-0.30104 -0.69801,-0.25444 -1.08577,-0.25444 -0.14559,0 -0.30579,-0.006 -0.4497,0 l 0,2.49702 z"
       id="path3216"
       inkscape:connector-curvature="0"
       style="fill:#6dacdb;fill-opacity:1;fill-rule:evenodd" />
    <g
       style="fill:#191516;fill-opacity:1;fill-rule:evenodd"
       id="Layer_x0020_1"
       transform="matrix(0.00283505,0,0,0.00284509,225.49675,856.02121)">
      <metadata
         id="CorelCorpID_0Corel-Layer" />
      <sodipodi:namedview
         pagecolor="#ffffff"
         bordercolor="#666666"
         borderopacity="1"
         objecttolerance="10"
         gridtolerance="10"
         guidetolerance="10"
         inkscape:pageopacity="0"
         inkscape:pageshadow="2"
         inkscape:window-width="1280"
         inkscape:window-height="750"
         id="namedview4264"
         showgrid="false"
         inkscape:zoom="0.50457914"
         inkscape:cx="372.04724"
         inkscape:cy="526.18109"
         inkscape:window-x="-8"
         inkscape:window-y="-8"
         inkscape:window-maximized="1"
         inkscape:current-layer="svg4248" />
      <g
         id="_253810496"
         style="fill:#191516;fill-opacity:1;stroke:none">
        <g
           id="g7330"
           style="fill:#191516;fill-opacity:1;stroke:none">
          <path
             class="fil0"
             d="m 15006,17875 c 73,92 1493,4031 1596,4406 l -3407,-4 1811,-4403 z m -4687,7474 -3,221 c 443,5 894,-29 1338,-43 478,-15 905,33 1377,45 l -1,-226 c -173,-123 -391,-163 -523,-358 -293,-431 310,-1706 467,-2134 l 3822,-10 c 128,353 714,1771 673,2037 -31,202 -321,324 -462,462 l 1,230 c 405,-6 807,-51 1210,-52 410,-1 823,43 1235,52 l 0,-226 c -235,-176 -610,-172 -906,-753 -212,-416 -1916,-5340 -2230,-6202 -287,-787 -565,-1752 -889,-2497 l -212,-17 c -143,180 -887,2161 -1037,2537 l -2051,5146 c -310,778 -374,1105 -1175,1508 -143,72 -560,222 -634,281 z"
             id="path7332"
             inkscape:connector-curvature="0"
             style="fill:#191516;fill-opacity:1;stroke:none" />
          <path
             class="fil0"
             d="m 27490,16312 2,312 c 1007,64 812,439 835,1702 39,2127 18,4227 25,6350 3,721 -170,456 -606,707 l -4,180 c 347,27 708,-40 1056,-44 363,-3 735,70 1092,43 l 6,-178 c -609,-376 -573,344 -573,-1802 0,-734 -53,-1690 7,-2396 98,-226 2282,-1620 2828,374 169,616 194,1416 200,2057 21,2050 19,1384 -519,1768 l 1,175 c 305,27 689,-43 1015,-41 352,2 702,57 1054,47 l -2,-186 c -434,-248 -593,39 -592,-739 2,-1036 105,-3174 -212,-3918 -484,-1138 -1981,-1046 -2926,-557 -264,137 -628,425 -848,517 -55,-740 -11,-1704 0,-2463 11,-792 80,-1686 40,-2465 -544,-66.573 -862,498 -1882,557 z"
             id="path7334"
             inkscape:connector-curvature="0"
             style="fill:#191516;fill-opacity:1;stroke:none"
             sodipodi:nodetypes="cccccccccscccccccccccccccc" />
          <path
             class="fil0"
             d="m 33999,20147 c 739,261 594,-82 594,2094 0,779 -93,1721 243,2429 321,676 857,1096 1655,1030 792,-65 1408,-685 1882,-863 19,245 90,483 236,682 281,382 455,197 1176,-230 479,-283 500,-194 484,-468 -193,60 -386,217 -601,201 -260,-19 -341,-261 -359,-486 -39,-479 -6,-2683 -6,-3353 0,-513 -104,-865 303,-976 237,-64 234,28 207,-237 -313,-26 -642,41 -960,42 -326,1 -658,-43 -988,-52 -5,392 135,125 344,386 106,133 71,356 73,519 6,574 79,3410 50,3563 -62,326 -2348,1350 -2735,-411 -103,-470 -50,-2468 -52,-3188 -1,-500 -31,-480 405,-670 l 3,-199 c -332,5 -656,52 -980,51 -302,-1 -684,-70 -966,-43 l -8,178 z"
             id="path7336"
             inkscape:connector-curvature="0"
             style="fill:#191516;fill-opacity:1;stroke:none" />
          <path
             class="fil0"
             d="m 23983,20407 c 170,108 591,0 913,58 42,697 4,2603 4,3434 0,493 60,969 428,1320 330,314 806,528 1284,476 l 944,-1115 -157,-134 c -360,203 -599,530 -1124,320 -429,-172 -422,-741 -423,-1149 -1,-706 -32,-2582 5,-3154 l 1759,-13 0,-437 -1811,0 -7,-1662 c -684,-9 13,137 -798,1254 -418,576 -968,556 -1017,801 z"
             id="path7338"
             inkscape:connector-curvature="0"
             style="fill:#191516;fill-opacity:1;stroke:none" />
          <path
             sodipodi:nodetypes="cccccccccscccccccccccccccc"
             style="fill:#191516;fill-opacity:1;stroke:none"
             inkscape:connector-curvature="0"
             id="path8222"
             d="m 89864.265,16278.794 2,312 c 1007,64 812,439 835,1702 39,2127 18,4227 25,6350 3,721 -170,456 -606,707 l -4,180 c 347,27 708,-40 1056,-44 363,-3 735,70 1092,43 l 6,-178 c -609,-376 -573,344 -573,-1802 0,-734 -53,-1690 7,-2396 98,-226 2282,-1620 2828,374 169,616 194,1416 200,2057 21,2050 19,1384 -519,1768 l 1,175 c 305,27 689,-43 1015,-41 352,2 702,57 1054,47 l -2,-186 c -434,-248 -593,39 -592,-739 2,-1036 105,-3174 -212,-3918 -484,-1138 -1981,-1046 -2926,-557 -264,137 -628,425 -848,517 -55,-740 -11,-1704 0,-2463 11,-792 80,-1686 40,-2465 -544,-66.573 -862,498 -1882,557 z"
             class="fil0" />
        </g>
      </g>
    </g>
    <g
       transform="matrix(5.6713272e-4,0,0,5.6471673e-4,319.34007,900.24009)"
       style="fill:#191516;fill-opacity:1;fill-rule:evenodd;stroke:none"
       id="Layer_x0020_1-7">
      <metadata
         id="CorelCorpID_0Corel-Layer-9" />
      <sodipodi:namedview
         pagecolor="#ffffff"
         bordercolor="#666666"
         borderopacity="1"
         objecttolerance="10"
         gridtolerance="10"
         guidetolerance="10"
         inkscape:pageopacity="0"
         inkscape:pageshadow="2"
         inkscape:window-width="1280"
         inkscape:window-height="750"
         id="namedview4264-0"
         showgrid="false"
         inkscape:zoom="0.50457914"
         inkscape:cx="372.04724"
         inkscape:cy="526.18109"
         inkscape:window-x="-8"
         inkscape:window-y="-8"
         inkscape:window-maximized="1"
         inkscape:current-layer="svg4248" />
      <path
         inkscape:connector-curvature="0"
         class="fil0"
         d="m 36875,25147 c -74,201 -28,770 -28,1016 852,-216 2562,-631 3299,-27 728,596 848,2066 963,2952 322,2487 318,4999 318,7502 l 0,9772 c 0,572 100,1222 -268,1696 -529,681 -1874,1089 -2695,1260 l 0,1033 c 1772,0 3531,-271 5304,-270 1770,0 3529,271 5296,270 l 0,-1032 c -1082,-271 -2838,-655 -2874,-2038 -42,-1625 0,-3310 0,-4941 0,-1635 0,-3269 0,-4904 0,-1590 -65,-3313 57,-4888 189,-2427 1019,-5304 3368,-6481 1259,-631 2755,-795 4138,-558 1428,245 2200,1026 2492,2440 l 1352,0 0,-5902 c -1437,-281 -2190,-654 -3953,-520 -1963,149 -3171,998 -4535,2165 -427,365 -727,757 -1110,1148 -306,312 -720,871 -987,1236 -139,191 -832,1219 -983,1257 -126,-348 -288,-5425 -391,-5808 -153,-48 -558,-19 -742,-20 -331,-2 -323,-13 -601,162 -313,196 -657,392 -980,572 -1968,1094 -3092,1745 -5243,2519 -279,100 -1003,283 -1198,390 z"
         id="path7461"
         style="fill:#191516;fill-opacity:1;stroke:none" />
      <path
         style="fill:#191516;fill-opacity:1;stroke:none"
         id="path8210"
         d="m 36875,25147 c -74,201 -28,770 -28,1016 852,-216 2562,-631 3299,-27 728,596 848,2066 963,2952 322,2487 318,4999 318,7502 l 0,9772 c 0,572 100,1222 -268,1696 -529,681 -1874,1089 -2695,1260 l 0,1033 c 1772,0 3531,-271 5304,-270 1770,0 3529,271 5296,270 l 0,-1032 c -1082,-271 -2838,-655 -2874,-2038 -42,-1625 0,-3310 0,-4941 0,-1635 0,-3269 0,-4904 0,-1590 -65,-3313 57,-4888 189,-2427 1019,-5304 3368,-6481 1259,-631 2755,-795 4138,-558 1428,245 2200,1026 2492,2440 l 1352,0 0,-5902 c -1437,-281 -2190,-654 -3953,-520 -1963,149 -3171,998 -4535,2165 -427,365 -727,757 -1110,1148 -306,312 -720,871 -987,1236 -139,191 -832,1219 -983,1257 -126,-348 -288,-5425 -391,-5808 -153,-48 -558,-19 -742,-20 -331,-2 -323,-13 -601,162 -313,196 -657,392 -980,572 -1968,1094 -3092,1745 -5243,2519 -279,100 -1003,283 -1198,390 z"
         class="fil0"
         inkscape:connector-curvature="0" />
    </g>
    <g
       id="g7497"
       style="fill:#191516;fill-opacity:1;fill-rule:evenodd;stroke:none"
       transform="matrix(5.6713272e-4,0,0,5.6471673e-4,259.51598,900.32609)">
      <metadata
         id="metadata7499" />
      <sodipodi:namedview
         inkscape:current-layer="svg4248"
         inkscape:window-maximized="1"
         inkscape:window-y="-8"
         inkscape:window-x="-8"
         inkscape:cy="526.18109"
         inkscape:cx="372.04724"
         inkscape:zoom="0.50457914"
         showgrid="false"
         id="namedview7501"
         inkscape:window-height="750"
         inkscape:window-width="1280"
         inkscape:pageshadow="2"
         inkscape:pageopacity="0"
         guidetolerance="10"
         gridtolerance="10"
         objecttolerance="10"
         borderopacity="1"
         bordercolor="#666666"
         pagecolor="#ffffff" />
      <path
         id="path7503"
         d="m 36875,25147 c -74,201 -28,770 -28,1016 852,-216 2562,-631 3299,-27 728,596 848,2066 963,2952 322,2487 318,4999 318,7502 l 0,9772 c 0,572 100,1222 -268,1696 -529,681 -1874,1089 -2695,1260 l 0,1033 c 1772,0 3531,-271 5304,-270 1770,0 3529,271 5296,270 l 0,-1032 c -1082,-271 -2838,-655 -2874,-2038 -42,-1625 0,-3310 0,-4941 0,-1635 0,-3269 0,-4904 0,-1590 -65,-3313 57,-4888 189,-2427 1019,-5304 3368,-6481 1259,-631 2755,-795 4138,-558 1428,245 2200,1026 2492,2440 l 1352,0 0,-5902 c -1437,-281 -2190,-654 -3953,-520 -1963,149 -3171,998 -4535,2165 -427,365 -727,757 -1110,1148 -306,312 -720,871 -987,1236 -139,191 -832,1219 -983,1257 -126,-348 -288,-5425 -391,-5808 -153,-48 -558,-19 -742,-20 -331,-2 -323,-13 -601,162 -313,196 -657,392 -980,572 -1968,1094 -3092,1745 -5243,2519 -279,100 -1003,283 -1198,390 z"
         class="fil0"
         inkscape:connector-curvature="0"
         style="fill:#191516;fill-opacity:1;stroke:none" />
    </g>
    <path
       sodipodi:type="arc"
       style="fill:#191516;fill-opacity:1;fill-rule:evenodd;stroke:none"
       id="path8055"
       sodipodi:cx="372.30435"
       sodipodi:cy="930.10217"
       sodipodi:rx="0.69447988"
       sodipodi:ry="0.78918165"
       d="m 372.99883,930.10217 c 0,0.43586 -0.31093,0.78918 -0.69448,0.78918 -0.38355,0 -0.69448,-0.35332 -0.69448,-0.78918 0,-0.43585 0.31093,-0.78918 0.69448,-0.78918 0.38355,0 0.69448,0.35333 0.69448,0.78918 z"
       transform="matrix(2.2390891,0,0,1.9843598,-460.18235,-918.20126)" />
    <path
       inkscape:connector-curvature="0"
       style="fill:#191516;fill-opacity:1;fill-rule:evenodd"
       class="fil0"
       d="m 369.5845,921.9086 c 0.4481,-4.84487 0.45264,-11.09554 0.46172,-16.1114 10e-4,-0.76942 -0.084,-1.76182 0.27794,-2.45523 0.39478,-0.75581 0.962,-0.83743 1.713,-1.02201 l 0,-0.66063 c -1.12535,0 -2.24732,0.14595 -3.37836,0.15198 -1.11516,0 -2.27114,-0.17992 -3.35909,-0.14796 l 0,0.61642 c 0.60467,0.3126 1.10949,0.04 1.44869,0.98681 0.23256,0.6516 0.185,1.52162 0.185,2.21062 l 0,14.4288 c 0,2.65803 0.25524,6.55227 -0.60806,9.02112 -1.11743,3.19624 -3.32619,3.30604 -6.28707,2.67262 l -0.59104,1.81743 c 1.4328,0.4498 3.28646,0.14192 4.6285,-0.4996 4.03068,-1.92844 5.13449,-6.96569 5.50771,-11.00714 z"
       id="path8084" />
    <g
       style="fill:#191516;fill-opacity:1;fill-rule:evenodd"
       id="Layer_x0020_1-1"
       transform="matrix(0.00141789,0,0,0.00141844,339.02344,866.49546)">
      <metadata
         id="CorelCorpID_0Corel-Layer-5" />
      <sodipodi:namedview
         pagecolor="#ffffff"
         bordercolor="#666666"
         borderopacity="1"
         objecttolerance="10"
         gridtolerance="10"
         guidetolerance="10"
         inkscape:pageopacity="0"
         inkscape:pageshadow="2"
         inkscape:window-width="1280"
         inkscape:window-height="750"
         id="namedview4264-8"
         showgrid="false"
         inkscape:zoom="0.50457914"
         inkscape:cx="372.04724"
         inkscape:cy="526.18109"
         inkscape:window-x="-8"
         inkscape:window-y="-8"
         inkscape:window-maximized="1"
         inkscape:current-layer="svg4248" />
      <g
         id="_258075312"
         style="fill:#191516;fill-opacity:1">
        <g
           id="g8154"
           style="fill:#191516;fill-opacity:1">
          <path
             class="fil1"
             d="m 53436,43176 c 61,-263 19,-4198 19,-4816 0,-688 -128,-1657 232,-2163 298,-418 870,-784 1619,-816 l 21,-518 c -2839,128 -3325,122 -6153,0 l 6,519 c 1231,83 1971,532 1972,1779 1,1258 0,2517 0,3775 0,820 14,957 -455,1409 -1602,1544 -10853,2334 -12552,-6213 -848,-4265 6,-8424 3820,-10669 2282,-1343 5700,-1701 8045,40 211,157 331,272 512,439 483,447 900,972 1219,1603 103,204 178,472 288,666 l 516,6 10,-4381 c -139,11 -491,189 -636,256 -321,149 -375,54 -709,-35 -1871,-500 -2814,-623 -4849,-647 -2178,-25 -4362,468 -6000,1365 -3554,1945 -5404,5247 -5238,9447 275,6982 6035,9969 12014,10019 2287,19 4058,-901 6300,-1065 z"
             id="path8156"
             inkscape:connector-curvature="0"
             style="fill:#191516;fill-opacity:1" />
          <path
             class="fil1"
             d="m 61723,38024 c 16,453 30,2936 5,3442 -10,198 -114,217 -232,318 -469,401 -1221,826 -1912,943 -682,115 -1394,-101 -1706,-469 -339,-399 -535,-1075 -500,-1779 64,-1289 992,-2103 2198,-2380 399,-92 1732,-139 2148,-74 z m -5062,-3075 c 124,-666 642,-1004 1340,-1143 617,-123 1672,-108 2290,6 726,134 1193,430 1351,1116 82,357 137,1972 69,2310 -871,62 -1617,-9 -2499,148 -732,131 -1364,386 -1945,698 -1063,569 -2080,1592 -1786,3358 234,1405 1120,2579 2588,2675 1517,99 2866,-946 3705,-1554 l 67,104 c 380,826 401,905 1062,1578 138,-41 451,-277 605,-377 388,-251 1549,-983 1768,-1173 l -221,-410 c -543,204 -1309,524 -1413,-644 -163,-1829 237,-5337 -189,-7147 -325,-1382 -1227,-1995 -2780,-2116 -738,-57 -1635,-23 -2369,35 -379,30 -741,73 -1108,139 -341,61 -656,166 -975,230 l 0,2170 439,-3 z"
             id="path8158"
             inkscape:connector-curvature="0"
             style="fill:#191516;fill-opacity:1" />
          <path
             style="fill:#191516;fill-opacity:1"
             inkscape:connector-curvature="0"
             id="path8208"
             d="m 83396.887,38024 c 16,453 30,2936 5,3442 -10,198 -114,217 -232,318 -469,401 -1221,826 -1912,943 -682,115 -1394,-101 -1706,-469 -339,-399 -535,-1075 -500,-1779 64,-1289 992,-2103 2198,-2380 399,-92 1732,-139 2148,-74 z m -5062,-3075 c 124,-666 642,-1004 1340,-1143 617,-123 1672,-108 2290,6 726,134 1193,430 1351,1116 82,357 137,1972 69,2310 -871,62 -1617,-9 -2499,148 -732,131 -1364,386 -1945,698 -1063,569 -2080,1592 -1786,3358 234,1405 1120,2579 2588,2675 1517,99 2866,-946 3705,-1554 l 67,104 c 380,826 401,905 1062,1578 138,-41 451,-277 605,-377 388,-251 1549,-983 1768,-1173 l -221,-410 c -543,204 -1309,524 -1413,-644 -163,-1829 237,-5337 -189,-7147 -325,-1382 -1227,-1995 -2780,-2116 -738,-57 -1635,-23 -2369,35 -379,30 -741,73 -1108,139 -341,61 -656,166 -975,230 l 0,2170 439,-3 z"
             class="fil1" />
        </g>
      </g>
    </g>
    <g
       id="g8212"
       style="fill:#191516;fill-opacity:1;fill-rule:evenodd;stroke:none"
       transform="matrix(5.6713272e-4,0,0,5.6471673e-4,493.16632,900.24009)">
      <metadata
         id="metadata8214" />
      <sodipodi:namedview
         inkscape:current-layer="svg4248"
         inkscape:window-maximized="1"
         inkscape:window-y="-8"
         inkscape:window-x="-8"
         inkscape:cy="526.18109"
         inkscape:cx="372.04724"
         inkscape:zoom="0.50457914"
         showgrid="false"
         id="namedview8216"
         inkscape:window-height="750"
         inkscape:window-width="1280"
         inkscape:pageshadow="2"
         inkscape:pageopacity="0"
         guidetolerance="10"
         gridtolerance="10"
         objecttolerance="10"
         borderopacity="1"
         bordercolor="#666666"
         pagecolor="#ffffff" />
      <path
         style="fill:#191516;fill-opacity:1;stroke:none"
         id="path8218"
         d="m 36875,25147 c -74,201 -28,770 -28,1016 852,-216 2562,-631 3299,-27 728,596 848,2066 963,2952 322,2487 318,4999 318,7502 l 0,9772 c 0,572 100,1222 -268,1696 -529,681 -1874,1089 -2695,1260 l 0,1033 c 1772,0 3531,-271 5304,-270 1770,0 3529,271 5296,270 l 0,-1032 c -1082,-271 -2838,-655 -2874,-2038 -42,-1625 0,-3310 0,-4941 0,-1635 0,-3269 0,-4904 0,-1590 -65,-3313 57,-4888 189,-2427 1019,-5304 3368,-6481 1259,-631 2755,-795 4138,-558 1428,245 2200,1026 2492,2440 l 1352,0 0,-5902 c -1437,-281 -2190,-654 -3953,-520 -1963,149 -3171,998 -4535,2165 -427,365 -727,757 -1110,1148 -306,312 -720,871 -987,1236 -139,191 -832,1219 -983,1257 -126,-348 -288,-5425 -391,-5808 -153,-48 -558,-19 -742,-20 -331,-2 -323,-13 -601,162 -313,196 -657,392 -980,572 -1968,1094 -3092,1745 -5243,2519 -279,100 -1003,283 -1198,390 z"
         class="fil0"
         inkscape:connector-curvature="0" />
      <path
         inkscape:connector-curvature="0"
         class="fil0"
         d="m 36875,25147 c -74,201 -28,770 -28,1016 852,-216 2562,-631 3299,-27 728,596 848,2066 963,2952 322,2487 318,4999 318,7502 l 0,9772 c 0,572 100,1222 -268,1696 -529,681 -1874,1089 -2695,1260 l 0,1033 c 1772,0 3531,-271 5304,-270 1770,0 3529,271 5296,270 l 0,-1032 c -1082,-271 -2838,-655 -2874,-2038 -42,-1625 0,-3310 0,-4941 0,-1635 0,-3269 0,-4904 0,-1590 -65,-3313 57,-4888 189,-2427 1019,-5304 3368,-6481 1259,-631 2755,-795 4138,-558 1428,245 2200,1026 2492,2440 l 1352,0 0,-5902 c -1437,-281 -2190,-654 -3953,-520 -1963,149 -3171,998 -4535,2165 -427,365 -727,757 -1110,1148 -306,312 -720,871 -987,1236 -139,191 -832,1219 -983,1257 -126,-348 -288,-5425 -391,-5808 -153,-48 -558,-19 -742,-20 -331,-2 -323,-13 -601,162 -313,196 -657,392 -980,572 -1968,1094 -3092,1745 -5243,2519 -279,100 -1003,283 -1198,390 z"
         id="path8220"
         style="fill:#191516;fill-opacity:1;stroke:none" />
    </g>
    <path
       class="fil1"
       d="m 431.32419,903.23418 0,0.66362 c 0.86016,-0.0714 2.11139,-0.24421 2.14086,0.79567 0.0856,2.99061 0.15181,6.07127 0.15181,9.05726 l 0,13.13534 c 0,0.87443 -0.95542,0.91241 -1.57933,1.19972 l 0,0.56953 c 0.57976,-0.0328 2.60561,-0.17891 3.03173,-0.14956 l 2.92458,0.16846 c 0.01,-0.0545 0.004,-0.4919 0.004,-0.58318 -0.1508,-0.0913 -0.81036,-0.2301 -1.07666,-0.35872 -0.33209,-0.16042 -0.60579,-0.36837 -0.60579,-0.84607 l 0,-17.09385 0.22381,-8.94448 c -0.44688,0.0101 -0.35616,-0.0605 -0.75536,0.18414 -0.56778,0.38819 -1.17525,0.73899 -1.80482,1.05348 -0.24201,0.12081 -2.64863,1.13346 -2.65769,1.14934 z"
       id="path8255"
       inkscape:connector-curvature="0"
       style="fill:#191516;fill-opacity:1;fill-rule:evenodd"
       sodipodi:nodetypes="cccssccccccscccccc" />
    <path
       sodipodi:nodetypes="cccssccccccscccccc"
       style="fill:#191516;fill-opacity:1;fill-rule:evenodd"
       inkscape:connector-curvature="0"
       id="path8282"
       d="m 439.7862,903.23418 0,0.66362 c 0.86017,-0.0714 2.11139,-0.24421 2.14086,0.79567 0.0856,2.99061 0.15181,6.07127 0.15181,9.05726 l 0,13.13534 c 0,0.87443 -0.95542,0.91241 -1.57933,1.19972 l 0,0.56953 c 0.57977,-0.0328 2.60561,-0.17891 3.03173,-0.14956 l 2.92458,0.16846 c 0.01,-0.0545 0.004,-0.4919 0.004,-0.58318 -0.1508,-0.0913 -0.81036,-0.2301 -1.07666,-0.35872 -0.33208,-0.16042 -0.60578,-0.36837 -0.60578,-0.84607 l 0,-17.09385 0.2238,-8.94448 c -0.44688,0.0101 -0.35616,-0.0605 -0.75536,0.18414 -0.56778,0.38819 -1.17525,0.73899 -1.80482,1.05348 -0.242,0.12081 -2.64863,1.13346 -2.65769,1.14934 z"
       class="fil1" />
    <path
       class="fil1"
       d="m 476.91898,931.43759 c -0.32705,2.11849 -3.11782,2.98308 -5.53791,2.96323 -2.41562,-0.0201 -5.35317,-0.66275 -5.58165,-2.92525 -0.1444,-1.42812 0.56282,-2.25634 1.56204,-2.64696 1.00717,-0.39343 2.79087,-0.27042 3.97369,-0.27042 1.21514,0 2.93704,-0.13389 3.96851,0.27497 0.95109,0.37644 1.83238,1.20125 1.61532,2.60443 z m -9.43789,-13.05945 c -0.17561,-2.60039 0.96235,-5.02173 3.29578,-5.24735 2.73522,-0.26477 4.06034,1.75742 4.21738,4.2876 0.1626,2.61115 -0.90914,4.99562 -3.29124,5.23601 -2.6769,0.26978 -4.05533,-1.80846 -4.22192,-4.27626 z m 0.41767,4.77282 c -1.49852,0.46999 -3.44536,1.13443 -4.04844,2.23535 -0.4636,0.84645 -0.28679,1.83511 0.33046,2.29603 0.29756,0.2228 0.68065,0.35605 1.12612,0.44327 0.1938,0.038 1.34894,0.14052 1.396,0.19219 -0.01,0.0352 -1.48436,0.53178 -1.64424,0.61171 -0.55368,0.27668 -1.01394,0.58168 -1.33298,0.95521 -0.82978,0.97061 -0.87287,2.29206 -0.0578,3.34939 1.18454,1.53633 4.21108,2.25796 6.88119,2.25002 4.12271,-0.0121 8.20007,-0.94273 8.28001,-5.40948 0.0284,-1.57092 -0.64786,-2.46999 -1.53199,-3.04941 -2.02168,-1.32428 -5.26762,-1.10092 -7.91441,-0.86791 -0.68358,0.0601 -1.47764,0.0708 -2.12428,-0.0708 -0.58834,-0.12866 -1.29622,-0.51475 -0.82072,-1.18659 0.44434,-0.62808 2.054,-1.43087 3.22435,-1.28969 1.58302,0.19098 2.5154,0.21428 4.00431,-0.24208 2.25688,-0.69104 4.08018,-2.30787 4.40156,-4.75187 0.1376,-1.0476 -0.006,-1.9927 -0.41832,-2.92242 -0.1042,-0.23527 -0.31564,-0.57601 -0.38424,-0.79256 l 3.49016,0 0.012,-1.24041 c -1.17544,-0.0482 -2.67229,0.08 -3.88352,0.1174 -1.39366,0.0436 -0.72491,0.12705 -1.57848,-0.38608 -0.41883,-0.25229 -0.87847,-0.45239 -1.40159,-0.61284 -2.32322,-0.71427 -4.75017,-0.45064 -6.62275,0.64402 -1.41016,0.82428 -3.16544,2.60609 -2.82933,5.11188 0.15081,1.12415 0.71185,2.11231 1.25881,2.76423 0.3293,0.39233 0.6064,0.67634 1.00374,1.00688 0.123,0.10192 1.17547,0.83161 1.1851,0.84522 z"
       id="path8322"
       inkscape:connector-curvature="0"
       style="fill:#191516;fill-opacity:1;fill-rule:evenodd" />
    <path
       class="fil1"
       d="m 502.19212,917.40415 c 0.0248,-0.44739 0.61765,-1.7273 0.82337,-2.06016 2.009,-3.25047 6.77893,-1.93596 6.8605,1.03491 0.0352,1.2844 -0.46297,1.03034 -1.87349,1.03034 -0.48516,0 -5.47378,0.0271 -5.80983,-0.004 z m 10.47941,8.2923 -0.22949,-0.30055 c -0.0828,0.0305 -0.5463,0.47863 -0.69929,0.5977 -0.82857,0.6453 -1.67577,1.06441 -2.82104,1.12395 -1.61001,0.0838 -3.09764,-0.31246 -4.24971,-1.00263 -1.77208,-1.06152 -2.76725,-2.87728 -2.84145,-5.04122 -0.018,-0.52623 -0.0436,-2.13449 0.056,-2.57963 0.63814,-0.0358 1.37545,-0.002 2.02484,-0.002 l 6.12436,0 c 0.64777,0 1.39973,0.0352 2.03506,-0.002 0.56444,-0.0334 0.91635,-0.55176 0.91466,-1.16193 -0.004,-1.30648 -0.63078,-2.23486 -1.23314,-2.87279 -1.19466,-1.26513 -3.57479,-2.26371 -6.08245,-2.04255 -4.80793,0.42415 -7.44366,4.93291 -6.88431,9.32605 0.30487,2.39416 1.61626,4.27342 2.89128,5.29298 1.51767,1.2136 3.50059,2.16173 6.16125,2.01538 0.60066,-0.0328 1.23258,-0.10594 1.80887,-0.22395 0.93962,-0.19218 0.86087,-0.18816 1.28813,-0.76895 0.14401,-0.1952 1.66047,-2.21211 1.73637,-2.35619 z"
       id="path8446"
       inkscape:connector-curvature="0"
       style="fill:#191516;fill-opacity:1;fill-rule:evenodd" />
    <path
       class="fil3"
       d="m 544.47592,918.69732 6.63515,6.25595 c -1.96655,2.54135 -5.37856,3.1061 -7.85944,0.9452 -1.1449,-0.99737 -1.78058,-2.62249 -1.43354,-4.12565 0.31358,-1.35739 1.5441,-2.34456 2.65783,-3.0755 z m 1.27532,-8.35103 c 1.87412,-0.1956 2.83754,1.1868 2.7542,2.93091 -0.0834,1.75439 -0.78655,2.64462 -2.28244,3.44181 -0.36348,0.19339 -0.56134,-0.1558 -0.84601,-0.40884 -0.83757,-0.74445 -1.50726,-1.41868 -1.75734,-2.55383 -0.37368,-1.69649 0.2756,-3.21553 2.13101,-3.40948 z m -1.89568,7.79765 c -0.88518,0.57211 -1.42619,0.80064 -2.23087,1.56892 -0.66288,0.63284 -1.20671,1.43908 -1.522,2.30098 -0.7071,1.9341 -0.16441,4.24861 1.40918,5.60098 1.63482,1.40507 3.74996,1.87685 5.82825,1.25313 0.8903,-0.2671 1.74318,-0.774 2.4582,-1.36141 0.36404,-0.29885 0.65099,-0.59989 0.98782,-0.92256 0.31244,-0.2999 0.59825,-0.7575 0.88802,-1.02857 l 2.75081,3.11463 c 0.73942,0.006 1.62292,-0.14916 2.42534,-0.15138 0.83359,-10e-4 1.68696,0.14796 2.47125,0.14455 l 0,-0.68552 c -1.54808,-0.14454 -2.32215,-0.60497 -3.4806,-1.60747 -0.91411,-0.79101 -1.71709,-1.66536 -2.52235,-2.56346 0.072,-0.18093 0.3851,-0.63626 0.50698,-0.86927 0.48656,-0.9333 0.89482,-1.88477 1.33598,-2.84077 0.76442,-1.65737 0.88293,-2.38604 2.92776,-2.64737 l 0.01,-0.69295 c -0.93622,0.0352 -1.83673,0.22513 -2.80355,0.22513 -0.96116,0 -1.86222,-0.17691 -2.80525,-0.22626 l 10e-4,0.69689 c 0.48989,0.0959 1.22089,0.23812 1.48345,0.70081 0.5341,0.94013 -0.1232,2.58049 -0.541,3.48207 -0.24668,0.53184 -0.52002,0.92763 -0.78031,1.41812 l -5.82088,-5.56299 c 1.48798,-0.69182 3.5005,-2.43251 3.61106,-4.17558 0.1554,-2.43931 -1.9535,-3.5427 -4.08396,-3.66912 -3.72387,-0.22063 -5.83391,3.41231 -4.24503,6.34945 0.4962,0.91689 1.06548,1.40511 1.74091,2.14842 z"
       id="path8522"
       inkscape:connector-curvature="0"
       style="fill:#191516;fill-opacity:1;fill-rule:evenodd" />
    <path
       class="fil2"
       d="m 593.48743,923.88655 c -1.48713,2.13451 -3.00211,3.20601 -5.58687,3.71769 -2.67953,0.53078 -5.42872,0.45919 -7.89961,-0.78876 -4.01075,-2.02539 -7.14495,-6.76568 -7.30824,-11.26858 -0.17959,-4.95288 1.73949,-9.96392 6.49242,-12.08212 3.35134,-1.49387 8.15068,-1.43433 11.25541,0.62647 1.08517,0.72 1.55522,1.3408 2.20896,2.44278 l 0.68089,0 -0.45978,-4.12373 c -0.0828,0.008 -0.34761,0.11057 -0.48933,0.13187 -0.48813,0.0722 -1.08348,-0.17308 -1.58293,-0.30118 -2.25029,-0.57544 -4.38889,-1.08144 -6.74074,-1.04529 -2.88645,0.0446 -5.79551,0.66119 -8.32763,2.08351 -5.09309,2.85946 -7.34621,8.2971 -6.57737,14.00262 0.7484,5.55454 4.42232,9.5224 9.73596,11.09849 3.68646,1.09418 7.92112,0.87094 11.69377,0.16665 0.44788,-0.083 1.75188,-0.29268 2.03428,-0.56694 0.23924,-0.23103 0.30842,-0.61087 0.39175,-0.92056 0.0908,-0.33875 0.22223,-0.63284 0.32769,-0.96096 0.2109,-0.65622 0.44229,-1.30182 0.64751,-1.95664 l -0.49614,-0.25442 z"
       id="path8625"
       inkscape:connector-curvature="0"
       style="fill:#191516;fill-opacity:1;fill-rule:evenodd" />
    <path
       transform="matrix(2.2390891,0,0,1.9843598,-218.508,-918.20126)"
       d="m 372.99883,930.10217 c 0,0.43586 -0.31093,0.78918 -0.69448,0.78918 -0.38355,0 -0.69448,-0.35332 -0.69448,-0.78918 0,-0.43585 0.31093,-0.78918 0.69448,-0.78918 0.38355,0 0.69448,0.35333 0.69448,0.78918 z"
       sodipodi:ry="0.78918165"
       sodipodi:rx="0.69447988"
       sodipodi:cy="930.10217"
       sodipodi:cx="372.30435"
       id="path8657"
       style="fill:#191516;fill-opacity:1;fill-rule:evenodd;stroke:none"
       sodipodi:type="arc" />
  </g>
</svg>
