<?xml version="1.0" encoding="UTF-8" standalone="no"?>
<!-- Generator: Adobe Illustrator 21.0.0, SVG Export Plug-In . SVG Version: 6.00 Build 0)  -->

<svg
   xmlns:dc="http://purl.org/dc/elements/1.1/"
   xmlns:cc="http://creativecommons.org/ns#"
   xmlns:rdf="http://www.w3.org/1999/02/22-rdf-syntax-ns#"
   xmlns:svg="http://www.w3.org/2000/svg"
   xmlns="http://www.w3.org/2000/svg"
   xmlns:sodipodi="http://sodipodi.sourceforge.net/DTD/sodipodi-0.dtd"
   xmlns:inkscape="http://www.inkscape.org/namespaces/inkscape"
   version="1.1"
   id="Artwork"
   x="0px"
   y="0px"
   viewBox="0 0 601.3 127.7"
   style="enable-background:new 0 0 601.3 127.7;"
   xml:space="preserve"
   inkscape:version="0.91 r13725"
   sodipodi:docname="Allstate.svg"><metadata
     id="metadata35"><rdf:RDF><cc:Work
         rdf:about=""><dc:format>image/svg+xml</dc:format><dc:type
           rdf:resource="http://purl.org/dc/dcmitype/StillImage" /></cc:Work></rdf:RDF></metadata><defs
     id="defs33" /><sodipodi:namedview
     pagecolor="#ffffff"
     bordercolor="#666666"
     borderopacity="1"
     objecttolerance="10"
     gridtolerance="10"
     guidetolerance="10"
     inkscape:pageopacity="0"
     inkscape:pageshadow="2"
     inkscape:window-width="1680"
     inkscape:window-height="931"
     id="namedview31"
     showgrid="false"
     inkscape:zoom="0.51554965"
     inkscape:cx="300.64999"
     inkscape:cy="63.849998"
     inkscape:window-x="0"
     inkscape:window-y="1"
     inkscape:window-maximized="1"
     inkscape:current-layer="g7" /><style
     type="text/css"
     id="style3">
	.st0{fill:#0033A0;}
</style><title
     id="title5">allstate_logo_blue</title><g
     id="g7"><path
       class="st0"
       d="M183.6,65.3l-2.9-1.1c-4.8-1.8-8.6-3.2-8.6-6.4c0-3.4,2.9-5.4,8.5-5.4c5.8,0,11,3.2,12.8,4.5l8.4-12.1   c-7.1-4.5-13.1-7-23.6-7c-14.8,0-24.7,8.3-24.7,20.6c0,12.6,10.7,16.5,19.6,19.7c6.2,2.2,11.6,4.1,11.6,8.5c0,3.4-3.4,6-8.3,6   c-5.7,0-11.3-2-17.5-6.2l-8.4,12.1c7.5,5.5,16.5,8.6,25.8,8.8c15.9,0,27.1-8.4,27.1-20.5C203.4,73.1,192.6,68.7,183.6,65.3z"
       id="path9" /><path
       class="st0"
       d="M311.5,46.6l-1.1-1.2c-4.4-4.7-11.7-7.5-19.6-7.5c-18.9,0-33.6,15.3-33.6,34.7c0,19.7,14.5,34.6,33.6,34.6   c7.9,0,14.9-2.8,19.5-8l1.1-1.2v7.6l17.2-0.1V39.8h-17.2V46.6z M312.3,72.5c0.2,10.3-8,18.9-18.4,19.1c0,0,0,0,0,0h-0.4v0   c-10.5,0.2-19.2-8.3-19.3-18.8c-0.2-10.5,8.3-19.2,18.8-19.3c10.5-0.2,19.2,8.3,19.3,18.8C312.3,72.3,312.3,72.4,312.3,72.5z"
       id="path11" /><path
       class="st0"
       d="M450.5,71.3c0-23.1-15.7-33.5-31.2-33.5c-19.5,0-33,14.3-33,34.8s14,34.6,34.2,34.6c10.1,0,20.5-4.6,26.6-11.7   l-9.6-9.8c-2.2,2.3-8.2,7.6-16.6,7.6c-9.3,0-16.4-6.4-17.7-15.5l-0.1-0.6h47C450.4,75.2,450.5,73.3,450.5,71.3z M403.4,65l0.3-0.8   c2.3-7.8,7.9-12.4,15.6-12.4c7.2,0,13.2,5.4,14,12.5l0.1,0.7H403.4z"
       id="path13" /><rect
       x="96.8"
       y="20.4"
       class="st0"
       width="17.3"
       height="85.2"
       id="rect15" /><rect
       x="126.1"
       y="20.4"
       class="st0"
       width="17.3"
       height="85.2"
       id="rect17" /><path
       class="st0"
       d="M0,105.5h20.6l13.4-19.6h33.5v19.6h17.3V20.4H61.4L0,105.5z M67.6,71.2H44.1l23.5-34.3V71.2z"
       id="path19" /><path
       class="st0"
       d="M244.2,91.4c-4.1,0-10.9-1.6-10.9-12.3V54.5h19.8l5-14.7h-24.8V20.4H216v19.4h-9v14.7h8.9l0,25.9   c0,17.6,8.8,26.9,25.3,26.9c5.6,0.1,11.2-1.2,16.2-3.6l-4.9-14.3C249.9,90.7,247.1,91.4,244.2,91.4z"
       id="path21" /><path
       class="st0"
       d="M373.3,91.4c-4.1,0-10.9-1.6-10.9-12.3V54.5h19.8l5-14.7h-24.8V20.4H345v19.4h-9v14.7h8.9l0,25.9   c0,17.6,8.8,26.9,25.3,26.9c5.6,0.1,11.2-1.2,16.2-3.6l-4.9-14.3C379,90.7,376.2,91.4,373.3,91.4z"
       id="path23" /><path
       class="st0"
       d="M537.5,0c-35.3,0-63.9,28.6-63.9,63.9c0,35.3,28.6,63.9,63.9,63.9c35.3,0,63.9-28.6,63.9-63.9   C601.3,28.6,572.7,0,537.5,0z M586,28.1c-2.3,4-3.8,7.2-4.7,9c-0.1,0.1-0.2,0.1-0.3,0.1l-0.1-0.1c-1.2-1.4-2.7-2.6-4.3-3.5   c-0.1,0-0.2,0-0.2,0c0,0.1,0,0.1,0,0.2c2.7,3.5,4.9,7.4,6.4,11.6c0.9,2.5,2.7,9,2.8,11.8c0,2.2-0.3,4.3-0.8,6.5   c-0.1,0.4-0.9,5.2-1.4,9.5c-0.3,2.1-2.7,5.7-3.1,6.5c-1.3,2.9-3.4,8.5-4.4,9.6c-1.2,1.3-2.9-0.6-3.8-2.8c-0.8-2.2-1-4.6-0.4-6.8   c0.8-3.3,0.2-5,0-8.7c0-2,0.3-4.1,0.9-6c0.3-1,0.2-1.3-0.4-1.5c-5.1-2-9.9-8.6-11.3-10.8c0-0.1-0.1-0.1-0.2,0   c-0.1,0-0.1,0.1-0.1,0.2c1.6,5.9,5.6,11.1,7.6,13.7c0.1,0.2,0.2,0.4,0.2,0.6c-0.2,1.8-0.3,3.6-0.2,5.4c0.3,2.1,0.5,4.2,0.5,6.4   c-0.1,2.3-0.7,4.6-1.8,6.6c-0.9,1.8-3.6,8.9-5.7,12.2c-1.3,2.3-3.2,4.3-5.5,5.6c-3.4,2-6.9,3.7-10.5,5.1c-2.4,0.9-4.9,1.7-7.4,2.2   c-2,0.2-2.8-1.6-1.9-4.2c2.7,0.3,6.2,1,8.8,0.3c1.4-0.2,2.5-1.2,2.9-2.6c0.1-0.3,0.2-1.4,0.3-1.7c0-0.1,0.1-0.1,0.1-0.1l1.2-0.1   c0.9-0.1,1.8-0.2,2.7-0.3c2-0.4,3.2-1.2,3.6-2.9c0.1-0.4,0.4-0.7,1-0.9c1.4-0.4,2.6-1.4,3.2-2.8c0.6-1.5,0.6-3.1,0.1-4.6   c-0.3-0.5-0.2-1.2,0.3-1.6c1.1-1.4,1.9-3.4-0.2-6.8c-1-1.5-2.2-2.7-3.7-3.7c1.6,0.1,3.2,0,4.8-0.5c0.1,0,0.2-0.1,0.2-0.2   c0-0.1-0.1-0.1-0.2-0.1c-3.4-0.6-6.6-1.9-9.5-3.7c-2.2-1.3-4-3.2-5-5.6c-0.9-2.5-1.9-5-2.9-7.5c-0.3-0.7-1.1-2.7-1.2-3   c-0.4-0.8-0.7-1.7-0.8-2.7c0,0-0.4-5-0.7-6.7c-0.3-1.9-1.5-6.2-1.7-7.2c-0.2-0.9,0-1.9,0.5-2.7c1.9-3.5,4.3-6.7,7-9.6   c2.6-2.5,7.9-4,14.9-5c0.1,0,0.1-0.1,0.1-0.1s-0.1-0.1-0.1-0.1c-2.3-0.7-4.6-0.9-7-0.7c-0.1,0-0.2-0.1-0.2-0.2c0,0,0,0,0-0.1   l4.4-15.5C569.6,11.5,579.1,18.7,586,28.1z M554.2,5.9c-1.1,4.8-2.7,12.5-3.8,17.2c-0.1,0.3-0.4,0.6-0.7,0.7   c-7,2.3-9.4,7.1-12.7,11.3c-3.6-6.8-7.5-9.2-10.3-10.8c-0.6-0.3-1.1-0.8-1.4-1.4c-0.9-2.8-4.1-11.5-5.9-16.5   C530.7,2.8,542.8,2.6,554.2,5.9z M515.4,7.7l5.3,13.9c0,0.1,0,0.2-0.1,0.2c0,0,0,0,0,0h-0.1c-2.3-0.3-4.7-0.1-7,0.5   c-0.1,0-0.2,0.1-0.2,0.2c0,0.1,0.1,0.2,0.2,0.2c2.8,0.4,5.6,1.1,8.2,2.1c4.6,1.7,9.9,7.4,12.9,13.7c1.7,3.9,2.8,8,3.2,12.3   c0.1,3.4,0.5,6.9,1.1,8.3c1.8,4.1,3.6,7.6,4.9,12c0.4,1.6,1.5,3,2.9,3.9c3.6,2.9,5.7,4,9.3,7c2.5,2.1,2,5.8,0.7,5.1   c-0.2-0.1-3.1-1.5-3.8-1.8c-3.7-1.7-7.5-4.9-9.4-6.2s-4.1-2.9-5.3-5.3c-0.4-0.8-2-3.8-2.6-4.9c-0.9-2,0.3-3.8,0.8-5.5   c0-0.1,0-0.2-0.1-0.2c-0.1,0-0.1,0-0.2,0c-1.4,1.5-2.9,3-4.4,4.3c0,0.1,0,0.1,0,0.2c1.4,3.2,3.1,6.2,5.1,9.1   c1.1,1.8,2.7,3.2,4.5,4.2c2.2,1.3,6.3,4.9,9.8,6.6c1.7,0.7,3.3,1.6,4.6,2.8c0.8,0.8,1.2,2,1.1,3.1c-0.2,1.1-1.5,2.3-1.9,1.7   c-1.3-2.5-3.5-4.3-6.2-5.1c-3-1.1-5.7-1.2-8.2-2.6c-1.3-0.8-6.7-4.3-8.1-5.4c-2.3-1.8-3.7-5.4-4.3-6.7c-0.5-1-0.5-2.1,0-3.1   c0.3-0.7,0.6-1.5,1-2.2c0-0.1,0-0.2-0.1-0.2c0,0-0.1,0-0.1,0c-1.6,1.3-3.3,2.5-5.1,3.7c-0.1,0-0.1,0.1-0.1,0.2   c1,2.1,2.8,5.1,4.4,7.9c1,2,2.7,3.6,4.7,4.6c2.4,1.3,5.2,3.4,6.8,4.2c2.1,0.8,4.2,1.4,6.3,1.9c2.1,0.5,4,1.7,5.3,3.4   c0.8,0.9,1.2,3-0.1,3.4c-1.3,0.4-2.6,0.6-3.9,0.5c-0.5,0-1-0.6-1.5-1.1c-2.2-2.4-5.7-3.1-9.2-3.7c-1.4-0.2-2.8-0.8-3.8-1.8   c-1.3-1-6.2-3.6-7.9-4.8c-1-0.7-4-5.5-4.9-7.3c-0.5-0.9,0-2.7,0.6-4c0.1-0.3,0.5-0.9,0.7-1.4c0-0.1,0-0.2-0.1-0.2c0,0-0.1,0-0.1,0   c-1.9,1.2-3.9,2.4-5.8,3.4c-0.1,0-0.1,0.2-0.1,0.3c0,0,0,0,0,0l6.8,10.5c0.4,0.8,1.1,1.4,1.8,1.8c2.9,1.3,5.7,2.9,8.1,5   c1.5,1.3,2.2,1.4,4.1,1.5c2.9,0,5.7,1.4,7.5,3.8c0.6,0.6,0.5,1.5-0.1,2.1c-0.1,0.1-0.3,0.2-0.5,0.3c-2.5,0.7-12-0.1-19.5-3.5   c-6.7-3.2-12.5-7.9-17-13.8c-0.6-0.8-0.8-1.3-0.7-1.7c0.7-2.6,0.8-5.3,0.4-8v-0.3c-0.1-0.6-0.1-1.2,0-1.8c0.6-2.3,0.7-4.7,0.5-7.1   c0-1.4,0.1-2.8,0.3-4.2c0-0.2,0.1-0.4,0.2-0.6c2.4-3,4.4-6.4,5.7-10c0-0.1,0-0.2-0.1-0.2c-0.1,0-0.2,0-0.2,0.1   c-0.9,1.1-2.3,3.1-3.2,4.1c-2,2.3-4.4,4.3-7,5.9c-0.3,0.2-0.5,0.5-0.4,0.8c0.4,1.4,0.7,2.8,0.8,4.3c0.2,2.3,0,4.6-0.5,6.8   c-0.1,0.3-0.1,0.7-0.1,1c0.1,0.6,0.2,1.2,0.4,1.7s0.3,1.3,0.4,2c0.5,2.2,0.1,4.4-1,6.3c-0.4,0.6-1,0.9-1.7,0.9   c-0.8,0-1.1-0.7-1.3-1.2c-1.5-3.6-3.3-7.1-5.6-10.3c-1.1-1.5-1.9-3.1-2.3-4.9c-0.3-1.6-1-6.3-1.2-7.9c-0.4-2.2-0.6-4.4-0.6-6.6   c0.5-4.1,1.9-8,3.9-11.6c1.1-2.2,2.4-4.4,3.9-6.5c1.4-2,2.4-3.3,3-4c0.1-0.1,0.1-0.2,0-0.3c-0.1-0.1-0.2-0.1-0.2,0   c-1.5,0.9-2.9,2.1-4.1,3.4c-0.1,0.1-0.2,0.1-0.3,0c-2-3-4.2-5.8-6.6-8.6C495.6,19.1,504.8,12,515.4,7.7z M531.7,105.9   c-2,1.3-4.1,2.4-5.6,1.8c-1.5-0.7-1.3-3.6-1.3-3.6C527,104.9,529.3,105.5,531.7,105.9z M520.5,102.2c0,0-1.9,1.4-3.7,0.5   c-1.3-0.7-0.7-3.1-0.7-3.1C517.4,100.7,518.9,101.6,520.5,102.2z M569.4,115c-9.6,6-20.7,9.2-32,9.2l0,0   c-33.3,0-60.3-26.9-60.3-60.2c0-11.5,3.3-22.7,9.4-32.4c2.2,2.4,4.3,4.9,6.2,7.5c0.2,0.3,0.2,0.8,0,1.1c-1.6,2.4-3,5-4.3,7.6   c-1.4,3-2.6,7-2.1,10.1c0.3,1.9,1,7.9,1.4,11.2c0.3,2.1,0.3,3.2,2.5,6.5c2,3,4,6.9,7.4,14.1c0.5,1.3,1.9,2,3.2,1.5   c1.4-0.4,2.5-1.3,3.4-2.5c2.6,3.4,5.7,6.4,9.1,9.1c-0.7,2.7-0.4,6.2,1.7,7.5s5.6,0.1,6.5-0.2c0.1,0,0.2,0,0.2,0.1c0,0,0,0,0,0.1   c0.1,3.1,1.3,4.8,3.2,5.4c1.8,0.4,3.6,0.3,5.3-0.4c0.6-0.2,1.1-0.5,1.7-0.8c0.1,0,0.1,0,0.2,0c0,0,0,0,0,0.1   c0.1,1.2,0.6,2.4,1.4,3.2c1.1,1,2.6,1.4,4,1.1c3.7-0.5,8.5-2.4,11.9-3.7c3.4-1.5,6.6-3.3,9.8-5.2c3.5-2.1,5.6-6.7,7.8-11.2l2.2-4.7   c0.9,1.6,2.1,3.1,3.5,4.3c1.3,1.3,3.4,1.3,4.8,0c0.1-0.1,0.3-0.3,0.4-0.5c1.1-1.8,3.5-8.7,4.9-10.8c0.5-0.8,3.4-5.6,3.6-7.7   c0.3-3.5,1.1-9.5,1.5-11.1c0.8-3,0.9-6.2,0.4-9.3c-0.9-4.4-2.3-8.6-4.3-12.7c-0.2-0.4,0-0.8,0.3-1.6c0.1-0.2,2.4-4.1,4.5-7.8   C606.3,60.2,597.7,97.4,569.4,115z"
       id="path29" /></g></svg>