<?xml version="1.0" encoding="UTF-8" standalone="no"?>
<!-- Created with Inkscape (http://www.inkscape.org/) -->

<svg
   xmlns:dc="http://purl.org/dc/elements/1.1/"
   xmlns:cc="http://creativecommons.org/ns#"
   xmlns:rdf="http://www.w3.org/1999/02/22-rdf-syntax-ns#"
   xmlns:svg="http://www.w3.org/2000/svg"
   xmlns="http://www.w3.org/2000/svg"
   xmlns:sodipodi="http://sodipodi.sourceforge.net/DTD/sodipodi-0.dtd"
   xmlns:inkscape="http://www.inkscape.org/namespaces/inkscape"
   id="svg4642"
   version="1.1"
   inkscape:version="0.48.0 r9654"
   width="490.04999"
   height="72.804161"
   sodipodi:docname="alexion.svg">
  <metadata
     id="metadata4648">
    <rdf:RDF>
      <cc:Work
         rdf:about="">
        <dc:format>image/svg+xml</dc:format>
        <dc:type
           rdf:resource="http://purl.org/dc/dcmitype/StillImage" />
        <dc:title></dc:title>
      </cc:Work>
    </rdf:RDF>
  </metadata>
  <defs
     id="defs4646">
    <clipPath
       clipPathUnits="userSpaceOnUse"
       id="clipPath3245">
      <path
         inkscape:connector-curvature="0"
         d="m 1472.11,826.5 219.89,0 0,-38.123 -219.89,0 0,38.123 z"
         id="path3247" />
    </clipPath>
    <clipPath
       clipPathUnits="userSpaceOnUse"
       id="clipPath3179">
      <path
         inkscape:connector-curvature="0"
         d="m 1472.11,826.5 219.89,0 0,-38.123 -219.89,0 0,38.123 z"
         id="path3181" />
    </clipPath>
  </defs>
  <sodipodi:namedview
     pagecolor="#ffffff"
     bordercolor="#666666"
     borderopacity="1"
     objecttolerance="10"
     gridtolerance="10"
     guidetolerance="10"
     inkscape:pageopacity="0"
     inkscape:pageshadow="2"
     inkscape:window-width="1285"
     inkscape:window-height="746"
     id="namedview4644"
     showgrid="false"
     showborder="false"
     inkscape:showpageshadow="false"
     fit-margin-top="0"
     fit-margin-left="0"
     fit-margin-right="0"
     fit-margin-bottom="0"
     inkscape:zoom="1"
     inkscape:cx="324.77829"
     inkscape:cy="22.231651"
     inkscape:window-x="-8"
     inkscape:window-y="-8"
     inkscape:window-maximized="1"
     inkscape:current-layer="svg4642" />
  <g
     id="g3143"
     transform="matrix(3.025,0,0,-3.0250001,151.64326,66.639177)"
     style="fill:#002898;fill-opacity:1">
    <path
       inkscape:connector-curvature="0"
       d="m 0,0 -14.17,0 0,12.425 -3.31,0 0,-14.463 17.48,0"
       style="fill:#002898;fill-opacity:1;fill-rule:nonzero;stroke:none"
       id="path3145" />
  </g>
  <g
     id="g3147"
     transform="matrix(3.025,0,0,-3.0250001,164.77176,72.801102)"
     style="fill:#002898;fill-opacity:1">
    <path
       inkscape:connector-curvature="0"
       d="m 0,0 0,14.463 18.64,0 0,-2.039 -15.33,0 0,-3.885 9.13,0 0,-2.01 -9.13,0 0,-4.491 15.54,0 0,-2.038"
       style="fill:#002898;fill-opacity:1;fill-rule:nonzero;stroke:none"
       id="path3149" />
  </g>
  <g
     id="g3151"
     transform="matrix(3.025,0,0,-3.0250001,284.5315,72.801102)"
     style="fill:#002898;fill-opacity:1">
    <path
       inkscape:connector-curvature="0"
       d="M 0,0 -7.64,6.033 -15.25,0 l -3.76,0 9.47,7.492 -8.89,6.971 4.09,0 6.86,-5.427 6.78,5.427 3.76,0 L -5.62,7.631 4.09,0"
       style="fill:#002898;fill-opacity:1;fill-rule:nonzero;stroke:none"
       id="path3153" />
  </g>
  <path
     inkscape:connector-curvature="0"
     d="m 307.79375,72.804127 9.9825,0 0,-43.750576 -9.9825,0 0,43.750576 z"
     style="fill:#002898;fill-opacity:1;fill-rule:nonzero;stroke:none"
     id="path3155" />
  <path
     inkscape:connector-curvature="0"
     d="m 393.6735,35.218502 -45.254,0 0,31.420675 45.254,0 0,-31.420675 z m 0.75625,37.585625 -46.7665,0 c -4.87025,0 -9.3775,-2.913075 -9.3775,-6.0863 l 0,-31.584025 c 0,-3.161125 4.50725,-6.083276 9.3775,-6.083276 l 46.7665,0 c 4.87025,0 9.3775,2.922151 9.3775,6.083276 l 0,31.584025 c 0,3.173225 -4.50725,6.0863 -9.3775,6.0863"
     style="fill:#002898;fill-opacity:1;fill-rule:nonzero;stroke:none"
     id="path3157" />
  <g
     id="g3159"
     transform="matrix(3.025,0,0,-3.0250001,481.943,72.801102)"
     style="fill:#002898;fill-opacity:1">
    <path
       inkscape:connector-curvature="0"
       d="m 0,0 -15.79,10.937 0,-10.937 -3.27,0 0,14.463 2.69,0 15.79,-10.91 0,10.91 3.26,0 L 2.68,0"
       style="fill:#002898;fill-opacity:1;fill-rule:nonzero;stroke:none"
       id="path3161" />
  </g>
  <g
     id="g3167"
     transform="matrix(3.025,0,0,-3.0250001,47.70425,9.3820079)"
     style="fill:#002898;fill-opacity:1">
    <path
       inkscape:connector-curvature="0"
       d="m 0,0 -15.77,-20.966 4.02,0 11.75,18.077 11.75,-18.077 4.02,0"
       style="fill:#002898;fill-opacity:1;fill-rule:nonzero;stroke:none"
       id="path3169" />
  </g>
  <g
     id="g3171"
     transform="matrix(3.025,0,0,-3.0250001,323.8565,5.9606715)"
     style="fill:#d4004b;fill-opacity:1">
    <path
       inkscape:connector-curvature="0"
       d="M 0,0 C -0.02,0.047 -0.08,0.064 -0.12,0.042 L -0.13,0.04 C -0.32,-0.05 -2.05,-0.842 -3.66,-0.842 -5.28,-0.842 -7,-0.049 -7.19,0.04 -7.2,0.042 -7.2,0.041 -7.2,0.043 L -7.21,0.047 C -7.22,0.052 -7.24,0.042 -7.25,0.038 -7.28,0.031 -7.3,0.025 -7.32,0.003 c 0,-0.004 0,-0.008 0,-0.011 0,-10e-4 0,-10e-4 0,-10e-4 0,-0.007 0,-0.016 0,-0.023 0,-0.005 -0.01,-0.008 -0.01,-0.012 0,-0.03 0.02,-0.058 0.04,-0.076 0.02,-0.011 1.69,-1.148 2.53,-2.618 0.83,-1.435 1,-3.42 1.01,-3.503 0,-0.049 0.04,-0.083 0.09,-0.083 0.05,0 0.09,0.038 0.09,0.087 0.02,0.211 0.2,2.107 1,3.499 0.84,1.455 2.52,2.607 2.53,2.617 0.03,0.016 0.04,0.044 0.04,0.072 0.01,0.002 0.01,0.004 0.01,0.008 0,0.013 0,0.027 -0.01,0.041"
       style="fill:#d4004b;fill-opacity:1;fill-rule:nonzero;stroke:none"
       id="path3173" />
  </g>
  <g
     transform="matrix(3.025,0,0,-3.0250001,-4453.133,2500.1612)"
     id="g3175"
     style="fill:#002898;fill-opacity:1">
    <g
       id="g3177"
       clip-path="url(#clipPath3179)"
       style="fill:#002898;fill-opacity:1">
      <g
         id="g3183"
         transform="translate(1570.61,824.741)"
         style="fill:#002898;fill-opacity:1">
        <path
           inkscape:connector-curvature="0"
           d="m 0,0 c -49.17,7.786 -89.02,-12.792 -89.42,-13.019 -0.03,-0.034 -3.52,-4.94 -3.52,-4.94 -0.02,-0.036 -0.13,-0.252 -0.09,-0.28 0.03,-0.031 0.24,-0.119 0.28,-0.095 0.43,0.276 43.62,25.926 92.72,18.151 0.05,-0.007 0.1,0.026 0.1,0.077 0,0.006 0.01,0.009 0.01,0.015 C 0.08,-0.047 0.04,-0.007 0,0"
           style="fill:#002898;fill-opacity:1;fill-rule:nonzero;stroke:none"
           id="path3185" />
      </g>
    </g>
  </g>
</svg>
