<?xml version="1.0" encoding="utf-8"?>
<!-- Generator: Adobe Illustrator 13.0.0, SVG Export Plug-In . SVG Version: 6.00 Build 14948)  -->
<!DOCTYPE svg PUBLIC "-//W3C//DTD SVG 1.1//EN" "http://www.w3.org/Graphics/SVG/1.1/DTD/svg11.dtd">
<svg version="1.1" id="Layer_1" xmlns="http://www.w3.org/2000/svg" xmlns:xlink="http://www.w3.org/1999/xlink" x="0px" y="0px"
	 width="178.791px" height="45.092px" viewBox="0 0 178.791 45.092" enable-background="new 0 0 178.791 45.092"
	 xml:space="preserve">
<path fill="#569BBE" d="M29.242,6.267L9.271,6.25L6.182,9.372l23.06,0.012c3.525,0,6.373,2.796,6.373,6.241v29.239h3.197
	l0.01-29.239C38.822,10.456,34.532,6.267,29.242,6.267z M45.215,44.864l-0.003-29.239c0-8.612-7.151-15.623-15.971-15.623L15.448,0
	L12.36,3.122l16.882,0.004c7.054,0,12.772,5.608,12.772,12.499v29.239H45.215z M29.242,12.505L3.098,12.499L0,15.619h0.042L0,15.625
	l0.001,13.621c0,7.944,6.054,14.521,13.924,15.5l2.951-2.997l-0.903-0.005c-7.057,0-12.777-5.61-12.777-12.498V15.62h3.202
	L6.39,29.246c0,5.164,4.29,9.355,9.583,9.355h4.012l3.084-3.119h-7.096c-3.527,0-6.374-2.794-6.374-6.236V15.62h3.169l0.003,13.626
	c0.01,1.722,1.436,3.113,3.201,3.113h10.179l3.08-3.11l-13.259-0.003V15.622l13.269,0.003v29.239h3.203l-0.001-29.239
	C32.433,13.9,31.006,12.505,29.242,12.505z"/>
<path fill="#569BBE" d="M136.111,23.418v-6.101h10.09h0.276v-0.272v-1.954v-0.274h-0.276h-10.09V8.88h11.313h0.274V8.606V6.65V6.377
	h-0.274h-13.731h-0.275V6.65v18.997v0.271h0.275h13.866h0.274v-0.271v-1.955v-0.274h-0.274H136.111z M67.86,30.171h-0.146
	l-0.08,0.122l-4.936,7.392l-4.935-7.392l-0.081-0.122h-0.146h-1.62h-0.273v0.274v14.17v0.274h0.273h1.56h0.274v-0.274V34.046
	l4.661,6.838l0.081,0.118h0.146h0.082h0.144l0.081-0.118l4.662-6.855v10.587v0.274h0.274h1.599h0.274v-0.274v-14.17v-0.274H69.48
	H67.86z M150.291,42.864V30.445v-0.274h-0.272h-1.599h-0.273v0.274v14.17v0.274h0.273h7.188h0.275v-0.274v-1.477v-0.274h-0.275
	H150.291z M57.346,25.919l0.073-0.16l2.179-4.858h9.984l2.153,4.857l0.071,0.161h0.18h2.305h0.425l-0.176-0.385L65.885,6.403
	l-0.071-0.161h-0.178h-2.008h-0.178l-0.072,0.161l-8.657,19.131l-0.176,0.385h0.427h2.197H57.346z M64.605,9.683l3.894,8.743h-7.813
	L64.605,9.683z M79.638,25.919h0.272v-0.271v-6.43h4.341c3.851,0,7.736-2.006,7.736-6.488v-0.055c0-3.825-2.898-6.298-7.385-6.298
	h-7.108H77.22V6.65v18.997v0.271h0.274H79.638z M79.911,8.905h4.53c3.068,0,4.828,1.404,4.828,3.852v0.055
	c0,2.371-1.938,3.904-4.938,3.904h-4.421V8.905z M129.206,25.919v-0.271V6.65V6.377h-0.272h-2.145h-0.275V6.65v18.997v0.271h0.275
	h2.145H129.206z M163.66,36.492c-3.07-0.658-3.632-1.353-3.632-2.484v-0.04c0-1.186,1.128-2.014,2.743-2.014
	c1.437,0,2.681,0.47,3.916,1.477l0.22,0.181l0.174-0.228l0.93-1.234l0.16-0.212l-0.208-0.167c-1.571-1.263-3.111-1.802-5.15-1.802
	c-2.855,0-4.931,1.742-4.931,4.142v0.04c0,2.72,1.988,3.708,4.974,4.356c2.932,0.617,3.469,1.302,3.469,2.424v0.04
	c0,1.277-1.159,2.136-2.885,2.136c-1.801,0-3.155-0.56-4.675-1.934l-0.211-0.188l-0.184,0.215l-0.991,1.176l-0.17,0.202l0.198,0.179
	c1.785,1.593,3.683,2.336,5.973,2.336c3.009,0,5.111-1.76,5.111-4.281v-0.042C168.491,38.511,167.046,37.232,163.66,36.492z
	 M158.01,25.919c6.01,0,10.369-4.106,10.369-9.771v-0.054c0-5.631-4.359-9.718-10.369-9.718h-6.593h-0.274V6.65v18.997v0.271h0.274
	H158.01z M153.835,8.905h4.175c4.473,0,7.598,2.979,7.598,7.243v0.055c0,4.232-3.125,7.188-7.598,7.188h-4.175V8.905z
	 M80.319,30.231l-0.074-0.161h-0.176h-1.5h-0.176l-0.073,0.161l-6.458,14.271l-0.174,0.387h0.425h1.639h0.177l0.074-0.162
	l1.605-3.583h7.359l1.586,3.582l0.073,0.163h0.177h1.722h0.425l-0.176-0.387L80.319,30.231z M76.483,39.159l2.813-6.281l2.799,6.281
	H76.483z M123.459,25.919v-0.271v-1.981v-0.274h-0.272h-8.314V6.65V6.377h-0.273h-2.145h-0.274V6.65v18.997v0.271h0.274h10.732
	H123.459z M120.216,38.99c2.288-0.563,3.653-2.136,3.653-4.294v-0.04c0-1.171-0.417-2.231-1.174-2.987
	c-0.965-0.966-2.465-1.498-4.223-1.498h-6.094h-0.272v0.274v14.17v0.274h0.272h1.601h0.272v-0.274v-5.232h3.637l4.03,5.396
	l0.082,0.11h0.137h1.964h0.549l-0.331-0.439L120.216,38.99z M114.252,37.397v-5.199h4.1c2.13,0,3.351,0.917,3.351,2.52v0.04
	c0,1.604-1.322,2.64-3.37,2.64H114.252z M100.669,42.885v-4.411h7.457h0.276v-0.275v-1.457v-0.275h-0.276h-7.457v-4.288h8.368h0.275
	v-0.275v-1.457v-0.274h-0.275H98.796h-0.274v0.274v14.17v0.274h0.274h10.345h0.273v-0.274v-1.457v-0.273h-0.273H100.669z
	 M127.076,30.171H126.8v0.274v14.17v0.274h0.275h1.598h0.275v-0.274v-14.17v-0.274h-0.275H127.076z M109.507,12.729v-0.055
	c0-3.825-2.898-6.298-7.384-6.298h-7.108H94.74V6.65v18.997v0.271h0.275h2.143h0.274v-0.271v-6.43h4.339
	C105.622,19.218,109.507,17.212,109.507,12.729z M97.432,8.905h4.528c3.067,0,4.828,1.404,4.828,3.852v0.055
	c0,2.371-1.938,3.904-4.937,3.904h-4.42V8.905z M84.927,30.171h-0.272v0.274v1.477v0.276h0.272h4.483v12.417v0.274h0.273h1.624
	h0.276v-0.274V32.198h4.482h0.273v-0.276v-1.477v-0.274h-0.273H84.927z M139.579,30.231l-0.074-0.161h-0.174h-1.499h-0.177
	l-0.071,0.161l-6.458,14.271l-0.176,0.387h0.426h1.638h0.176l0.075-0.162l1.605-3.583h7.359l1.588,3.582l0.071,0.163h0.179h1.721
	h0.425l-0.176-0.387L139.579,30.231z M135.745,39.159l2.813-6.281l2.799,6.281H135.745z"/>
<g>
	<path fill="#569BBE" d="M171.924,41.662v-0.021c0-1.867,1.517-3.43,3.443-3.43c1.923,0,3.423,1.544,3.423,3.414v0.016
		c0,1.869-1.519,3.437-3.442,3.437C173.423,45.077,171.924,43.532,171.924,41.662z M178.478,41.641v-0.016
		c0-1.718-1.338-3.12-3.11-3.12c-1.784,0-3.132,1.421-3.132,3.136v0.021c0,1.715,1.338,3.117,3.112,3.117
		C177.129,44.779,178.478,43.358,178.478,41.641z M174.01,39.784h1.575c0.445,0,0.813,0.142,1.042,0.37
		c0.172,0.16,0.284,0.399,0.284,0.68v0.021c0,0.569-0.381,0.908-0.908,1.032l1.09,1.415h-0.646l-1.014-1.328h-0.019h-0.884v1.328
		h-0.521V39.784z M175.536,41.508c0.495,0,0.839-0.225,0.839-0.624v-0.018c0-0.371-0.305-0.61-0.807-0.61h-1.036v1.252H175.536z"/>
</g>
</svg>
