<?xml version="1.0" encoding="UTF-8" standalone="no"?>
<!-- Created with Inkscape (http://www.inkscape.org/) -->

<svg
   xmlns:dc="http://purl.org/dc/elements/1.1/"
   xmlns:cc="http://creativecommons.org/ns#"
   xmlns:rdf="http://www.w3.org/1999/02/22-rdf-syntax-ns#"
   xmlns:svg="http://www.w3.org/2000/svg"
   xmlns="http://www.w3.org/2000/svg"
   xmlns:sodipodi="http://sodipodi.sourceforge.net/DTD/sodipodi-0.dtd"
   xmlns:inkscape="http://www.inkscape.org/namespaces/inkscape"
   width="250.07501"
   height="40.599998"
   viewBox="0 0 250.07501 40.599999"
   id="svg5843"
   version="1.1"
   inkscape:version="0.91 r13725"
   sodipodi:docname="amatek.svg">
  <defs
     id="defs5845">
    <clipPath
       id="clipPath5721"
       clipPathUnits="userSpaceOnUse">
      <path
         style="clip-rule:evenodd"
         inkscape:connector-curvature="0"
         id="path5723"
         d="m 215.4,179.4 198.78,0 0,-30.78 -198.78,0 0,30.78 z" />
    </clipPath>
    <clipPath
       id="clipPath5727"
       clipPathUnits="userSpaceOnUse">
      <path
         inkscape:connector-curvature="0"
         id="path5729"
         d="m 0,792.03 612,0 0,-792 -612,0 0,792 z" />
    </clipPath>
  </defs>
  <sodipodi:namedview
     id="base"
     pagecolor="#ffffff"
     bordercolor="#666666"
     borderopacity="1.0"
     inkscape:pageopacity="0.0"
     inkscape:pageshadow="2"
     inkscape:zoom="3.3518519"
     inkscape:cx="127.47241"
     inkscape:cy="-39.738782"
     inkscape:document-units="px"
     inkscape:current-layer="layer1"
     showgrid="false"
     fit-margin-top="0"
     fit-margin-left="0"
     fit-margin-right="0"
     fit-margin-bottom="0"
     units="px"
     inkscape:window-width="1280"
     inkscape:window-height="744"
     inkscape:window-x="-4"
     inkscape:window-y="-4"
     inkscape:window-maximized="1" />
  <metadata
     id="metadata5848">
    <rdf:RDF>
      <cc:Work
         rdf:about="">
        <dc:format>image/svg+xml</dc:format>
        <dc:type
           rdf:resource="http://purl.org/dc/dcmitype/StillImage" />
        <dc:title></dc:title>
      </cc:Work>
    </rdf:RDF>
  </metadata>
  <g
     inkscape:label="Layer 1"
     inkscape:groupmode="layer"
     id="layer1"
     transform="translate(-227.19107,-700.69612)">
    <g
       id="g5980"
       transform="translate(0.5000061,-0.50001076)">
      <path
         inkscape:connector-curvature="0"
         id="path5733"
         style="fill:#ec2227;fill-opacity:1;fill-rule:evenodd;stroke:none"
         d="m 234.09107,728.69613 13.875,0 -7.125,12.525 -13.65,0 6.9,-12.525" />
      <g
         id="g5735"
         transform="matrix(1.25,0,0,-1.25,248.49107,701.69613)">
        <path
           d="m 0,0 17.88,-31.56 -12.48,0 -11.64,20.4 L 0,0"
           style="fill:#000000;fill-opacity:1;fill-rule:evenodd;stroke:none"
           id="path5737"
           inkscape:connector-curvature="0" />
      </g>
      <g
         id="g5739"
         transform="matrix(1.25,0,0,-1.25,270.76607,705.14613)">
        <path
           d="M 0,0 13.98,0 20.4,-14.34 27,0 l 14.16,0 0,-28.8 -10.32,0 0,13.08 -6.06,-13.2 -8.52,0 -5.88,13.2 0,-13.08 L 0,-28.8 0,0"
           style="fill:#000000;fill-opacity:1;fill-rule:evenodd;stroke:none"
           id="path5741"
           inkscape:connector-curvature="0" />
      </g>
      <g
         id="g5743"
         transform="matrix(1.25,0,0,-1.25,326.19107,705.07113)">
        <path
           d="m 0,0 26.04,0 0,-7.74 -15.6,0 0,-2.04 15.6,0 0,-7.38 -15.6,0 0,-3.54 15.6,0 0,-8.16 L 0,-28.86 0,0"
           style="fill:#000000;fill-opacity:1;fill-rule:evenodd;stroke:none"
           id="path5745"
           inkscape:connector-curvature="0" />
      </g>
      <g
         id="g5747"
         transform="matrix(1.25,0,0,-1.25,401.49107,705.14613)">
        <path
           d="m 0,0 26.16,0 0,-7.68 -15.66,0 0,-2.04 15.66,0 0,-7.44 -15.66,0 0,-3.54 15.66,0 0,-8.1 L 0,-28.8 0,0"
           style="fill:#000000;fill-opacity:1;fill-rule:evenodd;stroke:none"
           id="path5749"
           inkscape:connector-curvature="0" />
      </g>
      <g
         id="g5751"
         transform="matrix(1.25,0,0,-1.25,361.06607,705.07113)">
        <path
           d="m 0,0 30.36,0 0,-7.68 -10.02,0 0,-21.12 -10.44,0 0,21.12 -9.9,0 L 0,0"
           style="fill:#000000;fill-opacity:1;fill-rule:evenodd;stroke:none"
           id="path5753"
           inkscape:connector-curvature="0" />
      </g>
      <g
         id="g5755"
         transform="matrix(1.25,0,0,-1.25,437.79107,705.07113)">
        <path
           d="m 0,0 10.86,0 0,-7.92 L 17.94,0 29.58,0 19.2,-11.52 30.78,-28.8 l -13.08,0 -5.64,9.6 -1.2,-1.5 0,-8.1 L 0,-28.8 0,0"
           style="fill:#000000;fill-opacity:1;fill-rule:evenodd;stroke:none"
           id="path5757"
           inkscape:connector-curvature="0" />
      </g>
    </g>
  </g>
</svg>
