<?xml version="1.0" encoding="UTF-8" standalone="no"?>
<!-- Created with Inkscape (http://www.inkscape.org/) -->

<svg
   xmlns:dc="http://purl.org/dc/elements/1.1/"
   xmlns:cc="http://creativecommons.org/ns#"
   xmlns:rdf="http://www.w3.org/1999/02/22-rdf-syntax-ns#"
   xmlns:svg="http://www.w3.org/2000/svg"
   xmlns="http://www.w3.org/2000/svg"
   xmlns:sodipodi="http://sodipodi.sourceforge.net/DTD/sodipodi-0.dtd"
   xmlns:inkscape="http://www.inkscape.org/namespaces/inkscape"
   version="1.1"
   width="254"
   height="70.811577"
   id="svg2"
   xml:space="preserve"
   inkscape:version="0.48.0 r9654"
   sodipodi:docname="AO Smith logo.svg"><sodipodi:namedview
     pagecolor="#ffffff"
     bordercolor="#666666"
     borderopacity="1"
     objecttolerance="10"
     gridtolerance="10"
     guidetolerance="10"
     inkscape:pageopacity="0"
     inkscape:pageshadow="2"
     inkscape:window-width="1366"
     inkscape:window-height="706"
     id="namedview21"
     showgrid="false"
     fit-margin-top="2"
     fit-margin-left="2"
     fit-margin-right="2"
     fit-margin-bottom="2"
     inkscape:zoom="0.99652258"
     inkscape:cx="242.83749"
     inkscape:cy="66.356268"
     inkscape:window-x="-8"
     inkscape:window-y="-8"
     inkscape:window-maximized="1"
     inkscape:current-layer="svg2" /><metadata
     id="metadata8"><rdf:RDF><cc:Work
         rdf:about=""><dc:format>image/svg+xml</dc:format><dc:type
           rdf:resource="http://purl.org/dc/dcmitype/StillImage" /></cc:Work></rdf:RDF></metadata><defs
     id="defs6"><clipPath
       id="clipPath18"><path
         d="m 0,0 3853,0 0,1029.7 -3853,0 L 0,0 z"
         inkscape:connector-curvature="0"
         id="path20" /></clipPath></defs><g
     transform="matrix(0.64884506,0,0,-0.64884506,2,68.811576)"
     id="g10"><g
       transform="scale(0.1,0.1)"
       id="g12"><g
         id="g14"><g
           clip-path="url(#clipPath18)"
           id="g16"><path
             d="m 67.9883,282.484 c 0,0 27.1601,-50.254 83.6567,-102.886 l -10.625,77.418 -73.0317,25.468"
             inkscape:connector-curvature="0"
             id="path22"
             style="fill:#ffffff;fill-opacity:1;fill-rule:nonzero;stroke:none" /><path
             d="m 613.805,0.878906 c 322.511,0 613.665,225.109094 613.665,514.183094 0,289.083 -291.154,514.188 -613.665,514.188 C 291.285,1029.25 0.175781,804.145 0.175781,515.062 0.175781,225.988 291.285,0.878906 613.805,0.878906"
             inkscape:connector-curvature="0"
             id="path24"
             style="fill:#ffffff;fill-opacity:1;fill-rule:nonzero;stroke:none" /><path
             d="m 2663.75,193.504 -109.49,0 -1.56,350.914 c 0.07,50.281 -52.62,51.406 -52.62,51.406 l -48.07,0 c 0,0 -6.5,-1.125 -14.14,-2.226 -68.92,-14.551 -90.78,-68.184 -91.33,-128.536 l 0.96,-271.558 -110.64,0 -0.2,349.801 c -0.12,51.394 -53.96,52.519 -53.96,52.519 l -48.05,0 c 0,0 -6.52,-1.125 -14.13,-2.226 -69,-14.551 -90.81,-68.184 -90.23,-128.536 l -0.15,-271.558 -110.65,0 -0.19,292.808 0.31,220.137 110.6,0 0.24,-45.82 c 32.21,39.109 80.01,46.933 103.5,46.933 l 40.21,0 c 49.18,0 92.15,-15.636 137.46,-56.992 46.54,40.235 87.17,56.992 139.69,56.992 l 40.21,0 c 100.59,0 172.17,-63.691 172.82,-168.73 l -0.59,-345.328"
             inkscape:connector-curvature="0"
             id="path26"
             style="fill:#231f20;fill-opacity:1;fill-rule:nonzero;stroke:none" /><path
             d="m 3519.65,707.562 -167.6,0 0.02,102.997 -110.62,66.847 0.09,-683.902 110.65,0 -0.74,403.434 170.97,0 c 11.17,0 22.74,-2.239 32.64,-7.833 15.94,-7.824 27.83,-24.57 27.36,-53.632 l -0.04,-341.969 110.61,0 -0.72,346.441 c 0.48,105.039 -71.98,167.617 -172.62,167.617"
             inkscape:connector-curvature="0"
             id="path28"
             style="fill:#231f20;fill-opacity:1;fill-rule:nonzero;stroke:none" /><path
             d="m 3086.15,815.688 -104.06,62.851 -4.34,0 -0.89,-281.601 0.23,0 0.14,-222.383 c 0.31,-90.547 40.29,-158.688 121.85,-177.692 16.23,-3.359 27.4,-3.359 27.4,-3.359 l 23.48,0 -0.53,110.629 -15.64,0 c -48.05,0 -46.95,57.023 -46.95,57.023 l -0.2,235.782 63.67,0 -0.51,110.624 -63.67,0 0.02,108.126"
             inkscape:connector-curvature="0"
             id="path30"
             style="fill:#231f20;fill-opacity:1;fill-rule:nonzero;stroke:none" /><path
             d="m 2770.23,878.539 -4.96,0 0.37,-116.211 108.42,0 0.32,53.281 -104.15,62.93 z m -4.86,-685.035 109.53,0 -0.13,514.058 -109.52,0 0.12,-514.058"
             inkscape:connector-curvature="0"
             id="path32"
             style="fill:#231f20;fill-opacity:1;fill-rule:nonzero;stroke:none" /><path
             d="m 1371.11,382.445 c 49.27,-52.402 118.44,-89.093 194.93,-89.093 92.21,1.035 157.18,35.636 157.18,98.507 0,146.719 -424.39,5.235 -424.39,273.536 0,117.371 122.6,198.066 272.44,198.066 109.02,0 197.02,-34.59 261.97,-100.606 l -90.09,-80.695 c -59.75,58.664 -114.24,78.586 -178.15,78.586 -100.61,0 -138.33,-49.269 -138.33,-89.101 0,-147.715 424.42,0 424.42,-273.508 0,-137.266 -139.37,-220.043 -290.29,-220.043 -92.21,0 -199.12,34.57 -281.89,121.558 l 92.2,82.793"
             inkscape:connector-curvature="0"
             id="path34"
             style="fill:#231f20;fill-opacity:1;fill-rule:nonzero;stroke:none" /><path
             d="m 3798.44,255.551 c 6.43,0 10.83,1.097 10.83,8.312 0,6.438 -6.91,7.223 -12.25,7.223 l -9.57,0 0,-15.535 10.99,0 z m -24.48,25.89 23.7,0 c 16,0 25.1,-4.707 25.1,-18.832 0,-11.453 -6.9,-16.004 -16.63,-16.793 l 16.63,-27.308 -13.8,0 -15.07,26.68 -6.44,0 0,-26.68 -13.49,0 0,62.933 z m 22.75,-75.8 c 22.44,0 40.34,17.89 40.34,44.097 0,26.055 -17.9,44.102 -40.34,44.102 -22.75,0 -40.33,-18.047 -40.33,-44.102 0,-26.207 17.58,-44.097 40.33,-44.097 z m 0,100.757 c 31.23,0 56.66,-25.425 56.66,-56.66 0,-31.23 -25.43,-56.652 -56.66,-56.652 -31.23,0 -56.65,25.422 -56.65,56.652 0,31.235 25.42,56.66 56.65,56.66"
             inkscape:connector-curvature="0"
             id="path36"
             style="fill:#231f20;fill-opacity:1;fill-rule:nonzero;stroke:none" /><path
             d="m 914.391,313.488 c 109.039,0 207.489,91.692 207.489,209.434 0,117.754 -98.45,209.445 -207.489,209.445 -109.059,0 -207.504,-91.691 -207.504,-209.445 0,-117.742 98.445,-209.434 207.504,-209.434 z m 0,525.02 c 181.439,0 325.229,-137.996 325.229,-315.586 0,-177.598 -143.79,-315.59 -325.229,-315.59 -181.453,0 -325.258,137.992 -325.258,315.59 0,177.59 143.805,315.586 325.258,315.586"
             inkscape:connector-curvature="0"
             id="path38"
             style="fill:#ffffff;fill-opacity:1;fill-rule:nonzero;stroke:none" /><path
             d="m 707.129,523.059 c 0,-117.684 98.406,-209.344 207.422,-209.344 109.009,0 207.419,91.66 207.419,209.344 0,117.707 -98.41,209.355 -207.419,209.355 -109.016,0 -207.422,-91.648 -207.422,-209.355 z M 914.551,207.566 c -181.375,0 -325.125,137.973 -325.125,315.493 0,177.531 143.75,315.48 325.125,315.48 116.849,0 218.009,-57.305 275.239,-145.508 C 1100.2,891.711 866.836,1029.7 614.258,1029.7 291.406,1029.7 0,804.309 0,514.848 0,429.574 25.4492,349.945 69.375,279.906 l 238.691,546.18 68.028,-0.098 256.621,-605.867 -120.598,0 -46.316,113.848 -256.629,0 -58.879,-153.18 C 265.664,69.5156 435.078,0 614.258,0 887.656,0 1138.47,161.668 1208.91,386.977 1157.25,279.809 1045.76,207.566 914.551,207.566 z m -664.844,226.735 176.543,0 -87.793,217.078 -88.75,-217.078"
             inkscape:connector-curvature="0"
             id="path40"
             style="fill:#0d7a3f;fill-opacity:1;fill-rule:nonzero;stroke:none" /></g></g></g></g></svg>