<?xml version="1.0" encoding="utf-8"?>
<!-- Generator: Adobe Illustrator 16.0.0, SVG Export Plug-In . SVG Version: 6.00 Build 0)  -->
<!DOCTYPE svg PUBLIC "-//W3C//DTD SVG 1.1//EN" "http://www.w3.org/Graphics/SVG/1.1/DTD/svg11.dtd">
<svg version="1.1" id="Layer_1" xmlns="http://www.w3.org/2000/svg" xmlns:xlink="http://www.w3.org/1999/xlink" x="0px" y="0px"
	 width="367px" height="153px" viewBox="0 0 367 153" enable-background="new 0 0 367 153" xml:space="preserve">
<path fill="#D1A40B" d="M95.333,72.764l0.274-50.994c0-4.091-3.433-5.603-5.737-3.823c-1.481,1.137-7.012,6.419-7.012,6.419
	C28.37,75.37,33.782,69.521,19.055,83.233c-14.151,12.364-7.992,37.988,11.054,37.988c7.138,0.012,15.058,0.074,15.058,0.074
	l23.766-23.929c0,0-26.109,0-30.288-0.143c-7.332-0.263-7.875-9.893-1.387-15.087c2.335-2.34,34.058-31.663,34.058-31.663
	s0.003,49.946,0.003,57.655c0,5.745-1.764,13.183,5.891,13.183C79.336,117.168,95.333,72.764,95.333,72.764"/>
<path fill="#D1A40B" d="M115.061,109.802c-1.007,2.917-3.171,4.438-6.219,4.438h-4.189l12.604-34.866
	c0.508-1.524,1.647-2.283,3.045-2.283h6.604L115.061,109.802z M110.899,72.764c-2.415,0-4.94,1.273-7.612,3.685
	c-2.669,2.42-4.324,4.958-5.209,7.366l-20.195,55.25c0,0.382-1.59,4.315-1.59,4.315h8.836c2.794,0,5.329-0.634,7.483-2.161
	c1.909-1.264,3.428-3.553,4.575-6.607l5.591-15.486h19.942c2.917,0,5.714-1.398,8.379-4.062c2.029-2.161,3.551-4.444,4.444-6.99
	l12.952-35.311H110.899z"/>
<path fill="#D1A40B" d="M221.327,111.211c-1.139-1.778-1.787-3.933-1.787-6.476c0-1.393,0.26-2.666,0.648-3.807l7.892-21.554
	c0.514-1.527,1.523-2.286,3.048-2.286h22.094l1.529-4.324h-33.145c-2.032,0-4.697,1.016-7.871,3.054
	c-3.682,2.283-5.971,4.949-7.124,7.997l-8.123,22.102c-0.631,1.644-0.885,3.048-0.885,4.447c0,2.794,1.011,4.949,3.174,6.473
	c2.161,1.527,4.955,2.289,8.38,2.289h28.698l1.949-4.863h-13.397C224.372,114.263,222.723,113.247,221.327,111.211"/>
<path fill="#D1A40B" d="M303.791,80.005c0-4.821-2.421-7.241-7.235-7.241h-15.501l14.474-39.872h-8.76
	c-3.168,0-6.222,1.143-9.136,3.296c-2.929,2.167-4.955,4.831-5.977,7.755l-27.3,75.183h11.046c2.794,0,5.206-0.765,7.363-2.158
	c2.032-1.279,3.808-4.315,5.463-8.894l11.308-30.987c2.023,0,3.677,0.508,4.946,1.521c1.145,1.016,1.781,2.158,1.781,3.562
	c0,0.502-0.135,1.008-0.386,1.644l-12.82,35.311h17.652l12.062-33.145C303.405,84.072,303.791,82.171,303.791,80.005"/>
<path fill="#D1A40B" d="M342.498,79.374l-4.821,13.214h-11.028c2.495-6.85,4.247-11.65,5.688-15.498h8.763
	C342.623,77.091,343.009,77.85,342.498,79.374 M353.166,72.764h-39.118L301.1,108.075c-1.022,2.923-1.527,5.081-1.527,6.479
	c0,3.042,2.163,4.572,6.345,4.572h35.439l1.77-4.869h-22.094c-0.64,0-1.547-1.861-0.64-4.453c1.775-4.875,3.294-9.082,4.646-12.778
	h28.764l4.823-13.211c0.38-1.142,0.634-2.535,0.634-4.062C359.26,75.053,357.23,72.764,353.166,72.764"/>
<path fill="#D1A40B" d="M168.877,114.194h-8.733c-1.147,0-1.39-1.518-0.634-4.435l4.649-12.832h11.045
	C172.399,104.63,170.441,109.987,168.877,114.194 M201.08,78.152c0-3.55-2.023-5.317-6.076-5.317h-35.203l-1.649,4.301h16.822v0.006
	h5.2c0.06,0,0.511,0.043,0.659,0.077c0.061,0.011,0.12,0.025,0.172,0.042c0.159,0.055,0.302,0.126,0.425,0.223
	c0.423,0.351,0.451,1.005,0.14,1.952l-1.795,4.915h0.006c-1.082,2.991-2.083,5.751-3.003,8.266h-28.695l-5.634,15.417
	c-1.27,3.425-1.897,5.954-1.897,7.347c0,2.409,1.515,3.67,4.561,3.67h41.912l12.789-35.203
	C200.7,81.572,201.08,79.677,201.08,78.152"/>
</svg>
