<?xml version="1.0" encoding="UTF-8" standalone="no"?>
<!-- Created with Inkscape (http://www.inkscape.org/) -->

<svg
   xmlns:dc="http://purl.org/dc/elements/1.1/"
   xmlns:cc="http://creativecommons.org/ns#"
   xmlns:rdf="http://www.w3.org/1999/02/22-rdf-syntax-ns#"
   xmlns:svg="http://www.w3.org/2000/svg"
   xmlns="http://www.w3.org/2000/svg"
   xmlns:sodipodi="http://sodipodi.sourceforge.net/DTD/sodipodi-0.dtd"
   xmlns:inkscape="http://www.inkscape.org/namespaces/inkscape"
   width="272.84375"
   height="56.46875"
   id="svg3067"
   version="1.1"
   inkscape:version="0.48.0 r9654"
   sodipodi:docname="New document 3">
  <defs
     id="defs3069" />
  <sodipodi:namedview
     id="base"
     pagecolor="#ffffff"
     bordercolor="#666666"
     borderopacity="1.0"
     inkscape:pageopacity="0.0"
     inkscape:pageshadow="2"
     inkscape:zoom="0.98994949"
     inkscape:cx="44.170565"
     inkscape:cy="31.623997"
     inkscape:document-units="px"
     inkscape:current-layer="layer1"
     showgrid="false"
     fit-margin-top="0"
     fit-margin-left="0"
     fit-margin-right="0"
     fit-margin-bottom="0"
     showborder="false"
     inkscape:showpageshadow="false"
     inkscape:window-width="1366"
     inkscape:window-height="706"
     inkscape:window-x="-8"
     inkscape:window-y="-8"
     inkscape:window-maximized="1" />
  <metadata
     id="metadata3072">
    <rdf:RDF>
      <cc:Work
         rdf:about="">
        <dc:format>image/svg+xml</dc:format>
        <dc:type
           rdf:resource="http://purl.org/dc/dcmitype/StillImage" />
        <dc:title></dc:title>
      </cc:Work>
    </rdf:RDF>
  </metadata>
  <g
     inkscape:label="Layer 1"
     inkscape:groupmode="layer"
     id="layer1"
     transform="translate(-300.96875,-802)">
    <rect
       style="fill:#0d4da1;fill-opacity:0.95686275;stroke:#000000;stroke-width:0;stroke-miterlimit:4;stroke-opacity:0.12280704;stroke-dasharray:none"
       id="rect3093"
       width="272.74139"
       height="56.367001"
       x="301.02545"
       y="802.0459" />
    <path
       inkscape:connector-curvature="0"
       d="m 257.97873,955.65161 5.22375,0 -2.54,-7.3875 -0.0575,0 -2.62625,7.3875 z m 0.43,-12.34875 4.535,0 7.52625,20.12875 -4.59375,0 -1.51875,-4.48 -7.535,0 -1.57375,4.48 -4.48,0"
       style="fill:#ffffff;fill-opacity:1;fill-rule:nonzero;stroke:none"
       id="path3037-4" />
    <path
       inkscape:connector-curvature="0"
       d="m 320.54205,833.54076 9.40276,0 -4.572,-13.29761 -0.1035,0 -4.72726,13.29761 z m 0.774,-22.22794 8.16301,0 13.54726,36.23206 -8.26876,0 -2.73375,-8.06407 -13.56301,0 -2.83275,8.06407 -8.06401,0"
       style="fill:#ffffff;fill-opacity:1;fill-rule:nonzero;stroke:none"
       id="path3037" />
    <path
       inkscape:connector-curvature="0"
       d="m 347.64836,821.31146 6.80851,0 0,3.55278 0.10116,0 c 1.872,-2.69103 4.608,-4.26379 8.01,-4.26379 3.29851,0 6.24151,1.21501 7.66576,4.36279 1.512,-2.28152 4.26375,-4.36279 7.92451,-4.36279 5.571,0 9.576,2.59202 9.576,9.38708 l 0,17.55915 -7.20225,0 0,-14.86363 c 0,-3.50328 -0.2925,-6.3968 -4.41901,-6.3968 -4.0545,0 -4.81275,3.34578 -4.81275,6.64881 l 0,14.61162 -7.20225,0 0,-14.71512 c 0,-3.04203 0.20475,-6.54531 -4.36501,-6.54531 -1.4265,0 -4.88475,0.91351 -4.88475,6.0413 l 0,15.21913 -7.20001,0"
       style="fill:#ffffff;fill-opacity:1;fill-rule:nonzero;stroke:none"
       id="path3041" />
    <path
       inkscape:connector-curvature="0"
       d="m 414.94447,834.50827 c 0,-4.16479 -1.6695,-8.47807 -6.291,-8.47807 -4.72726,0 -6.24376,4.21428 -6.24376,8.47807 0,4.26379 1.62,8.32057 6.29326,8.32057 4.70925,0 6.2415,-4.05678 6.2415,-8.32057 z m -19.49176,-13.19636 6.858,0 0,3.34803 0.099,0 c 1.72125,-2.79228 4.57426,-4.06129 7.80751,-4.06129 8.23276,0 11.92951,6.65106 11.92951,14.10987 0,7.00431 -3.852,13.54737 -11.51776,13.54737 -3.1455,0 -6.13575,-1.36802 -7.87051,-3.95554 l -0.1035,0 0,12.47861 -7.20225,0"
       style="fill:#ffffff;fill-opacity:1;fill-rule:nonzero;stroke:none"
       id="path3045" />
    <path
       inkscape:connector-curvature="0"
       d="m 428.49173,811.31462 7.20001,0 0,13.64862 0.15534,0 c 1.8405,-2.93853 4.986,-4.36279 7.66575,-4.36279 7.66576,0 9.58951,4.31779 9.58951,10.80909 l 0,16.13714 -7.19775,0 0,-14.81188 c 0,-4.31553 -1.27576,-6.44855 -4.62376,-6.44855 -3.9015,0 -5.589,2.18252 -5.589,7.51281 l 0,13.74762 -7.20001,0"
       style="fill:#ffffff;fill-opacity:1;fill-rule:nonzero;stroke:none"
       id="path3049" />
    <path
       inkscape:connector-curvature="0"
       d="m 478.28427,831.61429 c -0.6525,-3.65178 -2.232,-5.58229 -5.73975,-5.58229 -4.57426,0 -5.88151,3.55278 -5.98501,5.58229 l 11.72476,0 z m -11.72476,4.56979 c 0.20925,4.56529 2.42325,6.64656 6.44626,6.64656 2.88675,0 5.229,-1.77526 5.6925,-3.39978 l 6.3405,0 c -2.02725,6.1898 -6.3405,8.82683 -12.2895,8.82683 -8.26651,0 -13.40551,-5.6813 -13.40551,-13.79937 0,-7.87057 5.4315,-13.85787 13.40551,-13.85787 8.93925,0 13.25476,7.51281 12.7575,15.58363"
       style="fill:#ffffff;fill-opacity:1;fill-rule:nonzero;stroke:none"
       id="path3053" />
    <path
       inkscape:connector-curvature="0"
       d="m 491.79418,821.31146 6.8445,0 0,3.65178 0.153,0 c 1.82026,-2.94078 4.96576,-4.36279 8.02576,-4.36279 7.65001,0 9.59176,4.31779 9.59176,10.80909 l 0,16.13714 -7.21801,0 0,-14.81413 c 0,-4.31328 -1.27125,-6.4463 -4.60575,-6.4463 -3.92175,0 -5.58901,2.18252 -5.58901,7.51056 l 0,13.74987 -7.20225,0"
       style="fill:#ffffff;fill-opacity:1;fill-rule:nonzero;stroke:none"
       id="path3057" />
    <path
       inkscape:connector-curvature="0"
       d="m 536.66056,842.83064 c 4.91626,0 6.39451,-4.21429 6.39451,-8.37232 0,-4.21204 -1.47825,-8.42632 -6.39451,-8.42632 -4.878,0 -6.345,4.21428 -6.345,8.42632 0,4.15803 1.467,8.37232 6.345,8.37232 z m 0,-22.23019 c 8.26651,0 13.59676,5.48105 13.59676,13.85787 0,8.32282 -5.33025,13.79937 -13.59676,13.79937 -8.235,0 -13.56076,-5.47655 -13.56076,-13.79937 0,-8.37682 5.32576,-13.85787 13.56076,-13.85787"
       style="fill:#ffffff;fill-opacity:1;fill-rule:nonzero;stroke:none"
       id="path3061" />
    <path
       inkscape:connector-curvature="0"
       d="m 557.15043,847.54668 7.218,0 0,-36.23206 -7.218,0"
       style="fill:#ffffff;fill-opacity:1;fill-rule:nonzero;stroke:none"
       id="path3065" />
  </g>
</svg>
