<?xml version="1.0" encoding="UTF-8" standalone="no"?>
<!-- Created with Inkscape (http://www.inkscape.org/) -->

<svg
   xmlns:dc="http://purl.org/dc/elements/1.1/"
   xmlns:cc="http://creativecommons.org/ns#"
   xmlns:rdf="http://www.w3.org/1999/02/22-rdf-syntax-ns#"
   xmlns:svg="http://www.w3.org/2000/svg"
   xmlns="http://www.w3.org/2000/svg"
   xmlns:sodipodi="http://sodipodi.sourceforge.net/DTD/sodipodi-0.dtd"
   xmlns:inkscape="http://www.inkscape.org/namespaces/inkscape"
   width="283.5625"
   height="54.09375"
   id="svg3115"
   version="1.1"
   inkscape:version="0.48.2 r9819"
   sodipodi:docname="american_water_(company)_logo.svg">
  <defs
     id="defs3117" />
  <sodipodi:namedview
     id="base"
     pagecolor="#ffffff"
     bordercolor="#666666"
     borderopacity="1.0"
     inkscape:pageopacity="0.0"
     inkscape:pageshadow="2"
     inkscape:zoom="1"
     inkscape:cx="65.78671"
     inkscape:cy="16.489689"
     inkscape:document-units="px"
     inkscape:current-layer="layer1"
     showgrid="false"
     inkscape:window-width="1301"
     inkscape:window-height="746"
     inkscape:window-x="-8"
     inkscape:window-y="-8"
     inkscape:window-maximized="1"
     fit-margin-top="0"
     fit-margin-left="0"
     fit-margin-right="0"
     fit-margin-bottom="0"
     showborder="false"
     inkscape:showpageshadow="false" />
  <metadata
     id="metadata3120">
    <rdf:RDF>
      <cc:Work
         rdf:about="">
        <dc:format>image/svg+xml</dc:format>
        <dc:type
           rdf:resource="http://purl.org/dc/dcmitype/StillImage" />
        <dc:title></dc:title>
      </cc:Work>
    </rdf:RDF>
  </metadata>
  <g
     inkscape:label="Layer 1"
     inkscape:groupmode="layer"
     id="layer1"
     transform="translate(-323.15625,-823.5)">
    <rect
       style="fill:none;stroke:#000000;stroke-width:0;stroke-miterlimit:4;stroke-opacity:0.12280704;stroke-dasharray:none"
       id="rect3123"
       width="283.46399"
       height="54"
       x="323.19775"
       y="823.54401" />
    <path
       inkscape:connector-curvature="0"
       d="m 377.48087,845.24648 0,-2.14825 c -0.48588,0.39325 -1.76313,1.31788 -3.05663,1.31788 -1.63637,0 -3.276,-1.49988 -3.276,-1.49988 0,0 -0.0179,0.0212 -0.0536,0.0487 l 0,-0.004 c -0.25188,0.21938 -1.40563,1.16675 -2.67313,1.40238 l -0.005,0 c -0.0861,0.0163 -0.1755,0.0292 -0.26487,0.039 l -0.0147,0 c -0.0894,0.008 -0.1755,0.013 -0.26488,0.013 -1.63637,0 -3.2695,-1.49988 -3.2695,-1.49988 l -10e-4,0 0,10e-4 -0.005,-10e-4 c 0,0 -1.63475,1.49988 -3.27275,1.49988 -0.754,0 -1.49988,-0.3185 -2.093,-0.66138 -0.32663,-0.19337 -0.6565,-0.47775 -0.9425,-0.84012 -0.27788,-0.34938 -0.47125,-0.7215 -0.58338,-1.07575 l -0.005,0 -5.90174,-18.69887 -6.64301,20.92999 -21.95701,-0.1495 17.85064,12.79038 -6.92576,20.83412 17.67514,-13.02437 17.67351,13.02437 -6.20426,-18.65987 c -0.56875,0.28437 -1.25612,0.53462 -1.95325,0.53462 -1.63475,0 -3.27437,-1.37312 -3.27437,-1.37312 0,0 -1.63475,1.37312 -3.27276,1.37312 -1.63475,0 -3.27275,-1.49825 -3.27275,-1.49825 0,0 -10e-4,0.12506 -0.003,0.12506 l 0,-2.444 c 10e-4,0 0.003,0 0.003,0 0,0 1.638,1.5015 3.27275,1.5015 1.63801,0 3.27276,-1.5015 3.27276,-1.5015 0,0 1.63962,1.5015 3.27437,1.5015 1.42838,0 2.85676,-1.14237 3.19801,-1.43325 l 0,-2.5935 c -0.34775,0.27138 -1.76963,1.30813 -3.19313,1.30813 -1.638,0 -3.27113,-1.37313 -3.27113,-1.37313 0,0 -1.638,1.37313 -3.27438,1.37313 -1.638,0 -3.27437,-1.49825 -3.27437,-1.49825 0,0 -10e-4,0.12519 -0.003,0.12519 l 0,-2.44238 c 10e-4,0 0.003,0 0.003,0 0,0 1.63637,1.49825 3.27437,1.49825 1.63638,0 3.27438,-1.49825 3.27438,-1.49825 0,0 1.63313,1.49825 3.27113,1.49825 1.63637,0 3.27438,-1.49825 3.27438,-1.49825 l 0.008,0 c 0,0 1.62987,1.49663 3.26462,1.49825 0.091,0 0.18038,-0.003 0.26813,-0.013 0.003,0 0.008,0 0.013,-10e-4 0.0894,-0.008 0.17875,-0.0212 0.26812,-0.0373 0,0 0,0 10e-4,0 0.5265,-0.0975 1.027,-0.3185 1.456,-0.55737 l 1.1895,-0.8515 0,-2.626 c -0.30062,0.2275 -1.41537,1.03025 -2.6455,1.25612 -10e-4,0 -10e-4,10e-4 -10e-4,10e-4 -0.0894,0.0147 -0.17875,0.0277 -0.26812,0.0358 -0.005,10e-4 -0.009,10e-4 -0.013,10e-4 -0.0878,0.008 -0.17388,0.013 -0.26325,0.013 l -0.005,0 c -1.63475,0 -3.27275,-1.37312 -3.27275,-1.37312 0,0 -1.63801,1.37312 -3.27438,1.37312 -1.638,0 -3.27113,-1.37312 -3.27113,-1.37312 0,0 -1.638,1.37312 -3.27438,1.37312 -1.638,0 -3.27437,-1.49825 -3.27437,-1.49825 0,0 -10e-4,0.12506 -0.003,0.12506 l 0,-2.44237 c 10e-4,0 0.003,0 0.003,0 l 0,0.0699 c 0,0 10e-4,-0.0342 10e-4,-0.0683 0.0163,0.0147 1.64287,1.49825 3.27275,1.49825 0.7345,0 1.46088,-0.3055 2.04913,-0.63863 0.72312,-0.37537 1.2285,-0.79137 1.2285,-0.79137 0,0 0.45987,0.38025 1.12937,0.741 0.59963,0.35262 1.365,0.689 2.1385,0.689 0.7345,0 1.46088,-0.30388 2.04588,-0.637 0.72475,-0.37538 1.23175,-0.793 1.23175,-0.793 0,0 0.494,0.40625 1.2025,0.77675 0.58988,0.33962 1.32438,0.65162 2.067,0.65325 0.091,0 0.18038,-0.006 0.26813,-0.013 0.003,0 0.008,-10e-4 0.013,-10e-4 0.0893,-0.0104 0.17875,-0.0212 0.26812,-0.039 0,0 0,0 10e-4,0 0.65325,-0.12025 1.27238,-0.429 1.75663,-0.73125 0.58337,-0.32988 0.975,-0.64513 0.975,-0.64513 0,0 0.468,0.38513 1.14562,0.74913 0.59801,0.351 1.35851,0.68087 2.12551,0.68087 0.70687,0 1.40562,-0.28112 1.97762,-0.59962 0.4745,-0.23888 0.86288,-0.5005 1.08388,-0.66463 l 0,-0.0568 c 0.003,-0.004 0.003,-0.004 0.008,-0.006 l 0,-0.39975 -0.008,0"
       style="fill:#005e9c;fill-opacity:0.99607843;fill-rule:nonzero;stroke:none"
       id="path3067" />
    <path
       inkscape:connector-curvature="0"
       d="m 390.77588,856.93916 c 0.12831,0 0.12831,-0.078 0.10569,-0.18038 l -2.46675,-7.00862 c -0.13,-0.38675 -0.26,-0.38675 -0.39,0 l -2.28476,7.00862 c -0.0488,0.12831 0,0.18038 0.0797,0.18038 l 4.95626,0 z m -2.69913,-10.37725 c 0.31038,-0.85638 0.416,-1.01238 0.572,-1.01238 0.15438,0 0.26,0.13 0.57038,0.936 0.38675,0.98475 4.46062,11.69838 6.04013,15.64063 0.93762,2.30912 1.68837,2.7235 2.23437,2.8795 0.39,0.12831 0.77838,0.15762 1.03838,0.15762 0.156,0 0.25837,0.0243 0.25837,0.156 0,0.15438 -0.234,0.20475 -0.51837,0.20475 -0.38838,0 -2.28313,0 -4.07388,-0.0504 -0.49238,-0.0227 -0.77675,-0.0227 -0.77675,-0.18362 0,-0.10244 0.0797,-0.156 0.18037,-0.17713 0.15763,-0.0553 0.31038,-0.28925 0.15763,-0.702 l -2.41313,-6.383 c -0.052,-0.10244 -0.10556,-0.156 -0.23237,-0.156 l -5.58026,0 c -0.12831,0 -0.20475,0.0812 -0.25837,0.208 l -1.55675,4.59225 c -0.23238,0.64838 -0.364,1.27075 -0.364,1.73875 0,0.51838 0.546,0.75238 0.988,0.75238 l 0.25837,0 c 0.18363,0 0.25838,0.0503 0.25838,0.156 0,0.15437 -0.15275,0.20475 -0.38838,0.20475 -0.624,0 -1.73875,-0.0732 -2.0215,-0.0732 -0.286,0 -1.71275,0.0732 -2.93475,0.0732 -0.33637,0 -0.49075,-0.0504 -0.49075,-0.20475 0,-0.10569 0.104,-0.156 0.234,-0.156 0.17875,0 0.54438,-0.0293 0.75238,-0.0504 1.19275,-0.15763 1.71275,-1.14725 2.1775,-2.44075 l 5.889,-16.11025"
       style="fill:#a6265f;fill-opacity:0.99215686;fill-rule:nonzero;stroke:none"
       id="path3015" />
    <path
       inkscape:connector-curvature="0"
       d="m 418.43274,862.67216 c 0.0747,0.77675 0.23075,1.97112 1.1635,2.28312 0.65,0.208 1.24638,0.208 1.48038,0.208 0.104,0 0.18038,0.0504 0.18038,0.156 0,0.13 -0.20638,0.20475 -0.46475,0.20475 -0.52163,0 -3.06313,-0.0503 -3.89026,-0.12675 -0.546,-0.0553 -0.65162,-0.13162 -0.65162,-0.234 0,-0.078 0.052,-0.15762 0.156,-0.18362 0.13162,-0.0243 0.15762,-0.364 0.104,-0.77838 l -1.08875,-11.15562 -0.0503,0 -5.50226,11.25962 c -0.468,0.96038 -0.59475,1.16838 -0.80275,1.16838 -0.20962,0 -0.338,-0.208 -0.77675,-1.01238 -0.598,-1.09037 -2.10437,-3.91462 -2.67475,-5.109 -0.67112,-1.40075 -2.51388,-5.11225 -2.90388,-6.02062 l -0.104,0 -0.88237,9.96125 c -0.0244,0.33962 -0.0244,0.75237 -0.0244,1.118 0,0.33475 0.20475,0.54437 0.54275,0.62075 0.39,0.10244 0.72475,0.13162 0.88075,0.13162 0.078,0 0.18362,0.0747 0.18362,0.156 0,0.15438 -0.156,0.20475 -0.41762,0.20475 -0.85475,0 -1.94188,-0.0747 -2.1255,-0.0747 -0.20638,0 -1.29838,0.0747 -1.92075,0.0747 -0.22913,0 -0.38838,-0.0503 -0.38838,-0.20475 0,-0.0813 0.10569,-0.156 0.23238,-0.156 0.18362,0 0.33962,-0.0292 0.67762,-0.078 0.75238,-0.13 0.77675,-0.936 0.88075,-1.76475 l 1.65913,-14.39912 c 0.0292,-0.234 0.13,-0.38513 0.26162,-0.38513 0.15438,0 0.33638,0.0747 0.46638,0.33475 l 6.89813,13.69713 6.64138,-13.67275 c 0.104,-0.208 0.20962,-0.35913 0.36562,-0.35913 0.156,0 0.286,0.17875 0.338,0.59475 l 1.55675,13.54113"
       style="fill:#a6265f;fill-opacity:0.99215686;fill-rule:nonzero;stroke:none"
       id="path3019" />
    <path
       inkscape:connector-curvature="0"
       d="m 439.31752,857.09321 c 0,0.13162 0.052,0.20962 0.15437,0.28437 0.33963,0.18363 1.50638,0.33963 2.5155,0.33963 0.54438,0 1.16838,-0.0277 1.71275,-0.38838 0.78,-0.52 1.37475,-1.68675 1.37475,-3.37512 0,-2.74788 -1.50312,-4.33225 -3.94062,-4.33225 -0.676,0 -1.40075,0.078 -1.63475,0.12831 -0.10569,0.0536 -0.182,0.13325 -0.182,0.26325 l 0,7.08012 z m -1.97275,-1.86713 c 0,-3.4255 0,-4.04625 -0.0503,-4.74825 -0.0503,-0.75075 -0.182,-1.11312 -0.93275,-1.21875 -0.18525,-0.0244 -0.57362,-0.0488 -0.78162,-0.0488 -0.0763,0 -0.18038,-0.104 -0.18038,-0.18687 0,-0.12831 0.104,-0.17875 0.36075,-0.17875 1.04,0 2.57076,0.0504 2.69913,0.0504 0.23725,0 2.15638,-0.0504 2.8535,-0.0504 1.45275,0 3.0615,0.13162 4.25588,0.95875 0.57038,0.41925 1.58275,1.47875 1.58275,3.01112 0,1.63313 -0.67275,3.21588 -2.80313,5.03263 1.86876,2.3335 3.45476,4.33062 4.77751,5.70862 1.2155,1.24313 1.96787,1.4495 2.53825,1.52913 0.442,0.078 0.67762,0.078 0.806,0.078 0.12506,0 0.20637,0.10244 0.20637,0.17875 0,0.13162 -0.12831,0.18362 -0.546,0.18362 l -1.42512,0 c -1.29675,0 -1.8655,-0.12831 -2.43588,-0.44037 -0.98962,-0.52163 -1.81837,-1.58438 -3.11675,-3.24513 -0.95875,-1.19112 -1.97113,-2.61787 -2.4635,-3.21587 -0.104,-0.10244 -0.15763,-0.13 -0.31363,-0.13 l -2.90387,-0.0504 c -0.10244,0 -0.15438,0.0504 -0.15438,0.18037 l 0,0.52 c 0,2.12713 0,3.83825 0.104,4.74663 0.078,0.64837 0.20475,1.06437 0.90675,1.16837 0.312,0.0536 0.806,0.104 1.01238,0.104 0.156,0 0.17875,0.10244 0.17875,0.17875 0,0.10881 -0.10075,0.18363 -0.36075,0.18363 -1.24475,0 -2.69913,-0.0747 -2.80313,-0.0747 -0.0244,0 -1.55513,0.0747 -2.25713,0.0747 -0.23075,0 -0.36237,-0.052 -0.36237,-0.18363 0,-0.0764 0.052,-0.17875 0.17875,-0.17875 0.21125,0 0.49725,-0.0504 0.70525,-0.104 0.43875,-0.104 0.49237,-0.52 0.59475,-1.16837 0.13,-0.90838 0.13,-2.64388 0.13,-4.77263 l 0,-3.89187"
       style="fill:#a6265f;fill-opacity:0.99215686;fill-rule:nonzero;stroke:none"
       id="path3027" />
    <path
       inkscape:connector-curvature="0"
       d="m 424.14365,855.22628 c 0,-3.4255 0,-4.04625 -0.052,-4.74825 -0.0536,-0.75075 -0.182,-1.11313 -0.93438,-1.21875 -0.182,-0.0244 -0.56875,-0.0488 -0.77837,-0.0488 -0.0763,0 -0.182,-0.104 -0.182,-0.18688 0,-0.12844 0.10569,-0.17875 0.364,-0.17875 1.03675,0 2.51712,0.0503 2.64712,0.0503 0.156,0 4.92863,0.026 5.44863,0 0.43875,-0.0243 0.85475,-0.10231 1.03513,-0.12831 0.104,-0.0211 0.208,-0.10231 0.312,-0.10231 0.0796,0 0.104,0.10231 0.104,0.20638 0,0.15275 -0.12831,0.416 -0.18363,1.03675 -0.0243,0.208 -0.0763,1.196 -0.12831,1.45437 -0.026,0.10569 -0.104,0.22913 -0.20637,0.22913 -0.13,0 -0.18363,-0.0991 -0.18363,-0.28438 0,-0.15275 -0.0244,-0.51837 -0.12831,-0.7735 -0.156,-0.36562 -0.39,-0.52 -1.6315,-0.676 -0.39325,-0.0536 -3.04038,-0.078 -3.29875,-0.078 -0.10075,0 -0.12831,0.078 -0.12831,0.234 l 0,5.99138 c 0,0.15437 0,0.23562 0.12831,0.23562 0.286,0 3.29875,0 3.81225,-0.0536 0.546,-0.0536 0.88238,-0.0764 1.118,-0.31037 0.156,-0.156 0.26,-0.286 0.33638,-0.286 0.078,0 0.13,0.052 0.13,0.182 0,0.12831 -0.13,0.49237 -0.182,1.21875 -0.0504,0.442 -0.10244,1.27075 -0.10244,1.42512 0,0.18363 -0.0536,0.416 -0.20963,0.416 -0.104,0 -0.15437,-0.0764 -0.15437,-0.208 0,-0.208 0,-0.43875 -0.10231,-0.72312 -0.0764,-0.312 -0.28763,-0.572 -1.17,-0.676 -0.62075,-0.078 -3.05988,-0.104 -3.45151,-0.104 -0.12506,0 -0.15275,0.078 -0.15275,0.156 l 0,1.84112 c 0,0.75075 -0.0277,3.3215 0,3.76188 0.052,1.48037 0.468,1.76312 2.72351,1.76312 0.598,0 1.68675,0 2.28312,-0.23237 0.59638,-0.26 0.90838,-0.64838 1.03675,-1.53075 0.052,-0.25838 0.104,-0.338 0.234,-0.338 0.13163,0 0.15763,0.182 0.15763,0.338 0,0.156 -0.18363,1.65912 -0.31363,2.1255 -0.15275,0.57037 -0.38675,0.57037 -1.26912,0.57037 -1.71275,0 -3.03551,-0.0504 -3.96826,-0.0764 -0.962,-0.0488 -1.55837,-0.0488 -1.89475,-0.0488 -0.0536,0 -0.49562,0 -0.988,0.0227 -0.44037,0.026 -0.96037,0.052 -1.32275,0.052 -0.23237,0 -0.36237,-0.052 -0.36237,-0.18362 0,-0.0763 0.0536,-0.17875 0.182,-0.17875 0.208,0 0.49237,-0.078 0.69875,-0.104 0.44037,-0.0796 0.494,-0.52 0.59475,-1.16838 0.13325,-0.90837 0.13325,-2.64387 0.13325,-4.77262 l 0,-3.89188"
       style="fill:#a6265f;fill-opacity:0.99215686;fill-rule:nonzero;stroke:none"
       id="path3023" />
    <path
       inkscape:connector-curvature="0"
       d="m 462.71889,863.45021 c -2.2295,-1.9175 -2.77387,-4.43625 -2.77387,-6.53575 0,-1.47713 0.54437,-4.0495 2.56587,-6.019 1.37638,-1.32275 3.45151,-2.35788 6.95176,-2.35788 0.90837,0 2.20675,0.0747 3.3215,0.25513 0.85638,0.156 1.58275,0.31362 2.33513,0.33962 0.23237,0 0.286,0.10244 0.286,0.23238 0,0.18362 -0.0536,0.43875 -0.104,1.24475 -0.0244,0.72475 -0.0244,1.94675 -0.052,2.2555 -0.026,0.338 -0.13,0.468 -0.25675,0.468 -0.156,0 -0.18688,-0.156 -0.18688,-0.468 0,-0.85475 -0.36075,-1.73713 -0.9555,-2.2035 -0.806,-0.676 -2.46675,-1.222 -4.48988,-1.222 -2.9315,0 -4.33387,0.78325 -5.13825,1.534 -1.6835,1.55512 -2.0475,3.52787 -2.0475,5.75737 0,4.2315 3.3475,7.99013 8.22413,7.99013 1.71113,0 2.85513,-0.12675 3.76188,-1.03675 0.49075,-0.49238 0.80275,-1.42675 0.88075,-1.84438 0.0536,-0.23237 0.078,-0.30712 0.23562,-0.30712 0.10244,0 0.20638,0.15275 0.20638,0.30712 0,0.15763 -0.312,2.07675 -0.546,2.83075 -0.13163,0.416 -0.182,0.494 -0.57038,0.65 -0.93437,0.36238 -2.64387,0.49075 -4.12425,0.49075 -3.42388,0 -5.73463,-0.806 -7.52376,-2.36112"
       style="fill:#a6265f;fill-opacity:0.99215686;fill-rule:nonzero;stroke:none"
       id="path3035" />
    <path
       inkscape:connector-curvature="0"
       d="m 456.04697,859.11828 c 0,2.12875 0,3.86425 0.10569,4.771 0.078,0.65 0.15437,1.066 0.83037,1.17 0.33638,0.0536 0.82875,0.104 1.03838,0.104 0.12831,0 0.18037,0.10231 0.18037,0.17875 0,0.10894 -0.104,0.182 -0.36562,0.182 -1.27075,0 -2.7495,-0.0731 -2.85188,-0.0731 -0.13,0 -1.55675,0.0731 -2.2555,0.0731 -0.234,0 -0.36238,-0.0503 -0.36238,-0.182 0,-0.0764 0.0503,-0.17875 0.17875,-0.17875 0.208,0 0.494,-0.0504 0.702,-0.104 0.44038,-0.104 0.52,-0.52 0.59638,-1.17 0.10244,-0.90675 0.12831,-2.64225 0.12831,-4.771 l 0,-3.89187 c 0,-3.4255 0,-4.04625 -0.052,-4.74825 -0.0503,-0.75075 -0.23238,-1.08713 -0.72638,-1.19275 -0.25675,-0.0504 -0.54437,-0.0764 -0.69875,-0.0764 -0.10569,0 -0.182,-0.10244 -0.182,-0.18525 0,-0.12831 0.104,-0.17875 0.364,-0.17875 0.75075,0 2.17751,0.0503 2.30751,0.0503 0.10244,0 1.58112,-0.0503 2.28312,-0.0503 0.26,0 0.36238,0.0503 0.36238,0.17875 0,0.0829 -0.10231,0.18525 -0.18038,0.18525 -0.15762,0 -0.31037,0 -0.56712,0.0503 -0.62888,0.13162 -0.754,0.43875 -0.80763,1.21875 -0.0277,0.702 -0.0277,1.32275 -0.0277,4.74825 l 0,3.89187"
       style="fill:#a6265f;fill-opacity:0.99215686;fill-rule:nonzero;stroke:none"
       id="path3031" />
    <path
       inkscape:connector-curvature="0"
       d="m 486.18586,858.46952 c 0.10556,0 0.10556,-0.0536 0.0813,-0.15763 l -2.25875,-6.04175 c -0.12831,-0.338 -0.25838,-0.338 -0.38675,0 l -2.12875,6.04175 c -0.026,0.104 0,0.15763 0.078,0.15763 l 4.615,0 z m -2.5415,-9.18288 c 0.286,-0.72637 0.39162,-0.85962 0.546,-0.85962 0.23562,0 0.31525,0.3185 0.54762,0.80762 0.41438,0.93275 4.07063,10.03925 5.47463,13.38675 0.832,1.97275 1.456,2.25388 1.95,2.40988 0.338,0.10244 0.676,0.13162 0.91,0.13162 0.12675,0 0.28438,0.052 0.28438,0.17875 0,0.13163 -0.26163,0.18363 -0.51838,0.18363 -0.338,0 -2.02962,0 -3.61237,-0.052 -0.442,-0.0227 -0.80438,-0.0227 -0.80438,-0.15438 0,-0.104 0.052,-0.104 0.15763,-0.156 0.12675,-0.0504 0.3575,-0.234 0.20475,-0.59962 l -2.05076,-5.057 c -0.0503,-0.10244 -0.078,-0.12831 -0.208,-0.12831 l -5.26825,0 c -0.10075,0 -0.17712,0.0504 -0.22912,0.18037 l -1.30163,3.52788 c -0.20638,0.546 -0.33313,1.09037 -0.33313,1.47712 0,0.442 0.38838,0.59963 0.77838,0.59963 l 0.208,0 c 0.18038,0 0.23075,0.0763 0.23075,0.17875 0,0.13162 -0.12675,0.18362 -0.338,0.18362 -0.546,0 -1.7875,-0.0748 -2.0475,-0.0748 -0.23725,0 -1.37475,0.0748 -2.30913,0.0748 -0.28437,0 -0.44362,-0.052 -0.44362,-0.18362 0,-0.10244 0.10569,-0.17875 0.20962,-0.17875 0.156,0 0.494,-0.0293 0.67438,-0.0504 1.03837,-0.13325 1.48037,-0.91 1.92075,-2.02638 l 5.36738,-13.7995"
       style="fill:#a6265f;fill-opacity:0.99215686;fill-rule:nonzero;stroke:none"
       id="path3039" />
    <path
       inkscape:connector-curvature="0"
       d="m 496.09089,862.5172 c 0.0503,1.81187 0.26,2.35787 0.884,2.51387 0.41275,0.10075 0.93113,0.13163 1.13588,0.13163 0.104,0 0.18362,0.0747 0.18362,0.17875 0,0.13162 -0.15437,0.182 -0.41437,0.182 -1.29676,0 -2.20351,-0.0747 -2.41151,-0.0747 -0.20637,0 -1.1635,0.0747 -2.20187,0.0747 -0.23238,0 -0.364,-0.0243 -0.364,-0.182 0,-0.104 0.078,-0.17875 0.18362,-0.17875 0.18038,0 0.59475,-0.0309 0.93275,-0.13163 0.572,-0.156 0.64513,-0.75237 0.64513,-2.74787 l 0,-12.63438 c 0,-0.88237 0.13,-1.11312 0.31525,-1.11312 0.25512,0 0.64675,0.43875 0.8775,0.67275 0.36237,0.364 3.6855,3.89187 7.21013,7.5205 2.25713,2.33675 4.69788,4.95462 5.39825,5.68262 l -0.234,-11.05162 c -0.0277,-1.42513 -0.15762,-1.92238 -0.858,-2.04913 -0.41437,-0.078 -0.93275,-0.10244 -1.11637,-0.10244 -0.15438,0 -0.18038,-0.13162 -0.18038,-0.208 0,-0.13 0.18038,-0.156 0.44038,-0.156 1.03675,0 2.12712,0.0503 2.39037,0.0503 0.25513,0 1.00588,-0.0503 1.94188,-0.0503 0.234,0 0.41275,0.026 0.41275,0.156 0,0.0763 -0.0991,0.208 -0.25675,0.208 -0.10569,0 -0.28438,0 -0.54438,0.0487 -0.75237,0.15763 -0.80112,0.59963 -0.80112,1.92238 l -0.0553,12.91712 c 0,1.45438 -0.0244,1.586 -0.17875,1.586 -0.23725,0 -0.468,-0.18362 -1.74038,-1.35362 -0.23075,-0.20638 -3.52625,-3.44988 -5.941,-5.96213 -2.6455,-2.77712 -5.21138,-5.47625 -5.91338,-6.25462 l 0.26,10.40487"
       style="fill:#a6265f;fill-opacity:0.99215686;fill-rule:nonzero;stroke:none"
       id="path3043" />
    <path
       inkscape:connector-curvature="0"
       d="m 540.4878,861.94708 0.104,0 c 0.69713,-2.38875 3.08425,-9.90925 3.99263,-13.23237 0.26,-0.96038 0.28437,-1.32113 0.28437,-1.65913 0,-0.468 -0.28437,-0.77837 -1.47875,-0.77837 -0.12844,0 -0.234,-0.0812 -0.234,-0.18038 0,-0.13 0.13325,-0.182 0.44525,-0.182 1.32275,0 2.4115,0.078 2.6455,0.078 0.18363,0 1.29513,-0.078 2.10276,-0.078 0.234,0 0.3575,0.052 0.3575,0.15275 0,0.12831 -0.0763,0.20963 -0.23238,0.20963 -0.104,0 -0.59312,0.026 -0.88237,0.13162 -0.77676,0.28275 -1.19276,1.37313 -1.68513,2.8015 -1.13913,3.2955 -3.76188,11.54238 -4.771,14.44788 -0.676,1.91912 -0.80438,2.23112 -1.09363,2.23112 -0.25675,0 -0.41275,-0.33637 -0.7735,-1.34875 l -5.08625,-14.42512 -0.0503,0 c -0.93438,2.49112 -4.48988,11.98437 -5.42426,14.3975 -0.41275,1.092 -0.54275,1.37637 -0.85637,1.37637 -0.25838,0 -0.38838,-0.28437 -0.90513,-2.05075 l -4.61825,-15.38387 c -0.41438,-1.37475 -0.754,-1.76313 -1.42675,-2.0215 -0.338,-0.13 -0.98475,-0.156 -1.16675,-0.156 -0.13,0 -0.23563,-0.0243 -0.23563,-0.18038 0,-0.13 0.156,-0.182 0.41763,-0.182 1.3455,0 2.77225,0.078 3.05825,0.078 0.234,0 1.37638,-0.078 2.67313,-0.078 0.36237,0 0.46475,0.078 0.46475,0.182 0,0.156 -0.12675,0.18038 -0.25838,0.18038 -0.20637,0 -0.69875,0 -1.01075,0.156 -0.156,0.078 -0.33962,0.28437 -0.33962,0.62237 0,0.338 0.23725,1.24638 0.49562,2.38388 0.38838,1.664 3.08913,11.18487 3.47263,12.558 l 0.0537,0 5.50063,-14.78588 c 0.39,-1.06437 0.49075,-1.196 0.64837,-1.196 0.182,0 0.33638,0.33963 0.65,1.21875 l 5.16263,14.71275"
       style="fill:#a6265f;fill-opacity:0.99215686;fill-rule:nonzero;stroke:none"
       id="path3047" />
    <path
       inkscape:connector-curvature="0"
       d="m 555.83047,858.46952 c 0.10569,0 0.10569,-0.0537 0.0797,-0.15763 l -2.25875,-6.04175 c -0.13,-0.338 -0.26,-0.338 -0.39,0 l -2.12712,6.04175 c -0.0211,0.104 0,0.15763 0.078,0.15763 l 4.61825,0 z m -2.5415,-9.18288 c 0.28275,-0.72637 0.39,-0.85962 0.54438,-0.85962 0.234,0 0.312,0.3185 0.546,0.80762 0.41275,0.93275 4.07388,10.03925 5.47138,13.38675 0.83037,1.97275 1.45112,2.25388 1.94675,2.40988 0.33962,0.10244 0.676,0.13162 0.90675,0.13162 0.13325,0 0.28762,0.052 0.28762,0.17875 0,0.13163 -0.26,0.18363 -0.51837,0.18363 -0.33638,0 -2.02313,0 -3.60588,-0.052 -0.442,-0.0227 -0.806,-0.0227 -0.806,-0.15438 0,-0.104 0.0553,-0.104 0.15438,-0.156 0.13162,-0.0504 0.36562,-0.234 0.20962,-0.59962 l -2.04912,-5.057 c -0.052,-0.10231 -0.078,-0.12831 -0.208,-0.12831 l -5.26663,0 c -0.10075,0 -0.18038,0.0504 -0.23238,0.18037 l -1.29837,3.52788 c -0.208,0.546 -0.338,1.09037 -0.338,1.47712 0,0.442 0.39,0.59963 0.78,0.59963 l 0.20637,0 c 0.18038,0 0.234,0.0764 0.234,0.17875 0,0.13162 -0.13,0.18362 -0.338,0.18362 -0.54437,0 -1.79075,-0.0748 -2.04587,-0.0748 -0.23238,0 -1.37801,0.0748 -2.31076,0.0748 -0.28275,0 -0.44037,-0.052 -0.44037,-0.18362 0,-0.10244 0.10075,-0.17875 0.20475,-0.17875 0.156,0 0.49562,-0.0293 0.67925,-0.0504 1.03512,-0.13325 1.47713,-0.91 1.91913,-2.02638 l 5.36737,-13.7995"
       style="fill:#a6265f;fill-opacity:0.99215686;fill-rule:nonzero;stroke:none"
       id="path3051" />
    <path
       inkscape:connector-curvature="0"
       d="m 569.01664,859.11828 c 0,2.12875 0,3.86425 0.104,4.771 0.0763,0.65 0.18038,1.066 0.87913,1.17 0.312,0.0536 0.832,0.104 1.04,0.104 0.15275,0 0.17875,0.10244 0.17875,0.17875 0,0.10894 -0.10075,0.182 -0.36075,0.182 -1.24638,0 -2.6975,-0.0731 -2.82425,-0.0731 -0.10569,0 -1.69,0.0731 -2.366,0.0731 -0.25838,0 -0.36075,-0.0503 -0.36075,-0.182 0,-0.0764 0.0488,-0.15437 0.18037,-0.15437 0.20963,0 0.468,-0.0536 0.676,-0.10244 0.468,-0.10569 0.59638,-0.546 0.67275,-1.196 0.10244,-0.90675 0.10244,-2.64225 0.10244,-4.771 l 0,-9.26088 -3.29225,0.0503 c -1.42675,0.0293 -1.97113,0.18363 -2.31075,0.70038 -0.25675,0.39 -0.28438,0.54437 -0.36238,0.69875 -0.0503,0.18525 -0.12831,0.20962 -0.234,0.20962 -0.0503,0 -0.15437,-0.0504 -0.15437,-0.182 0,-0.23075 0.46637,-2.20187 0.494,-2.3855 0.0487,-0.12831 0.15112,-0.41275 0.234,-0.41275 0.15437,0 0.38675,0.17875 1.00912,0.25675 0.65,0.078 1.53075,0.10244 1.79075,0.10244 l 8.61251,0 c 0.754,0 1.27238,-0.0504 1.63475,-0.10244 0.338,-0.0471 0.54763,-0.10556 0.65,-0.10556 0.10075,0 0.10075,0.13325 0.10075,0.26163 0,0.67275 -0.0732,2.25712 -0.0732,2.51712 0,0.17875 -0.10725,0.286 -0.21125,0.286 -0.104,0 -0.15437,-0.0796 -0.18037,-0.39 l -0.026,-0.234 c -0.078,-0.67437 -0.572,-1.16675 -2.74951,-1.22037 l -2.8535,-0.0503 0,9.26087"
       style="fill:#ab225b;fill-opacity:0.99215686;fill-rule:nonzero;stroke:none"
       id="path3055" />
    <path
       inkscape:connector-curvature="0"
       d="m 578.558,855.22628 c 0,-3.4255 0,-4.04625 -0.0536,-4.74825 -0.052,-0.75075 -0.182,-1.11313 -0.93275,-1.21875 -0.182,-0.0244 -0.572,-0.0488 -0.78,-0.0488 -0.078,0 -0.182,-0.104 -0.182,-0.18688 0,-0.12831 0.104,-0.17875 0.36237,-0.17875 1.04,0 2.5155,0.0504 2.64713,0.0504 0.156,0 4.93188,0.026 5.44863,0 0.44037,-0.0244 0.85475,-0.10244 1.03512,-0.12844 0.104,-0.0211 0.21125,-0.10231 0.31525,-0.10231 0.078,0 0.0975,0.10231 0.0975,0.20638 0,0.15275 -0.1235,0.416 -0.1755,1.03675 -0.026,0.208 -0.0797,1.196 -0.13325,1.45437 -0.0227,0.10569 -0.104,0.22913 -0.208,0.22913 -0.12675,0 -0.18037,-0.0991 -0.18037,-0.28438 0,-0.15275 -0.026,-0.51837 -0.12831,-0.7735 -0.15763,-0.36562 -0.38838,-0.52 -1.63313,-0.676 -0.39,-0.0536 -3.0355,-0.078 -3.29875,-0.078 -0.10075,0 -0.12675,0.078 -0.12675,0.234 l 0,5.99138 c 0,0.15437 0,0.23562 0.12675,0.23562 0.28762,0 3.29875,0 3.81875,-0.0536 0.546,-0.0536 0.87913,-0.0764 1.11313,-0.31037 0.156,-0.156 0.26,-0.286 0.338,-0.286 0.0747,0 0.13,0.052 0.13,0.182 0,0.12831 -0.13,0.49237 -0.18038,1.21875 -0.0553,0.442 -0.10569,1.27075 -0.10569,1.42512 0,0.18363 -0.0536,0.416 -0.20475,0.416 -0.10725,0 -0.15925,-0.0764 -0.15925,-0.208 0,-0.208 0,-0.43875 -0.104,-0.72312 -0.0763,-0.312 -0.28112,-0.572 -1.16512,-0.676 -0.624,-0.078 -3.06151,-0.104 -3.45313,-0.104 -0.12831,0 -0.15438,0.078 -0.15438,0.156 l 0,1.84112 c 0,0.75075 -0.026,3.3215 0,3.76188 0.0503,1.48037 0.468,1.76312 2.72188,1.76312 0.59963,0 1.68675,0 2.28638,-0.23237 0.59312,-0.26 0.90675,-0.64838 1.0335,-1.53075 0.0568,-0.25838 0.10725,-0.338 0.23562,-0.338 0.13,0 0.15763,0.182 0.15763,0.338 0,0.156 -0.18525,1.65912 -0.31038,2.1255 -0.156,0.57037 -0.39325,0.57037 -1.27237,0.57037 -1.71438,0 -3.03713,-0.0504 -3.9715,-0.0764 -0.95876,-0.0488 -1.55513,-0.0488 -1.89313,-0.0488 -0.0487,0 -0.49075,0 -0.98638,0.0227 -0.43875,0.026 -0.95712,0.052 -1.32437,0.052 -0.23075,0 -0.36075,-0.052 -0.36075,-0.18362 0,-0.0763 0.052,-0.17875 0.18037,-0.17875 0.21288,0 0.49563,-0.078 0.70038,-0.104 0.442,-0.0796 0.494,-0.52 0.59962,-1.16838 0.13,-0.90837 0.13,-2.64387 0.13,-4.77262 l 0,-3.89188"
       style="fill:#ab225b;fill-opacity:0.99215686;fill-rule:nonzero;stroke:none"
       id="path3059" />
    <path
       inkscape:connector-curvature="0"
       d="m 593.30098,857.09314 c 0,0.13163 0.0553,0.20963 0.156,0.28438 0.33963,0.18362 1.50475,0.33962 2.5155,0.33962 0.546,0 1.17,-0.0277 1.71438,-0.38837 0.78,-0.52 1.37475,-1.68675 1.37475,-3.37513 0,-2.74787 -1.508,-4.33225 -3.94225,-4.33225 -0.67763,0 -1.39913,0.078 -1.63638,0.12844 -0.104,0.0536 -0.182,0.13325 -0.182,0.26325 l 0,7.08013 z m -1.97275,-1.86712 c 0,-3.4255 0,-4.04625 -0.0503,-4.74825 -0.0503,-0.75075 -0.18037,-1.11313 -0.93437,-1.21875 -0.17875,-0.0243 -0.57201,-0.0487 -0.77513,-0.0487 -0.0797,0 -0.18363,-0.104 -0.18363,-0.18688 0,-0.12831 0.104,-0.17875 0.36075,-0.17875 1.03838,0 2.56913,0.0504 2.69913,0.0504 0.23563,0 2.15313,-0.0504 2.85513,-0.0504 1.45437,0 3.05988,0.13163 4.25588,0.95875 0.56712,0.41925 1.58112,1.47875 1.58112,3.01113 0,1.63312 -0.676,3.21587 -2.8015,5.03262 1.8655,2.3335 3.44988,4.33063 4.77263,5.70863 1.22037,1.24312 1.97437,1.4495 2.548,1.52912 0.44037,0.078 0.6695,0.078 0.79787,0.078 0.12831,0 0.208,0.10244 0.208,0.17875 0,0.13163 -0.13,0.18363 -0.54437,0.18363 l -1.42513,0 c -1.3,0 -1.87037,-0.12831 -2.44075,-0.44038 -0.98312,-0.52162 -1.81675,-1.58437 -3.1135,-3.24512 -0.96038,-1.19113 -1.97275,-2.61788 -2.4635,-3.21588 -0.10231,-0.10244 -0.156,-0.13 -0.30875,-0.13 l -2.90875,-0.0503 c -0.10075,0 -0.156,0.0503 -0.156,0.18038 l 0,0.52 c 0,2.12712 0,3.83825 0.10569,4.74662 0.0764,0.64838 0.20475,1.06438 0.90675,1.16838 0.31037,0.0537 0.806,0.104 1.01237,0.104 0.15438,0 0.17875,0.10244 0.17875,0.17875 0,0.10894 -0.0991,0.18362 -0.36075,0.18362 -1.24637,0 -2.69912,-0.0748 -2.80312,-0.0748 -0.026,0 -1.55675,0.0748 -2.2555,0.0748 -0.23238,0 -0.36401,-0.052 -0.36401,-0.18362 0,-0.0764 0.0503,-0.17875 0.18201,-0.17875 0.208,0 0.49562,-0.0503 0.70362,-0.104 0.43713,-0.104 0.49075,-0.52 0.59475,-1.16838 0.12675,-0.90837 0.12675,-2.64387 0.12675,-4.77262 l 0,-3.89188"
       style="fill:#ab225b;fill-opacity:0.99215686;fill-rule:nonzero;stroke:none"
       id="path3063" />
  </g>
</svg>
