<?xml version="1.0" encoding="UTF-8" standalone="no"?>
<svg
   xmlns:svg="http://www.w3.org/2000/svg"
   xmlns="http://www.w3.org/2000/svg"
   version="1.0"
   width="749"
   height="127"
   viewBox="-0.203 -0.077 749 127"
   id="svg2"
   xml:space="preserve">
	<defs
   id="defs4">
	</defs>
	<g
   transform="matrix(0.9866372,0,0,0.9210123,6,6)"
   id="g6">
		<path
   d="M 442.719,15.432 C 456.907,12.866 472.614,13.741 487.367,11.94 C 487.269,18.479 484.496,24.852 483.078,31.364 L 484.445,32.319 L 520.293,32.061 L 516.32,48.27 L 479.172,48.899 C 474.082,65.057 470.188,81.833 465.848,98.364 C 465.918,102.606 469.047,105.052 472.309,106.884 C 483.622,106.884 496.887,108.751 506.809,104.552 L 502.121,123.032 L 440.398,123.559 C 431.988,122.153 423.394,113.864 421.722,105.477 L 422.074,93.567 C 429.285,67.77 435.754,41.434 442.719,15.432 L 442.719,15.432 z M 299.539,34.037 C 310.738,50.863 321.027,67.928 330.34,85.629 C 312.953,98.914 295.299,111.524 277.725,124.082 L 277.764,125.059 L 306.69,124.536 L 339.426,100.962 C 344.348,108.349 349.067,115.919 351.711,124.329 L 407.293,123.708 C 406.094,123.384 405.121,121.86 404.148,121.114 L 377.082,73.673 L 431.988,33.614 L 431.937,32.661 L 398.816,33.813 C 390.566,44.7 378.007,50.098 367.621,58.133 C 363.066,50.166 356.805,42.979 355.683,33.613 L 299.539,34.037 L 299.539,34.037 z M 658.652,31.59 L 659.304,36.162 L 639.398,114.719 L 634.558,122.481 L 687.097,122.481 L 685.995,116.196 L 698.879,63.1 C 699.406,60.012 701.828,56.914 704.672,55.537 C 715.606,55.713 731.844,51.789 741.891,58.133 L 748.348,31.766 C 731.91,34.508 709.696,23.801 700.223,42.379 C 698.653,39.328 699.528,35.285 699.309,31.617 L 658.652,31.59 L 658.652,31.59 z M 140.258,0 L 34.459,0.48 L 34.637,9.312 L 7.475,111.945 L 0,126.602 L 113.066,126.532 C 123.295,126.778 132.056,123.356 136.716,114.688 C 140.109,101.954 146.206,89.977 144.829,75.786 C 143.179,70.266 139.284,65.175 134.425,61.831 C 139.214,60.403 143.986,58.556 147.743,54.663 C 155.764,43.804 158.216,30.143 158.538,16.729 C 156.723,8.52 148.549,1.408 140.258,0 L 140.258,0 z M 82.994,20.957 L 110.736,21.203 C 114.591,23.455 113.195,29.221 112.3,32.287 C 109.868,38.484 110.036,46.725 104.353,50.844 L 72.539,50.992 L 82.994,20.957 L 82.994,20.957 z M 66.953,71.793 L 96.435,71.664 C 100.517,73.516 99.484,79.465 98.373,82.758 C 94.637,89.926 98.934,100.961 90.969,104.953 L 58.887,104.906 C 60.256,93.941 64.275,82.777 66.953,71.793 L 66.953,71.793 z M 265.441,34.59 L 172.634,34.914 L 166.083,51.67 C 188.456,48.219 212.63,50.522 235.022,49.891 C 236.969,50.844 237.971,52.918 238.198,55.016 C 237.296,57.887 237.55,61.731 234.296,63.325 L 173.222,64.782 L 162.581,70.091 C 153.909,79.661 152.018,91.974 151.272,104.806 C 151.792,112.275 156.721,119.119 163.114,123.033 C 177.343,127.556 197.268,125.334 214.096,124.814 C 217.959,123.779 220.489,119.689 222.317,116.396 C 223.713,119.087 224.784,122.107 225.612,124.978 L 269.288,125.185 L 267.88,118.892 L 280.773,68.078 C 282.789,61.508 284.738,52.293 280.369,46.422 C 277.42,40.527 271.254,36.781 265.441,34.59 L 265.441,34.59 z M 230.982,81.203 L 224.49,105.848 L 221.687,108.2 L 199.64,108.575 C 190.148,103.005 199.343,91.72 200.181,83.653 L 203.759,81.286 L 230.982,81.203 L 230.982,81.203 z M 628.41,32.512 L 544.644,32.061 C 538.316,33.311 532.624,37.235 528.73,43.028 C 522.937,62.303 517.5,81.786 514.242,102.13 C 515.722,111.525 522.762,120.759 532.426,122.915 L 624.391,122.657 L 631.559,103.708 L 626.969,105.755 L 563.938,106.255 L 560.641,104.603 C 555.578,98.365 561.598,91.947 562.246,85.58 L 638.101,84.287 C 640.175,71.4 648.566,58.607 642.398,44.701 C 639.805,39.182 634.008,34.115 628.41,32.512 L 628.41,32.512 z M 574.824,49.145 L 595.152,48.799 C 597.05,49.32 599.195,51.192 599.843,53.315 C 599.695,57.887 598.851,62.333 597.148,66.571 L 567.261,67.104 C 569.859,61.104 568.934,52.891 574.824,49.145 L 574.824,49.145 z"
   id="path8"
   style="fill:#252969;fill-rule:evenodd" />
	</g>
</svg>