<?xml version="1.0" encoding="UTF-8" standalone="no"?>
<!-- Created with Inkscape (http://www.inkscape.org/) -->
<!DOCTYPE svg PUBLIC "-//W3C//DTD SVG 1.1//EN" "http://www.w3.org/Graphics/SVG/1.1/DTD/svg11.dtd">
<svg
   xmlns:dc="http://purl.org/dc/elements/1.1/"
   xmlns:cc="http://creativecommons.org/ns#"
   xmlns:rdf="http://www.w3.org/1999/02/22-rdf-syntax-ns#"
   xmlns:svg="http://www.w3.org/2000/svg"
   xmlns="http://www.w3.org/2000/svg"
   version="1.1"
   width="1162.5923"
   height="400"
   id="svg4182"
   xml:space="preserve"><metadata
     id="metadata4188"><rdf:RDF><cc:Work
         rdf:about=""><dc:format>image/svg+xml</dc:format><dc:type
           rdf:resource="http://purl.org/dc/dcmitype/StillImage" /><dc:title></dc:title></cc:Work></rdf:RDF></metadata><defs
     id="defs4186" /><g
     transform="matrix(1.25,0,0,-1.25,-82.376111,442.52861)"
     id="g4190"><path
       d="m 746.24224,337.8156 0,-71.72705 7.63303,0 c 3.05322,36.32151 24.16737,58.73915 45.51639,58.73915 l 35.86352,-0.10569 0,-237.610553 c 1.76147,-20.12773 -16.18203,-27.596363 -38.07123,-27.443702 l 0.0822,-7.550835 142.13888,0 -0.0352,7.621294 c -22.54681,2.536516 -41.08922,1.961103 -40.84262,23.509752 l 0.0705,241.474044 33.25656,0 c 21.36075,0 47.80629,-18.378 47.80629,-58.63346 l 8.31414,0 0,71.72705 -241.73239,0 z M 640.5423,295.39941 c -0.11744,10.9446 8.34936,23.63892 23.19268,23.63892 25.62352,0 30.4382,-26.98572 24.06168,-40.25546 -10.79194,-22.4881 -26.23416,-28.03086 -26.69214,-27.13838 -8.73689,14.44406 -20.40956,30.356 -20.56222,43.75492 z M 600.72133,129.56288 c -19.658,37.26096 -5.10826,63.88265 14.00956,80.07643 0,0 37.63674,-76.14248 76.99972,-115.517203 -15.31304,-13.575062 -61.68668,-20.12773 -91.00928,35.440773 z m -199.5628,63.44815 15.78277,0 c 41.12445,3.49945 56.01475,-26.25765 58.18722,-57.27126 2.64221,-37.366649 -12.31854,-69.589806 -50.08446,-69.589806 -16.91011,0 -23.86204,6.106429 -23.86204,25.177277 l -0.0235,101.683789 z m 138.29888,-91.02102 c 11.64919,-23.779848 40.79564,-59.150165 89.27129,-59.948698 26.6804,-0.434496 51.49364,6.693586 80.94542,34.571784 10.49836,-9.18313 25.38865,-24.496176 48.1351,-25.811406 6.40001,-0.375781 25.9993,3.346792 42.00519,23.61544 13.49286,17.098002 16.26424,30.21508 16.64002,30.64958 l -7.01065,5.24918 c -4.52111,-9.30056 -12.02497,-16.193783 -21.44296,-16.193783 -17.72039,0 -18.70681,6.881473 -39.38647,27.561133 20.57397,30.19159 19.43488,45.7395 30.63783,61.69842 11.36736,16.19378 21.00847,25.37691 40.25546,26.04627 l 0,8.09102 -71.09292,0 0,-7.19854 c 14.20919,1.06862 16.47561,-10.13433 14.64368,-19.4936 -3.71083,-19.04736 -23.61544,-57.92888 -26.2459,-55.13401 -30.1916,31.94132 -67.39384,101.50764 -67.39384,101.50764 27.12664,14.87855 38.07124,45.95088 38.07124,53.83052 0,26.96223 -14.17396,49.64997 -53.80704,54.68777 -24.08516,3.06496 -69.5898,-17.06277 -70.4588,-59.06796 -0.39926,-19.02387 11.36736,-38.07124 23.62719,-61.69842 -32.02353,-12.61212 -57.15383,-37.48408 -67.78137,-69.73072 -12.54166,29.63967 -47.04299,41.48849 -69.55457,47.54794 l 0.90422,0 c 16.89837,5.50753 68.16889,15.75929 65.97292,63.44815 -2.87707,62.61439 -82.97698,73.35935 -111.50105,71.42174 l -124.40676,0 0,-8.12625 c 18.51892,-1.26826 36.63857,3.56991 36.63857,-27.24407 l 0.0705,-214.089058 c 0,-25.834893 -13.99781,-26.140214 -36.54463,-28.676731 l -0.10568,-7.386431 129.63245,0 c 70.03605,-0.692844 99.47608,19.258739 109.2816,49.87309 z M 73.900889,52.11692 l 129.550241,0 c 90.09332,3.064958 115.47023,32.927745 115.47023,79.23092 0,48.2995 -42.29877,63.1076 -70.23568,70.63494 15.53616,3.06496 61.69842,21.44296 61.04081,65.0687 -0.93946,62.66136 -82.82432,72.51385 -111.36013,70.57623 l -124.406755,0 0,-8.13799 c 18.51892,-1.26826 36.650315,3.5934 36.650315,-27.24407 l -0.0822,-213.231806 c 0,-25.834892 -14.080016,-26.973976 -36.626831,-29.510493 l 0,-7.386431 z m 100.615161,141.32861 15.77103,0 c 36.41546,0.90422 57.52961,-19.69324 59.93695,-56.88374 2.43083,-37.660228 -12.91745,-69.131824 -51.84593,-69.578063 -16.89837,-0.199633 -23.86205,6.106429 -23.86205,25.165534 l 0,101.296269 z m 18.49544,128.9396 c 39.99711,-2.70092 50.54244,-37.23748 50.56593,-49.95529 0.0822,-38.29436 -11.94277,-67.60522 -68.77953,-65.86723 l 0,115.82252 c 0.49321,0 13.78644,0.29357 18.2136,0 z m 226.6777,-0.14092 c 40.00886,-2.70092 50.55419,-37.23748 50.56593,-49.95529 0.0822,-38.29436 -11.9545,-67.60522 -68.77953,-65.86723 l 0,115.82252 c 0.49322,0 13.78644,0.29358 18.2136,0"
       id="path4242"
       style="fill:#8a0025;fill-opacity:1;fill-rule:nonzero;stroke:none" /></g></svg>