<?xml version="1.0" encoding="UTF-8" standalone="no"?>
<svg xmlns:rdf="http://www.w3.org/1999/02/22-rdf-syntax-ns#" xmlns="http://www.w3.org/2000/svg" height="140" width="300" version="1.1" xmlns:cc="http://creativecommons.org/ns#" xmlns:xlink="http://www.w3.org/1999/xlink" xmlns:dc="http://purl.org/dc/elements/1.1/">
	<rect height="59.8" width="56.9" y="17.7" x="121" fill="#fff"/>
	<path d="m193 47.9a43.9 47.9 0 1 1 -87.8 0 43.9 47.9 0 1 1 87.8 0z" fill="#9b6621"/>
	<path d="m133 20.1c-0.686 0-1.04 0.0597-1.08 0.183-0.032 0.101-0.132 1.9-0.22 3.99-0.442 10.6-0.397 10.3-2.45 12.5-2.29 2.42-3.16 3.75-3.79 5.78-0.26 0.832-0.275 1.49-0.247 12.4 0.0162 6.36 0.0748 13.2 0.128 15.1l0.096 3.55 1.26-0.0412 1.27-0.0412v-1.54c0-0.846-0.057-7.43-0.124-14.6l-0.119-13.1 0.32-1.02c0.391-1.24 1.19-2.4 2.89-4.18 2.68-2.8 2.93-3.71 3.25-11.7 0.082-2.05 0.188-4.5 0.233-5.44 0.096-1.98 0.163-1.88-1.41-1.88zm8.02 0.146 0.101 3.33c0.055 1.83 0.196 4.88 0.311 6.77 0.323 5.3 0.634 6.21 3.02 8.74 2.78 2.96 3.26 4.01 3.27 7.37 0.03 8.96-0.101 22.3-0.224 22.8-0.152 0.68-0.692 1.29-1.24 1.41-0.161 0.0339-1.44 0.23-2.84 0.439-3.14 0.469-3.38 0.575-3.38 1.47 0 1.12-0.221 1.09 9.12 1.09l8.31 0.005 0.362-0.361c0.198-0.198 0.361-0.528 0.361-0.737 0-0.394-0.58-1.1-0.91-1.1-0.104-0.002-1.41-0.195-2.9-0.43-2.66-0.421-2.72-0.436-3.16-0.92l-0.453-0.494-0.096-4.75c-0.053-2.61-0.096-8.28-0.096-12.6 0-6.78 0.029-7.95 0.233-8.64 0.473-1.59 1.06-2.47 3.14-4.65 2.13-2.24 2.61-3.53 2.91-7.78 0.175-2.52 0.448-8.64 0.448-10.1v-0.915h-16.3zm24 0c-0.713 0-1.3 0.0494-1.29 0.11 0.033 1.73 0.47 11 0.576 12.2 0.296 3.37 0.756 4.34 3.28 6.98 1.1 1.15 1.86 2.17 2.25 3 0.655 1.39 0.668 1.71 0.494 14.3-0.09 6.51-0.165 13-0.165 14.4v2.53h2.64l0.027-5.23c0.017-2.88 0.041-5.56 0.05-5.97 0.01-0.403 0.068-4.59 0.128-9.3 0.118-9.31 0.092-9.74-0.704-11.7-0.391-0.975-1.45-2.58-2.3-3.5-0.337-0.362-1.01-1.09-1.51-1.62-1.43-1.53-1.6-2.29-1.84-8.34-0.083-2.05-0.19-4.64-0.242-5.75l-0.096-2.01h-1.29z" fill="#fff"/>
	<g fill="#938571">
		<path d="m0.596 135c-0.23-0.0758-0.174-0.422 0.0838-0.521 0.127-0.0489 0.493-0.0889 0.812-0.0889 0.775 0 1.24-0.465 1.4-1.41 0.0668-0.393 0.122-5.04 0.122-10.3v-9.62l-0.373-0.373c-0.277-0.277-0.578-0.393-1.17-0.452-1.21-0.12-1.46-0.193-1.46-0.429 0-0.265-0.469-0.245 5.41-0.234 5.3 0.01 5.97 0.0794 7.43 0.766 3.17 1.5 3.4 5.42 0.492 8.33l-0.973 0.973 1.25 0.636c1.5 0.763 2.98 2.16 3.58 3.4 1.54 3.15 0.185 6.94-3.04 8.5-1.85 0.898-2.6 0.982-8.34 0.943-2.8-0.0189-5.15-0.0564-5.23-0.0833zm11.4-2c1.31-0.611 1.96-1.78 1.96-3.53 0-2.2-0.7-4.03-2.1-5.46-0.956-0.98-1.87-1.35-3.54-1.45l-1.41-0.0843 0.0458 4.82c0.0506 5.32 0.043 5.28 0.991 5.68 0.83 0.349 0.899 0.361 2.13 0.372 0.941 0.008 1.32-0.0584 1.92-0.339zm-2.07-12c0.534-0.158 0.881-0.381 1.2-0.769 1.32-1.59 1.14-4.78-0.368-6.45-0.83-0.923-1.57-1.23-2.85-1.17l-0.947 0.0444-0.0389 4.14-0.0389 4.14 0.332 0.133c0.521 0.209 1.89 0.173 2.71-0.0711z"/>
		<path id="b" d="m21.6 135c-0.135-0.0261-0.246-0.138-0.246-0.25 0-0.192 0.401-0.308 1.38-0.396 0.655-0.0596 0.95-0.594 1.11-2.02 0.197-1.71 0.189-18.4-0.009-19.1-0.203-0.729-0.688-1.02-1.87-1.12-0.783-0.0675-0.983-0.135-1.02-0.349-0.0483-0.253 0.228-0.263 6.07-0.215 5.87 0.0482 6.17 0.0638 7.1 0.376 2.74 0.916 4.04 2.83 3.9 5.72-0.0575 1.2-0.121 1.44-0.701 2.61-0.526 1.06-0.867 1.52-1.95 2.58-0.915 0.9-1.27 1.34-1.17 1.46 0.846 1.12 4.61 5.76 5.52 6.81 1.17 1.34 2.37 2.41 3.23 2.85 0.243 0.125 0.868 0.308 1.39 0.407 0.522 0.0992 1.02 0.24 1.09 0.313 0.363 0.332-0.39 0.427-3 0.378-2.59-0.0486-2.75-0.0688-3.58-0.451-1.3-0.601-2.87-2.3-5.28-5.72-1.13-1.6-2.18-3.03-2.33-3.18-0.156-0.15-0.492-0.273-0.747-0.273-0.254 0-0.967-0.0426-1.58-0.0947l-1.12-0.0947v3.44c0 3.56 0.126 4.81 0.529 5.26 0.25 0.276 0.525 0.35 1.85 0.496 0.588 0.0649 0.842 0.156 0.842 0.302 0 0.115-0.0824 0.22-0.183 0.233-0.353 0.047-8.99 0.0485-9.23 0.002zm10.5-11.5c2.15-1.04 2.94-5.25 1.51-8.05-0.907-1.78-2.99-2.75-5.18-2.42l-0.676 0.101 0.0385 5.15 0.0385 5.15 0.659 0.171c1.13 0.294 2.89 0.24 3.61-0.11z"/>
		<path id="c" d="m54.4 135c-2.59-0.404-5.48-1.83-6.91-3.4-2.91-3.21-4-7.73-2.91-12 0.326-1.29 1.56-3.68 2.42-4.67 1.57-1.81 3.72-3.13 6.16-3.78 1.05-0.278 1.61-0.326 3.86-0.328 3.1-0.003 4.4 0.256 6.59 1.32 3.54 1.71 5.6 4.89 5.99 9.22 0.19 2.1-0.374 5.11-1.32 7.03-1.55 3.15-4.48 5.49-7.97 6.36-1.43 0.358-4.52 0.509-5.93 0.29zm4.92-1.61c2.65-0.495 4.55-2.5 5.43-5.73 0.296-1.08 0.332-1.54 0.325-4.07-0.008-2.48-0.0514-3.01-0.332-4.03-0.544-1.97-1.39-3.48-2.65-4.75-1.8-1.81-3.55-2.55-6.01-2.53-3.77 0.0256-6.19 2.04-7.18 5.96-0.272 1.07-0.335 1.73-0.34 3.51-0.0101 3.57 0.718 6.05 2.46 8.36 1.88 2.5 5.28 3.84 8.31 3.28z"/>
		<path d="m80.1 135c-0.0812-0.152-1.73-5.04-3.67-10.9-1.94-5.82-3.65-10.8-3.79-11.1-0.398-0.779-0.761-1.04-1.6-1.14-0.59-0.0699-0.749-0.142-0.714-0.325 0.04-0.208 0.509-0.239 4.07-0.271 2.21-0.0196 4.12 0.0224 4.23 0.0934 0.318 0.203 0.0483 0.455-0.487 0.455-0.268 0-0.635 0.119-0.815 0.265-0.308 0.25-0.318 0.311-0.159 1.06 0.343 1.63 3.67 13 4.5 15.4 0.0634 0.181 1.93-4.61 3.86-9.88 2.41-6.61 2.77-7.4 3.26-7.21 0.116 0.0444 0.56 0.927 0.987 1.96s1.04 2.51 1.35 3.27l1.21 2.93c1.85 4.51 3.49 8.44 3.59 8.64 0.151 0.272-0.16 1.22 2.4-7.37 1.5-5.03 2.13-7.37 2.13-7.88 0-0.691-0.025-0.738-0.508-0.939-0.279-0.117-0.712-0.212-0.962-0.212-0.354 0-0.444-0.0566-0.405-0.256 0.0454-0.235 0.329-0.256 3.49-0.256 3.05 0 3.44 0.0268 3.48 0.236 0.0351 0.182-0.12 0.258-0.677 0.332-1.38 0.183-1.38 0.182-3.6 6.61-0.669 1.93-2.18 6.43-3.37 9.98-1.18 3.56-2.24 6.54-2.35 6.64-0.533 0.442-0.688 0.165-2.95-5.27-2.82-6.79-3.09-7.44-4.02-9.7-0.424-1.03-0.817-1.82-0.873-1.76-0.0564 0.0608-0.511 1.2-1.01 2.53-2.08 5.54-4.27 11-5.13 12.8-0.555 1.18-0.77 1.5-1 1.5-0.164 0-0.364-0.124-0.445-0.276z"/>
		<path id="a" d="m127 134c-1.29-1.21-12.5-12.5-13.7-13.8-0.591-0.644-1.5-1.62-2.01-2.17l-0.934-1 0.095 3.34c0.293 10.3 0.349 11.6 0.551 12.1 0.286 0.804 0.783 1.13 1.89 1.24 0.723 0.0693 0.934 0.144 0.972 0.347 0.0464 0.243-0.208 0.256-4.24 0.22-3.7-0.0335-4.29-0.0691-4.29-0.258 0-0.158 0.226-0.244 0.805-0.307 1.09-0.118 1.36-0.219 1.59-0.595 0.323-0.517 0.43-2.91 0.539-12.1 0.0567-4.75 0.144-9.1 0.194-9.66 0.127-1.43 0.374-1.44 1.7-0.0426 0.558 0.587 1.58 1.66 2.26 2.39 1.15 1.21 9.17 9.49 12.7 13.1l1.5 1.54-0.085-3.73c-0.258-11.3-0.285-11.9-0.57-12.4-0.339-0.575-0.661-0.72-1.88-0.85-0.656-0.0703-0.976-0.168-0.976-0.297 0-0.106 0.115-0.224 0.256-0.262 0.219-0.0588 7.67-0.033 7.98 0.0277 0.06 0.0118 0.11 0.113 0.11 0.224 0 0.23-0.439 0.378-1.13 0.381-0.781 0.003-1.21 0.506-1.36 1.61-0.073 0.523-0.209 5.5-0.303 11.1-0.094 5.59-0.232 10.2-0.307 10.4-0.221 0.416-0.534 0.302-1.4-0.512z"/>
		<path d="m136 124c-0.186-0.116-0.165-0.235 0.149-0.83 0.201-0.382 0.612-0.953 0.912-1.27l0.546-0.574 3.04 0.0959c3.17 0.1 4.02 0.0138 4.35-0.44 0.162-0.221 0.23-0.233 0.424-0.0721 0.208 0.172 0.193 0.267-0.147 0.946-0.208 0.415-0.538 0.969-0.735 1.23l-0.357 0.476h-3.68c-3.45 0-3.7 0.0179-3.98 0.286-0.213 0.2-0.37 0.245-0.522 0.151z"/>
		<path d="m150 135c-0.314-0.0595-0.326-0.404-0.018-0.523 0.127-0.0489 0.453-0.0889 0.724-0.0889 0.75 0 1.22-0.496 1.38-1.46 0.162-0.981 0.298-15.1 0.173-17.9-0.097-2.21-0.16-2.39-0.967-2.7-0.213-0.0808-0.673-0.147-1.02-0.147-0.777 0-1.1-0.112-1.1-0.382 0-0.261-0.558-0.245 7.25-0.207 4.8 0.0236 6.92-0.0163 7.38-0.139 0.353-0.0951 0.696-0.116 0.765-0.0475 0.069 0.0689 0.061 0.517-0.017 0.999-0.078 0.481-0.192 1.47-0.253 2.19-0.09 1.07-0.158 1.33-0.359 1.36-0.187 0.0355-0.27-0.0907-0.336-0.511-0.206-1.3-0.272-1.42-0.954-1.75-0.59-0.285-0.943-0.323-3.44-0.366l-2.78-0.0482-0.039 4.21-0.039 4.21 2.67-0.003c2.91-0.004 3.63-0.104 4.13-0.57 0.574-0.539 0.725-0.406 0.608 0.537-0.057 0.463-0.152 1.54-0.211 2.38-0.059 0.848-0.159 1.63-0.222 1.73-0.19 0.308-0.528-0.0945-0.528-0.63 0-0.649-0.559-1.43-1.18-1.64-0.307-0.106-1.45-0.178-2.89-0.183l-2.38-0.008 0.014 4.5c0.017 5.34 0.105 5.99 0.864 6.37 0.289 0.144 0.842 0.256 1.27 0.256 0.416 0.00012 0.861 0.0402 0.988 0.0891 0.313 0.12 0.295 0.493-0.025 0.514-0.646 0.0428-9.23 0.0509-9.45 0.009z"/>
		<use xlink:href="#c" transform="translate(124,1.58e-6)" height="957" width="2049" y="0" x="0"/>
		<use xlink:href="#b" transform="translate(175 .146)" height="957" width="2049" y="0" x="0"/>
		<path d="m250 135c-6.67-0.006-7.83-0.0725-7.83-0.447 0-0.118 0.094-0.251 0.208-0.295 0.115-0.044 0.25-0.188 0.301-0.32s-0.353-3.53-0.898-7.55l-0.99-7.31-0.813 1.67c-0.447 0.917-1.27 2.62-1.82 3.79-2.46 5.17-5.04 10.4-5.18 10.4-0.248 0.153-0.527-0.028-0.817-0.532-0.701-1.22-4.44-8.72-5.8-11.6-0.835-1.79-1.54-3.23-1.57-3.2-0.03 0.0301-0.348 2.32-0.707 5.09s-0.716 5.5-0.795 6.06c-0.382 2.75-0.357 3.04 0.298 3.37 0.23 0.119 0.815 0.258 1.3 0.309 0.909 0.095 1.22 0.408 0.553 0.558-0.181 0.0407-2.6 0.0585-5.38 0.0394-0.295-0.125-0.429-0.755-0.172-0.945 0.222-0.166 0.464-0.558 0.57-0.921 0.101-0.348 0.908-5.38 1.8-11.2 0.887-5.8 1.68-10.7 1.76-10.9 0.174-0.397 0.46-0.422 0.781-0.0676 0.258 0.285 1.95 3.75 8.05 16.4l0.879 1.83 0.838-1.76c0.461-0.966 1.87-3.93 3.14-6.59 4.08-8.55 4.8-10 5.03-10.1 0.35-0.134 0.597 0.225 0.758 1.1 0.081 0.441 0.775 5.12 1.54 10.4 1.4 9.62 1.54 10.4 1.91 11.2z"/>
		<path d="m274 135c-4.39 0.0223-8.13 0.005-8.31-0.0394-0.181-0.0439-0.329-0.173-0.329-0.287s0.148-0.228 0.329-0.253c0.201-0.0286 0.342-0.161 0.363-0.34 0.018-0.161-0.542-1.81-1.24-3.66l-1.28-3.37-3.68-0.0391-3.68-0.0391-0.907 2.38c-1.75 4.59-1.73 5.09 0.23 5.09 0.55 0 0.652 0.0427 0.61 0.256-0.046 0.239-0.47 0.256-6.49 0.25l0.646-0.892c0.898-0.568 1.14-1.05 3.36-6.64 4.26-10.7 6.51-16.2 6.77-16.5l0.3-0.295 0.337 0.387c0.185 0.213 2 4.56 4.03 9.66s4.05 10 4.47 10.9c1.2 2.49 1.88 2.93 4.43 2.82zm-11.3-9.85c0-0.121-0.258-0.928-0.572-1.79-0.315-0.865-0.869-2.4-1.23-3.4-1.01-2.81-0.981-2.74-1.12-2.49-0.153 0.274-2.93 7.67-2.93 7.81 0 0.0541 1.32 0.0983 2.93 0.0983 2.51 0 2.93-0.0315 2.93-0.22z"/>
		<use xlink:href="#a" transform="translate(169 .147)" height="957" width="2049" y="0" x="0"/>
	</g>
</svg>
