<?xml version="1.0" encoding="utf-8"?>
<!-- Generator: Adobe Illustrator 16.0.5, SVG Export Plug-In . SVG Version: 6.00 Build 0)  -->
<!DOCTYPE svg PUBLIC "-//W3C//DTD SVG 1.1//EN" "http://www.w3.org/Graphics/SVG/1.1/DTD/svg11.dtd">
<svg version="1.1" id="FINAL_saturate" xmlns="http://www.w3.org/2000/svg" xmlns:xlink="http://www.w3.org/1999/xlink" x="0px"
	 y="0px" width="304.313px" height="105.654px" viewBox="0 0 304.313 105.654" enable-background="new 0 0 304.313 105.654"
	 xml:space="preserve">
<g>
	<g>
		<path fill="#2473BB" d="M72.013,89.869V30.892h22.986c3.889,0,7.114,0.404,9.677,1.211c2.565,0.806,4.782,2.492,6.655,5.055
			c1.873,2.564,2.809,5.574,2.809,9.031c0,3.256-0.951,6.086-2.852,8.49c-1.9,2.403-4.523,3.938-7.864,4.602
			c4.149,0.72,7.287,2.406,9.42,5.056c2.131,2.651,3.198,5.787,3.198,9.418c0,4.552-1.491,8.375-4.473,11.472
			c-2.98,3.098-7.569,4.644-13.762,4.644H72.013z M82.078,55.651h12.964c2.65,0,4.746-0.793,6.286-2.377
			c1.542-1.584,2.312-3.6,2.312-6.049c0-2.707-0.88-4.703-2.635-5.984c-1.758-1.282-3.817-1.922-6.177-1.922h-12.75V55.651z
			 M82.078,81.013h13.741c2.91,0,5.206-0.763,6.892-2.289c1.685-1.527,2.528-3.586,2.528-6.181c0-2.476-0.857-4.506-2.57-6.092
			c-1.715-1.584-3.983-2.376-6.808-2.376H82.078V81.013z"/>
		<path fill="#2473BB" d="M131.469,41.131h-9.851V30.892h9.851V41.131z M131.469,89.87h-9.851V46.231h9.851V89.87z"/>
		<path fill="#2473BB" d="M156.832,90.778c-6.452,0-11.378-2.318-14.776-6.957c-3.398-4.638-5.1-9.951-5.1-15.943
			c0-6.452,1.881-11.825,5.638-16.116c3.761-4.293,8.723-6.438,14.888-6.438c5.847,0,10.65,2.09,14.409,6.266
			c3.759,4.177,5.637,9.607,5.637,16.289c0,6.884-1.949,12.422-5.853,16.613C167.771,88.682,162.823,90.778,156.832,90.778
			 M157.178,82.655c6.626,0,9.938-4.939,9.938-14.82c0-4.465-0.793-7.987-2.377-10.564c-1.584-2.578-4.018-3.867-7.303-3.867
			c-3.398,0-5.918,1.334-7.562,3.996c-1.642,2.665-2.464,6.202-2.464,10.607c0,4.753,0.871,8.382,2.616,10.888
			C151.771,81.403,154.153,82.655,157.178,82.655"/>
		<path fill="#2473BB" d="M253.064,75.958l8.902,1.211c-1.152,3.944-3.401,7.201-6.739,9.763c-3.345,2.565-7.534,3.846-12.574,3.846
			c-6.049,0-10.918-2.03-14.605-6.092c-3.687-4.062-5.529-9.563-5.529-16.506c0-6.595,1.856-12.054,5.573-16.375
			c3.716-4.321,8.756-6.481,15.123-6.481c6.222,0,11.032,2.133,14.43,6.396c3.398,4.261,5.1,9.736,5.1,16.418l-0.042,1.123h-29.943
			c0,2.966,0.281,5.343,0.841,7.128c0.563,1.788,1.678,3.342,3.352,4.666c1.669,1.327,3.756,1.989,6.264,1.989
			C248.082,83.044,251.366,80.682,253.064,75.958 M252.461,62.909c-0.029-3.14-0.972-5.703-2.83-7.689
			c-1.858-1.989-4.155-2.982-6.892-2.982c-2.708,0-4.969,0.928-6.783,2.787c-1.815,1.857-2.88,4.486-3.197,7.885H252.461z"/>
		<path fill="#2473BB" d="M304.313,89.869h-9.854V62.605c0-2.879-0.659-5.047-1.984-6.502c-1.326-1.455-2.924-2.181-4.796-2.181
			c-2.565,0-4.811,1.123-6.741,3.369c-1.931,2.248-2.896,5.633-2.896,10.153v22.424h-9.85V46.23h8.987v10.11
			c3.14-7.344,7.545-11.018,13.221-11.018c3.83,0,7.107,1.209,9.83,3.631c2.724,2.42,4.083,6.668,4.083,12.743V89.869z"/>
		<path fill="#2473BB" d="M213.298,48.903c3.471,2.836,5.206,5.988,5.206,9.459c0,3.876-1.625,7.085-4.882,9.63
			c-3.253,2.548-7.555,3.818-12.906,3.818c-2.314,0-5.019-0.375-8.114-1.126c-2.025,0.925-3.037,2.357-3.037,4.294
			c0,1.073,0.491,2.055,1.475,2.952c0.982,0.898,2.472,1.345,4.469,1.345h13.016c4.455,0,7.948,1.149,10.479,3.45
			c2.531,2.298,3.797,5.156,3.797,8.568c0,4.137-1.916,7.563-5.749,10.28c-3.833,2.722-9.509,4.08-17.03,4.08
			c-14.145,0-21.217-3.946-21.217-11.845c0-3.903,2.127-6.87,6.379-8.895c-2.72-2.313-4.078-4.73-4.078-7.246
			c0-3.817,2.328-6.856,6.985-9.109c-4.051-2.461-6.073-5.844-6.073-10.154c0-3.643,1.487-6.755,4.469-9.33
			c2.979-2.572,7.503-3.859,13.58-3.859c2.775,0,5.595,0.303,8.458,0.912 M189.435,87.562c-1.418,1.301-2.126,2.56-2.126,3.774
			c0,1.996,1.186,3.752,3.558,5.271c2.372,1.521,6.145,2.28,11.325,2.28c7.606,0,11.41-1.953,11.41-5.858
			c0-1.446-0.665-2.539-1.997-3.274c-1.329-0.738-2.85-1.108-4.555-1.108h-10.5C194.556,88.646,192.183,88.285,189.435,87.562
			 M200.281,65.956c5.379,0,8.07-2.531,8.07-7.594c0-1.938-0.673-3.57-2.017-4.902c-1.347-1.33-3.305-1.996-5.88-1.996
			c-2.603,0-4.62,0.693-6.051,2.082c-1.436,1.389-2.149,3.125-2.149,5.207c0,2.141,0.709,3.877,2.125,5.207
			C195.798,65.29,197.765,65.956,200.281,65.956"/>
		<polyline fill="#2473BB" points="207.643,46.47 220.463,42.155 221.872,50.546 214.793,51.168 		"/>
	</g>
	<g id="circle_1_">
		<defs>
			<path id="SVGID_1_" d="M7.786,27.812c0,15.359,12.451,27.808,27.807,27.808c15.361,0,27.812-12.448,27.812-27.808
				C63.405,12.451,50.954,0,35.593,0C20.237,0,7.786,12.451,7.786,27.812"/>
		</defs>
		<clipPath id="SVGID_2_">
			<use xlink:href="#SVGID_1_"  overflow="visible"/>
		</clipPath>
		<g clip-path="url(#SVGID_2_)">
			<linearGradient id="_x33__1_" gradientUnits="userSpaceOnUse" x1="6.7295" y1="36.8682" x2="65.5503" y2="36.8682">
				<stop  offset="0.0034" style="stop-color:#D6E6A6"/>
				<stop  offset="1" style="stop-color:#D3DEAA"/>
			</linearGradient>
			<path id="_x33__2_" fill="url(#_x33__1_)" d="M63.124,14.592c2.887,6.931,3.308,15.017,0.617,22.867
				c-4.875,14.222-19.915,4.932-31.567-8.167c-5.806,1.757-10.833,2.811-14.846,3.692c-11.37,2.5-14.634,3.651-4.626,15.698
				c17.673,21.273,35.466,11.104,47.129-4.084c2.123-2.766,4.04-5.694,5.719-8.633V12.924
				C64.737,13.497,63.928,14.054,63.124,14.592z"/>
			<linearGradient id="_x32__1_" gradientUnits="userSpaceOnUse" x1="65.542" y1="29.5947" x2="32.1738" y2="29.5947">
				<stop  offset="0" style="stop-color:#CDD894"/>
				<stop  offset="0.3285" style="stop-color:#BFCF83"/>
				<stop  offset="1" style="stop-color:#9EBA56"/>
			</linearGradient>
			<path id="_x32__2_" fill="url(#_x32__1_)" d="M63.741,37.459c2.69-7.851,2.27-15.937-0.617-22.867
				c-11.585,7.761-22.163,12.042-30.95,14.7C43.826,42.391,58.866,51.681,63.741,37.459z"/>
			
				<linearGradient id="_x31__1_" gradientUnits="userSpaceOnUse" x1="-260.7861" y1="283.2002" x2="-259.9717" y2="282.9736" gradientTransform="matrix(-42.0394 -40.716 -40.8604 44.6021 668.1826 -23204.9141)">
				<stop  offset="0.0028" style="stop-color:#CFE294"/>
				<stop  offset="0.173" style="stop-color:#B9D187"/>
				<stop  offset="0.5223" style="stop-color:#87B268"/>
				<stop  offset="1" style="stop-color:#338D45"/>
			</linearGradient>
			<path id="_x31__2_" fill="url(#_x31__1_)" d="M63.124,14.592C57.249,0.487,41.11-8.817,19.831-1.489
				c-1.739,0.599-2.508,2.089-2.503,4.184v0.014c0.023,6.096,6.583,17.297,14.846,26.584C40.961,26.634,51.539,22.353,63.124,14.592
				z"/>
		</g>
		<g opacity="0.92" clip-path="url(#SVGID_2_)">
			<g>
				<g>
					<defs>
						<path id="SVGID_3_" d="M42.988,26.913C31.838-7.343,8.201-10.813,1.042,16.167C-13.453,70.808,47.417,40.52,42.988,26.913z"/>
					</defs>
					<clipPath id="SVGID_4_">
						<use xlink:href="#SVGID_3_"  overflow="visible"/>
					</clipPath>
					
						<radialGradient id="SVGID_5_" cx="-259.2515" cy="278.6602" r="1" gradientTransform="matrix(23.4752 0 0 -23.4752 6109.2368 6565.9858)" gradientUnits="userSpaceOnUse">
						<stop  offset="0" style="stop-color:#010101"/>
						<stop  offset="0.0919" style="stop-color:#1F2428"/>
						<stop  offset="0.2143" style="stop-color:#35404A"/>
						<stop  offset="0.34" style="stop-color:#46596B"/>
						<stop  offset="0.4668" style="stop-color:#536F8A"/>
						<stop  offset="0.5949" style="stop-color:#5C80A4"/>
						<stop  offset="0.7251" style="stop-color:#618DB8"/>
						<stop  offset="0.8585" style="stop-color:#6595C6"/>
						<stop  offset="1" style="stop-color:#6699CC"/>
					</radialGradient>
					<rect x="-11.212" y="-9.377" clip-path="url(#SVGID_4_)" fill="url(#SVGID_5_)" width="60.868" height="81.62"/>
				</g>
			</g>
		</g>
	</g>
	<g id="outer_1_">
		<defs>
			<path id="SVGID_6_" d="M0,27.812c0,6,1.82,11.578,4.938,16.207c13.094-2.063,27.898-13.127,25.693-20.381
				C27.46,13.206,22.737,5.72,17.877,0.981C7.379,5.362,0,15.726,0,27.812"/>
		</defs>
		<clipPath id="SVGID_7_">
			<use xlink:href="#SVGID_6_"  overflow="visible"/>
		</clipPath>
		
			<radialGradient id="SVGID_8_" cx="-262.4043" cy="281.0508" r="1.0004" gradientTransform="matrix(3.5698 -31.4823 -18.6516 -2.0091 6187.9741 -7676.0806)" gradientUnits="userSpaceOnUse">
			<stop  offset="0" style="stop-color:#E7F2F8"/>
			<stop  offset="0.1166" style="stop-color:#CADBED"/>
			<stop  offset="0.3002" style="stop-color:#A5C1E1"/>
			<stop  offset="0.4829" style="stop-color:#89AED7"/>
			<stop  offset="0.6622" style="stop-color:#76A2D1"/>
			<stop  offset="0.8365" style="stop-color:#6A9BCD"/>
			<stop  offset="1" style="stop-color:#6699CC"/>
		</radialGradient>
		<polygon clip-path="url(#SVGID_7_)" fill="url(#SVGID_8_)" points="-4.821,43.5 0.397,-2.519 37.721,1.501 32.503,47.521 		"/>
	</g>
</g>
</svg>
