<?xml version="1.0" encoding="UTF-8" standalone="no"?>
<!-- Created with Inkscape (http://www.inkscape.org/) -->

<svg
   xmlns:dc="http://purl.org/dc/elements/1.1/"
   xmlns:cc="http://creativecommons.org/ns#"
   xmlns:rdf="http://www.w3.org/1999/02/22-rdf-syntax-ns#"
   xmlns:svg="http://www.w3.org/2000/svg"
   xmlns="http://www.w3.org/2000/svg"
   xmlns:sodipodi="http://sodipodi.sourceforge.net/DTD/sodipodi-0.dtd"
   xmlns:inkscape="http://www.inkscape.org/namespaces/inkscape"
   width="150"
   height="51.906231"
   id="svg2"
   version="1.1"
   inkscape:version="0.48.2 r9819"
   sodipodi:docname="New document 1">
  <defs
     id="defs4">
    <clipPath
       id="clipPath3351"
       clipPathUnits="userSpaceOnUse">
      <path
         id="path3353"
         d="m 446.118,1.119 135.355,0 0,71.281 -135.355,0 0,-71.281 z"
         inkscape:connector-curvature="0" />
    </clipPath>
    <clipPath
       id="clipPath3329"
       clipPathUnits="userSpaceOnUse">
      <path
         id="path3331"
         d="m 203.52,760.144 373.569,0 0,-167.144 -373.569,0 0,167.144 z"
         inkscape:connector-curvature="0" />
    </clipPath>
    <clipPath
       id="clipPath3315"
       clipPathUnits="userSpaceOnUse">
      <path
         id="path3317"
         d="m 207,757 424.72,0 0,-164 -424.72,0 0,164 z"
         inkscape:connector-curvature="0" />
    </clipPath>
    <clipPath
       id="clipPath3301"
       clipPathUnits="userSpaceOnUse">
      <path
         id="path3303"
         d="m -1,757 38,0 0,-164 -38,0 0,164 z"
         inkscape:connector-curvature="0" />
    </clipPath>
    <clipPath
       id="clipPath3293"
       clipPathUnits="userSpaceOnUse">
      <path
         id="path3295"
         d="M 0,0 612,0 612,792 0,792 0,0 z"
         inkscape:connector-curvature="0" />
    </clipPath>
    <clipPath
       id="clipPath3021"
       clipPathUnits="userSpaceOnUse">
      <path
         id="path3023"
         d="m 181.88,757 27.12,0 0,-164 -27.12,0 0,164 z"
         inkscape:connector-curvature="0" />
    </clipPath>
    <clipPath
       id="clipPath3013"
       clipPathUnits="userSpaceOnUse">
      <path
         id="path3015"
         d="M 0,0 612,0 612,792 0,792 0,0 z"
         inkscape:connector-curvature="0" />
    </clipPath>
    <clipPath
       id="clipPath2999"
       clipPathUnits="userSpaceOnUse">
      <path
         id="path3001"
         d="m 0,594 194.96,0 0,162 L 0,756 0,594 z"
         inkscape:connector-curvature="0" />
    </clipPath>
  </defs>
  <sodipodi:namedview
     id="base"
     pagecolor="#ffffff"
     bordercolor="#666666"
     borderopacity="1.0"
     inkscape:pageopacity="0.0"
     inkscape:pageshadow="2"
     inkscape:zoom="3.959798"
     inkscape:cx="162.68313"
     inkscape:cy="21.737189"
     inkscape:document-units="px"
     inkscape:current-layer="g2993"
     showgrid="false"
     fit-margin-left="0.5"
     fit-margin-bottom="0.5"
     fit-margin-top="0.5"
     fit-margin-right="0.5"
     inkscape:window-width="1920"
     inkscape:window-height="1028"
     inkscape:window-x="-8"
     inkscape:window-y="-8"
     inkscape:window-maximized="1" />
  <metadata
     id="metadata7">
    <rdf:RDF>
      <cc:Work
         rdf:about="">
        <dc:format>image/svg+xml</dc:format>
        <dc:type
           rdf:resource="http://purl.org/dc/dcmitype/StillImage" />
        <dc:title></dc:title>
      </cc:Work>
    </rdf:RDF>
  </metadata>
  <g
     inkscape:label="Layer 1"
     inkscape:groupmode="layer"
     id="layer1"
     transform="translate(-557.58463,-939.34567)">
    <g
       transform="matrix(1.25,0,0,-1.25,-7.5,1018.9724)"
       inkscape:label="factsheet"
       id="g2993">
      <g
         id="g3347"
         transform="matrix(0.96642798,0,0,0.96642798,15.190255,0.75793529)">
        <g
           clip-path="url(#clipPath3351)"
           id="g3349">
          <g
             transform="translate(482.9877,52.781906)"
             id="g3355">
            <path
               id="path3357"
               style="fill:#b07e25;fill-opacity:1;fill-rule:nonzero;stroke:none"
               d="M 0,0 -14.638,5.723 C -17.784,4.002 -20.355,2.01 -22.442,0 c 2.087,-2.006 4.658,-3.997 7.804,-5.723 L 0,0 z"
               inkscape:connector-curvature="0" />
          </g>
          <g
             transform="translate(452.4677,64.716095)"
             id="g3359">
            <path
               id="path3361"
               style="fill:#a7a5a6;fill-opacity:1;fill-rule:nonzero;stroke:none"
               d="m 0,0 c 0,0 1.55,-5.038 6.636,-10.465 2.255,1.733 4.973,3.312 8.202,4.666 L 0,0 z"
               inkscape:connector-curvature="0" />
          </g>
          <g
             transform="translate(452.4677,40.850098)"
             id="g3363">
            <path
               id="path3365"
               style="fill:#a49668;fill-opacity:1;fill-rule:nonzero;stroke:none"
               d="M 0,0 C 0,0 1.55,5.035 6.636,10.464 8.891,8.731 11.609,7.156 14.838,5.8 L 0,0 z"
               inkscape:connector-curvature="0" />
          </g>
          <g
             transform="translate(526.9435,23.944397)"
             id="g3367">
            <path
               id="path3369"
               style="fill:#4f4c4d;fill-opacity:1;fill-rule:nonzero;stroke:none"
               d="m 0,0 -4.141,0 0,4.535 3.126,0 0,-1.363 1.048,0 0,3.736 -1.048,0 0,-1.345 -3.126,0 0,4.321 3.979,0 0,-1.514 1.031,0 0,3.059 -1.048,0 0,-0.501 -7.291,0 0,-0.884 1.329,0 0,-10.178 -1.329,0 0,-0.894 8.518,0 0,2.596 L 0,1.568 0,0 z m 45.062,10.928 0,-0.884 1.349,0 0,-7.581 -6.183,8.465 -3.101,0 0,-0.884 1.284,0 0.425,-0.599 0,-9.579 -1.347,0 0,-0.894 3.817,0 0,0.894 -1.351,0 0,8.054 6.645,-9.147 0.933,0 0,11.271 1.332,0 0,0.884 -3.803,0 z m -15.4,0.216 c -3.282,0 -5.956,-2.786 -5.956,-6.212 0,-3.413 2.674,-6.19 5.956,-6.19 3.259,0 5.907,2.786 5.907,6.21 0,3.415 -2.648,6.192 -5.907,6.192 m 0,-11.245 c -2.218,0 -3.762,2.079 -3.762,5.053 0,2.967 1.558,5.035 3.782,5.035 2.175,0 3.695,-2.068 3.695,-5.035 0,-2.974 -1.526,-5.053 -3.715,-5.053 m -46.808,2.434 -4.026,8.595 -3.338,0 0,-0.884 1.348,0 0,-10.178 -1.348,0 0,-0.894 3.819,0 0,0.894 -1.348,0 0,8.294 4.459,-9.528 4.234,9.318 0,-8.084 -1.33,0 0,-0.894 4.663,0 0,0.894 -1.337,0 0,10.178 1.337,0 0,0.884 -3.172,0 -3.961,-8.595 z M 11.214,0 7.282,0 l 0,10.044 1.336,0 0,0.884 -4.672,0 0,-0.884 1.335,0 0,-10.178 -1.335,0 0,-0.894 8.318,0 0,2.596 -1.05,0 0,-1.568 z m 10.247,0 -3.942,0 0,10.044 1.332,0 0,0.884 -4.666,0 0,-0.884 1.338,0 0,-10.178 -1.338,0 0,-0.894 8.318,0 0,2.596 -1.042,0 0,-1.568 z m -56.621,10.044 1.53,0 -2.569,-4.238 -2.761,4.238 1.386,0 0,0.884 -4.828,0 0,-0.884 1.078,0 3.636,-5.59 0,-4.588 -1.332,0 0,-0.894 4.663,0 0,0.894 -1.35,0 0,4.693 3.362,5.485 0.969,0 0,0.884 -3.784,0 0,-0.884 z m -24.465,-4.76 c 1.135,0.323 2.194,1.207 2.194,2.621 0,1.837 -1.363,3.023 -3.478,3.023 l -5.489,0 0,-0.884 1.332,0 0,-10.178 -1.332,0 0,-0.894 5.803,0 c 2.239,0 3.734,1.273 3.734,3.172 0,1.878 -1.348,2.832 -2.764,3.14 m -3.44,4.6 1.466,0 c 0.778,0 2.082,-0.268 2.082,-2.049 0,-1.48 -1.095,-2.145 -2.179,-2.145 l -1.369,0 0,4.194 z M -61.533,0 l -1.532,0 0,4.657 1.532,0 c 1.594,0 2.623,-0.951 2.623,-2.422 C -58.91,0.588 -60.319,0 -61.533,0 m 14.414,10.044 1.355,0 0,-7.581 -6.19,8.465 -3.091,0 0,-0.884 1.278,0 0.422,-0.599 0,-9.583 -1.351,0 0,-0.89 3.819,0 0,0.89 -1.345,0 0,8.058 6.646,-9.147 0.929,0 0,11.271 1.333,0 0,0.884 -3.805,0 0,-0.884 z"
               inkscape:connector-curvature="0" />
          </g>
        </g>
      </g>
    </g>
  </g>
</svg>
