<?xml version="1.0" encoding="UTF-8" standalone="no"?>
<!-- Created with Inkscape (http://www.inkscape.org/) -->

<svg
   xmlns:svg="http://www.w3.org/2000/svg"
   xmlns="http://www.w3.org/2000/svg"
   xmlns:xlink="http://www.w3.org/1999/xlink"
   version="1.1"
   width="300"
   height="300"
   id="svg2"
   xml:space="preserve"><defs
     id="defs6"><clipPath
       id="clipPath18"><path
         d="M 0,0 612,0 612,792 0,792 0,0 z"
         id="path20" /></clipPath><clipPath
       id="clipPath26"><path
         d="M 0,0 612,0 612,792 0,792 0,0"
         id="path28" /></clipPath><linearGradient
       x1="0"
       y1="0"
       x2="1"
       y2="0"
       id="linearGradient5158"
       gradientUnits="userSpaceOnUse"
       gradientTransform="matrix(503,115.5,115.5,-503,70.484985,891.02132)"
       spreadMethod="pad"><stop
         id="stop5160"
         style="stop-color:#ffffff;stop-opacity:1"
         offset="0" /><stop
         id="stop5162"
         style="stop-color:#4fadc6;stop-opacity:1"
         offset="1" /></linearGradient><linearGradient
       x1="0"
       y1="0"
       x2="1"
       y2="0"
       id="linearGradient10601"
       xlink:href="#linearGradient5158"
       gradientUnits="userSpaceOnUse"
       gradientTransform="matrix(503,115.5,115.5,-503,70.484985,891.02132)"
       spreadMethod="pad" /><linearGradient
       x1="0"
       y1="0"
       x2="1"
       y2="0"
       id="linearGradient10617"
       xlink:href="#linearGradient5158"
       gradientUnits="userSpaceOnUse"
       gradientTransform="matrix(503,115.5,115.5,-503,70.484985,891.02132)"
       spreadMethod="pad" /><linearGradient
       x1="0"
       y1="0"
       x2="1"
       y2="0"
       id="linearGradient10632"
       xlink:href="#linearGradient5158"
       gradientUnits="userSpaceOnUse"
       gradientTransform="matrix(503,115.5,115.5,-503,70.484985,891.02132)"
       spreadMethod="pad" /><linearGradient
       x1="0"
       y1="0"
       x2="1"
       y2="0"
       id="linearGradient10641"
       xlink:href="#linearGradient5158"
       gradientUnits="userSpaceOnUse"
       gradientTransform="matrix(503,115.5,115.5,-503,70.484985,891.02132)"
       spreadMethod="pad" /><linearGradient
       x1="0"
       y1="0"
       x2="1"
       y2="0"
       id="linearGradient10649"
       xlink:href="#linearGradient5158"
       gradientUnits="userSpaceOnUse"
       gradientTransform="matrix(503,115.5,115.5,-503,70.484985,891.02132)"
       spreadMethod="pad" /><linearGradient
       x1="0"
       y1="0"
       x2="1"
       y2="0"
       id="linearGradient10656"
       xlink:href="#linearGradient5158"
       gradientUnits="userSpaceOnUse"
       gradientTransform="matrix(503,115.5,115.5,-503,70.484985,891.02132)"
       spreadMethod="pad" /><linearGradient
       x1="0"
       y1="0"
       x2="1"
       y2="0"
       id="linearGradient10662"
       xlink:href="#linearGradient5158"
       gradientUnits="userSpaceOnUse"
       gradientTransform="matrix(503,115.5,115.5,-503,70.484985,891.02132)"
       spreadMethod="pad" /><linearGradient
       x1="0"
       y1="0"
       x2="1"
       y2="0"
       id="linearGradient10667"
       xlink:href="#linearGradient5158"
       gradientUnits="userSpaceOnUse"
       gradientTransform="matrix(503,115.5,115.5,-503,70.484985,891.02132)"
       spreadMethod="pad" /><linearGradient
       x1="0"
       y1="0"
       x2="1"
       y2="0"
       id="linearGradient10671"
       xlink:href="#linearGradient5158"
       gradientUnits="userSpaceOnUse"
       gradientTransform="matrix(503,115.5,115.5,-503,70.484985,891.02132)"
       spreadMethod="pad" /><linearGradient
       x1="0"
       y1="0"
       x2="1"
       y2="0"
       id="linearGradient10674"
       xlink:href="#linearGradient5158"
       gradientUnits="userSpaceOnUse"
       gradientTransform="matrix(503,115.5,115.5,-503,75.23099,673.8916)"
       spreadMethod="pad" /></defs><g
     transform="matrix(1.25,0,0,-1.25,0,300)"
     id="g12"><g
       clip-path="url(#clipPath18)"
       id="g16"><g
         id="g22"><g
           clip-path="url(#clipPath26)"
           id="g24"><g
             transform="matrix(4.4866791,0,0,4.4866791,-175.80355,-2185.3132)"
             id="g10676"><path
               d="m 40.746005,538.87028 50.38089,0 0,-50.38092 -50.38089,0 0,50.38092"
               id="path5116"
               style="fill:#4cadc7;fill-opacity:1;fill-rule:nonzero;stroke:none" /><path
               d="m 42.057045,502.94059 c 1.41064,2.50867 2.27246,4.09961 3.72363,6.37396 4.33398,6.50983 5.05032,8.66803 9.74463,14.70807 0.49859,0.47559 2.4165,3.00287 2.88971,3.37787 -2.75241,0.23542 -5.90332,-0.86236 -6.84912,-1.2207 -3.74909,-1.79877 -5.78522,-4.33301 -6.14655,-5.06049 -0.49219,-0.83789 -0.72852,-2.0332 -0.35498,-2.76172 0.23679,-0.49316 0.83447,-1.19628 2.16113,-1.19628 -0.73489,-0.86329 -1.56347,-0.86329 -2.41601,-0.86329 -1.42627,0 -2.16065,0.86329 -2.53418,1.68457 -0.34326,0.97852 -0.10013,2.18055 0.25488,3.02051 1.20752,2.88379 5.05029,5.1767 6.99268,5.9043 3.72415,1.33203 5.64804,1.80762 9.86383,1.54779 0.83349,0.86334 1.92431,1.57135 2.54049,1.94244 1.06491,0.72657 2.15479,0.72657 2.88962,0.61036 0.71488,-0.11817 0.8335,-0.72852 0.71488,-1.21582 -0.11719,-0.35645 -0.37891,-0.5918 -0.71488,-0.96094 -0.13721,0.4873 -0.61761,1.19531 -1.58249,0.84375 -0.479,-0.23926 -0.95263,-0.60938 -2.16061,-1.55384 1.0766,-0.28991 1.8374,-0.62988 2.3164,-1.07031 0.3393,-0.31433 0.564,-0.61023 0.69187,-0.87103 0.39841,-0.8183 0.85202,-2.52631 -0.37348,-4.2168 -0.59771,-0.7207 -2.043,-2.87689 -6.3829,-3.60541 1.08942,-0.72656 3.01321,-1.80566 2.17969,-5.0606 -0.23728,-1.19635 -1.56348,-4.71003 -4.9321,-6.37397 -1.0708,-0.49322 -2.65277,-0.72766 -4.21585,0 -0.83447,0.35144 -1.4512,1.07911 -1.94287,1.66394 l 0.97168,2.18274 c -0.09961,-0.37597 -0.48001,-0.96203 -0.36136,-1.32043 0.49808,-0.86231 2.06259,-1.1806 3.14462,-1.23242 0.75729,-0.0361 1.43158,0.17688 2.02979,0.60455 2.2236,1.59076 4.3779,6.19525 3.1264,7.73053 -0.48041,0.75391 -1.18311,1.0791 -2.15469,1.19525 -0.83451,0 -1.66169,-0.0956 -2.41611,-0.72662 l 1.4444,2.5332 c -0.09961,-0.35046 0.06002,-0.41107 0.1372,-0.46765 0.40332,-0.30371 1.80609,-0.3584 2.9892,0 3.2691,1.07703 5.3111,4.80078 4.95609,6.49023 -0.11377,0.40528 -0.47901,1.21473 -2.16019,1.6825 -0.4921,-0.35144 -2.17969,-2.52722 -3.62451,-4.70203 -2.04248,-3.00305 -4.20261,-6.35656 -6.02149,-10.10449 -1.56936,-2.88483 -2.29739,-4.82727 -3.60498,-7.93957 l -4.81347,-1.57215"
               id="path5126"
               style="fill:#ffffff;fill-opacity:1;fill-rule:nonzero;stroke:none" /><path
               d="m 81.666505,519.85844 c -0.13721,-1.56433 1.31391,-3.44238 4.80118,-3.19037 1.56842,0.11908 3.26862,0.66602 4.97562,1.14056 l 0,-1.4541 c -2.18161,-0.55371 -3.35151,-0.86328 -5.56742,-1.51062 -3.46869,-1.03625 -4.81299,-1.42871 -8.31979,-2.62603 -3.36859,-1.331 -9.5303,-3.55268 -15.15582,-6.75 -5.22016,-2.96576 -7.98188,-4.99714 -12.6406,-8.78418 -3.77051,-3.06543 -5.80224,-4.93262 -9.17239,-8.43262 l 0,6.25677 c 1.82522,1.68952 9.52737,6.9834 14.93802,9.86243 5.5484,2.90417 10.125,5.07898 16.62021,7.73035 2.6596,0.96191 9.27188,2.94043 10.74069,3.48938 -0.99512,0.23437 -1.46289,0.2666 -2.1792,0.82605 -0.52783,0.41223 -0.78809,0.73156 -1.08942,1.33111 -1.0708,-1.0791 -1.5683,-1.44916 -2.27881,-2.03912 -1.35147,-0.96277 -3.17578,-2.06537 -4.45846,-1.39343 -0.54883,0.28216 -0.74613,0.69238 -0.97174,1.27539 -1.07117,-1.33112 -4.10349,-4.70313 -5.43009,-3.62403 -0.23639,0.13465 -0.45358,0.86231 -0.45358,1.331 -0.73492,-1.09772 -1.42679,-1.82416 -2.18021,-2.4101 -1.1455,-0.90735 -2.45221,-0.62903 -2.88971,-0.24029 -0.26019,0.21576 -0.49749,0.69036 -0.36029,1.92291 0.1987,1.82422 2.02341,4.66601 3.03269,5.92377 1.3696,1.68853 2.61471,2.6875 3.686,2.62603 0.6543,-0.0187 1.12552,-0.23053 1.36231,-0.83398 l -0.7392,-1.50293 c 0.0571,0.35449 0.02341,0.59473 -0.13141,0.6543 -0.3266,0.19433 -0.72699,0.0664 -1.12198,-0.20813 -0.32232,-0.22358 -0.6709,-0.51459 -0.9537,-0.82318 -0.46039,-0.5019 -0.95361,-1.10456 -1.34863,-1.70899 -0.82468,-1.2558 -1.2685,-2.5957 -0.77237,-3.16498 0.28848,-0.38196 1.00729,-0.16906 1.68399,0.41394 0.31738,0.27454 0.52301,0.46204 0.90918,1.03138 0.84433,1.24505 1.58694,2.89648 1.73492,3.80566 l 0.76511,1.57996 c 0,0 0.31741,0.52356 0.55471,0.99816 l 1.94288,0.25184 c -0.7349,-1.57215 -3.01368,-6.50965 -2.42188,-6.86707 0.59769,-0.37024 2.27878,1.31927 3.01367,2.1582 0.11759,1.22071 0.35453,2.05762 0.73392,3.02051 0.5918,1.43652 1.6626,3.72949 2.9892,5.65234 1.82467,2.5448 3.98489,5.19629 5.4302,5.43165 0.47309,0.11621 1.07129,0 1.20798,-0.72852 0,-0.11621 0.11771,-0.84375 -0.47998,-2.15833 -0.4917,-1.09564 -1.46292,-2.78601 -2.17331,-3.86413 -1.44971,-2.29401 -2.6582,-3.72376 -3.7486,-4.9375 -0.35488,-0.3584 -0.871,-0.92481 -1.68161,-1.68848 l 0.37452,1.92273 c 1.80569,1.44934 3.2315,3.60651 4.81399,6.27454 0.36029,0.70984 1.18848,2.29284 0.71481,2.62689 -0.35452,0.25983 -1.80563,-0.9375 -3.48681,-3.72357 -0.85248,-1.3125 -2.16059,-4.33301 -2.04199,-5.17786 l -0.37113,-1.92865 c -0.06149,-0.91894 0.19684,-1.65912 1.69684,-1.3681 1.07178,0.17767 1.78708,0.64648 3.72998,2.8291 0.35498,1.91699 0.71039,3.01947 1.44531,4.56738 0.728,1.80561 1.68161,3.39063 2.2793,4.3515 1.1636,1.76862 1.97998,2.45417 2.88919,3.23639 0.61661,0.54883 2.39639,1.45411 3.1503,0.84571 0.336,-0.25391 0.23688,-1.09766 -0.0376,-1.94239 -0.24261,-0.6289 -0.93347,-2.31164 -2.1416,-3.9649 -0.95212,-1.31152 -2.14209,-2.80475 -3.25,-3.95703 -0.65472,-0.69037 -1.5639,-1.81842 -2.1626,-2.29401 l 0.21979,1.68567 c 1.37299,1.05756 3.34961,3.64649 4.69379,6.02149 0.49902,0.89941 1.21533,2.29296 0.6177,2.39062 -0.85348,0.37109 -2.88971,-2.62604 -3.72458,-4.0802 -0.85208,-1.56531 -1.4512,-3.31042 -1.57568,-4.25391 l -0.23581,-1.83398"
               id="path5128"
               style="fill:#ffffff;fill-opacity:1;fill-rule:evenodd;stroke:none" /></g></g></g></g></g></svg>