<?xml version="1.0" encoding="utf-8"?>
<!-- Generator: Adobe Illustrator 15.1.0, SVG Export Plug-In . SVG Version: 6.00 Build 0)  -->
<!DOCTYPE svg PUBLIC "-//W3C//DTD SVG 1.0//EN" "http://www.w3.org/TR/2001/REC-SVG-20010904/DTD/svg10.dtd">
<svg version="1.0" id="Layer_1" xmlns="http://www.w3.org/2000/svg" xmlns:xlink="http://www.w3.org/1999/xlink" x="0px" y="0px"
	 width="562.704px" height="110px" viewBox="0 0 562.704 110" enable-background="new 0 0 562.704 110" xml:space="preserve">
<g>
	<path fill="#0063A2" d="M490.287,18.315c0,1.84,1.55,3.39,3.391,3.39c1.845,0,3.396-1.55,3.396-3.39s-1.551-3.39-3.396-3.39
		C491.837,14.925,490.287,16.476,490.287,18.315 M536.901,13.958c0-1.262-0.483-1.652-1.16-1.652c-0.578,0-1.257,0.39-2.13,0.779
		l-4.168,1.84c-0.872,0.389-1.068,0.678-1.068,1.161c0,0.49,0.39,0.873,1.262,0.873c1.357,0,1.84,0.39,1.84,2.135v28.783
		c0,1.355-0.39,1.645-1.55,1.746c-0.872,0.093-1.257,0.483-1.257,1.161c0,2.035,6.978,3.585,12.112,3.585
		c8.527,0,13.088-5.425,13.088-13.958c0-5.908-2.229-12.401-9.985-12.401c-3.008,0-5.815,1.356-5.815,2.619
		c0,0.483,0.384,0.967,0.967,0.967c0.967,0,1.552-0.873,3.585-0.873c3.196,0,5.232,3.39,5.232,9.5
		c0,7.754-2.324,11.044-6.487,11.044c-3.008,0-4.465-1.068-4.465-4.847V13.958z M425.552,44.097c0,3.78-2.423,6.781-7.076,6.781
		c-3.491,0-6.399-1.739-8.238-3.975c-1.652-1.934-1.551-2.807-3.103-2.807c-0.967,0-1.45,0.779-1.45,1.551
		c0,0.678,0.29,2.128,1.45,6.592c0.483,1.833,0.773,2.417,1.746,2.417c1.551,0,1.357-1.551,2.807-1.551
		c1.55,0,2.718,1.263,7.566,1.263c8.621,0,12.689-5.137,12.689-11.239c0-5.431-3.001-9.017-10.467-14.153
		c-7.17-4.941-7.942-5.915-7.942-8.722c0-2.813,2.229-4.652,5.72-4.652c2.612,0,5.23,1.161,6.976,3.008
		c1.45,1.544,1.84,3.196,3.195,3.196c0.874,0,1.356-0.39,1.356-1.262s-0.577-2.712-1.356-6.687c-0.289-1.45-0.583-2.035-1.55-2.035
		c-1.162,0-1.55,1.162-2.908,1.162c-1.161,0-3-0.873-6.204-0.873c-7.365,0-11.628,3.397-11.628,9.11
		c0,5.136,2.424,7.466,8.527,11.729C421.383,36.926,425.552,39.343,425.552,44.097 M451.521,61.251c0,1.551-0.584,1.839-1.451,1.94
		l-0.872,0.094c-0.679,0.094-0.974,0.483-0.974,1.067c0,0.578,0.39,1.068,1.356,1.068h9.306c0.967,0,1.356-0.49,1.356-1.068
		c0-0.583-0.29-0.973-0.967-1.067l-0.874-0.094c-0.873-0.101-1.45-0.389-1.45-1.94V31.307c0-2.136,0.483-2.719,0.483-3.491
		c0-0.678-0.388-1.169-1.161-1.169c-1.263,0-2.041,1.262-3.008,3.008c-1.551-0.872-3.686-1.645-6.881-1.645
		c-8.527,0-12.307,5.814-12.307,13.857c0,8.137,4.653,12.501,10.561,12.501c2.525,0,5.626-1.067,5.626-2.813
		c0-0.678-0.583-1.062-1.162-1.062c-0.879,0-1.168,0.772-3.296,0.772c-3.88,0-5.72-2.806-5.72-9.399
		c0-6.204,1.94-10.755,6.493-10.755c3.49,0,4.941,1.645,4.941,5.62V61.251z M491.16,49.428c0,1.55-0.578,1.839-1.457,1.934
		l-0.867,0.1c-0.679,0.095-0.967,0.483-0.967,1.068c0,0.577,0.382,1.068,1.349,1.068h9.306c0.974,0,1.356-0.491,1.356-1.068
		c0-0.584-0.29-0.973-0.967-1.068l-0.874-0.1c-0.873-0.094-1.457-0.383-1.457-1.934V29.655c0-1.262-0.482-1.645-1.161-1.645
		c-0.578,0-1.255,0.382-2.128,0.772l-4.17,1.846c-0.873,0.383-1.067,0.678-1.067,1.162s0.39,0.866,1.263,0.866
		c1.355,0,1.84,0.39,1.84,2.135V49.428z M485.15,53.597c0.974,0,1.357-0.491,1.357-1.068c0-0.584-0.289-0.973-0.967-1.068
		l-0.873-0.1c-0.872-0.094-1.451-0.383-1.451-1.934V29.655c0-1.262-0.49-1.645-1.167-1.645c-0.578,0-1.256,0.382-2.128,0.772
		l-4.169,1.846c-0.872,0.383-1.068,0.678-1.068,1.162s0.39,0.866,1.263,0.866c1.356,0,1.839,0.39,1.839,2.135v9.5
		c0,4.747-2.034,6.493-5.135,6.493c-2.814,0-4.365-0.973-4.365-5.814V29.655c0-1.262-0.483-1.645-1.161-1.645
		c-0.577,0-1.255,0.382-2.127,0.772l-4.17,1.846c-0.873,0.383-1.067,0.678-1.067,1.162s0.389,0.866,1.263,0.866
		c1.355,0,1.839,0.39,1.839,2.135v11.535c0,5.619,2.813,7.748,7.848,7.748c3.391,0,6.304-1.255,7.366-2.806l0.195,0.094v1.457
		c0,0.483,0.295,0.779,1.067,0.779H485.15z M509.865,13.958c0-1.262-0.483-1.652-1.163-1.652c-0.583,0-1.262,0.39-2.135,0.779
		l-4.162,1.84c-0.873,0.389-1.068,0.678-1.068,1.161c0,0.49,0.382,0.873,1.262,0.873c1.35,0,1.841,0.39,1.841,2.135v28.783
		c0,1.355-0.39,1.645-1.551,1.746c-0.874,0.093-1.262,0.483-1.262,1.161c0,2.035,6.975,3.585,12.11,3.585
		c8.535,0,13.087-5.425,13.087-13.958c0-5.908-2.229-12.401-9.985-12.401c-3,0-5.814,1.356-5.814,2.619
		c0,0.483,0.39,0.967,0.975,0.967c0.967,0,1.549-0.873,3.584-0.873c3.196,0,5.229,3.39,5.229,9.5c0,7.754-2.323,11.044-6.491,11.044
		c-3.002,0-4.458-1.068-4.458-4.847V13.958z M258.666,43.029c1.06,0,1.355-0.289,1.355-1.161v-1.645c0-0.88-0.295-1.169-1.355-1.169
		h-11.924c-1.068,0-1.357,0.289-1.357,1.169v1.645c0,0.873,0.289,1.161,1.357,1.161H258.666z M313.612,34.892
		c-0.483-1.067-0.967-2.134-0.967-2.813c0-0.772,0.577-1.162,1.355-1.263c0.967-0.094,1.262-0.483,1.262-0.967
		c0-0.583-0.584-0.873-1.551-0.873h-8.721c-0.967,0-1.457,0.194-1.457,0.967c0,0.389,0.195,0.779,0.873,0.873
		c1.356,0.195,2.229,0.974,3.297,3.296l8.433,18.706c-2.035,3.679-4.848,8.144-6.493,10.561c-0.39,0.584-0.873,1.068-0.873,1.551
		c0,0.49,0.383,0.49,0.873,0.49h3.196c0.772,0,1.356-0.101,1.746-1.068c0.483-1.355,1.739-4.458,4.357-10.856l7.949-19.766
		c0.779-1.847,1.068-2.33,2.33-2.719c0.967-0.289,1.45-0.584,1.45-1.162c0-0.678-0.389-0.873-1.068-0.873h-7.264
		c-0.974,0-1.363,0.194-1.363,0.967c0,0.483,0.39,0.873,1.262,0.973c1.068,0.095,1.839,0.483,1.839,1.357
		c0,0.678-0.094,1.255-0.577,2.423l-4.747,11.917L313.612,34.892z M265.541,48.259c0,1.847-0.383,2.619-2.128,2.719
		c-1.255,0.095-1.746,0.483-1.746,1.357c0,0.771,0.491,1.262,1.746,1.262h8.332c1.262,0,1.746-0.491,1.746-1.262
		c0-0.874-0.483-1.262-1.746-1.357c-1.739-0.1-2.129-0.872-2.129-2.719V22.29h0.289l9.79,19.289
		c1.067,2.128,1.746,2.612,2.423,2.612c0.584,0,1.356-0.577,2.323-2.612l9.789-20.255h0.194v26.936c0,1.847-0.382,2.619-2.128,2.719
		c-1.168,0.095-1.746,0.483-1.746,1.357c0,0.771,0.578,1.262,1.746,1.262h10.85c1.262,0,1.746-0.491,1.746-1.262
		c0-0.874-0.483-1.262-1.746-1.357c-1.739-0.1-2.128-0.872-2.128-2.719V18.315c0-1.84,0.389-2.618,2.128-2.712
		c1.262-0.094,1.746-0.483,1.746-1.356c0-0.779-0.483-1.263-1.746-1.263h-6.103c-2.136,0-2.324,0.296-2.907,1.458l-10.662,21.612
		L271.938,14.63c-0.772-1.45-0.967-1.646-2.807-1.646h-5.72c-1.255,0-1.746,0.483-1.746,1.263c0,0.873,0.491,1.262,1.746,1.356
		c1.745,0.094,2.128,0.873,2.128,2.712V48.259z M348.309,38.961c2.618-1.652,3.491-2.518,3.491-3.881
		c0-2.322-3.008-7.069-9.89-7.069c-8.037,0-12.595,5.908-12.595,13.763c0,7.849,5.425,12.596,12.595,12.596
		c6.492,0,10.568-4.364,10.568-5.814c0-0.678-0.49-1.068-1.068-1.068c-0.678,0-1.457,0.678-2.518,1.652
		c-1.651,1.45-3.585,2.222-5.82,2.222c-5.129,0-7.749-3.875-7.749-9.977c0-6.398,2.229-10.467,6.197-10.467
		c2.524,0,4.27,2.035,4.27,4.163c0,1.458-0.194,1.941-2.035,3.008l-4.948,3.103c-1.061,0.678-1.45,1.255-1.45,2.034
		c0,0.584,0.584,1.356,1.356,1.356c0.771,0,1.255-0.289,2.329-0.967L348.309,38.961z M384.362,48.071c0,1.934-1.262,3.39-3.686,3.39
		c-2.518,0-4.552-1.067-5.714-2.907c-1.161-1.84-1.457-2.229-2.33-2.229c-0.771,0-1.162,0.678-1.162,1.45
		c0,0.584,0.39,2.035,0.779,4.753c0.188,1.356,0.578,1.84,1.357,1.84c0.967,0,1.06-0.967,2.128-0.967s2.229,0.967,5.431,0.967
		c3.874,0,8.621-2.323,8.621-7.466c0-8.043-12.212-9.205-12.212-13.563c0-1.457,1.162-2.618,3.203-2.618
		c1.839,0,3.584,0.772,4.941,2.518c0.771,0.967,1.161,1.94,2.134,1.94c0.678,0,1.062-0.39,1.062-1.161
		c0-0.49-0.195-1.551-0.772-4.264c-0.389-1.363-0.584-1.847-1.356-1.847c-0.39,0-0.679,0.195-0.967,0.483
		c-0.202,0.195-0.39,0.49-0.879,0.49c-0.578,0-0.967-0.195-1.551-0.389c-0.866-0.289-2.035-0.483-3.29-0.483
		c-5.525,0-7.949,3.102-7.949,6.493C372.149,41.579,384.362,43.029,384.362,48.071 M356.547,49.428c0,1.55-0.578,1.839-1.458,1.934
		l-0.872,0.1c-0.671,0.095-0.967,0.483-0.967,1.068c0,0.577,0.389,1.068,1.355,1.068h9.306c0.973,0,1.355-0.491,1.355-1.068
		c0-0.584-0.288-0.973-0.967-1.068l-0.872-0.1c-0.874-0.094-1.457-0.383-1.457-1.934V38.86c0-4.552,1.457-6.297,3.585-6.297
		c0.685,0,1.168,0.195,1.651,0.483c0.584,0.389,0.967,0.685,1.45,0.685c0.584,0,1.067-0.584,1.652-1.262
		c0.873-1.068,1.161-1.652,1.161-2.041c0-0.866-1.651-2.223-3.78-2.223c-2.806,0-4.458,1.551-5.525,3.875h-0.195v-2.424
		c0-1.262-0.483-1.645-1.162-1.645c-0.577,0-1.255,0.382-2.128,0.772l-4.169,1.846c-0.874,0.383-1.068,0.678-1.068,1.162
		s0.389,0.866,1.262,0.866c1.356,0,1.84,0.39,1.84,2.135V49.428z M159.132,18.315c0,1.84,1.551,3.39,3.391,3.39
		c1.846,0,3.396-1.55,3.396-3.39s-1.55-3.39-3.396-3.39C160.683,14.925,159.132,16.476,159.132,18.315 M234.334,49.428
		c0,1.55-0.578,1.839-1.45,1.934l-0.874,0.1c-0.678,0.095-0.967,0.483-0.967,1.068c0,0.577,0.39,1.068,1.357,1.068h9.305
		c0.967,0,1.357-0.491,1.357-1.068c0-0.584-0.289-0.973-0.974-1.068l-0.867-0.1c-0.872-0.094-1.457-0.383-1.457-1.934V13.958
		c0-1.262-0.483-1.652-1.161-1.652c-0.584,0-1.262,0.39-2.136,0.779l-4.163,1.84c-0.872,0.389-1.067,0.678-1.067,1.161
		c0,0.49,0.383,0.873,1.255,0.873c1.363,0,1.84,0.39,1.84,2.135V49.428z M160.005,49.428c0,1.55-0.584,1.839-1.45,1.934l-0.88,0.1
		c-0.671,0.095-0.967,0.483-0.967,1.068c0,0.577,0.39,1.068,1.357,1.068h9.305c0.967,0,1.357-0.491,1.357-1.068
		c0-0.584-0.289-0.973-0.967-1.068l-0.874-0.1c-0.872-0.094-1.457-0.383-1.457-1.934V29.655c0-1.262-0.483-1.645-1.161-1.645
		c-0.578,0-1.262,0.382-2.129,0.772l-4.169,1.846c-0.872,0.383-1.067,0.678-1.067,1.162s0.389,0.866,1.262,0.866
		c1.356,0,1.84,0.39,1.84,2.135V49.428z M198.187,33.146c0-1.355,0.295-1.746,1.55-1.746h2.33c0.967,0,1.357-0.483,1.357-1.262
		c0-0.967-0.483-1.355-1.457-1.355h-3.78V18.9c0-0.678-0.289-1.068-0.867-1.068c-0.389,0-0.778,0.295-1.262,0.483l-2.518,1.262
		c-0.584,0.289-0.779,0.578-0.779,1.356v7.849h-2.424c-0.967,0-1.45,0.389-1.45,1.355c0,0.779,0.383,1.262,1.356,1.262h0.967
		c1.262,0,1.551,0.39,1.551,1.746v15.315c0,3.679,0.967,5.908,5.23,5.908c3.397,0,6.203-1.746,6.203-3.008
		c0-0.672-0.383-1.255-1.067-1.255c-0.967,0-1.739,0.967-3.196,0.967c-1.068,0-1.746-0.678-1.746-2.712V33.146z M209.338,41.283
		c0-6.297,2.706-10.366,7.17-10.366c4.652,0,7.265,4.069,7.265,10.366c0,6.204-2.612,10.178-7.265,10.178
		C212.044,51.461,209.338,47.487,209.338,41.283 M140.333,49.428c0,1.55-0.583,1.839-1.457,1.934l-0.872,0.1
		c-0.679,0.095-0.967,0.483-0.967,1.068c0,0.577,0.389,1.068,1.355,1.068h9.306c0.967,0,1.355-0.491,1.355-1.068
		c0-0.584-0.295-0.973-0.967-1.068l-0.872-0.1c-0.874-0.094-1.458-0.383-1.458-1.934V38.86c0-4.552,1.458-6.297,3.585-6.297
		c0.678,0,1.161,0.195,1.652,0.483c0.577,0.389,0.967,0.685,1.45,0.685c0.583,0,1.067-0.584,1.645-1.262
		c0.872-1.068,1.167-1.652,1.167-2.041c0-0.866-1.651-2.223-3.779-2.223c-2.813,0-4.458,1.551-5.525,3.875h-0.195v-2.424
		c0-1.262-0.483-1.645-1.162-1.645c-0.583,0-1.262,0.382-2.134,0.772l-4.17,1.846c-0.866,0.383-1.061,0.678-1.061,1.162
		s0.39,0.866,1.262,0.866c1.349,0,1.839,0.39,1.839,2.135V49.428z M114.747,20.35c0-3.968,1.551-5.325,5.425-5.325
		c4.941,0,7.076,3.29,7.076,7.554c0,4.948-3.296,6.881-7.076,7.177l-1.357,0.094c-1.067,0.094-1.746,0.483-1.746,1.551
		c0,0.967,0.679,1.551,1.84,1.551h1.363c5.814,0,8.433,4.069,8.433,9.205c0,4.458-2.619,9.11-8.433,9.11
		c-4.848,0-5.525-1.746-5.525-5.619V20.35z M108.349,45.741c0,2.424-0.195,2.72-1.45,2.907c-0.974,0.195-1.356,0.584-1.356,1.263
		c0,2.424,7.17,4.458,14.435,4.458c10.762,0,15.704-5.62,15.704-12.891c0-5.62-3.202-9.688-10.077-10.467v-0.195
		c5.136-0.967,8.238-4.458,8.238-8.721c0-6.782-5.332-10.172-13.669-10.172c-7.654,0-14.536,2.706-14.536,4.552
		c0,0.584,0.289,0.873,1.263,1.067c1.162,0.195,1.45,0.483,1.45,2.035V45.741z M203.323,41.283c0,8.044,5.331,13.086,13.186,13.086
		c7.848,0,13.273-5.042,13.273-13.086c0-8.137-5.425-13.273-13.273-13.273C208.653,28.01,203.323,33.146,203.323,41.283
		 M182.778,48.071c0,1.934-1.256,3.39-3.686,3.39c-2.518,0-4.553-1.067-5.714-2.907s-1.457-2.229-2.323-2.229
		c-0.778,0-1.168,0.678-1.168,1.45c0,0.584,0.39,2.035,0.779,4.753c0.194,1.356,0.578,1.84,1.356,1.84
		c0.967,0,1.067-0.967,2.135-0.967c1.061,0,2.229,0.967,5.425,0.967c3.874,0,8.627-2.323,8.627-7.466
		c0-8.043-12.212-9.205-12.212-13.563c0-1.457,1.162-2.618,3.196-2.618c1.839,0,3.585,0.772,4.948,2.518
		c0.771,0.967,1.161,1.94,2.128,1.94c0.678,0,1.068-0.39,1.068-1.161c0-0.49-0.195-1.551-0.779-4.264
		c-0.39-1.363-0.584-1.847-1.357-1.847c-0.389,0-0.678,0.195-0.967,0.483c-0.194,0.195-0.389,0.49-0.872,0.49
		c-0.584,0-0.974-0.195-1.551-0.389c-0.873-0.289-2.035-0.483-3.297-0.483c-5.525,0-7.942,3.102-7.942,6.493
		C170.572,41.579,182.778,43.029,182.778,48.071 M29.655,69.972c-1.55,0-2.712,0.101-3.874,0.289v-0.188
		c0.772-0.396,2.035-0.779,3.095-1.457l12.314-7.17l12.306,7.17c1.068,0.678,2.33,1.061,3.102,1.457v0.188
		c-1.162-0.188-2.323-0.289-3.874-0.289H29.655z M21.9,71.522h38.572L41.19,38.087L21.9,71.522z M43.808,34.402h38.571L63.09,0.967
		L43.808,34.402z M51.556,32.857c-1.551,0-2.712,0.094-3.875,0.289v-0.194c0.772-0.389,2.034-0.779,3.102-1.457l12.306-7.17
		l12.307,7.17c1.067,0.678,2.33,1.067,3.102,1.457v0.194c-1.161-0.194-2.323-0.289-3.874-0.289H51.556z M0,34.402h38.571
		L19.282,0.967L0,34.402z M7.755,32.857c-1.551,0-2.712,0.094-3.881,0.289v-0.194c0.779-0.389,2.035-0.779,3.103-1.457l12.306-7.17
		l12.313,7.17c1.067,0.678,2.323,1.067,3.102,1.457v0.194c-1.168-0.194-2.33-0.289-3.881-0.289H7.755z M74.625,38.672
		c1.551,0,2.712-0.101,3.874-0.295v0.194c-0.772,0.39-2.035,0.772-3.102,1.458l-12.307,7.17l-12.306-7.17
		c-1.068-0.685-2.33-1.067-3.102-1.458v-0.194c1.162,0.194,2.323,0.295,3.875,0.295H74.625z M30.816,38.672
		c1.551,0,2.713-0.101,3.881-0.295v0.194c-0.779,0.39-2.035,0.772-3.102,1.458l-12.313,7.17l-12.306-7.17
		c-1.068-0.685-2.324-1.067-3.103-1.458v-0.194c1.169,0.194,2.33,0.295,3.881,0.295H30.816z M52.724,1.551
		c1.551,0,2.712-0.101,3.874-0.289V1.45c-0.771,0.39-2.034,0.779-3.102,1.457l-12.306,7.17l-12.314-7.17
		c-1.06-0.678-2.322-1.067-3.095-1.457V1.262c1.161,0.188,2.323,0.289,3.874,0.289H52.724z M76.176,41.384
		c1.356-0.779,2.229-1.356,3.195-1.94l0.101,0.194c-0.584,0.772-1.262,1.551-2.041,2.907L65.319,63.379
		c-0.678,1.168-1.161,2.33-1.45,3.202l-0.194-0.101c0-1.162,0.194-2.517,0.194-3.773V48.648L76.176,41.384z M62.311,48.648v14.059
		c0,1.256,0.195,2.611,0.195,3.773l-0.195,0.101c-0.289-0.872-0.772-2.034-1.45-3.202L48.749,42.545
		c-0.779-1.355-1.457-2.134-2.041-2.907l0.101-0.194c0.967,0.584,1.839,1.161,3.196,1.94L62.311,48.648z M63.09,70.556
		l19.289-33.435H43.808L63.09,70.556z M18.51,48.648v14.059c0,1.256,0.195,2.611,0.195,3.773l-0.195,0.101
		c-0.288-0.872-0.779-2.034-1.45-3.202L4.941,42.545c-0.779-1.355-1.45-2.134-2.035-2.907l0.095-0.194
		c0.973,0.584,1.839,1.161,3.202,1.94L18.51,48.648z M32.367,41.384c1.357-0.779,2.229-1.356,3.196-1.94l0.101,0.194
		c-0.584,0.772-1.262,1.551-2.035,2.907L21.511,63.379c-0.671,1.168-1.161,2.33-1.45,3.202l-0.194-0.101
		c0-1.162,0.194-2.517,0.194-3.773V48.648L32.367,41.384z M19.282,70.556l19.289-33.435H0L19.282,70.556z M28.104,67.26
		c-1.356,0.771-2.229,1.356-3.196,1.934l-0.1-0.188c0.583-0.778,1.262-1.55,2.034-2.907l12.119-20.84
		c0.678-1.161,1.161-2.322,1.45-3.196l0.194,0.095c0,1.161-0.194,2.517-0.194,3.78v14.052L28.104,67.26z M41.962,59.989V45.937
		c0-1.263-0.188-2.619-0.188-3.78l0.188-0.095c0.295,0.874,0.778,2.035,1.457,3.196l12.112,20.84
		c0.779,1.357,1.457,2.129,2.034,2.907l-0.094,0.188c-0.973-0.578-1.847-1.162-3.196-1.934L41.962,59.989z M6.204,30.138
		c-1.363,0.779-2.229,1.357-3.202,1.941l-0.095-0.195c0.584-0.771,1.256-1.551,2.035-2.907L17.06,8.144
		c0.671-1.167,1.162-2.329,1.45-3.202l0.195,0.101c0,1.161-0.195,2.517-0.195,3.78v14.052L6.204,30.138z M63.869,22.875V8.822
		c0-1.263-0.194-2.619-0.194-3.78l0.194-0.101c0.289,0.873,0.772,2.035,1.45,3.202l12.112,20.833
		c0.779,1.356,1.457,2.135,2.041,2.907l-0.101,0.195c-0.967-0.584-1.839-1.162-3.195-1.941L63.869,22.875z M20.061,22.875V8.822
		c0-1.263-0.194-2.619-0.194-3.78l0.194-0.101c0.289,0.873,0.779,2.035,1.45,3.202l12.118,20.833
		c0.772,1.356,1.45,2.135,2.035,2.907l-0.101,0.195c-0.967-0.584-1.839-1.162-3.196-1.941L20.061,22.875z M50.005,30.138
		c-1.356,0.779-2.229,1.357-3.196,1.941l-0.101-0.195c0.584-0.771,1.262-1.551,2.041-2.907L60.861,8.144
		c0.678-1.167,1.162-2.329,1.45-3.202l0.195,0.101c0,1.161-0.195,2.517-0.195,3.78v14.052L50.005,30.138z M40.411,11.534v14.053
		c0,1.255,0.194,2.618,0.194,3.779l-0.194,0.094c-0.289-0.873-0.772-2.035-1.45-3.196L26.842,5.425
		c-0.771-1.356-1.45-2.128-2.034-2.907l0.1-0.188c0.967,0.577,1.84,1.161,3.196,1.934L40.411,11.534z M54.275,4.264
		c1.349-0.772,2.223-1.357,3.196-1.934l0.094,0.188c-0.577,0.779-1.255,1.55-2.034,2.907l-12.112,20.84
		c-0.679,1.161-1.162,2.323-1.457,3.196l-0.188-0.094c0-1.162,0.188-2.524,0.188-3.779V11.534L54.275,4.264z M41.19,33.435L60.472,0
		H21.9L41.19,33.435z"/>
	<path fill="#0063A2" d="M556.715,96.223h-2.747v4.082h2.747V96.223z M548.664,71.57h-2.02v28.735h2.02V71.57z M540.742,71.57h-2.02
		v3.458h2.02V71.57z M540.742,81.393h-2.02v18.912h2.02V81.393z M530.334,96.559c-1.979,1.772-3.456,2.444-5.269,2.444
		c-2.148,0-3.746-1.35-3.746-3.115c0-3.29,4.087-5.438,9.015-5.23V96.559z M535.518,97.022c-1.012,0.799-2.234,1.685-2.699,1.685
		c-0.336,0-0.462-0.215-0.462-0.973V85.938c0-3.961-3.539-4.928-5.895-4.928c-2.068,0-3.794,0.591-6.118,2.021v2.068
		c2.237-1.686,3.754-2.404,5.774-2.404c2.829,0,4.216,1.35,4.216,3.874v2.404c-5.519,0.255-11.038,1.981-11.038,6.916
		c0,2.651,2.229,4.799,5.097,4.799c2.02,0,3.833-0.718,5.941-2.356c0.169,1.894,0.424,2.356,1.351,2.356
		c0.797,0,1.598-0.295,3.497-1.724l0.335-0.256V97.022z M517.78,81.393h-1.98l-6.829,15.925l-7.124-15.925h-2.061l8.594,19.294
		h1.262L517.78,81.393z M483.688,88.509c0.717-3.458,3.162-5.52,6.283-5.52c3.243,0,5.264,1.813,5.982,5.52H483.688z M498.35,90.154
		c0-6.325-4.337-9.144-8.379-9.144c-5.021,0-8.681,4.042-8.681,9.607c0,5.854,3.962,10.07,9.433,10.07
		c2.74,0,5.062-0.797,7.291-2.523v-2.276c-2.444,1.974-4.504,2.819-7.036,2.819c-4.297,0-8.13-3.706-7.54-8.553H498.35z
		 M481.29,83.246c-1.86-1.645-3.034-2.236-4.343-2.236c-2.102,0-4.378,1.813-6.614,5.351h-0.087v-4.968h-2.021v18.912h2.021V88.429
		c2.068-3.498,4.217-5.439,6.069-5.439c1.054,0,1.981,0.504,3.793,2.148L481.29,83.246z M448.761,84.38
		c1.981-1.054,3.284-1.39,4.969-1.39c4.552,0,7.834,3.33,7.834,7.963c0,4.632-3.028,7.754-7.58,7.754
		c-1.894,0-3.29-0.376-5.224-1.43V84.38z M448.761,81.393h-2.026V110h2.026V99.251c2.148,1.053,3.706,1.436,5.601,1.436
		c5.31,0,9.438-4.343,9.438-9.902c0-5.647-3.96-9.775-9.352-9.775c-1.981,0-3.539,0.383-5.687,1.43V81.393z M416.354,81.393h-2.021
		v18.912h2.021V87.039c1.685-2.739,3.458-4.049,6.197-4.049c3.33,0,5.144,2.276,5.144,6.533v10.782h2.021V88.764
		c0-5.103-2.995-7.754-7.037-7.754c-2.738,0-4.464,1.013-6.236,3.666h-0.088V81.393z M406.29,96.559
		c-1.981,1.772-3.458,2.444-5.27,2.444c-2.148,0-3.753-1.35-3.753-3.115c0-3.29,4.089-5.438,9.023-5.23V96.559z M411.466,97.022
		c-1.007,0.799-2.229,1.685-2.692,1.685c-0.335,0-0.463-0.215-0.463-0.973V85.938c0-3.961-3.539-4.928-5.902-4.928
		c-2.061,0-3.793,0.591-6.109,2.021v2.068c2.235-1.686,3.753-2.404,5.774-2.404c2.819,0,4.216,1.35,4.216,3.874v2.404
		c-5.526,0.255-11.044,1.981-11.044,6.916c0,2.651,2.236,4.799,5.103,4.799c2.022,0,3.833-0.718,5.942-2.356
		c0.167,1.894,0.416,2.356,1.344,2.356c0.805,0,1.604-0.295,3.498-1.724l0.335-0.256V97.022z M392.13,81.936
		c-2.108-0.671-3.37-0.926-5.015-0.926c-5.398,0-9.185,4.169-9.185,10.111c0,5.734,3.706,9.566,9.265,9.566
		c1.772,0,3.122-0.254,5.27-0.967v-2.106c-2.108,0.838-3.37,1.093-5.096,1.093c-4.471,0-7.291-3.034-7.291-7.795
		c0-4.72,2.907-7.922,7.117-7.922c1.604,0,2.739,0.256,4.934,1.182V81.936z M348.349,88.509c0.719-3.458,3.163-5.52,6.278-5.52
		c3.243,0,5.264,1.813,5.982,5.52H348.349z M363.012,90.154c0-6.325-4.336-9.144-8.385-9.144c-5.016,0-8.681,4.042-8.681,9.607
		c0,5.854,3.96,10.07,9.439,10.07c2.739,0,5.056-0.797,7.292-2.523v-2.276c-2.444,1.974-4.512,2.819-7.036,2.819
		c-4.297,0-8.137-3.706-7.546-8.553H363.012z M344.898,81.393h-2.028l-6.572,15.421l-5.774-15.421h-1.094l-5.942,15.421
		l-6.445-15.421h-1.98l8.09,19.294h0.926l5.854-15.38l5.821,15.38h0.967L344.898,81.393z M305.031,83.246
		c-1.853-1.645-3.035-2.236-4.336-2.236c-2.109,0-4.385,1.813-6.613,5.351h-0.088v-4.968h-2.021v18.912h2.021V88.429
		c2.062-3.498,4.216-5.439,6.069-5.439c1.047,0,1.981,0.504,3.794,2.148L305.031,83.246z M273.221,88.509
		c0.718-3.458,3.162-5.52,6.277-5.52c3.243,0,5.271,1.813,5.982,5.52H273.221z M287.884,90.154c0-6.325-4.338-9.144-8.386-9.144
		c-5.015,0-8.681,4.042-8.681,9.607c0,5.854,3.962,10.07,9.44,10.07c2.739,0,5.055-0.797,7.291-2.523v-2.276
		c-2.444,1.974-4.512,2.819-7.036,2.819c-4.297,0-8.137-3.706-7.546-8.553H287.884z M253.119,71.57h-2.021v28.735h2.021V87.039
		c1.733-2.699,3.418-4.049,6.197-4.049c3.625,0,5.143,2.444,5.143,6.533v10.782h2.021V88.717c0-5.056-2.995-7.707-7.036-7.707
		c-2.739,0-4.472,1.013-6.237,3.666h-0.088V71.57z M242.082,75.108h-0.63l-1.39,1.772v4.512h-5.096v1.638h5.096V96.64
		c0,2.866,2.276,4.047,4.377,4.047c0.678,0,1.477-0.167,2.196-0.335c0.718-0.215,1.349-0.422,1.725-0.632v-1.939
		c-1.686,0.757-2.316,0.926-3.451,0.926c-2.786,0-2.827-1.182-2.827-4.424V83.031h5.311v-1.638h-5.311V75.108z M219.664,88.509
		c0.718-3.458,3.162-5.52,6.277-5.52c3.25,0,5.271,1.813,5.989,5.52H219.664z M234.327,90.154c0-6.325-4.337-9.144-8.386-9.144
		c-5.008,0-8.674,4.042-8.674,9.607c0,5.854,3.962,10.07,9.433,10.07c2.747,0,5.056-0.797,7.292-2.523v-2.276
		c-2.444,1.974-4.505,2.819-7.036,2.819c-4.297,0-8.131-3.706-7.54-8.553H234.327z M213.179,104.649
		c0,2.229-2.531,3.665-6.405,3.665c-4.169,0-6.492-1.262-6.492-3.498c0-3.163,4.512-3.498,6.868-3.498
		C210.567,101.319,213.179,101.991,213.179,104.649 M211.534,88.086c0,2.787-2.276,5.063-5.056,5.063
		c-2.867,0-5.015-2.323-5.015-5.143c0-2.739,2.148-4.935,4.975-4.935C209.258,83.07,211.534,85.307,211.534,88.086 M215.16,81.393
		h-7.587c-6.069,0-8.05,3.578-8.05,6.741c0,2.276,1.27,5.183,5.063,6.277v0.081c-2.235,0.678-3.793,1.396-3.793,3.081
		c0,1.304,1.047,2.229,3.074,2.694v0.086c-3.545,0.544-5.518,2.188-5.518,4.593c0,2.698,2.483,5.055,8.298,5.055
		c5.311,0,8.472-2.068,8.472-5.52c0-8.009-12.393-2.947-12.393-7.082c0-3.667,10.749-0.88,10.749-9.353
		c0-1.894-0.799-3.33-2.611-5.015h4.297V81.393z M193.628,90.873c0,4.504-3.202,7.834-7.459,7.834c-4.297,0-7.499-3.33-7.499-7.834
		c0-4.553,3.202-7.883,7.499-7.883C190.426,82.99,193.628,86.361,193.628,90.873 M195.776,90.873c0-5.647-4.088-9.863-9.608-9.863
		c-5.518,0-9.647,4.216-9.647,9.863c0,5.599,4.129,9.814,9.647,9.814C191.688,100.687,195.776,96.471,195.776,90.873 M180.482,71.57
		h-23.808v1.853h10.79v26.882h2.229V73.423h10.789V71.57z"/>
	<path fill="#0063A2" d="M558.21,71.966c2.17,0,3.931,1.758,3.931,3.927s-1.761,3.921-3.931,3.921c-2.161,0-3.92-1.752-3.92-3.921
		S556.049,71.966,558.21,71.966 M558.21,71.402c-2.476,0-4.484,2.007-4.484,4.491c0,2.477,2.009,4.485,4.484,4.485
		c2.485,0,4.494-2.008,4.494-4.485C562.704,73.409,560.695,71.402,558.21,71.402 M556.984,75.759v-1.712h0.872
		c1.062,0,1.415,0.208,1.415,0.833c0,0.638-0.408,0.88-1.504,0.88H556.984z M556.411,73.584v4.72h0.573v-2.075h0.273
		c1.074,0,1.329,0.215,2.176,2.075h0.705c-0.705-1.692-0.827-1.78-1.463-2.163c0.999-0.167,1.28-0.779,1.28-1.309
		c0-0.786-0.596-1.249-1.597-1.249H556.411z"/>
</g>
</svg>
