<?xml version="1.0" encoding="utf-8"?>
<!-- Generator: Adobe Illustrator 13.0.1, SVG Export Plug-In . SVG Version: 6.00 Build 14948)  -->
<!DOCTYPE svg PUBLIC "-//W3C//DTD SVG 1.1//EN" "http://www.w3.org/Graphics/SVG/1.1/DTD/svg11.dtd">
<svg version="1.1" xmlns="http://www.w3.org/2000/svg" xmlns:xlink="http://www.w3.org/1999/xlink" x="0px" y="0px"
	 width="223.938px" height="17.079px" viewBox="0 0 223.938 17.079" enable-background="new 0 0 223.938 17.079"
	 xml:space="preserve">
<g id="_xB8_ñ_xB5_ã" display="none">
</g>
<g id="Í_xBC__xB2_ã_1">
</g>
<g id="_xD7_ÀÃæ">
</g>
<g id="_xB5__xBC_Ïß">
</g>
<g id="Page_1">
	<g id="Í_xBC__xB2_ã_1_1_">
		<g>
			<path fill-rule="evenodd" clip-rule="evenodd" fill="#2E3192" d="M13.804,6.313c0.682-0.513,0.853-1.365,0.853-2.047
				c0-0.853-0.171-1.534-0.682-2.217c-0.341-0.681-1.022-1.193-1.875-1.534c-0.853-0.341-2.215-0.511-4.09-0.511H0v0.341
				c0.682,0,1.194,0.17,1.534,0.341c0.341,0.17,0.512,0.341,0.512,0.512c0.17,0.171,0.341,0.852,0.341,1.705v10.911
				c0,1.023-0.171,1.535-0.341,1.876c0,0.17-0.171,0.341-0.512,0.511C1.194,16.372,0.682,16.372,0,16.372v0.512h8.521
				c2.386,0,4.261-0.512,5.454-1.534c1.022-0.853,1.534-1.876,1.534-3.24c0-1.193-0.512-2.046-1.364-2.897
				c-0.682-0.513-1.875-0.854-3.408-1.364C12.271,7.506,13.293,6.995,13.804,6.313L13.804,6.313L13.804,6.313z M6.136,0.856
				c1.193,0,2.216,0.171,2.727,0.513c0.511,0.17,1.023,0.511,1.193,1.021c0.341,0.513,0.512,1.023,0.512,1.876
				c0,0.682-0.171,1.364-0.512,1.705C9.714,6.483,9.373,6.824,8.862,7.165C8.18,7.506,7.329,7.506,6.136,7.506V0.856L6.136,0.856z
				 M9.032,8.871c0.682,0.341,1.194,0.682,1.535,1.363s0.511,1.364,0.511,2.046c0,0.683-0.17,1.364-0.511,1.876
				c-0.341,0.511-0.682,1.023-1.194,1.364c-0.681,0.17-1.193,0.34-1.875,0.34c-0.341,0-0.681,0-1.022-0.34
				c-0.171-0.171-0.341-0.513-0.341-1.023v-0.513V8.529C7.499,8.529,8.352,8.699,9.032,8.871L9.032,8.871L9.032,8.871z"/>
			<path fill-rule="evenodd" clip-rule="evenodd" fill="#2E3192" d="M22.056,7.729c0.788,0,1.279,0,1.476,0.099
				c0.492,0.099,0.787,0.394,1.082,0.688c0.295,0.296,0.492,0.788,0.59,1.477h0.295V7.138h-8.166v0.197h0.394
				c0.296,0,0.493,0.099,0.689,0.295c0.099,0,0.197,0.197,0.295,0.296c0,0.098,0,0.394,0,0.886v6.396c0,0.493,0,0.788-0.099,0.887
				c0,0.196-0.098,0.295-0.295,0.394c-0.098,0.099-0.394,0.099-0.591,0.099h-0.394v0.295h8.362l0.493-3.149h-0.295
				c-0.197,0.886-0.591,1.575-1.181,1.969c-0.492,0.394-1.279,0.59-2.164,0.59h-0.59c-0.295,0-0.492,0-0.591-0.098
				c-0.098-0.099-0.197-0.197-0.197-0.295c-0.098-0.1-0.098-0.395-0.098-0.985v-2.756c0.492,0,0.787,0.099,1.083,0.197
				c0.197,0.099,0.394,0.394,0.59,0.688c0.196,0.395,0.295,0.887,0.393,1.379h0.295V9.401h-0.295
				c-0.098,0.689-0.295,1.279-0.59,1.674c-0.197,0.394-0.689,0.591-1.279,0.591h-0.197V7.729H22.056L22.056,7.729z"/>
			<path fill-rule="evenodd" clip-rule="evenodd" fill="#2E3192" d="M31.402,12.453l3.148,4.429H37.6v-0.295
				c-0.295,0-0.492-0.099-0.688-0.296c-0.098-0.098-0.394-0.295-0.688-0.688l-2.262-3.347c0.59-0.099,0.983-0.394,1.377-0.688
				c0.492-0.394,0.787-0.984,0.787-1.772c0-0.59-0.197-1.082-0.59-1.476c-0.295-0.492-0.787-0.787-1.279-0.984
				c-0.591-0.099-1.476-0.197-2.558-0.197h-4.525v0.197c0.394,0,0.688,0.099,0.885,0.197c0.197,0.098,0.295,0.196,0.295,0.295
				c0.098,0.099,0.098,0.492,0.098,0.984v6.396c0,0.493,0,0.788-0.098,0.985c0,0.098-0.099,0.196-0.295,0.295
				s-0.492,0.099-0.885,0.099v0.295h4.919v-0.295c-0.394,0-0.688,0-0.885-0.099s-0.295-0.197-0.295-0.295
				c-0.098-0.197-0.197-0.492-0.197-0.985v-2.755H31.402L31.402,12.453z M31.5,7.63c0.787,0,1.377,0.197,1.672,0.591
				c0.394,0.295,0.591,0.886,0.591,1.574c0,0.591-0.099,0.985-0.296,1.28s-0.492,0.492-0.787,0.688
				c-0.394,0.099-0.885,0.197-1.476,0.197h-0.492V7.63H31.5L31.5,7.63z"/>
			<path fill-rule="evenodd" clip-rule="evenodd" fill="#2E3192" d="M46.454,8.614c0.689-0.591,1.083-0.984,1.279-1.082
				c0.197-0.099,0.492-0.099,0.787-0.197V7.138h-3.738v0.197c0.394,0.099,0.688,0.099,0.787,0.197
				c0.197,0.098,0.295,0.196,0.295,0.394c0,0.295-0.295,0.59-0.787,0.983l-3.542,2.953V8.812c0-0.492,0-0.788,0-0.984
				c0.098-0.099,0.197-0.197,0.295-0.295c0.197-0.099,0.492-0.197,0.788-0.197V7.138h-4.821v0.197h0.296
				c0.295,0,0.492,0.099,0.688,0.197c0.098,0.098,0.295,0.196,0.295,0.295c0.099,0.196,0.099,0.492,0.099,0.984v6.396
				c0,0.493,0,0.788-0.099,0.887c-0.098,0.196-0.197,0.295-0.295,0.394c-0.197,0.099-0.394,0.099-0.688,0.099h-0.296v0.295h4.919
				v-0.295c-0.394,0-0.689,0-0.788-0.099c-0.196-0.099-0.295-0.197-0.393-0.295c0-0.197,0-0.492,0-0.985v-2.656l0.295-0.296
				l2.263,2.757c0.393,0.59,0.688,0.983,0.688,1.181c0,0.098-0.099,0.196-0.197,0.295c-0.099,0-0.295,0.099-0.59,0.099v0.295h5.017
				v-0.295c-0.295,0-0.492-0.099-0.787-0.197c-0.394-0.196-0.787-0.591-1.279-1.279l-3.345-4.232L46.454,8.614L46.454,8.614z"/>
			<path fill-rule="evenodd" clip-rule="evenodd" fill="#2E3192" d="M55.604,6.941c-0.099,0.295-0.197,0.394-0.296,0.492
				c0,0.099-0.098,0.099-0.294,0.099c-0.098,0-0.295,0-0.591-0.197c-0.393-0.099-0.59-0.197-0.885-0.295
				c-0.295-0.099-0.59-0.099-0.885-0.099c-0.885,0-1.574,0.295-2.165,0.787C49.897,8.319,49.7,8.909,49.7,9.697
				c0,0.492,0.099,0.886,0.295,1.279c0.197,0.394,0.492,0.689,0.886,0.984c0.394,0.295,0.984,0.689,1.869,1.082
				c0.688,0.395,1.082,0.591,1.377,0.788c0.197,0.196,0.394,0.394,0.492,0.591c0.099,0.295,0.197,0.491,0.197,0.688
				c0,0.394-0.197,0.688-0.492,0.984c-0.294,0.295-0.688,0.492-1.279,0.492c-0.688,0-1.279-0.296-1.967-0.788
				c-0.591-0.591-0.984-1.377-1.181-2.361H49.7v3.642h0.197c0.099-0.197,0.197-0.395,0.296-0.492
				c0.197-0.099,0.294-0.099,0.492-0.099c0.099,0,0.294,0,0.492,0.099c0.394,0.197,0.787,0.295,1.082,0.394
				c0.197,0.099,0.492,0.099,0.885,0.099c0.886,0,1.771-0.295,2.361-0.886c0.59-0.591,0.984-1.28,0.984-2.067
				c0-0.688-0.197-1.279-0.59-1.771c-0.394-0.394-1.18-0.984-2.361-1.574c-0.787-0.395-1.279-0.689-1.476-0.788
				c-0.393-0.197-0.59-0.492-0.688-0.688c-0.098-0.197-0.197-0.295-0.197-0.591c0-0.295,0.197-0.59,0.394-0.886
				c0.295-0.197,0.688-0.394,1.181-0.394c0.688,0,1.279,0.295,1.771,0.787c0.59,0.492,0.885,1.083,1.082,1.969h0.295L55.8,6.941
				H55.604L55.604,6.941z"/>
			<path fill-rule="evenodd" clip-rule="evenodd" fill="#2E3192" d="M64.458,12.157v3.051c0,0.493,0,0.788,0,0.887
				c-0.099,0.196-0.197,0.295-0.295,0.394c-0.197,0.099-0.394,0.099-0.689,0.099h-0.295v0.295h5.017v-0.295h-0.295
				c-0.296,0-0.492,0-0.688-0.099c-0.099-0.099-0.197-0.197-0.296-0.394c-0.098-0.099-0.098-0.394-0.098-0.887V8.812
				c0-0.492,0-0.788,0.098-0.886c0.099-0.197,0.197-0.296,0.296-0.394c0.197-0.099,0.393-0.197,0.688-0.197h0.295V7.138h-5.017
				v0.197h0.295c0.295,0,0.492,0.099,0.59,0.197c0.197,0.098,0.295,0.196,0.394,0.295c0,0.196,0,0.492,0,0.984v2.756h-3.443V8.812
				c0-0.492,0.098-0.788,0.098-0.886c0.099-0.197,0.197-0.296,0.295-0.394c0.197-0.099,0.394-0.197,0.688-0.197h0.295V7.138h-5.017
				v0.197h0.295c0.295,0,0.492,0.099,0.689,0.197c0.098,0.098,0.197,0.196,0.294,0.295c0.098,0.196,0.098,0.492,0.098,0.984v6.396
				c0,0.493,0,0.788-0.098,0.887c-0.098,0.196-0.197,0.295-0.294,0.394c-0.197,0.099-0.394,0.099-0.689,0.099h-0.295v0.295h5.017
				v-0.295h-0.295c-0.295,0-0.492,0-0.59-0.099c-0.197-0.099-0.295-0.197-0.394-0.394c0-0.099-0.098-0.394-0.098-0.887v-3.051
				H64.458L64.458,12.157z"/>
			<path fill-rule="evenodd" clip-rule="evenodd" fill="#2E3192" d="M73.508,16.587c-0.295,0-0.492,0-0.688-0.099
				c-0.099-0.099-0.197-0.197-0.295-0.394c0-0.099-0.098-0.394-0.098-0.887V8.812c0-0.492,0.098-0.788,0.098-0.886
				c0.099-0.197,0.197-0.296,0.295-0.394c0.197-0.099,0.393-0.197,0.688-0.197h0.295V7.138h-5.017v0.197h0.295
				c0.295,0,0.492,0.099,0.689,0.197c0.098,0.098,0.196,0.196,0.295,0.295c0,0.196,0.098,0.492,0.098,0.984v6.396
				c0,0.493-0.098,0.788-0.098,0.887c-0.099,0.196-0.197,0.295-0.295,0.394c-0.197,0.099-0.394,0.099-0.689,0.099h-0.295v0.295
				h5.017v-0.295H73.508L73.508,16.587z"/>
			<path fill-rule="evenodd" clip-rule="evenodd" fill="#2E3192" d="M78.722,12.453l3.148,4.429h3.05v-0.295
				c-0.295,0-0.492-0.099-0.688-0.296c-0.099-0.098-0.295-0.295-0.59-0.688l-2.361-3.347c0.59-0.099,1.082-0.394,1.377-0.688
				c0.493-0.394,0.787-0.984,0.787-1.772c0-0.59-0.197-1.082-0.492-1.476c-0.394-0.492-0.787-0.787-1.377-0.984
				c-0.492-0.099-1.377-0.197-2.558-0.197h-4.525v0.197c0.394,0,0.787,0.099,0.886,0.197c0.196,0.098,0.295,0.196,0.393,0.295
				c0,0.099,0.099,0.492,0.099,0.984v6.396c0,0.493-0.099,0.788-0.099,0.985c-0.098,0.098-0.197,0.196-0.393,0.295
				c-0.099,0.099-0.394,0.099-0.886,0.099v0.295h4.919v-0.295c-0.394,0-0.688,0-0.885-0.099c-0.098-0.099-0.295-0.197-0.295-0.295
				c-0.099-0.197-0.099-0.492-0.099-0.985v-2.755H78.722L78.722,12.453z M78.82,7.63c0.787,0,1.378,0.197,1.771,0.591
				c0.295,0.295,0.492,0.886,0.492,1.574c0,0.591-0.098,0.985-0.295,1.28s-0.492,0.492-0.787,0.688
				c-0.295,0.099-0.788,0.197-1.476,0.197h-0.394V7.63H78.82L78.82,7.63z"/>
			<path fill-rule="evenodd" clip-rule="evenodd" fill="#2E3192" d="M89.839,7.729c0.688,0,1.18,0,1.475,0.099
				c0.493,0.099,0.788,0.394,1.082,0.688c0.197,0.296,0.394,0.788,0.591,1.477h0.197V7.138h-8.067v0.197h0.295
				c0.295,0,0.59,0.099,0.787,0.295c0.098,0,0.197,0.197,0.197,0.296c0.098,0.098,0.098,0.394,0.098,0.886v6.396
				c0,0.493-0.098,0.788-0.098,0.887c-0.099,0.196-0.197,0.295-0.295,0.394c-0.197,0.099-0.394,0.099-0.688,0.099h-0.295v0.295
				h8.362l0.492-3.149h-0.295c-0.295,0.886-0.688,1.575-1.18,1.969c-0.591,0.394-1.279,0.59-2.165,0.59h-0.59
				c-0.295,0-0.492,0-0.59-0.098c-0.098-0.099-0.197-0.197-0.295-0.295c0-0.1-0.098-0.395-0.098-0.985v-2.756
				c0.492,0,0.885,0.099,1.082,0.197c0.295,0.099,0.492,0.394,0.688,0.688c0.197,0.395,0.295,0.887,0.295,1.379h0.295V9.401h-0.295
				c0,0.689-0.197,1.279-0.492,1.674c-0.295,0.394-0.688,0.591-1.377,0.591h-0.196V7.729H89.839L89.839,7.729z"/>
			<path fill-rule="evenodd" clip-rule="evenodd" fill="#2E3192" d="M112.177,8.697v5.287c0,0.854,0,1.364-0.171,1.535
				c0,0.341-0.34,0.512-0.511,0.682c-0.17,0.171-0.682,0.171-1.193,0.171h-0.512v0.512h8.865v-0.512h-0.683
				c-0.341,0-0.852,0-1.021-0.171c-0.342-0.17-0.513-0.341-0.683-0.682c0-0.171,0-0.682,0-1.535V2.899c0-0.854,0-1.364,0-1.534
				c0.17-0.342,0.341-0.513,0.512-0.683c0.341-0.172,0.682-0.342,1.192-0.342h0.683V0h-8.865v0.341h0.512
				c0.511,0,0.852,0.17,1.193,0.342c0.341,0.17,0.511,0.341,0.511,0.511c0.171,0.342,0.171,0.853,0.171,1.706v4.775h-5.966V2.899
				c0-0.854,0-1.364,0.17-1.534c0.171-0.342,0.341-0.513,0.512-0.683c0.341-0.172,0.682-0.342,1.193-0.342h0.511V0h-8.864v0.341
				h0.681c0.341,0,0.853,0.17,1.023,0.342c0.341,0.17,0.512,0.341,0.682,0.511c0,0.342,0,0.853,0,1.706v11.085
				c0,0.854,0,1.364,0,1.535c-0.17,0.341-0.341,0.512-0.511,0.682c-0.341,0.171-0.682,0.171-1.194,0.171h-0.681v0.512h8.864v-0.512
				h-0.511c-0.511,0-0.852,0-1.193-0.171c-0.171-0.17-0.512-0.341-0.512-0.682c-0.17-0.171-0.17-0.682-0.17-1.535V8.697H112.177
				L112.177,8.697z"/>
			<path fill-rule="evenodd" clip-rule="evenodd" fill="#2E3192" d="M126.88,15.308c0.099,0.295,0.196,0.491,0.196,0.491
				c0,0.1,0,0.197,0,0.296c0,0.196,0,0.295-0.098,0.394c-0.197,0.099-0.394,0.099-0.787,0.099h-0.197v0.295h4.624v-0.295
				c-0.295,0-0.492-0.099-0.688-0.296c-0.197-0.098-0.492-0.59-0.787-1.378l-3.542-7.972h-0.098l-3.443,7.775
				c-0.296,0.688-0.591,1.182-0.886,1.477c-0.196,0.196-0.492,0.394-0.787,0.394v0.295h3.148v-0.295
				c-0.492,0-0.787-0.099-0.886-0.197c-0.196-0.099-0.394-0.295-0.394-0.591c0-0.196,0.099-0.491,0.197-0.786l0.491-0.887h3.345
				L126.88,15.308L126.88,15.308z M123.142,13.536l1.476-3.248l1.476,3.248H123.142L123.142,13.536z"/>
			<path fill-rule="evenodd" clip-rule="evenodd" fill="#2E3192" d="M131.406,7.138v2.657h0.196
				c0.099-0.786,0.395-1.279,0.788-1.672c0.295-0.296,0.786-0.395,1.475-0.395h0.689v7.479c0,0.493,0,0.788-0.099,0.887
				c-0.099,0.196-0.197,0.295-0.295,0.394c-0.197,0.099-0.394,0.099-0.688,0.099h-0.296v0.295h5.018v-0.295h-0.295
				c-0.197,0-0.492,0-0.591-0.099c-0.196-0.099-0.295-0.197-0.295-0.394c-0.098-0.099-0.098-0.394-0.098-0.887V7.729h0.688
				c0.491,0,0.786,0,0.983,0.099c0.295,0.196,0.59,0.394,0.787,0.591c0.098,0.295,0.295,0.787,0.491,1.377h0.197V7.138H131.406
				L131.406,7.138z"/>
			<path fill-rule="evenodd" clip-rule="evenodd" fill="#2E3192" d="M148.13,12.157v3.051c0,0.493-0.099,0.788-0.099,0.887
				c-0.099,0.196-0.197,0.295-0.295,0.394c-0.197,0.099-0.394,0.099-0.688,0.099h-0.296v0.295h5.018v-0.295h-0.295
				c-0.295,0-0.492,0-0.688-0.099c-0.099-0.099-0.197-0.197-0.295-0.394c0-0.099-0.099-0.394-0.099-0.887V8.812
				c0-0.492,0.099-0.788,0.099-0.886c0.098-0.197,0.196-0.296,0.295-0.394c0.196-0.099,0.394-0.197,0.688-0.197h0.295V7.138h-5.018
				v0.197h0.296c0.295,0,0.491,0.099,0.688,0.197c0.098,0.098,0.196,0.196,0.295,0.295c0,0.196,0.099,0.492,0.099,0.984v2.756
				h-3.443V8.812c0-0.492,0-0.788,0-0.886c0.099-0.197,0.197-0.296,0.295-0.394c0.197-0.099,0.394-0.197,0.688-0.197h0.296V7.138
				h-5.018v0.197h0.295c0.295,0,0.492,0.099,0.688,0.197c0.099,0.098,0.197,0.196,0.295,0.295c0.099,0.196,0.099,0.492,0.099,0.984
				v6.396c0,0.493,0,0.788-0.099,0.887c-0.098,0.196-0.196,0.295-0.295,0.394c-0.196,0.099-0.394,0.099-0.688,0.099h-0.295v0.295
				h5.018v-0.295h-0.296c-0.295,0-0.491,0-0.591-0.099c-0.195-0.099-0.294-0.197-0.393-0.394c0-0.099,0-0.394,0-0.887v-3.051H148.13
				L148.13,12.157z"/>
			<path fill-rule="evenodd" clip-rule="evenodd" fill="#2E3192" d="M158.657,15.308c0.099,0.295,0.196,0.491,0.196,0.491
				c0.099,0.1,0.099,0.197,0.099,0.296c0,0.196-0.099,0.295-0.196,0.394c-0.099,0.099-0.394,0.099-0.787,0.099h-0.197v0.295h4.723
				v-0.295c-0.295,0-0.492-0.099-0.688-0.296c-0.197-0.098-0.492-0.59-0.788-1.378l-3.541-7.972h-0.099l-3.541,7.775
				c-0.295,0.688-0.591,1.182-0.788,1.477c-0.195,0.196-0.491,0.394-0.885,0.394v0.295h3.246v-0.295
				c-0.491,0-0.786-0.099-0.983-0.197c-0.196-0.099-0.295-0.295-0.295-0.591c0-0.196,0.099-0.491,0.196-0.786l0.394-0.887h3.443
				L158.657,15.308L158.657,15.308z M155.017,13.536l1.475-3.248l1.378,3.248H155.017L155.017,13.536z"/>
			<path fill-rule="evenodd" clip-rule="evenodd" fill="#2E3192" d="M174.693,7.138v0.197c0.394,0.099,0.59,0.099,0.786,0.197
				c0.099,0.098,0.197,0.295,0.197,0.491c0,0.197-0.099,0.296-0.099,0.492c0,0.099-0.099,0.394-0.295,0.886l-1.574,4.135
				l-1.771-4.627c-0.197-0.59-0.295-0.886-0.295-0.983c0-0.099,0-0.197,0.098-0.296c0-0.098,0.099-0.098,0.197-0.196
				c0.098,0,0.394-0.099,0.688-0.099V7.138h-4.624v0.197c0.295,0,0.492,0.099,0.688,0.197c0.099,0.098,0.295,0.196,0.395,0.394
				c0.098,0.197,0.294,0.59,0.491,1.083l0.394,1.082l-1.574,3.642l-1.869-4.724c-0.196-0.591-0.394-0.985-0.394-1.083
				c0-0.197,0.099-0.296,0.197-0.394c0.098-0.099,0.295-0.099,0.688-0.197V7.138h-4.23v0.197c0.295,0.099,0.492,0.197,0.688,0.295
				c0.099,0.197,0.295,0.689,0.688,1.477l3.148,7.973h0.295l2.656-6.299l2.361,6.299h0.296l3.049-8.07
				c0.295-0.689,0.394-0.985,0.394-1.083c0.099-0.197,0.295-0.296,0.394-0.394c0.099-0.099,0.295-0.099,0.492-0.197V7.138H174.693
				L174.693,7.138z"/>
			<path fill-rule="evenodd" clip-rule="evenodd" fill="#2E3192" d="M183.94,15.308c0.099,0.295,0.197,0.491,0.197,0.491
				c0.098,0.1,0.098,0.197,0.098,0.296c0,0.196-0.098,0.295-0.196,0.394s-0.394,0.099-0.787,0.099h-0.197v0.295h4.723v-0.295
				c-0.295,0-0.59-0.099-0.688-0.296c-0.197-0.098-0.492-0.59-0.787-1.378l-3.542-7.972h-0.098l-3.542,7.775
				c-0.295,0.688-0.59,1.182-0.787,1.477c-0.196,0.196-0.492,0.394-0.885,0.394v0.295h3.246v-0.295
				c-0.492,0-0.787-0.099-0.984-0.197c-0.196-0.099-0.295-0.295-0.295-0.591c0-0.196,0.099-0.491,0.197-0.786l0.393-0.887h3.443
				L183.94,15.308L183.94,15.308z M180.3,13.536l1.476-3.248l1.377,3.248H180.3L180.3,13.536z"/>
			<path fill-rule="evenodd" clip-rule="evenodd" fill="#2E3192" d="M195.451,7.138v0.197c0.394,0.099,0.688,0.197,0.885,0.295
				c0.099,0.099,0.197,0.197,0.197,0.296c0,0.197-0.295,0.688-0.688,1.476l-1.771,2.854l-1.771-3.149
				c-0.394-0.688-0.59-1.181-0.59-1.378c0-0.099,0.098-0.099,0.196-0.196c0.099-0.099,0.295-0.197,0.59-0.197h0.197V7.138h-4.624
				v0.197c0.295,0,0.59,0.099,0.787,0.295c0.099,0.099,0.492,0.591,0.886,1.477l2.36,4.134v1.968c0,0.493-0.098,0.788-0.098,0.887
				c-0.099,0.196-0.197,0.295-0.295,0.394c-0.197,0.099-0.394,0.099-0.689,0.099h-0.491v0.295h5.41v-0.295h-0.491
				c-0.295,0-0.492,0-0.688-0.099c-0.1-0.099-0.197-0.197-0.296-0.394c0-0.099-0.098-0.394-0.098-0.887v-2.361l2.164-3.543
				c0.491-0.886,0.885-1.477,1.082-1.674c0.196-0.098,0.491-0.196,0.787-0.295V7.138H195.451L195.451,7.138z"/>
			<path fill-rule="evenodd" clip-rule="evenodd" fill="#2E3192" d="M206.65,16.738c-0.136,0-0.272,0-0.408-0.068
				c-0.137-0.068-0.204-0.137-0.204-0.272c-0.068-0.068-0.068-0.272-0.068-0.613v-4.426c0-0.341,0-0.545,0.068-0.612
				c0-0.137,0.067-0.205,0.204-0.272c0.068-0.068,0.272-0.137,0.408-0.137h0.272v-0.136h-3.54v0.136h0.272
				c0.137,0,0.341,0.068,0.409,0.137c0.136,0.067,0.204,0.136,0.204,0.204c0.068,0.136,0.068,0.34,0.068,0.681v4.426
				c0,0.341,0,0.545-0.068,0.613c0,0.136-0.068,0.204-0.204,0.272c-0.068,0.068-0.272,0.068-0.409,0.068h-0.272v0.204h3.54v-0.204
				H206.65L206.65,16.738z"/>
			<path fill-rule="evenodd" clip-rule="evenodd" fill="#2E3192" d="M207.331,10.201v0.136c0.204,0.068,0.34,0.068,0.408,0.137
				c0.136,0.067,0.272,0.204,0.408,0.34l0.137,0.204v4.767c0,0.341-0.068,0.613-0.204,0.749c-0.137,0.137-0.409,0.205-0.817,0.205
				v0.204h2.45v-0.204h-0.204c-0.204,0-0.408-0.068-0.612-0.205c-0.137-0.136-0.272-0.408-0.272-0.749v-4.289l4.561,5.583h0.204
				v-5.583c0-0.341,0-0.545,0.068-0.682c0.067-0.136,0.136-0.272,0.204-0.272c0.136-0.067,0.272-0.136,0.612-0.204v-0.136h-2.246
				v0.136c0.34,0,0.612,0.137,0.817,0.341c0.067,0.136,0.136,0.408,0.136,0.817v2.859l-3.268-4.153H207.331L207.331,10.201z"/>
			<path fill-rule="evenodd" clip-rule="evenodd" fill="#2E3192" d="M221.08,10.064c0,0.137-0.068,0.272-0.137,0.341
				c-0.136,0.068-0.204,0.136-0.272,0.136c-0.136,0-0.272-0.067-0.612-0.204c-0.545-0.204-1.021-0.272-1.497-0.272
				c-0.612,0-1.226,0.137-1.77,0.477c-0.613,0.272-1.021,0.749-1.361,1.294c-0.341,0.613-0.545,1.226-0.545,1.839
				c0,0.612,0.204,1.157,0.477,1.702s0.749,0.953,1.293,1.294c0.545,0.272,1.157,0.408,1.906,0.408c0.545,0,1.021-0.067,1.43-0.272
				c0.407-0.204,0.816-0.477,1.156-0.885v-0.545c-0.408,0.477-0.749,0.749-1.089,0.953s-0.749,0.272-1.157,0.272
				c-0.544,0-0.952-0.136-1.293-0.34c-0.272-0.272-0.544-0.682-0.681-1.158c-0.136-0.477-0.204-1.021-0.204-1.634
				c0-0.613,0.068-1.158,0.272-1.703c0.204-0.34,0.408-0.681,0.748-0.953c0.409-0.204,0.749-0.34,1.157-0.34
				c0.545,0,0.953,0.204,1.361,0.477c0.408,0.34,0.681,0.816,0.817,1.43h0.204v-2.315H221.08L221.08,10.064z"/>
			<path fill-rule="evenodd" clip-rule="evenodd" fill="#2E3192" d="M222.508,15.648c-0.136,0.136-0.204,0.341-0.204,0.613
				c0,0.204,0.068,0.408,0.204,0.544c0.204,0.137,0.341,0.272,0.612,0.272c0.205,0,0.409-0.136,0.545-0.272
				c0.204-0.136,0.272-0.34,0.272-0.544c0-0.272-0.068-0.478-0.272-0.613c-0.136-0.136-0.34-0.272-0.545-0.272
				C222.849,15.376,222.712,15.513,222.508,15.648L222.508,15.648L222.508,15.648z"/>
		</g>
	</g>
</g>
</svg>
