<?xml version="1.0" encoding="UTF-8" standalone="no"?>
<!-- Created with Inkscape (http://www.inkscape.org/) -->

<svg
   xmlns:dc="http://purl.org/dc/elements/1.1/"
   xmlns:cc="http://creativecommons.org/ns#"
   xmlns:rdf="http://www.w3.org/1999/02/22-rdf-syntax-ns#"
   xmlns:svg="http://www.w3.org/2000/svg"
   xmlns="http://www.w3.org/2000/svg"
   version="1.1"
   width="320"
   height="64"
   id="svg2"
   xml:space="preserve"><metadata
     id="metadata8"><rdf:RDF><cc:Work
         rdf:about=""><dc:format>image/svg+xml</dc:format><dc:type
           rdf:resource="http://purl.org/dc/dcmitype/StillImage" /><dc:title></dc:title></cc:Work></rdf:RDF></metadata><defs
     id="defs6" /><g
     transform="matrix(0.52287582,0,0,-0.52287582,0,377.09803)"
     id="g10"><path
       d="m 56.4,685.92 8.88,-9.12 9.12,9.12 16.8,0 0,-23.28 -6.96,0 -2.4,-2.64 2.4,-2.64 6.96,0 0,-5.28 -9.12,0 -16.8,16.56 0,-5.28 15.12,-15.12 10.8,-0.24 0,-5.04 -12.96,0 -1.68,1.68 -1.68,1.44 -1.44,1.68 -1.68,1.68 -1.68,1.44 -1.44,1.68 -1.68,1.68 -1.68,1.44 0,-4.8 11.52,-11.76 14.4,0 0,-5.04 -16.56,0 -9.12,8.88 -8.88,-8.88 -17.28,0 0,23.28 7.2,0 2.64,2.64 -2.64,2.64 -7.2,0 0,5.04 9.6,0 3.84,-3.84 2.88,2.64 -5.04,4.8 -11.28,0 0,5.52 12.96,0 6.72,-6.48 2.64,2.64 -7.68,7.44 -14.64,0 0,5.52 17.04,0"
       id="path26"
       style="fill:#204080;fill-opacity:1;fill-rule:evenodd;stroke:none" /><path
       d="m 333.84,659.52 0.24,0 6.48,26.4 16.56,0 0.48,-0.48 6.24,-25.44 0.24,-0.24 0.24,1.68 0.48,1.68 0.48,1.44 0.24,1.68 0.48,1.68 0.48,1.68 0.24,1.44 0.48,1.68 0.24,1.68 0.48,1.68 0.24,1.68 0.48,1.68 0.24,1.44 0.48,1.68 0.24,1.68 0.48,1.68 18.72,0 -14.16,-51.84 -18.48,0 -7.2,24.96 -6.96,-24.96 -18.24,0 -14.4,51.84 18.72,0 5.76,-26.4"
       id="path28"
       style="fill:#204080;fill-opacity:1;fill-rule:evenodd;stroke:none" /><path
       d="m 501.84,665.52 0.72,-3.6 0,-27.6 -16.8,0 0,22.8 -0.24,0.48 0,0.24 -0.24,0.48 -0.24,0.24 -0.24,0.24 -0.24,0.24 -0.48,0 -0.24,0.24 -0.24,0 -0.48,0.24 -0.96,0 -0.48,-0.24 -0.24,0 -0.24,-0.24 -0.24,0 -0.24,-0.24 -0.24,0 -0.24,-0.24 -0.24,-0.24 -0.24,-0.24 -0.24,0 -0.24,-0.48 -0.24,-0.48 -0.24,-0.24 0,-0.48 -0.24,0 0,-11.76 0.24,-3.12 0,-6.48 -0.24,-0.72 -16.08,0 0.24,36.24 15.84,0 0,-1.2 0.24,-0.96 0,-2.4 0.72,0.72 0.72,0.72 0.72,0.72 0.72,0.48 0.72,0.72 0.96,0.48 0.72,0.48 0.96,0.48 0.72,0.24 0.96,0.24 0.96,0.24 0.96,0.24 3.12,0 0.96,-0.24 0.72,0 0.72,-0.24 0.48,-0.24 0.72,0 0.72,-0.48 0.72,-0.24 0.48,-0.24 0.72,-0.48 0.48,-0.24 0.72,-0.48 0.48,-0.48 0.48,-0.48 0.48,-0.48 0.48,-0.72 0.48,-0.48 0.24,-0.72"
       id="path30"
       style="fill:#204080;fill-opacity:1;fill-rule:evenodd;stroke:none" /><path
       d="m 459.36,671.28 0,-13.68 -0.72,0 -0.96,0 -0.72,0.24 -1.44,0 -0.96,-0.24 -0.72,0 -0.72,-0.24 -0.72,-0.24 -0.72,-0.24 -0.24,-0.24 -0.48,-0.24 -0.24,0 -0.24,-0.24 -0.48,-0.24 -0.24,-0.24 -0.24,-0.24 -0.24,-0.48 -0.24,-0.24 -0.24,-0.24 -0.24,-0.24 -0.24,-0.48 -0.24,-0.24 -0.24,-0.24 0,-0.24 -0.24,-0.48 -0.24,-0.72 0,-17.52 -16.8,0 0.24,36 16.32,0.24 0,-2.4 0.24,-0.96 0,-1.2 0.48,0.72 0.48,0.72 0.24,0.24 0.48,0.48 0.24,0.24 0.24,0.24 0.72,0.48 0.72,0.48 0.72,0.48 0.72,0.48 0.96,0.24 0.72,0.24 0.96,0.24 0.72,0.24 2.64,0 0.96,-0.24"
       id="path32"
       style="fill:#204080;fill-opacity:1;fill-rule:evenodd;stroke:none" /><path
       d="m 267.36,671.28 -0.24,-13.68 -1.44,0 -0.72,0.24 -1.68,0 -0.72,-0.24 -0.96,0 -0.72,-0.24 -0.72,-0.24 -0.72,-0.24 -0.24,-0.24 -0.24,-0.24 -0.48,0 -0.24,-0.24 -0.24,-0.24 -0.48,-0.24 -0.24,-0.24 -0.24,-0.48 -0.24,-0.24 -0.24,-0.24 -0.24,-0.24 -0.24,-0.48 -0.24,-0.24 -0.24,-0.24 0,-0.24 -0.24,-0.48 -0.24,-0.72 0,-0.72 -0.24,-16.8 -16.56,0 0,36 16.56,0.24 0,-3.36 0.24,-1.2 0.48,0.72 0.48,0.72 0.24,0.24 0.48,0.48 0.24,0.24 0.24,0.24 0.72,0.48 0.72,0.48 0.72,0.48 0.96,0.48 0.72,0.24 0.72,0.24 0.96,0.24 0.72,0.24 2.88,0 0.96,-0.24"
       id="path34"
       style="fill:#204080;fill-opacity:1;fill-rule:evenodd;stroke:none" /><path
       d="m 579.36,656.88 -0.72,0.24 -0.72,0 -0.48,0.24 -2.16,0 -0.72,-0.24 -0.72,0 -0.72,-0.24 -0.72,-0.24 -0.72,-0.24 -0.48,-0.24 -0.72,-0.24 -0.48,-0.48 -0.48,-0.48 -0.48,-0.48 -0.48,-0.48 -0.24,-0.24 -0.24,-0.48 -0.24,-0.48 0,-0.48 -0.24,-0.48 0,-0.72 -0.24,-0.48 0.24,-16.32 -17.28,0 0,36 16.56,0 0,-3.36 0.24,-0.48 0,-0.48 0.24,0.48 0.24,0.24 0.48,0.48 0.24,0.24 0.24,0.24 0.24,0.48 0.48,0.24 0.24,0.24 0.48,0.24 0.24,0.24 0.48,0.24 0.24,0.24 0.72,0.48 0.96,0.48 0.72,0.24 0.96,0.24 0.72,0 0.96,0.24 2.64,0 0.72,-0.24 0,-14.16"
       id="path36"
       style="fill:#204080;fill-opacity:1;fill-rule:evenodd;stroke:none" /><path
       d="m 544.56,663.36 0.48,-0.96 0.24,-0.72 0.48,-0.72 0.24,-0.72 0.48,-0.72 0.24,-0.72 0.24,-0.72 0.24,-0.72 0,-0.96 0.24,-0.72 0.24,-0.96 0,-4.8 -25.68,0 0,-2.4 0.24,-0.48 0.24,-0.72 0,-0.24 0.24,-0.24 0.24,-0.24 0,-0.24 0.24,-0.24 0.24,-0.24 0.24,-0.24 0.24,0 0.24,-0.24 0.24,-0.24 0.24,0 0.24,-0.24 0.24,0 0.24,-0.24 2.88,0 0.24,0.24 0.24,0 0.24,0.24 0.24,0.24 0.24,0 0.48,0.48 0.48,0.48 0.48,0.48 0.24,0.48 16.32,0.24 0,-0.48 -0.24,-0.48 0,-0.48 -0.24,-0.48 -0.24,-0.48 0,-0.48 -0.24,-0.48 -0.24,-0.48 -0.24,-0.24 -0.24,-0.48 -0.48,-0.48 -0.24,-0.48 -0.48,-0.72 -0.72,-0.72 -0.72,-0.72 -0.96,-0.72 -0.72,-0.72 -0.96,-0.48 -0.72,-0.48 -0.96,-0.48 -0.96,-0.48 -0.72,-0.48 -0.96,-0.24 -0.72,-0.24 -0.72,-0.24 -0.96,-0.24 -0.72,-0.24 -0.96,0 -0.72,-0.24 -0.96,0 -0.96,-0.24 -0.96,0 -0.72,-0.24 -3.6,0 -0.96,0.24 -1.68,0 -0.96,0.24 -0.72,0.24 -0.96,0.24 -0.96,0.24 -0.72,0.24 -0.72,0.24 -0.96,0.24 -0.72,0.48 -0.72,0.48 -0.72,0.24 -0.72,0.48 -0.72,0.72 -0.72,0.48 -0.72,0.48 -0.48,0.48 -0.48,0.48 -0.24,0.48 -0.48,0.48 -0.48,0.48 -0.24,0.72 -0.48,0.48 -0.24,0.48 -0.24,0.72 -0.48,0.48 -0.24,0.72 -0.24,0.48 0,0.72 -0.24,0.48 -0.24,0.72 -0.24,0.72 0,0.48 -0.24,0.72 0,1.2 -0.24,0.72 0,1.92 0.24,0.72 0,1.44 0.24,0.48 0,0.72 0.24,0.72 0.24,0.48 0,0.72 0.24,0.48 0.24,0.48 0,0.72 0.24,0.48 0.24,0.48 0.24,0.48 0.24,0.48 0.24,0.48 0.24,0.48 0.24,0.48 0.48,0.48 0.24,0.48 0.72,0.72 0.72,0.96 0.96,0.72 0.72,0.72 0.96,0.72 0.96,0.72 0.96,0.48 0.96,0.48 0.96,0.48 0.96,0.48 0.96,0.24 0.96,0.24 0.96,0.24 0.72,0.24 0.96,0.24 1.92,0 0.96,0.24 3.84,0 0.96,-0.24 1.92,0 0.72,-0.24 0.96,-0.24 0.96,-0.24 0.72,-0.24 0.96,-0.48 0.96,-0.24 0.72,-0.48 0.72,-0.48 0.96,-0.48 0.72,-0.48 0.72,-0.48 0.72,-0.48 0.48,-0.72 0.72,-0.72 0.72,-0.72 0.48,-0.72 0.48,-0.72 m -18.96,-1.2 -0.24,-0.24 -0.48,-0.24 -0.24,-0.24 -0.48,-0.24 -0.24,-0.24 -0.24,-0.48 -0.48,-0.24 -0.24,-0.48 0,-0.24 -0.24,-0.48 -0.24,-0.48 0,-0.24 -0.24,-0.48 0,-1.2 10.32,0 0,1.44 -0.24,0.72 -0.24,0.48 0,0.48 -0.24,0.24 -0.24,0.24 0,0.24 -0.24,0.24 -0.24,0.48 -0.24,0 -0.24,0.48 -0.24,0 -0.24,0.24 -0.48,0.24 -0.48,0 -0.24,0.24 -2.64,0 -0.72,-0.24"
       id="path38"
       style="fill:#204080;fill-opacity:1;fill-rule:evenodd;stroke:none" /><path
       d="m 234.24,659.76 0.24,-0.72 0.24,-0.72 0.24,-0.72 0.24,-0.72 0.24,-0.48 0,-0.72 0.24,-0.72 0,-5.76 -0.24,-0.72 0,-0.72 -0.24,-0.72 -0.24,-0.72 -0.24,-0.72 -0.24,-0.48 -0.24,-0.72 -0.24,-0.72 -0.24,-0.72 -0.48,-0.48 -0.24,-0.72 -0.48,-0.48 -0.24,-0.72 -0.48,-0.48 -0.48,-0.48 -0.48,-0.48 -0.48,-0.72 -0.72,-0.48 -0.48,-0.48 -0.72,-0.72 -0.72,-0.48 -0.72,-0.48 -0.72,-0.24 -0.72,-0.48 -0.96,-0.48 -0.72,-0.24 -0.72,-0.24 -0.96,-0.48 -0.72,0 -0.96,-0.24 -0.72,-0.24 -0.96,-0.24 -0.72,0 -0.96,-0.24 -5.28,0 -0.96,0.24 -0.72,0 -0.96,0.24 -0.72,0.24 -0.96,0.24 -0.72,0 -0.72,0.48 -0.96,0.24 -0.72,0.24 -0.72,0.24 -0.48,0.24 -0.72,0.48 -0.48,0.24 -0.72,0.24 -0.48,0.48 -0.48,0.48 -0.48,0.24 -0.48,0.48 -0.48,0.48 -0.48,0.48 -0.48,0.48 -0.48,0.48 -0.48,0.48 -0.48,0.72 -0.24,0.48 -0.48,0.48 -0.24,0.72 -0.48,0.48 -0.24,0.72 -0.24,0.48 -0.24,0.72 -0.24,0.48 -0.24,0.72 -0.24,0.72 -0.24,0.72 -0.24,0.48 0,0.72 -0.24,0.72 0,4.56 0.24,0.72 0,0.48 0.24,0.72 0.24,0.48 0,0.72 0.24,0.48 0.24,0.72 0.24,0.48 0.24,0.72 0.24,0.48 0.24,0.72 0.48,0.48 0.24,0.48 0.48,0.48 0.24,0.72 0.48,0.48 0.24,0.48 0.48,0.48 0.48,0.48 0.48,0.48 0.48,0.48 0.48,0.48 0.48,0.24 0.48,0.48 0.48,0.48 0.72,0.24 0.48,0.48 0.48,0.24 0.72,0.48 0.96,0.24 0.72,0.24 0.72,0.24 0.96,0.24 0.72,0.24 0.96,0.24 0.72,0.24 0.96,0.24 0.72,0 0.96,0.24 5.28,0 0.96,-0.24 0.96,0 0.72,-0.24 0.96,-0.24 0.72,-0.24 0.96,-0.24 0.72,-0.24 0.96,-0.24 0.72,-0.24 0.72,-0.48 0.72,-0.48 0.72,-0.24 0.96,-0.48 0.48,-0.48 0.72,-0.48 0.48,-0.48 0.48,-0.24 0.24,-0.48 0.48,-0.48 0.72,-0.72 0.72,-0.72 0.48,-0.96 0.48,-0.96 0.48,-0.96 0.48,-0.72 m -20.88,-0.96 -0.48,-0.24 -0.24,-0.24 -0.48,0 -0.48,-0.24 -0.24,-0.24 -0.48,-0.24 -0.24,-0.24 -0.48,-0.48 -0.24,-0.24 -0.24,-0.48 -0.24,-0.24 -0.24,-0.48 -0.24,-0.24 -0.24,-0.48 -0.24,-0.48 0,-0.24 -0.24,-0.72 0,-3.12 0.24,-0.48 0,-0.48 0.24,-0.48 0.24,-0.48 0.24,-0.48 0.24,-0.24 0.24,-0.48 0.48,-0.48 0.24,-0.48 0.72,-0.24 0.48,-0.24 0.48,-0.24 0.72,-0.24 0.24,0 0.24,-0.24 1.92,0 0.48,0.24 0.96,0 0.48,0.24 0.24,0.24 0.48,0.24 0.48,0.24 0.24,0.24 0.48,0.24 0.24,0.48 0.24,0.24 0.24,0.48 0.24,0.24 0.24,0.48 0.24,0.24 0,0.48 0.24,0.72 0.24,0.48 0,2.88 -0.24,0.48 0,0.72 -0.24,0.48 -0.24,0.48 -0.48,0.48 -0.24,0.48 -0.48,0.48 -0.48,0.48 -0.72,0.48 -0.24,0 -0.24,0.24 -0.24,0.24 -0.24,0 -0.48,0.24 -0.72,0 -0.48,0.24 -1.92,0"
       id="path40"
       style="fill:#204080;fill-opacity:1;fill-rule:evenodd;stroke:none" /><path
       d="m 294.24,666.48 0.24,0.48 0,3.12 0.48,0 16.8,0 -0.24,-35.28 0,-2.16 -0.24,-0.48 0,-0.24 -0.24,-0.48 0,-0.48 -0.24,-0.48 -0.24,-0.48 -0.24,-0.48 -0.24,-0.24 -0.24,-0.48 -0.24,-0.48 -0.24,-0.24 -0.24,-0.48 -0.72,-0.72 -0.48,-0.72 -0.96,-0.48 -0.72,-0.72 -0.72,-0.48 -0.72,-0.48 -0.96,-0.48 -0.72,-0.48 -0.72,-0.24 -0.72,-0.24 -0.72,-0.24 -0.96,-0.24 -0.72,-0.24 -0.72,-0.24 -0.72,-0.24 -0.72,-0.24 -0.96,0 -0.72,-0.24 -0.72,-0.24 -1.68,0 -0.72,-0.24 -4.08,0 -0.96,0.24 -1.68,0 -0.72,0.24 -0.72,0 -0.96,0.24 -0.72,0 -0.72,0.24 -0.72,0.24 -0.72,0.24 -0.72,0.24 -0.96,0.24 -0.72,0.24 -0.72,0.48 -0.72,0.24 -0.72,0.48 -0.72,0.48 -0.72,0.48 -0.72,0.72 -0.72,0.48 -0.48,0.72 -0.72,0.72 -0.48,0.72 -0.48,0.72 -0.48,0.72 -0.48,0.72 -0.24,0.96 -0.24,0.24 0,0.48 -0.24,0.24 0,0.48 16.32,0 0.24,-0.24 0.48,-0.48 0.24,-0.24 0.24,-0.48 0.48,-0.24 0.48,-0.24 0.24,-0.24 0.48,-0.24 2.16,0 0.48,0.24 0.48,0 0.24,0.24 0.48,0.24 0.48,0.24 0.24,0 0.48,0.48 0.24,0.24 0.24,0.24 0.24,0.48 0.24,0.24 0.24,0.72 0.24,0.72 0.24,0.72 0,1.92 -0.24,0.72 0,0.72 -0.48,-0.48 -0.48,-0.24 -0.48,-0.48 -0.48,-0.24 -0.48,-0.24 -0.48,-0.24 -0.48,-0.24 -0.72,-0.24 -0.48,-0.24 -0.48,0 -0.72,-0.24 -0.48,-0.24 -0.72,0 -0.48,-0.24 -1.92,0 -0.48,-0.24 -0.72,0 -0.48,0.24 -1.92,0 -0.48,0.24 -0.72,0 -0.48,0.24 -0.48,0.24 -0.72,0 -0.48,0.24 -0.48,0.24 -0.48,0.24 -0.72,0.24 -0.48,0.48 -0.48,0.24 -0.72,0.48 -0.48,0.24 -0.48,0.48 -0.48,0.48 -0.48,0.48 -0.48,0.48 -0.24,0.48 -0.48,0.48 -0.24,0.48 -0.48,0.48 -0.24,0.72 -0.24,0.48 -0.24,0.48 -0.24,0.72 -0.24,0.48 -0.24,0.72 -0.24,0.48 -0.24,0.72 0,0.48 -0.24,0.72 0,0.72 -0.24,0.48 0,6.96 0.24,0.72 0,0.48 0.24,0.48 0,0.48 0.24,0.72 0.24,0.48 0,0.48 0.24,0.48 0.24,0.48 0.24,0.72 0.24,0.48 0.24,0.48 0.24,0.48 0.48,0.48 0.24,0.48 0.24,0.24 0.48,0.48 0.24,0.48 0.48,0.48 0.48,0.24 0.24,0.48 0.48,0.24 0.48,0.48 0.48,0.24 0.48,0.48 0.48,0.24 0.48,0.24 0.48,0.24 0.48,0.24 0.48,0.24 0.48,0.24 0.48,0.24 0.72,0 0.48,0.24 0.48,0 0.48,0.24 1.2,0 0.48,0.24 2.16,0 0.72,-0.24 0.96,0 0.48,-0.24 0.72,0 0.48,-0.24 0.48,0 0.48,-0.24 0.48,-0.24 0.48,-0.24 0.72,-0.24 0.24,-0.24 0.48,-0.24 0.48,-0.48 0.48,-0.24 0.48,-0.24 0.24,-0.48 0.48,-0.24 m -1.92,-7.92 -0.24,0 -0.48,0.24 -2.4,0 -0.48,-0.24 -0.48,0 -0.48,-0.24 -0.24,-0.24 -0.48,-0.24 -0.24,-0.24 -0.48,-0.24 -0.24,-0.24 -0.24,-0.24 -0.24,-0.48 -0.24,-0.24 -0.24,-0.48 -0.24,-0.24 -0.24,-0.48 0,-0.24 -0.24,-0.48 0,-2.88 0.24,-0.48 0,-0.24 0.24,-0.48 0.24,-0.48 0.24,-0.24 0.24,-0.24 0.24,-0.48 0.24,-0.24 0.24,-0.24 0.24,-0.24 0.24,-0.24 0.48,-0.24 0.48,-0.24 0.24,0 0.48,-0.24 0.96,0 0.48,-0.24 1.44,0 0.24,0.24 0.72,0 0.24,0.24 0.24,0 0.24,0.24 0.48,0.24 0.72,0.48 0.24,0.48 0.48,0.24 0.24,0.48 0.24,0.48 0.24,0.24 0.24,0.48 0.24,0.48 0,3.12 -0.24,0.96 0,0.24 -0.24,0.24 -0.24,0.24 0,0.24 -0.48,0.48 -0.48,0.48 -0.48,0.48 -0.48,0.24 -0.24,0.24 -0.24,0.24 -0.24,0 -0.48,0.24"
       id="path42"
       style="fill:#204080;fill-opacity:1;fill-rule:evenodd;stroke:none" /><path
       d="m 409.68,666.96 0,2.64 0.24,0.48 0,0.24 17.04,0 0,-4.08 0.24,-2.4 0,-24.96 -0.24,-2.4 0,-2.4 -17.04,0 -0.24,1.2 0,1.2 0,0.48 0,1.44 -0.72,-0.72 -0.48,-0.72 -0.72,-0.48 -0.72,-0.72 -0.72,-0.48 -0.72,-0.48 -0.96,-0.48 -0.72,-0.24 -0.96,-0.48 -0.72,-0.24 -0.96,-0.24 -1.44,0 -0.48,-0.24 -1.92,0 -0.48,0.24 -0.96,0 -0.48,0.24 -0.24,0 -0.48,0.24 -0.48,0.24 -0.48,0 -0.48,0.24 -0.48,0.24 -0.72,0.48 -0.96,0.48 -0.72,0.48 -0.96,0.72 -0.72,0.72 -0.48,0.48 -0.72,0.72 -0.72,0.96 -0.24,0.24 -0.24,0.48 -0.24,0.48 -0.24,0.48 -0.24,0.24 0,0.48 -0.24,0.48 -0.24,0.48 -0.24,0.72 -0.24,0.72 -0.24,0.72 -0.24,0.72 0,0.96 -0.24,0.72 -0.24,0.72 0,1.68 -0.24,0.96 0,4.08 0.24,0.72 0,1.68 0.24,0.96 0.24,0.72 0.24,0.72 0.24,0.96 0.24,0.72 0.24,0.72 0.24,0.72 0.48,0.72 0.24,0.72 0.48,0.72 0.48,0.48 0.48,0.72 0.48,0.72 0.72,0.48 0.24,0.24 0.48,0.48 0.24,0.24 0.48,0.48 0.48,0.24 0.48,0.24 0.24,0.24 0.48,0.24 0.48,0.24 0.48,0.24 0.48,0.24 0.48,0.24 0.48,0.24 0.72,0 0.48,0.24 0.48,0 0.48,0.24 0.48,0 0.48,0.24 3.12,0 0.48,-0.24 1.2,0 0.48,-0.24 0.48,-0.24 0.48,0 0.48,-0.24 0.96,-0.24 0.48,-0.24 0.72,-0.48 0.72,-0.48 0.48,-0.48 0.72,-0.48 0.72,-0.48 0.72,-0.72 m -4.32,-9.36 -0.48,-0.24 -0.72,0 -0.72,-0.24 -0.48,-0.24 -0.24,-0.24 -0.24,0 -0.24,-0.24 -0.24,-0.24 -0.48,-0.24 -0.24,-0.24 -0.24,-0.24 -0.24,-0.24 0,-0.24 -0.24,-0.48 -0.24,-0.24 0,-0.48 -0.24,-0.24 0,-3.36 0.24,-0.48 0.24,-0.24 0.24,-0.48 0.24,-0.48 0.48,-0.48 0.48,-0.24 0.48,-0.48 0.48,-0.24 0.48,-0.24 0.48,-0.24 0.48,0 0.48,-0.24 1.2,0 0.24,0.24 0.72,0 0.48,0.24 0.24,0.24 0.48,0 0.24,0.24 0.48,0.24 0.24,0.24 0.24,0.24 0.24,0.24 0.24,0.48 0.24,0.24 0.24,0.24 0.24,0.48 0,0.48 0.24,0.24 0,1.44 0.24,0.24 -0.24,0.48 0,1.2 -0.24,0.48 0,0.24 -0.24,0.48 -0.24,0.24 -0.24,0.24 -0.24,0.24 -0.48,0.48 -0.24,0.24 -0.24,0 -0.24,0.24 -0.48,0.24 -0.24,0.24 -0.48,0 -0.24,0.24 -0.96,0 -0.72,0.24"
       id="path44"
       style="fill:#204080;fill-opacity:1;fill-rule:evenodd;stroke:none" /><path
       d="m 170.16,685.68 2.4,0 1.2,-0.24 1.2,0 1.2,-0.24 1.2,-0.24 0.72,-0.24 0.48,-0.24 0.72,-0.24 0.48,-0.24 0.48,-0.24 0.48,-0.24 0.72,-0.24 0.48,-0.24 0.48,-0.24 0.48,-0.48 0.48,-0.24 0.48,-0.48 0.48,-0.48 0.48,-0.24 0.24,-0.48 0.48,-0.48 0.24,-0.48 0.48,-0.48 0.24,-0.72 0.48,-0.48 0.24,-0.72 0.24,-0.72 0,-0.72 0.24,-0.72 0.24,-0.96 0,-2.16 -0.24,-0.96 0,-0.72 -0.24,-0.72 -0.24,-0.72 -0.24,-0.72 -0.48,-0.72 -0.24,-0.72 -0.48,-0.72 -0.24,-0.24 -0.48,-0.48 -0.24,-0.48 -0.24,-0.24 -0.48,-0.48 -0.48,-0.24 -0.24,-0.24 -0.48,-0.24 -0.72,-0.48 -0.96,-0.48 -0.72,-0.48 -0.72,-0.72 1.44,-0.48 1.44,-0.48 0.72,-0.48 0.48,-0.24 0.72,-0.48 0.72,-0.24 0.72,-0.48 0.48,-0.48 0.72,-0.48 0.48,-0.72 0.48,-0.48 0.48,-0.72 0.24,-0.24 0.24,-0.48 0.24,-0.24 0,-0.48 0.24,-0.48 0.24,-0.48 0,-0.48 0.24,-0.48 0.24,-0.48 0,-0.96 0.24,-0.48 0,-2.64 -0.24,-0.48 0,-0.96 -0.24,-0.48 0,-0.48 -0.24,-0.48 -0.24,-0.48 -0.24,-0.96 -0.48,-0.96 -0.24,-0.48 -0.24,-0.48 -0.24,-0.24 -0.24,-0.48 -0.24,-0.48 -0.48,-0.24 -0.24,-0.48 -0.24,-0.48 -0.96,-0.48 -0.72,-0.72 -0.72,-0.48 -0.72,-0.48 -0.96,-0.48 -0.72,-0.24 -0.96,-0.48 -0.72,-0.24 -0.96,-0.24 -0.96,-0.24 -0.96,-0.24 -0.96,0 -0.96,-0.24 -31.68,0 0,51.6 26.4,0 m -8.16,-11.76 0,-7.92 0.72,0 0.48,0.24 0.72,-0.24 3.84,0 0.72,0.24 0.24,0 0.24,0.24 0.48,0 0.48,0.24 0.24,0.24 0.24,0 0,0.24 0.24,0.24 0.24,0.24 0.24,0.48 0,0.24 0.24,0.72 0.24,0.72 0,0.24 -0.24,0.48 0,0.48 -0.24,0.72 -0.24,0.24 0,0.24 -0.24,0.24 -0.24,0.24 0,0.24 -0.24,0.24 -0.24,0.24 -0.24,0 -0.48,0.24 -0.48,0 -0.24,0.24 -6.48,0 m 0,-19.2 0,-9.12 0.72,0.24 1.44,0 0.72,-0.24 2.88,0 0.48,0.24 0.72,0 0.24,0.24 0.24,0 0.48,0.24 0.24,0 0.24,0.24 0.24,0.24 0,0.24 0.24,0.24 0.24,0.24 0,0.48 0.24,0.24 0.24,0.48 0,0.96 0.24,0.48 -0.24,0.72 0,0.96 -0.24,0.48 -0.24,0.24 0,0.24 -0.24,0.24 -0.24,0.24 -0.24,0.24 0,0.24 -0.24,0.24 -0.24,0.24 -0.24,0 -0.24,0.24 -0.72,0 -0.48,0.24 -6.24,0"
       id="path46"
       style="fill:#204080;fill-opacity:1;fill-rule:evenodd;stroke:none" /></g></svg>