<?xml version="1.0" encoding="UTF-8" standalone="no"?>
<svg
   xmlns:dc="http://purl.org/dc/elements/1.1/"
   xmlns:cc="http://creativecommons.org/ns#"
   xmlns:rdf="http://www.w3.org/1999/02/22-rdf-syntax-ns#"
   xmlns:svg="http://www.w3.org/2000/svg"
   xmlns="http://www.w3.org/2000/svg"
   xml:space="preserve"
   style="enable-background:new -209 176.6 251.3 208.5;"
   viewBox="-209 176.6 251.3 208.5"
   y="0px"
   x="0px"
   id="Layer_1"
   version="1.1"><metadata
     id="metadata37"><rdf:RDF><cc:Work
         rdf:about=""><dc:format>image/svg+xml</dc:format><dc:type
           rdf:resource="http://purl.org/dc/dcmitype/StillImage" /></cc:Work></rdf:RDF></metadata><defs
     id="defs35" /><g
     id="g30"><path
       id="path2"
       d="M-205.7,351.8v-8.1h5.8v8.1h4.7v4.7h-4.7v13.8c0,1.3,0.6,1.7,2.1,1.7c0.9,0,1.8-0.3,2.6-0.5v4.8  c-1.6,0.2-3,0.4-4.6,0.4c-4.3,0-5.9-2.2-5.9-5.6v-14.5h-3.3v-4.7L-205.7,351.8L-205.7,351.8z"
       fill="#58676D" /><path
       id="path4"
       d="M-186.6,364.9c0.1,5,2.3,7,5,7c2.7,0,3.9-1.2,5.4-2.9l4.2,2.6c-2.2,3.5-5.5,5-10.1,5  c-6.3,0-10.2-4.9-10.2-12.6s3.9-12.6,10.5-12.6c6.3,0,9.9,5.3,9.9,11.2v2.4h-14.7V364.9z M-177.3,361c-0.1-3.4-1.9-5.3-4.6-5.3  c-2.8,0-4.5,2-4.6,5.3H-177.3z"
       fill="#58676D" /><path
       id="path6"
       d="M-153.3,359.7c-0.9-2.1-1.9-3.7-4.8-3.7c-3.2,0-4.7,2.5-4.7,8c0,5.4,1.5,7.9,4.9,7.9c2.5,0,3.9-1.7,5.1-3.9  l4.4,2.5c-2.3,4.3-5.3,6.1-9.7,6.1c-6.5,0-10.5-4.9-10.5-12.6c0-7.7,3.9-12.6,10.5-12.6c4.6,0,8.2,2.4,9.5,6.5L-153.3,359.7z"
       fill="#58676D" /><path
       id="path8"
       d="M-144.1,376.1v-33.8h5.8v12.1c1.8-1.5,4.1-3.1,6.9-3.1c4.8,0,7.2,3.2,7.2,8.1v16.7h-5.8v-15.8  c0-3.3-1-4.3-3-4.3c-2.5,0-4.4,1.5-5.4,2.6v17.6h-5.7V376.1z"
       fill="#58676D" /><path
       id="path10"
       d="M-118.3,376.1v-24.3h5.3v2.6c2.1-1.5,4.6-3.1,7.4-3.1c4.8,0,7.1,3.2,7.1,8.1v16.7h-5.7v-15.8  c0-3.3-1-4.3-3-4.3c-2.5,0-4.4,1.5-5.4,2.6v17.6h-5.7V376.1z"
       fill="#58676D" /><path
       id="path12"
       d="M-83.9,351.3c6.6,0,10.5,4.9,10.5,12.6c0,7.7-3.9,12.6-10.5,12.6s-10.5-4.9-10.5-12.6  C-94.3,356.2-90.4,351.3-83.9,351.3z M-83.9,356c-3.2,0-4.7,2.5-4.7,8c0,5.4,1.5,7.9,4.7,7.9s4.7-2.5,4.7-7.9  C-79.1,358.5-80.7,356-83.9,356z"
       fill="#58676D" /><path
       id="path14"
       d="M-68.7,376.1v-33.8h5.7v25.3v8.5H-68.7z"
       fill="#58676D" /><path
       id="path16"
       d="M-47.8,351.3c6.6,0,10.5,4.9,10.5,12.6c0,7.7-3.9,12.6-10.5,12.6s-10.5-4.9-10.5-12.6  C-58.2,356.2-54.3,351.3-47.8,351.3z M-47.8,356c-3.2,0-4.7,2.5-4.7,8c0,5.4,1.5,7.9,4.7,7.9s4.7-2.5,4.7-7.9  C-43,358.5-44.5,356-47.8,356z"
       fill="#58676D" /><path
       id="path18"
       d="M-13.5,355.3c-1.3,0-2.8,0-3.7,0.6c0.8,1,1.3,2.4,1.3,4.3c0,4.6-3.1,7.9-9.1,7.9c-2.5,0-4.5,0.1-4.5,1.5  c0,3.9,15.9-1.4,15.9,8.3c0,3.5-3.5,7.2-11.2,7.2c-6.5,0-10.8-2-10.8-5.8c0-3,2.3-4.5,4.3-4.5v-0.2c-1.1-0.7-3.6-1.3-3.6-3.9  c0-2.3,2.7-4.1,3.8-4.4c-2-1.6-3.6-3.5-3.6-6.4c0-4.3,3.2-8.5,9.5-8.5c2,0,4.5,0.9,5.9,2.2c1.1-1.5,2.9-2.3,5.7-2.2v3.9H-13.5z   M-30.3,378.5c0,1.8,1.6,2.7,6.4,2.7c3.7,0,5-1.9,5-2.7c0-1.1-1.7-2.8-7.3-2.8C-29.4,375.7-30.3,377.4-30.3,378.5z M-25.2,355.6  c-2.5,0-4.2,1.8-4.2,4c0,2.2,1.7,4,4.2,4c2.2,0,3.9-1.8,3.9-4C-21.2,357.4-23,355.6-25.2,355.6z"
       fill="#58676D" /><path
       id="path20"
       d="M-9.4,347.3v-5.4h5.7v2.4v3H-9.4z M-3.6,369v7.2h-5.7v-24.3h5.7V369z"
       fill="#58676D" /><path
       id="path22"
       d="M6.8,364.9c0.1,5,2.3,7,5,7s3.9-1.2,5.4-2.9l4.2,2.6c-2.2,3.5-5.5,5-10.1,5c-6.3,0-10.2-4.9-10.2-12.6  s3.9-12.6,10.5-12.6c6.3,0,9.9,5.3,9.9,11.2v2.4H6.8V364.9z M16.1,361c-0.1-3.4-1.9-5.3-4.7-5.3c-2.8,0-4.6,2-4.6,5.3H16.1z"
       fill="#58676D" /><path
       id="path24"
       d="M37.9,358.2c-1.2-1.3-2.7-2.6-4.5-2.6c-2.2,0-3.2,0.9-3.2,2.4c0,4.2,12.1,2.4,12.1,11.3c0,5-3.8,7.3-8.9,7.3  c-3.8,0-7-1.7-9.1-4.9l3.9-2.9c1.3,1.9,3.1,3.5,5.6,3.5c2,0,3.4-1.1,3.4-2.8c0-4.1-12.1-2.6-12.1-11.1c0-4.5,3.8-7.1,8-7.1  c3.2,0,6.4,1.2,8.5,3.7L37.9,358.2z"
       fill="#58676D" /><path
       id="path26"
       d="M-34.6,282.9c-4.6,7.1-12,11.5-20.2,11.5c-11.2,0-20.5-5.1-20.5-17.2c0-17.9,26.1-24.2,46.1-25.4v5.3  C-29.1,268.7-29.3,274.9-34.6,282.9z M-71.8,218.6c3-8.1,11.1-11.6,22.1-11.6c15.7,0,20.2,11,20.4,20.1l0.1,4.4  c-43.4,2.1-84.2,10.2-83.4,49.9c0.6,27.8,25.7,39.2,43,39.1c20.1,0,31.3-5.4,42.4-19.1c0.2,5.8,0.9,11.9,1.9,16.4h38.9  c-2.2-6.8-2.7-13.6-2.7-20.7V225c0-17.5-3.3-27.3-12.7-35.8c-8.9-8.1-23.5-12.6-43.2-12.6c-18,0-33.5,4.1-44.9,11.9l0,0  C-80.5,195.9-74.3,206.2-71.8,218.6L-71.8,218.6z"
       fill="#58676D" /><path
       id="path28"
       d="M-114.8,279.9c0,0.8,0,1.6,0,2.5c0,0.4,0,0.8,0,1.1c0.6,14.2,7.5,23,13.9,28.3l0,0  c-10.8,6.2-23.6,8.8-35.1,8.8c-42,0-66.8-29.7-66.8-70.6c0-42.6,25.6-73.4,69.3-73.4c31.7,0,57.7,16.8,60.5,49.7h-38.1  c0-12.5-8.8-19.2-21.1-19.2c-19.7,0-25.8,13.9-25.8,39.5c0,26,5.7,41.2,25.9,41.2C-124.6,287.9-118.4,285.3-114.8,279.9  L-114.8,279.9z"
       fill="#58676D" /></g></svg>