<?xml version="1.0" encoding="UTF-8" standalone="no"?>
<!-- Created with Inkscape (http://www.inkscape.org/) -->

<svg
   xmlns:dc="http://purl.org/dc/elements/1.1/"
   xmlns:cc="http://creativecommons.org/ns#"
   xmlns:rdf="http://www.w3.org/1999/02/22-rdf-syntax-ns#"
   xmlns:svg="http://www.w3.org/2000/svg"
   xmlns="http://www.w3.org/2000/svg"
   xmlns:sodipodi="http://sodipodi.sourceforge.net/DTD/sodipodi-0.dtd"
   xmlns:inkscape="http://www.inkscape.org/namespaces/inkscape"
   width="98.9375"
   height="24.96875"
   viewBox="0 0 98.9375 24.968749"
   id="svg4502"
   version="1.1"
   inkscape:version="0.91 r13725"
   sodipodi:docname="cbre.svg">
  <defs
     id="defs4504" />
  <sodipodi:namedview
     id="base"
     pagecolor="#ffffff"
     bordercolor="#666666"
     borderopacity="1.0"
     inkscape:pageopacity="0.0"
     inkscape:pageshadow="2"
     inkscape:zoom="9.1936508"
     inkscape:cx="49.21875"
     inkscape:cy="12.234375"
     inkscape:document-units="px"
     inkscape:current-layer="layer1"
     showgrid="false"
     fit-margin-top="0"
     fit-margin-left="0"
     fit-margin-right="0"
     fit-margin-bottom="0"
     units="px"
     inkscape:window-width="1280"
     inkscape:window-height="744"
     inkscape:window-x="-4"
     inkscape:window-y="-4"
     inkscape:window-maximized="1" />
  <metadata
     id="metadata4507">
    <rdf:RDF>
      <cc:Work
         rdf:about="">
        <dc:format>image/svg+xml</dc:format>
        <dc:type
           rdf:resource="http://purl.org/dc/dcmitype/StillImage" />
        <dc:title></dc:title>
      </cc:Work>
    </rdf:RDF>
  </metadata>
  <g
     inkscape:label="Layer 1"
     inkscape:groupmode="layer"
     id="layer1"
     transform="translate(-622.20982,-799.62783)">
    <g
       id="g4379"
       transform="matrix(1.25,0,0,-1.25,667.21232,811.71408)"
       style="fill:#006a4d">
      <path
         d="M 0,0 C 2.488,0.828 2.939,2.916 2.934,4.618 2.929,7.22 1.094,9.467 -4.337,9.467 l -10.139,0.002 0,-19.534 10.111,0 C 1.1,-10.065 3.11,-7.26 3.11,-4.45 3.11,-1.047 0,0 0,0 m -9.664,5.219 6.826,0 0.024,-0.005 c 0.77,-0.136 1.331,-0.791 1.331,-1.559 0,-0.787 -0.601,-1.528 -1.395,-1.636 L -9.661,2.008 -9.664,5.219 Z m 6.497,-10.731 -6.497,0 0,3.269 6.656,0 0.015,-0.002 c 0.828,-0.094 1.456,-0.783 1.456,-1.6 0,-0.893 -0.743,-1.655 -1.63,-1.667"
         style="fill:#006a4d;fill-opacity:1;fill-rule:nonzero;stroke:none"
         id="path4381"
         inkscape:connector-curvature="0" />
    </g>
    <g
       id="g4383"
       transform="matrix(1.25,0,0,-1.25,699.47732,799.88283)"
       style="fill:#006a4d">
      <path
         d="m 0,0 17.132,0 -0.01,-4.262 -12.361,0 0.012,-3.149 11.144,0 0,-4.285 -11.144,0 0,-3.407 12.363,0 -0.003,-4.468 -17.133,0"
         style="fill:#006a4d;fill-opacity:1;fill-rule:nonzero;stroke:none"
         id="path4385"
         inkscape:connector-curvature="0" />
    </g>
    <g
       id="g4387"
       transform="matrix(1.25,0,0,-1.25,687.02107,799.91283)"
       style="fill:#006a4d">
      <path
         d="m 0,0 -10.36,0 0,-19.541 4.757,0 0,7.907 5.24,0.005 c 1.5,-0.023 2.667,-1.251 2.667,-2.767 l 0,-5.127 4.656,0.002 -0.008,6.305 c 0,2.922 -2.823,3.786 -2.823,3.786 0,0 2.886,0.862 2.886,4.316 C 7.015,-0.887 3.384,0 0,0 m 2.597,-6.062 c -0.086,-0.643 -0.728,-1.34 -1.53,-1.34 l -6.687,-0.002 0,3.128 6.689,0 c 0.8,0 1.426,-0.587 1.528,-1.36"
         style="fill:#006a4d;fill-opacity:1;fill-rule:nonzero;stroke:none"
         id="path4389"
         inkscape:connector-curvature="0" />
    </g>
    <g
       id="g4391"
       transform="matrix(1.25,0,0,-1.25,645.26232,818.43658)"
       style="fill:#006a4d">
      <path
         d="m 0,0 c -0.067,-0.001 -6.503,-0.125 -8.725,0.091 -3.576,0.35 -4.844,3.001 -4.844,5.163 0,2.699 1.839,4.683 4.687,5.055 1.356,0.178 8.764,0.094 8.843,0.094 l 0.155,-0.003 0.016,4.444 -0.157,0 -8.386,-0.016 c -0.934,-0.057 -2.482,-0.151 -4.068,-0.799 -1.521,-0.698 -2.847,-1.77 -3.836,-3.103 -1.26,-1.696 -1.927,-3.711 -1.927,-5.823 0,-0.666 0.053,-1.325 0.16,-1.958 0.603,-2.962 2.546,-5.415 5.331,-6.733 0.94,-0.414 2.391,-0.909 5.315,-1.074 l 1.576,-0.033 5.845,-0.005 0.155,0 0.016,4.702"
         style="fill:#006a4d;fill-opacity:1;fill-rule:nonzero;stroke:none"
         id="path4393"
         inkscape:connector-curvature="0" />
    </g>
  </g>
</svg>
