<?xml version="1.0" encoding="UTF-8" standalone="no"?>
<!-- Created with Inkscape (http://www.inkscape.org/) -->

<svg
   xmlns:dc="http://purl.org/dc/elements/1.1/"
   xmlns:cc="http://creativecommons.org/ns#"
   xmlns:rdf="http://www.w3.org/1999/02/22-rdf-syntax-ns#"
   xmlns:svg="http://www.w3.org/2000/svg"
   xmlns="http://www.w3.org/2000/svg"
   version="1.1"
   width="180"
   height="80"
   id="svg6138">
  <defs
     id="defs6140" />
  <metadata
     id="metadata6143">
    <rdf:RDF>
      <cc:Work
         rdf:about="">
        <dc:format>image/svg+xml</dc:format>
        <dc:type
           rdf:resource="http://purl.org/dc/dcmitype/StillImage" />
        <dc:title></dc:title>
      </cc:Work>
    </rdf:RDF>
  </metadata>
  <g
     transform="translate(-543.22008,-585.27508)"
     id="layer1">
    <path
       d="m 570.47409,627.06789 c -10.4575,-0.045 -18.95875,-6.91 -23.46,-15.14 4.54625,-8.18375 13.09375,-14.8225 23.46,-14.8225 10.54875,0 19.005,6.5925 23.46125,14.8225 -4.45625,8.23 -12.82125,15.18625 -23.46125,15.14 m 0,-40.42 c -14.0625,0 -25.4625,11.4 -25.4625,25.4625 0,14.06125 11.4,25.4625 25.4625,25.4625 14.06375,0 25.4625,-11.40125 25.4625,-25.4625 0,-14.0625 -11.39875,-25.4625 -25.4625,-25.4625"
       id="path144"
       style="fill:#000000;fill-opacity:1;fill-rule:evenodd;stroke:none" />
    <path
       d="m 570.47409,625.61289 c 7.45875,0 13.50375,-6.04499 13.50375,-13.5025 0,-7.4575 -6.045,-13.5025 -13.50375,-13.5025 -7.45625,0 -13.5025,6.045 -13.5025,13.5025 0,7.4575 6.04625,13.5025 13.5025,13.5025"
       id="path148"
       style="fill:#000000;fill-opacity:1;fill-rule:evenodd;stroke:none" />
    <path
       d="m 641.88622,588.00013 22.77875,0 c 9.675,0 16.41125,5.94 16.41125,12.0025 0,4.53 -1.715,8.8175 -11.2675,10.89875 3.67375,0.49 13.71625,3.18375 13.71625,12.7375 0,9.5525 -10.5325,14.20625 -17.7575,14.20625 l -23.88125,0 0,-0.49 23.63625,0 c 5.63375,0 9.185,-2.3275 9.185,-12.9825 0,-10.65375 -3.91875,-13.10375 -8.8175,-13.22625 l -7.3475,0 0,-0.48875 7.77625,0 c 3.18375,0 6.5525,-0.49 6.5525,-10.7775 0,-10.2875 -4.0425,-11.39 -8.3275,-11.39 l -6.00125,0 0,48.865 -9.06375,0 0,-48.865 -7.5925,0 0,-0.49 z"
       id="path152"
       style="fill:#000000;fill-opacity:1;fill-rule:evenodd;stroke:none" />
    <path
       d="m 609.72235,613.23489 c 0,-18.86 5.51125,-25.59625 12.0025,-25.59625 9.185,0 14.20625,13.59375 15.7975,18.86 l 0,-18.2475 c -1.59125,1.225 -2.32625,1.8375 -4.04125,1.8375 -1.71375,0 -4.28625,-0.8575 -5.51125,-1.5925 -1.22375,-0.735 -3.67375,-1.3475 -6.1225,-1.3475 -8.08375,0 -22.1675,10.655 -22.1675,26.08625 0,18.2475 12.49125,26.08625 22.1675,26.08625 2.44875,0 5.14375,-0.98 6.3675,-1.715 1.225,-0.73375 3.5525,-1.715 5.26625,-1.715 1.715,0 2.45,0.61375 4.04125,1.83875 l 0,-18.3725 c -1.34625,7.10375 -6.6125,19.47375 -15.7975,19.47375 -2.63375,0 -6.24625,-1.225 -7.9,-2.94 -0.50875,-0.52875 -4.1025,-3.0625 -4.1025,-22.65625"
       id="path156"
       style="fill:#000000;fill-opacity:1;fill-rule:evenodd;stroke:none" />
    <path
       d="m 716.16012,628.03738 c -0.1225,4.04125 -3.18375,9.43 -9.5525,9.3075 -6.36875,-0.12249 -14.085,-4.89874 -17.02375,-17.7575 l 0,17.39 c 1.225,-1.10125 3.30625,-3.0625 6.61375,-1.59125 3.30625,1.46875 8.205,2.44875 10.41,2.44875 2.20375,0 14.32875,-2.3275 14.81875,-16.2875 0.1225,-6.98125 -4.89875,-10.5325 -7.96125,-11.635 -3.55125,-1.3475 -8.57375,-2.94 -11.5125,-3.91999 -2.93875,-0.97875 -7.715,-4.04125 -7.59125,-9.675 0.12125,-5.63251 3.55125,-8.69501 8.205,-8.69501 4.65375,0 10.89875,3.67376 14.08375,16.65625 l 0,-17.2675 c -1.8375,1.59125 -3.3075,2.32625 -4.40875,2.32625 -0.98,0 -3.8275,-1.11875 -5.26625,-1.56125 -1.5925,-0.49 -3.15375,-0.67375 -5.14375,-0.64375 -3.49125,0.0538 -11.69625,4.28751 -12.2475,15.67625 -0.4025,8.3225 5.75625,11.51251 8.57375,12.49126 2.44875,0.85874 9.55125,3.42999 11.63375,4.2875 2.08125,0.85625 6.61375,3.79625 6.36875,8.45"
       id="path160"
       style="fill:#000000;fill-opacity:1;fill-rule:evenodd;stroke:none" />
    <path
       d="m 561.5181,649.29476 c -0.7125,-2.72875 -1.9,-4.29999 -4.93875,-4.29999 -3.77625,0 -5.6525,3.445 -5.6525,8.6 0,6.25625 2.49375,8.59875 5.91375,8.59875 2.65875,0 3.98875,-1.59875 4.74875,-4.16125 l 1.54375,0.96375 c -1.1875,3.5275 -3.4675,4.90625 -6.60125,4.90625 -4.01375,0 -7.21875,-2.92125 -7.21875,-10.3075 0,-7.4425 3.41875,-10.30875 7.1,-10.30875 3.3475,0 5.39,1.37874 6.72,5.07124 l -1.615,0.9375 z"
       id="path164"
       style="fill:#000000;fill-opacity:1;fill-rule:nonzero;stroke:none" />
    <path
       d="m 573.9131,662.19326 c 4.01375,0 5.69875,-4.51999 5.69875,-8.59875 0,-4.08 -1.685,-8.6 -5.69875,-8.6 -4.0125,0 -5.69875,4.52 -5.69875,8.6 0,4.07876 1.68625,8.59875 5.69875,8.59875 m 0,-18.9075 c 5.01,0 7.31375,5.09875 7.31375,10.30875 0,5.20875 -2.30375,10.3075 -7.31375,10.3075 -5.01,0 -7.31375,-5.09875 -7.31375,-10.3075 0,-5.21 2.30375,-10.30875 7.31375,-10.30875"
       id="path168"
       style="fill:#000000;fill-opacity:1;fill-rule:nonzero;stroke:none" />
    <path
       d="m 586.85448,652.98801 5.01125,0 c 3.41875,0 4.17875,-2.0125 4.17875,-3.74875 0,-2.2875 -1.045,-3.7475 -3.91875,-3.7475 l -5.27125,0 0,7.49626 z m -1.615,-9.205 7.48,0 c 3.49125,0 4.94,2.7 4.94,5.45625 0,3.3625 -1.9,5.12625 -4.96375,5.375 l 5.415,8.7925 -2.0425,0 -5.36625,-8.71 -3.8475,0 0,8.71 -1.615,0 0,-19.62375 z"
       id="path172"
       style="fill:#000000;fill-opacity:1;fill-rule:nonzero;stroke:none" />
    <path
       d="m 604.09387,652.79501 5.36625,0 c 2.755,0 4.1325,-1.185 4.1325,-3.665 0,-1.15875 -0.16625,-3.63875 -3.4675,-3.63875 l -6.03125,0 0,7.30376 z m -1.615,-9.0125 8.335,0 c 3.325,0 4.39375,2.83875 4.39375,5.3475 0,3.83 -2.09,5.37375 -5.13,5.37375 l -5.98375,0 0,8.9025 -1.615,0 0,-19.62375 z"
       id="path176"
       style="fill:#000000;fill-opacity:1;fill-rule:nonzero;stroke:none" />
    <path
       d="m 625.7976,662.19326 c 4.01375,0 5.69875,-4.51999 5.69875,-8.59875 0,-4.08 -1.685,-8.6 -5.69875,-8.6 -4.01375,0 -5.69875,4.52 -5.69875,8.6 0,4.07876 1.685,8.59875 5.69875,8.59875 m 0,-18.9075 c 5.01,0 7.31375,5.09875 7.31375,10.30875 0,5.20875 -2.30375,10.3075 -7.31375,10.3075 -5.01,0 -7.31375,-5.09875 -7.31375,-10.3075 0,-5.21 2.30375,-10.30875 7.31375,-10.30875"
       id="path180"
       style="fill:#000000;fill-opacity:1;fill-rule:nonzero;stroke:none" />
    <path
       d="m 639.21374,652.98801 5.01,0 c 3.42,0 4.18,-2.0125 4.18,-3.74875 0,-2.2875 -1.045,-3.7475 -3.91875,-3.7475 l -5.27125,0 0,7.49626 z m -1.615,-9.205 7.48,0 c 3.49125,0 4.94,2.7 4.94,5.45625 0,3.3625 -1.9,5.12625 -4.96375,5.375 l 5.41375,8.7925 -2.04125,0 -5.36625,-8.71 -3.8475,0 0,8.71 -1.615,0 0,-19.62375 z"
       id="path184"
       style="fill:#000000;fill-opacity:1;fill-rule:nonzero;stroke:none" />
    <path
       d="m 662.93572,655.96465 -3.13376,-9.67375 -3.23,9.67375 6.36376,0 z m -2.39876,-12.1825 6.55501,19.62375 -1.73375,0 -1.9,-5.8975 -7.4325,0 -2.01876,5.8975 -1.66249,0 6.8875,-19.62375 1.30499,0 z"
       id="path188"
       style="fill:#000000;fill-opacity:1;fill-rule:nonzero;stroke:none" />
    <path
       d="m 665.95124,643.78239 12.20625,0 0,1.70875 -5.29625,0 0,17.915 -1.615,0 0,-17.915 -5.295,0 0,-1.70875 z"
       id="path192"
       style="fill:#000000;fill-opacity:1;fill-rule:nonzero;stroke:none" />
    <path
       d="m 681.67048,643.78201 1.61375,0 0,19.62375 -1.61375,0 0,-19.62375 z"
       id="path194"
       style="fill:#000000;fill-opacity:1;fill-rule:nonzero;stroke:none" />
    <path
       d="m 694.42248,662.19326 c 4.01375,0 5.69875,-4.51999 5.69875,-8.59875 0,-4.08 -1.685,-8.6 -5.69875,-8.6 -4.01375,0 -5.69875,4.52 -5.69875,8.6 0,4.07876 1.685,8.59875 5.69875,8.59875 m 0,-18.9075 c 5.01,0 7.31375,5.09875 7.31375,10.30875 0,5.20875 -2.30375,10.3075 -7.31375,10.3075 -5.01,0 -7.31375,-5.09875 -7.31375,-10.3075 0,-5.21 2.30375,-10.30875 7.31375,-10.30875"
       id="path198"
       style="fill:#000000;fill-opacity:1;fill-rule:nonzero;stroke:none" />
    <path
       d="m 705.62998,643.78239 1.59125,0 9.665,16.48125 0.0475,0 0,-16.48125 1.615,0 0,19.62375 -1.59125,0 -9.665,-16.48125 -0.0475,0 0,16.48125 -1.615,0 0,-19.62375 z"
       id="path202"
       style="fill:#000000;fill-opacity:1;fill-rule:nonzero;stroke:none" />
  </g>
</svg>
