<?xml version="1.0" encoding="utf-8"?>
<!-- Generator: Adobe Illustrator 16.0.0, SVG Export Plug-In . SVG Version: 6.00 Build 0)  -->
<!DOCTYPE svg PUBLIC "-//W3C//DTD SVG 1.1//EN" "http://www.w3.org/Graphics/SVG/1.1/DTD/svg11.dtd">
<svg version="1.1" id="Layer_1" xmlns="http://www.w3.org/2000/svg" xmlns:xlink="http://www.w3.org/1999/xlink" x="0px" y="0px"
	 width="125.181px" height="49.533px" viewBox="0 0 125.181 49.533" enable-background="new 0 0 125.181 49.533"
	 xml:space="preserve">
<path d="M10.614,29.807c0,0.154-0.058,0.252-0.212,0.252c-0.5,0-0.655-2.467-3.64-2.467c-3.236,0-4.834,2.773-4.834,5.663
	c0,1.368,0.385,2.657,1.194,3.774c0.886,1.214,2.08,2.041,3.64,2.041c2.985,0,3.217-3.023,3.737-3.023
	c0.154,0,0.231,0.116,0.212,0.251l-0.097,1.562c-0.039,0.597-0.019,0.636-0.616,0.925c-1.136,0.538-2.215,0.81-3.486,0.81
	c-3.505,0-6.298-2.908-6.298-6.318c0-3.563,3.159-6.221,6.684-6.221c0.867,0,2.215,0.23,3.043,0.52
	c0.559,0.193,0.481,0.443,0.539,0.982L10.614,29.807z"/>
<path d="M19.667,37.203c-0.116,0.309-0.27,0.713-0.27,1.059c0,0.637,0.848,0.694,1.291,0.694c0.173,0,0.501-0.021,0.501,0.25
	c0,0.231-0.27,0.231-0.462,0.231c-0.54,0-1.079-0.078-1.618-0.078c-0.54,0-1.079,0.078-1.618,0.078
	c-0.192,0-0.693,0.115-0.693-0.213c0-0.27,0.366-0.27,0.54-0.27c0.347,0,0.712-0.038,0.963-0.309
	c0.251-0.27,0.597-1.155,0.732-1.521l3.717-9.648c0.058-0.154,0.116-0.424,0.328-0.424c0.154,0,0.231,0.25,0.27,0.365l3.891,9.669
	c0.308,0.751,0.636,1.868,1.58,1.868c0.192,0,0.558,0,0.558,0.288c0,0.174-0.192,0.192-0.289,0.192
	c-0.848,0-1.695-0.076-2.542-0.076c-0.693,0-1.425,0.076-2.138,0.076c-0.115,0-0.308-0.02-0.308-0.192
	c0-0.288,0.366-0.288,0.559-0.288c0.501,0,1.233,0,1.233-0.577c0-0.271-0.174-0.692-0.27-0.944l-0.616-1.463
	c-0.404-0.982-0.27-0.982-1.194-0.982h-2.619c-0.771,0-0.655,0.076-0.944,0.771L19.667,37.203z M20.88,34.063
	c-0.02,0.059-0.058,0.174-0.058,0.231c0,0.192,0.617,0.115,0.693,0.115h2.215c0.115,0,0.559,0.059,0.559-0.154
	c0-0.075-0.135-0.385-0.135-0.423l-1.31-3.273c-0.039-0.078-0.192-0.578-0.308-0.578c-0.154,0-0.289,0.48-0.328,0.578L20.88,34.063z
	"/>
<path d="M37.117,29.479c0-1.231,0.096-1.599-1.252-1.599c-0.173,0-0.482,0-0.482-0.229c0-0.213,0.135-0.289,0.347-0.289
	c0.617,0,1.271,0.076,1.888,0.076c1.117,0,2.196-0.076,3.293-0.076c1.83,0,3.641,0.904,3.641,2.928c0,1.752-1.445,2.773-3.043,2.984
	c0.616,0.097,0.905,0.771,1.175,1.271l1.561,3.006c0.347,0.675,0.635,1.405,1.483,1.405c0.154,0,0.5,0,0.5,0.27
	c0,0.192-0.192,0.213-0.347,0.213h-2.042c-0.385,0-0.5-0.367-0.655-0.654l-1.888-3.756c-0.693-1.35-0.674-1.502-2.138-1.502
	c-0.154,0-0.327-0.021-0.423,0.096c-0.116,0.135-0.096,0.598-0.096,0.77v2.967c0,1.232-0.077,1.58,1.252,1.6
	c0.173,0,0.5-0.02,0.5,0.23c0,0.211-0.154,0.25-0.327,0.25c-0.732,0-1.426-0.076-2.157-0.076c-0.732,0-1.464,0.076-2.196,0.076
	c-0.173,0-0.328-0.039-0.328-0.25c0-0.25,0.309-0.23,0.482-0.23c1.348,0,1.252-0.387,1.252-1.6V29.479z M38.639,32.754
	c0,0.48,0.654,0.348,0.982,0.348c0.886,0,1.676-0.078,2.408-0.637c0.636-0.48,0.886-1.193,0.886-1.965
	c0-1.771-1.06-2.734-2.773-2.734c-1.464,0-1.502,0.192-1.502,1.541L38.639,32.754L38.639,32.754z"/>
<path d="M62.579,29.479c0-1.213,0.077-1.599-1.271-1.599c-0.173,0-0.481,0-0.481-0.211c0-0.213,0.154-0.31,0.347-0.31
	c0.578,0,1.117,0.076,1.695,0.076c0.578,0,1.117-0.076,1.676-0.076c0.173,0,0.327,0.097,0.327,0.31c0,0.211-0.308,0.211-0.5,0.211
	c-1.329,0-1.252,0.404-1.252,1.599v9.785c0,0.096,0.039,0.365-0.135,0.365c-0.212,0-0.385-0.309-0.482-0.462L54.414,28.65v8.705
	c0,1.194-0.096,1.6,1.252,1.6c0.173,0,0.481-0.059,0.481,0.191c0,0.213-0.135,0.289-0.327,0.289c-0.578,0-1.117-0.076-1.695-0.076
	c-0.539,0-1.117,0.076-1.675,0.076c-0.193,0-0.347-0.076-0.347-0.289c0-0.25,0.327-0.191,0.5-0.191c1.349,0,1.252-0.404,1.252-1.6
	v-7.877c0-1.215,0.097-1.6-1.252-1.6c-0.173,0-0.481,0-0.481-0.211c0-0.289,0.25-0.309,0.462-0.309h2.388
	c0.404,0.096,0.559,0.365,0.79,0.674l6.818,8.84L62.579,29.479L62.579,29.479z"/>
<path d="M72.902,29.461c0-1.214,0.097-1.58-1.252-1.58c-0.172,0-0.48,0-0.48-0.25c0-0.212,0.135-0.27,0.327-0.27
	c0.731,0,1.426,0.076,2.157,0.076c0.732,0,1.464-0.076,2.195-0.076c0.174,0,0.327,0.058,0.327,0.27c0,0.25-0.327,0.25-0.5,0.25
	c-1.348,0-1.252,0.366-1.252,1.58v7.896c0,1.231-0.077,1.578,1.252,1.599c0.173,0,0.5-0.021,0.5,0.231
	c0,0.211-0.153,0.25-0.327,0.25c-0.731,0-1.425-0.078-2.156-0.078c-0.732,0-1.465,0.078-2.196,0.078
	c-0.173,0-0.327-0.039-0.327-0.25c0-0.252,0.309-0.231,0.48-0.231c1.349,0,1.252-0.386,1.252-1.599V29.461z"/>
<path d="M92.375,29.402c0.096-0.271,0.27-0.693,0.27-0.982c0-0.441-0.461-0.539-0.809-0.539c-0.173,0-0.848,0.059-0.848-0.23
	c0-0.23,0.23-0.289,0.424-0.289c0.539,0,1.117,0.076,1.656,0.076s1.078-0.076,1.617-0.076c0.154,0,0.271,0.076,0.271,0.25
	c0,0.232-0.289,0.271-0.462,0.271c-0.27,0-0.559,0.06-0.79,0.25c-0.308,0.289-0.578,0.867-0.731,1.271l-3.949,9.65
	c-0.039,0.115-0.154,0.539-0.309,0.539c-0.191,0-0.289-0.424-0.347-0.539l-4.142-9.881c-0.289-0.693-0.521-1.291-1.406-1.291
	c-0.192,0-0.521,0-0.521-0.289c0-0.211,0.231-0.23,0.404-0.23c0.692,0,1.348,0.076,2.042,0.076c0.578,0,1.154-0.076,1.752-0.076
	c0.174,0,0.365,0,0.365,0.23s-0.23,0.251-0.385,0.27c-0.135,0.021-0.963-0.018-0.963,0.328c0,0.271,0.154,0.539,0.25,0.771
	l3.448,8.187L92.375,29.402z"/>
<path d="M100.85,37.203c-0.115,0.309-0.27,0.713-0.27,1.059c0,0.637,0.847,0.694,1.291,0.694c0.173,0,0.501-0.021,0.501,0.25
	c0,0.231-0.271,0.231-0.463,0.231c-0.539,0-1.078-0.078-1.618-0.078c-0.539,0-1.078,0.078-1.618,0.078
	c-0.192,0-0.692,0.115-0.692-0.213c0-0.27,0.365-0.27,0.539-0.27c0.348,0,0.713-0.038,0.963-0.309
	c0.252-0.27,0.598-1.155,0.732-1.521l3.717-9.648c0.059-0.154,0.115-0.424,0.327-0.424c0.154,0,0.231,0.25,0.271,0.365l3.891,9.669
	c0.309,0.751,0.635,1.868,1.579,1.868c0.192,0,0.56,0,0.56,0.288c0,0.174-0.192,0.192-0.289,0.192c-0.848,0-1.695-0.076-2.543-0.076
	c-0.692,0-1.425,0.076-2.138,0.076c-0.116,0-0.308-0.02-0.308-0.192c0-0.288,0.365-0.288,0.559-0.288c0.5,0,1.232,0,1.232-0.577
	c0-0.271-0.174-0.692-0.271-0.944l-0.616-1.463c-0.403-0.982-0.27-0.982-1.193-0.982h-2.619c-0.771,0-0.655,0.076-0.943,0.771
	L100.85,37.203z M102.064,34.063c-0.021,0.059-0.059,0.174-0.059,0.231c0,0.192,0.616,0.115,0.693,0.115h2.215
	c0.115,0,0.559,0.059,0.559-0.154c0-0.075-0.136-0.385-0.136-0.423l-1.31-3.273c-0.039-0.078-0.193-0.578-0.309-0.578
	c-0.154,0-0.289,0.48-0.328,0.578L102.064,34.063z"/>
<path d="M119.803,36.76c0,1.465,0.039,2.158,1.772,2.158c0.692,0,1.579-0.193,2.118-0.637c0.443-0.365,0.791-1.078,1.002-1.598
	c0.039-0.098,0.115-0.252,0.23-0.252c0.174,0,0.174,0.135,0.174,0.271c0,0.655-0.193,1.329-0.213,2.003
	c-0.02,0.501,0.02,0.732-0.5,0.732c-1.85,0-3.738-0.078-5.586-0.078c-0.654,0-1.271,0.078-1.926,0.078
	c-0.173,0-0.327-0.078-0.327-0.271c0-0.25,0.308-0.25,0.5-0.25c1.329,0,1.231-0.366,1.231-1.58V29.46c0-1.214,0.098-1.58-1.25-1.58
	c-0.174,0-0.481,0-0.481-0.25c0-0.212,0.136-0.271,0.327-0.271c0.732,0,1.425,0.076,2.157,0.076c0.731,0,1.464-0.076,2.196-0.076
	c0.172,0,0.328,0.059,0.328,0.271c0,0.25-0.328,0.25-0.502,0.25c-1.348,0-1.252,0.366-1.252,1.58V36.76z"/>
<polygon points="56.647,22.334 57.264,22.334 52.495,5.904 51.948,6.064 "/>
<polygon fill="none" stroke="#000000" stroke-width="0.064" stroke-miterlimit="3.8637" points="56.647,22.334 57.264,22.334 
	52.495,5.904 51.948,6.064 "/>
<path fill="#ED1721" d="M53.026,6.078c0.159-0.293,4.188-1.271,4.16-1.232c3.06-0.563,2.274,0.71,2.311,0.693
	c-0.561,1.177,1.723,0.652,1.695,0.615c5.82-1.136,11.431,0.125,11.402,0.154c-1.189,7.487,2.549,12.379,2.543,12.404
	c-4.669-0.559-5.955-0.096-5.933-0.077c-4.069,1.331-7.158-0.091-7.166-0.077c-2.031-1.801-5.561-0.436-5.547-0.462
	C56.709,11.193,52.873,6.305,53.026,6.078z M59.575,12.627c0.24,2.831,2.703,4.957,5.471,4.699c2.759-0.182,4.778-2.664,4.468-5.471
	c-0.236-2.878-2.699-5.004-5.47-4.775C61.286,7.291,59.267,9.773,59.575,12.627z"/>
<path fill="#093B82" d="M60.961,12.473c-0.223-2.66,1.156-4.966,3.082-5.085c1.993-0.192,3.792,1.86,4.083,4.546
	c0.226,2.689-1.153,4.995-3.081,5.161C63.054,17.24,61.256,15.188,60.961,12.473z"/>
<path d="M53.046,4.002l-2.534,0.59L50.509,0L53.046,4.002z M50.792,0.839l1.079,3.081l0.693-0.153L50.792,0.839z"/>
<path d="M50.93,5.071c0.03-0.581,0.503-1.054,1.091-1.089c0.581,0.035,1.055,0.508,1.091,1.089c-0.036,0.585-0.51,1.057-1.091,1.089
	C51.434,6.128,50.96,5.656,50.93,5.071z M51.64,5.153c-0.005,0.352,0.251,0.663,0.539,0.693c0.346-0.03,0.603-0.342,0.616-0.693
	c-0.013-0.417-0.27-0.728-0.616-0.693C51.891,4.426,51.634,4.736,51.64,5.153z"/>
<path d="M51.408,5.385c-0.024-0.41,0.205-0.719,0.462-0.693c0.307-0.025,0.536,0.283,0.539,0.693
	c-0.003,0.352-0.232,0.66-0.539,0.693C51.613,6.045,51.384,5.736,51.408,5.385z"/>
<path d="M51.485,4.614c0.038-0.212,0.221-0.409,0.462-0.386c0.209-0.023,0.393,0.174,0.385,0.386
	c0.007,0.276-0.176,0.474-0.385,0.462C51.706,5.088,51.523,4.891,51.485,4.614z"/>
<path d="M5.859,45.277c0,0.066-0.032,0.107-0.119,0.107c-0.282,0-0.369-1.068-2.051-1.068c-1.823,0-2.723,1.203-2.723,2.455
	c0,0.592,0.217,1.149,0.672,1.635c0.499,0.525,1.172,0.885,2.051,0.885c1.682,0,1.812-1.311,2.105-1.311
	c0.087,0,0.13,0.051,0.12,0.108l-0.055,0.677c-0.021,0.26-0.011,0.274-0.347,0.399c-0.64,0.233-1.248,0.351-1.964,0.351
	C1.573,49.518,0,48.256,0,46.779c0-1.545,1.779-2.695,3.765-2.695c0.488,0,1.248,0.1,1.714,0.225
	c0.314,0.084,0.271,0.191,0.304,0.426L5.859,45.277z"/>
<path d="M11.599,44.084c2.062,0,3.776,1.102,3.776,2.712s-1.714,2.722-3.776,2.722c-1.953,0-3.787-1.203-3.787-2.722
	S9.646,44.084,11.599,44.084z M13.671,45.068c-0.521-0.478-1.237-0.76-2.05-0.76c-0.847,0-1.627,0.274-2.148,0.785
	c-0.499,0.475-0.684,1.102-0.684,1.701c0,0.626,0.195,1.262,0.727,1.744c0.521,0.484,1.28,0.743,2.105,0.743
	c0.835,0,1.573-0.31,2.094-0.802c0.51-0.5,0.673-1.061,0.673-1.687C14.387,46.152,14.213,45.578,13.671,45.068z"/>
<path d="M18.207,45.135c0-0.533,0.054-0.691-0.706-0.691c-0.098,0-0.271,0-0.271-0.102c0-0.092,0.076-0.125,0.195-0.125
	c0.347,0,0.716,0.033,1.063,0.033c0.629,0,1.237-0.033,1.855-0.033c1.031,0,2.051,0.393,2.051,1.27c0,0.761-0.814,1.201-1.714,1.293
	c0.347,0.043,0.51,0.334,0.662,0.552l0.879,1.302c0.195,0.292,0.358,0.61,0.835,0.61c0.087,0,0.282,0,0.282,0.116
	c0,0.082-0.108,0.091-0.195,0.091h-1.15c-0.217,0-0.282-0.158-0.369-0.283l-1.063-1.627c-0.391-0.584-0.38-0.649-1.205-0.649
	c-0.086,0-0.184-0.011-0.239,0.041c-0.065,0.059-0.054,0.258-0.054,0.334v1.284c0,0.533-0.043,0.685,0.706,0.693
	c0.098,0,0.282-0.011,0.282,0.1c0,0.093-0.086,0.107-0.184,0.107c-0.413,0-0.803-0.032-1.215-0.032
	c-0.412,0-0.825,0.032-1.237,0.032c-0.098,0-0.185-0.017-0.185-0.107c0-0.108,0.173-0.1,0.271-0.1c0.76,0,0.706-0.168,0.706-0.693
	V45.135z M19.063,46.555c0,0.209,0.369,0.149,0.554,0.149c0.499,0,0.944-0.033,1.356-0.274c0.358-0.209,0.499-0.518,0.499-0.852
	c0-0.768-0.597-1.186-1.562-1.186c-0.825,0-0.847,0.084-0.847,0.668V46.555z"/>
<path d="M26.105,45.127c0-0.525,0.065-0.686-0.694-0.686c-0.098,0-0.271,0-0.271-0.107c0-0.092,0.076-0.117,0.185-0.117
	c0.39,0,0.759,0.033,1.15,0.033c0.586,0,1.15-0.033,1.725-0.033c0.521,0,1.02,0.051,1.454,0.283
	c0.477,0.251,0.792,0.702,0.792,1.145c0,0.894-0.987,1.527-2.105,1.527c-0.195,0-0.271-0.018-0.445-0.059l-0.521-0.133
	c-0.076-0.019-0.152-0.043-0.239-0.043c-0.195,0-0.173,0.125-0.173,0.233v1.377c0,0.533-0.043,0.685,0.706,0.693
	c0.097,0,0.282-0.011,0.282,0.1c0,0.093-0.087,0.106-0.185,0.106c-0.412,0-0.803-0.031-1.215-0.031
	c-0.412,0-0.824,0.031-1.237,0.031c-0.098,0-0.184-0.016-0.184-0.106c0-0.108,0.173-0.1,0.271-0.1c0.759,0,0.705-0.169,0.705-0.693
	L26.105,45.127L26.105,45.127z M26.962,46.32c0,0.184-0.055,0.342,0.173,0.441c0.217,0.102,0.619,0.168,0.868,0.168
	c0.901,0,1.541-0.584,1.541-1.252c0-0.377-0.185-0.769-0.564-1.02c-0.336-0.233-0.792-0.292-1.237-0.292
	c-0.749,0-0.781,0.2-0.781,0.718V46.32z"/>
<path d="M36.229,44.084c2.062,0,3.776,1.102,3.776,2.712s-1.714,2.722-3.776,2.722c-1.953,0-3.787-1.203-3.787-2.722
	S34.275,44.084,36.229,44.084z M38.301,45.068c-0.521-0.478-1.237-0.76-2.051-0.76c-0.846,0-1.627,0.274-2.148,0.785
	c-0.499,0.475-0.683,1.102-0.683,1.701c0,0.626,0.195,1.262,0.727,1.744c0.521,0.484,1.281,0.743,2.105,0.743
	c0.835,0,1.573-0.31,2.094-0.802c0.51-0.5,0.672-1.061,0.672-1.687C39.017,46.152,38.843,45.578,38.301,45.068z"/>
<path d="M42.836,45.135c0-0.533,0.054-0.691-0.705-0.691c-0.098,0-0.271,0-0.271-0.102c0-0.092,0.076-0.125,0.195-0.125
	c0.347,0,0.716,0.033,1.063,0.033c0.629,0,1.237-0.033,1.855-0.033c1.031,0,2.05,0.393,2.05,1.27c0,0.761-0.813,1.201-1.714,1.293
	c0.347,0.043,0.51,0.334,0.662,0.552l0.879,1.302c0.195,0.292,0.358,0.61,0.835,0.61c0.087,0,0.282,0,0.282,0.116
	c0,0.082-0.109,0.091-0.195,0.091h-1.15c-0.217,0-0.282-0.158-0.369-0.283L45.19,47.54c-0.39-0.584-0.38-0.649-1.204-0.649
	c-0.087,0-0.185-0.011-0.239,0.041c-0.065,0.059-0.054,0.258-0.054,0.334v1.284c0,0.533-0.043,0.685,0.705,0.693
	c0.098,0,0.282-0.011,0.282,0.1c0,0.093-0.087,0.107-0.185,0.107c-0.412,0-0.803-0.032-1.215-0.032
	c-0.413,0-0.825,0.032-1.237,0.032c-0.098,0-0.185-0.017-0.185-0.107c0-0.108,0.174-0.1,0.271-0.1c0.759,0,0.705-0.168,0.705-0.693
	v-3.415H42.836z M43.693,46.555c0,0.209,0.369,0.149,0.553,0.149c0.499,0,0.944-0.033,1.356-0.274
	c0.358-0.209,0.499-0.518,0.499-0.852c0-0.768-0.597-1.186-1.563-1.186c-0.825,0-0.846,0.084-0.846,0.668L43.693,46.555
	L43.693,46.555z"/>
<path d="M51.006,48.482c-0.065,0.133-0.152,0.309-0.152,0.459c0,0.274,0.477,0.301,0.727,0.301c0.098,0,0.282-0.01,0.282,0.107
	c0,0.1-0.152,0.1-0.26,0.1c-0.304,0-0.608-0.032-0.912-0.032c-0.304,0-0.607,0.032-0.912,0.032c-0.108,0-0.39,0.051-0.39-0.092
	c0-0.115,0.206-0.115,0.304-0.115c0.195,0,0.401-0.018,0.542-0.135c0.141-0.117,0.336-0.5,0.412-0.658l2.094-4.182
	c0.032-0.066,0.065-0.185,0.184-0.185c0.087,0,0.13,0.106,0.152,0.158l2.191,4.188c0.174,0.326,0.358,0.812,0.89,0.812
	c0.108,0,0.314,0,0.314,0.125c0,0.073-0.108,0.081-0.163,0.081c-0.478,0-0.955-0.031-1.432-0.031c-0.391,0-0.803,0.031-1.205,0.031
	c-0.065,0-0.174-0.008-0.174-0.081c0-0.125,0.206-0.125,0.315-0.125c0.282,0,0.694,0,0.694-0.253c0-0.115-0.098-0.299-0.152-0.407
	l-0.347-0.636c-0.228-0.426-0.152-0.426-0.673-0.426h-1.476c-0.434,0-0.369,0.035-0.532,0.334L51.006,48.482z M51.689,47.121
	c-0.011,0.025-0.032,0.074-0.032,0.102c0,0.082,0.347,0.049,0.39,0.049h1.248c0.065,0,0.315,0.025,0.315-0.065
	c0-0.033-0.076-0.167-0.076-0.185l-0.738-1.418c-0.022-0.035-0.109-0.252-0.174-0.252c-0.087,0-0.163,0.209-0.185,0.252
	L51.689,47.121z"/>
<path d="M60.708,48.549c0,0.533-0.043,0.693,0.706,0.693c0.098,0,0.282-0.01,0.282,0.1c0,0.092-0.087,0.107-0.185,0.107
	c-0.413,0-0.803-0.032-1.215-0.032c-0.413,0-0.825,0.032-1.237,0.032c-0.097,0-0.185-0.016-0.185-0.107c0-0.109,0.174-0.1,0.271-0.1
	c0.76,0,0.705-0.168,0.705-0.693v-3.865c0-0.299-0.141-0.24-0.477-0.24c-0.987,0-1.389,0.074-1.91,0.742
	c-0.043,0.06-0.13,0.201-0.239,0.201c-0.076,0-0.108-0.043-0.108-0.102s0.043-0.158,0.065-0.2L57.604,44
	c0.021-0.059,0.043-0.117,0.141-0.117c0.065,0,0.098,0.042,0.098,0.092c0.011,0.076,0,0.125,0.087,0.176
	c0.141,0.093,0.369,0.066,0.542,0.066h3.938c0.282,0,0.553,0.042,0.662-0.191c0.033-0.065,0.054-0.143,0.163-0.143
	c0.152,0,0.098,0.242,0.098,0.301l-0.065,1.02c0,0.066-0.011,0.143-0.13,0.143c-0.076,0-0.098-0.066-0.12-0.117
	c-0.076-0.176-0.152-0.408-0.314-0.567c-0.239-0.218-0.542-0.218-0.879-0.218h-0.629c-0.488,0-0.488-0.016-0.488,0.41V48.549
	L60.708,48.549z"/>
<path d="M66.078,45.127c0-0.525,0.054-0.686-0.705-0.686c-0.098,0-0.271,0-0.271-0.107c0-0.092,0.076-0.117,0.186-0.117
	c0.412,0,0.803,0.033,1.215,0.033s0.825-0.033,1.236-0.033c0.099,0,0.186,0.025,0.186,0.117c0,0.107-0.186,0.107-0.281,0.107
	c-0.761,0-0.707,0.16-0.707,0.686v3.422c0,0.533-0.043,0.684,0.707,0.693c0.096,0,0.281-0.01,0.281,0.1
	c0,0.092-0.087,0.107-0.186,0.107c-0.411,0-0.803-0.032-1.215-0.032s-0.824,0.032-1.236,0.032c-0.098,0-0.186-0.016-0.186-0.107
	c0-0.109,0.174-0.1,0.271-0.1c0.759,0,0.705-0.168,0.705-0.693V45.127z"/>
<path d="M73.576,44.084c2.063,0,3.775,1.102,3.775,2.712s-1.713,2.722-3.775,2.722c-1.953,0-3.787-1.203-3.787-2.722
	S71.623,44.084,73.576,44.084z M75.648,45.068c-0.521-0.478-1.237-0.76-2.051-0.76c-0.848,0-1.627,0.274-2.148,0.785
	c-0.5,0.475-0.684,1.102-0.684,1.701c0,0.626,0.194,1.262,0.727,1.744c0.521,0.484,1.281,0.743,2.105,0.743
	c0.834,0,1.573-0.31,2.094-0.802c0.51-0.5,0.672-1.061,0.672-1.687C76.363,46.152,76.189,45.578,75.648,45.068z"/>
<path d="M85.098,45.135c0-0.525,0.043-0.691-0.716-0.691c-0.098,0-0.271,0-0.271-0.092c0-0.093,0.087-0.135,0.195-0.135
	c0.325,0,0.629,0.033,0.955,0.033c0.325,0,0.629-0.033,0.944-0.033c0.099,0,0.185,0.042,0.185,0.135
	c0,0.092-0.173,0.092-0.281,0.092c-0.75,0-0.705,0.175-0.705,0.691v4.24c0,0.042,0.021,0.158-0.076,0.158
	c-0.119,0-0.217-0.133-0.271-0.199L80.5,44.775v3.772c0,0.519-0.055,0.693,0.705,0.693c0.098,0,0.271-0.025,0.271,0.081
	c0,0.094-0.076,0.125-0.186,0.125c-0.326,0-0.629-0.031-0.955-0.031c-0.304,0-0.629,0.031-0.943,0.031
	c-0.108,0-0.195-0.031-0.195-0.125c0-0.106,0.185-0.081,0.281-0.081c0.76,0,0.707-0.177,0.707-0.693v-3.414
	c0-0.524,0.053-0.692-0.707-0.692c-0.098,0-0.271,0-0.271-0.092c0-0.125,0.142-0.134,0.26-0.134h1.345
	c0.229,0.042,0.314,0.158,0.445,0.292l3.842,3.831v-3.204H85.098z"/>
<path d="M98.193,48.707c0.392,0.352,0.607,0.543,1.205,0.551c0.099,0.01,0.261,0.01,0.261,0.109c0,0.082-0.173,0.082-0.25,0.082
	c-0.435,0-0.868-0.032-1.302-0.032c-0.435,0-0.868,0.032-1.303,0.032c-0.087,0-0.152-0.023-0.152-0.092
	c0-0.074,0.109-0.082,0.186-0.082c0.174,0,0.575-0.019,0.575-0.219c0-0.134-0.195-0.291-0.304-0.392
	c-0.033-0.024-0.207-0.201-0.282-0.201c-0.054,0-0.25,0.167-0.261,0.177c-0.64,0.477-1.279,0.893-2.213,0.893
	c-1.041,0-1.984-0.567-1.984-1.41c0-0.283,0.097-0.543,0.314-0.768c0.237-0.26,0.574-0.4,0.943-0.525
	c0.012-0.01,0.835-0.285,0.835-0.359c0-0.107-0.803-0.584-0.803-1.252c0-0.727,0.998-1.135,1.833-1.135
	c0.9,0,1.813,0.325,1.813,1.094c0,0.232-0.099,0.426-0.337,0.559c-0.292,0.166-0.684,0.31-1.02,0.427l-0.294,0.101
	c-0.053,0.024-0.162,0.051-0.162,0.107c0,0.042,0.141,0.15,0.174,0.175l1.248,1.044c0.043,0.042,0.174,0.167,0.26,0.167
	c0.088,0,0.131-0.041,0.174-0.084l0.108-0.125c0.163-0.157,0.608-0.644,0.608-0.825c0-0.209-0.271-0.234-0.479-0.234
	c-0.098,0-0.357,0.025-0.357-0.092c0-0.101,0.142-0.092,0.238-0.092c0.262,0,0.521,0.043,0.792,0.043
	c0.392,0,0.761-0.043,1.15-0.043c0.087,0,0.194-0.009,0.194,0.084c0,0.092-0.129,0.1-0.217,0.1c-0.238,0-0.423,0.025-0.617,0.143
	c-0.348,0.191-0.705,0.584-0.955,0.844C97.76,47.541,97.4,47.868,97.4,47.95c0,0.084,0.131,0.157,0.195,0.226L98.193,48.707z
	 M94.928,46.83c-0.054-0.051-0.184-0.193-0.291-0.193c-0.099,0-0.533,0.176-0.609,0.219c-0.51,0.217-0.867,0.574-0.867,1.043
	c0,0.677,0.705,1.228,1.584,1.228c0.683,0,1.193-0.233,1.66-0.593c0.044-0.042,0.238-0.167,0.218-0.276L94.928,46.83z M95.33,46.17
	c0.097,0,0.412-0.133,0.488-0.166c0.541-0.209,0.791-0.436,0.791-0.919c0-0.501-0.51-0.868-1.16-0.868
	c-0.607,0-1.139,0.242-1.139,0.76c0,0.367,0.379,0.719,0.684,0.978L95.33,46.17z"/>
<path d="M106.637,45.127c0-0.525,0.064-0.686-0.695-0.686c-0.098,0-0.271,0-0.271-0.107c0-0.092,0.076-0.117,0.185-0.117
	c0.392,0,0.761,0.033,1.15,0.033c0.585,0,1.15-0.033,1.725-0.033c0.521,0,1.021,0.051,1.455,0.283
	c0.478,0.251,0.791,0.702,0.791,1.145c0,0.894-0.988,1.527-2.104,1.527c-0.195,0-0.271-0.018-0.445-0.059l-0.521-0.133
	c-0.076-0.019-0.152-0.043-0.239-0.043c-0.194,0-0.173,0.125-0.173,0.233v1.377c0,0.533-0.044,0.685,0.705,0.693
	c0.098,0,0.281-0.011,0.281,0.1c0,0.093-0.086,0.106-0.184,0.106c-0.412,0-0.803-0.031-1.215-0.031s-0.824,0.031-1.236,0.031
	c-0.099,0-0.186-0.016-0.186-0.106c0-0.108,0.173-0.1,0.271-0.1c0.758,0,0.705-0.169,0.705-0.693V45.127L106.637,45.127z
	 M107.493,46.32c0,0.184-0.056,0.342,0.173,0.441c0.217,0.102,0.618,0.168,0.868,0.168c0.901,0,1.541-0.584,1.541-1.252
	c0-0.377-0.185-0.769-0.564-1.02c-0.336-0.233-0.792-0.292-1.235-0.292c-0.75,0-0.781,0.2-0.781,0.718L107.493,46.32L107.493,46.32z
	"/>
<path d="M114.665,48.29c0,0.634,0.022,0.935,0.999,0.935c0.391,0,0.891-0.084,1.193-0.274c0.25-0.158,0.444-0.468,0.563-0.693
	c0.021-0.041,0.065-0.106,0.13-0.106c0.098,0,0.098,0.059,0.098,0.117c0,0.282-0.108,0.574-0.119,0.866
	c-0.012,0.218,0.011,0.316-0.282,0.316c-1.042,0-2.104-0.032-3.146-0.032c-0.369,0-0.717,0.032-1.086,0.032
	c-0.098,0-0.185-0.032-0.185-0.115c0-0.108,0.174-0.108,0.282-0.108c0.748,0,0.693-0.158,0.693-0.686v-3.413
	c0-0.524,0.055-0.685-0.705-0.685c-0.098,0-0.271,0-0.271-0.108c0-0.092,0.076-0.117,0.185-0.117c0.412,0,0.803,0.033,1.215,0.033
	c0.414,0,0.826-0.033,1.237-0.033c0.099,0,0.185,0.025,0.185,0.117c0,0.108-0.185,0.108-0.282,0.108
	c-0.761,0-0.706,0.158-0.706,0.685L114.665,48.29L114.665,48.29z"/>
<path d="M125.125,45.277c0,0.066-0.033,0.107-0.12,0.107c-0.282,0-0.369-1.068-2.051-1.068c-1.823,0-2.724,1.203-2.724,2.455
	c0,0.592,0.218,1.149,0.672,1.635c0.5,0.525,1.173,0.885,2.052,0.885c1.682,0,1.812-1.311,2.104-1.311
	c0.088,0,0.131,0.051,0.121,0.108l-0.055,0.677c-0.021,0.26-0.012,0.274-0.348,0.399c-0.639,0.233-1.248,0.351-1.963,0.351
	c-1.976,0-3.549-1.261-3.549-2.736c0-1.545,1.78-2.695,3.766-2.695c0.488,0,1.248,0.1,1.714,0.225
	c0.313,0.084,0.271,0.191,0.304,0.426L125.125,45.277z"/>
</svg>
