<?xml version="1.0" encoding="UTF-8"?>
<!DOCTYPE svg PUBLIC "-//W3C//DTD SVG 1.1//EN" "http://www.w3.org/Graphics/SVG/1.1/DTD/svg11.dtd">
<!-- Creator: CorelDRAW X6 -->
<svg xmlns="http://www.w3.org/2000/svg" xml:space="preserve" width="112px" height="112px" version="1.1" style="shape-rendering:geometricPrecision; text-rendering:geometricPrecision; image-rendering:optimizeQuality; fill-rule:evenodd; clip-rule:evenodd"
viewBox="0 0 112000 112000"
 xmlns:xlink="http://www.w3.org/1999/xlink">
 <defs>
  <style type="text/css">
   <![CDATA[
    .fil2 {fill:#0A4A78}
    .fil0 {fill:#C9234B}
    .fil3 {fill:#FDE3CB}
    .fil1 {fill:#FEFEFE}
   ]]>
  </style>
 </defs>
 <g id="Слой_x0020_1">
  <metadata id="CorelCorpID_0Corel-Layer"/>
  <g id="_845968320">
   <path class="fil0" d="M373 52777l0 6450c146,354 544,4803 708,5788 1986,11929 7414,22174 15575,30330 3997,3995 8866,7761 15284,10853 11100,5347 19745,4982 20838,5430l6449 0c313,-132 4863,-556 5779,-705 5399,-880 10090,-2389 14972,-4684 14215,-6683 25782,-20255 29757,-35705 463,-1799 860,-3546 1169,-5417 151,-916 583,-5551 722,-5889l0 -6447c-148,-360 -555,-4888 -725,-5899 -319,-1890 -705,-3612 -1166,-5410 -844,-3298 -2151,-6671 -3538,-9529 -8020,-16523 -23119,-27850 -41183,-30858 -1001,-167 -5418,-556 -5789,-708l-6447 0c-359,148 -4912,557 -5887,720 -17964,2989 -33520,14715 -41127,30930 -2242,4780 -3843,9642 -4690,14977 -147,923 -560,5432 -700,5777z"/>
   <path class="fil1" d="M53003 3800c-11130,676 -20352,4363 -28668,10577 -3133,2342 -5829,4965 -8348,7958 -535,636 -957,1110 -1451,1784 -3030,4138 -5099,7375 -7139,12523 -2667,6730 -4061,14401 -3605,22457 1577,27806 25449,50831 55305,49109 27845,-1606 50841,-25472 49109,-55307 -649,-11173 -4463,-20224 -10583,-28569l-4527 -5181c-2749,-2763 -5751,-5283 -9085,-7339 -9223,-5689 -19526,-8709 -31010,-8012z"/>
   <path class="fil0" d="M53047 4816c-11601,780 -21385,4780 -29845,11788 -4039,3346 -7739,7523 -10546,11979 -5549,8809 -8548,19483 -7848,30435 730,11431 4885,21443 11796,29780 10258,12374 25955,19377 42380,18396 11270,-674 21603,-4937 29818,-11796l3399 -3073c563,-570 1012,-1134 1563,-1674 3877,-3801 7892,-10668 9908,-15726 6996,-17555 3641,-37475 -8275,-51726l-3071 -3401c-10202,-10160 -24467,-15979 -39279,-14982z"/>
   <path class="fil1" d="M53602 23326c-17138,1367 -31058,16114 -29747,34792 1193,16991 16270,31378 34996,29816 16938,-1413 31068,-16138 29642,-34797 -1303,-17044 -16163,-31305 -34891,-29811z"/>
   <path class="fil2" d="M42234 41879l-287 165c-1308,-18 -428,-487 -1334,-771 -799,-250 -1286,90 -1648,431 -534,505 -771,441 -1496,740 -893,369 -554,615 -1407,831 -871,221 -795,227 -1234,888 -370,557 -576,745 -974,1262 -726,943 -1176,1627 -1274,3231 -931,914 -2895,1073 -1912,3425 1079,2583 2168,1425 3429,974 661,374 2828,2663 3171,4254 733,3400 1728,6811 2600,10094 775,2917 1506,4804 2839,7237 857,1565 5407,7833 6869,8313 3029,995 5306,-1665 7097,-2760 2617,-1600 4931,-3375 7169,-5403 1336,-1210 2579,-2594 3676,-4039 407,-536 1794,-2733 2169,-2961 662,226 906,681 1946,237 652,-278 1146,-785 1367,-1280 2282,107 1863,-959 3405,-1279 590,-123 748,-173 1242,-407 -114,-304 -201,-326 -215,-708l830 -720c-34,-477 -36,-140 -103,-319 -344,-917 340,-1152 70,-2168l-460 1453 -193 -466c-282,183 -226,381 -509,431l124 -858c-246,196 -437,440 -450,684 -28,-1022 202,-2088 135,-3287 -50,-901 -228,-2341 -563,-3005 46,606 313,1297 222,2010 -75,586 -245,437 -391,807 -7,18 -17,53 -22,72l-432 1559c-110,344 39,-158 -27,413 -50,431 -401,643 -618,1006 -224,375 155,46 -255,413l-142 -251c-11,-23 -28,-61 -40,-87 -139,-291 7,-144 -191,-404 -48,90 -29,97 -86,243 -10,25 -24,65 -35,91 -11,29 -28,68 -40,96l-293 -756c-167,52 57,14 -135,109 -396,196 165,210 -223,52 -140,-760 -18,-1100 301,-1597 345,283 582,810 1197,104 -280,-800 -817,-505 -1501,-805 -181,-79 -104,-81 -279,145 -13,16 -34,62 -57,89 -152,-404 -99,-374 -448,-571l525 1415c-518,-540 -1161,-1518 -1307,-2421 359,326 777,322 1237,41 31,-837 -203,-503 -824,-906 -440,-286 -591,-589 -954,-910 -425,-377 -612,-448 -697,-1191 -79,-693 -47,-768 482,-963 20,-7 66,-26 82,-32 17,-6 60,-15 83,-35 -1353,-1297 -713,1302 -4205,-1239 -2244,-1632 -3147,-484 -5430,-1165 -108,-403 -100,-892 78,-1243 145,-288 574,-612 819,-895 -452,80 -965,330 -1125,593 -741,1223 -81,1136 -2438,2907 -3427,2576 -1074,3682 -1153,4813 -77,1093 -1812,1605 -2752,4350 -473,1382 -719,4751 -1603,5584 -773,-672 -969,-1712 -1646,-2309 -831,-734 -1209,-1243 -1959,-2019 -1268,-1313 -2386,-3147 -3268,-4827 -477,-909 -2550,-4893 -2076,-5728l774 -1229c2793,-5934 -1739,-3620 3466,-6489 905,-499 1752,-984 2631,-1472l3934 -2165c659,-348 728,-587 1627,-503 763,936 1371,2009 2237,2878 494,496 669,760 1387,1109 999,485 928,389 1734,-109 987,-609 2171,-1239 3291,-1805 1213,-613 2190,-1232 3161,-1912 -222,-2376 -1282,-4595 -1453,-6121 321,-328 400,-271 756,-622 7,-1428 -1521,-4604 -3227,-3412 -1208,-1205 -1870,-2832 -3550,-3556 -599,-258 -1085,178 -1606,488 -988,588 -1968,1150 -3012,1718 -930,506 -2214,1387 -3082,1715 4,1972 596,3617 1193,5230 -1910,1342 -6167,3483 -8389,4682 -891,481 -2006,1117 -2885,1448 -465,-801 -385,-581 -1441,-656z"/>
   <path class="fil1" d="M39682 89046c-2962,514 -4684,4253 -4902,6667 -190,2108 548,3253 1621,4153 957,803 2864,1587 4532,1297 3836,-668 6851,-8250 3156,-10852 -1081,-761 -2703,-1560 -4406,-1265zm536 2390c-2187,620 -3850,4622 -2419,6531 429,572 1485,1150 2602,809 1364,-416 2481,-2197 2794,-3923 384,-2112 -934,-3996 -2977,-3416z"/>
   <path class="fil1" d="M69383 90530l2173 7629c-861,-702 -5718,-5820 -6472,-6356l-2432 713 3196 11063 2106 -568 -2166 -7575c533,274 5539,5367 6514,6243l2387 -633 -3209 -11073 -2098 557z"/>
   <path class="fil1" d="M33632 93416c-618,-320 -1220,-921 -1899,-1383 -661,384 -2386,1993 -3921,-8 -1299,-1694 902,-4606 2223,-5492 1706,-1144 3288,-465 3759,888 369,1061 -125,1618 -348,2428 366,355 1499,1305 1923,1479 566,-1221 1457,-2370 867,-4246 -414,-1318 -1453,-2278 -2459,-2885 -4467,-2697 -8410,3184 -8823,5808 -486,3086 2740,5512 5153,5399 1487,-69 2977,-1069 3525,-1989z"/>
   <path class="fil1" d="M83889 90833l-2131 1229c148,855 544,1357 190,2323 -216,590 -840,1185 -1496,1376 -2607,759 -5608,-4260 -4104,-6347 320,-444 1146,-952 2053,-852 928,102 1321,649 1866,1146 388,-87 1767,-919 2067,-1228 -347,-784 -1747,-1972 -2935,-2240 -2743,-619 -8487,2328 -4722,8454 1193,1942 3227,4618 6730,3137 1170,-495 2275,-1482 2782,-2566 813,-1737 173,-2941 -301,-4431z"/>
   <path class="fil1" d="M62915 52012l831 334c-640,467 -952,-160 -1906,17 -1665,309 -2050,-94 -3470,1529 -319,364 -635,1299 -651,1889 770,362 525,391 1643,326 864,-51 1216,94 1552,576 -2,-534 -13,-235 117,-428 641,-102 464,-219 994,69 238,130 132,103 445,184 844,217 805,361 1498,382 989,31 472,-158 925,-324 457,398 383,793 769,1161l441 -351c20,-18 57,-50 74,-65 16,-14 47,-47 74,-65 187,174 279,283 468,476 117,118 152,128 254,249 467,558 429,1542 1376,939 97,441 735,1322 924,2237 -96,-467 64,-473 164,-599 342,1609 433,1157 674,1752 272,675 -7,1448 201,2124 253,-396 215,-1445 251,-2079 19,-332 27,-672 127,-1006 108,-361 38,-242 175,-237 757,24 -362,517 186,126 2,-546 -42,-1285 146,-1725l292 -464c93,-108 106,-85 234,-213 510,464 400,1629 437,2281 3,58 21,326 29,372l142 438c136,-3522 -391,-3111 -1149,-3514l-18 -1969c-433,-332 -69,-8 -527,-174 -1000,-361 -1030,-746 -1084,-1254 -450,284 -267,253 -648,-197l-481 -356c-579,-242 -735,-589 -949,-713l-941 -442c-373,-213 -825,73 -1659,-816 -944,-1004 -440,-407 -1260,-379 -116,4 -440,-76 -701,-88z"/>
   <path class="fil1" d="M88595 69931c375,314 8781,3623 9716,3865l-1207 3217 2342 967 3440 -8900 -2320 -845 -1288 3172c-1699,-497 -8858,-3698 -9802,-3696l-881 2221zm2966 -13272l5561 533 -449 5173c-1434,32 -4527,-628 -5619,-428l-233 2486 12838 1231c304,-627 244,-1779 338,-2524l-4773 -478c-77,-447 312,-4653 455,-5146l4824 392 225 -2515 -12884 -1276 -284 2551zm1179 -5138l-1158 606 215 1251c877,-41 6502,-1284 7048,-1609l-1003 -4583 -2204 470 453 2215c-2023,88 -3506,-724 -3423,-2834 67,-1709 1679,-2614 3188,-3076 1744,-534 3998,-319 4850,811 432,573 783,1514 487,2410 -116,351 -389,704 -600,898l-836 639c-12,12 -40,40 -58,63l590 2657c5559,-1410 4685,-11116 -2980,-10500 -2841,229 -5807,1476 -6757,3444 -641,1329 -612,2882 -144,4337 624,1941 1683,2225 2331,2799zm-5112 -11806c148,504 774,1943 1100,2295l11691 -5452 -1060 -2319 -11732 5476zm-7067 -9828c215,428 1299,1708 1697,2035l8171 -4197c-358,795 -5089,6252 -5683,7245 271,595 1148,1506 1619,2020 641,-143 2292,-1074 2975,-1412l8935 -4487 -1549 -1950c-519,152 -1525,759 -2061,1061l-6282 3363 5917 -7281c-192,-374 -443,-642 -740,-998 -317,-380 -553,-700 -809,-1002l-8365 4367c78,-229 5216,-6538 5933,-7221 -135,-285 -1308,-1751 -1590,-1964l-8168 10420zm-10666 -6988c644,524 5331,3339 6182,3563 2936,772 5042,-2128 6016,-3727 1247,-2047 2406,-5101 486,-7126 -800,-844 -3175,-2144 -4452,-2890 -488,-285 -1111,-717 -1594,-923 -303,258 -617,879 -860,1281l-5779 9821zm3467 -878c34,31 71,32 82,75 12,43 55,53 71,67l1481 905c2004,1192 3015,1210 4830,-1732 1426,-2311 1595,-3745 -643,-5072 -460,-273 -1317,-855 -1780,-979l-4042 6737zm-15781 -9097c-1244,477 -2051,1007 -2533,2181 -1626,3955 1811,6932 5345,5592 702,-266 1134,-733 1580,-885 742,835 -29,1507 3844,1505 -391,-1040 -1512,-2227 -1961,-3270 188,-383 546,-713 815,-1157 252,-417 541,-963 687,-1456 -322,-419 -866,-742 -1270,-1076 -314,289 -518,1055 -1369,1945l-432 -562c-176,-274 -281,-448 -432,-691 -296,-477 -635,-857 -816,-1446 2842,-841 3128,-4976 -66,-5761 -2728,-671 -5267,1334 -3392,5083zm2276 -698c1406,-425 1753,-2247 598,-2531 -716,-176 -1206,226 -1259,879 -63,784 284,1234 661,1652zm1023 5819l-2063 -3322c-130,-148 -75,-91 -204,-194 -1084,532 -1887,1854 -1135,3286 609,1158 2394,1225 3402,229zm-18422 -8600l1603 4597 -4851 1721c-529,-778 -1215,-3765 -1752,-4511l-2346 792 4319 12236 2404 -827 -1866 -5343 4967 -1711 1827 5241c750,-81 1867,-469 2406,-856 -421,-1646 -3031,-8561 -3995,-11324l-320 -727c-12,-21 -35,-60 -54,-89l-2341 802zm-6239 10966c-790,362 -1479,1224 -2263,1587 504,1278 1334,3481 -1118,4370 -2800,1016 -6695,-4291 -5187,-6681 365,-578 1184,-1164 2089,-1176 1061,-14 1783,630 2365,1083 743,-453 1481,-1230 2148,-1520 -215,-511 -997,-1131 -1558,-1493 -2386,-1535 -4690,-694 -6507,898 -2843,2491 -1691,5948 269,8454 1614,2063 4310,4666 7959,2509 1048,-619 2292,-1877 2710,-3260 629,-2083 -241,-3308 -909,-4773zm-22053 11074c18,25 51,29 61,70l10412 7501c495,-507 1064,-1361 1471,-1971 -415,-586 -3061,-2111 -3745,-2862 382,-624 764,-1121 1179,-1716 384,-550 758,-1346 1585,-1306 1362,65 2372,1780 3898,1951 293,-692 1065,-1456 1448,-2164 -420,-273 -1086,-412 -1535,-692 -1370,-855 -2911,-2329 -4532,-1682 93,-2874 -3786,-5008 -5824,-3184 -438,392 -756,893 -1159,1455l-3260 4601zm3542 -622c349,379 768,619 1237,969l1339 880c584,-631 1070,-1473 1578,-2137 770,-1004 705,-1738 -239,-2420 -1148,-830 -1764,-396 -2402,528 -448,648 -1151,1512 -1513,2181zm-9817 21089l4781 133c196,761 -55,4176 -69,5224l-4885 -127 -53 2561 12993 367c0,-767 167,-1859 -26,-2560l-5531 -157 143 -5180 5627 97 63 -2530 -12968 -393 -76 2565zm7935 9801l744 2642c943,-25 1878,-60 2579,456 1675,1231 1689,4099 -2370,5321 -5923,1782 -6438,-3886 -3155,-4808 -108,-777 -446,-2137 -806,-2677 -1350,373 -2749,1544 -3297,2582 -767,1453 -543,3417 77,4902 1316,3150 4159,3737 8033,2589 7510,-2227 5310,-8381 2965,-10225 -1067,-839 -3104,-1248 -4769,-782zm-4646 -23754c1867,548 3875,1334 5744,1949 1852,609 4605,1228 3760,3764 -1260,3781 -7554,-841 -11052,-1233l-789 2316c720,494 6370,2242 7644,2682 3476,1203 5483,122 6514,-2822 1943,-5550 -2678,-6274 -7106,-7785 -1109,-379 -2869,-1091 -3936,-1291l-778 2421z"/>
   <path class="fil0" d="M98831 101386c-4732,1281 -2726,8216 1915,6947 1632,-446 3049,-2277 2449,-4459 -445,-1618 -2162,-3085 -4364,-2488z"/>
   <path class="fil1" d="M98880 101849c-3918,1190 -2323,6996 1562,6066 1493,-357 2783,-1858 2316,-3845 -338,-1436 -1988,-2795 -3878,-2221z"/>
   <path class="fil1" d="M59429 92711l1143 11373 2238 -196c9,-1091 -997,-10992 -1210,-11464l-1648 129c-302,53 155,-52 -212,44l-312 113z"/>
   <path class="fil1" d="M55413 30654c93,197 174,356 303,419 469,228 -524,-274 448,-27l230 675 -324 -33c142,582 392,1073 624,1467l955 1362c-257,-891 -679,-972 -850,-1921 1060,634 447,1813 1847,2051 -196,-638 -439,-733 -573,-1468l416 429c120,171 197,345 305,557 222,433 393,788 692,1092l-359 -991c772,756 1981,3311 2585,4456 390,740 785,1555 1218,2261 505,824 878,1442 1360,2171 -544,-4862 -988,-4027 -2618,-6889 -627,-1101 -1099,-1449 -1106,-2195 25,23 63,25 75,71l491 678c175,322 324,580 483,882 352,671 653,1104 1058,1621 -409,-1691 -2488,-4785 -3764,-6010 -1500,-1440 -1275,-2314 -3495,-657z"/>
   <path class="fil3" d="M65132 68320c-124,1168 -348,544 -850,1323l-494 521c-19,17 -49,39 -67,57l-316 526c-333,449 -477,197 -744,774 -326,706 -350,1262 -968,1600 180,168 598,422 844,357 200,-53 43,-256 717,-257l-460 -548c655,57 489,31 1138,-149l298 -90c-317,-156 -621,-365 -952,-468 272,-198 -177,-201 490,-106 120,17 250,134 572,187l-638 -580 1126 295c-258,-370 -434,-368 -610,-687 404,61 268,77 618,208 346,-410 67,-400 691,-429 -187,-215 -214,-222 -369,-476 292,-29 757,-353 808,-431 330,-503 -156,-529 652,-734 14,-4 56,-7 79,-22 -110,-402 14,-239 -38,-779 219,43 458,152 691,-7l-522 -234c15,2 66,-50 80,-24l674 -480c180,-134 -9,71 162,-109 419,-439 67,-1125 60,-1239 -14,-241 200,-440 129,-971 -998,1220 -187,-499 -1541,1413 -16,22 -37,52 -53,73l-543 827c-511,903 -452,546 -665,658z"/>
   <path class="fil1" d="M50603 103783l992 186c-67,965 -390,1419 -1212,1651l-103 1153c2372,-232 2924,-3011 2831,-5437l-2244 -246 -264 2694z"/>
   <path class="fil0" d="M98368 106829l514 31 27 -1827 898 8 1112 1823 577 -9 -1059 -1704c280,-241 759,-253 993,-613 260,-401 212,-1042 -135,-1376 -481,-464 -2200,-415 -2915,-301l-12 3967z"/>
   <path class="fil3" d="M33682 46916c-363,63 -92,-429 -328,124 1,863 -125,628 -274,1388 1908,-841 687,-677 1432,-1226 184,-136 21,-13 245,-128l336 -168c715,341 1128,754 1736,1133 674,420 1849,686 1312,-687 -632,-91 -452,259 -1143,149 -6,-490 222,-829 92,-1125 -350,-802 -239,143 -628,-684l-511 166 -55 -445c-65,4 -330,82 -345,83 -219,13 -39,112 -633,-256 -280,-173 31,-92 -334,-175 -650,737 -787,495 -902,1851z"/>
   <path class="fil3" d="M35310 44302c648,902 2300,47 3041,3088 136,559 28,410 413,632 289,189 1055,136 1336,14 210,-525 -8,-943 -283,-1208 -428,129 -59,114 -243,461l-941 146c143,-737 459,-916 1184,-1123 -200,-539 6,19 -342,-386l-226 -287c-24,-19 -110,-74 -140,-93l-165 -93c-581,-342 -789,-413 -468,-779 -854,-58 -1267,-684 -1972,-552l119 -402c-1312,214 -1132,-19 -1313,582z"/>
   <polygon class="fil1" points="45541,102916 47750,103385 48363,100656 46173,100223 "/>
   <path class="fil1" d="M86288 90703c273,320 572,602 875,958 395,463 442,583 943,999 491,-326 1231,-992 1644,-1442l-1799 -2058c-420,477 -1208,938 -1664,1544z"/>
   <path class="fil3" d="M37333 54505c183,-306 865,-1078 1107,-1248 -382,-779 -151,-721 -771,-1363 116,-614 164,-530 393,-969 -1168,480 -2246,1152 -2630,2247 346,-175 618,-437 842,-713 -149,553 -436,470 -658,1178 15,10 46,-5 50,14 95,465 -130,-418 383,405l73 120c248,346 111,25 534,272 440,257 172,-38 267,393 279,-488 24,-223 409,-335z"/>
   <path class="fil2" d="M71436 72826c-122,-419 -137,-424 -369,-773 13,-25 45,-87 52,-69 33,81 498,-615 266,-1008 -449,-342 -901,-279 -1594,-277l-31 2149c719,-62 505,-87 501,-913 364,241 393,479 670,871l503 19zm-1487 -2925c-2406,681 -1436,4584 1297,3714 2205,-701 1479,-4501 -1297,-3714z"/>
   <path class="fil1" d="M98922 104621c761,-1 2009,183 2114,-605 135,-1010 -1347,-783 -2131,-783l17 1388z"/>
   <line class="fil1" x1="71436" y1="72826" x2="71436" y2= "72826" />
   <path class="fil3" d="M64637 65709l-3 -3c173,-85 73,-37 3,3zm15 15c-102,38 -66,14 -15,-15l15 15zm-9211 12697c411,-245 240,-165 445,-423 248,-313 330,-173 679,-403l692 -556c17,-19 40,-48 56,-68l911 -1075c356,-331 278,79 640,-309l-80 -671 563 -176 -361 -263c891,-360 -324,-443 1021,-435 -321,-566 -261,-186 -155,-915l792 200 -464 -597c15,13 162,-27 187,-39 185,-88 165,-85 237,-141l-498 -353c303,-260 565,-47 283,-609 401,56 338,175 682,-9 -228,-153 -467,-288 -656,-523 197,-109 324,35 554,-139l-345 -423 920 156 -829 -622 1358 409c-170,-469 -585,-532 -1099,-726 25,-20 71,-72 85,-44l369 -68c39,3 420,104 559,125 -21,-25 -55,-93 -66,-72l-421 -389c-186,-180 -55,-8 -216,-233 600,155 733,428 1372,341 -150,-83 -307,-213 -518,-328l-487 -292c-220,-193 -29,32 -211,-237l1195 329c-227,-378 -88,-145 -320,-376 -266,-264 -139,-4 -309,-362l952 229 -337 -469 824 91c-209,-227 -545,-524 -735,-767l857 178 -274 -537 785 252c-118,-407 -194,-344 -370,-709l856 227c-154,-465 -151,-195 -345,-628 646,-9 341,77 937,261l-506 -512c43,-16 111,-44 213,-86 21,-9 61,-24 84,-34l260 -146c-147,-135 -263,-212 -370,-462l738 -35c-221,-275 -275,-229 -514,-498 475,-213 397,52 892,247 -246,-539 -524,-490 -767,-959 795,226 758,93 1352,549 -333,-673 -764,-509 -1152,-1289 537,49 532,560 1231,502 -223,-140 -982,-932 -1150,-1258 666,266 877,623 1468,872 -296,-603 -811,-678 -1265,-1385 691,224 616,563 1367,684 -268,-713 -1227,-846 -1552,-1558l946 326c-366,-656 -694,-628 -1128,-1061 0,-347 -122,-3 379,-242l-1794 -967c650,-141 807,185 1433,286 -329,-308 -912,-592 -1472,-757 245,-102 189,-37 370,-89 33,-10 69,-19 103,-29l104 -34 211 -80c-1292,-241 -1245,-637 -1422,-694 -590,-65 -1694,-224 -2247,-205 -1377,48 -499,762 -1349,259 155,808 8,343 -96,461 -13,14 -46,34 -61,48l-548 526c-42,18 -63,22 -72,18 -5,6 -11,12 -17,19l-629 -102 334 913c-374,-146 -354,-240 -622,-559 15,467 111,447 270,829l-430 -67 151 565c-183,-101 -249,-135 -418,-242 224,1001 36,153 -200,883 -4,11 -10,47 -14,57l-21 45c-250,434 30,-64 -101,85 -278,314 -223,948 -526,1283l-544 -545c123,715 367,598 378,1255 -434,-220 -370,-854 -555,-299 -149,447 106,721 196,1184 -330,-110 -54,69 -323,-235l-221 -301c-13,-17 -37,-54 -59,-78 137,592 296,743 86,1206 -137,302 122,-159 -61,179 -126,232 -21,102 -221,127 212,566 232,253 271,911l131 685c3,23 3,60 6,83 45,360 965,1593 1267,1929 -17,11 -52,-6 -58,17 -82,311 -295,-230 -371,335 -6,43 32,275 45,362l-550 -244 380 673 -668 -521c-252,-252 -353,-294 -524,-629 -56,206 -122,542 -245,720 -295,-87 -331,39 -546,-154 -87,-78 -376,-520 -407,-564 69,514 386,1005 230,1332 -222,-222 -348,-447 -436,-772 -2,357 55,338 81,664l-179 2350c-634,2572 -944,1968 -1135,2705l296 -1683 -536 1542c-175,-198 -176,-233 -99,-649 57,-307 97,-377 115,-747l-428 471c-19,18 -54,49 -82,72l260 -1239c-164,219 -391,679 -662,766l217 -873 -569 490 316 -1212 -583 231c118,-451 196,-452 363,-871 -348,170 -379,290 -638,578 -146,163 -42,75 -206,201l401 -1074c-211,198 -307,343 -552,477 -294,161 -320,0 -533,523 -24,-26 -54,-106 -66,-83l-484 -423c-194,-147 -75,-6 -192,-159 649,-872 285,-401 758,-380l257 1c444,-25 535,-199 794,-617 -93,-280 -82,-110 -208,-275l-109 -141c-336,-484 -391,-1099 -615,-1584l-78 -288c-72,-330 -816,-1012 -1059,-1326l-247 -380c-14,-24 -33,-56 -46,-80 -242,-461 -125,-309 -20,-850 -651,140 -90,396 -854,574 201,-758 426,-495 703,-1158 -518,246 -150,125 -480,353 -382,264 69,197 -596,195 58,-798 541,-596 692,-1510 -23,-22 -65,-81 -77,-58l-565 -580c-123,-253 -254,-697 -327,-893 -581,156 -817,523 -1290,745l399 -724 -703 407c188,-737 408,-475 739,-1092l-874 525c213,-522 327,-548 533,-936 -550,190 -394,469 -973,712 46,-1001 1325,-686 741,-1617 -491,150 -652,491 -1062,715 41,-798 1492,-702 727,-1968l-629 -1015c-152,-162 -683,-245 -192,-847l-482 130c225,-783 -220,-803 -144,-1081 9,-31 177,-293 226,-389l-439 -124c128,-1078 -139,-765 -290,-1437 -98,-433 70,-331 -59,-597 -162,-335 -149,51 -446,-500l1298 -101 462 -804c-624,36 -763,157 -1151,-215 310,-136 279,-46 501,-144 480,-212 290,-232 462,-408l466 -280c519,-224 268,31 491,-353 -965,260 -672,142 -861,-51l948 -311c-316,-215 -839,-61 -705,-467 69,-208 612,-346 879,-457l-235 -274 682 -280 -508 -150c-14,-4 -53,-7 -75,-19 262,-281 351,-320 397,-620l91 -287c24,-126 29,14 -5,-250l-127 -1338c17,-496 68,-787 -287,-1094l-843 -612c-452,-465 -129,-63 -80,-761 -598,287 -106,380 -702,82 -249,-125 -607,-362 -763,-505 -280,-255 -438,-452 -420,-772 8,-136 31,-156 49,-146 -10,-20 -23,-48 -41,-89 -94,-119 -316,-161 -397,-277 -746,537 -415,1819 -11,2352 919,1211 1651,605 1797,1827 98,820 -249,850 -736,1765l-85 163 -43 84c-437,883 -193,512 -216,871 -46,726 -820,645 -1409,1001 -459,277 -322,486 -331,526l-54 225c-122,222 -503,344 -705,600 2,32 0,74 -6,128 -34,297 -117,328 -369,577 850,-459 645,-109 720,-54 -264,133 -446,332 -700,524 20,1 268,-59 462,61l-410 366c10,-2 52,-26 62,0 10,27 61,10 74,13l501 124 -485 262 470 265c-256,214 -168,122 -325,339 569,553 269,465 464,807 68,120 384,401 365,670 -27,376 -587,484 226,1012 -381,440 -166,266 -209,641 -55,480 -124,224 -258,757 612,-278 30,-258 758,-418 -117,267 -214,393 -343,612 351,-195 155,-236 532,-17 -286,287 -768,1132 -1256,1240 -607,134 -44,68 -570,-177l436 -758c-149,-81 11,-172 -687,43 127,-382 192,-314 117,-558l-262 -462c-418,-694 -115,-628 -279,-1354 -86,-377 -359,-719 -472,-1134 -57,-209 -74,-513 -169,-706 -30,-61 -113,-166 -160,-213 -202,-203 -163,-120 -300,-215l-960 729 -279 713 510 -282c87,192 16,222 -95,475 631,-300 369,-203 478,130l-56 583 340 67c-266,616 -286,637 -132,1161l438 1907c68,546 162,368 327,768 22,54 393,-267 -41,554l500 -237c-81,502 75,142 55,622 -1,19 -9,59 -10,78 -39,480 355,1378 61,2165l464 -327c1,620 -208,451 -255,878l396 -326 -319 895c394,205 61,-163 458,7l-333 1115c326,-379 239,-657 616,-943 258,518 -365,842 -358,1533 238,-373 151,-501 553,-669l-281 1049c292,-399 200,-421 632,-611l-270 769c7,9 38,2 43,24 50,209 77,-8 274,97l-321 752c138,93 190,-161 434,-6l-220 629c247,133 -57,-3 157,-6l177 -3c8,0 42,-7 60,3l-277 622c22,10 64,-13 71,14 15,56 363,-78 230,586 174,-189 216,-316 393,-226l-221 748c155,56 33,105 355,-209l-330 1668 539 -1058c155,605 -235,1098 -219,1776 113,-336 551,-965 612,-1247l-224 1301c310,-254 420,-568 638,-853l-239 1110 691 249 -189 993 331 -144 -144 958c97,-311 199,-375 404,-538l-118 847c172,80 128,60 356,-73 20,-12 55,-49 85,-70 -80,1413 202,-165 216,1345 123,-98 68,-59 181,-161l227 -202c9,388 40,373 70,398l290 7 -127 759c541,-389 657,-225 687,570l179 -148c147,-107 59,-56 190,-127l56 829c326,-295 83,-222 306,-108l66 1349c147,-286 85,-497 246,-756l159 688c421,-255 81,-225 367,-194l-62 843 458 -469c-60,961 162,456 404,1290 128,443 137,767 521,1096 340,291 763,738 1204,798 108,15 69,-13 318,38 322,66 473,131 861,130 1116,-4 3050,-962 3345,-2004 222,-786 122,-847 824,-788 23,-596 -473,-780 376,-1287z"/>
   <path class="fil2" d="M70282 71110l0 436c871,0 871,-436 0,-436z"/>
  </g>
 </g>
</svg>
