<?xml version="1.0" encoding="UTF-8" standalone="no"?>
<!-- Created with Inkscape (http://www.inkscape.org/) -->

<svg
   xmlns:dc="http://purl.org/dc/elements/1.1/"
   xmlns:cc="http://creativecommons.org/ns#"
   xmlns:rdf="http://www.w3.org/1999/02/22-rdf-syntax-ns#"
   xmlns:svg="http://www.w3.org/2000/svg"
   xmlns="http://www.w3.org/2000/svg"
   xmlns:sodipodi="http://sodipodi.sourceforge.net/DTD/sodipodi-0.dtd"
   xmlns:inkscape="http://www.inkscape.org/namespaces/inkscape"
   width="157.7464"
   height="50.397869"
   viewBox="0 0 41.737068 13.334436"
   version="1.1"
   id="svg2684"
   inkscape:version="0.92.0 r15299"
   sodipodi:docname="charter communications.svg">
  <defs
     id="defs2678">
    <clipPath
       id="clipPath1849"
       clipPathUnits="userSpaceOnUse">
      <path
         inkscape:connector-curvature="0"
         id="path1847"
         d="M 458.439,718.951 H 576 V 756 H 458.439 Z" />
    </clipPath>
  </defs>
  <sodipodi:namedview
     id="base"
     pagecolor="#ffffff"
     bordercolor="#666666"
     borderopacity="1.0"
     inkscape:pageopacity="0.0"
     inkscape:pageshadow="2"
     inkscape:zoom="5.1165451"
     inkscape:cx="78.373198"
     inkscape:cy="24.698933"
     inkscape:document-units="mm"
     inkscape:current-layer="layer1"
     showgrid="false"
     fit-margin-top="0"
     fit-margin-left="0"
     fit-margin-right="0"
     fit-margin-bottom="0"
     units="px"
     inkscape:window-width="1280"
     inkscape:window-height="744"
     inkscape:window-x="-4"
     inkscape:window-y="-4"
     inkscape:window-maximized="1" />
  <metadata
     id="metadata2681">
    <rdf:RDF>
      <cc:Work
         rdf:about="">
        <dc:format>image/svg+xml</dc:format>
        <dc:type
           rdf:resource="http://purl.org/dc/dcmitype/StillImage" />
        <dc:title></dc:title>
      </cc:Work>
    </rdf:RDF>
  </metadata>
  <g
     inkscape:label="Layer 1"
     inkscape:groupmode="layer"
     id="layer1"
     transform="translate(-62.41852,-139.01002)">
    <g
       id="g1843"
       transform="matrix(0.35277777,0,0,-0.35277777,-99.176594,405.84213)">
      <g
         id="g1845"
         clip-path="url(#clipPath1849)">
        <g
           id="g1851"
           transform="translate(490.0297,748.8145)">
          <path
             d="m 0,0 c -2.31,0 -4.262,-0.772 -5.77,-2.233 v 9.418 h -3.446 v -27.629 h 3.446 v 11.443 c 0,3.302 2.321,5.698 5.518,5.698 3.117,0 4.979,-2.022 4.979,-5.411 v -11.73 H 8.172 V -8.39 C 8.172,-3.372 4.888,0 0,0"
             style="fill:#1b619a;fill-opacity:1;fill-rule:nonzero;stroke:none"
             id="path1853"
             inkscape:connector-curvature="0" />
        </g>
        <g
           id="g1855"
           transform="translate(503.2209,734.71)">
          <path
             d="m 0,0 c 0,2.151 1.942,3.434 5.195,3.434 2.212,0 3.985,-0.322 5.373,-0.65 V 1.367 c 0,-2.737 -2.619,-4.8 -6.092,-4.8 C 2.251,-3.433 0,-2.279 0,-0.071 Z m 5.446,13.96 c -2.895,0 -5.092,-0.839 -6.86,-1.659 l -0.734,-0.342 1.31,-3.132 0.81,0.413 c 1.844,0.943 3.55,1.382 5.367,1.382 2.308,0 5.042,-0.793 5.182,-4.477 -1.377,0.312 -3.005,0.557 -5.219,0.557 -5.38,0 -8.855,-2.674 -8.855,-6.809 v -0.072 c 0,-4.282 4.081,-6.592 7.921,-6.592 2.857,0 4.843,1.059 6.165,2.19 V -6.34 h 3.41 V 5.93 c 0,5.029 -3.177,8.03 -8.497,8.03"
             style="fill:#1b619a;fill-opacity:1;fill-rule:nonzero;stroke:none"
             id="path1857"
             inkscape:connector-curvature="0" />
        </g>
        <g
           id="g1859"
           transform="translate(522.6021,745.2665)">
          <path
             d="M 0,0 V 3.116 H -3.446 V -16.897 H 0 v 8.354 c 0,5.748 3.565,8.321 7.099,8.321 H 8.12 v 3.62 H 7.311 C 4.532,3.398 1.864,2.228 0,0"
             style="fill:#1b619a;fill-opacity:1;fill-rule:nonzero;stroke:none"
             id="path1861"
             inkscape:connector-curvature="0" />
        </g>
        <g
           id="g1863"
           transform="translate(540.4329,731.3849)">
          <path
             d="m 0,0 c -1.952,0 -2.822,0.836 -2.822,2.714 v 10.945 h 6.43 v 3.621 h -6.43 v 5.575 H -6.268 V 17.28 h -2.325 v -3.621 h 2.325 V 2.535 c 0,-3.623 2.29,-5.874 5.98,-5.874 1.222,0 2.251,0.224 3.335,0.724 l 0.491,0.227 V 1.106 L 2.35,0.573 C 1.418,0.155 0.781,0 0,0"
             style="fill:#1b619a;fill-opacity:1;fill-rule:nonzero;stroke:none"
             id="path1865"
             inkscape:connector-curvature="0" />
        </g>
        <g
           id="g1867"
           transform="translate(553.2859,745.5115)">
          <path
             d="M 0,0 C 3.529,0 5.184,-2.663 5.629,-5.431 H -5.772 C -5.172,-2.241 -2.868,0 0,0 m 0.071,3.303 c -5.348,0 -9.538,-4.569 -9.538,-10.402 v -0.072 c 0,-5.929 4.224,-10.402 9.825,-10.402 4.207,0 6.593,1.988 8.201,3.719 l 0.587,0.634 -2.484,2.19 -0.558,-0.598 c -1.661,-1.778 -3.463,-2.606 -5.673,-2.606 -2.636,0 -5.578,1.741 -6.234,5.537 H 9.243 l 0.037,0.741 0.042,0.749 v 0.071 c 0,6.146 -3.803,10.439 -9.251,10.439"
             style="fill:#1b619a;fill-opacity:1;fill-rule:nonzero;stroke:none"
             id="path1869"
             inkscape:connector-curvature="0" />
        </g>
        <g
           id="g1871"
           transform="translate(575.1917,748.6702)">
          <path
             d="m 0,0 c -2.797,0.111 -5.45,-1.176 -7.312,-3.404 v 3.117 h -3.446 V -20.3 h 3.446 v 8.354 c 0,5.747 3.566,8.32 7.098,8.32 h 1.022 v 3.594 z"
             style="fill:#1b619a;fill-opacity:1;fill-rule:nonzero;stroke:none"
             id="path1873"
             inkscape:connector-curvature="0" />
        </g>
        <g
           id="g1875"
           transform="translate(476.5979,733.5817)">
          <path
             d="m 0,0 c -1.827,-1.519 -3.627,-2.195 -5.839,-2.195 -4.931,0 -8.794,4.57 -8.794,10.406 0,5.892 3.781,10.333 8.794,10.333 2.118,0 3.849,-0.626 5.614,-2.03 l 0.588,-0.469 2.544,2.544 -0.703,0.591 c -1.442,1.215 -3.841,2.831 -8.009,2.831 -7.043,0 -12.353,-5.965 -12.353,-13.874 0,-7.867 5.266,-13.799 12.251,-13.799 4.255,0 6.739,1.807 8.237,3.167 l 0.655,0.594 -2.394,2.392 z"
             style="fill:#1b619a;fill-opacity:1;fill-rule:nonzero;stroke:none"
             id="path1877"
             inkscape:connector-curvature="0" />
        </g>
        <g
           id="g1879"
           transform="translate(460.4977,721.6311)">
          <path
             d="M 0,0 V 0.015 C 0,1.496 1.109,2.71 2.688,2.71 3.648,2.71 4.229,2.375 4.727,1.898 L 4.139,1.221 C 3.722,1.608 3.276,1.868 2.68,1.868 1.69,1.868 0.96,1.05 0.96,0.03 V 0.015 c 0,-1.02 0.722,-1.846 1.72,-1.846 0.64,0 1.05,0.253 1.496,0.67 L 4.765,-1.757 C 4.221,-2.323 3.626,-2.68 2.65,-2.68 1.132,-2.68 0,-1.497 0,0"
             style="fill:#8f8b8d;fill-opacity:1;fill-rule:nonzero;stroke:none"
             id="path1881"
             inkscape:connector-curvature="0" />
        </g>
        <g
           id="g1883"
           transform="translate(473.0139,721.6311)">
          <path
             d="m 0,0 v 0.015 c 0,1.012 -0.737,1.853 -1.772,1.853 -1.035,0 -1.757,-0.826 -1.757,-1.838 V 0.015 c 0,-1.013 0.737,-1.846 1.772,-1.846 C -0.722,-1.831 0,-1.013 0,0 m -4.489,0 v 0.015 c 0,1.466 1.132,2.695 2.732,2.695 1.601,0 2.717,-1.214 2.717,-2.68 V 0.015 c 0,-1.467 -1.131,-2.695 -2.732,-2.695 -1.6,0 -2.717,1.213 -2.717,2.68"
             style="fill:#8f8b8d;fill-opacity:1;fill-rule:nonzero;stroke:none"
             id="path1885"
             inkscape:connector-curvature="0" />
        </g>
        <g
           id="g1887"
           transform="translate(477.7657,724.2513)">
          <path
             d="M 0,0 H 0.975 L 2.561,-2.464 4.147,0 H 5.122 V -5.211 H 4.206 v 3.737 L 2.561,-3.931 h -0.03 l -1.63,2.442 V -5.211 H 0 Z"
             style="fill:#8f8b8d;fill-opacity:1;fill-rule:nonzero;stroke:none"
             id="path1889"
             inkscape:connector-curvature="0" />
        </g>
        <g
           id="g1891"
           transform="translate(486.9024,724.2513)">
          <path
             d="M 0,0 H 0.975 L 2.561,-2.464 4.147,0 H 5.122 V -5.211 H 4.206 v 3.737 L 2.561,-3.931 h -0.03 l -1.63,2.442 V -5.211 H 0 Z"
             style="fill:#8f8b8d;fill-opacity:1;fill-rule:nonzero;stroke:none"
             id="path1893"
             inkscape:connector-curvature="0" />
        </g>
        <g
           id="g1895"
           transform="translate(495.9571,721.2515)">
          <path
             d="M 0,0 V 3 H 0.916 V 0.037 c 0,-0.968 0.498,-1.482 1.317,-1.482 0.812,0 1.311,0.484 1.311,1.445 V 3 H 4.459 V 0.044 C 4.459,-1.511 3.581,-2.293 2.218,-2.293 0.864,-2.293 0,-1.511 0,0"
             style="fill:#8f8b8d;fill-opacity:1;fill-rule:nonzero;stroke:none"
             id="path1897"
             inkscape:connector-curvature="0" />
        </g>
        <g
           id="g1899"
           transform="translate(504.349,724.2513)">
          <path
             d="M 0,0 H 0.849 L 3.64,-3.603 V 0 H 4.541 V -5.211 H 3.774 L 0.901,-1.504 V -5.211 H 0 Z"
             style="fill:#8f8b8d;fill-opacity:1;fill-rule:nonzero;stroke:none"
             id="path1901"
             inkscape:connector-curvature="0" />
        </g>
        <path
           d="m 512.964,724.251 h 0.916 v -5.211 h -0.916 z"
           style="fill:#8f8b8d;fill-opacity:1;fill-rule:nonzero;stroke:none"
           id="path1903"
           inkscape:connector-curvature="0" />
        <g
           id="g1905"
           transform="translate(517.7224,721.6311)">
          <path
             d="M 0,0 V 0.015 C 0,1.496 1.109,2.71 2.687,2.71 3.648,2.71 4.229,2.375 4.727,1.898 L 4.139,1.221 C 3.722,1.608 3.276,1.868 2.68,1.868 1.69,1.868 0.961,1.05 0.961,0.03 V 0.015 c 0,-1.02 0.722,-1.846 1.719,-1.846 0.641,0 1.05,0.253 1.497,0.67 L 4.765,-1.757 C 4.221,-2.323 3.626,-2.68 2.65,-2.68 1.132,-2.68 0,-1.497 0,0"
             style="fill:#8f8b8d;fill-opacity:1;fill-rule:nonzero;stroke:none"
             id="path1907"
             inkscape:connector-curvature="0" />
        </g>
        <g
           id="g1909"
           transform="translate(529.2858,721.1097)">
          <path
             d="M 0,0 -0.901,2.084 -1.794,0 Z m -1.31,3.179 h 0.848 L 1.831,-2.069 H 0.864 l -0.529,1.258 h -2.464 l -0.536,-1.258 h -0.938 z"
             style="fill:#8f8b8d;fill-opacity:1;fill-rule:nonzero;stroke:none"
             id="path1911"
             inkscape:connector-curvature="0" />
        </g>
        <g
           id="g1913"
           transform="translate(535.3029,723.4028)">
          <path
             d="M 0,0 H -1.653 V 0.849 H 2.576 V 0 H 0.923 V -4.362 H 0 Z"
             style="fill:#8f8b8d;fill-opacity:1;fill-rule:nonzero;stroke:none"
             id="path1915"
             inkscape:connector-curvature="0" />
        </g>
        <path
           d="m 541.573,724.251 h 0.916 v -5.211 h -0.916 z"
           style="fill:#8f8b8d;fill-opacity:1;fill-rule:nonzero;stroke:none"
           id="path1917"
           inkscape:connector-curvature="0" />
        <g
           id="g1919"
           transform="translate(550.8201,721.6311)">
          <path
             d="m 0,0 v 0.015 c 0,1.012 -0.737,1.853 -1.772,1.853 -1.035,0 -1.757,-0.826 -1.757,-1.838 V 0.015 c 0,-1.013 0.737,-1.846 1.772,-1.846 C -0.722,-1.831 0,-1.013 0,0 m -4.489,0 v 0.015 c 0,1.466 1.132,2.695 2.732,2.695 1.601,0 2.717,-1.214 2.717,-2.68 V 0.015 c 0,-1.467 -1.131,-2.695 -2.732,-2.695 -1.6,0 -2.717,1.213 -2.717,2.68"
             style="fill:#8f8b8d;fill-opacity:1;fill-rule:nonzero;stroke:none"
             id="path1921"
             inkscape:connector-curvature="0" />
        </g>
        <g
           id="g1923"
           transform="translate(555.5715,724.2513)">
          <path
             d="M 0,0 H 0.849 L 3.641,-3.603 V 0 h 0.9 V -5.211 H 3.774 L 0.901,-1.504 V -5.211 H 0 Z"
             style="fill:#8f8b8d;fill-opacity:1;fill-rule:nonzero;stroke:none"
             id="path1925"
             inkscape:connector-curvature="0" />
        </g>
        <g
           id="g1927"
           transform="translate(563.7777,719.7997)">
          <path
             d="m 0,0 0.551,0.655 c 0.499,-0.432 1.005,-0.677 1.645,-0.677 0.566,0 0.923,0.267 0.923,0.655 V 0.647 C 3.119,1.02 2.911,1.221 1.943,1.444 0.834,1.712 0.208,2.04 0.208,3 v 0.015 c 0,0.894 0.745,1.511 1.78,1.511 0.759,0 1.362,-0.231 1.891,-0.655 L 3.387,3.179 C 2.918,3.529 2.449,3.715 1.973,3.715 1.437,3.715 1.124,3.439 1.124,3.097 V 3.082 C 1.124,2.68 1.362,2.501 2.367,2.263 3.469,1.995 4.035,1.6 4.035,0.737 V 0.722 C 4.035,-0.253 3.268,-0.834 2.174,-0.834 1.377,-0.834 0.625,-0.558 0,0"
             style="fill:#8f8b8d;fill-opacity:1;fill-rule:nonzero;stroke:none"
             id="path1929"
             inkscape:connector-curvature="0" />
        </g>
      </g>
    </g>
  </g>
</svg>
