<?xml version="1.0" encoding="UTF-8" standalone="no"?>
<!-- Created with Inkscape (http://www.inkscape.org/) -->

<svg
   xmlns:dc="http://purl.org/dc/elements/1.1/"
   xmlns:cc="http://creativecommons.org/ns#"
   xmlns:rdf="http://www.w3.org/1999/02/22-rdf-syntax-ns#"
   xmlns:svg="http://www.w3.org/2000/svg"
   xmlns="http://www.w3.org/2000/svg"
   xmlns:sodipodi="http://sodipodi.sourceforge.net/DTD/sodipodi-0.dtd"
   xmlns:inkscape="http://www.inkscape.org/namespaces/inkscape"
   width="82.226624"
   height="88.064751"
   id="svg2"
   version="1.1"
   inkscape:version="0.48.2 r9819"
   sodipodi:docname="New document 1">
  <defs
     id="defs4">
    <clipPath
       id="clipPath3221"
       clipPathUnits="userSpaceOnUse">
      <path
         id="path3223"
         d="m 76.703,451.84 c -0.451,-0.044 -1.136,-0.534 -1.581,-0.534 l 0,0 c -0.588,0 -0.588,-0.431 -1.085,-0.609 l 0,0 c -0.497,-0.179 -0.768,-0.371 -0.994,-0.549 l 0,0 c -0.226,-0.179 -2.034,-0.818 -2.395,-1.129 l 0,0 c -0.362,-0.311 -0.784,-0.713 -0.858,-0.787 l 0,0 c -0.244,-0.24 -0.678,-0.223 -0.995,-0.579 l 0,0 c -0.316,-0.357 -0.362,-0.668 -0.723,-0.89 l 0,0 c -0.361,-0.224 -0.934,-0.61 -0.934,-0.61 l 0,0 c 0,0 -0.519,-0.48 -0.843,-0.928 l 0,0 c -0.211,-0.289 -0.505,-0.4 -0.867,-1.247 l 0,0 c -0.361,-0.846 -0.595,-1.239 -0.911,-1.774 l 0,0 c -0.194,-0.328 -0.527,-1.752 -0.527,-1.752 l 0,0 c 0,0 -0.264,-1.471 -0.166,-1.797 l 0,0 c 0.166,-0.548 0.294,-0.512 0.452,-0.756 l 0,0 c 0.159,-0.245 0.226,-0.713 0.226,-0.713 l 0,0 0.543,-1.159 c 0,0 0.361,-0.355 0.602,-1.394 l 0,0 c 0.06,-0.26 0.934,-0.921 0.934,-0.921 l 0,0 c 0,0 -0.849,-0.655 -0.813,-2.406 l 0,0 c 0.03,-1.459 0.547,-2.968 0.602,-3.533 l 0,0 c 0.117,-1.188 0.211,-2.206 1.168,-4.551 l 0,0 c 0.399,-0.98 0.941,-2.516 0.941,-2.516 l 0,0 -0.272,-0.297 c 0,0 -0.27,-0.386 -0.27,-0.505 l 0,0 c 0,-0.119 0.504,-0.407 0.301,-0.594 l 0,0 c -0.274,-0.252 -0.447,-0.188 -0.555,-0.125 l 0,0 c -0.071,0.041 -0.115,0.083 -0.138,0.036 l 0,0 c -0.06,-0.119 -0.121,-0.267 -0.241,-0.327 l 0,0 c -0.121,-0.059 -11.117,-4.721 -13.255,-5.611 l 0,0 c -2.14,-0.891 -14.491,-5.821 -15.606,-7.751 l 0,0 c -1.115,-1.93 -1.144,-3.147 -1.175,-3.741 l 0,0 c -0.03,-0.594 -0.301,-2.257 -0.391,-2.465 l 0,0 c -0.09,-0.208 -0.332,-1.247 -0.423,-1.485 l 0,0 c -0.089,-0.237 -0.963,-2.404 -0.933,-2.583 l 0,0 c 0.03,-0.178 -0.151,-1.663 -0.151,-1.663 l 0,0 c 0,0 -0.24,-1.455 -0.452,-1.93 l 0,0 c -0.21,-0.475 -1.355,-3.563 -1.476,-3.92 l 0,0 c -0.12,-0.356 -1.114,-2.761 -1.265,-3.117 l 0,0 c -0.15,-0.357 -0.437,-1.961 -0.595,-2.295 l 0,0 C 31.424,382 30.339,379.84 30.294,379.639 l 0,0 c -0.045,-0.201 -1.039,-1.626 -1.152,-2.004 l 0,0 c -0.113,-0.379 -0.52,-2.071 -0.52,-2.071 l 0,0 c 0,0 -0.52,-0.379 -0.768,-1.003 l 0,0 c -0.248,-0.624 -0.407,-1.759 -0.474,-1.915 l 0,0 c -0.069,-0.156 -0.114,-1.292 -0.159,-1.514 l 0,0 c -0.045,-0.223 -0.339,-1.314 -0.339,-1.314 l 0,0 c 0,0 -0.926,-0.936 -0.971,-1.181 l 0,0 c -0.046,-0.245 -0.294,-1.425 -0.362,-1.737 l 0,0 c -0.067,-0.311 -0.813,-1.915 -0.745,-4.765 l 0,0 c 0.068,-2.851 1.13,-5.546 1.13,-5.546 l 0,0 c 0,0 1.536,-3.252 1.784,-3.808 l 0,0 c 0.249,-0.557 0.972,-2.829 1.017,-3.029 l 0,0 c 0.045,-0.2 0.385,-3.095 0.43,-3.563 l 0,0 c 0.045,-0.468 0.587,-5.746 0.7,-5.858 l 0,0 c 0.113,-0.11 1.853,-1.625 2.034,-1.759 l 0,0 c 0.18,-0.133 0.812,-0.645 0.812,-0.645 l 0,0 0.114,-0.58 c 0,0 -3.526,-5.412 -3.841,-5.768 l 0,0 c -0.316,-0.356 -2.395,-3.429 -2.531,-3.852 l 0,0 c -0.135,-0.424 -0.497,-0.58 0.022,-2.539 l 0,0 c 0.52,-1.96 2.395,-5.301 2.395,-5.301 l 0,0 c 0,0 -0.135,-0.089 -0.202,-0.624 l 0,0 c -0.069,-0.533 0,-0.979 -0.024,-1.091 l 0,0 c -0.022,-0.111 -0.293,-2.404 -0.135,-2.739 l 0,0 c 0.159,-0.334 0.701,-2.071 0.701,-2.071 l 0,0 c 0,0 -4.609,-4.32 -9.716,-11.313 l 0,0 C 17.896,299.86 11.68,290.231 8.829,281.07 l 0,0 C 5.35,269.89 -4.491,233.384 26.222,196.086 l 0,0 c 5.261,-6.389 29.001,-31.256 73.611,-21.915 l 0,0 c 7.643,1.6 25.543,12.306 30.09,16.127 l 0,0 c 15.459,12.989 22.914,33.09 24.054,36.566 l 0,0 c 1.897,5.79 4.398,17.549 4.428,24.808 l 0,0 c 0.03,7.088 -0.165,20.326 -6.808,36.227 l 0,0 c -6.643,15.901 -16.532,24.439 -16.532,24.439 l 0,0 c 0,0 0.203,0.534 0.158,0.802 l 0,0 c -0.033,0.196 0.34,0.757 0.226,1.335 l 0,0 c -0.174,0.883 -0.226,1.515 -0.226,1.515 l 0,0 c 0,0 -0.022,1.069 -0.022,1.337 l 0,0 c 0,0.267 0.655,1.803 0.384,2.783 l 0,0 c -0.272,0.98 -1.22,2.361 -1.536,3.029 l 0,0 c -0.317,0.667 -0.682,2.197 -0.836,2.472 l 0,0 c -0.313,0.553 -1.233,1.845 -1.583,2.784 l 0,0 c -0.148,0.399 -0.722,1.536 -0.812,1.848 l 0,0 c -0.091,0.312 0.067,1.381 0.067,1.96 l 0,0 c 0,0.579 -0.407,0.779 -0.587,1.448 l 0,0 c -0.181,0.667 -0.542,2.917 -0.542,2.917 l 0,0 c 0,0 -0.905,10.868 -0.859,10.957 l 0,0 c 0.045,0.089 1.559,0.601 1.695,1.447 l 0,0 c 0.135,0.847 -0.565,2.784 -0.181,3.408 l 0,0 c 0.383,0.623 1.839,0.538 2.048,0.957 l 0,0 c 0.401,0.807 1.115,1.723 1.356,2.079 l 0,0 c 0.241,0.357 0.964,0.906 0.241,1.529 l 0,0 c -0.723,0.624 -0.944,0.843 -1.333,0.951 l 0,0 c -0.565,0.155 -0.901,0.644 -1.055,0.653 l 0,0 c -0.534,0.03 -0.467,0.742 -0.467,0.742 l 0,0 c 0,0 0.116,0.744 -0.09,0.929 l 0,0 c -0.324,0.288 0.302,0.924 0.03,1.187 l 0,0 c -0.392,0.379 -0.151,0.742 -0.151,0.742 l 0,0 c 0,0 0.302,0.089 0.483,0.446 l 0,0 c 0.18,0.356 0.298,0.54 0.24,0.742 l 0,0 c -0.128,0.453 0.302,0.654 0.181,1.158 l 0,0 c -0.121,0.504 -0.879,1.558 -1.416,1.819 l 0,0 c -0.519,0.252 -0.075,1.322 -0.391,1.752 l 0,0 c -0.206,0.281 -0.573,1.121 -0.663,1.358 l 0,0 c -0.09,0.237 -0.889,3.578 -1.341,4.692 l 0,0 c -0.451,1.114 -2.666,9.264 -3.163,9.933 l 0,0 c -0.497,0.668 -2.983,6.815 -3.073,7.348 l 0,0 c -0.09,0.535 -0.406,2.718 -0.949,3.341 l 0,0 c -0.542,0.624 -1.356,3.563 -1.536,3.965 l 0,0 c -0.181,0.4 -0.723,3.474 -1.175,3.963 l 0,0 c -0.452,0.491 -0.994,3.341 -1.22,3.608 l 0,0 c -0.226,0.268 -1.131,2.782 -1.266,3.163 l 0,0 c -0.157,0.446 -1.558,1.693 -2.327,2.048 l 0,0 c -0.768,0.357 -3.28,1.805 -3.976,1.872 l 0,0 c -0.411,0.038 -0.972,0.267 -1.152,0.311 l 0,0 c -0.181,0.045 -4.407,1.626 -5.174,1.849 l 0,0 c -0.769,0.223 -6.135,2.159 -6.35,2.583 l 0,0 c -0.045,0.089 0.249,1.404 0.316,1.916 l 0,0 c 0.053,0.399 0.181,1.581 0.158,2.048 l 0,0 c -0.012,0.271 0.611,2.228 0.34,3.741 l 0,0 c -0.271,1.515 0.381,2.267 0.497,2.272 l 0,0 c 0.887,0.041 0.474,1.359 0.972,2.072 l 0,0 c 0.496,0.712 1.442,1.126 2.259,2.315 l 0,0 c 0.473,0.689 1.242,1.961 0.474,4.365 l 0,0 c -0.768,2.406 -1.536,4.009 -1.581,4.321 l 0,0 c -0.046,0.312 -0.271,0.401 -0.407,0.624 l 0,0 c -0.136,0.222 -1.13,1.47 -1.266,1.737 l 0,0 c -0.135,0.267 -0.391,1.737 -1.114,2.093 l 0,0 c -0.724,0.357 -1.763,1.307 -2.064,1.781 l 0,0 c -0.172,0.273 -2.149,2.725 -5.904,3.846 l 0,0 c -0.995,0.297 -2.952,0.549 -3.45,0.638 l 0,0 c -0.497,0.089 -1.792,0.194 -2.29,0.194 l 0,0 c -0.497,0 -2.169,-0.178 -2.169,-0.178 l 0,0 c 0,0 -0.27,-0.009 -0.858,-0.045 l 0,0 c -0.708,-0.044 -0.98,0.342 -1.838,0.342 l 0,0 c -0.859,0 -1.642,-0.297 -2.094,-0.342 M 25.278,304.943 c 4.649,5.629 9.264,9.6 9.264,9.6 l 0,0 c 0,0 3.07,-2.25 4.881,-3.14 l 0,0 c 1.292,-0.637 5.196,-2.45 5.196,-2.45 l 0,0 c 0,0 0.135,-6.458 0.361,-8.775 l 0,0 c 0.226,-2.316 0.407,-4.766 0.859,-6.414 l 0,0 c 0.452,-1.648 1.175,-4.098 1.672,-5.345 l 0,0 c 0.497,-1.247 0.949,-2.093 1.265,-2.539 l 0,0 c 0.316,-0.445 0.769,-1.469 1.221,-2.049 l 0,0 c 0.452,-0.578 0.497,-1.425 0.497,-1.425 l 0,0 0.09,-0.801 -0.09,-1.026 0,-0.89 c 0,-0.178 0.09,-0.936 0.09,-0.936 l 0,0 0,-0.801 c 0,-0.223 0.046,-0.847 0.046,-0.847 l 0,0 0,-0.712 c 0,-0.357 0.134,-0.846 0.225,-1.025 l 0,0 c 0.09,-0.178 -0.091,-0.756 -0.091,-0.756 l 0,0 c 0,0 0,-0.313 0.181,-0.936 l 0,0 C 51.126,273.053 50.9,272.83 50.9,272.83 l 0,0 c 0,0 0.136,-0.624 0.181,-1.025 l 0,0 c 0.045,-0.4 0.361,-1.024 0.361,-1.024 l 0,0 0.181,-1.025 c 0,0 0.045,-0.445 0.091,-1.113 l 0,0 c 0.045,-0.668 0.045,-0.357 0.181,-0.846 l 0,0 c 0.135,-0.491 0.135,-1.203 0.226,-1.648 l 0,0 c 0.09,-0.446 0.045,-1.693 0.045,-1.693 l 0,0 c 0,0 -0.186,-0.602 -0.489,-1.015 l 0,0 c -0.255,-0.35 -0.593,-1.533 -0.849,-2.005 l 0,0 c -0.827,-1.521 -1.797,-1.944 -2.314,-2.833 l 0,0 c -0.157,-0.27 -0.361,-1.078 -0.451,-1.433 l 0,0 c -0.091,-0.357 -0.127,-0.9 -0.163,-1.284 l 0,0 c -0.039,-0.408 0.244,-0.739 0.786,-0.962 l 0,0 c 0.542,-0.222 0.895,-0.579 0.895,-0.579 l 0,0 0.162,-0.401 c 0,0 0.024,-0.508 0.037,-0.686 l 0,0 c 0.072,-1.034 0.211,-1.548 0.235,-1.701 l 0,0 c 0.054,-0.356 0.126,-0.525 0.398,-0.927 l 0,0 c 0.271,-0.4 0.162,-0.579 0.072,-1.077 l 0,0 c -0.032,-0.176 -0.097,-0.609 -0.097,-0.788 l 0,0 c 0,-0.178 -0.299,-0.865 -0.431,-1.246 l 0,0 c -0.094,-0.275 -0.105,-0.925 0.013,-1.263 l 0,0 c 0.165,-0.474 0.164,-1.374 0.325,-1.894 l 0,0 c 0.095,-0.305 0.335,-1.295 0.346,-1.44 l 0,0 c 0.077,-0.906 0.55,-2.309 0.621,-2.577 l 0,0 c 0.68,-2.595 1.09,-2.696 1.099,-3.044 l 0,0 c 0.024,-0.936 0.286,-2.598 0.286,-2.598 l 0,0 c 0,0 -6.301,-26.309 3.506,-34.73 l 0,0 c 0.165,-0.142 -21.41,-5.561 -24.101,-4.575 l 0,0 c -2.246,0.824 -7.99,8.809 -7.99,8.809 l 0,0 c 0,0 -13.52,14.657 -16.498,46.441 l 0,0 c -1.386,14.785 5.552,34.087 4.73,31.446 l 0,0 c 2.759,8.871 9.651,18.814 12.984,22.849 m 75.813,-71.888 c 0,0 0.15,0.222 0.15,0.401 l 0,0 c 0,0.178 0.316,0.667 0.316,0.667 l 0,0 c 0,0 0.693,1.025 0.572,1.56 l 0,0 c -0.119,0.534 -0.18,1.098 -0.3,1.484 l 0,0 c -0.121,0.386 -0.241,1.01 -0.512,1.426 l 0,0 c -0.272,0.415 -0.964,1.485 -0.964,1.604 l 0,0 c 0,0.118 2.56,4.305 3.976,6.443 l 0,0 c 1.416,2.138 2.832,5.226 3.765,6.622 l 0,0 c 0.935,1.395 3.133,5.403 3.887,7.364 l 0,0 c 0.753,1.96 1.084,3.028 1.235,3.384 l 0,0 c 0.151,0.357 0.693,2.228 0.693,2.525 l 0,0 c 0,0.297 1.506,0.416 1.958,2.791 l 0,0 c 0.452,2.375 -0.331,2.999 -0.512,3.117 l 0,0 c -0.181,0.119 -0.271,0.416 -0.392,0.743 l 0,0 c -0.12,0.327 -0.301,1.01 -0.301,1.188 l 0,0 c 0,0.178 1.205,2.078 1.236,2.939 l 0,0 c 0.029,0.862 0.421,1.307 0.421,1.307 l 0,0 c 0,0 0.271,0.119 0.241,0.386 l 0,0 c -0.03,0.268 -0.241,2.316 -0.331,2.791 l 0,0 c -0.09,0.475 -0.452,3.623 -0.633,3.979 l 0,0 c -0.181,0.356 -0.181,0.98 -0.181,1.247 l 0,0 c 0,0.268 -0.181,0.297 -0.03,0.802 l 0,0 c 0.151,0.505 0.361,0.476 0.242,0.891 l 0,0 c -0.121,0.416 -0.181,1.633 -0.061,2.019 l 0,0 c 0.121,0.386 0.301,0.505 0.301,0.772 l 0,0 c 0,0.268 -0.03,0.683 0.031,0.891 l 0,0 c 0.06,0.208 0.241,0.178 0.241,0.594 l 0,0 c 0,0.416 0.09,0.683 0.09,0.683 l 0,0 0,1.247 c 0,0.208 0.06,0.98 0.06,1.188 l 0,0 c 0,0.208 0.15,2.969 0.181,3.296 l 0,0 c 0.03,0.326 0.572,0.623 0.662,0.802 l 0,0 c 0.091,0.178 0.452,0.653 0.603,1.485 l 0,0 c 0.151,0.831 0.151,1.395 0.121,2.018 l 0,0 c -0.031,0.624 -0.031,1.099 0.03,1.277 l 0,0 c 0.06,0.179 0.18,0.327 0.18,0.565 l 0,0 c 0,0.237 -0.542,1.099 -0.451,1.395 l 0,0 c 0.09,0.297 0.632,1.128 0.993,1.93 l 0,0 c 0.362,0.802 0.784,2.079 0.905,2.614 l 0,0 c 0.12,0.533 0.06,1.692 0.06,1.692 l 0,0 c 0,0 0.843,0.891 1.024,0.831 l 0,0 c 0.181,-0.059 1.506,-1.752 2.44,-2.108 l 0,0 c 0.934,-0.357 1.747,1.217 1.747,1.217 l 0,0 c 0,0 0.543,-0.386 1.146,-0.653 l 0,0 c 0.602,-0.267 1.295,-0.772 1.626,-0.979 l 0,0 c 0.331,-0.208 1.476,-1.366 1.898,-1.545 l 0,0 c 0.422,-0.178 2.319,-0.059 2.5,-0.059 l 0,0 c 0.181,0 -0.06,-0.297 -0.06,-0.297 l 0,0 c 0,0 -0.181,-1.069 -0.181,-1.515 l 0,0 c 0,-0.445 0.272,-1.632 0.784,-1.87 l 0,0 c 0.512,-0.237 1.235,0.238 1.265,0.446 l 0,0 c 0.03,0.207 0,0.771 0,0.949 l 0,0 c 0,0.178 0.241,0.446 0.241,0.683 l 0,0 c 0,0.238 0.151,0.832 0.151,0.832 l 0,0 c 0,0 4.71,-4.562 9.971,-13.392 l 0,0 c 7.625,-12.794 10.394,-27.022 10.906,-34.534 l 0,0 c 0.512,-7.513 1.1,-17.162 -2.56,-28.863 l 0,0 c -0.011,-0.033 -3.076,-9.807 -10.003,-21.363 l 0,0 c -6.129,-10.224 -16.75,-19.08 -16.75,-19.08 l 0,0 -24.627,41.171 z m -23.002,18.989 c -0.12,0.089 -0.03,0.446 -0.18,0.802 l 0,0 c -0.152,0.356 -0.061,0.327 -0.211,0.772 l 0,0 c -0.151,0.445 -0.031,0.474 0.03,1.484 l 0,0 c 0.06,1.01 0.21,2.347 0.15,2.822 l 0,0 c -0.06,0.474 0.392,1.009 0.392,1.365 l 0,0 c 0,0.356 0.204,3.919 0.241,5.078 l 0,0 c 0.03,0.95 -0.211,2.287 -0.03,2.88 l 0,0 c 0.181,0.594 0.747,2.59 1.898,4.217 l 0,0 c 1.44,2.036 1.445,2.94 1.897,2.91 l 0,0 c 0.692,-0.046 1.688,-1.158 2.05,-1.871 l 0,0 c 0.36,-0.713 0.662,-1.395 0.693,-1.989 l 0,0 c 0.029,-0.594 0.029,-1.337 0.09,-1.812 l 0,0 c 0.06,-0.475 0.447,-2.127 0.512,-2.642 l 0,0 c 0.09,-0.713 -0.452,-1.396 -1.025,-2.198 l 0,0 c -0.572,-0.802 -1.966,-3.287 -2.5,-4.543 l 0,0 c -1.723,-4.056 -1.325,-5.078 -1.325,-5.078 l 0,0 c 0,0 -1.507,-1.098 -2.169,-2.108 l 0,0 c -0.074,-0.112 -0.189,-0.155 -0.295,-0.155 l 0,0 c -0.084,0 -0.164,0.027 -0.218,0.066"
         inkscape:connector-curvature="0" />
    </clipPath>
    <clipPath
       id="clipPath3209"
       clipPathUnits="userSpaceOnUse">
      <path
         id="path3211"
         d="m 254.08,492.284 c -0.148,-0.3 -0.555,-0.3 -0.741,-0.337 l 0,0 c -0.185,-0.038 -0.666,0.037 -0.814,0.037 l 0,0 c -0.149,0 -0.593,0.113 -1,0.149 l 0,0 c -0.408,0.038 -0.888,-0.448 -1.111,-0.598 l 0,0 c -0.222,-0.149 -0.852,-0.448 -1.037,-0.486 l 0,0 c -0.185,-0.037 -1.222,0.224 -1.593,0.224 l 0,0 c -0.369,0 -1.702,-0.149 -1.962,-0.373 l 0,0 c -0.259,-0.225 -0.666,-0.375 -0.852,-0.449 l 0,0 c -0.184,-0.075 -0.962,-0.262 -1.37,-0.15 l 0,0 c -0.407,0.113 -2.147,-0.449 -2.332,-0.449 l 0,0 c -0.186,0 -0.408,0.038 -0.593,0.038 l 0,0 c -0.185,0 -0.407,-0.487 -0.852,-0.636 l 0,0 c -0.444,-0.15 -0.925,-0.15 -1.296,-0.188 l 0,0 c -0.37,-0.037 -1.259,-0.822 -1.629,-1.01 l 0,0 c -0.371,-0.187 -1.037,-1.982 -1.371,-2.169 l 0,0 c -0.333,-0.187 -1.369,-0.674 -1.703,-0.823 l 0,0 c -0.332,-0.149 -1.629,-1.346 -1.777,-1.608 l 0,0 c -0.149,-0.262 -0.63,-0.786 -1.371,-1.272 l 0,0 c -0.74,-0.486 -1.629,-1.608 -1.814,-1.87 l 0,0 c -0.185,-0.262 -0.592,-1.384 -0.666,-1.534 l 0,0 c -0.075,-0.149 -0.259,-1.16 -0.408,-1.608 l 0,0 c -0.147,-0.449 -0.592,-0.861 -0.814,-1.048 l 0,0 c -0.223,-0.187 -0.37,-0.86 -0.408,-1.271 l 0,0 c -0.037,-0.412 -0.666,-0.711 -0.888,-1.01 l 0,0 c -0.223,-0.3 0.185,-1.422 -0.333,-2.32 l 0,0 c -0.519,-0.898 -0.223,-1.795 -0.223,-1.795 l 0,0 0.148,-1.122 0.149,-0.337 c 0,0 -0.719,-1.851 -0.791,-3.852 l 0,0 c -0.005,-0.16 0.459,-0.173 0.456,-0.336 l 0,0 c -0.102,-5.11 -0.011,-13.194 -0.011,-13.28 l 0,0 c 0,-0.125 0.024,-0.449 0.024,-0.449 l 0,0 -0.024,-0.249 c 0,0 -1.753,0.249 -2.642,-0.873 l 0,0 c -1.261,-1.594 -1.382,-2.344 -1.58,-4.215 l 0,0 c -0.197,-1.87 -0.024,-3.291 0.173,-4.264 l 0,0 c 0.198,-0.972 0.395,-2.169 0.642,-3.815 l 0,0 c 0.247,-1.647 0.494,-2.494 0.666,-3.117 l 0,0 c 0.173,-0.624 0.741,-2.245 1.087,-3.218 l 0,0 c 0.345,-0.972 0.987,-1.77 1.382,-2.119 l 0,0 c 0.395,-0.349 1.21,-0.848 1.728,-1.372 l 0,0 c 0.395,-0.424 1.382,-1.221 1.382,-1.221 l 0,0 c 0,0 0.05,-0.076 0.149,-0.724 l 0,0 c 0.099,-0.648 -0.074,-1.222 -0.074,-1.222 l 0,0 -0.222,0 c -0.248,0.151 -0.889,0 -1.086,0 l 0,0 c -0.198,0 -0.395,-0.249 -0.692,-0.224 l 0,0 c -0.494,0.124 -1.036,0.025 -1.185,0.025 l 0,0 c -0.147,0 -0.765,-0.274 -1.16,-0.499 l 0,0 c -0.329,-0.186 -0.889,-0.848 -1.086,-1.247 l 0,0 c -0.197,-0.398 -0.963,-1.77 -1.629,-2.843 l 0,0 c -0.667,-1.072 -1.68,-3.067 -2.123,-3.815 l 0,0 c -0.445,-0.748 -1.112,-1.97 -1.112,-1.97 l 0,0 c 0,0 -0.123,-0.124 -0.222,-0.948 l 0,0 c -0.098,-0.822 0.395,-2.069 0.79,-2.918 l 0,0 c -0.049,-0.224 -0.024,-1.022 -0.024,-1.022 l 0,0 c 0,0 -0.075,-0.274 -0.322,-0.872 l 0,0 c -0.197,-0.075 -1.604,-1.347 -3.851,-3.143 l 0,0 c -2.246,-1.794 -2.74,-2.194 -12.911,-8.852 l 0,0 c -10.171,-6.658 -12.64,-9.077 -19.157,-15.735 l 0,0 c -6.517,-6.658 -8.418,-9.976 -9.973,-12.319 l 0,0 c -1.556,-2.345 -3.482,-5.262 -3.58,-5.536 l 0,0 c -0.099,-0.275 -0.247,-0.873 -0.345,-1.022 l 0,0 c -0.099,-0.151 -0.618,-0.873 -0.963,-1.197 l 0,0 c -0.346,-0.324 -1.235,-1.721 -1.803,-2.844 l 0,0 c -0.568,-1.122 -0.962,-1.67 -1.382,-2.094 l 0,0 c -0.42,-0.424 -1.135,-1.522 -1.333,-1.946 l 0,0 c -0.197,-0.423 -0.445,-1.421 -0.642,-1.595 l 0,0 c -0.198,-0.175 -0.544,-0.661 -0.654,-0.998 l 0,0 c -0.111,-0.336 -0.445,-1.346 -0.629,-1.683 l 0,0 c -0.186,-0.337 -0.89,-1.496 -1.408,-2.207 l 0,0 c -0.518,-0.71 -0.408,-1.123 -0.37,-1.571 l 0,0 c 0.037,-0.449 0.444,-2.843 0.74,-4.115 l 0,0 c 0.297,-1.271 1.038,-4.713 1.185,-5.723 l 0,0 c 0.149,-1.009 0.667,-3.291 0.592,-3.965 l 0,0 c -0.073,-0.673 -1.11,-2.955 -2.296,-7.331 l 0,0 c -1.184,-4.376 -1.036,-6.845 -0.925,-8.342 l 0,0 c 0.076,-1.019 0.41,-3.794 0.614,-5.458 l 0,0 153.311,0 c -0.036,0.281 -0.063,0.526 -0.063,0.634 l 0,0 c 0,0.336 -0.037,1.457 0,1.832 l 0,0 c 0.037,0.374 -0.111,2.656 -0.111,3.105 l 0,0 c 0,0.448 -0.112,1.272 -0.149,1.721 l 0,0 c -0.037,0.448 -0.11,1.981 -0.037,2.431 l 0,0 c 0.074,0.449 -0.036,2.095 -0.185,2.768 l 0,0 c -0.148,0.673 -0.629,2.394 -0.814,3.404 l 0,0 c -0.186,1.01 -0.556,2.581 -0.556,3.104 l 0,0 c 0,0.524 -0.37,1.721 -0.518,2.17 l 0,0 c -0.149,0.449 -0.259,1.084 -0.371,3.142 l 0,0 c -0.111,2.057 -1.259,6.658 -1.333,7.069 l 0,0 c -0.074,0.412 -0.407,0.524 -0.777,0.637 l 0,0 c -0.37,0.112 -1.704,0.036 -1.704,0.036 l 0,0 c 0,0 -0.074,1.048 -0.296,2.096 l 0,0 c -0.223,1.047 -0.963,3.591 -1.444,5.423 l 0,0 c -0.481,1.833 -1.334,6.172 -1.926,8.566 l 0,0 c -0.592,2.394 -1.444,4.077 -1.629,4.414 l 0,0 c -0.185,0.336 -0.63,1.946 -0.889,2.805 l 0,0 c -0.259,0.86 -1.851,6.023 -2.111,6.771 l 0,0 c -0.259,0.748 -2.036,3.516 -2.814,4.975 l 0,0 c -0.777,1.459 -2.666,4.04 -3.11,4.563 l 0,0 c -0.445,0.524 -2.926,2.394 -3.629,2.843 l 0,0 c -0.704,0.449 -1.849,1.343 -1.849,1.343 l 0,0 -0.522,0.34 c 0,0 0.667,2.17 0.853,3.143 l 0,0 c 0.184,0.972 0.259,4.077 -0.112,5.012 l 0,0 c -0.37,0.935 -1.111,2.057 -2.259,2.918 l 0,0 c -1.147,0.86 -4.406,3.628 -5.406,4.488 l 0,0 c -1,0.86 -2.259,1.908 -2.259,1.908 l 0,0 c 0,0 1.481,2.094 2.073,2.805 l 0,0 c 0.593,0.711 3.593,4.526 4.371,5.574 l 0,0 c 0.777,1.047 2.221,3.815 2.592,4.601 l 0,0 c 0.37,0.785 1.184,3.441 1.333,4.264 l 0,0 c 0.148,0.823 0.37,2.282 0.481,2.842 l 0,0 c 0.111,0.562 0.37,2.17 0.519,2.956 l 0,0 c 0.147,0.786 0.333,2.057 0.37,3.366 l 0,0 c 0.036,1.309 0,3.74 -0.148,4.788 l 0,0 c -0.149,1.048 -0.05,0.524 -0.198,1.297 l 0,0 c -0.049,0.255 -0.42,1.271 -0.42,1.271 l 0,0 c 0,0 0.272,0.375 0.495,0.823 l 0,0 c 1.233,2.569 1.579,5.088 1.678,7.282 l 0,0 c 0.099,2.194 -0.173,3.342 -0.222,3.616 l 0,0 c -0.05,0.275 -0.778,0.275 -1.259,0.312 l 0,0 c -0.482,0.037 -2.186,-0.088 -2.186,-0.088 l 0,0 0,0.375 0,0.411 0.038,0.299 0.037,0.3 0.074,0.298 0.074,0.524 0,0.262 -0.111,0.898 0.185,0.673 0.074,0.486 -0.222,0.674 0.074,0.262 0.037,0.374 c 0,0 0.148,0.149 0,0.337 l 0,0 c -0.148,0.187 0.074,0.261 0.074,0.261 l 0,0 0,0.299 0,0.449 0,0.262 0,0.262 0.297,1.085 0.036,0.299 0.074,0.187 0.037,0.261 -0.074,0.338 0,0.411 0.186,1.123 -0.037,0.411 0.074,0.187 0.148,0.823 -0.222,0.486 0.147,0.262 -0.184,0.636 -0.038,0.411 0.185,0.15 c 0,0 -0.054,0.243 -0.036,0.336 l 0,0 c 0.019,0.094 0.092,0.075 0.388,0.113 l 0,0 c -0.129,0.056 -0.259,0.392 -0.222,0.523 l 0,0 c 0.037,0.131 0.13,0.094 0.13,0.094 l 0,0 c 0,0 0,0.093 -0.111,0.168 l 0,0 c -0.112,0.075 -0.074,0.262 -0.074,0.412 l 0,0 c 0,0.149 0.018,0.187 0.24,0.299 l 0,0 c -0.073,0.018 -0.203,0.261 -0.203,0.261 l 0,0 c 0,0 0,0.075 0.277,0.019 l 0,0 c -0.092,0.019 -0.24,0.299 -0.259,0.393 l 0,0 c -0.018,0.093 -0.055,0.28 -0.055,0.43 l 0,0 c 0,0.15 0.13,0.168 0.13,0.168 l 0,0 c 0,0 -0.075,0.057 -0.149,0.206 l 0,0 c -0.073,0.15 -0.037,0.337 -0.037,0.337 l 0,0 c 0,0 -0.073,0.374 -0.129,0.486 l 0,0 c -0.056,0.112 0.018,0.225 0.018,0.225 l 0,0 0.148,0.111 c 0,0 -0.129,0.188 -0.222,0.319 l 0,0 c -0.093,0.131 -0.149,0.28 -0.149,0.392 l 0,0 c 0,0.113 -0.054,0.225 -0.036,0.318 l 0,0 c 0.019,0.094 -0.037,0.356 -0.093,0.524 l 0,0 c -0.055,0.168 -0.426,0.505 -0.444,0.692 l 0,0 c -0.019,0.187 -0.019,0.187 0.241,0.356 l 0,0 c -0.037,0.074 -0.186,0.149 -0.334,0.168 l 0,0 c -0.148,0.019 -0.407,0.337 -0.462,0.449 l 0,0 c -0.056,0.112 -0.093,0.13 0.111,0.318 l 0,0 c -0.111,0.112 -0.315,0.206 -0.315,0.206 l 0,0 c 0,0 -0.278,0.075 -0.37,0.13 l 0,0 c -0.093,0.056 -0.056,0.281 0,0.412 l 0,0 c 0.056,0.131 -0.13,0.112 -0.13,0.112 l 0,0 c 0,0 -0.222,0.037 -0.315,0.056 l 0,0 c -0.093,0.019 -0.056,0.374 -0.019,0.468 l 0,0 c 0.038,0.093 -0.037,0.355 -0.037,0.355 l 0,0 c 0,0 -0.11,0 -0.221,-0.018 l 0,0 c -0.112,-0.019 -0.149,0.205 -0.149,0.336 l 0,0 c 0,0.131 -0.185,0.299 -0.185,0.299 l 0,0 -0.018,0.168 c 0,0 0.055,0.187 0.037,0.319 l 0,0 c -0.019,0.13 -0.037,0.392 -0.019,0.524 l 0,0 c 0.019,0.13 0.222,0.168 0.222,0.168 l 0,0 c 0,0 -0.11,0.13 -0.203,0.168 l 0,0 c -0.093,0.037 -0.186,0.262 -0.204,0.393 l 0,0 c -0.006,0.04 0.003,0.076 0.018,0.105 l 0,0 c -0.059,-0.051 -0.136,-0.097 -0.203,-0.068 l 0,0 c -0.13,0.056 -0.112,0.523 -0.112,0.636 l 0,0 c 0,0.112 0.223,0.112 0.223,0.112 l 0,0 c 0,0 -0.13,0.112 -0.223,0.112 l 0,0 c -0.092,0 -0.259,0.244 -0.296,0.355 l 0,0 c -0.037,0.113 0.186,0.132 0.186,0.132 l 0,0 c 0,0 -0.152,0.125 -0.371,0.205 l 0,0 c -0.815,0.3 -0.629,0.58 -0.629,0.58 l 0,0 c 0,0 0.037,0.15 0.111,0.244 l 0,0 c 0.037,0.074 -0.315,0.261 -0.315,0.261 l 0,0 c 0,0 -0.241,0.224 -0.407,0.337 l 0,0 c -0.167,0.112 -0.149,0.205 0.129,0.262 l 0,0 c -0.092,0.093 -0.611,0.224 -0.721,0.205 l 0,0 c -0.112,-0.019 -0.296,0.15 -0.426,0.243 l 0,0 c -0.13,0.094 -0.389,0.057 -0.464,0.057 l 0,0 c -0.073,0 -0.222,0.111 -0.314,0.149 l 0,0 c -0.092,0.038 0,0.187 -0.092,0.168 l 0,0 c -0.093,-0.018 -0.205,0.094 -0.26,0.169 l 0,0 c -0.055,0.075 0.074,0.168 0.074,0.168 l 0,0 c 0,0 -0.056,0.056 -0.203,0.132 l 0,0 c -0.149,0.074 -0.259,0.354 -0.259,0.429 l 0,0 c 0,0.075 -0.112,0.112 0.166,0.187 l 0,0 c -0.093,0.094 -0.352,0.15 -0.463,0.187 l 0,0 c -0.111,0.038 -0.241,0.393 -0.185,0.505 l 0,0 c 0.055,0.113 0.167,0.187 0.167,0.187 l 0,0 c 0,0 -0.296,-0.038 -0.389,0 l 0,0 c -0.093,0.038 0.074,0.206 0.074,0.206 l 0,0 c 0,0 0,0.018 -0.148,0 l 0,0 c -0.149,-0.019 -0.334,0.037 -0.334,0.037 l 0,0 -0.296,0.262 c 0,0 -0.037,0.337 -0.185,0.524 l 0,0 c -0.148,0.187 0.037,1.035 -0.111,1.11 l 0,0 c -0.149,0.074 -0.37,-0.524 -0.37,-0.524 l 0,0 c 0,0 -0.161,-0.087 -0.272,0.1 l 0,0 c -0.111,0.187 -0.321,0.773 -0.321,0.773 l 0,0 c 0,0 -0.333,0.112 -0.482,0.112 l 0,0 c -0.147,0 -0.259,0.262 -0.443,0.337 l 0,0 c -0.186,0.075 -0.704,0.224 -0.853,0.374 l 0,0 c -0.147,0.149 -0.592,0.598 -0.592,0.598 l 0,0 c 0,0 -0.605,0.573 -0.975,0.611 l 0,0 c -0.37,0.038 -0.765,1.197 -1.21,1.833 l 0,0 c -0.444,0.636 -2.333,-0.012 -2.333,-0.012 l 0,0 c 0,0 -0.592,0.448 -0.814,0.561 l 0,0 c -0.223,0.112 -0.629,0.449 -0.629,0.449 l 0,0 -0.741,0.336 -0.704,0.636 -0.704,-0.037 c 0,0 -0.629,0.336 -0.851,0.374 l 0,0 c -0.222,0.037 -0.704,0 -1.037,-0.038 l 0,0 c -0.334,-0.038 -0.889,-0.038 -0.889,-0.038 l 0,0 c 0,0 -0.37,0.262 -0.629,0.413 l 0,0 c -0.259,0.149 -0.556,0.373 -0.704,0.411 l 0,0 c -0.149,0.037 -0.778,-0.487 -0.963,-0.487 l 0,0 c -0.184,0 -0.407,0.15 -0.778,0.3 l 0,0 c -0.37,0.149 -0.629,-0.187 -0.629,-0.187 l 0,0 c 0,0 -0.444,0.112 -0.667,0.074 l 0,0 c -0.222,-0.037 -0.518,0.3 -0.703,0.412 l 0,0 c -0.185,0.112 -0.519,0.037 -0.778,-0.037 l 0,0 c -0.259,-0.075 -0.778,0.074 -0.925,0.187 l 0,0 c -0.149,0.111 -0.926,0.262 -0.926,0.262 l 0,0 c 0,0 -0.395,0.133 -0.702,0.133 l 0,0 c -0.154,0 -0.286,-0.033 -0.335,-0.133 m 29.235,-15.886 c 0.055,0.049 0.093,0.101 0.093,0.101 l 0,0 c 0,0 -0.061,-0.036 -0.093,-0.101"
         inkscape:connector-curvature="0" />
    </clipPath>
    <clipPath
       id="clipPath3197"
       clipPathUnits="userSpaceOnUse">
      <path
         id="path3199"
         d="m 226.27,203.89 c -0.688,-0.782 -1.867,-2.138 -2.733,-3.193 l 0,0 c -0.785,-0.957 -3.409,-4.383 -5.924,-7.629 l 0,0 c -2.517,-3.247 -8.874,-12.879 -11.716,-18.073 l 0,0 c -2.84,-5.195 -10.496,-21.211 -10.496,-21.211 l 0,0 c 0,0 -1.168,0.923 -2.409,0.947 l 0,0 c -1.433,0.027 -2.407,-0.622 -3.057,-0.622 l 0,0 c -0.649,0 -2.838,-0.074 -3.923,-0.677 l 0,0 c -1.217,-0.677 -2.246,-4.897 -2.246,-4.897 l 0,0 c 0,0 -3.246,0.676 -5.681,-0.054 l 0,0 c -2.435,-0.731 -2.995,-3.666 -2.995,-3.666 l 0,0 -26.63,1.218 0,-146.033 74.847,0 0.23,7.93 0.731,28.407 c 0,0 0.325,9.253 0.568,9.253 l 0,0 c 1.221,0 8.441,-6.086 9.415,-7.994 l 0,0 c 0.717,-1.403 2.07,-6.25 2.314,-7.63 l 0,0 c 0.243,-1.379 1.399,-6.769 1.786,-9.577 l 0,0 c 0.446,-3.247 2.759,-8.603 3.002,-11.12 l 0,0 c 0.244,-2.515 0.122,-4.87 0.365,-5.925 l 0,0 c 0.244,-1.054 2.03,-1.785 1.786,-2.11 l 0,0 C 243.408,1.105 243.318,0.62 243.249,0 l 0,0 84.847,0 c 0.157,0.926 0.554,2.398 0.632,3.71 l 0,0 c 0.026,0.444 0.933,1.541 1.177,3.044 l 0,0 c 0.185,1.146 0.162,3.205 0.243,3.692 l 0,0 c 0.081,0.487 0.446,1.664 0.69,1.624 l 0,0 C 331.204,12.009 333.63,5.339 335.426,0 l 0,0 27.115,0 c -0.937,2.605 -1.946,5.351 -2.532,7.168 l 0,0 c -0.975,3.018 -2.208,9.415 -2.208,9.415 l 0,0 c 0,0 0.349,0.629 0.178,1.614 l 0,0 c -0.129,0.747 -1.076,3.197 -0.763,5.041 l 0,0 c 0.172,1.011 -0.919,3.613 -1.168,4.74 l 0,0 c -0.369,1.663 -0.991,3.498 -1.226,4.57 l 0,0 c -0.268,1.219 -1.599,7.994 -1.696,8.352 l 0,0 c -0.097,0.357 -1.25,4.033 -1.51,6.209 l 0,0 c -0.26,2.175 1.55,11.249 -0.04,20.071 l 0,0 c -0.799,4.432 -2.452,8.247 -3.556,11.299 l 0,0 c -1.103,3.052 -3.513,6.509 -5.462,8.132 l 0,0 c -1.948,1.624 -8.197,4.83 -9.399,5.382 l 0,0 c -1.201,0.551 -6.266,2.702 -7.792,3.547 l 0,0 c -1.525,0.844 -7.856,4.74 -9.09,5.487 l 0,0 c -1.234,0.746 -3.88,1.98 -4.464,2.305 l 0,0 c -0.585,0.325 -1.333,0.912 -1.737,1.688 l 0,0 c -0.495,0.95 -1.08,1.364 -1.08,1.364 l 0,0 c 0,0 11.552,1.489 12.443,4.317 l 0,0 c 0.536,1.7 -0.049,4.513 0.082,5.584 l 0,0 c 0.129,1.072 1.671,2.387 1.801,3.361 l 0,0 c 0.13,0.974 0.057,1.891 -0.771,2.183 l 0,0 c -0.585,0.207 -1.274,0.828 -1.169,0.845 l 0,0 c 0.595,0.09 0.658,2.893 0.585,2.889 l 0,0 c 2.622,0.176 2.232,1.452 2.361,2.102 l 0,0 c 0.13,0.649 -0.072,3.198 -0.072,3.198 l 0,0 c 0,0 0.699,0.036 1.712,0.032 l 0,0 c 2.763,-0.008 3.56,1.509 3.669,2.549 l 0,0 c 0.263,2.519 -1.025,4.358 -1.267,4.951 l 0,0 c -0.324,0.795 -0.844,2.094 -1.233,2.84 l 0,0 c -0.39,0.747 -0.666,1.51 -1.251,2.679 l 0,0 c -0.584,1.169 -0.843,1.688 -1.006,2.013 l 0,0 c -0.162,0.325 -0.357,1.331 -0.357,1.331 l 0,0 0.228,0.032 1.038,-1.168 -0.454,0.617 -0.065,0.454 0.876,-0.162 -0.064,0.195 c 0,0 -0.13,0.324 0.129,0.324 l 0,0 c 0.26,0 0.487,0.227 0.228,0.227 l 0,0 c -0.26,0 -0.65,-0.065 -0.812,-0.065 l 0,0 c -0.162,0 -0.195,0.065 -0.325,0.13 l 0,0 c -0.129,0.066 -0.325,0.163 -0.389,0.293 l 0,0 c -0.065,0.129 0.357,0.325 0.357,0.325 l 0,0 c 0,0 -0.033,0.486 -0.194,0.648 l 0,0 c -0.163,0.163 -0.228,0.52 -0.261,0.845 l 0,0 c -0.032,0.324 -0.523,0.773 -0.487,0.819 l 0,0 c 0.694,0.911 1.469,1.673 1.226,2.76 l 0,0 c -0.113,0.507 -0.381,0.966 -0.381,0.966 l 0,0 c 0,0 -0.088,1.169 -0.317,1.785 l 0,0 c -0.597,1.608 -1.461,3.06 -1.851,4.197 l 0,0 c -0.389,1.137 -1.704,4.077 -2.134,5.219 l 0,0 c -0.845,2.24 -3.036,4.48 -3.036,4.48 l 0,0 0.097,0.487 c 0,0 0.163,0.293 0.325,0.487 l 0,0 c 0.163,0.194 0.097,0.39 0.065,0.617 l 0,0 c -0.033,0.227 0.65,1.477 0.714,1.607 l 0,0 c 0.065,0.13 0.203,0.252 0.334,0.511 l 0,0 c 0.129,0.26 0.673,0.285 0.283,0.414 l 0,0 c -0.39,0.13 -0.754,-0.495 -0.754,-0.495 l 0,0 c 0,0 0.04,0.788 -0.479,0.82 l 0,0 c -0.52,0.032 -1.169,-0.26 -1.169,-0.26 l 0,0 c 0,0 0.227,0.747 0.227,1.007 l 0,0 c 0,0.259 0.02,1.525 0.397,1.404 l 0,0 c 0.756,-0.244 0.545,0.219 0.545,0.836 l 0,0 c 0,0.617 -0.163,2.695 -0.553,3.701 l 0,0 c -0.389,1.006 -1.363,1.396 -1.655,1.883 l 0,0 c -0.292,0.487 -0.227,1.007 -0.52,1.461 l 0,0 c -0.292,0.455 -0.487,1.071 -1.525,2.013 l 0,0 c -1.039,0.941 -0.162,0.73 -2.014,2.548 l 0,0 c -2.051,2.015 -4.293,1.915 -5.543,1.815 l 0,0 c -0.626,-0.05 -1.003,-0.1 -0.982,0.117 l 0,0 c 0.043,0.43 -1.108,1.556 -1.713,2.127 l 0,0 c 0.337,-0.431 0.552,-1.045 0.635,-1.313 l 0,0 c -0.092,0.12 -0.279,0.333 -0.642,0.712 l 0,0 c -0.279,0.29 -1.362,0.392 -2.239,0.424 l 0,0 c 1.368,-0.141 1.986,-0.847 2.433,-1.463 l 0,0 c 0.519,-0.714 0.982,-2.63 0.714,-3.571 l 0,0 c -0.039,-0.14 -0.397,-0.341 -0.397,-0.341 l 0,0 -0.674,0.017 -0.211,-0.739 c 0,0 -0.56,0.154 -0.788,0.154 l 0,0 c -0.226,0 -0.357,0.243 -0.357,0.243 l 0,0 c 0,0 0.212,1.015 -0.632,3.417 l 0,0 c -0.845,2.403 -8.904,3.531 -5.69,2.914 l 0,0 c 3.214,-0.616 4.237,-3.295 4.399,-4.171 l 0,0 c 0.162,-0.877 0,-1.917 -0.13,-1.917 l 0,0 c -0.13,0 -0.519,-0.097 -0.779,-0.097 l 0,0 c -0.26,0 -0.682,-0.389 -0.682,-0.389 l 0,0 -1.299,1.006 c 0,0 -0.901,0.471 -1.257,0.601 l 0,0 c -0.358,0.13 -0.951,0.275 -1.34,0.309 l 0,0 c -0.389,0.032 -0.52,0.324 -0.52,0.324 l 0,0 c 0,0 -0.259,0.26 -0.389,0.357 l 0,0 c -0.13,0.097 -0.292,0 -0.552,-0.032 l 0,0 c -0.259,-0.033 -0.519,-0.065 -0.649,-0.033 l 0,0 c -0.13,0.033 -0.617,0.13 -0.941,0.097 l 0,0 c -0.325,-0.032 -0.942,-0.064 -0.942,-0.064 l 0,0 c 0,0 0,0.227 0.097,0.389 l 0,0 c 0.098,0.162 0.13,0.358 0.13,0.358 l 0,0 -0.292,0 c -0.163,0 -0.649,-0.131 -0.779,-0.163 l 0,0 c -0.13,-0.033 -0.553,-0.39 -0.682,-0.422 l 0,0 c -0.13,-0.033 -0.293,-0.065 -0.422,-0.065 l 0,0 c -0.13,0 -0.13,-0.162 -0.162,-0.357 l 0,0 c -0.033,-0.195 -0.163,-0.227 -0.358,-0.098 l 0,0 c -0.194,0.131 -0.162,0.131 -0.162,0.131 l 0,0 -0.414,0.186 -0.397,0.301 c 0,0 -0.196,0.04 -0.487,0.137 l 0,0 c -0.293,0.098 -0.715,0.122 -0.715,0.122 l 0,0 c 0,0 -0.649,-0.284 -1.266,0.105 l 0,0 c -0.617,0.39 -2.921,0.322 -3.809,-0.084 l 0,0 c -1.613,-0.735 -1.884,-2.358 -1.884,-2.358 l 0,0 -2.521,-0.033 c 0,0 -0.844,-0.217 -1.981,-0.639 l 0,0 c -1.135,-0.422 -2.402,-2.932 -2.564,-3.679 l 0,0 c -0.163,-0.747 -0.357,-1.493 -0.585,-1.721 l 0,0 c -0.226,-0.227 -0.627,-0.595 -1.602,-1.374 l 0,0 c -0.973,-0.78 -1.287,-0.736 -1.287,-0.736 l 0,0 c 0,0 -0.195,-0.033 -0.389,-0.098 l 0,0 c -0.196,-0.064 -0.26,-0.032 -0.455,-0.064 l 0,0 c -0.195,-0.033 -0.098,-0.13 -0.26,-0.39 l 0,0 c -0.162,-0.259 0.13,-0.649 0.032,-0.941 l 0,0 c -0.097,-0.293 -0.226,-0.206 -0.551,-0.238 l 0,0 c -0.325,-0.033 -0.433,0.043 -0.174,-0.444 l 0,0 c 0.26,-0.488 0.888,-1.169 1.115,-1.526 l 0,0 c 0.228,-0.357 -0.129,-0.325 -0.129,-0.325 l 0,0 -0.196,-0.292 -0.194,-0.325 c 0,0 -0.195,-0.129 -0.357,-0.129 l 0,0 c -0.162,0 -0.13,-0.163 -0.13,-0.163 l 0,0 c 0,0 -0.844,-0.487 -1.04,-0.552 l 0,0 c -0.194,-0.064 -0.356,-0.325 -0.713,-0.389 l 0,0 c -0.357,-0.065 -0.033,-0.942 -0.618,-1.332 l 0,0 c -0.584,-0.389 -0.876,-1.817 -0.876,-1.817 l 0,0 c 0,0 -0.487,0.097 -0.844,0.129 l 0,0 c -0.357,0.033 -1.266,-0.746 -1.688,-1.299 l 0,0 c -0.422,-0.551 -0.747,-0.616 -0.747,-0.616 l 0,0 -1.234,-0.909 c 0,0 1.331,0.747 2.013,0.714 l 0,0 c 0.682,-0.033 0.487,0.389 0.942,0.844 l 0,0 c 0.454,0.454 1.201,0.357 1.201,0.357 l 0,0 -0.065,-0.227 c 0,0 -0.357,-0.682 -0.422,-0.812 l 0,0 c -0.065,-0.129 -0.324,-0.195 -0.455,-0.292 l 0,0 c -0.13,-0.097 -0.389,0 -0.649,-0.13 l 0,0 c -0.26,-0.129 0,-0.682 0,-0.682 l 0,0 c 0,0 -2.365,-1.25 -4.642,-0.843 l 0,0 c -2.389,0.426 -3.511,2.055 -3.93,2.962 l 0,0 c 0,-0.003 10e-4,-0.006 0.002,-0.008 l 0,0 c 0.282,-1.148 1.785,-2.857 3.7,-3.311 l 0,0 c 1.916,-0.455 4.091,0.226 4.578,0.422 l 0,0 c 0.487,0.194 0.454,-0.13 -0.097,-0.422 l 0,0 c -1.44,-0.765 -0.757,-0.5 -1.657,-0.909 l 0,0 c -0.853,-0.39 -1.367,-1.16 -1.2,-1.04 l 0,0 c 1.071,0.779 2.208,1.104 2.208,1.104 l 0,0 c 0,0 -0.521,-0.585 -0.715,-0.876 l 0,0 c -0.194,-0.293 -0.13,-0.844 -0.13,-0.844 l 0,0 c 0,0 -0.292,-0.098 -0.649,-0.228 l 0,0 c -0.358,-0.13 -0.812,-0.065 -1.169,0.066 l 0,0 c -0.357,0.129 -1.039,0.388 -1.039,0.388 l 0,0 c 0,0 0.682,-0.454 0.941,-0.648 l 0,0 c 0.26,-0.195 0.845,-0.195 1.234,-0.195 l 0,0 c 0.39,0 0.455,-0.325 0.325,-0.553 l 0,0 c -0.046,-0.081 -0.047,-0.048 -0.078,-0.016 l 0,0 c -0.056,0.06 -0.213,0.119 -0.928,-0.503 l 0,0 c -0.747,-0.649 -0.812,-1.461 -0.487,-1.753 l 0,0 c 0.324,-0.293 0.065,0.13 0.162,0.519 l 0,0 c 0.053,0.212 0.325,0.65 0.325,0.65 l 0,0 c 0,0 0.422,0.39 0.584,0.39 l 0,0 c 0.162,0 0.454,0.162 0.487,-0.325 l 0,0 c 0.032,-0.487 -0.227,-0.422 -0.487,-0.78 l 0,0 c -0.26,-0.357 -0.39,-0.324 -0.39,-0.324 l 0,0 -0.357,-0.52 c 0,0 -0.292,-0.097 -0.39,-0.324 l 0,0 c -0.097,-0.227 0.066,-0.454 0.131,-0.617 l 0,0 c 0.065,-0.162 -0.301,-0.665 -0.301,-0.665 l 0,0 0.285,-0.204 0.243,-0.365 c 0,0 0.04,0 0.162,-0.162 l 0,0 c 0.122,-0.162 0.243,-0.284 0.243,-0.284 l 0,0 c 0,0 0.204,-0.243 0.162,-0.528 l 0,0 c -0.04,-0.283 -0.324,-0.731 -0.324,-0.731 l 0,0 -0.122,-0.811 c 0,0 0.244,-0.609 0.082,-0.852 l 0,0 c -0.163,-0.244 -0.082,-0.487 -0.082,-0.487 l 0,0 0.122,-0.569 0.081,-0.608 -0.162,-0.244 c 0,0 0.122,-0.324 0.162,-0.527 l 0,0 c 0.041,-0.203 0.081,-0.528 0.081,-0.528 l 0,0 0.325,-0.487 0.081,-0.486 0.081,-0.325 0.163,-0.406 -0.244,-0.406 -0.121,-0.568 0.446,-0.365 0.325,-0.447 c 0,0 0.324,-1.055 0.324,-1.299 l 0,0 0,-0.729 c 0,-0.325 0.081,-0.65 0.163,-1.016 l 0,0 c 0.081,-0.365 0.162,-0.365 0.406,-0.608 l 0,0 c 0.243,-0.244 0.202,-0.568 0.202,-0.568 l 0,0 c 0,0 0.325,-0.771 0.366,-0.975 l 0,0 c 0.04,-0.202 0.283,-0.446 0.446,-0.811 l 0,0 c 0.162,-0.365 0.853,-0.947 0.934,-1.352 l 0,0 c 0.081,-0.406 0.243,-1.408 0.243,-1.651 l 0,0 c 0,-0.244 0.081,-0.446 0.324,-1.096 l 0,0 c 0.244,-0.649 0.691,-0.974 0.934,-1.542 l 0,0 c 0.244,-0.568 0.04,-0.609 0.203,-1.136 l 0,0 c 0.103,-0.333 0.366,-0.366 0.649,-0.73 l 0,0 c 0.182,-0.233 -0.202,-0.934 0.446,-1.908 l 0,0 c 0.286,-0.427 0,-1.096 0.487,-1.988 l 0,0 c 0.228,-0.418 0.366,-1.907 0.853,-2.76 l 0,0 c 0.332,-0.581 -0.068,-1.19 0.676,-2.611 l 0,0 c 0.121,-0.231 0.165,0.089 0.203,0.41 l 0,0 c 0.033,0.283 0.062,0.567 0.136,0.47 l 0,0 c 0.243,-0.325 0.324,-1.232 1.136,-1.84 l 0,0 c 0.811,-0.609 1.989,-0.296 1.989,-0.569 l 0,0 c 0,-0.04 -0.068,-0.743 -0.027,-1.312 l 0,0 c 0.046,-0.653 -0.161,-3.733 -0.406,-5.045 l 0,0 c -0.244,-1.299 -0.826,-2.246 -0.826,-2.246 l 0,0 c 0,0 0.162,0.487 -0.243,0.122 l 0,0 c -0.406,-0.366 -0.609,-1.421 -0.771,-1.989 l 0,0 c -0.163,-0.568 -0.244,-0.771 -0.244,-0.771 l 0,0 -0.893,-0.163 -0.324,-1.055 c 0,0 -0.325,-0.27 -0.649,-0.27 l 0,0 c -0.325,0 -0.596,-0.351 -1.407,-0.865 l 0,0 c -0.536,-0.34 -1.597,-0.812 -1.597,-0.812 l 0,0 c 0,0 -0.513,-0.027 -0.838,0.135 l 0,0 c -0.325,0.162 -1.164,-0.217 -1.109,-0.298 l 0,0 c 0.225,-0.338 -0.921,-0.351 -0.921,-0.351 l 0,0 c 0,0 -0.514,-0.515 -0.92,-0.515 l 0,0 c -0.406,0 -1.001,-0.351 -2.624,-0.595 l 0,0 c -1.623,-0.244 -3.38,-0.441 -5.817,-1.163 l 0,0 c -3.764,-1.116 -7.575,-2.733 -8.143,-3.058 l 0,0 c -0.568,-0.324 -2.354,-1.135 -3.003,-1.379 l 0,0 c -0.649,-0.243 -2.679,-1.461 -3.491,-2.029 l 0,0 c -0.811,-0.569 -3.408,-1.38 -3.408,-1.38 l 0,0 -7.088,-0.163 1.649,49.755 0.866,26.162 c 0,0 1.174,26.448 1.218,27.353 l 0,0 c 0.081,1.677 -0.649,3.138 -1.407,3.435 l 0,0 c -0.274,0.108 -0.508,0.155 -0.71,0.155 l 0,0 c -0.969,0 -1.203,-1.08 -1.698,-1.642 m 78.319,-12.056 c 0,0 -0.013,0.05 -0.039,0.132 l 0,0 c 0.092,-0.119 0.088,-0.143 0.07,-0.143 l 0,0 c -0.012,0 -0.031,0.011 -0.031,0.011 m -0.674,1.445 c -0.082,0.106 -0.171,0.199 -0.268,0.276 l 0,0 c -0.059,0.047 -0.089,0.068 -0.092,0.068 l 0,0 c -0.009,0 0.138,-0.135 0.36,-0.344 m -2.962,-0.154 c -0.097,-0.004 -0.178,-0.007 -0.245,-0.008 l 0,0 c 0.219,0.001 0.57,0 0.961,-0.015 l 0,0 c -0.16,0.017 -0.331,0.026 -0.513,0.026 l 0,0 c -0.066,0 -0.134,-10e-4 -0.203,-0.003"
         inkscape:connector-curvature="0" />
    </clipPath>
    <clipPath
       id="clipPath3185"
       clipPathUnits="userSpaceOnUse">
      <path
         id="path3187"
         d="m 475.083,709.871 c -0.113,-0.157 -0.407,-0.428 -0.497,-0.586 l 0,0 c -0.09,-0.158 -0.18,-0.406 -0.316,-0.519 l 0,0 c -0.135,-0.113 -0.383,-0.226 -0.496,-0.474 l 0,0 c -0.113,-0.249 -0.316,-0.903 -0.451,-0.97 l 0,0 c -0.135,-0.068 -1.682,-0.429 -2.742,-0.79 l 0,0 c -1.06,-0.361 -4.346,-1.674 -5.358,-2.019 l 0,0 c -1.818,-0.621 -4.194,-2.546 -5.077,-2.968 l 0,0 c -1.253,-0.597 -5.303,-2.177 -6.612,-2.786 l 0,0 c -1.308,-0.609 -3.746,-1.771 -5.212,-2.516 l 0,0 c -1.413,-0.718 -4.064,-2.123 -4.569,-2.448 l 0,0 c -0.193,-0.125 -0.497,-0.114 -0.809,-0.103 l 0,0 c -0.391,0.013 -0.795,0.026 -1.007,-0.224 l 0,0 c -0.384,-0.452 -0.835,-0.858 -1.106,-1.377 l 0,0 c -0.271,-0.518 -1.151,-2.414 -1.445,-2.866 l 0,0 c -0.292,-0.451 -1.692,-2.075 -2.21,-3.519 l 0,0 c -0.519,-1.444 -1.817,-5.032 -1.997,-5.416 l 0,0 c -0.181,-0.383 -0.745,-2.064 -1.151,-3.102 l 0,0 c -0.406,-1.038 -0.61,-2.087 -0.914,-3.148 l 0,0 c -0.274,-0.954 -0.429,-1.534 -0.271,-1.963 l 0,0 c 0.158,-0.429 0.068,-0.914 0.068,-1.162 l 0,0 c 0,-0.248 0.214,-0.542 0.44,-0.744 l 0,0 c 0.226,-0.204 -0.113,-0.677 0.304,-1.197 l 0,0 c 0.193,-0.239 0.542,-0.835 0.519,-1.151 l 0,0 c -0.022,-0.315 0.102,-0.744 -0.417,-0.766 l 0,0 c -0.519,-0.023 -0.665,-0.035 -1.072,-0.215 l 0,0 c -0.406,-0.181 -0.62,-0.417 -0.936,-0.598 l 0,0 c -0.316,-0.18 -0.485,-0.665 -0.711,-0.801 l 0,0 c -0.225,-0.135 -0.812,-0.349 -0.857,-0.733 l 0,0 c -0.046,-0.384 0.09,-0.519 0.316,-0.835 l 0,0 c 0.225,-0.316 0.09,-0.214 0.496,-0.44 l 0,0 c 0.406,-0.226 0.592,-0.473 0.993,-0.542 l 0,0 c 0.992,-0.169 1.151,0.069 1.151,0.069 l 0,0 c 0,0 -0.192,-0.463 -0.35,-0.644 l 0,0 c -0.158,-0.18 -0.655,-0.858 -0.722,-1.105 l 0,0 c -0.068,-0.249 -0.575,-1.253 -0.756,-1.524 l 0,0 c -0.18,-0.271 -0.485,-0.71 -0.711,-1.026 l 0,0 c -0.225,-0.316 -0.496,-0.688 -0.835,-1.185 l 0,0 c -0.338,-0.496 -0.643,-1.264 -0.801,-1.58 l 0,0 c -0.158,-0.316 -0.541,-1.184 -0.699,-1.5 l 0,0 c -0.158,-0.316 -0.147,-1.015 -0.192,-1.421 l 0,0 c -0.045,-0.406 0.169,-1.298 0.192,-1.794 l 0,0 c 0.023,-0.497 -0.169,-1.308 -0.305,-1.534 l 0,0 c -0.135,-0.226 -0.609,-1.535 -0.789,-1.806 l 0,0 c -0.181,-0.27 -0.238,-0.609 -0.373,-0.789 l 0,0 c -0.135,-0.181 -0.203,-0.654 -0.406,-0.745 l 0,0 c -0.203,-0.09 -0.598,-0.192 -0.688,-0.508 l 0,0 c -0.09,-0.316 -0.282,-0.462 -0.35,-0.552 l 0,0 c -0.068,-0.09 -0.355,-0.449 -0.485,-0.722 l 0,0 c -0.225,-0.474 -0.463,-0.892 -0.531,-1.208 l 0,0 c -0.067,-0.316 -0.428,-0.823 -0.428,-0.823 l 0,0 c 0,0 -0.136,-0.665 -0.226,-1.05 l 0,0 c -0.09,-0.383 -0.327,-1.037 -0.349,-1.308 l 0,0 c -0.023,-0.27 -0.124,-1.083 -0.124,-1.332 l 0,0 c 0,-0.248 -0.034,-0.936 0.011,-1.206 l 0,0 c 0.045,-0.271 0.214,-0.779 0.26,-1.05 l 0,0 c 0.045,-0.271 0.292,-0.53 0.406,-0.778 l 0,0 c 0.112,-0.249 0.236,-0.485 0.259,-0.643 l 0,0 c 0.022,-0.158 0.057,-0.508 0.101,-0.778 l 0,0 c 0.046,-0.271 0.249,-0.903 0.339,-1.242 l 0,0 c 0.09,-0.338 0.388,-0.986 0.587,-1.275 l 0,0 c 0.326,-0.473 0.801,-1.533 1.049,-1.85 l 0,0 c 0.248,-0.316 0.993,-1.635 1.173,-1.884 l 0,0 c 0.181,-0.248 1.658,-1.636 1.952,-1.861 l 0,0 c 0.293,-0.226 1.027,-0.948 1.252,-1.039 l 0,0 c 0.226,-0.09 1.218,-0.891 1.512,-1.071 l 0,0 c 0.293,-0.181 0.372,-0.632 0.756,-0.857 l 0,0 c 0.383,-0.226 0.677,-0.328 1.218,-0.644 l 0,0 c 0.542,-0.316 0.981,-0.575 0.981,-0.575 l 0,0 c 0,0 0.261,-0.304 0.599,-0.44 l 0,0 c 0.338,-0.135 0.316,-0.18 0.834,-0.339 l 0,0 c 0.519,-0.157 0.609,-0.326 0.925,-0.552 l 0,0 c 0.316,-0.226 0.993,-0.361 1.4,-0.474 l 0,0 c 0.406,-0.113 1.105,-0.203 1.376,-0.135 l 0,0 c 0.271,0.067 1.918,0.496 2.324,0.676 l 0,0 c 0.407,0.181 0.857,0.475 0.857,0.475 l 0,0 c 0,0 0.271,0.27 0.767,0.27 l 0,0 c 0.497,0 0.745,0.091 0.745,0.091 l 0,0 72.972,0 0,88.407 -42.488,0.29 c 0,0 -0.181,-0.292 -0.293,-0.451"
         inkscape:connector-curvature="0" />
    </clipPath>
    <clipPath
       id="clipPath3173"
       clipPathUnits="userSpaceOnUse">
      <path
         id="path3175"
         d="m 168.482,774 c -0.304,-7.071 -0.939,-18.945 -1.164,-20.04 l 0,0 c -0.276,-1.348 -1.87,-12.481 -3.382,-15.602 l 0,0 c -1.545,-3.184 -11.291,-19.051 -13.254,-23.402 l 0,0 c -6.88,-15.247 -10.246,-62.253 -10.286,-64.25 l 0,0 c -0.115,-5.768 -3.014,-8.416 -3.59,-11.417 l 0,0 c -0.282,-1.476 -0.183,-5.626 -0.529,-6.903 l 0,0 c -0.345,-1.276 -2.623,-6.004 -2.485,-7.635 l 0,0 c 0.139,-1.631 0.577,-3.818 1.634,-4.681 l 0,0 c 0.824,-0.672 0.605,-5.853 2.623,-6.382 l 0,0 c 2.752,-0.721 5.845,-1.726 7.271,-1.963 l 0,0 c 0.993,-0.163 6.121,-0.732 9.366,-0.661 l 0,0 c 3.244,0.071 9.082,0.399 10.423,1.017 l 0,0 c 1.08,0.497 1.358,1.725 1.358,2.292 l 0,0 c 0,0.568 -0.695,2.296 -0.852,2.766 l 0,0 c -0.276,0.827 0.041,2.804 -1.587,5.011 l 0,0 c -1.082,1.466 -2.548,1.467 -3.752,2.412 l 0,0 c -1.656,1.3 -5.039,6.43 -5.039,7.068 l 0,0 c 0,0.638 -0.068,1.488 -0.068,1.488 l 0,0 c 0,0 0.517,0.32 0.552,1.029 l 0,0 c 0.035,0.709 -0.345,1.029 -0.345,1.17 l 0,0 c 0,0.142 0.068,0.142 0.138,0.461 l 0,0 c 0.069,0.319 0.242,0.923 0.137,1.241 l 0,0 c -0.103,0.32 -0.356,0.686 -0.356,0.686 l 0,0 c 0,0 0.403,0.733 0.403,0.981 l 0,0 c 0,0.248 -0.686,4.909 0.311,8.108 l 0,0 c 0.037,0.122 23.362,0.097 23.021,0.071 l 0,0 c 0.16,0.012 0.625,-6.949 5.89,-13.593 l 0,0 c 5.711,-7.204 13.577,-13.888 41.2,-13.414 l 0,0 c 24.123,0.412 33.703,5.446 40.831,14.395 l 0,0 c 3.865,4.853 5.222,11.498 5.569,12.765 l 0,0 c 0.076,0.277 20.248,0.426 20.248,0.426 l 0,0 c 0,0 0.185,-0.52 0.276,-1.04 l 0,0 c 0.092,-0.52 0.277,-1.938 0.277,-2.648 l 0,0 c 0,-0.709 0.092,-1.607 0.183,-1.938 l 0,0 c 0.093,-0.331 0.139,-0.804 0.139,-1.041 l 0,0 c 0,-0.235 0.092,-0.803 0.092,-0.992 l 0,0 c 0,-0.189 -0.232,-0.652 -0.184,-0.993 l 0,0 c 0.092,-0.661 0.46,-0.709 0.46,-1.04 l 0,0 c 0,-0.331 0.092,-1.04 0.092,-1.04 l 0,0 c 0,0 -0.322,-0.189 -0.322,-0.946 l 0,0 c 0,-0.756 0.69,-1.465 0.69,-1.465 l 0,0 c 0,0 -0.276,-0.615 -0.184,-1.04 l 0,0 c 0.092,-0.426 0.23,-0.756 0.23,-0.756 l 0,0 0.322,-0.474 c 0,0 -0.736,-1.513 -0.92,-2.033 l 0,0 c -0.184,-0.519 -0.644,-1.748 -0.875,-2.269 l 0,0 c -0.23,-0.52 -0.92,-1.702 -1.702,-2.174 l 0,0 c -0.782,-0.474 -2.255,-1.229 -2.807,-2.459 l 0,0 c -0.553,-1.229 -0.599,-1.985 -0.691,-3.546 l 0,0 c -0.091,-1.56 -0.046,-2.317 0.277,-2.695 l 0,0 c 0.322,-0.378 0.368,-1.418 1.058,-2.363 l 0,0 c 0.69,-0.946 0.585,-1.751 4.418,-1.797 l 0,0 c 3.957,-0.047 7.874,0.119 10.446,0.284 l 0,0 c 2.209,0.141 5.361,0.24 6.857,0.567 l 0,0 c 1.199,0.263 2.355,1.376 3.406,1.75 l 0,0 c 1.431,0.507 3.451,1.863 2.715,6.287 l 0,0 c -0.322,1.939 -0.783,2.175 -0.783,2.695 l 0,0 c 0,0.52 0.093,1.324 -0.183,3.168 l 0,0 c -0.276,1.844 -1.914,2.834 -2.9,5.248 l 0,0 c -1.564,3.829 -1.288,7.705 -1.518,8.887 l 0,0 c -0.231,1.183 -2.439,6.099 -2.485,6.477 l 0,0 c -0.046,0.378 -0.806,2.435 -1.013,4.563 l 0,0 c -0.207,2.127 -0.958,13.328 -1.38,17.445 l 0,0 c -0.484,4.709 -2.21,15.035 -3.038,19.644 l 0,0 c -0.828,4.609 -3.314,17.729 -6.143,24.466 l 0,0 c -2.831,6.737 -11.321,18.296 -13.392,23.686 l 0,0 c -2.071,5.389 -6.144,19.501 -6.489,29.501 l 0,0 c -0.073,2.108 -0.142,4.374 -0.207,6.637 l 0,0 -109.008,0 z"
         inkscape:connector-curvature="0" />
    </clipPath>
    <clipPath
       id="clipPath3161"
       clipPathUnits="userSpaceOnUse">
      <path
         id="path3163"
         d="m 0.5,155.912 147.96,0 0,77.665 c -48.627,5.13 -115.704,10.111 -138.124,12.795 l 0,0 c -2.604,0.313 -5.949,0.774 -9.836,1.34 l 0,0 0,-91.8 z"
         inkscape:connector-curvature="0" />
    </clipPath>
    <clipPath
       id="clipPath3149"
       clipPathUnits="userSpaceOnUse">
      <path
         id="path3151"
         d="m 429.283,463.352 c -0.79,-1.845 -1.436,-3.665 -1.781,-5.294 l 0,0 c -0.756,-3.56 -2.481,-8.729 -1.591,-10.809 l 0,0 c 0.892,-2.081 0.947,-9.626 0.947,-9.626 l 0,0 0,-5.052 c 0,0 -3.269,-1.784 -4.756,-4.162 l 0,0 c -1.486,-2.379 -2.675,-12.485 -4.162,-15.16 l 0,0 c -1.486,-2.675 -6.242,-8.027 -5.647,-10.108 l 0,0 c 0.594,-2.08 0.594,-11.295 0.594,-13.97 l 0,0 c 0,-2.676 -0.646,-11.23 2.533,-16.315 l 0,0 c 1.098,-1.342 3.981,-3.304 6.359,-5.087 l 0,0 c 2.378,-1.784 9.966,-6.607 16.374,-10.404 l 0,0 c 5.747,-3.405 12.875,-8.036 12.875,-8.036 l 0,0 c 0,0 1.23,-3.303 0.635,-5.087 l 0,0 c -0.594,-1.783 -9.284,-17.938 -11.429,-28.791 l 0,0 c -0.328,-1.657 -0.692,-3.546 -1.075,-5.552 l 0,0 154.841,0 0,153.453 -164.717,0 z"
         inkscape:connector-curvature="0" />
    </clipPath>
    <clipPath
       id="clipPath3137"
       clipPathUnits="userSpaceOnUse">
      <path
         id="path3139"
         d="m 148.46,774.001 149.041,0 0,-155.849 -149.041,0 0,155.849 z"
         inkscape:connector-curvature="0" />
    </clipPath>
    <clipPath
       id="clipPath3107"
       clipPathUnits="userSpaceOnUse">
      <path
         id="path3109"
         d="m 148.46,0 149.04,0 0,155.912 -149.04,0 0,-155.912 z"
         inkscape:connector-curvature="0" />
    </clipPath>
    <clipPath
       id="clipPath3095"
       clipPathUnits="userSpaceOnUse">
      <path
         id="path3097"
         d="m 445.1,618.152 148.9,0 0,155.848 -148.9,0 0,-155.848 z"
         inkscape:connector-curvature="0" />
    </clipPath>
    <clipPath
       id="clipPath3077"
       clipPathUnits="userSpaceOnUse">
      <path
         id="path3079"
         d="m 377.16,629.219 c -0.592,-0.237 -3.453,-1.357 -3.631,-1.362 l 0,0 c -1.301,-0.031 -3.494,-1.204 -6.297,-2.743 l 0,0 c -1.611,-0.886 -4.736,-3.268 -7.162,-5.647 l 0,0 c -1.793,-1.758 -3.179,-3.644 -3.455,-3.945 l 0,0 c -1.632,-1.783 -3.166,-4.012 -4.367,-6.422 l 0,0 c -2.604,-5.228 -4.165,-11.094 -4.633,-12.899 l 0,0 c -0.701,-2.707 -1.725,-11.506 -1.795,-13.994 l 0,0 c -0.042,-1.43 0.053,-6.514 0.118,-6.808 l 0,0 c 0.039,-0.178 -1.603,-0.921 -2.25,-3.079 l 0,0 c -0.448,-1.491 0.335,-3.096 0.296,-4.184 l 0,0 c -0.039,-1.065 -0.099,-2.546 0.198,-3.967 l 0,0 c 0.226,-1.088 1.638,-3.632 1.756,-5.211 l 0,0 c 0.065,-0.873 0.118,-2.624 0.236,-3.572 l 0,0 c 0.119,-0.947 0.395,-1.756 0.415,-2.072 l 0,0 c 0.059,-0.945 -0.336,-1.638 -0.02,-2.901 l 0,0 c 0.197,-0.789 0.632,-1.302 1.007,-1.717 l 0,0 c 0.308,-0.341 0.908,-0.947 1.243,-1.342 l 0,0 c 0.219,-0.258 0.75,-0.573 0.75,-0.573 l 0,0 c 0,0 -0.612,-0.552 -0.592,-1.164 l 0,0 c 0.015,-0.48 0.288,-0.655 0.256,-0.71 l 0,0 c -0.333,-0.601 -0.058,-1.501 -0.058,-1.501 l 0,0 c 0,0 -0.474,-0.236 -0.494,-0.67 l 0,0 c -0.022,-0.477 0.337,-0.704 0.316,-0.79 l 0,0 c -0.852,-3.46 -0.474,-12.335 -0.395,-14.96 l 0,0 c 0.067,-2.21 0.651,-8.013 0.651,-8.013 l 0,0 c 0,0 -0.829,-0.197 -1.282,-0.276 l 0,0 c -0.369,-0.064 -7.007,-1.085 -9.434,-1.638 l 0,0 c -1.662,-0.378 -4.56,-1.441 -4.56,-1.441 l 0,0 c 0,0 -0.276,0.257 -1.302,-0.138 l 0,0 c -1.026,-0.395 -1.421,-1.085 -1.421,-1.085 l 0,0 c 0,0 -0.709,1.415 -1.184,1.322 l 0,0 c -0.257,-0.05 -0.579,0.737 -2.467,0.928 l 0,0 c -3.71,0.374 -4.481,-2.389 -5.408,-2.389 l 0,0 c -0.402,0 -4.577,1.097 -5.684,1.066 l 0,0 c -1.561,-0.042 -3.768,-0.446 -4.322,-0.69 l 0,0 c -0.307,-0.136 -1.441,-0.257 -2.526,-0.376 l 0,0 c -0.863,-0.093 -2.388,-0.452 -3.947,-1.203 l 0,0 c -1.066,-0.514 -2.769,0.176 -8.349,-4.106 l 0,0 c -7.06,-5.417 -10.894,-11.762 -12.63,-14.308 l 0,0 c -1.718,-2.517 -6.573,-10.835 -10.441,-17.94 l 0,0 c -2.968,-5.45 -5.539,-11.038 -6.577,-13.347 l 0,0 177.381,0 0,44.648 c -0.065,0.064 -0.141,0.183 -0.265,0.277 l 0,0 c -0.159,0.118 -0.276,0.137 -0.276,0.137 l 0,0 c 0,0 -0.277,0.237 -0.435,0.297 l 0,0 c -0.158,0.059 -0.671,0.375 -0.671,0.375 l 0,0 -0.276,0.138 -0.197,0.079 -0.099,0.099 c 0,0 -0.177,0.157 -0.316,0.177 l 0,0 c -0.138,0.02 -0.217,0 -0.336,0 l 0,0 c -0.118,0 -0.186,0.09 -0.256,0.02 l 0,0 c -0.02,-0.02 -0.04,0.316 -0.04,0.316 l 0,0 c 0,0 0.099,0.137 -0.256,0.434 l 0,0 c -0.355,0.296 -0.809,-0.04 -0.809,-0.04 l 0,0 -0.06,0.079 -0.137,0.079 c 0,0 -0.277,0.237 -0.533,0.316 l 0,0 c -0.257,0.079 -0.77,-0.198 -0.77,-0.198 l 0,0 -0.256,0.099 c 0,0 0.394,0 0.335,0.493 l 0,0 c -0.008,0.06 -0.099,0.553 -0.671,0.553 l 0,0 c -0.77,0 -0.652,-0.75 -0.652,-0.75 l 0,0 -0.236,0.107 -0.533,0 c -0.237,0 -0.809,-0.375 -0.809,-0.375 l 0,0 c 0,0 -0.02,0.533 -0.612,0.395 l 0,0 c -0.42,-0.098 -0.217,-0.659 -0.217,-0.659 l 0,0 c 0,0 -0.119,-0.04 -0.217,-0.06 l 0,0 c -0.099,-0.02 -0.238,-0.079 -0.355,-0.157 l 0,0 c -0.119,-0.08 -0.513,-0.159 -0.692,-0.237 l 0,0 c -0.177,-0.079 -1.459,-0.395 -1.459,-0.395 l 0,0 c 0,0 0.157,0.237 0.098,0.572 l 0,0 c -0.028,0.157 -0.197,0.434 -0.553,0.434 l 0,0 c -0.355,0 -0.535,-0.2 -0.572,-0.473 l 0,0 c -0.079,-0.574 0.415,-0.612 0.335,-0.612 l 0,0 c -0.079,0 -1.026,-0.079 -1.262,-0.118 l 0,0 c -0.238,-0.04 -0.809,-0.296 -0.948,-0.296 l 0,0 c -0.139,0 -0.75,-0.139 -0.75,-0.139 l 0,0 c 0,0 -0.138,0.435 -0.731,0.395 l 0,0 c -0.592,-0.039 -0.493,-0.711 -0.572,-0.711 l 0,0 c -0.078,0 -0.611,-0.098 -0.849,-0.118 l 0,0 c -0.236,-0.02 -1.065,-0.415 -1.065,-0.335 l 0,0 c 0,0.079 -0.257,0.276 -0.671,0.395 l 0,0 c -0.415,0.118 -5.506,3.413 -6.177,3.888 l 0,0 c -0.672,0.473 -3.139,2.604 -3.139,2.604 l 0,0 c 0,0 0.04,0.217 -0.098,0.356 l 0,0 c -0.138,0.137 -0.415,0.137 -0.415,0.137 l 0,0 0,0.139 c 0,0.079 0.139,0.197 0.139,0.197 l 0,0 c 0,0 0.098,0.217 -0.04,0.395 l 0,0 c -0.138,0.178 -0.315,0.06 -0.315,0.06 l 0,0 -0.198,0.058 -0.039,0.139 0.098,0.118 c 0,0 0.02,0.099 -0.059,0.217 l 0,0 c -0.079,0.118 -0.079,0.178 -0.079,0.178 l 0,0 -0.197,0.217 -0.198,0 c 0,0 -0.058,0.039 -0.118,0.138 l 0,0 c -0.059,0.098 -0.02,0.296 -0.099,0.434 l 0,0 c -0.079,0.139 -0.316,0.217 -0.316,0.217 l 0,0 c 0,0 -0.078,0.454 -0.137,0.592 l 0,0 c -0.06,0.139 -0.257,0.809 -0.395,1.481 l 0,0 c -0.138,0.671 -0.178,5.348 -0.158,5.842 l 0,0 c 0.02,0.493 -0.178,4.519 -0.217,4.953 l 0,0 c -0.039,0.434 0.019,3.75 0.078,3.987 l 0,0 c 0.079,0.312 3.132,3.791 4.067,6.433 l 0,0 c 0.521,1.476 1.972,5.329 2.052,5.309 l 0,0 c 0.079,-0.019 0.557,-0.326 0.749,-0.433 l 0,0 c 0.349,-0.194 0.83,-0.217 0.83,-0.217 l 0,0 c 0,0 -0.303,-0.31 -0.343,-0.507 l 0,0 c -0.039,-0.197 0.007,-0.322 0.007,-0.322 l 0,0 c 0,0 -0.224,-0.224 -0.361,-0.52 l 0,0 c -0.139,-0.296 -0.073,-0.625 -0.073,-0.625 l 0,0 c 0,0 -0.197,-0.415 -0.118,-0.632 l 0,0 c 0.078,-0.217 0.138,-0.493 0.138,-0.493 l 0,0 c 0,0 0,-0.099 0.019,-0.197 l 0,0 c 0.02,-0.099 0.217,-0.356 0.217,-0.356 l 0,0 c 0,0 -0.122,-1.437 -0.177,-2.427 l 0,0 c -0.099,-1.776 -0.04,-1.717 -0.04,-4.125 l 0,0 c 0,-0.77 0.197,-3.177 0.217,-3.355 l 0,0 c 0.02,-0.178 0.277,-3.967 0.257,-4.263 l 0,0 c -0.019,-0.296 0.079,-1.285 0.159,-2.111 l 0,0 c 0.085,-0.868 0.113,-3.031 0.113,-3.031 l 0,0 c 0,0 -0.023,-4.924 -0.031,-5.192 l 0,0 c -0.008,-0.268 -0.067,-3.586 -0.035,-4.196 l 0,0 c 0.001,-0.025 -0.19,-0.063 -0.277,-0.094 l 0,0 c -0.087,-0.032 -0.296,-0.119 -0.257,-0.367 l 0,0 c 0.014,-0.08 0.253,-0.324 0.253,-0.395 l 0,0 c 0,-0.071 0.091,-0.375 0.248,-0.466 l 0,0 c 0.045,-0.025 0.652,-0.008 0.778,0.016 l 0,0 c 0.127,0.023 0.127,0.6 0.103,0.845 l 0,0 c -0.024,0.245 -0.375,0.379 -0.399,0.45 l 0,0 c -0.023,0.071 -0.02,0.95 -0.012,1.369 l 0,0 c 0.016,0.774 0.076,1.204 0.068,1.63 l 0,0 c -0.008,0.427 -0.028,1.145 -0.052,1.453 l 0,0 c -0.023,0.308 -0.036,0.75 -0.036,0.75 l 0,0 c 0,0 0.033,-0.137 0.202,-0.224 l 0,0 c 0.188,-0.095 0.399,-0.094 0.868,-0.098 l 0,0 c 0.422,-0.003 0.537,0.449 0.537,0.449 l 0,0 c 0,0 0.223,-0.641 0.245,-0.774 l 0,0 c 0.006,-0.036 -0.18,-0.259 -0.095,-0.729 l 0,0 c 0.028,-0.153 0.168,-0.656 0.831,-0.656 l 0,0 c 0.663,0 0.804,0.508 0.685,0.989 l 0,0 c -0.118,0.482 -0.545,0.498 -0.71,0.498 l 0,0 c -0.166,0 -0.222,0.119 -0.316,0.222 l 0,0 c -0.095,0.102 -0.948,2.857 -1.026,3.125 l 0,0 c -0.079,0.268 -0.75,2.896 -0.853,3.506 l 0,0 c -0.074,0.437 -0.107,0.644 -0.119,0.716 l 0,0 c -0.005,0.015 -0.007,0.024 -0.007,0.025 l 0,0 c 0,0.012 0.001,0.007 0.007,-0.025 l 0,0 c 0.115,-0.349 1.527,-4.217 1.793,-4.9 l 0,0 c 0.516,-1.335 2.542,-4.668 2.531,-4.697 l 0,0 c -0.159,-0.414 0.169,-0.707 0.259,-0.806 l 0,0 c 0.055,-0.06 0.653,-0.54 1.078,-0.163 l 0,0 c 0.629,0.559 0.193,1.294 -0.087,1.394 l 0,0 c -0.181,0.064 -0.426,0.04 -0.629,0.017 l 0,0 c -0.171,-0.021 -0.311,-0.041 -0.358,-0.009 l 0,0 c -0.103,0.071 -2.084,3.806 -2.495,4.706 l 0,0 c -0.41,0.9 -1.768,5.123 -1.808,5.281 l 0,0 c -0.038,0.158 -0.453,1.95 -0.453,2.045 l 0,0 c 0,0.094 -0.178,5.289 -0.178,5.865 l 0,0 c 0,0.577 0.027,4.326 0.043,4.895 l 0,0 c 0.017,0.568 0.209,2.542 0.217,2.589 l 0,0 c 0.008,0.047 0.525,0.245 0.632,0.754 l 0,0 c 0.047,0.225 -0.036,0.58 -0.036,0.58 l 0,0 c 0,0 0.495,0.326 0.612,0.829 l 0,0 c 0.148,0.633 -0.157,1.085 -0.157,1.085 l 0,0 c 0,0 0.533,0.593 0.69,1.205 l 0,0 c 0.141,0.547 0.061,1.155 0.079,1.164 l 0,0 c 0.336,0.166 1.204,0.947 1.441,2.388 l 0,0 c 0.101,0.615 -0.276,2.131 -0.237,2.407 l 0,0 c 0.04,0.277 2.151,5.448 2.309,6.079 l 0,0 c 0.158,0.632 0.572,1.836 0.849,2.625 l 0,0 c 0.276,0.79 0.496,3.24 0.828,4.401 l 0,0 c 0.456,1.585 1.025,4.257 0.751,5.605 l 0,0 c -0.167,0.821 -0.494,1.539 -0.849,1.895 l 0,0 c -0.355,0.355 -0.828,0.632 -1.105,0.75 l 0,0 c -0.423,0.181 -1.283,0.335 -1.283,0.335 l 0,0 c 0,0 0,0.159 0.039,0.395 l 0,0 c 0.04,0.237 0.181,1.14 0.237,1.46 l 0,0 c 0.079,0.455 0.198,1.781 0.296,2.487 l 0,0 c 0.119,0.851 0.217,2.803 0.217,3.434 l 0,0 c 0,0.632 -0.078,2.428 -0.118,3.099 l 0,0 c -0.039,0.671 -0.236,1.441 -0.355,2.151 l 0,0 c -0.118,0.711 -0.612,2.941 -0.73,3.651 l 0,0 c -0.119,0.711 -0.435,2.626 -0.513,3.455 l 0,0 c -0.079,0.828 -0.455,2.644 -0.533,3.157 l 0,0 c -0.079,0.513 -0.316,1.638 -0.553,2.467 l 0,0 c -0.27,0.942 -0.825,2.428 -1.184,3.434 l 0,0 c -0.395,1.105 -0.789,2.073 -1.264,2.98 l 0,0 c -0.473,0.908 -1.479,2.822 -1.874,3.454 l 0,0 c -0.394,0.632 -2.862,4.105 -3.177,4.5 l 0,0 c -0.316,0.394 -1.797,2.408 -2.586,3.276 l 0,0 c -0.789,0.869 -3.099,2.921 -3.612,3.237 l 0,0 c -0.513,0.316 -2.546,2.013 -3.019,2.289 l 0,0 c -0.474,0.277 -2.033,1.066 -2.23,1.145 l 0,0 c -0.197,0.078 -0.869,0.513 -1.304,0.789 l 0,0 c -0.433,0.277 -1.894,1.066 -2.209,1.223 l 0,0 c -0.316,0.159 -1.441,0.869 -1.441,0.869 l 0,0 c 0,0 -0.553,0.198 -0.829,0.395 l 0,0 c -0.276,0.197 -1.244,0.652 -1.875,0.849 l 0,0 c -0.631,0.197 -1.268,0.542 -1.697,0.749 l 0,0 c -0.572,0.277 -0.612,0.356 -2.27,0.829 l 0,0 c -1.658,0.474 -2.665,-0.316 -2.665,-0.316 l 0,0 c 0,0 -1.282,1.047 -5.959,1.244 l 0,0 c -0.137,0.006 -0.274,0.008 -0.413,0.008 l 0,0 c -3.199,0 -6.776,-1.478 -7.344,-1.705 m 45.307,-83.431 c -0.016,0.207 -0.461,0.342 -0.461,0.342 l 0,0 c 0,0 -0.118,0.039 -0.038,0.066 l 0,0 c 0.819,0.273 1.01,0.698 1.012,0.671 l 0,0 c 0.034,-0.404 -0.46,-1.084 -0.509,-1.084 l 0,0 c -0.002,0 -0.004,0.002 -0.004,0.005 m -73.075,-0.102 c 0.019,0.434 0.443,0.839 0.443,0.839 l 0,0 c 0,0 0.231,-0.439 0.297,-0.73 l 0,0 c 0.077,-0.346 -0.07,-0.435 -0.07,-0.435 l 0,0 c 0,0 -0.107,0.131 -0.276,0.129 l 0,0 c -0.217,-0.003 -0.325,-0.119 -0.325,-0.119 l 0,0 c 0,0 -0.076,0.178 -0.069,0.316 m 72.194,-0.477 c 0.287,0.203 0.454,0.092 0.46,0.066 l 0,0 c 0.04,-0.158 -0.46,-0.382 -0.46,-0.408 l 0,0 0,0.342 z m 0.789,-0.395 c 0.053,-0.171 0.066,-0.394 -0.053,-0.591 l 0,0 c -0.118,-0.198 -0.46,-0.501 -0.46,-0.501 l 0,0 c 0,0 0.186,0.878 0.211,0.869 l 0,0 c 0.017,-0.006 0.034,-0.01 0.051,-0.01 l 0,0 c 0.145,0 0.251,0.233 0.251,0.233 m -72.846,-1.388 c 0,0 -0.049,0.533 -0.039,0.75 l 0,0 c 0.01,0.202 0,0.616 0.069,0.572 l 0,0 c 0.129,-0.078 0.316,-0.019 0.316,-0.019 l 0,0 c 0,0 0.091,-0.335 0.099,-0.592 l 0,0 c 0.01,-0.326 -0.04,-0.75 -0.04,-0.75 l 0,0 -0.405,0.039 z m 71.675,-1.361 c 0,0 -0.02,-0.006 -0.065,-0.006 l 0,0 c 0.045,0 0.065,0.006 0.065,0.006 l 0,0 c 0,0 -0.005,-0.039 -0.015,-0.105 l 0,0 c 0.01,0.066 0.015,0.105 0.015,0.105 l 0,0 c 0,0 -0.296,-1.94 -0.303,-1.94 l 0,0 c 0,0 0,0 0,0 l 0,0 c 0,0 0,0.003 0,0.005 l 0,0 c 0,-0.002 0,-0.005 0,-0.005 l 0,0 c 0,0 0,0.003 0,0.005 l 0,0 c 0.014,0.132 0.133,1.935 0.133,1.935 l 0,0 c 0.039,-0.005 0.071,-0.006 0.096,-0.006 l 0,0 c 0.051,0 0.074,0.006 0.074,0.006 m -0.303,-1.935 c 0.014,0.132 0.133,1.935 0.133,1.935 l 0,0 c 0.004,-0.001 0.009,-0.002 0.014,-0.002 l 0,0 c -0.005,0 -0.01,10e-4 -0.014,0.002 l 0,0 c 0,0 -0.119,-1.803 -0.133,-1.935 l 0,0 c 0,0 0,0 0,0 m -71.786,-8.072 c -0.017,0.513 0.099,4.638 0.118,5.586 l 0,0 c 0.02,0.947 0.376,4.105 0.376,4.105 l 0,0 0.256,-0.02 c 0,0 0.237,-3.473 0.316,-5.862 l 0,0 c 0.075,-2.253 0.079,-7.914 0.059,-9.67 l 0,0 c -0.019,-1.756 -0.178,-4.519 -0.178,-4.519 l 0,0 c -1.046,6.689 -0.927,9.768 -0.947,10.38 m 1.658,0.928 c 0.021,1.128 -0.434,8.111 -0.434,8.111 l 0,0 c 0,0 0.575,-4.815 0.651,-8.842 l 0,0 c 0.026,-1.381 -0.215,-8.058 -0.434,-8.15 l 0,0 c 0,0 0,0 0,0 l 0,0 c -0.041,-10e-4 0.197,7.817 0.217,8.881 m -1.831,-6.521 c 10e-4,-0.002 0.002,-0.004 0.002,-0.008 l 0,0 c 0.004,-0.012 0.008,-0.033 0.013,-0.063 l 0,0 c 0.175,-1.027 0.919,-6.179 0.947,-6.369 l 0,0 c -10e-4,0 -10e-4,10e-4 -10e-4,10e-4 l 0,0 c 0,-10e-4 10e-4,-0.002 10e-4,-0.002 l 0,0 c 0,0 -10e-4,10e-4 -10e-4,0.002 l 0,0 c -0.001,0 -0.001,0 -0.002,0 l 0,0 c -0.002,0 -0.004,-0.002 -0.008,-0.007 l 0,0 c -0.004,-0.006 -0.009,-0.015 -0.016,-0.03 l 0,0 c 0.007,0.015 0.012,0.024 0.016,0.03 l 0,0 c -0.011,-0.015 -0.031,-0.056 -0.067,-0.157 l 0,0 c 0.006,0.017 0.012,0.033 0.017,0.047 l 0,0 c -0.005,-0.014 -0.011,-0.03 -0.017,-0.047 l 0,0 c -0.031,-0.086 -0.041,-0.226 -0.041,-0.365 l 0,0 c 0,-0.004 0,-0.009 0,-0.013 l 0,0 c 0,-0.21 0.021,-0.412 0.021,-0.412 l 0,0 -0.178,-0.02 c 0,0 -0.259,2.454 -0.296,2.803 l 0,0 c -0.035,0.331 -0.398,4.191 -0.397,4.583 l 0,0 c -10e-4,-0.392 0.362,-4.252 0.397,-4.583 l 0,0 c 0.037,-0.349 0.296,-2.803 0.296,-2.803 l 0,0 0.178,0.02 -0.178,-0.02 c 0,0 -0.259,2.454 -0.296,2.803 l 0,0 c -0.035,0.331 -0.398,4.191 -0.397,4.583 l 0,0 c 0,10e-4 0,0.003 0,0.004 l 0,0 c 0,0.012 10e-4,0.02 0.002,0.024 l 0,0 c 10e-4,0.005 0.003,0.005 0.005,-10e-4 m 73.275,-6.317 -0.276,1.49 c 0,0 -0.433,3.337 -0.335,2.743 l 0,0 c 0.315,-1.914 1.095,-4.233 1.095,-4.233 l 0,0 c 0,0 -0.089,0 -0.237,-0.01 l 0,0 c -0.017,-0.001 -0.035,-0.002 -0.052,-0.002 l 0,0 c -0.092,0 -0.195,0.012 -0.195,0.012 m -0.76,0.612 0,1.489 0.336,-2.101 c 0,0 -0.222,-0.015 -0.296,-0.089 l 0,0 c -0.01,0 -0.04,0.701 -0.04,0.701 m -0.327,21.299 c 0.003,0 0.006,0 0.009,0 l 0,0 c -0.003,0 -0.006,0 -0.009,0 m -0.229,-1.934 c 0.006,0 0.226,1.432 0.288,1.835 l 0,0 c -0.062,-0.403 -0.282,-1.835 -0.288,-1.835 m -71.964,-13.659 c 0,0.002 10e-4,0.003 0.002,0.003 l 0,0 c 10e-4,0 0.002,-0.001 0.003,-0.004 l 0,0 c -0.001,0.003 -0.002,0.005 -0.003,0.005 l 0,0 c -0.001,0 -0.002,-10e-4 -0.002,-0.004 m 0.02,-0.072 c -0.005,0.03 -0.009,0.051 -0.013,0.063 l 0,0 c 0.004,-0.012 0.008,-0.032 0.013,-0.063 m -0.022,0.044 c 0,10e-4 0,0.003 0,0.004 l 0,0 c 0,-10e-4 0,-0.003 0,-0.004 m 0.966,-6.411 c 10e-4,0 10e-4,-0.001 10e-4,-0.001 l 0,0 c 0,0 0,0.001 -10e-4,0.001 l 0,0 c 0,0 0,0 0,0 m -0.008,-0.008 c 0,0 0,0 0,0 l 0,0 c 0.004,0.006 0.006,0.008 0.008,0.008 l 0,0 c 0,0 0,0 0,0 l 0,0 c -0.002,0 -0.004,-0.002 -0.008,-0.008 m 0.01,0.007 c 0,0 -0.001,0 -0.001,0 l 0,0 c 0,0 0.001,0 0.001,0 m -0.077,-0.164 c -0.031,-0.086 -0.041,-0.226 -0.041,-0.365 l 0,0 c 0,0.139 0.01,0.279 0.041,0.365 l 0,0 c 0,0 0,0 0,0"
         inkscape:connector-curvature="0" />
    </clipPath>
    <clipPath
       id="clipPath3047"
       clipPathUnits="userSpaceOnUse">
      <path
         id="path3049"
         d="M 0,0 594,0 594,774 0,774 0,0 z"
         inkscape:connector-curvature="0" />
    </clipPath>
    <clipPath
       id="clipPath3033"
       clipPathUnits="userSpaceOnUse">
      <path
         id="path3035"
         d="m 445.1,0 148.9,0 0,155.912 -148.9,0 L 445.1,0 z"
         inkscape:connector-curvature="0" />
    </clipPath>
    <clipPath
       id="clipPath3015"
       clipPathUnits="userSpaceOnUse">
      <path
         id="path3017"
         d="m 0.5,463.352 147.96,0 0,154.8 -147.96,0 0,-154.8 z"
         inkscape:connector-curvature="0" />
    </clipPath>
    <clipPath
       id="clipPath3003"
       clipPathUnits="userSpaceOnUse">
      <path
         id="path3005"
         d="m 148.457,463.352 149.043,0 0,-153.415 -149.043,0 0,153.415 z"
         inkscape:connector-curvature="0" />
    </clipPath>
  </defs>
  <sodipodi:namedview
     id="base"
     pagecolor="#ffffff"
     bordercolor="#666666"
     borderopacity="1.0"
     inkscape:pageopacity="0.0"
     inkscape:pageshadow="2"
     inkscape:zoom="1.43"
     inkscape:cx="61.137468"
     inkscape:cy="131.02564"
     inkscape:document-units="px"
     inkscape:current-layer="g2993"
     showgrid="false"
     fit-margin-top="0"
     fit-margin-left="0"
     fit-margin-right="0"
     fit-margin-bottom="0"
     inkscape:window-width="1440"
     inkscape:window-height="853"
     inkscape:window-x="-4"
     inkscape:window-y="-4"
     inkscape:window-maximized="1" />
  <metadata
     id="metadata7">
    <rdf:RDF>
      <cc:Work
         rdf:about="">
        <dc:format>image/svg+xml</dc:format>
        <dc:type
           rdf:resource="http://purl.org/dc/dcmitype/StillImage" />
        <dc:title></dc:title>
      </cc:Work>
    </rdf:RDF>
  </metadata>
  <g
     inkscape:label="Layer 1"
     inkscape:groupmode="layer"
     id="layer1"
     transform="translate(-313.86253,-688.42109)">
    <g
       transform="matrix(1.25,0,0,-1.25,-51.985781,1024.8958)"
       inkscape:label="10K_Interactive_Glossy"
       id="g2993">
      <g
         id="g3043"
         transform="translate(-195.55555,146.66667)">
        <g
           clip-path="url(#clipPath3047)"
           id="g3045">
          <g
             transform="translate(508.9979,103.6631)"
             id="g3051">
            <path
               id="path3053"
               style="fill:#0982c6;fill-opacity:1;fill-rule:nonzero;stroke:none"
               d="m 0,0 c 1.165,0 8.73,-3.339 8.73,-15.333 0,-5.732 -1.929,-10.51 -3.068,-10.51 -0.502,0 -0.693,0.502 -0.693,1.466 0,2.122 0.748,4.002 0.748,8.532 0,8.746 -3.602,12.275 -5.215,14.261 -0.476,0.588 -0.837,0.971 -0.837,1.316 C -0.335,-0.127 -0.235,0 0,0 m 19.067,-0.268 c 0,-0.345 -0.361,-0.728 -0.837,-1.316 -1.612,-1.986 -5.213,-5.515 -5.213,-14.261 0,-4.53 0.745,-6.41 0.745,-8.532 0,-0.964 -0.189,-1.466 -0.691,-1.466 -1.139,0 -3.069,4.778 -3.069,10.51 0,11.994 7.566,15.333 8.733,15.333 0.233,0 0.332,-0.127 0.332,-0.268"
               inkscape:connector-curvature="0" />
          </g>
          <g
             transform="translate(515.6018,101.2622)"
             id="g3055">
            <path
               id="path3057"
               style="fill:#f8971f;fill-opacity:1;fill-rule:nonzero;stroke:none"
               d="M 0,0 C 0,-1.566 1.236,-2.834 2.761,-2.834 4.29,-2.834 5.527,-1.566 5.527,0 5.527,1.568 4.29,2.835 2.761,2.835 1.236,2.835 0,1.568 0,0"
               inkscape:connector-curvature="0" />
          </g>
          <g
             transform="translate(504.0146,105.7431)"
             id="g3059">
            <path
               id="path3061"
               style="fill:#56b948;fill-opacity:1;fill-rule:nonzero;stroke:none"
               d="M 0,0 C -1.444,0.653 -2.525,1.962 -2.701,3.231 -1.629,3.937 0.064,3.991 1.51,3.338 3.021,2.654 3.375,1.497 3.384,0.481 2.615,-0.186 1.514,-0.685 0,0 M 4.143,7.633 C 3.214,9.061 2.997,10.869 3.572,12.118 4.949,12.136 6.512,11.202 7.44,9.775 8.411,8.28 8.06,7.03 7.478,6.106 6.395,5.95 5.112,6.137 4.143,7.633 M 6.293,0.071 C 5.147,1.042 4.504,2.515 4.674,3.718 5.833,4.082 7.392,3.69 8.538,2.72 9.738,1.701 9.757,0.557 9.5,-0.373 8.625,-0.777 7.493,-0.945 6.293,0.071 M 9.798,3.726 C 9.305,5.319 9.583,7.083 10.46,8.11 11.763,7.759 12.987,6.457 13.48,4.863 13.996,3.194 13.331,2.11 12.535,1.394 11.475,1.536 10.312,2.056 9.798,3.726 M 3.762,-7.911 c -1.141,-0.222 -2.345,0.105 -2.991,0.79 0.34,0.879 1.337,1.632 2.481,1.854 C 4.447,-5.035 5.15,-5.578 5.588,-6.184 5.409,-6.912 4.962,-7.677 3.762,-7.911 m -3.016,3.38 c -1.299,0.141 -2.484,0.888 -2.949,1.839 0.656,0.83 1.975,1.309 3.276,1.168 C 2.435,-1.672 3.01,-2.488 3.279,-3.284 2.844,-4.006 2.109,-4.679 0.746,-4.531 M 0.63,5.123 C -0.39,5.988 -0.962,7.296 -0.811,8.366 0.22,8.691 1.605,8.341 2.625,7.479 3.69,6.573 3.71,5.556 3.481,4.729 2.702,4.368 1.696,4.22 0.63,5.123 m 6.951,6.861 c -0.412,1.328 -0.178,2.799 0.551,3.654 1.088,-0.294 2.109,-1.379 2.52,-2.705 0.43,-1.392 -0.127,-2.294 -0.789,-2.894 -0.885,0.12 -1.851,0.553 -2.282,1.945 m -17.08,-34.46 c 0,-0.036 0.023,-0.065 0.069,-0.065 0.042,0 0.119,0.035 0.202,0.065 4.082,1.464 10.108,3.259 18.566,3.808 0.01,0.076 0.061,0.453 0.061,0.743 0,0.612 -0.073,1.251 -0.092,1.357 -8.667,-0.795 -14.648,-3.308 -18.578,-5.723 -0.159,-0.099 -0.228,-0.122 -0.228,-0.185 M 25.316,0.481 c 0.009,1.016 0.362,2.173 1.874,2.857 1.443,0.653 3.139,0.599 4.21,-0.107 C 31.223,1.962 30.143,0.653 28.7,0 27.185,-0.685 26.086,-0.186 25.316,0.481 m -4.094,5.625 c -0.581,0.924 -0.932,2.174 0.039,3.669 0.927,1.427 2.49,2.361 3.867,2.343 0.574,-1.249 0.356,-3.057 -0.57,-4.485 C 23.589,6.137 22.303,5.95 21.222,6.106 m -2.024,-6.479 c -0.255,0.93 -0.236,2.074 0.964,3.093 1.147,0.97 2.704,1.362 3.865,0.998 0.168,-1.203 -0.475,-2.676 -1.621,-3.647 -1.198,-1.016 -2.333,-0.848 -3.208,-0.444 m -3.035,1.767 c -0.795,0.716 -1.459,1.8 -0.944,3.469 0.491,1.594 1.719,2.896 3.021,3.247 0.877,-1.027 1.155,-2.791 0.662,-4.384 -0.516,-1.67 -1.676,-2.19 -2.739,-2.332 m 6.949,-7.578 c 0.439,0.606 1.139,1.149 2.337,0.917 1.144,-0.222 2.139,-0.975 2.48,-1.854 -0.645,-0.685 -1.849,-1.012 -2.993,-0.79 -1.198,0.234 -1.647,0.999 -1.824,1.727 m 2.308,2.9 c 0.27,0.796 0.845,1.612 2.207,1.76 1.301,0.141 2.618,-0.338 3.275,-1.168 -0.465,-0.951 -1.649,-1.698 -2.948,-1.839 -1.364,-0.148 -2.101,0.525 -2.534,1.247 m -0.202,8.013 c -0.229,0.827 -0.211,1.844 0.857,2.75 1.02,0.862 2.405,1.212 3.435,0.887 C 29.661,7.296 29.088,5.988 28.069,5.123 27.003,4.22 25.996,4.368 25.218,4.729 m -6.382,5.31 c -0.663,0.6 -1.218,1.502 -0.788,2.894 0.411,1.326 1.432,2.411 2.515,2.705 0.735,-0.855 0.965,-2.326 0.556,-3.654 -0.431,-1.392 -1.398,-1.825 -2.283,-1.945 m 19.133,-32.33 c -3.928,2.415 -9.91,4.928 -18.577,5.723 -0.017,-0.106 -0.091,-0.745 -0.091,-1.357 0,-0.29 0.05,-0.667 0.06,-0.743 8.457,-0.549 14.482,-2.344 18.566,-3.808 0.084,-0.03 0.163,-0.065 0.201,-0.065 0.048,0 0.071,0.029 0.071,0.065 0,0.063 -0.071,0.086 -0.23,0.185 M 14.35,8.643 c -1.123,0.523 -2.229,1.494 -2.229,3.513 0,1.928 0.91,3.782 2.229,4.614 1.319,-0.832 2.229,-2.686 2.229,-4.614 0,-2.019 -1.104,-2.99 -2.229,-3.513"
               inkscape:connector-curvature="0" />
          </g>
          <g
             transform="translate(503.2232,72.8543)"
             id="g3063">
            <path
               id="path3065"
               style="fill:#0982c6;fill-opacity:1;fill-rule:nonzero;stroke:none"
               d="m 0,0 c 0,-0.987 0.813,-1.787 1.819,-1.787 1.005,0 1.819,0.8 1.819,1.787 0,0.986 -0.814,1.785 -1.819,1.785 C 0.813,1.785 0,0.986 0,0 m 14.202,-9.405 c 0,-2.82 -1.103,-3.995 -2.698,-3.995 -1.609,0 -2.511,1.365 -2.511,3.759 0,2.444 1.399,4.465 3.988,4.465 0.534,0 0.907,-0.053 1.221,-0.129 l 0,-4.1 z m 0.155,-4.626 0,-0.916 c 0,-2.514 -1.548,-3.49 -3.469,-3.49 -1.727,0 -3.001,0.519 -3.403,0.66 l 0,-2.487 c 0.328,-0.088 1.73,-0.529 3.731,-0.529 3.553,0 5.927,1.466 5.927,6.492 l 0,10.845 c -0.456,0.116 -2.124,0.558 -4.044,0.558 -4.984,0 -7.126,-3.34 -7.126,-6.954 0,-3.322 1.672,-5.927 4.873,-5.927 2.111,0 3.126,1.275 3.456,1.748 l 0.055,0 z m -16.947,1.534 c -0.8,-0.375 -2.08,-0.622 -3.319,-0.622 -3.379,0 -5.867,2.417 -5.867,6.099 0,3.659 2.471,6.105 5.867,6.105 1.683,0 2.881,-0.412 3.319,-0.62 l 0,2.632 c -0.738,0.274 -1.937,0.551 -3.631,0.551 -5.244,0 -8.768,-3.625 -8.768,-8.668 0,-4.766 3.243,-8.663 8.768,-8.663 1.62,0 2.84,0.257 3.631,0.553 l 0,2.633 z m 44.497,3.092 c 0,-2.82 -1.104,-3.995 -2.698,-3.995 -1.611,0 -2.516,1.365 -2.516,3.759 0,2.444 1.405,4.465 3.992,4.465 0.529,0 0.904,-0.053 1.222,-0.129 l 0,-4.1 z m 3.311,-6.099 c -0.095,0.687 -0.371,2.5 -0.371,4.059 l 0,7.989 c -0.459,0.116 -2.128,0.558 -4.044,0.558 -4.986,0 -7.125,-3.34 -7.125,-6.954 0,-3.322 1.666,-5.927 4.87,-5.927 2.339,0 3.388,1.513 3.784,2.32 l 0.077,0 c 0.029,-0.383 0.135,-1.685 0.169,-2.045 l 2.64,0 z m -41.927,12.291 -2.94,0 0,-12.291 2.94,0 0,12.291 z m 17.181,-12.291 0,8.505 c 0,1.14 -0.104,3.327 -0.134,3.823 l 2.642,0 0.124,-1.729 0.055,0 c 0.307,0.484 1.296,2.007 3.601,2.007 2.783,0 4.329,-2.045 4.329,-4.594 l 0,-8.012 -2.938,0 0,7.431 c 0,1.565 -0.871,2.748 -2.368,2.748 -1.545,0 -2.368,-1.248 -2.368,-2.748 l 0,-7.431 -2.943,0 z"
               inkscape:connector-curvature="0" />
          </g>
          <g
             transform="translate(552.7565,59.4629)"
             id="g3067">
            <path
               id="path3069"
               style="fill:#0982c6;fill-opacity:1;fill-rule:nonzero;stroke:none"
               d="m 0,0 c -0.075,0.043 -0.198,0.063 -0.363,0.063 l -0.257,0 0,-0.615 0.271,0 c 0.126,0 0.223,0.01 0.287,0.036 0.117,0.047 0.176,0.135 0.176,0.267 C 0.114,-0.125 0.076,-0.042 0,0 m -0.324,0.267 c 0.211,0 0.367,-0.02 0.465,-0.06 C 0.318,0.132 0.405,-0.01 0.405,-0.224 0.405,-0.377 0.349,-0.491 0.239,-0.561 0.18,-0.599 0.098,-0.627 -0.007,-0.643 0.126,-0.664 0.222,-0.72 0.286,-0.811 0.347,-0.9 0.378,-0.988 0.378,-1.074 l 0,-0.125 c 0,-0.039 0.001,-0.082 0.003,-0.126 0.004,-0.045 0.008,-0.076 0.016,-0.089 l 0.009,-0.021 -0.28,0 c -0.002,0.006 -0.002,0.012 -0.004,0.017 -0.001,0.005 -0.004,0.012 -0.004,0.019 l -0.006,0.054 0,0.135 c 0,0.196 -0.055,0.327 -0.161,0.39 -0.064,0.035 -0.176,0.056 -0.334,0.056 l -0.237,0 0,-0.671 -0.299,0 0,1.702 0.595,0 z m -0.914,0.087 c -0.259,-0.26 -0.387,-0.574 -0.387,-0.944 0,-0.371 0.128,-0.69 0.386,-0.951 0.259,-0.262 0.574,-0.394 0.945,-0.394 0.37,0 0.686,0.132 0.946,0.394 0.257,0.261 0.387,0.58 0.387,0.951 0,0.37 -0.13,0.684 -0.387,0.944 -0.263,0.263 -0.578,0.393 -0.946,0.393 -0.368,0 -0.683,-0.13 -0.944,-0.393 m 2.042,-2.043 c -0.302,-0.304 -0.668,-0.456 -1.098,-0.456 -0.43,0 -0.796,0.152 -1.097,0.456 -0.3,0.303 -0.451,0.67 -0.451,1.101 0,0.427 0.153,0.792 0.454,1.095 0.302,0.302 0.668,0.453 1.094,0.453 0.43,0 0.796,-0.151 1.098,-0.453 0.304,-0.301 0.455,-0.667 0.455,-1.095 0,-0.43 -0.151,-0.797 -0.455,-1.101"
               inkscape:connector-curvature="0" />
          </g>
        </g>
      </g>
      <g
         id="g3169" />
    </g>
  </g>
</svg>
