<?xml version="1.0" encoding="UTF-8" standalone="no"?>
<!-- Created with Inkscape (http://www.inkscape.org/) -->

<svg
   xmlns:dc="http://purl.org/dc/elements/1.1/"
   xmlns:cc="http://creativecommons.org/ns#"
   xmlns:rdf="http://www.w3.org/1999/02/22-rdf-syntax-ns#"
   xmlns:svg="http://www.w3.org/2000/svg"
   xmlns="http://www.w3.org/2000/svg"
   xmlns:sodipodi="http://sodipodi.sourceforge.net/DTD/sodipodi-0.dtd"
   xmlns:inkscape="http://www.inkscape.org/namespaces/inkscape"
   width="59.374962"
   height="59.374939"
   id="svg3290"
   sodipodi:version="0.32"
   inkscape:version="0.91 r13725"
   version="1.0"
   sodipodi:docname="Chipotle_Mexican_Grill_logoCR.svg"
   inkscape:output_extension="org.inkscape.output.svg.inkscape">
  <defs
     id="defs3292">
    <inkscape:perspective
       sodipodi:type="inkscape:persp3d"
       inkscape:vp_x="0 : 526.18109 : 1"
       inkscape:vp_y="0 : 1000 : 0"
       inkscape:vp_z="744.09448 : 526.18109 : 1"
       inkscape:persp3d-origin="372.04724 : 350.78739 : 1"
       id="perspective3298" />
    <inkscape:perspective
       id="perspective3307"
       inkscape:persp3d-origin="372.04724 : 350.78739 : 1"
       inkscape:vp_z="744.09448 : 526.18109 : 1"
       inkscape:vp_y="0 : 1000 : 0"
       inkscape:vp_x="0 : 526.18109 : 1"
       sodipodi:type="inkscape:persp3d" />
  </defs>
  <sodipodi:namedview
     id="base"
     pagecolor="#ffffff"
     bordercolor="#666666"
     borderopacity="1.0"
     gridtolerance="10000"
     guidetolerance="10"
     objecttolerance="10"
     inkscape:pageopacity="0.0"
     inkscape:pageshadow="2"
     inkscape:zoom="7.3950447"
     inkscape:cx="29.687478"
     inkscape:cy="29.68747"
     inkscape:document-units="px"
     inkscape:current-layer="layer1"
     showgrid="false"
     inkscape:window-width="1024"
     inkscape:window-height="721"
     inkscape:window-x="-4"
     inkscape:window-y="-4"
     fit-margin-top="0"
     fit-margin-left="0"
     fit-margin-right="0"
     fit-margin-bottom="0"
     inkscape:window-maximized="1" />
  <metadata
     id="metadata3295">
    <rdf:RDF>
      <cc:Work
         rdf:about="">
        <dc:format>image/svg+xml</dc:format>
        <dc:type
           rdf:resource="http://purl.org/dc/dcmitype/StillImage" />
        <dc:title></dc:title>
      </cc:Work>
    </rdf:RDF>
  </metadata>
  <g
     inkscape:label="Layer 1"
     inkscape:groupmode="layer"
     id="layer1"
     transform="translate(-406.74491,-347.67228)">
    <path
       style="display:inline;overflow:visible;visibility:visible;fill:#a81612;fill-opacity:1;fill-rule:nonzero;stroke:#4b2c1a;stroke-width:0;stroke-linecap:butt;stroke-linejoin:miter;stroke-miterlimit:4;stroke-dashoffset:0;stroke-opacity:1;marker:none;marker-start:none;marker-mid:none;marker-end:none;enable-background:accumulate"
       d="m 466.11986,377.35975 c 0,16.38748 -13.3,29.68746 -29.68748,29.68746 -16.38748,0 -29.68747,-13.29998 -29.68747,-29.68746 0,-16.38749 13.29999,-29.68747 29.68747,-29.68747 16.38748,0 29.68748,13.29998 29.68748,29.68747 z"
       id="path3938"
       inkscape:connector-curvature="0" />
    <path
       style="display:inline;overflow:visible;visibility:visible;fill:#ffffff;fill-opacity:1;fill-rule:nonzero;stroke:#4b2c1a;stroke-width:0;stroke-linecap:butt;stroke-linejoin:miter;stroke-miterlimit:4;stroke-dashoffset:0;stroke-opacity:1;marker:none;marker-start:none;marker-mid:none;marker-end:none;enable-background:accumulate"
       d="m 454.42945,377.35975 c 0,9.93438 -8.06269,17.99707 -17.99707,17.99707 -9.93437,0 -17.99707,-8.06269 -17.99707,-17.99707 0,-9.93438 8.0627,-17.99707 17.99707,-17.99707 9.93438,0 17.99707,8.06269 17.99707,17.99707 z"
       id="path3936"
       inkscape:connector-curvature="0" />
    <path
       style="display:inline;overflow:visible;visibility:visible;fill:#451400;fill-opacity:1;fill-rule:nonzero;stroke:#4b2c1a;stroke-width:0;stroke-linecap:butt;stroke-linejoin:miter;stroke-miterlimit:4;stroke-dashoffset:0;stroke-opacity:1;marker:none;marker-start:none;marker-mid:none;marker-end:none;enable-background:accumulate"
       d="m 453.09633,377.35975 c 0,9.19849 -7.46544,16.66395 -16.66395,16.66395 -9.1985,0 -16.66394,-7.46546 -16.66394,-16.66395 0,-9.1985 7.46544,-16.66396 16.66394,-16.66396 9.19851,0 16.66395,7.46546 16.66395,16.66396 z"
       id="path3934"
       inkscape:connector-curvature="0" />
    <path
       style="font-style:normal;font-weight:normal;font-size:1014.75146484px;line-height:125%;font-family:'Bitstream Vera Sans';text-align:start;text-anchor:start;fill:#ffffff;fill-opacity:1;stroke:none;stroke-width:1px;stroke-linecap:butt;stroke-linejoin:miter;stroke-opacity:1"
       d="m 418.03616,369.82697 c -0.21434,0.44954 -0.49658,0.82866 -0.84671,1.1374 -0.35013,0.30873 -0.73613,0.53692 -1.15797,0.68459 -0.42186,0.14766 -0.86652,0.21005 -1.334,0.18715 -0.46749,-0.0229 -0.92406,-0.13688 -1.36973,-0.34191 l -0.018,-0.008 c -0.44564,-0.20502 -0.82558,-0.4759 -1.13979,-0.81262 -0.3142,-0.33671 -0.5516,-0.71288 -0.71218,-1.1285 -0.16057,-0.41561 -0.23231,-0.85797 -0.21521,-1.3271 0.0171,-0.46911 0.13838,-0.9401 0.36385,-1.41297 0.13643,-0.28615 0.28477,-0.53649 0.44503,-0.75108 0.16026,-0.21456 0.32795,-0.39904 0.50307,-0.55345 0.17515,-0.15437 0.36114,-0.28595 0.55798,-0.39474 0.19686,-0.10876 0.39995,-0.20038 0.60928,-0.27484 l 0.59834,1.32168 c -0.33421,0.13825 -0.62285,0.30272 -0.86594,0.4934 -0.2431,0.19069 -0.43841,0.44079 -0.58599,0.75027 -0.12249,0.25693 -0.18541,0.51808 -0.18874,0.78344 -0.003,0.26536 0.0466,0.5179 0.14968,0.75761 0.10311,0.23971 0.2512,0.45736 0.44424,0.65296 0.19305,0.1956 0.42335,0.35494 0.69089,0.47801 l 0.0177,0.008 c 0.26754,0.12311 0.54106,0.19555 0.82051,0.21731 0.27946,0.0218 0.54525,-0.004 0.79732,-0.0764 0.25208,-0.0727 0.48234,-0.19462 0.69078,-0.36573 0.20843,-0.17111 0.37526,-0.38799 0.50048,-0.65062 0.16702,-0.35029 0.24291,-0.67665 0.22766,-0.97914 -0.0152,-0.30247 -0.0787,-0.62539 -0.19033,-0.96875 l 1.2918,-0.45212 c 0.0971,0.23697 0.17374,0.47154 0.22979,0.70371 0.0561,0.23219 0.0851,0.47155 0.0871,0.71807 0.002,0.24653 -0.0288,0.5011 -0.0924,0.76371 -0.0636,0.26263 -0.16644,0.54287 -0.30848,0.84078 l 0,0 z"
       id="text3313"
       inkscape:connector-curvature="0" />
    <path
       style="font-style:normal;font-weight:normal;font-size:1014.7512207px;line-height:125%;font-family:'Bitstream Vera Sans';text-align:start;text-anchor:start;fill:#ffffff;fill-opacity:1;stroke:none;stroke-width:1px;stroke-linecap:butt;stroke-linejoin:miter;stroke-opacity:1"
       d="m 415.02302,360.87462 1.05225,-1.0914 2.27879,2.27847 2.18599,-2.25822 -2.27881,-2.31353 0.94708,-0.88104 4.85608,4.78324 -0.77176,0.98621 -1.85137,-1.70976 -2.22105,2.15303 1.81632,1.74483 -1.05224,1.0914 -4.96128,-4.78323 z"
       id="text3318"
       sodipodi:nodetypes="ccccccccccccc"
       inkscape:connector-curvature="0" />
    <path
       style="font-style:normal;font-weight:normal;font-size:938.12438965px;line-height:125%;font-family:'Bitstream Vera Sans';text-align:start;text-anchor:start;fill:#ffffff;fill-opacity:1;stroke:none;stroke-width:1px;stroke-linecap:butt;stroke-linejoin:miter;stroke-opacity:1"
       d="m 423.24496,353.83881 1.13936,-0.6172 3.24744,6.0781 -1.13936,0.6172 -3.24744,-6.0781 z"
       id="text3322"
       inkscape:connector-curvature="0" />
    <path
       style="font-style:normal;font-weight:normal;font-size:1019.20373535px;line-height:125%;font-family:'Bitstream Vera Sans';text-align:start;text-anchor:start;fill:#ffffff;fill-opacity:1;stroke:none;stroke-width:1px;stroke-linecap:butt;stroke-linejoin:miter;stroke-opacity:1"
       d="m 431.88899,354.39697 c 0.38547,-0.0732 0.70002,-0.22589 0.87168,-0.458 0.17166,-0.23209 0.22727,-0.4896 0.16686,-0.77252 l -0.004,-0.0187 c -0.0698,-0.32683 -0.23412,-0.55398 -0.49291,-0.68147 -0.25879,-0.12747 -0.61691,-0.15457 -1.00237,-0.0813 l -1.18591,0.2253 0.43093,2.01771 1.21571,-0.23097 z m -3.46131,-2.8057 2.85026,-0.54148 c 0.41872,-0.0795 0.80428,-0.0955 1.15667,-0.048 0.35239,0.0475 0.70065,0.15007 0.97283,0.30762 0.27219,0.15757 0.49959,0.36456 0.68222,0.62095 0.18262,0.25642 0.31017,0.55427 0.38264,0.89357 l 0.004,0.019 c 0.0819,0.38342 0.0806,0.73355 -0.004,1.05037 -0.0845,0.31684 -0.2338,0.59699 -0.44795,0.84044 -0.21419,0.24349 -0.51794,0.44644 -0.8393,0.60888 -0.32137,0.16245 -0.67804,0.2809 -1.06999,0.35537 l -1.382,0.29348 0.38683,2.08766 -1.3189,0.21963 -1.3735,-6.70743 z"
       id="text3327"
       sodipodi:nodetypes="csccsccccccsssccsssccccc"
       inkscape:connector-curvature="0" />
    <path
       style="font-style:normal;font-weight:normal;font-size:1019.20373535px;line-height:125%;font-family:'Bitstream Vera Sans';text-align:start;text-anchor:start;fill:#ffffff;fill-opacity:1;stroke:none;stroke-width:1px;stroke-linecap:butt;stroke-linejoin:miter;stroke-opacity:1"
       d="m 441.3425,352.21045 c -0.30152,-0.0791 -0.59233,-0.097 -0.87246,-0.0538 -0.28011,0.0432 -0.53189,0.13846 -0.75537,0.28576 -0.22345,0.1473 -0.41432,0.33577 -0.57262,0.56543 -0.15828,0.22965 -0.26972,0.49038 -0.33434,0.78221 l -0.004,0.0196 c -0.0646,0.29181 -0.0749,0.58082 -0.0308,0.86701 0.0441,0.28618 0.13802,0.5511 0.28179,0.79473 0.1438,0.24363 0.33098,0.45575 0.56153,0.63637 0.23058,0.18062 0.49661,0.31047 0.79813,0.38956 0.30813,0.0808 0.60064,0.0992 0.87756,0.0552 0.27693,-0.044 0.52706,-0.13973 0.75042,-0.28704 0.22335,-0.14734 0.41423,-0.33581 0.57262,-0.56545 0.15838,-0.22961 0.2699,-0.49044 0.33456,-0.78246 l 0.004,-0.0193 c 0.0646,-0.29203 0.0749,-0.5811 0.0307,-0.86721 -0.0442,-0.2861 -0.13819,-0.55097 -0.28198,-0.79462 -0.14378,-0.24364 -0.32931,-0.45531 -0.55658,-0.63508 -0.22726,-0.17973 -0.49495,-0.31001 -0.80307,-0.39084 l 0,0 z m 0.32545,-1.37668 c 0.53122,0.13933 0.99924,0.35992 1.40407,0.66177 0.40485,0.30184 0.7347,0.65262 0.98958,1.05233 0.25487,0.39972 0.42541,0.83571 0.51159,1.30795 0.0862,0.47226 0.0754,0.95161 -0.0323,1.43805 l -0.004,0.0196 c -0.1077,0.48643 -0.30038,0.91805 -0.57805,1.29487 -0.27765,0.37681 -0.6143,0.68321 -1.00993,0.91921 -0.39562,0.236 -0.83845,0.38756 -1.32847,0.45467 -0.49001,0.0671 -1.00054,0.031 -1.53155,-0.10823 -0.53102,-0.1393 -0.99898,-0.35988 -1.40394,-0.66174 -0.40493,-0.30189 -0.73483,-0.65267 -0.98972,-1.05239 -0.25486,-0.39971 -0.4254,-0.83569 -0.51159,-1.30795 -0.0862,-0.47226 -0.0754,-0.9517 0.0324,-1.43834 l 0.004,-0.0193 c 0.10774,-0.48665 0.30043,-0.91832 0.57808,-1.29503 0.27764,-0.37672 0.61429,-0.68307 1.0099,-0.91907 0.39564,-0.236 0.83845,-0.38756 1.32847,-0.45467 0.49003,-0.0671 1.00055,-0.031 1.53156,0.10826 l 0,0 z"
       id="text3331"
       inkscape:connector-curvature="0" />
    <path
       style="font-style:normal;font-weight:normal;font-size:1019.20379639px;line-height:125%;font-family:'Bitstream Vera Sans';text-align:start;text-anchor:start;fill:#ffffff;fill-opacity:1;stroke:none;stroke-width:1px;stroke-linecap:butt;stroke-linejoin:miter;stroke-opacity:1"
       d="m 449.33504,354.97171 -2.04993,-1.21478 0.66144,-0.99804 4.99402,2.96794 -0.66144,1.03401 -1.72614,-1.10686 -2.9925,4.84478 -1.18198,-0.68226 2.95653,-4.84479 z"
       id="text3335"
       sodipodi:nodetypes="ccccccccc"
       inkscape:connector-curvature="0" />
    <path
       style="font-style:normal;font-weight:normal;font-size:1019.20391846px;line-height:125%;font-family:'Bitstream Vera Sans';text-align:start;text-anchor:start;fill:#ffffff;fill-opacity:1;stroke:none;stroke-width:1px;stroke-linecap:butt;stroke-linejoin:miter;stroke-opacity:1"
       d="m 455.8076,358.288 0.92698,1.05722 -4.32319,3.65311 2.40784,2.72217 -1.08991,0.81443 -3.11894,-3.67143 5.19722,-4.5755 z"
       id="text3339"
       sodipodi:nodetypes="ccccccc"
       inkscape:connector-curvature="0" />
    <path
       style="font-style:normal;font-weight:normal;font-size:1019.20391846px;line-height:125%;font-family:'Bitstream Vera Sans';text-align:start;text-anchor:start;fill:#ffffff;fill-opacity:1;stroke:none;stroke-width:1px;stroke-linecap:butt;stroke-linejoin:miter;stroke-opacity:1"
       d="m 460.99607,365.47068 1.85502,4.71421 -1.12401,0.40469 -1.39991,-3.43433 -1.81634,0.70983 1.06492,2.75297 -1.19569,0.40459 -1.06493,-2.75297 -1.21375,0.4754 1.48909,3.55403 -1.1957,0.40458 -1.87226,-4.83393 6.47356,-2.39907 z"
       id="text3343"
       sodipodi:nodetypes="ccccccccccccc"
       inkscape:connector-curvature="0" />
    <circle
       style="display:inline;overflow:visible;visibility:visible;opacity:1;fill:#ffffff;fill-opacity:1;fill-rule:nonzero;stroke:#4b2c1a;stroke-width:0;stroke-linecap:butt;stroke-linejoin:miter;stroke-miterlimit:4;stroke-dasharray:none;stroke-dashoffset:0;stroke-opacity:1;marker:none;marker-start:none;marker-mid:none;marker-end:none;enable-background:accumulate"
       id="path3349"
       transform="matrix(0.04519892,0,0,0.04519892,410.75498,359.6947)"
       cx="45.26482"
       cy="398.73819"
       r="15.390038" />
    <circle
       style="display:inline;overflow:visible;visibility:visible;opacity:1;fill:#ffffff;fill-opacity:1;fill-rule:nonzero;stroke:#4b2c1a;stroke-width:0;stroke-linecap:butt;stroke-linejoin:miter;stroke-miterlimit:4;stroke-dasharray:none;stroke-dashoffset:0;stroke-opacity:1;marker:none;marker-start:none;marker-mid:none;marker-end:none;enable-background:accumulate"
       id="path3351"
       transform="matrix(0.04519892,0,0,0.04519892,458.30713,359.6947)"
       cx="45.26482"
       cy="398.73819"
       r="15.390038" />
    <path
       style="font-style:normal;font-weight:normal;font-size:563.45202637px;line-height:125%;font-family:'Bitstream Vera Sans';text-align:start;text-anchor:start;fill:#ffffff;fill-opacity:1;stroke:none;stroke-width:1px;stroke-linecap:butt;stroke-linejoin:miter;stroke-opacity:1"
       d="m 415.74507,383.23648 0.31827,0.84971 -1.16258,1.50949 1.86823,0.37443 0.31828,0.84971 -3.5835,1.34224 -0.29334,-0.78316 2.33946,-0.87628 -1.90846,-0.43524 -0.008,-0.0205 1.14147,-1.56587 -2.32417,0.87053 -0.28948,-0.77284 3.58348,-1.34225 z"
       id="text3353"
       inkscape:connector-curvature="0" />
    <path
       style="font-style:normal;font-weight:normal;font-size:563.45202637px;line-height:125%;font-family:'Bitstream Vera Sans';text-align:start;text-anchor:start;fill:#ffffff;fill-opacity:1;stroke:none;stroke-width:1px;stroke-linecap:butt;stroke-linejoin:miter;stroke-opacity:1"
       d="m 418.03199,388.53574 1.62316,2.38656 -0.61937,0.42125 -1.15284,-1.69505 -0.64185,0.43654 1.01446,1.49159 -0.61922,0.42114 -1.01446,-1.49158 -0.66448,0.45192 1.16823,1.71767 -0.61923,0.42116 -1.63853,-2.40919 3.16413,-2.15201 z"
       id="text3357"
       inkscape:connector-curvature="0" />
    <path
       style="font-style:normal;font-weight:normal;font-size:563.45202637px;line-height:125%;font-family:'Bitstream Vera Sans';text-align:start;text-anchor:start;fill:#ffffff;fill-opacity:1;stroke:none;stroke-width:1px;stroke-linecap:butt;stroke-linejoin:miter;stroke-opacity:1"
       d="m 420.42806,394.44107 0.31982,-2.25183 0.72779,0.6624 -0.24104,1.45867 1.43356,-0.37327 0.70756,0.64399 -2.20448,0.5216 -0.33091,2.34506 -0.72765,-0.6623 0.24841,-1.54782 -1.52188,0.38876 -0.70743,-0.64387 2.29625,-0.54139 z"
       id="text3361"
       inkscape:connector-curvature="0" />
    <path
       style="font-style:normal;font-weight:normal;font-size:563.4520874px;line-height:125%;font-family:'Bitstream Vera Sans';text-align:start;text-anchor:start;fill:#ffffff;fill-opacity:1;stroke:none;stroke-width:1px;stroke-linecap:butt;stroke-linejoin:miter;stroke-opacity:1"
       d="m 424.93228,395.74715 0.71467,0.4448 -2.02197,3.24877 -0.71468,-0.44479 2.02198,-3.24878 z"
       id="text3365"
       inkscape:connector-curvature="0" />
    <path
       style="font-style:normal;font-weight:normal;font-size:563.4520874px;line-height:125%;font-family:'Bitstream Vera Sans';text-align:start;text-anchor:start;fill:#ffffff;fill-opacity:1;stroke:none;stroke-width:1px;stroke-linecap:butt;stroke-linejoin:miter;stroke-opacity:1"
       d="m 427.90677,401.49728 c -0.26483,-0.0927 -0.4939,-0.22697 -0.68717,-0.40273 -0.19328,-0.17578 -0.34328,-0.37597 -0.45001,-0.60058 -0.10672,-0.2246 -0.16675,-0.46667 -0.18012,-0.72622 -0.0134,-0.25955 0.0251,-0.51829 0.1154,-0.7762 l 0.004,-0.0104 c 0.0903,-0.25792 0.2213,-0.48327 0.39302,-0.67609 0.17173,-0.1928 0.36994,-0.34544 0.59467,-0.45791 0.22473,-0.11243 0.46949,-0.17735 0.73426,-0.19471 0.26479,-0.0174 0.53647,0.0227 0.81506,0.12026 0.16858,0.059 0.31771,0.12666 0.44737,0.20293 0.12967,0.0763 0.24284,0.15836 0.33949,0.24629 0.0967,0.0879 0.18109,0.18314 0.25332,0.28567 0.0722,0.10253 0.13513,0.20948 0.18877,0.32087 l -0.70971,0.40605 c -0.0965,-0.17671 -0.20521,-0.32677 -0.32609,-0.45016 -0.12089,-0.1234 -0.2725,-0.217 -0.45483,-0.28084 -0.15137,-0.053 -0.30177,-0.0728 -0.45118,-0.0595 -0.14943,0.0133 -0.28866,0.0553 -0.41767,0.12597 -0.12903,0.0707 -0.24312,0.16491 -0.34228,0.28273 -0.0992,0.11783 -0.17585,0.25415 -0.23005,0.40898 l -0.004,0.0102 c -0.0542,0.15484 -0.0796,0.31006 -0.0762,0.46568 0.003,0.15563 0.0327,0.30099 0.0877,0.43608 0.055,0.13512 0.13652,0.25535 0.24446,0.3607 0.10792,0.10537 0.23926,0.18513 0.39398,0.2393 0.20637,0.0722 0.39418,0.0955 0.56343,0.0698 0.16926,-0.0257 0.34729,-0.0792 0.53413,-0.1605 l 0.32677,0.68777 c -0.12781,0.0672 -0.25544,0.12292 -0.38286,0.16716 -0.12743,0.0442 -0.2604,0.074 -0.39893,0.0891 -0.13854,0.0152 -0.28344,0.0127 -0.4347,-0.007 -0.15125,-0.0202 -0.31463,-0.0609 -0.49015,-0.12238 l 0,0 z"
       id="text3369"
       inkscape:connector-curvature="0" />
    <path
       style="font-style:normal;font-weight:normal;font-size:563.4520874px;line-height:125%;font-family:'Bitstream Vera Sans';text-align:start;text-anchor:start;fill:#ffffff;fill-opacity:1;stroke:none;stroke-width:1px;stroke-linecap:butt;stroke-linejoin:miter;stroke-opacity:1"
       d="m 434.34681,401.20738 -0.35742,-1.29241 -0.65217,1.17171 1.00959,0.1207 z m -0.61191,-2.34132 0.77074,0.0921 1.17085,4.0212 -0.87377,-0.10445 -0.24564,-0.89378 -1.6066,-0.19206 -0.44923,0.81072 -0.85224,-0.10188 2.08589,-3.63189 z"
       id="text3373"
       inkscape:connector-curvature="0" />
    <path
       style="font-style:normal;font-weight:normal;font-size:563.4520874px;line-height:125%;font-family:'Bitstream Vera Sans';text-align:start;text-anchor:start;fill:#ffffff;fill-opacity:1;stroke:none;stroke-width:1px;stroke-linecap:butt;stroke-linejoin:miter;stroke-opacity:1"
       d="m 437.8145,399.10304 0.77243,-0.0767 2.01699,2.16727 -0.23292,-2.34452 0.82688,-0.0821 0.37832,3.80787 -0.71251,0.0708 -2.08467,-2.23749 0.2405,2.42071 -0.82671,0.0821 -0.37831,-3.80786 z"
       id="text3377"
       inkscape:connector-curvature="0" />
    <path
       style="font-style:normal;font-weight:normal;font-size:563.4520874px;line-height:125%;font-family:'Bitstream Vera Sans';text-align:start;text-anchor:start;fill:#ffffff;fill-opacity:1;stroke:none;stroke-width:1px;stroke-linecap:butt;stroke-linejoin:miter;stroke-opacity:1"
       d="m 447.54148,400.68241 c -0.27295,0.12171 -0.54177,0.18772 -0.80645,0.19804 -0.26471,0.0103 -0.51339,-0.0284 -0.74609,-0.1162 -0.2327,-0.0878 -0.44294,-0.22148 -0.63074,-0.40107 -0.18779,-0.1796 -0.33957,-0.3992 -0.45533,-0.65883 l -0.004,-0.0101 c -0.11128,-0.24958 -0.16977,-0.50378 -0.17548,-0.76263 -0.006,-0.25883 0.0363,-0.50699 0.12587,-0.74446 0.0896,-0.23748 0.22478,-0.45336 0.40549,-0.64769 0.18072,-0.1943 0.40422,-0.35083 0.67055,-0.46959 0.15643,-0.0697 0.30355,-0.12237 0.44133,-0.15789 0.13778,-0.0355 0.27049,-0.0577 0.39811,-0.0667 0.12763,-0.009 0.25307,-0.005 0.37631,0.0118 0.12325,0.0168 0.2469,0.0435 0.37094,0.08 l -0.22389,0.80014 c -0.0918,-0.0269 -0.18058,-0.0472 -0.26645,-0.0607 -0.0859,-0.0136 -0.17128,-0.0194 -0.25621,-0.0174 -0.0849,0.002 -0.17268,0.0131 -0.2633,0.0336 -0.0906,0.0204 -0.18585,0.0529 -0.2857,0.0974 -0.13986,0.0624 -0.25757,0.14975 -0.35307,0.26219 -0.0955,0.11242 -0.16713,0.23812 -0.21487,0.3771 -0.0478,0.13898 -0.0681,0.28572 -0.0611,0.44022 0.007,0.1545 0.0439,0.30666 0.11075,0.45648 l 0.004,0.01 c 0.0713,0.15979 0.16272,0.29557 0.27443,0.40735 0.1117,0.11179 0.23726,0.19644 0.37664,0.25398 0.1394,0.0576 0.28542,0.0852 0.43806,0.083 0.15264,-0.002 0.30717,-0.0381 0.4636,-0.10789 0.28625,-0.12763 0.4964,-0.30517 0.63047,-0.53265 l -0.22256,-0.49914 -0.774,0.34513 -0.29615,-0.66416 1.51785,-0.6768 0.6768,1.51784 c -0.11153,0.23325 -0.26715,0.45924 -0.46686,0.67798 -0.19971,0.21873 -0.45935,0.39935 -0.77889,0.54183 l 0,0 z"
       id="text3381"
       inkscape:connector-curvature="0" />
    <path
       style="font-style:normal;font-weight:normal;font-size:563.4520874px;line-height:125%;font-family:'Bitstream Vera Sans';text-align:start;text-anchor:start;fill:#ffffff;fill-opacity:1;stroke:none;stroke-width:1px;stroke-linecap:butt;stroke-linejoin:miter;stroke-opacity:1"
       d="m 451.51978,395.81782 c 0.16396,-0.1274 0.25965,-0.26407 0.28703,-0.40999 0.0274,-0.14592 -0.009,-0.28366 -0.1099,-0.4132 l -0.007,-0.009 c -0.11178,-0.14384 -0.24167,-0.21599 -0.38967,-0.21641 -0.14801,-4.2e-4 -0.30403,0.0631 -0.46808,0.19057 l -0.66038,0.5131 0.67422,0.86773 0.67342,-0.52324 z m -2.47859,-0.42804 1.38122,-1.0732 c 0.38272,-0.29738 0.75566,-0.42328 1.11882,-0.37771 0.30681,0.0385 0.57203,0.20167 0.79563,0.48945 l 0.007,0.009 c 0.1901,0.24469 0.28526,0.49039 0.28543,0.73715 1.8e-4,0.24676 -0.0682,0.48099 -0.20504,0.70269 l 1.5766,0.50566 -0.77698,0.60369 -1.39876,-0.46384 -0.009,0.007 -0.51364,0.39909 0.7513,0.96691 -0.66473,0.51649 -2.34783,-3.02169 z"
       id="text3385"
       inkscape:connector-curvature="0" />
    <path
       style="font-style:normal;font-weight:normal;font-size:563.4520874px;line-height:125%;font-family:'Bitstream Vera Sans';text-align:start;text-anchor:start;fill:#ffffff;fill-opacity:1;stroke:none;stroke-width:1px;stroke-linecap:butt;stroke-linejoin:miter;stroke-opacity:1"
       d="m 452.96344,392.035 0.54987,-0.63738 2.89741,2.49958 -0.54985,0.63739 -2.89743,-2.49959 z"
       id="text3389"
       inkscape:connector-curvature="0" />
    <path
       style="font-style:normal;font-weight:normal;font-size:563.4520874px;line-height:125%;font-family:'Bitstream Vera Sans';text-align:start;text-anchor:start;fill:#ffffff;fill-opacity:1;stroke:none;stroke-width:1px;stroke-linecap:butt;stroke-linejoin:miter;stroke-opacity:1"
       d="m 454.83101,389.62109 0.42571,-0.72621 2.64092,1.54812 0.9648,-1.64585 0.66031,0.38707 -1.39054,2.37208 -3.3012,-1.93521 z"
       id="text3393"
       inkscape:connector-curvature="0" />
    <path
       style="font-style:normal;font-weight:normal;font-size:563.4520874px;line-height:125%;font-family:'Bitstream Vera Sans';text-align:start;text-anchor:start;fill:#ffffff;fill-opacity:1;stroke:none;stroke-width:1px;stroke-linecap:butt;stroke-linejoin:miter;stroke-opacity:1"
       d="m 456.88615,385.60832 0.26361,-0.79944 2.90726,0.95861 0.59742,-1.81185 0.72689,0.23967 -0.86101,2.6113 -3.63417,-1.19829 z"
       id="text3397"
       inkscape:connector-curvature="0" />
    <path
       style="fill:#ffffff;fill-rule:evenodd;stroke:#000000;stroke-width:0;stroke-linecap:butt;stroke-linejoin:miter;stroke-miterlimit:4;stroke-dasharray:none;stroke-opacity:1"
       d="m 432.93921,384.30674 c 0.008,-0.16832 -0.20361,-0.59444 -0.35174,-0.74256 -0.11796,-0.11797 -0.25488,-0.35343 -0.35174,-0.54716 -0.15565,-0.31131 -0.38105,-0.54225 -0.50808,-0.85981 -0.14453,-0.5796 -0.42065,-1.22933 -0.70348,-1.87595 -0.0238,-0.36036 -0.18938,-0.7406 -0.23449,-1.09431 -0.0317,-0.24885 -0.0391,-0.48577 -0.0391,-0.74257 0,-0.24923 0.0391,-0.52195 0.0391,-0.78165 0,-0.35173 0,-0.70348 0,-1.05522 0,-0.33095 0.15632,-0.60834 0.15632,-0.93797 0,-0.22551 0.38803,-0.54158 0.46899,-0.70348 0.94103,-0.18459 1.67701,-0.4841 2.65761,-0.58625 1.29471,0.0375 1.37131,0.16835 2.03228,0.2345 0.60825,0.11789 0.88175,0.48663 1.36788,0.78164 0.2368,0.11841 -0.10324,0.49114 -0.15632,0.70349 -0.0259,0.18851 -0.16581,0.36203 -0.24105,0.52705 -0.25291,0.55489 -0.62616,1.01363 -0.77511,1.62248 -0.24099,0.51485 -0.35303,0.64585 -0.58622,1.28972 -0.0872,0.17429 -0.18554,0.47261 -0.27583,0.65316 -0.0991,0.19824 -0.0503,0.97336 0.002,1.18371 0.069,0.27616 0.0478,0.54948 0.15632,0.82074 0.0306,0.0765 0.0521,0.15632 0.0782,0.23449 0.0484,0.19933 0.10068,0.39302 0.15599,0.58119 0.20607,0.70103 0.4545,1.3256 0.70382,1.88099 0.1741,0.40623 0.41089,0.54823 -0.0894,0.42317 -0.21823,-0.0546 -0.1921,-0.11843 -0.30143,-0.22775 -0.12323,-0.12324 -0.27935,-0.19976 -0.4299,-0.31267 -0.15367,-0.11525 -0.23707,-0.27613 -0.35175,-0.39082 -0.22819,-0.22819 -0.28146,-0.47687 -0.54714,-0.74257 -0.14877,-0.76768 -0.74878,-1.5521 -1.13339,-2.34494 -0.15579,-0.31155 -0.363,-0.56967 -0.50808,-0.85981 -0.11043,-0.22088 -0.2569,-0.36324 -0.31266,-0.58623 -0.0811,-0.32442 -0.0391,-0.80316 -0.0391,-1.17248 -0.0705,-0.61454 -0.12323,-1.03837 0.0782,-1.60236 0.0394,-0.79443 0.64283,-0.63118 1.17247,-0.58625 0.34617,0 0.50868,-0.0191 0.74257,0.15634 0.53538,0.40153 0.27357,0.34461 0.27357,0.93796 0,0.27993 -0.0541,0.54622 -0.19542,0.78165 -0.15981,0.26637 -0.2786,0.5963 -0.42991,0.8989 -0.0228,0.0457 -0.0391,-0.43236 -0.0391,-0.54715 0,-0.2958 -0.24907,-0.47389 -0.46898,-0.42992 -0.34651,0.0693 -0.36681,0.23307 -0.50808,0.58625 -0.0858,0.21462 0.0739,0.60387 0.11724,0.82072 0.11414,0.54935 0.53931,0.96723 1.05523,0.74257 0.15598,-0.156 0.31265,-0.37958 0.31265,-0.58623 0,-0.2727 0.16875,-0.55865 0.27358,-0.82074 0.12484,-0.31208 0.26774,-0.66767 0.42991,-0.93797 0.17865,-0.50036 0.49899,-0.98902 0.19541,-1.60238 -0.20231,-0.47089 -0.41539,-0.8391 -0.8989,-0.97706 -0.18527,-0.037 -0.8307,-0.0309 -1.01613,0 -0.61745,0.0181 -1.11641,0.21724 -1.71963,0.35174 -0.19573,0.0489 -0.18486,0.30954 -0.2345,0.50808 -0.0695,0.27797 -0.0865,0.58048 -0.15632,0.8598 -0.0873,0.34922 0.0525,0.80675 -0.0782,1.13339 -0.099,0.24762 -0.0897,0.83668 0.0391,1.09431 0.15544,0.31088 0.21038,0.68437 0.4299,0.97706 0.38188,0.50917 0.47197,1.07848 0.85981,1.56329 0.26785,0.33483 0.32829,0.6175 0.50807,0.97706 0.0261,0.0521 0.0521,0.10423 0.0782,0.15633 0.20566,0.41131 0.65456,0.91831 0.85981,1.32881 0.14281,0.28561 0.44849,0.6197 0.66441,0.78164 0.24165,0.18124 0.43482,0.42629 0.62532,0.6644 1.24267,0.80315 2.11234,0.91963 2.54035,0.54716 0.20735,-0.20737 -0.2339,-0.53373 -0.31266,-0.58624 -0.36169,-0.34237 -0.63078,-0.86303 -0.82074,-1.44605 -0.10457,-0.4183 -0.3176,-0.83063 -0.50807,-1.21155 -0.20604,-0.61104 -0.40248,-1.22626 -0.42989,-1.87595 0,-0.34934 -0.0274,-0.60539 0.0391,-0.93799 0.0807,-0.78123 0.81455,-1.47922 0.94023,-2.06687 0.1874,-0.24987 0.314,-0.44871 0.38859,-0.74706 0.56261,-0.48217 1.00893,-1.33938 1.25962,-2.11269 0.0535,-0.21403 -0.28366,-0.4689 -0.36073,-0.62307 -0.0797,-0.15933 -0.3803,-0.38029 -0.54715,-0.54715 -0.16512,-0.16512 -0.20065,-0.35698 -0.35174,-0.50807 -0.15435,-0.15435 -0.44234,-0.36507 -0.62533,-0.27357 -0.22449,0.11223 -0.26934,0.35174 -0.54715,0.35174 -0.22146,0 -0.44293,0 -0.66439,0 -0.37095,0 -0.76954,-0.12265 -1.1334,-0.19542 -0.25722,-0.0514 -0.78717,-0.19818 -1.01614,-0.31265 -0.20514,-0.10257 -0.52586,-0.0121 -0.78165,0.0391 -1.30226,0.28666 -2.6578,-0.20901 -2.73576,1.36788 -0.11809,0.66219 -0.30255,1.24767 -0.34387,1.91305 -0.0549,0.88332 0.0141,1.84782 -0.008,2.73775 0,0.35586 0.0692,0.66143 0.19542,0.97705 0.17105,0.42765 0.44959,0.81136 0.62531,1.25065 0.70035,1.03194 1.32192,1.81658 1.91504,2.46218 0.21357,0.16019 0.038,-0.19653 0.42991,0.19542 z"
       id="path3419"
       sodipodi:nodetypes="cssccssssscccccsccssscscssssccsscccsssssssccsscccccssssssssssccccccccccssssssssccscsccc"
       inkscape:connector-curvature="0" />
    <path
       style="fill:#ffffff;fill-rule:evenodd;stroke:#000000;stroke-width:0;stroke-linecap:butt;stroke-linejoin:miter;stroke-miterlimit:4;stroke-dasharray:none;stroke-opacity:1"
       d="m 434.71994,371.68627 -1.85979,-1.52915 c -0.0689,0.0138 -0.13776,0.0275 -0.20664,0.0413 -0.66432,0.16784 -1.93553,0.0537 -2.47971,0.41329 -0.90393,0.51492 -1.49851,1.42845 -2.14909,2.06643 -0.21038,0.10518 -0.11774,0.60431 -0.20664,0.82656 -0.15429,0.38576 -0.12733,0.83494 -0.28929,1.23986 -0.17314,0.43281 -0.16532,1.08761 -0.16532,1.57047 0,0.71872 0.0413,1.43374 0.0413,2.14909 0,0.5064 0.12569,1.45323 0.24797,1.94244 -0.0107,1.35633 3.05642,4.50919 4.79412,7.52179 0.24822,0.49644 0.41828,0.50365 0.86789,0.57858 0.0961,0.016 0.19288,0.0276 0.28931,0.0413 0.62813,0.0897 0.97118,0.45461 1.6118,0.45461 0.33404,0 0.67821,0.16955 0.99188,0.24796 0.31942,0.0798 0.82011,0.0413 1.15719,0.0413 0.55233,0 1.13639,-0.0413 1.69448,-0.0413 0.299,0 0.61289,0.0638 0.8679,0 0.26596,-0.0665 0.64383,0 0.90922,0 0.27795,0 0.64206,-0.12399 0.95057,-0.12399 0.20076,0 0.55582,-0.50336 0.74391,-0.57858 0.44976,-0.17991 0.67418,-0.68281 0.90922,-1.07455 0.17169,-0.28616 0.33252,-0.58619 0.41329,-0.90923 0.08,-0.31985 0.003,-0.61905 -0.33064,-0.70258 -0.29545,-0.0739 -0.34078,-0.21952 -0.61992,-0.28931 -0.28554,-0.0714 -0.44799,-0.088 -0.66125,-0.24796 -0.37269,-0.27951 -0.82536,-0.56936 -1.19854,-0.8679 -0.36897,-0.29518 -0.78424,-0.55744 -1.23984,-0.78525 -0.28534,-0.14267 -0.30795,-0.30539 -0.5786,-0.24797 -0.26186,0.0556 -0.40256,-0.62665 -0.2893,-1.15719 0.0832,-0.38979 -0.0923,-0.45812 -0.20664,-0.74391 -0.27057,-0.65868 -0.59248,-0.31386 0.0827,-0.90923 0.43949,-0.32962 0.80205,-1.24033 1.07454,-1.69447 0.44647,-0.66588 1.05724,-1.42839 1.07454,-2.10775 0.22129,-0.36882 0.47291,-1.20798 0.37196,-1.61181 -0.0317,-0.4819 -0.55504,-1.38991 -0.99189,-2.19042 -0.70527,-0.42587 -0.79104,-1.6709 -1.48783,-1.98376 -0.18119,-0.0362 -0.46153,0.0121 -0.57859,0.0413 -0.18022,0.045 -0.43307,0.66125 -0.61993,0.66125 0.64911,0.68436 1.12208,1.42206 1.61181,2.10776 0.3697,0.75018 0.79712,1.2091 0.74391,2.06642 -0.10653,1.13646 -0.90552,2.24071 -1.19852,2.72769 -0.0413,0.0827 -0.45462,0.61992 -0.49595,0.70258 -0.16483,0.32966 -0.20923,0.29446 -0.33064,0.53727 -0.11441,0.22884 -0.30536,0.48675 -0.41326,0.70258 -0.11017,0.22033 -0.009,0.94915 0.0413,1.19853 0.0729,0.36482 0.36253,0.29295 0.45461,0.66125 0.074,0.29586 0,0.7272 0,1.03322 0,0.26465 0.0413,0.758 0.0413,1.0332 0,0.27199 0.4017,0.0694 0.61993,0.124 0.3711,0.0928 0.45963,0.54228 0.90923,0.70258 0.39728,0.14165 1.18847,0.86036 1.52915,1.11586 0.33213,0.24911 0.0257,-0.144 -0.0827,0.2893 -1.15988,0.83843 -2.67453,0.92767 -4.09152,0.82657 -2.81489,-0.23702 -3.00777,0.0325 -4.09152,-1.23984 -1.37622,-1.9233 -2.80211,-3.76269 -4.17418,-5.95132 -0.0449,-1.3901 -0.009,-3.05458 0.0827,-4.46347 0,-0.79974 0.20664,-0.94186 0.20664,-1.7358 0.19764,-1.11924 1.16723,-1.81452 2.0251,-2.10774 1.21285,-0.33259 2.43746,-0.37196 3.67824,-0.37196 z"
       id="path3930"
       sodipodi:nodetypes="cccccssssccssssssssssssssssssscccccccsccccsssssssssscccccccc"
       inkscape:connector-curvature="0" />
    <path
       style="fill:#ffffff;fill-rule:evenodd;stroke:#000000;stroke-width:0;stroke-linecap:butt;stroke-linejoin:miter;stroke-miterlimit:4;stroke-dasharray:none;stroke-opacity:1"
       d="m 432.13404,369.62873 c -0.46028,-0.21546 -1.01269,-0.1408 -1.48767,-0.0633 -0.14705,-0.0294 0.41275,-0.29438 0.50644,-0.41149 0.1865,-0.23314 0.51069,-0.30282 0.79131,-0.44313 0.41357,0.0492 1.04208,0.25402 1.45601,0.41149 0.38173,0.0954 0.89621,0.25321 1.29775,0.25321 1.43192,-1.32007 3.10902,-2.65531 4.74786,-3.89325 0.25679,-0.10046 2.46774,-0.41893 3.07028,-0.41149 0.41231,0.20616 0.87422,0.0221 1.10784,0.41149 0.41193,0.58875 1.37788,1.42785 1.23445,1.89915 -0.008,0.58975 -0.18663,1.19335 -0.34819,1.80419 -0.009,0.0181 -0.89846,0.0633 -0.94957,0.0633 -0.20046,0 -0.40093,0 -0.60139,0 -0.24788,0 -0.32686,-0.042 -0.37983,-0.095 0.38894,-0.27402 0.62132,-0.48812 0.98122,-0.91791 0.11309,-0.11308 -0.0266,-0.428 -0.0633,-0.5381 -0.17199,-0.4893 -0.49638,-0.86065 -0.63303,-1.36104 -0.7065,0.0407 -1.63954,0.0155 -2.34229,0.1899 -0.25419,0.10168 -0.49702,0.19505 -0.728,0.37984 -0.4048,0.43196 -0.52651,0.44937 -1.17113,1.10783 0.0681,0.6221 -0.29917,1.21281 -0.22157,1.86749 0.33495,0.71502 0.18785,0.52472 1.32939,0.63305 0.21068,0.0242 0.53178,-0.0217 0.64486,0.0358 0.0436,0.0221 0.0563,0.0597 0.0199,0.12244 -0.0455,0.0784 -0.0249,0.43976 -0.34819,0.60139 -0.29669,0.14835 -0.99753,0.25015 -1.32939,0.31654 -0.0528,0.0105 -0.10551,0.0211 -0.15827,0.0317 -0.21611,0.0432 -0.32321,0.0836 -0.5381,0.1266 -0.65227,0.076 -0.85507,0.52691 -1.25207,0.78186 -0.26375,0.16938 -0.81055,0.13593 -1.24846,0.10441 -0.24685,0 -0.31114,-0.0448 -0.4748,-0.12661 -0.12048,-0.0602 -0.15826,-0.31653 -0.18991,-0.44313 -0.0302,-0.12088 -0.32243,-0.35408 -0.41147,-0.44313 -0.1374,-0.1374 -0.28388,-0.15729 -0.44314,-0.31652 -0.21118,-0.21119 -0.35655,-0.35447 -0.60139,-0.53811 -0.14373,-0.1078 -0.20407,-0.2357 -0.34819,-0.37982 -0.31093,-0.34525 -0.45969,-0.60565 -0.9179,-0.75965 z"
       id="path3932"
       sodipodi:nodetypes="ccsccccccccsscccccccccssssscscssssscc"
       inkscape:connector-curvature="0" />
  </g>
</svg>
