<?xml version="1.0" encoding="UTF-8" standalone="no"?>
<!-- Created with Inkscape (http://www.inkscape.org/) -->

<svg
   xmlns:dc="http://purl.org/dc/elements/1.1/"
   xmlns:cc="http://creativecommons.org/ns#"
   xmlns:rdf="http://www.w3.org/1999/02/22-rdf-syntax-ns#"
   xmlns:svg="http://www.w3.org/2000/svg"
   xmlns="http://www.w3.org/2000/svg"
   xmlns:sodipodi="http://sodipodi.sourceforge.net/DTD/sodipodi-0.dtd"
   xmlns:inkscape="http://www.inkscape.org/namespaces/inkscape"
   width="333.99426"
   height="82.621262"
   id="svg30260"
   version="1.1"
   inkscape:version="0.48.0 r9654"
   sodipodi:docname="New document 72">
  <defs
     id="defs30262" />
  <sodipodi:namedview
     id="base"
     pagecolor="#ffffff"
     bordercolor="#666666"
     borderopacity="1.0"
     inkscape:pageopacity="0.0"
     inkscape:pageshadow="2"
     inkscape:zoom="1.979899"
     inkscape:cx="152.75565"
     inkscape:cy="18.036344"
     inkscape:document-units="px"
     inkscape:current-layer="layer1"
     showgrid="false"
     fit-margin-top="0"
     fit-margin-left="0"
     fit-margin-right="0"
     fit-margin-bottom="0"
     showborder="false"
     inkscape:showpageshadow="false"
     inkscape:window-width="1366"
     inkscape:window-height="706"
     inkscape:window-x="-8"
     inkscape:window-y="-8"
     inkscape:window-maximized="1" />
  <metadata
     id="metadata30265">
    <rdf:RDF>
      <cc:Work
         rdf:about="">
        <dc:format>image/svg+xml</dc:format>
        <dc:type
           rdf:resource="http://purl.org/dc/dcmitype/StillImage" />
        <dc:title></dc:title>
      </cc:Work>
    </rdf:RDF>
  </metadata>
  <g
     inkscape:label="Layer 1"
     inkscape:groupmode="layer"
     id="layer1"
     transform="translate(-59.260879,-70.896537)">
    <path
       inkscape:connector-curvature="0"
       d="m 201.24255,130.44291 14.78998,0 0,-14.70556 -14.78998,0 0,14.70556 z"
       style="fill:#98958c;fill-opacity:1;fill-rule:nonzero;stroke:none"
       id="path30060" />
    <path
       inkscape:connector-curvature="0"
       d="m 216.01252,117.94169 0.02,0 0,-33.102613 12.68497,0.04278 -0.02,-11.513828 -40.2149,-0.03269 0.002,11.503779 12.75746,0 0,45.605852 0.004,0 c 0.56249,-2.92053 1.96749,-5.64517 4.09749,-7.91529 2.92999,-3.16411 6.29249,-4.58795 10.66747,-4.58795"
       style="fill:#084168;fill-opacity:1;fill-rule:nonzero;stroke:none"
       id="path30096" />
    <path
       inkscape:connector-curvature="0"
       d="m 81.785828,119.68337 c -16.324963,-0.73076 -22.524949,-10.7856 -22.524949,-24.639873 0,-14.723138 8.72498,-24.707649 21.95495,-24.122542 13.15497,0.582584 20.814951,8.141291 22.272451,19.451716 l -13.67747,0 c -0.669999,-4.015396 -4.867489,-7.420582 -8.572481,-7.420582 -6.257486,0 -7.752482,6.526597 -7.752482,12.550962 0,6.021839 2.079995,12.365139 8.154981,12.365139 3.887491,0 7.894983,-2.76986 8.259982,-7.05396 l 13.67996,0.0928 c 0,11.7122 -10.582467,19.28096 -21.794942,18.7762"
       style="fill:#084168;fill-opacity:1;fill-rule:nonzero;stroke:none"
       id="path30080" />
    <path
       inkscape:connector-curvature="0"
       d="m 105.19087,118.28983 0.42,-44.990592 35.83742,0 -0.095,10.167836 -21.65496,0 0.0474,7.237257 18.32996,-0.09302 0,10.077429 -18.41996,0.0904 0.09,7.42059 21.68245,0 0,10.51689 -36.23742,-0.42691 z"
       style="fill:#084168;fill-opacity:1;fill-rule:nonzero;stroke:none"
       id="path30076" />
    <path
       inkscape:connector-curvature="0"
       d="m 171.72703,118.44291 -13.79497,-23.765962 -0.0924,23.999512 -13.49497,-0.23355 0.2725,-45.108621 13.31497,-0.0904 15.59495,24.182817 -0.27499,-24.182817 13.76997,0.0904 0,45.342171 -15.29496,-0.23355 z"
       style="fill:#084168;fill-opacity:1;fill-rule:nonzero;stroke:none"
       id="path30092" />
    <path
       inkscape:connector-curvature="0"
       d="m 230.2865,118.51121 0.41999,-44.993092 35.83992,0 -0.0976,10.167837 -21.65495,0 0.05,7.237257 18.32746,-0.09303 0,10.077418 -18.41996,0.0904 0.0926,7.42061 21.68245,0 0,10.51689 -36.23991,-0.42441 z"
       style="fill:#084168;fill-opacity:1;fill-rule:nonzero;stroke:none"
       id="path30112" />
    <path
       inkscape:connector-curvature="0"
       d="m 297.95334,118.85726 -15.91996,-23.788559 -0.20251,23.788559 -13.05247,0 0,-45.27687 14.53747,0 14.55746,24.88595 0,-24.88595 13.35998,0 0.002,45.27687 -13.28247,0 z"
       style="fill:#084168;fill-opacity:1;fill-rule:nonzero;stroke:none"
       id="path30116" />
    <path
       inkscape:connector-curvature="0"
       d="m 349.72582,118.12289 0,-9.21107 -21.68245,0 -0.09,-7.42058 18.41996,-0.0904 0,-10.077431 -18.32996,0.09303 -0.0476,-7.237257 21.65495,0 0.095,-10.167836 -35.83742,0 -0.42,44.990594 34.33242,0.40181 c 0.43501,-0.69312 1.15,-1.19285 1.905,-1.28073"
       style="fill:#084168;fill-opacity:1;fill-rule:nonzero;stroke:none"
       id="path30064" />
    <path
       inkscape:connector-curvature="0"
       d="m 362.60869,78.977454 c 0,2.669404 -2.1525,4.834054 -4.81249,4.834054 -2.65749,0 -4.81248,-2.16465 -4.81248,-4.834054 0,-2.669403 2.15499,-4.834053 4.81248,-4.834053 2.65999,0 4.81249,2.16465 4.81249,4.834053 z"
       style="fill:none;stroke:#084168;stroke-width:0.87695616;stroke-linecap:butt;stroke-linejoin:miter;stroke-miterlimit:4;stroke-opacity:1;stroke-dasharray:none"
       id="path30164" />
    <path
       inkscape:connector-curvature="0"
       d="m 355.28221,82.045129 0,-6.390995 2.82499,0 c 0.565,0 0.99749,0.05529 1.2925,0.170713 0.295,0.115423 0.5325,0.318927 0.70749,0.607727 0.17501,0.293805 0.26501,0.615234 0.26501,0.966811 0,0.452007 -0.14501,0.836213 -0.44,1.145091 -0.29,0.313903 -0.7425,0.509779 -1.3525,0.595156 0.2225,0.108159 0.39,0.213452 0.5075,0.316405 0.245,0.228526 0.4775,0.509779 0.6975,0.851307 l 1.09999,1.737744 -1.05249,0 -0.84,-1.328416 c -0.24751,-0.384226 -0.45,-0.67803 -0.6075,-0.881433 -0.16,-0.203404 -0.3025,-0.34403 -0.4275,-0.426905 -0.125,-0.08031 -0.25499,-0.138225 -0.38499,-0.168292 -0.095,-0.02018 -0.25001,-0.03269 -0.46751,-0.03269 l -0.9775,0 0,2.837656 -0.84499,0 z m 0.84499,-3.568414 1.81,0 c 0.385,0 0.685,-0.04016 0.905,-0.120467 0.215,-0.08031 0.38,-0.205926 0.4925,-0.384227 0.1124,-0.175758 0.16999,-0.36663 0.16999,-0.572535 0,-0.301351 -0.10999,-0.549955 -0.32749,-0.745832 -0.22,-0.193515 -0.565,-0.291302 -1.03749,-0.291302 l -2.01251,0 0,2.114424"
       style="fill:#084168;fill-opacity:1;fill-rule:nonzero;stroke:none"
       id="path30160" />
    <path
       inkscape:connector-curvature="0"
       d="m 200.97055,133.32627 c 0,3.99281 1.4825,7.31513 4.22999,9.49233 2.20751,1.77792 4.775,2.52877 8.49999,2.52877 2.49499,0 3.93999,-0.23605 6.03748,-1.10493 l 0.7225,-3.67889 -0.7225,0 c -0.83249,1.85827 -2.81999,2.84768 -5.78499,2.84768 -5.82248,0 -9.94497,-4.23135 -9.94497,-10.20549 0,-0.94673 0.09,-1.91857 0.2525,-2.81255 l -2.98749,-0.0803 c -0.18,0.94422 -0.30251,2.03658 -0.30251,3.01344"
       style="fill:#98958c;fill-opacity:1;fill-rule:nonzero;stroke:none"
       id="path30100" />
    <path
       inkscape:connector-curvature="0"
       d="m 204.26055,130.44482 11.77248,0 0,-10.52441 c -0.2325,-0.0182 -0.46001,-0.0426 -0.70501,-0.0426 -5.41498,0 -9.97747,4.56033 -11.06747,10.56712"
       style="fill:#084168;fill-opacity:1;fill-rule:nonzero;stroke:none"
       id="path30108" />
    <path
       inkscape:connector-curvature="0"
       d="m 240.40797,134.57383 c 0,5.89126 -4.40999,10.87599 -9.61748,10.87599 -4.44999,0 -7.44998,-3.28213 -7.44998,-8.22667 0,-6.12984 4.33998,-10.75796 10.12747,-10.75796 3.975,0 6.93999,3.44033 6.93999,8.10864 m -14.42747,3.08375 c 0,3.56089 1.9875,5.89379 5.02748,5.89379 3.8325,0 6.76249,-4.03299 6.76249,-9.29395 0,-3.59854 -1.80999,-5.89376 -4.66499,-5.89376 -4.05248,0 -7.12498,3.99529 -7.12498,9.29392"
       style="fill:#98958c;fill-opacity:1;fill-rule:nonzero;stroke:none"
       id="path30120" />
    <path
       inkscape:connector-curvature="0"
       d="m 255.77893,130.30129 -0.6525,0 c -0.25249,-1.18781 -0.82999,-1.70259 -1.91499,-1.70259 -0.725,0 -1.4825,0.27873 -2.2425,0.87138 -0.50499,0.35658 -0.93999,0.83121 -1.26749,1.346 -0.54,0.8287 -0.7225,1.34349 -1.12,3.44033 l -2.1325,10.91617 -2.71249,0 2.89499,-14.87129 0.1776,-0.75336 c 0.0376,-0.19593 0.075,-0.47462 0.075,-0.6705 0,-0.83121 -0.32749,-1.10744 -1.30249,-1.10744 l -0.25501,0 0.1826,-0.79101 4.5925,-0.5148 -0.76,3.83711 c 1.15749,-2.41327 3.10999,-3.83711 5.24499,-3.83711 0.6875,0 1.33749,0.1582 2.09499,0.5148 l -0.9025,3.32231"
       style="fill:#98958c;fill-opacity:1;fill-rule:nonzero;stroke:none"
       id="path30124" />
    <path
       inkscape:connector-curvature="0"
       d="m 258.92403,150.71027 c -0.1074,0.59266 -0.18,0.90906 -0.18,1.06727 0,0.673 0.14499,0.79103 1.1925,1.10743 l -0.1426,0.63283 -5.49749,0 0.10739,-0.63283 c 0.3625,-0.0402 0.50751,-0.0803 0.76,-0.19836 0.5775,-0.27622 0.76,-0.55245 0.94,-1.50169 l 4.04999,-20.8831 0.14501,-0.75336 c 0.0726,-0.23605 0.0726,-0.47463 0.0726,-0.67051 0,-0.8312 -0.28999,-1.10743 -1.265,-1.10743 l -0.255,0 0.14501,-0.79104 4.62999,-0.51478 -0.58,2.88788 c 0.58,-0.71318 0.83249,-0.94923 1.3025,-1.34601 1.22749,-0.94924 3.03748,-1.54187 4.59248,-1.54187 3.65249,0 6.29249,2.92554 6.29249,7.00121 0,6.92087 -5.53499,11.98343 -13.19997,11.98343 -0.8325,0 -1.155,-0.0402 -2.06,-0.15821 l -1.04999,5.41916 z m 1.69999,-7.19958 c 0.5425,0 1.0125,0.0402 1.41,0.0402 6.36498,0 10.30748,-3.75677 10.30748,-9.76856 0,-3.36249 -1.7375,-5.41916 -4.48499,-5.41916 -1.9175,0 -3.65249,1.06726 -5.20749,3.12391 l -2.34999,12.02363 0.32499,0"
       style="fill:#98958c;fill-opacity:1;fill-rule:nonzero;stroke:none"
       id="path30128" />
    <path
       inkscape:connector-curvature="0"
       d="m 295.37635,134.57383 c 0,5.89126 -4.4125,10.87599 -9.61998,10.87599 -4.4475,0 -7.44998,-3.28213 -7.44998,-8.22667 0,-6.12984 4.33998,-10.75796 10.12497,-10.75796 3.97999,0 6.94499,3.44033 6.94499,8.10864 m -14.42998,3.08375 c 0,3.56089 1.99,5.89379 5.02749,5.89379 3.8325,0 6.75999,-4.03299 6.75999,-9.29395 0,-3.59854 -1.80749,-5.89376 -4.66499,-5.89376 -4.04999,0 -7.12249,3.99529 -7.12249,9.29392"
       style="fill:#98958c;fill-opacity:1;fill-rule:nonzero;stroke:none"
       id="path30132" />
    <path
       inkscape:connector-curvature="0"
       d="m 315.1833,127.9292 c 2.02499,-1.02958 4.01499,-1.46401 6.36498,-1.46401 3.725,0 5.78499,1.34599 5.78499,3.79691 0,0.47463 -0.0724,0.94924 -0.18,1.50422 l -1.69999,8.89717 c -0.1426,0.79101 -0.21751,1.06976 -0.21751,1.5042 0,0.8312 0.47001,1.42386 1.1575,1.42386 0.5425,0 0.94,-0.19836 1.9175,-0.98941 l 0.61499,0.67298 c -1.37499,1.42387 -2.63998,2.1747 -3.79748,2.1747 -1.7,0 -2.6775,-1.14761 -2.74749,-3.12391 -1.7725,2.05665 -4.05,3.12391 -6.6175,3.12391 -2.78499,0 -4.77498,-1.85827 -4.77498,-4.42975 0,-4.78633 5.13498,-8.14884 13.34247,-8.70129 0.1826,-0.87139 0.1826,-1.06726 0.1826,-1.38367 0,-1.62224 -1.52,-2.6493 -3.9775,-2.6493 -0.9425,0 -1.88249,0.15557 -2.71249,0.51228 -1.19249,0.4746 -1.7,0.91156 -2.63999,2.09684 l -0.65,0 0.65,-2.96573 z m 5.24499,6.64463 c -4.19499,1.06726 -6.58248,3.20178 -6.58248,5.89126 0,1.54439 1.26499,2.72968 2.89249,2.72968 2.24249,0 4.51999,-1.18529 6.11248,-3.16411 l 1.155,-6.05197 c -2.02249,0.27873 -2.56499,0.35658 -3.57749,0.59514"
       style="fill:#98958c;fill-opacity:1;fill-rule:nonzero;stroke:none"
       id="path30140" />
    <path
       inkscape:connector-curvature="0"
       d="m 310.74031,130.30129 -0.6475,0 c -0.255,-1.18781 -0.8325,-1.70259 -1.91749,-1.70259 -0.72501,0 -1.4825,0.27873 -2.2425,0.87138 -0.505,0.35658 -0.94,0.83121 -1.26499,1.346 -0.54251,0.8287 -0.72501,1.34349 -1.12,3.44033 l -2.135,10.91617 -2.71249,0 2.89249,-14.87129 0.1826,-0.75336 c 0.035,-0.19593 0.07,-0.47462 0.07,-0.6705 0,-0.83121 -0.325,-1.10744 -1.3,-1.10744 l -0.255,0 0.1826,-0.79101 4.59249,-0.5148 -0.76,3.83711 c 1.1575,-2.41327 3.11,-3.83711 5.24249,-3.83711 0.6875,0 1.34,0.1582 2.0975,0.5148 l -0.905,3.32231"
       style="fill:#98958c;fill-opacity:1;fill-rule:nonzero;stroke:none"
       id="path30136" />
    <path
       inkscape:connector-curvature="0"
       d="m 338.50825,126.7394 3.65249,0 -0.255,1.30583 -3.64999,0 -2.28,11.66701 c -0.18,0.87138 -0.25249,1.74027 -0.25249,2.21487 0,1.02961 0.68749,1.70009 1.76999,1.70009 1.3775,0 2.27999,-0.55245 2.92999,-1.85829 l 0.58,0 -0.58,3.00591 c -1.40999,0.5148 -2.205,0.673 -3.57749,0.673 -2.63999,0 -3.90749,-1.06726 -3.90749,-3.20428 0,-0.63283 0.0725,-1.22547 0.29,-2.3329 l 2.315,-11.86541 -2.135,0 0.255,-1.30583 c 0.97499,0 1.12,-0.0777 1.62749,-0.27623 0.61251,-0.27623 1.0475,-1.10744 1.3375,-2.57146 l 0.505,-2.5313 2.56749,-0.67298 -1.19249,6.05197"
       style="fill:#98958c;fill-opacity:1;fill-rule:nonzero;stroke:none"
       id="path30144" />
    <path
       inkscape:connector-curvature="0"
       d="m 371.12617,134.57383 c 0,5.89126 -4.41249,10.87599 -9.61997,10.87599 -4.44749,0 -7.44999,-3.28213 -7.44999,-8.22667 0,-6.12984 4.33999,-10.75796 10.12498,-10.75796 3.97749,0 6.94498,3.44033 6.94498,8.10864 m -14.42996,3.08375 c 0,3.56089 1.98999,5.89379 5.02749,5.89379 3.83249,0 6.76248,-4.03299 6.76248,-9.29395 0,-3.59854 -1.8075,-5.89376 -4.66749,-5.89376 -4.04999,0 -7.12248,3.99529 -7.12248,9.29392"
       style="fill:#98958c;fill-opacity:1;fill-rule:nonzero;stroke:none"
       id="path30148" />
    <path
       inkscape:connector-curvature="0"
       d="m 347.80063,139.71224 -0.29001,1.42386 c -0.0724,0.27623 -0.0724,0.55496 -0.0724,0.79101 0,1.02961 0.435,1.66242 1.1575,1.66242 0.435,0 0.94,-0.23855 1.88,-0.94923 l 0.4725,0.59265 c -1.16,1.34599 -2.6775,2.21487 -3.90749,2.21487 -1.44501,0 -2.42249,-1.10743 -2.42249,-2.80752 0,-0.51479 0.0376,-0.87139 0.36249,-2.45343 l 1.9175,-9.88659 0.1426,-0.75336 c 0.075,-0.23605 0.075,-0.47462 0.075,-0.67048 0,-0.83121 -0.29249,-1.10744 -1.26749,-1.10744 l -0.25251,0 0.14501,-0.79103 4.62749,-0.5148 -2.56749,13.24907 z m 4.04999,-18.58788 c 0,1.42386 -1.23,2.72718 -2.5325,2.72718 -0.97499,0 -1.6625,-0.75086 -1.6625,-1.77795 0,-1.42384 1.26751,-2.72965 2.56749,-2.72965 0.9775,0 1.62751,0.75083 1.62751,1.78042"
       style="fill:#98958c;fill-opacity:1;fill-rule:nonzero;stroke:none"
       id="path30156" />
    <path
       inkscape:connector-curvature="0"
       d="m 380.23765,129.19285 c 2.025,-1.8608 4.08499,-2.72968 6.43499,-2.72968 2.96499,0 4.95498,1.74026 4.95498,4.27154 0,0.51481 -0.145,1.46404 -0.43249,2.88788 l -1.23,6.3684 c -0.2525,1.22546 -0.3625,2.0165 -0.3625,2.37057 0,0.67299 0.54249,1.18779 1.1925,1.18779 0.545,0 1.04999,-0.23855 1.91749,-0.94923 l 0.54251,0.71068 c -0.54251,0.63533 -0.76,0.83119 -1.19251,1.14761 -0.8325,0.59516 -1.955,0.98941 -2.85749,0.98941 -1.41,0 -2.385,-1.06726 -2.385,-2.61165 0,-0.39425 0.10741,-1.18529 0.25251,-1.89847 l 1.47999,-7.67169 c 0.1826,-0.90905 0.25501,-1.58206 0.25501,-2.01649 0,-1.7026 -1.37251,-2.96573 -3.2925,-2.96573 -1.15499,0 -2.45749,0.51228 -3.68749,1.46151 -0.76,0.59516 -1.195,1.02959 -2.135,2.1747 l -2.56499,13.25159 -2.7475,0 2.92749,-14.87131 0.14261,-0.75336 c 0.0374,-0.19593 0.075,-0.47462 0.075,-0.67048 0,-0.83121 -0.32749,-1.10744 -1.26749,-1.10744 l -0.2525,0 0.145,-0.79103 4.62749,-0.5148 -0.54,2.72968"
       style="fill:#98958c;fill-opacity:1;fill-rule:nonzero;stroke:none"
       id="path30152" />
    <path
       inkscape:connector-curvature="0"
       d="m 220.26052,125.09106 3.21748,-3.20178 c -1.73249,-2.76483 -4.03998,-3.95012 -7.53747,-3.95514 l 0,1.97882 c 2.57498,0.21095 4.31999,1.55192 4.31999,3.44034 0,0.4721 -0.10741,0.75086 -0.50751,1.18529 l 0.50751,0.55247"
       style="fill:#98958c;fill-opacity:1;fill-rule:nonzero;stroke:none"
       id="path30104" />
  </g>
</svg>
