<?xml version="1.0" encoding="UTF-8" standalone="no"?>
<!-- Created with Inkscape (http://www.inkscape.org/) -->

<svg
   xmlns:dc="http://purl.org/dc/elements/1.1/"
   xmlns:cc="http://creativecommons.org/ns#"
   xmlns:rdf="http://www.w3.org/1999/02/22-rdf-syntax-ns#"
   xmlns:svg="http://www.w3.org/2000/svg"
   xmlns="http://www.w3.org/2000/svg"
   xmlns:sodipodi="http://sodipodi.sourceforge.net/DTD/sodipodi-0.dtd"
   xmlns:inkscape="http://www.inkscape.org/namespaces/inkscape"
   width="209.35001"
   height="74.339996"
   id="svg2"
   version="1.1"
   inkscape:version="0.47 r22583"
   sodipodi:docname="New document 1">
  <defs
     id="defs4">
    <inkscape:perspective
       sodipodi:type="inkscape:persp3d"
       inkscape:vp_x="0 : 526.18109 : 1"
       inkscape:vp_y="0 : 1000 : 0"
       inkscape:vp_z="744.09448 : 526.18109 : 1"
       inkscape:persp3d-origin="372.04724 : 350.78739 : 1"
       id="perspective10" />
    <clipPath
       id="clipPath2986"
       clipPathUnits="userSpaceOnUse">
      <path
         id="path2988"
         d="m 0,1 0,-1 1.4725,0 0,1" />
    </clipPath>
    <clipPath
       id="clipPath2978"
       clipPathUnits="userSpaceOnUse">
      <path
         id="path2980"
         d="m 0.02007,0.03326 0.96445,0 0,1.76838 -0.96445,0 0,-1.76838 z" />
    </clipPath>
    <clipPath
       id="clipPath2968"
       clipPathUnits="userSpaceOnUse">
      <path
         id="path2970"
         d="m 0,0 611.99994,0 0,791.99994 L 0,791.99994 0,0 z" />
    </clipPath>
    <clipPath
       id="clipPath2960"
       clipPathUnits="userSpaceOnUse">
      <path
         id="path2962"
         d="m -14.011,-17.5 635.825,0 0,600.89 -635.825,0 0,-600.89 z" />
    </clipPath>
    <clipPath
       id="clipPath2864"
       clipPathUnits="userSpaceOnUse">
      <path
         id="path2866"
         d="M 0,1 0,0 1,0 1,1" />
    </clipPath>
    <clipPath
       id="clipPath2856"
       clipPathUnits="userSpaceOnUse">
      <path
         id="path2858"
         d="m -2.52657,-7.27871 3.68948,0 0,8.59019 -3.68948,0 0,-8.59019 z" />
    </clipPath>
    <clipPath
       id="clipPath2846"
       clipPathUnits="userSpaceOnUse">
      <path
         id="path2848"
         d="m 0,0 611.99994,0 0,791.99994 L 0,791.99994 0,0 z" />
    </clipPath>
    <clipPath
       id="clipPath2838"
       clipPathUnits="userSpaceOnUse">
      <path
         id="path2840"
         d="m 412.957,663.1099 176.543,0 0,113.482 -176.543,0 0,-113.482 z" />
    </clipPath>
    <inkscape:perspective
       id="perspective2824"
       inkscape:persp3d-origin="0.5 : 0.33333333 : 1"
       inkscape:vp_z="1 : 0.5 : 1"
       inkscape:vp_y="0 : 1000 : 0"
       inkscape:vp_x="0 : 0.5 : 1"
       sodipodi:type="inkscape:persp3d" />
    <inkscape:perspective
       id="perspective3534"
       inkscape:persp3d-origin="0.5 : 0.33333333 : 1"
       inkscape:vp_z="1 : 0.5 : 1"
       inkscape:vp_y="0 : 1000 : 0"
       inkscape:vp_x="0 : 0.5 : 1"
       sodipodi:type="inkscape:persp3d" />
  </defs>
  <sodipodi:namedview
     id="base"
     pagecolor="#ffffff"
     bordercolor="#666666"
     borderopacity="1.0"
     inkscape:pageopacity="0.0"
     inkscape:pageshadow="2"
     inkscape:zoom="3.7899738"
     inkscape:cx="72.752812"
     inkscape:cy="30.749741"
     inkscape:document-units="px"
     inkscape:current-layer="layer1"
     showgrid="false"
     inkscape:window-width="1680"
     inkscape:window-height="1000"
     inkscape:window-x="-8"
     inkscape:window-y="-8"
     inkscape:window-maximized="1" />
  <metadata
     id="metadata7">
    <rdf:RDF>
      <cc:Work
         rdf:about="">
        <dc:format>image/svg+xml</dc:format>
        <dc:type
           rdf:resource="http://purl.org/dc/dcmitype/StillImage" />
        <dc:title></dc:title>
      </cc:Work>
    </rdf:RDF>
  </metadata>
  <g
     inkscape:label="Layer 1"
     inkscape:groupmode="layer"
     id="layer1"
     transform="translate(729.3383,-62.689034)">
    <path
       d="m -685.54464,96.200378 -21.72704,0 c 0.004,0.20744 0.004,0.41489 0.004,0.62233 0,0.2305 0,0.44947 -0.004,0.67997 l 21.57625,0 0.15079,-1.3023"
       style="fill:#ffffff;fill-opacity:1;fill-rule:nonzero;stroke:none"
       id="path2928-4" />
    <path
       d="m -674.82896,127.96269 5.68129,-26.39174 12.73108,0 -0.93306,4.36789 -7.50595,0 -1.28554,6.00441 7.31933,0 -0.9538,4.36789 -7.31933,0 -1.5551,7.31823 7.81697,0 -0.93306,4.33332 -13.06283,0"
       style="fill:#231f20;fill-opacity:1;fill-rule:nonzero;stroke:none"
       id="path2892" />
    <path
       d="m -612.12738,122.69587 c 0,1.29077 0.45616,2.09751 1.49289,2.09751 1.84539,0 2.52963,-2.10904 3.44196,-6.38473 0.45616,-2.08599 0.91232,-3.84928 0.91232,-5.09395 -0.0207,-1.26773 -0.22808,-2.15514 -1.57583,-2.15514 -1.86612,0 -2.42596,2.08599 -3.37975,6.48845 -0.20735,1.06028 -0.87086,3.39981 -0.89159,5.04786 z m 12.12977,-14.76325 c 0,0 -3.85665,17.78274 -4.81044,22.04691 -0.87085,3.88385 -3.73224,6.25795 -8.25239,6.25795 -3.50416,0 -5.51542,-1.52127 -5.51542,-4.41399 0,-0.36879 0.0829,-0.95655 0.18662,-1.52127 l 4.68603,0 c -0.18662,0.84131 -0.22809,1.55585 0,2.03989 0.20734,0.51861 0.74644,0.77216 1.53436,0.77216 1.26481,0 2.13567,-1.29078 2.5711,-3.33066 l 0.70497,-3.36524 -0.0829,0 c -1.07821,1.55585 -2.5711,1.85549 -4.22987,1.85549 -2.75771,0 -3.79444,-2.12056 -3.79444,-4.43704 0,-1.86701 1.32701,-8.96628 2.32228,-11.31733 1.28555,-3.00797 3.11019,-4.88651 5.90937,-4.88651 1.78318,0 3.15167,0.65691 3.48342,2.53545 l 0.20735,0 0.41469,-2.23581 4.6653,0"
       style="fill:#231f20;fill-opacity:1;fill-rule:nonzero;stroke:none"
       id="path2894" />
    <path
       d="m -598.67059,128.81553 -0.5391,-20.88291 5.01778,0 -0.55983,14.6019 0.0829,0 5.61909,-14.61342 5.1422,0 -13.20797,27.72862 -5.03852,0 3.48342,-6.83419"
       style="fill:#231f20;fill-opacity:1;fill-rule:nonzero;stroke:none"
       id="path2896" />
    <path
       d="m -675.22292,85.032885 c 0,-3.296088 1.34775,-11.04074 3.25534,-15.627602 1.6173,-3.860801 4.7275,-5.508845 9.47573,-5.508845 3.85665,0 6.05452,1.878539 6.05452,5.220725 0,1.32535 -0.33175,3.203889 -0.68424,4.609912 l -4.95558,0 c 0.33175,-1.578895 0.47689,-2.984918 0.47689,-3.710979 0,-1.164003 -0.74644,-1.83244 -1.96979,-1.83244 -2.0942,0 -2.92358,1.32535 -3.69077,3.445909 -1.01599,2.835096 -2.50889,9.761489 -2.50889,12.930804 0,1.555845 0.72572,2.258856 2.30155,2.258856 2.6955,0 3.21387,-3.077116 3.83591,-5.889162 l 5.07999,0 c -1.09894,6.937917 -4.06399,10.153331 -9.8697,10.153331 -4.45795,0 -6.80096,-2.051411 -6.80096,-6.050509"
       style="fill:#231f20;fill-opacity:1;fill-rule:nonzero;stroke:none"
       id="path2898" />
    <path
       d="m -646.98233,78.383086 c 0.18661,-0.898932 0.4147,-1.83244 0.4147,-2.800521 0,-0.968082 -0.43543,-1.936163 -1.74171,-1.936163 -2.42596,0 -2.98579,3.031017 -3.33828,4.736684 l 4.66529,0 z m -5.3288,3.042542 c -0.22808,1.106379 -0.60131,2.443254 -0.60131,3.584207 0.0207,1.336874 0.4769,2.408679 1.67951,2.408679 1.80391,0 2.55036,-1.901589 2.90285,-3.584207 l 4.93485,0 c -1.45143,5.474271 -4.33354,7.122314 -8.60488,7.122314 -4.00179,0 -5.76424,-2.258856 -5.76424,-5.243774 0,-2.212758 0.24882,-3.261513 0.64278,-5.209201 1.18187,-5.508845 2.90285,-10.22248 9.57941,-10.22248 3.60783,0 5.70203,1.740242 5.70203,5.347498 0,1.705667 -0.4147,3.595731 -0.9538,5.796964 l -9.5172,0"
       style="fill:#231f20;fill-opacity:1;fill-rule:nonzero;stroke:none"
       id="path2900" />
    <path
       d="m -606.90225,78.383086 c 0.18661,-0.898932 0.41469,-1.83244 0.41469,-2.800521 0,-0.968082 -0.43542,-1.936163 -1.74171,-1.936163 -2.44669,0 -2.98579,3.031017 -3.35901,4.736684 l 4.68603,0 z m -5.3288,3.042542 c -0.24882,1.106379 -0.60131,2.443254 -0.60131,3.584207 0.0207,1.336874 0.4769,2.408679 1.67951,2.408679 1.80391,0 2.55036,-1.901589 2.90285,-3.584207 l 4.91411,0 c -1.45142,5.474271 -4.31281,7.122314 -8.58414,7.122314 -4.02253,0 -5.76424,-2.258856 -5.76424,-5.243774 0,-2.212758 0.22808,-3.261513 0.64278,-5.209201 1.18187,-5.508845 2.90285,-10.22248 9.57941,-10.22248 3.58709,0 5.70202,1.740242 5.68129,5.347498 0,1.705667 -0.39396,3.595731 -0.93306,5.796964 l -9.5172,0"
       style="fill:#231f20;fill-opacity:1;fill-rule:nonzero;stroke:none"
       id="path2902" />
    <path
       d="m -632.28146,115.79252 c 0.18661,-0.8874 0.43543,-1.83244 0.43543,-2.80052 0,-0.96808 -0.45617,-1.93616 -1.76245,-1.93616 -2.42595,0 -2.96505,3.03102 -3.33828,4.73668 l 4.6653,0 z m -5.30807,3.04255 c -0.24882,1.10638 -0.60131,2.44325 -0.60131,3.5842 0,1.33688 0.4769,2.40868 1.67951,2.40868 1.78318,0 2.52963,-1.90159 2.90285,-3.57268 l 4.91411,0 c -1.45142,5.46275 -4.33354,7.11079 -8.58414,7.11079 -4.02252,0 -5.78497,-2.25886 -5.78497,-5.24378 0,-2.21275 0.24882,-3.26151 0.66351,-5.2092 1.16114,-5.50884 2.88212,-10.22248 9.57941,-10.22248 3.58709,0 5.68129,1.74025 5.68129,5.3475 0,1.71719 -0.41469,3.59573 -0.93306,5.79697 l -9.5172,0"
       style="fill:#231f20;fill-opacity:1;fill-rule:nonzero;stroke:none"
       id="path2904" />
    <path
       d="m -634.33419,72.712895 0.14514,0 c 1.38922,-1.786341 2.73698,-2.431729 4.64456,-2.431729 2.07347,0 3.60783,1.221627 3.62857,3.330662 0,0.345743 -0.0415,0.714536 -0.12441,1.106378 l -3.35901,15.823523 -4.97632,0 2.96505,-13.587715 c 0.12441,-0.610814 0.20735,-1.175528 0.20735,-1.648044 0,-0.921982 -0.33175,-1.509746 -1.40995,-1.509746 -1.70025,0 -2.19788,1.267726 -2.59184,3.15779 l -2.94432,13.587715 -4.87264,0 4.29207,-19.914819 4.83118,0 -0.43543,2.085985"
       style="fill:#231f20;fill-opacity:1;fill-rule:nonzero;stroke:none"
       id="path2906" />
    <path
       d="m -544.51169,72.712895 0.14515,0 c 1.38922,-1.786341 2.73697,-2.431729 4.64456,-2.431729 2.07346,0 3.60783,1.221627 3.62856,3.330662 0,0.345743 -0.0415,0.714536 -0.12441,1.106378 l -3.35901,15.823523 -4.97632,0 2.96506,-13.587715 c 0.12441,-0.610814 0.20735,-1.175528 0.20735,-1.648044 0,-0.921982 -0.33176,-1.509746 -1.40996,-1.509746 -1.70024,0 -2.19787,1.267726 -2.59183,3.15779 l -2.94432,13.587715 -4.87265,0 4.29208,-19.914819 4.83117,0 -0.43543,2.085985"
       style="fill:#231f20;fill-opacity:1;fill-rule:nonzero;stroke:none"
       id="path2908" />
    <path
       d="m -651.44028,110.15691 0.14515,0 c 1.38922,-1.79787 2.73697,-2.44326 4.64456,-2.44326 2.07346,0 3.60783,1.22163 3.62856,3.33066 0,0.34575 -0.0415,0.71454 -0.12441,1.10638 l -3.33828,15.82353 -4.97631,0 2.94432,-13.58772 c 0.12441,-0.61081 0.22808,-1.17553 0.20735,-1.64804 0,-0.92198 -0.33176,-1.50975 -1.38923,-1.50975 -1.70024,0 -2.19787,1.26773 -2.61256,3.15779 l -2.94432,13.58772 -4.87265,0 4.31281,-19.91482 4.83118,0 -0.45617,2.09751"
       style="fill:#231f20;fill-opacity:1;fill-rule:nonzero;stroke:none"
       id="path2910" />
    <path
       d="m -622.10075,67.503694 5.47395,-2.443253 -1.20261,5.554944 2.50889,0 -0.72571,3.39981 -2.52963,0 -2.50889,11.640028 c -0.0415,0.207446 -0.0622,0.391842 -0.0622,0.553189 0.0207,0.691487 0.47689,1.002656 1.5551,1.002656 0.31102,0 0.64277,-0.03457 0.91232,-0.115248 l -0.74645,3.445909 c -0.68424,0.06915 -1.53436,0.195922 -2.75771,0.195922 -2.6955,0 -4.06399,-1.267726 -4.06399,-3.607257 0,-0.380317 0.0622,-0.898932 0.14515,-1.244676 l 4.00178,-18.382024"
       style="fill:#231f20;fill-opacity:1;fill-rule:nonzero;stroke:none"
       id="path2912" />
    <path
       d="m -532.52706,67.503694 5.45321,-2.443253 -1.20261,5.554944 2.52963,0 -0.72571,3.39981 -2.52963,0 -2.52963,11.640028 c -0.0415,0.207446 -0.0622,0.391842 -0.0622,0.553189 0.0207,0.691487 0.49763,1.002656 1.5551,1.002656 0.33175,0 0.64277,-0.03457 0.91232,-0.115248 l -0.72571,3.445909 c -0.70498,0.06915 -1.53436,0.195922 -2.75771,0.195922 -2.71624,0 -4.06399,-1.267726 -4.06399,-3.607257 0,-0.380317 0.0622,-0.898932 0.12441,-1.244676 l 4.02252,-18.382024"
       style="fill:#231f20;fill-opacity:1;fill-rule:nonzero;stroke:none"
       id="path2914" />
    <path
       d="m -594.10897,70.62691 -0.58057,2.650699 0.16588,0 c 0.97453,-1.786341 2.26007,-2.904245 5.01778,-2.904245 l -1.03673,4.794309 c -0.22808,-0.01153 -0.45616,-0.02305 -0.66351,-0.02305 -2.5711,0 -3.83591,1.256201 -4.31281,3.572682 l -2.50889,11.835949 -4.95558,0 4.29207,-19.926344 4.58236,0"
       style="fill:#231f20;fill-opacity:1;fill-rule:nonzero;stroke:none"
       id="path2916" />
    <path
       d="m -619.17716,108.0133 -0.60131,2.6507 0.18662,0 c 0.95379,-1.77482 2.23934,-2.90425 5.01778,-2.90425 l -1.03673,4.79431 c -0.22808,-0.0115 -0.45616,-0.023 -0.68425,-0.023 -2.55036,0 -3.81517,1.26773 -4.3128,3.57268 l -2.5089,11.83595 -4.93484,0 4.29207,-19.92634 4.58236,0"
       style="fill:#231f20;fill-opacity:1;fill-rule:nonzero;stroke:none"
       id="path2918" />
    <path
       d="m -584.34295,76.804192 1.84538,0 c 2.79918,0 4.16767,-3.365236 4.16767,-6.200332 0,-1.751767 -0.70498,-2.454778 -2.21861,-2.454778 l -1.82465,0 -1.96979,8.65511 z m -2.44669,-12.654209 7.50594,0 c 4.25061,0 6.09599,2.374105 6.09599,5.601043 0,1.659569 -0.14514,2.247332 -0.55983,3.814702 -1.11967,4.264169 -3.50416,7.387384 -8.25239,7.387384 l -3.15167,0 -2.05273,9.588617 -5.2044,0 5.61909,-26.391746"
       style="fill:#231f20;fill-opacity:1;fill-rule:nonzero;stroke:none"
       id="path2920" />
    <path
       d="m -565.28781,81.898144 c 0.70498,-2.685273 1.18188,-4.909556 1.18188,-6.00441 0,-0.887408 -0.18661,-2.12056 -1.65877,-2.12056 -2.55037,0 -2.84065,2.858146 -3.71151,5.958312 -0.47689,1.671093 -0.97452,3.607256 -0.97452,5.49732 0,1.521271 0.58057,2.143609 1.72097,2.143609 2.21861,0 2.79918,-2.973393 3.44195,-5.474271 z m -9.97336,4.010624 c 0,-0.864359 0.31102,-4.390941 1.18187,-7.260612 1.63804,-5.370547 3.40048,-8.36699 8.75002,-8.36699 4.31281,0 5.93011,1.867014 5.93011,5.197676 0,1.025705 -0.31102,3.468959 -0.95379,6.096609 -1.40996,5.843063 -3.37975,9.369646 -9.20618,9.369646 -3.71151,0 -5.70203,-1.728717 -5.70203,-5.036329"
       style="fill:#231f20;fill-opacity:1;fill-rule:nonzero;stroke:none"
       id="path2922" />
    <path
       d="m -549.75755,64.207607 -0.93306,4.356367 -4.93485,0 0.95379,-4.356367 4.91412,0 z m -5.6813,26.368697 -4.89338,0 4.29208,-19.972444 4.89337,0 -4.29207,19.972444"
       style="fill:#231f20;fill-opacity:1;fill-rule:nonzero;stroke:none"
       id="path2924" />
    <path
       d="m -707.07134,96.223446 21.12861,0 c -0.31102,-11.409532 -9.66235,-20.560208 -21.14935,-20.560208 -11.71507,0 -21.19081,9.484894 -21.19081,21.182546 0,11.697656 9.47574,21.182546 21.19081,21.182546 11.46626,0 20.79686,-9.1161 21.14935,-20.502584 l -21.12861,0 0,-1.3023"
       style="fill:#1e9cd6;fill-opacity:1;fill-rule:nonzero;stroke:none"
       id="path2926" />
    <path
       d="m -578.39211,96.223446 -107.55062,0 c 0.0207,0.207446 0.0207,0.414892 0.0207,0.622338 0,0.230496 0,0.449466 -0.0207,0.679962 l 106.80418,0 0.74644,-1.3023"
       style="fill:#1e9cd6;fill-opacity:1;fill-rule:nonzero;stroke:none"
       id="path2928" />
    <path
       d="m -524.10879,87.211068 c 0.5391,-0.01152 0.66351,-0.24202 0.66351,-0.518615 0,-0.276595 -0.12441,-0.414892 -0.58057,-0.414892 l -0.68425,0 0,0.933507 0.60131,0 z m -0.60131,0.576239 0,1.59042 -0.58057,0 0,-3.676405 1.20261,0 c 0.66351,0 1.36849,0.184396 1.36849,1.01418 0,0.426417 -0.26955,0.760636 -0.74645,0.852834 l 0,0.02305 c 0.49763,0.0922 0.55984,0.322694 0.62204,0.714536 0.0415,0.357268 0.0829,0.737586 0.20735,1.071805 l -0.72571,0 c -0.0415,-0.207446 -0.10368,-0.449467 -0.12441,-0.656913 -0.0415,-0.322694 -0.0415,-0.610813 -0.20735,-0.783685 -0.14514,-0.149822 -0.33175,-0.138297 -0.5391,-0.149822 l -0.4769,0 z m 3.23461,-0.207446 c 0,-1.406023 -1.16114,-2.570026 -2.5711,-2.570026 -1.43069,0 -2.59183,1.164003 -2.59183,2.570026 0,1.429073 1.16114,2.581551 2.59183,2.581551 1.40996,0 2.5711,-1.152478 2.5711,-2.581551 z m -5.70203,0 c 0,-1.717192 1.38922,-3.111691 3.13093,-3.111691 1.72098,0 3.1102,1.394499 3.1102,3.111691 0,1.740242 -1.38922,3.13474 -3.1102,3.13474 -1.74171,0 -3.13093,-1.394498 -3.13093,-3.13474"
       style="fill:#231f20;fill-opacity:1;fill-rule:nonzero;stroke:none"
       id="path2930" />
  </g>
</svg>
