<?xml version="1.0" encoding="utf-8"?>
<!-- Generator: Adobe Illustrator 14.0.0, SVG Export Plug-In . SVG Version: 6.00 Build 43363)  -->
<!DOCTYPE svg PUBLIC "-//W3C//DTD SVG 1.1//EN" "http://www.w3.org/Graphics/SVG/1.1/DTD/svg11.dtd">
<svg version="1.1" id="Layer_1" xmlns="http://www.w3.org/2000/svg" xmlns:xlink="http://www.w3.org/1999/xlink" x="0px" y="0px"
	 width="300px" height="120px" viewBox="0 0 300 120" enable-background="new 0 0 300 120" xml:space="preserve">
<rect x="2.592" y="3.022" fill="#FFFFFF" width="294.832" height="114.397"/>
<rect x="9.568" y="10.023" fill="#C0151B" width="280.845" height="100.39"/>
<path fill="#C5960C" d="M7.762,8.198H292.24v104.046H7.762V8.198z M288.608,11.835H11.401v96.768h277.208V11.835z"/>
<path fill="#C5960C" d="M2.592,3.022h294.832V117.42H2.592V3.022z M299,1.44H1V119h298V1.44z"/>
<g>
	<path fill="#0D0607" d="M53.778,46.561c3.065-0.409,6.121-1.18,9.754-2.434c2.65-0.914,5.548-2.008,8.438-3.785
		c5.57-3.397,12.992-10.347,7.887-12.459c-3.333-1.389-11.07,2.971-18.529,10.003c-1.217,1.121-6.65,7.653-7.318,8.384
		C53.927,46.339,53.912,46.385,53.778,46.561 M52.387,35.676c7.403-5,15.328-9.596,22.292-10.729
		c1.577-0.248,2.916-0.363,4.118-0.283c0.834,0.067,2.629,0.184,4.672,1.095c3.193,1.646,3.777,6.004-0.1,10.741
		c-3.203,3.921-11.744,8.342-16.774,9.996c-2.122,0.683-9.094,2.682-15.598,3.627c-6.09,8.105-8.861,11.545-12.391,21.023
		c-2.629,7.063-1.785,13.766,3.723,14.959c2.045,0.451,4.024-0.648,6.105-2.271c1.458-1.136,2.836-2.51,3.899-3.789
		c0.903-1.092,3.393-5.42,3.88-6.545c5.503-12.852-2.147-11.667-5.759-5.717c-2.346,3.881-1.393,7.316-2.462,7.465
		c-0.669,0.098-1.154-3.089-0.706-5.604c1.129-6.326,6.705-12.405,12.337-11.28c3.329,0.667,4.033,4.562,3.193,9.313
		c-1.282,7.164-7.46,15.581-11.654,18.625c-2.242,1.633-7.558,5.116-13.837,3.855c-3.85-0.752-8.97-4.119-9.993-11.882
		c-0.798-6.027,0.679-11.614,2.635-15.804c2.116-4.512,4.695-9.005,7.986-13.283c-1.776-0.646-3.494-1.529-4.711-2.757
		c-5.476-5.501-1.293-10.661,0.467-11.827c3.517-2.287,10.369-1.431,10.302,0c-0.031,0.686-7.16,0.244-8.034,5.664
		c-0.599,3.654,1.425,5.648,3.817,6.643C43.205,42.891,47.324,39.091,52.387,35.676"/>
	<path fill-rule="evenodd" clip-rule="evenodd" fill="#0D0607" d="M267.499,42.174c-2.66-4.811,0.904-8.513,4.291-7.439
		c3.089,0.967,3.57,4.256,2.082,6.225c-1.793,2.387-7.927,4.764-7.927,4.764C265.451,45.723,268.067,43.189,267.499,42.174"/>
	<path fill-rule="evenodd" clip-rule="evenodd" fill="#0D0607" d="M258.251,82.584c1.318-1.338,2.413-2.995,2.681-4.748
		c0.735-4.668,0.446-8.399,0.598-12.008c-4.183,5.202-8.438,10.908-12.483,15.418C251.497,81.093,254.916,81.851,258.251,82.584
		 M210.192,61.693l0.884-0.342c4.149-1.643,8.373-4.279,6.515-5.736C216.196,54.507,210.674,57.75,210.192,61.693 M180.292,69.729
		c-1.446,3.319-5.495,11.511-2.112,12.468c3.542,0.988,6.873-4.893,9.175-9.488c2.276-4.545,5.407-11.622,2.194-12.847
		c-2.51-0.941-5.69,3.528-7.232,6.01C181.54,67.313,180.86,68.609,180.292,69.729 M191.256,50.334
		c5.553-3.785,10.532-7.099,13.448-12.077c0.534-0.903,1.428-4.432-0.836-4.007C201.524,34.713,196.343,42.076,191.256,50.334
		 M153.744,66.928l-2.604,5.918c-0.544,1.232-3.712,8.496-1.684,10.191c2.336,1.947,7.537-5.314,10.191-10.473
		c2.531-4.917,5.422-11.707,2.108-12.79C158.901,58.837,155.587,62.809,153.744,66.928 M86.527,65.491
		c1.056-2.346,1.886-4.151,0.915-5.376c-1.789-2.22-7.129,3.128-10.944,9.57c-2.662,4.518-6.456,11.379-3.854,12.898
		c1.385,0.805,3.452-1.21,5.357-3.668C80.018,76.596,84.824,68.932,86.527,65.491 M187.622,56.402
		c2.683-0.945,5.776-1.574,7.558-1.04c3.983,1.196,4.386,4.779,3.398,8.637c1.185-0.146,2.434-0.291,3.744-0.463
		c-0.008-3.963,4.202-8.624,8.471-10.055c4.965-1.689,11.938-1.296,12.979,2.134c1.225,4.029-4.175,6.792-7.59,7.913
		c-0.848,0.268-1.646,0.561-2.152,0.658c-0.995,0.218-2.013,0.433-3.02,0.628c1.854,2.398,6.037,2.174,6.762,2.443
		c-0.162,0.33-1.688,3.168-1.688,3.168c-1.147-0.098-5.633,0.393-8.34,2.114c-3.374,2.149-6.408,6.269-4.42,8.612
		c2.296,2.667,6.722-0.429,9.76-2.807c3.503-2.764,5.593-4.9,8.882-10.12c7.775-14.229,19.361-35.179,19.709-35.354h8.268
		c0,0-22.613,41.316-23.088,42.306c-1.181,2.479-3.484,5.894-1.141,6.456c0.702,0.164,1.875,0.21,4.324-2.539
		c1.307-1.461,2.974-3.707,5.124-7.139c7.35-12.996,21.701-38.883,22.094-39.084h8.623c0,0-22.619,41.316-23.092,42.306
		c-1.181,2.479-3.249,6.113-1.214,6.731c3.984,1.264,16.774-18.637,20.896-25.58l8.797-1.081
		c-1.253,10.175-0.317,9.869-0.445,15.866c-0.086,4.584-1.686,9.336-4.217,12.758c5.156,0.233,10.073-0.482,10.693-0.299
		c1.753,0.532-2.615,4.922-5.094,5.643c-3.394,0.979-7.749-0.369-9.473-1.729c-0.331,0.188-0.668,0.365-1.023,0.526
		c-3.775,1.645-7.607,1.971-10.837,0.89c-2.254-0.754-4.782-2.132-5.224-4.139c-3.433,3.243-6.642,5.166-9.435,4.596
		c-3.243-0.662-4.803-3.649-5.157-6.271c-3.411,3.582-7.743,6.961-11.438,6.412c-4.474-0.678-5.813-5.848-4.494-8.593
		c-0.971,0.943-2.082,2.032-3.185,2.989c-3.882,3.318-6.742,4.486-8.445,5.049c-5.862,1.932-8.384-0.881-9.281-3.881
		c-2.218-7.4,10.567-15.628,14.409-16.225c0,0-3.752-0.903-5.334-2.533c-2.369,0.473-4.479,0.941-6.057,1.465
		c-0.463,1.055-0.978,2.076-1.502,3.016c-4.189,7.559-10.38,15.372-15.815,17.821c-8.099,3.634-10.007-2.085-10.225-3.293
		c-1.049-5.856,2.053-15.548,6.4-23.297c-2.26,0.989-4.455,1.881-6.49,2.62c-1.392,7.975-7.232,21.006-16.136,24.444
		c-5.864,2.267-6.823-4.782-6.193-7.45l-9.789,22.404c0,0-7.539-0.019-7.558-0.055c4.158-9.027,14.144-31.674,14.144-31.748
		c-3.819,6.796-6.976,12.488-10.642,15.369c-2.855,2.25-9.276,3.795-9.979-1.689c-0.709-5.527,11.804-23.537,6.079-23.537
		c-3.134,0-4.959,5.271-5.981,7.63c-0.89,2.046-8.622,19.603-8.622,19.603h-7.617c7.029-16.599,8.662-19.301,10.583-24.29
		c0.696-1.799-0.721-3.001-1.688-2.942c-3.314,0.176-6.521,9.229-14.394,27.232h-7.621l8.182-18.875
		c-2.771,3.677-10.374,17.124-16.994,18.77c-3.456,0.867-5.786-3.168-5.208-7.793c-1.955,3.971-10.108,11.639-15.665,5.573
		c-4.502-4.919,2.164-16.956,5.7-21.175c2.916-3.494,8.931-8.523,13.531-9.542c3.578-0.792,5.805,0.696,6.834,3.146
		c0.475-1.209,1.003-2.465,1.035-2.485h7.908c-8.74,19.767-12.395,24.715-11.226,25.87c0.507,0.508,1.425-0.776,3.132-2.847
		c1.982-2.384,4.286-5.804,6.496-9.259c3.245-5.059,5.319-7.965,7.946-12.512h9.716l-0.608,1.441
		c3.687-3.263,5.591-3.167,7.477-2.798c2.51,0.493,3.199,1.977,3.446,2.798c0.384-0.305,6.687-6.182,12.339-3.652
		c3.796,1.697,0.773,8.948-1.395,13.653c-1.206,2.623-3.377,8.009-4.977,11.374c-2.005,4.186,0.138,3.439,2.824-0.281
		c1.959-2.705,3.44-5.328,5.955-9.61c4.106-6.991,9.077-15.366,11.47-20.452l8.599,0.035l-2.372,5.445
		c1.528-1.385,4.32-2.633,7.598-1.578c2.116,0.69,3.796,3.026,3.962,5.961c3.615-1.107,6.466-2.135,8.834-3.135
		c4.146-6.598,10.206-15.689,16.359-21.428c2.036-1.9,4.017-3.626,5.91-4.688c3.431-1.904,6.636-1.791,8.405,0.377
		c4.238,5.154-5.5,13.817-12.794,18.981c-2.321,1.644-5.465,3.532-8.949,5.425L187.622,56.402z"/>
	<path fill="#FFFFFF" d="M51.087,45.026c5.428-0.696,11.76-2.394,18.851-6.761c5.57-3.399,12.865-10.433,7.76-12.541
		c-3.34-1.386-11.07,2.967-18.529,9.999c-1.221,1.123-6.651,7.659-7.328,8.392C51.727,44.253,51.441,44.6,51.087,45.026
		 M50.219,33.508c10.118-6.822,21.441-12.047,29.474-10.457c4.523,0.895,5.975,5.846,1.519,11.285
		c-3.207,3.93-11.744,8.352-16.774,9.998c-2.122,0.685-8.834,2.822-15.592,3.623c-6.092,8.107-8.87,11.549-12.404,21.031
		c-2.629,7.057-1.708,14.102,3.791,15.286c4.76,1.055,10.76-6.698,12.054-9.207c8.646-16.751-0.061-15.913-3.983-9.442
		c-2.354,3.879-1.397,7.313-2.46,7.461c-0.679,0.092-0.918-2.838-0.479-5.354c1.133-6.322,6.475-12.651,12.102-11.526
		c3.327,0.673,4.215,4.528,3.366,9.274c-1.286,7.17-7.631,15.627-11.823,18.666c-2.248,1.621-7.563,5.108-13.843,3.857
		c-3.846-0.754-8.966-4.129-9.993-11.88c-0.794-6.033,0.679-11.616,2.639-15.81c2.12-4.521,4.691-9.001,7.99-13.291
		c-1.779-0.633-3.501-1.521-4.718-2.751c-5.472-5.507-1.293-10.661,0.475-11.813c3.509-2.301,10.367-1.453,10.294,0
		c-0.031,0.662-7.15,0.236-8.038,5.652c-0.603,3.704,1.481,5.595,3.911,6.543C41.111,40.668,45.202,36.906,50.219,33.508"/>
	<path fill-rule="evenodd" clip-rule="evenodd" fill="#FFFFFF" d="M265.719,40.4c-2.661-4.82,0.899-8.516,4.296-7.449
		c3.079,0.967,3.564,4.265,2.076,6.235c-1.793,2.376-7.935,4.765-7.935,4.765C263.67,43.951,266.282,41.418,265.719,40.4"/>
	<path fill-rule="evenodd" clip-rule="evenodd" fill="#FFFFFF" d="M200.312,62.595c-1.023-4.041,3.731-8.524,8.449-10.099
		c4.969-1.684,12.054-2.348,13.101,1.081c1.213,4.029-4.422,6.671-7.831,7.793c-0.844,0.264-1.651,0.563-2.162,0.658
		c-0.995,0.218-1.994,0.425-3.01,0.628c1.849,2.385,6.027,2.177,6.756,2.447c-0.102,0.354-1.686,3.162-1.686,3.162
		c-1.145-0.096-5.643,0.402-8.336,2.116c-3.38,2.142-6.418,6.272-4.422,8.614c2.292,2.669,6.714-0.435,9.746-2.816
		c3.513-2.756,5.61-4.898,8.894-10.11c7.779-14.231,19.359-35.187,19.703-35.358h8.271c0,0-22.617,41.326-23.084,42.31
		c-1.192,2.472-3.479,6.167-1.145,6.733c1.083,0.26,3.863,0.593,10.133-9.621c7.352-12.984,21.361-39.221,21.759-39.422h8.271
		c0,0-22.619,41.326-23.09,42.31c-1.185,2.472-3.249,6.104-1.229,6.733c3.962,1.243,18.119-18.789,22.342-25.846l7.533-0.93
		c-2.194,11.064-0.694,10.45-1.051,16.931c-0.243,4.52-1.521,8.716-3.732,11.796c5.282,0.203,10.506-0.563,11.128-0.383
		c1.756,0.532-2.84,4.951-5.327,5.664c-3.431,0.99-7.841-0.395-9.528-1.772c-0.389,0.233-0.79,0.452-1.209,0.632
		c-3.789,1.648-7.613,1.973-10.838,0.896c-2.212-0.741-4.664-2.067-5.192-3.997c-3.435,3.221-6.64,5.125-9.41,4.558
		c-3.266-0.662-4.845-3.718-5.212-6.396c-3.415,3.597-7.735,6.991-11.443,6.433c-4.474-0.676-5.813-5.852-4.498-8.593
		c-0.971,0.947-2.082,2.034-3.188,2.979c-3.878,3.321-6.742,4.504-8.438,5.063c-5.86,1.928-8.388-0.885-9.285-3.879
		c-2.21-7.41,10.563-15.63,14.413-16.219c0,0-3.756-0.907-5.338-2.547c-2.373,0.477-4.47,0.947-6.049,1.467
		c-0.463,1.055-0.985,2.074-1.506,3.02c-4.185,7.551-10.521,15.154-15.961,17.6c-8.099,3.639-9.861-1.873-10.079-3.071
		c-1.051-5.864,2.049-15.546,6.396-23.295c-2.251,0.989-4.458,1.873-6.49,2.61c-1.384,7.979-7.236,21.012-16.136,24.444
		c-5.866,2.267-6.821-4.772-6.189-7.448l-9.416,21.58c0,0-7.994,0.037-8.011,0c4.156-9.021,14.226-30.906,14.226-30.977
		c-3.821,6.798-6.974,12.49-10.64,15.373c-2.858,2.248-9.28,3.795-9.984-1.689c-0.711-5.529,11.81-23.547,6.075-23.547
		c-3.125,0-4.946,5.271-5.979,7.64c-0.892,2.04-8.283,18.854-8.283,18.854l-7.533,0.004c7.026-16.586,8.243-18.563,10.167-23.545
		c0.681-1.798-0.723-3.002-1.688-2.953c-3.322,0.189-6.073,8.502-13.952,26.498h-7.78l7.896-18.131
		c-2.774,3.666-10.236,17.465-16.991,18.773c-3.501,0.678-5.788-3.176-5.218-7.795c-1.959,3.961-10.102,11.633-15.659,5.565
		c-4.5-4.915,2.156-16.95,5.698-21.181c6.353-7.59,11.815-9.469,14.014-9.993c2.514-0.58,5.254,0.481,6.417,2.659
		c0.425-0.959,0.677-1.523,0.706-1.538h8.166c-8.742,19.776-12.339,24.657-11.226,25.872c2.9,3.165,16.26-17.281,19.906-25.872h7.86
		l-1.32,2.966c1.117-0.987,5.644-4.516,8.985-4.194c2.906,0.299,3.57,3.272,3.815,4.432c0.384-0.306,5.483-6.073,10.703-4.163
		c3.907,1.431,0.767,8.954-1.393,13.649c-1.217,2.631-3.585,7.937-4.986,11.38c-1.141,2.79,0.88,4.31,3.873,0.823
		c7.313-8.503,11.111-17.821,17.373-31.138h7.605l-3.93,9.023c2.38-2.43,6.49-5.266,9.551-4.466c2.325,0.61,3.586,2.625,3.586,5.987
		l-0.008,0.465c2.954-0.911,5.505-1.767,7.74-2.599c7.634-12.519,14.465-18.927,16.971-21.354c5.769-5.574,12.292-9.033,14.79-6.098
		c4.324,5.085-5.504,13.817-12.794,18.981c-2.323,1.646-5.463,3.542-8.947,5.437l-1.193,2.055c2.649-1.73,6.445-3.724,8.705-3.047
		c4.487,1.328,4.441,5.697,2.97,10.078C197.288,63.078,198.748,62.874,200.312,62.595 M151.586,64.766l-2.6,5.926
		c-0.551,1.232-3.719,8.492-1.695,10.186c2.346,1.949,7.548-5.317,10.202-10.473c2.532-4.924,5.415-11.713,2.105-12.792
		C156.742,56.68,153.393,60.846,151.586,64.766 M85.061,63.892c1.041-2.066,1.278-4.657,0.302-5.888
		c-1.787-2.217-7.127,3.133-10.933,9.572C71.763,72.1,68.384,79.22,70.988,80.74c2.26,1.322,5.864-2.773,8.069-6.138
		C81.238,71.297,83.343,67.359,85.061,63.892 M256.09,80.427c1.325-1.339,2.42-3.002,2.688-4.741
		c0.71-4.556,0.456-8.21,0.586-11.746c-4.121,5.126-8.304,10.701-12.28,15.133C249.517,78.967,252.841,79.711,256.09,80.427
		 M208.051,60.694c0.616-0.208,1.24-0.435,1.862-0.675c4.147-1.653,8.131-4.982,6.277-6.442
		C214.65,52.361,207.512,56.273,208.051,60.694 M178.136,67.569c-1.456,3.321-5.493,11.511-2.118,12.464
		c3.546,0.986,6.885-4.883,9.175-9.486c2.284-4.541,5.403-11.626,2.198-12.843c-2.511-0.938-5.694,3.532-7.236,6.012
		C179.393,65.154,178.702,66.448,178.136,67.569 M187.056,51.549l0.806-0.547c6.536-4.564,11.335-9.179,14.685-14.896
		c0.54-0.918,1.42-4.441-0.844-4.014C199.045,32.622,192.718,42.037,187.056,51.549"/>
</g>
</svg>
