<?xml version="1.0" encoding="utf-8"?>
<!-- Generator: Adobe Illustrator 22.0.0, SVG Export Plug-In . SVG Version: 6.00 Build 0)  -->
<svg version="1.1" id="Layer_1" xmlns="http://www.w3.org/2000/svg" xmlns:xlink="http://www.w3.org/1999/xlink" x="0px" y="0px"
	 viewBox="0 0 342.5 240" style="enable-background:new 0 0 342.5 240;" xml:space="preserve">
<style type="text/css">
	.st0{fill:#009CDB;}
	.st1{fill:#FFFFFF;}
</style>
<path class="st0" d="M168.3,11l-5.6,2.1c-7.3,3.2-13.9,7.8-19.3,13.5c-12.1-15.8-31.1-26-52.5-26c-36.5,0-66.1,29.5-66.1,66
	c0,9.3,1.9,18.2,5.4,26.2c-17,9.9-28.4,28.5-28.4,49.7c0,31.7,25.4,57.4,56.8,57.4c4,0,7.9-0.4,11.7-1.2c8.6,23.4,31.1,40,57.4,40
	c25.3,0,47-15.4,56.3-37.3c7.1,3.5,15,5.4,23.5,5.4c20.1,0,37.6-11.1,46.8-27.5c4.7,0.9,9.5,1.4,14.4,1.4c40.5,0,73.3-33.1,73.3-74
	c0-40.9-32.8-74-73.3-74c-10.6,0-20.6,2.3-29.7,6.3c-10.4-18.6-30-31.1-52.5-31.1c-4.2,0-8.3,0.4-12.3,1.3L168.3,11"/>
<path class="st1" d="M51.1,124.7L51.1,124.7l0.2,0.2l1.9,1.2c3.5,1.8,6.7,2.4,10.2,2.4c7,0,11.3-3.7,11.3-9.7v-0.1
	c0-5.5-4.9-7.5-9.5-9l-0.6-0.2c-3.5-1.1-6.4-2.1-6.4-4.4V105c0-2,1.7-3.4,4.5-3.4c3,0,6.6,1,8.9,2.3c0,0,0.7,0.4,0.9-0.2l1.4-3.8
	c0.1-0.4-0.1-0.6-0.3-0.8c-2.6-1.6-6.3-2.7-10-2.7l-0.7,0c-6.4,0-10.8,3.9-10.8,9.4v0.1c0,5.8,4.9,7.7,9.5,9l0.7,0.2
	c3.4,1,6.3,1.9,6.3,4.3v0.1c0,2.2-1.9,3.8-4.9,3.8l-1.3,0l-2.1-0.3c-1.6-0.3-3.5-1-5.6-2.3l-1.2-0.7c-0.2-0.1-0.7-0.3-0.9,0.3
	l-1.4,3.8L51.1,124.7"/>
<path class="st1" d="M153.2,124.7L153.2,124.7l0.2,0.2l1.9,1.2c2.6,1.4,5.1,2,7.6,2.3l2.5,0.1l2.5-0.2c5.5-0.8,8.8-4.3,8.8-9.5v-0.1
	c0-5.5-4.9-7.5-9.5-9l-0.6-0.2c-3.5-1.1-6.4-2.1-6.4-4.4V105c0-2,1.7-3.4,4.5-3.4c3,0,6.6,1,8.9,2.3c0,0,0.7,0.4,0.9-0.2l1.4-3.8
	c0.1-0.4-0.1-0.6-0.3-0.8c-2.6-1.6-6.3-2.7-10-2.7l-0.7,0c-6.4,0-10.8,3.9-10.8,9.4v0.1c0,5.8,4.9,7.7,9.5,9l0.7,0.2
	c3.4,1,6.3,1.9,6.3,4.3v0.1c0,2.2-1.9,3.8-4.9,3.8c-1.2,0-4.9,0-9-2.6l-1.2-0.7c-0.1-0.1-0.7-0.3-0.9,0.3l-1.4,3.8L153.2,124.7"/>
<path class="st1" d="M217.2,102l1.5,0.5c0.9,0.5,1.7,1.1,2.3,2.1c1.2,1.9,1.9,4.5,1.9,7.9c0,3.4-0.6,6-1.9,7.9
	c-1.2,1.9-3.1,2.8-5.7,2.8s-4.4-0.9-5.6-2.8c-1.2-1.9-1.8-4.6-1.8-7.9c0-3.4,0.6-6,1.8-7.9c1.2-1.8,3.1-2.7,5.6-2.7L217.2,102
	 M215.4,96.5l-3.3,0.3l-2.9,0.9c-1.8,0.8-3.3,2-4.5,3.4c-1.2,1.4-2.1,3.1-2.6,5.1c-0.6,1.9-0.9,4-0.9,6.3c0,2.2,0.3,4.3,0.9,6.3
	c0.6,1.9,1.5,3.6,2.7,5.1c1.2,1.4,2.7,2.6,4.5,3.4c1.8,0.8,3.9,1.2,6.2,1.2s4.5-0.4,6.2-1.2c1.8-0.8,3.3-1.9,4.5-3.4
	c1.2-1.4,2.1-3.1,2.6-5.1c0.6-1.9,0.9-4,0.9-6.3c0-2.2-0.3-4.3-0.9-6.3c-0.6-1.9-1.5-3.6-2.6-5.1c-1.2-1.4-2.7-2.6-4.5-3.4l-2.9-0.9
	L215.4,96.5"/>
<path class="st1" d="M265.7,96.8l-3,0.9c-1.9,0.8-3.4,2-4.7,3.4c-1.2,1.4-2.2,3.1-2.8,5.1c-0.6,1.9-0.9,4-0.9,6.3
	c0,4.8,1.3,8.7,3.9,11.6c2.6,2.9,6.5,4.3,11.5,4.3c3,0,6-0.6,8.2-1.5c0,0,0.4-0.2,0.2-0.7l-1.4-4c-0.2-0.6-0.7-0.4-0.7-0.4l-2.7,0.8
	l-3.2,0.2c-2.8,0-5.1-0.8-6.7-2.5c-1.6-1.7-2.5-4.3-2.5-8c0-3.3,0.8-5.8,2.2-7.7c1.4-1.9,3.6-2.8,6.5-2.8c2.4,0,4.2,0.3,6.2,0.9
	c0,0,0.5,0.2,0.7-0.4l1.4-4c0.2-0.4-0.2-0.6-0.4-0.7l-1.7-0.5l-2.2-0.5l-4.4-0.3L265.7,96.8"/>
<path class="st1" d="M307.2,110.9L307.2,110.9l-0.1-2.7c-0.1-1-0.3-2.1-0.6-3.2c-0.5-1.9-1.7-3.8-2.5-4.6c-1.3-1.4-2.5-2.3-3.7-2.8
	l-2.6-0.8l-3-0.3l-3.5,0.3l-1.6,0.4l-1.4,0.6c-1.8,0.9-3.3,2-4.5,3.5c-1.2,1.4-2.1,3.2-2.7,5.1c-0.6,1.9-0.9,4.1-0.9,6.3
	c0,2.3,0.3,4.4,0.9,6.3c0.6,1.9,1.6,3.6,2.9,5c1.3,1.4,3,2.5,4.9,3.3c2,0.8,4.4,1.2,7.2,1.2c5.7,0,8.7-1.3,9.9-2
	c0.2-0.1,0.4-0.3,0.2-0.9l-1.3-3.6c-0.2-0.5-0.7-0.3-0.7-0.3c-1.4,0.5-3.4,1.5-8.1,1.5c-3.1,0-5.3-0.9-6.7-2.3
	c-1.5-1.4-2.2-3.6-2.3-6.6l19.7,0c0,0,0.5,0,0.6-0.5L307.2,110.9 M286.8,109.2l0.6-2.6c0.3-0.8,0.6-1.5,1-2.1c1.2-1.8,3-2.9,5.6-2.9
	c2.6,0,4.3,1,5.5,2.9l0.5,1l0.4,1.1l0.4,2.5H286.8"/>
<path class="st1" d="M128.9,109.2l0.6-2.6c0.3-0.8,0.6-1.5,1-2.1c1.2-1.8,3-2.9,5.6-2.9c2.6,0,4.3,1,5.5,2.9l0.5,1l0.4,1.1l0.4,2.5
	H128.9 M133.1,96.8l-1.6,0.4c-0.5,0.2-1,0.3-1.4,0.6c-1.8,0.9-3.3,2-4.5,3.5c-1.2,1.4-2.1,3.2-2.7,5.1c-0.6,1.9-0.9,4.1-0.9,6.3
	c0,2.3,0.3,4.4,0.9,6.3c0.6,1.9,1.6,3.6,2.9,5c1.3,1.4,3,2.5,5,3.3c2,0.8,4.4,1.2,7.2,1.2c5.7,0,8.7-1.3,9.9-2
	c0.2-0.1,0.4-0.3,0.2-0.9l-1.3-3.6c-0.2-0.5-0.7-0.3-0.7-0.3c-1.4,0.5-3.4,1.5-8.1,1.5c-3.1,0-5.3-0.9-6.7-2.3
	c-1.5-1.4-2.2-3.6-2.3-6.6l19.7,0c0,0,0.5,0,0.6-0.5c0-0.2,0.7-4.1-0.6-8.5c-0.5-1.9-1.7-3.8-2.5-4.6c-1.3-1.4-2.5-2.3-3.7-2.8
	l-2.6-0.8l-3-0.3L133.1,96.8"/>
<path class="st1" d="M92,113.2l3.7,0.2l1.6,0.2l0,9c0,0-2.5,0.5-5.3,0.7c-4,0.2-5.8-1.2-5.8-1.2c-0.8-0.6-0.9-0.8-1.1-1.2
	c-0.4-0.6-0.6-1.5-0.6-2.6c0-1.7,0.6-3,1.8-3.8c0,0,1-0.8,3.1-1.2L92,113.2 M88.6,108.4l-2.4,0.5c-1.5,0.4-2.9,1.1-4.1,1.9
	c-1.2,0.9-2.2,2-2.9,3.3c-0.7,1.3-1.1,2.8-1.1,4.5c0,1.7,0.3,3.3,0.9,4.5c0.6,1.2,1.5,2.3,2.6,3.1c1.1,0.8,2.4,1.4,4,1.7
	c1.6,0.4,3.3,0.5,5.2,0.5c2,0,4-0.2,6-0.5l5-1l1.4-0.3c0.5-0.1,0.4-0.6,0.4-0.6l0-18c0-4-1.1-6.9-3.1-8.7c-2.1-1.8-5.1-2.7-9.1-2.7
	c-1.5,0-3.9,0.2-5.3,0.5c0,0-4.3,0.8-6.1,2.2c0,0-0.4,0.2-0.2,0.8l1.4,3.8c0.2,0.5,0.6,0.3,0.6,0.3l0.3-0.2c3.8-2.1,8.6-2,8.6-2
	c2.1,0,3.8,0.4,4.9,1.3c1.1,0.8,1.6,2.1,1.6,4.7v0.8l-3.2-0.4l-3.1-0.1L88.6,108.4"/>
<path class="st1" d="M242.6,98.7l-1.5,1.4v-2.4c0-0.3-0.2-0.6-0.6-0.6h-5.1c-0.3,0-0.6,0.3-0.6,0.6v29.4c0,0.3,0.3,0.6,0.6,0.6h5.2
	c0.3,0,0.6-0.3,0.6-0.6v-14.7c0-2,0.2-3.9,0.6-5.2c0.4-1.2,1-2.2,1.7-2.9c0.7-0.7,1.5-1.2,2.4-1.5c0.9-0.3,1.9-0.4,2.6-0.4
	c1,0,2.2,0.3,2.2,0.3c0.4,0,0.6-0.2,0.7-0.5l1.5-4.1c0.1-0.4-0.2-0.7-0.3-0.7c-0.3-0.1-2-0.5-3.3-0.6l-1.7,0l-1.3,0.2l-2.1,0.7
	L242.6,98.7"/>
<path class="st1" d="M187.6,95.8l-0.2,1.3h-4.5c0,0-0.5,0-0.7,0.6l-0.7,4.1c0,0.4,0.1,0.6,0.6,0.6h4.4l-4.4,24.7
	c-0.3,2-0.7,3.6-1.2,4.9c-0.4,1.2-0.9,2.1-1.4,2.8c-0.5,0.6-1,1.1-1.8,1.4c-0.7,0.2-1.5,0.3-2.3,0.3l-1.6-0.2l-1.1-0.4
	c0,0-0.5-0.2-0.7,0.3l-1.5,4c-0.1,0.4,0.1,0.7,0.3,0.8l1.8,0.5c1.1,0.3,2,0.3,2.9,0.3c1.8,0,3.5-0.3,4.8-0.8
	c1.4-0.5,2.6-1.4,3.6-2.5c1.2-1.3,1.9-2.6,2.6-4.4c0.7-1.8,1.3-4,1.7-6.6l4.4-25.1h6.5c0,0,0.5,0,0.7-0.6l0.7-4.1
	c0-0.4-0.1-0.6-0.6-0.6h-6.3c0-0.1,0.3-2.4,1-4.4c0.3-0.9,0.9-1.6,1.4-2.1c0.5-0.5,1-0.8,1.7-1l2.1-0.3l1.6,0.2l1,0.2
	c0.6,0.2,0.7,0,0.9-0.3l1.5-4.1c0.2-0.4-0.2-0.6-0.4-0.7l-2-0.5l-2.7-0.2c-3.6,0-6.4,1-8.3,3l-1.4,1.7l-1.1,2.1l-0.9,2.4L187.6,95.8
	"/>
<path class="st1" d="M116.5,85.1c0-0.3-0.2-0.6-0.6-0.6h-5.2c-0.3,0-0.6,0.3-0.6,0.6v42.1c0,0.3,0.2,0.6,0.6,0.6h5.2
	c0.3,0,0.6-0.3,0.6-0.6V85.1"/>
</svg>
