<?xml version="1.0" encoding="UTF-8" standalone="no"?>
<!-- Created with Inkscape (http://www.inkscape.org/) -->
<svg
   xmlns:svg="http://www.w3.org/2000/svg"
   xmlns="http://www.w3.org/2000/svg"
   version="1.0"
   width="513.68011"
   height="194.72844"
   id="svg3260">
  <defs
     id="defs3262" />
  <g
     transform="translate(-43.503162,-420.53055)"
     id="layer1">
    <rect
       width="513.68011"
       height="194.72844"
       x="43.503162"
       y="420.53055"
       id="rect3815"
       style="fill:#ffffff;fill-opacity:1;stroke:#ff0000;stroke-width:0;stroke-linejoin:miter;stroke-miterlimit:4;stroke-dasharray:none" />
    <path
       d="M 206.73228,557.80652 A 70.329018,77.587173 0 1 1 66.074242,557.80652 A 70.329018,77.587173 0 1 1 206.73228,557.80652 z"
       transform="matrix(0.9023965,0,0,0.7996806,-0.2492693,86.109964)"
       id="path3295"
       style="fill:#003ec7;fill-opacity:1;stroke:#ff0000;stroke-width:0;stroke-linejoin:miter;stroke-miterlimit:4;stroke-dasharray:none" />
    <rect
       width="73.013077"
       height="124.12222"
       x="152.65424"
       y="475.79471"
       id="rect3809"
       style="fill:#ffffff;fill-opacity:1;stroke:#ff0000;stroke-width:0;stroke-linejoin:miter;stroke-miterlimit:4;stroke-dasharray:none" />
    <path
       d="M 169.69066,554.05231 A 31.535433,33.287403 0 1 1 106.61979,554.05231 A 31.535433,33.287403 0 1 1 169.69066,554.05231 z"
       transform="matrix(1.1190476,0,0,1.005315,-25.068857,-23.805968)"
       id="path3807"
       style="fill:#ffffff;fill-opacity:1;stroke:#ff0000;stroke-width:0;stroke-linejoin:miter;stroke-miterlimit:4;stroke-dasharray:none" />
    <rect
       width="33.261509"
       height="118.44343"
       ry="0"
       x="159.54991"
       y="473.36096"
       id="rect3283"
       style="fill:#003ec7;fill-opacity:1;stroke:#ff0000;stroke-width:0;stroke-linejoin:miter;stroke-miterlimit:4;stroke-dasharray:none" />
    <path
       d="M 232.76153,461.94879 A 23.526434,23.776716 0 1 1 185.70866,461.94879 A 23.526434,23.776716 0 1 1 232.76153,461.94879 z"
       transform="matrix(0.8189655,0,0,0.8103448,6.2440348,79.755793)"
       id="path3285"
       style="fill:#003ec7;fill-opacity:1;stroke:#ff0000;stroke-width:0;stroke-linejoin:miter;stroke-miterlimit:4;stroke-dasharray:none" />
    <rect
       width="30.82774"
       height="118.0378"
       x="198.08458"
       y="474.17221"
       id="rect3287"
       style="fill:#003ec7;fill-opacity:1;stroke:#ff0000;stroke-width:0;stroke-linejoin:miter;stroke-miterlimit:4;stroke-dasharray:none" />
    <rect
       width="30.82774"
       height="118.0378"
       x="282.04962"
       y="473.96939"
       id="rect3289"
       style="fill:#003ec7;fill-opacity:1;stroke:#ff0000;stroke-width:0;stroke-linejoin:miter;stroke-miterlimit:4;stroke-dasharray:none" />
    <rect
       width="100.19016"
       height="28.799597"
       x="286.10593"
       y="473.96942"
       id="rect3291"
       style="fill:#003ec7;fill-opacity:1;stroke:#ff0000;stroke-width:0;stroke-linejoin:miter;stroke-miterlimit:4;stroke-dasharray:none" />
    <rect
       width="33.261509"
       height="117.22654"
       x="328.29123"
       y="474.37503"
       id="rect3293"
       style="fill:#003ec7;fill-opacity:1;stroke:#ff0000;stroke-width:0;stroke-linejoin:miter;stroke-miterlimit:4;stroke-dasharray:none" />
    <path
       d="M 229.31796,474.17221 L 284.48338,547.18527 L 282.04962,592.21 L 226.47856,518.38568 L 208.22529,481.47351 L 229.31796,474.17221 z"
       id="path3811"
       style="fill:#003ec7;fill-opacity:1;fill-rule:evenodd;stroke:#000000;stroke-width:0;stroke-linecap:butt;stroke-linejoin:miter;stroke-miterlimit:4;stroke-dasharray:none;stroke-opacity:1" />
    <path
       d="M 360.33586,581.66367 L 419.15194,430.76999 L 475.12863,557.73161 C 484.85962,571.18279 504.96573,567.09188 506.76763,558.94849 C 511.49996,534.06997 461.21863,553.05052 457.68662,512.30126 C 457.87411,471.12856 506.94549,463.56372 524.61527,477.82286 L 524.61527,504.99995 C 516.16646,497.80448 500.18783,492.47153 495.00441,503.78306 C 488.16543,515.80591 515.19588,515.38254 527.04904,523.25321 C 551.84874,542.152 544.77055,579.05154 515.28582,593.83252 C 485.10305,605.21701 456.34008,588.65746 447.95154,573.55111 L 423.61385,510.27311 L 410.22812,545.15714 L 431.72642,545.15714 L 441.46149,569.49483 L 402.52119,570.71172 L 393.59737,591.39875 L 355.46832,591.80438 L 360.33586,581.66367 z"
       id="path3813"
       style="fill:#003ec7;fill-opacity:1;fill-rule:evenodd;stroke:#000000;stroke-width:0;stroke-linecap:butt;stroke-linejoin:miter;stroke-miterlimit:4;stroke-dasharray:none;stroke-opacity:1" />
  </g>
</svg>
