<?xml version="1.0" encoding="UTF-8" standalone="no"?>
<!-- Created with Inkscape (http://www.inkscape.org/) -->

<svg
   xmlns:dc="http://purl.org/dc/elements/1.1/"
   xmlns:cc="http://creativecommons.org/ns#"
   xmlns:rdf="http://www.w3.org/1999/02/22-rdf-syntax-ns#"
   xmlns:svg="http://www.w3.org/2000/svg"
   xmlns="http://www.w3.org/2000/svg"
   xmlns:sodipodi="http://sodipodi.sourceforge.net/DTD/sodipodi-0.dtd"
   xmlns:inkscape="http://www.inkscape.org/namespaces/inkscape"
   width="129.74493"
   height="46.362881"
   viewBox="0 0 34.328346 12.266845"
   version="1.1"
   id="svg5437"
   inkscape:version="0.92.0 r15299"
   sodipodi:docname="dominion energy.svg">
  <defs
     id="defs5431">
    <clipPath
       id="clipPath4704"
       clipPathUnits="userSpaceOnUse">
      <path
         inkscape:connector-curvature="0"
         id="path4702"
         d="m 394,472.945 h 116 v 72 H 394 Z" />
    </clipPath>
  </defs>
  <sodipodi:namedview
     id="base"
     pagecolor="#ffffff"
     bordercolor="#666666"
     borderopacity="1.0"
     inkscape:pageopacity="0.0"
     inkscape:pageshadow="2"
     inkscape:zoom="6.2293715"
     inkscape:cx="64.872459"
     inkscape:cy="23.181436"
     inkscape:document-units="mm"
     inkscape:current-layer="layer1"
     showgrid="false"
     fit-margin-top="0"
     fit-margin-left="0"
     fit-margin-right="0"
     fit-margin-bottom="0"
     units="px"
     inkscape:window-width="1280"
     inkscape:window-height="744"
     inkscape:window-x="-4"
     inkscape:window-y="-4"
     inkscape:window-maximized="1" />
  <metadata
     id="metadata5434">
    <rdf:RDF>
      <cc:Work
         rdf:about="">
        <dc:format>image/svg+xml</dc:format>
        <dc:type
           rdf:resource="http://purl.org/dc/dcmitype/StillImage" />
        <dc:title></dc:title>
      </cc:Work>
    </rdf:RDF>
  </metadata>
  <g
     inkscape:label="Layer 1"
     inkscape:groupmode="layer"
     id="layer1"
     transform="translate(5.6925923,-37.490243)">
    <g
       id="g4698"
       transform="matrix(0.35277777,0,0,-0.35277777,-147.98392,223.16779)">
      <g
         id="g4700"
         clip-path="url(#clipPath4704)">
        <g
           id="g4706"
           transform="translate(426.6875,523.2122)">
          <path
             d="M 0,0 C -3.543,2.556 -8.199,3.483 -12.699,2.107 L -22.967,-1.032 V -7.021 Z"
             style="fill:#2c6cbe;fill-opacity:1;fill-rule:nonzero;stroke:none"
             id="path4708"
             inkscape:connector-curvature="0" />
        </g>
        <g
           id="g4710"
           transform="translate(431.7218,516.6655)">
          <path
             d="m 0,0 c -0.736,1.926 -1.849,3.614 -3.227,5.003 l -24.774,-7.574 v -5.99 z"
             style="fill:#2c6cbe;fill-opacity:1;fill-rule:nonzero;stroke:none"
             id="path4712"
             inkscape:connector-curvature="0" />
        </g>
        <g
           id="g4714"
           transform="translate(432.4302,508.796)">
          <path
             d="M 0,0 C 0.366,1.923 0.345,3.944 -0.122,5.953 L -28.709,-2.788 V -8.777 Z"
             style="fill:#2c6cbe;fill-opacity:1;fill-rule:nonzero;stroke:none"
             id="path4716"
             inkscape:connector-curvature="0" />
        </g>
        <g
           id="g4718"
           transform="translate(422.4458,497.6579)">
          <path
             d="M 0,0 C 4.5,1.376 7.842,4.748 9.349,8.848 L -18.725,0.265 v -5.99 z"
             style="fill:#2c6cbe;fill-opacity:1;fill-rule:nonzero;stroke:none"
             id="path4720"
             inkscape:connector-curvature="0" />
        </g>
        <g
           id="g4722"
           transform="translate(443.3549,513.538)">
          <path
             d="M 0,0 C 1.615,0 2.517,1.029 2.517,2.659 2.517,4.306 1.615,5.335 0,5.335 H -1.045 V 0 Z m -3.546,7.52 h 3.672 c 3.056,0 4.908,-1.9 4.908,-4.861 0,-2.96 -1.852,-4.86 -4.908,-4.86 h -3.672 z"
             style="fill:#231f20;fill-opacity:1;fill-rule:nonzero;stroke:none"
             id="path4724"
             inkscape:connector-curvature="0" />
        </g>
        <g
           id="g4726"
           transform="translate(452.7237,516.5774)">
          <path
             d="m 0,0 c -0.761,0 -1.188,-0.697 -1.188,-1.678 0,-0.981 0.427,-1.662 1.188,-1.662 0.775,0 1.202,0.681 1.202,1.662 C 1.202,-0.697 0.775,0 0,0 m 0,-5.399 c -2.154,0 -3.642,1.521 -3.642,3.721 0,2.201 1.488,3.72 3.642,3.72 2.169,0 3.641,-1.519 3.641,-3.72 0,-2.2 -1.472,-3.721 -3.641,-3.721"
             style="fill:#231f20;fill-opacity:1;fill-rule:nonzero;stroke:none"
             id="path4728"
             inkscape:connector-curvature="0" />
        </g>
        <g
           id="g4730"
           transform="translate(465.8156,518.6196)">
          <path
             d="m 0,0 c 1.488,0 2.406,-1.013 2.406,-2.613 v -4.67 h -2.485 v 4.069 c 0,0.601 -0.253,1.029 -0.808,1.029 -0.427,0 -0.792,-0.269 -0.918,-0.76 v -4.338 h -2.47 v 4.069 c 0,0.601 -0.253,1.029 -0.807,1.029 -0.427,0 -0.807,-0.269 -0.919,-0.76 v -4.338 h -2.485 v 7.124 h 2.485 V -0.744 C -5.636,-0.301 -4.954,0 -4.164,0 -3.262,0 -2.627,-0.348 -2.201,-0.855 -1.772,-0.412 -1.046,0 0,0"
             style="fill:#231f20;fill-opacity:1;fill-rule:nonzero;stroke:none"
             id="path4732"
             inkscape:connector-curvature="0" />
        </g>
        <path
           d="m 472.056,511.337 h -2.485 v 7.124 h 2.485 z"
           style="fill:#231f20;fill-opacity:1;fill-rule:nonzero;stroke:none"
           id="path4734"
           inkscape:connector-curvature="0" />
        <g
           id="g4736"
           transform="translate(473.4015,518.4611)">
          <path
             d="m 0,0 h 2.486 v -0.617 c 0.395,0.443 1.092,0.776 1.915,0.776 1.584,0 2.518,-1.029 2.518,-2.613 v -4.67 H 4.448 v 4.069 c 0,0.586 -0.3,1.013 -0.934,1.013 -0.491,0 -0.901,-0.285 -1.028,-0.776 V -7.124 H 0 Z"
             style="fill:#231f20;fill-opacity:1;fill-rule:nonzero;stroke:none"
             id="path4738"
             inkscape:connector-curvature="0" />
        </g>
        <path
           d="m 484.147,511.337 h -2.485 v 7.124 h 2.485 z"
           style="fill:#231f20;fill-opacity:1;fill-rule:nonzero;stroke:none"
           id="path4740"
           inkscape:connector-curvature="0" />
        <g
           id="g4742"
           transform="translate(488.7543,516.5774)">
          <path
             d="m 0,0 c -0.76,0 -1.187,-0.697 -1.187,-1.678 0,-0.981 0.427,-1.662 1.187,-1.662 0.776,0 1.203,0.681 1.203,1.662 C 1.203,-0.697 0.776,0 0,0 m 0,-5.399 c -2.153,0 -3.642,1.521 -3.642,3.721 0,2.201 1.489,3.72 3.642,3.72 2.169,0 3.641,-1.519 3.641,-3.72 0,-2.2 -1.472,-3.721 -3.641,-3.721"
             style="fill:#231f20;fill-opacity:1;fill-rule:nonzero;stroke:none"
             id="path4744"
             inkscape:connector-curvature="0" />
        </g>
        <g
           id="g4746"
           transform="translate(493.3612,518.4611)">
          <path
             d="m 0,0 h 2.487 v -0.617 c 0.394,0.443 1.09,0.776 1.914,0.776 1.583,0 2.517,-1.029 2.517,-2.613 v -4.67 h -2.47 v 4.069 c 0,0.586 -0.301,1.013 -0.933,1.013 -0.492,0 -0.903,-0.285 -1.028,-0.776 V -7.124 H 0 Z"
             style="fill:#231f20;fill-opacity:1;fill-rule:nonzero;stroke:none"
             id="path4748"
             inkscape:connector-curvature="0" />
        </g>
        <path
           d="m 484.147,519.286 h -2.485 v 1.772 h 2.485 z"
           style="fill:#231f20;fill-opacity:1;fill-rule:nonzero;stroke:none"
           id="path4750"
           inkscape:connector-curvature="0" />
        <path
           d="m 472.056,519.286 h -2.485 v 1.772 h 2.485 z"
           style="fill:#231f20;fill-opacity:1;fill-rule:nonzero;stroke:none"
           id="path4752"
           inkscape:connector-curvature="0" />
        <g
           id="g4754"
           transform="translate(448.0387,506.8202)">
          <path
             d="m 0,0 h 2.486 v -0.617 c 0.396,0.443 1.091,0.776 1.915,0.776 1.584,0 2.517,-1.029 2.517,-2.613 V -7.123 H 4.449 v 4.068 c 0,0.586 -0.301,1.013 -0.934,1.013 -0.491,0 -0.902,-0.285 -1.029,-0.775 V -7.123 H 0 Z"
             style="fill:#231f20;fill-opacity:1;fill-rule:nonzero;stroke:none"
             id="path4756"
             inkscape:connector-curvature="0" />
        </g>
        <g
           id="g4758"
           transform="translate(468.8923,504.638)">
          <path
             d="m 0,0 c -0.341,0.146 -0.601,0.211 -0.985,0.211 -0.596,0 -1.216,-0.332 -1.311,-0.973 v -4.179 h -2.486 v 7.123 h 2.486 V 1.549 c 0.348,0.475 0.902,0.792 1.615,0.792 0.316,0 0.569,-0.064 0.681,-0.127 z"
             style="fill:#231f20;fill-opacity:1;fill-rule:nonzero;stroke:none"
             id="path4760"
             inkscape:connector-curvature="0" />
        </g>
        <g
           id="g4762"
           transform="translate(479.0393,496.9632)">
          <path
             d="m 0,0 1.116,2.926 -2.659,6.95 h 2.581 l 1.361,-4.053 1.33,4.053 h 2.47 L 2.453,0 Z"
             style="fill:#231f20;fill-opacity:1;fill-rule:nonzero;stroke:none"
             id="path4764"
             inkscape:connector-curvature="0" />
        </g>
        <g
           id="g4766"
           transform="translate(473.1576,501.8524)">
          <path
             d="m 0,0 c -0.98,0 -1.403,0.744 -1.403,1.647 0,0.903 0.39,1.613 1.314,1.613 0.475,0 0.993,-0.363 1.183,-0.68 V 0.696 C 0.904,0.379 0.489,0 0,0 M 3.548,4.987 H 1.094 V 4.449 c -0.317,0.38 -0.903,0.697 -1.678,0.697 -2.011,0 -3.151,-1.536 -3.151,-3.499 0,-1.963 1.14,-3.515 3.151,-3.515 0.699,0 1.244,0.27 1.575,0.591 0,0 0.048,0.048 0.064,0.066 l 0.002,-0.541 c -0.038,-0.946 -0.843,-1.381 -1.771,-1.381 -0.981,0 -1.757,0.254 -2.484,0.871 V -4.42 c 0.684,-0.469 1.567,-0.601 2.565,-0.601 2.279,0 4.173,1.135 4.173,3.763 z"
             style="fill:#231f20;fill-opacity:1;fill-rule:nonzero;stroke:none"
             id="path4768"
             inkscape:connector-curvature="0" />
        </g>
        <g
           id="g4770"
           transform="translate(442.3101,503.5744)">
          <path
             d="M 0,0 H 3.776 V 2.137 H 0 v 1.521 h 4.448 v 2.185 h -6.95 v -9.721 h 6.95 v 2.201 H 0 Z"
             style="fill:#231f20;fill-opacity:1;fill-rule:nonzero;stroke:none"
             id="path4772"
             inkscape:connector-curvature="0" />
        </g>
        <g
           id="g4774"
           transform="translate(458.3193,504.0173)">
          <path
             d="M 0,0 C 0.09,0.833 0.694,1.211 1.233,1.211 1.771,1.211 2.414,0.839 2.516,0 Z m 1.219,3.003 c -2.123,0 -3.622,-1.661 -3.622,-3.756 0,-2.594 1.548,-3.766 3.924,-3.766 1.059,0 1.912,0.22 2.57,0.534 v 1.759 C 3.275,-2.664 2.523,-2.779 1.948,-2.779 c -1.125,0 -1.884,0.514 -1.931,1.42 h 4.812 c 0.012,0.172 0.012,0.274 0.012,0.434 0,2.109 -1.14,3.928 -3.622,3.928"
             style="fill:#231f20;fill-opacity:1;fill-rule:nonzero;stroke:none"
             id="path4776"
             inkscape:connector-curvature="0" />
        </g>
        <g
           id="g4778"
           transform="translate(487.6378,507.5699)">
          <path
             d="m 0,0 c -0.793,0 -1.435,-0.644 -1.435,-1.437 0,-0.793 0.642,-1.436 1.435,-1.436 0.795,0 1.439,0.643 1.439,1.436 C 1.439,-0.644 0.795,0 0,0 m 0.002,-2.696 c -0.696,0 -1.26,0.564 -1.26,1.259 0,0.695 0.564,1.26 1.26,1.26 0.696,0 1.26,-0.565 1.26,-1.26 0,-0.695 -0.564,-1.259 -1.26,-1.259"
             style="fill:#231f20;fill-opacity:1;fill-rule:nonzero;stroke:none"
             id="path4780"
             inkscape:connector-curvature="0" />
        </g>
        <g
           id="g4782"
           transform="translate(488.2411,506.4686)">
          <path
             d="M 0,0 C 0,0.233 -0.125,0.37 -0.497,0.37 H -1.11 v -1.401 h 0.159 v 0.648 h 0.328 l 0.401,-0.648 h 0.206 l -0.425,0.648 C -0.192,-0.377 0,-0.275 0,0 m -0.676,-0.224 h -0.275 v 0.437 h 0.413 c 0.174,0 0.379,-0.026 0.379,-0.208 0,-0.262 -0.319,-0.229 -0.517,-0.229"
             style="fill:#231f20;fill-opacity:1;fill-rule:nonzero;stroke:none"
             id="path4784"
             inkscape:connector-curvature="0" />
        </g>
      </g>
    </g>
  </g>
</svg>
