<?xml version="1.0" encoding="UTF-8" standalone="no"?>
<svg
   xmlns:dc="http://purl.org/dc/elements/1.1/"
   xmlns:cc="http://creativecommons.org/ns#"
   xmlns:rdf="http://www.w3.org/1999/02/22-rdf-syntax-ns#"
   xmlns:svg="http://www.w3.org/2000/svg"
   xmlns="http://www.w3.org/2000/svg"
   xmlns:sodipodi="http://sodipodi.sourceforge.net/DTD/sodipodi-0.dtd"
   xmlns:inkscape="http://www.inkscape.org/namespaces/inkscape"
   width="200.62801"
   height="30.905495"
   id="svg2"
   version="1.1"
   inkscape:version="0.48.1 "
   sodipodi:docname="AJAX.svg">
  <metadata
     id="metadata28">
    <rdf:RDF>
      <cc:Work
         rdf:about="">
        <dc:format>image/svg+xml</dc:format>
        <dc:type
           rdf:resource="http://purl.org/dc/dcmitype/StillImage" />
      </cc:Work>
    </rdf:RDF>
  </metadata>
  <defs
     id="defs26">
    <inkscape:perspective
       sodipodi:type="inkscape:persp3d"
       inkscape:vp_x="0 : 34 : 1"
       inkscape:vp_y="0 : 1000 : 0"
       inkscape:vp_z="441 : 34 : 1"
       inkscape:persp3d-origin="220.5 : 22.666667 : 1"
       id="perspective30" />
  </defs>
  <sodipodi:namedview
     pagecolor="#ffffff"
     bordercolor="#666666"
     borderopacity="1"
     objecttolerance="10"
     gridtolerance="10"
     guidetolerance="10"
     inkscape:pageopacity="0"
     inkscape:pageshadow="2"
     inkscape:window-width="1280"
     inkscape:window-height="1004"
     id="namedview24"
     showgrid="false"
     inkscape:zoom="3.8504464"
     inkscape:cx="137.25157"
     inkscape:cy="-26.169946"
     inkscape:window-x="-8"
     inkscape:window-y="-8"
     inkscape:window-maximized="1"
     inkscape:current-layer="svg2" />
  <g
     id="g4"
     transform="matrix(0.45532286,0,0,0.45532286,-0.08469005,-0.02823002)">
    <path
       d="M 82.029,60.694 42.67,41.742 41.358,40.487 41.982,2.688 42.67,0.062 M 85.152,67.938 42.67,49.987 41.358,51.964 v 15.974 h 43.794 z"
       id="path6"
       style="fill:#991933" />
    <polyline
       points="3.3,60.694 42.67,0.062 42.67,41.742"
       id="polyline8"
       style="fill:#e01933" />
    <polyline
       points="0.186,67.938 42.67,67.938 42.67,49.987"
       id="polyline10"
       style="fill:#e01933" />
    <path
       d="m 118.301,60.688 h 19.105 c 19.628,0 31.347,-10.161 31.347,-27.041 0,-16.875 -11.718,-27.028 -31.347,-27.028 h -19.105 m 12.074,9.387 h 7.02 c 12.745,0 19.116,6.284 19.116,17.642 0,11.353 -6.372,17.646 -19.116,17.646 h -7.02 V 16.006 z"
       id="path14"
       style="fill:#003366" />
    <polyline
       points="209.783,37.251 232.744,37.253 232.744,27.862 209.783,27.862 209.783,16.006 235.74,16.006 235.74,6.62 197.698,6.62 197.698,60.688 236.586,60.69 236.586,51.298 209.783,51.294"
       id="polyline16"
       style="fill:#003366" />
    <polyline
       points="305.398,51.298 282.115,51.298 282.115,6.62 269.987,6.62 269.987,60.69 305.398,60.69"
       id="polyline18"
       style="fill:#003366" />
    <polyline
       points="370.623,6.62 322.09,6.62 322.09,16.006 340.283,16.006 340.283,60.69 352.423,60.69 352.423,16.006 370.623,16.006"
       id="polyline20"
       style="fill:#003366" />
    <path
       d="m 440.814,60.69 h -12.647 l -5.301,-13.545 h -22 L 395.587,60.69 H 383.768 L 406.384,6.384 h 12.197 m 0.854,31.718 -7.555,-19.195 -7.574,19.195 h 15.129 z"
       id="path22"
       style="fill:#003366" />
  </g>
</svg>
