<?xml version="1.0" encoding="UTF-8" standalone="no"?>
<svg xmlns:rdf="http://www.w3.org/1999/02/22-rdf-syntax-ns#" xmlns="http://www.w3.org/2000/svg" xml:space="preserve" height="44.295" viewBox="0 0 240.68687 44.294998" width="240.69" version="1.1" xmlns:cc="http://creativecommons.org/ns#" xmlns:dc="http://purl.org/dc/elements/1.1/"><g transform="matrix(1.25 0 0 -1.25 -126.34 819.8)"><g transform="translate(.67799 .67799)"><path d="m288.13 654.24c2.1695 0 3.889-1.7085 3.889-3.9035v-26.026c0-2.2095-1.7195-3.907-3.889-3.907h-0.2575c-30.419 1.839-60.878 2.7605-91.329 2.7605-30.456 0-60.91-0.9215-91.331-2.7605h-0.258c-2.1565 0-3.885 1.6975-3.885 3.907v26.026c0 2.195 1.7285 3.9035 3.885 3.9035 0.0945 0 0.169-0.011 0.258-0.011 30.42-1.8285 60.876-2.739 91.331-2.739 30.452 0 60.91 0.9105 91.329 2.739 0.087 0 0.174 0.011 0.2575 0.011" fill="#cacbcc"/><path d="m288.13 652.86c-0.0545 0-0.116 0-0.1705-0.011-30.31-1.8245-61.066-2.7425-91.416-2.7425-30.358 0-61.108 0.918-91.408 2.7425-0.0635 0.011-0.1215 0.011-0.1815 0.011-1.404 0-2.4995-1.1135-2.4995-2.525v-26.026c0-1.4075 1.0955-2.5215 2.4995-2.5215 0.06 0 0.118 0 0.169 0.011 30.312 1.8175 61.062 2.7425 91.42 2.7425 30.357 0 61.106-0.925 91.405-2.7425 0.0655-0.011 0.127-0.011 0.1815-0.011 1.404 0 2.5105 1.114 2.5105 2.5215v26.026c0 0.6895-0.265 1.324-0.7365 1.796-0.468 0.464-1.0955 0.729-1.774 0.729" fill="#fe0"/><path d="m125.2 12.225c-5.2281 0-8.252 3.2653-8.252 8.9297 0 5.0106 2.2344 8.9238 7.7988 8.9238 1.705 0 3.407-0.4893 4.4863-1.2012l0.57031 0.875h2.8066v-8.834h-6.5293v2.7402h1.8555v2.3711c-0.52625 0.245-1.3384 0.42969-2.0547 0.42969-2.6169 0-3.877-1.8995-3.877-5.4863 0-3.2556 1.1747-5.1328 2.9297-5.1328 1.3831 0 2.0442 0.89734 2.4023 2.543l4.9434-0.8418c-0.71187-3.4781-3.207-5.3164-7.0801-5.3164zm-86.332 0.002c-5.1925 0-8.0234 3.6671-8.0234 8.9277 0 5.2781 2.8309 8.9238 8.0234 8.9238 5.1944 0 8.0234-3.6457 8.0234-8.9238 0-5.2606-2.8291-8.9277-8.0234-8.9277zm-26.26 0.32031v3.3477h1.7441v13.857h5.7363c5.5456 0 9.627-1.9091 9.627-8.4297 0-7.1331-3.6175-8.7754-10.141-8.7754h-6.9668zm36.098 0v17.205h11.77l0.2168-3.3418h-7.2344v-13.863h-4.752zm13.477 0v17.205h11.771l0.2168-3.3418h-7.2344v-13.863h-4.7539zm18.115 0-0.93359 3.3477-4.5195 13.857h4.6484l0.92383-3.1504h5.7324l1.0332 3.1504h4.9785l-6.2031-17.205h-5.6602zm13.279 0 0.0078 17.205h4.748v-5.7129h1.2793l1.9043 3.0781c0.68 1.0888 1.2507 1.7098 1.877 2.168 0.7075 0.49375 1.5796 0.76562 2.7402 0.76562 0.92062 0 2.0127-0.29766 2.584-0.62891l0.29492-3.1211c-0.32187 0.21312-0.80672 0.4082-1.3555 0.4082-0.7075 0-1.1159-0.2493-1.6328-1.0605l-1.3828-2.2051c1.9275-0.79312 3.2324-2.5562 3.2324-5.2949 0-2.0862-0.84242-3.6959-2.5293-4.6484-1.1881-0.68-2.9303-0.95312-5.3203-0.95312h-6.4473zm41.193 0v17.205h11.926l0.21679-3.3418h-7.3867v-3.7324h5.541v-3.3184h-5.541v-3.4648h6.7695v-3.3477h-11.525zm13.779 0v17.205h3.9102v-9.377c0.14062 0.35375 0.43539 0.77969 0.74414 1.1328l6.9512 8.2441h2.9922v-17.205h-3.8867v9.4512c-0.16313-0.37625-0.46086-0.80773-0.78711-1.1934l-7.0215-8.2578h-2.9024zm17.096 0v17.205h11.932l0.22265-3.3418h-7.3906v-3.7324h5.5312v-3.3184h-5.5312v-3.4648h6.7598v-3.3477h-11.523zm13.787 0v17.205h4.7559v-5.7129h1.2695l1.9102 3.0781c0.68 1.0888 1.2518 1.7098 1.873 2.168 0.7125 0.49375 1.5765 0.76562 2.7559 0.76562 0.92062 0 2.0049-0.29766 2.5762-0.62891l0.30469-3.1211c-0.33125 0.21312-0.82086 0.4082-1.3652 0.4082-0.7075 0-1.1159-0.2493-1.6328-1.0605l-1.3828-2.2051c1.9275-0.79312 3.2324-2.5562 3.2324-5.2949 0-2.0863-0.83805-3.6959-2.5293-4.6484-1.1975-0.68-2.9338-0.95312-5.3281-0.95312h-6.4395zm21.584 0-0.92969 3.3477-4.5156 13.857h4.6484l0.91993-3.1504h5.7461l1.0332 3.1504h4.9707l-6.1953-17.205h-5.6777zm13.074 0v17.205h11.771l0.20899-3.3418h-7.2188v-13.863h-4.7617zm-175.23 3.324c1.9044 0 2.9668 1.5782 2.9668 5.2832 0 3.7319-1.0624 5.2793-2.9668 5.2793-1.9025 0-2.9648-1.5474-2.9648-5.2793 0-3.705 1.0623-5.2832 2.9648-5.2832zm-19.756 0.02344h1.0293c2.9112 0 4.5703 0.82094 4.5703 5.1016 0 3.3969-0.59586 5.4375-4.1621 5.4375h-1.4375v-10.539zm79.221 0h1.3613c1.3062 0 2.1537 0.12281 2.6387 0.61719 0.40813 0.41688 0.625 1.0278 0.625 1.8984 0 1.8544-0.72945 2.668-2.6113 2.668h-2.0137v-5.1836zm85.855 0h1.3516c1.3106 0 2.1545 0.12281 2.6445 0.61719 0.40812 0.41688 0.625 1.0278 0.625 1.8984 0 1.8544-0.73383 2.668-2.6113 2.668h-2.0098v-5.1836zm-101.12 0.794h0.04883c0.03187 0.68938 0.32703 1.6144 0.64453 2.5938l1.3379 4.1309h-3.7793l1.2031-4.1484c0.28562-1.0338 0.51304-1.9687 0.54492-2.5762zm120.72 0h0.0547c0.0362 0.68938 0.33243 1.6144 0.6543 2.5938l1.332 4.1309h-3.7734l1.1894-4.1484c0.30375-1.0338 0.51547-1.9687 0.54297-2.5762z" transform="matrix(.8 0 0 -.8 101.07 654.24)" fill="#1c1b1b"/></g></g></svg>
