<svg xmlns="http://www.w3.org/2000/svg" width="251.1778mm" height="38.026mm" viewBox="0 0 890 134.7377"><path fill="#231f20" d="M611.5095 70.0196c0-15.7907 8.8593-24.3287 20.701-24.3287 10.9573 0 16.1724 6.049 18.2815 14.648l-7.5823 2.161c-1.785-6.234-4.5175-9.425-10.7624-9.425-7.9668 0-12.6106 6.179-12.6106 16.883 0 11.213 4.7756 17.383 12.7397 17.383 6.1158 0 9.5513-3.057 11.339-10.128l7.5768 1.724c-2.2958 9.364-8.0958 15.667-18.9818 15.667-12.1025 0-20.701-8.343-20.701-24.587m44.022 6.813c0-12.482 8.225-17.579 16.4936-17.579 8.222 0 16.5047 5.097 16.5047 17.578 0 12.363-8.2826 17.581-16.5047 17.581-8.2112 0-16.4937-5.218-16.4937-17.581m25.0948 0c0-6.3-2.669-10.886-8.601-10.886-5.662 0-8.59 4.072-8.59 10.886 0 6.431 2.612 11.02 8.59 11.02 5.674 0 8.601-4.078 8.601-11.02m13.418 16.881V59.897h7.83v4.644c2.62-2.867 6.437-5.2865 11.6-5.2865 5.668 0 7.893 2.23 9.233 5.5418 2.675-2.9302 6.693-5.5418 11.845-5.5418 6.877 0 9.878 4.144 9.878 10.194V93.714h-7.837V71.4172c0-3.754-1.082-5.4704-4.775-5.4704-3.191 0-5.731 1.7822-8.662 4.394v23.373h-7.835V71.4172c0-3.754-1.084-5.4704-4.775-5.4704-3.125 0-5.734 1.7822-8.67 4.394v23.373h-7.829m57.605 12.7396V59.897h7.835v4.4544c2.233-2.6775 5.734-5.0997 10.765-5.0997 7.706 0 13.374 5.8028 13.374 17.5208 0 11.7236-5.8 17.4522-14.459 17.4522-3.625 0-7.195-1.4692-9.68-4.265v16.494h-7.835m24.144-29.6207c0-7.132-3.059-10.886-8.093-10.886-3.249 0-6.368 2.0377-8.217 4.2594v13.569c2.104 2.738 5.158 4.2044 7.956 4.2044 5.929 0 8.354-3.6277 8.354-11.1468m11.298 8.7302c0-7.3242 6.24-12.2344 22.036-14.0194v-1.0106c0-3.3834-1.78-4.8444-5.542-4.8444-4.71 0-8.535 2.296-11.397 4.5807l-3.822-4.9047c3.631-3.312 9.302-6.113 16.302-6.113 9.046 0 12.171 4.339 12.171 12.2288v13.9507c0 4.0754.256 6.5607.953 8.28H809.9c-.448-1.398-.769-2.4195-.769-4.3282-3.4357 3.505-7.453 4.839-12.4845 4.839-5.4704 0-9.5512-3.059-9.5512-8.658m22.0357-1.28v-7.453c-9.364 1.275-14.329 3.57-14.329 7.267 0 2.672 1.846 4.07 4.7155 4.07 4.0064 0 7.137-1.521 9.6142-3.883m14.7748 9.431V59.897h7.8377v5.4074c2.5485-2.9275 6.495-6.05 12.1026-6.05 6.174 0 9.999 3.183 9.999 9.8727v24.587h-7.832V71.36c0-3.6964-1.5294-5.605-5.097-5.605-3.441 0-6.311 1.7163-9.172 4.3966V93.714h-7.838m31.834 12.0997l1.78-6.3025c.9588.2526 2.9938.703 5.734.703 2.807 0 4.268-1.0903 5.3556-3.8282l.95-2.4826-12.993-34.0064h8.1503l8.7303 24.6418h.1237l8.664-24.6417H890l-14.3957 37.511c-2.2272 5.921-5.1547 9.428-11.8444 9.428-4.013 0-6.369-.574-8.025-1.021M14.519 93.637V53.894H0v-7.393h37.0052v7.393H22.4805v39.743h-7.9613m27.1902 0V46.501h7.901v17.897c2.1612-2.2875 6.2393-5.2177 12.3578-5.2177 5.921 0 9.7436 3.507 9.7436 10.1857v24.271h-7.901V71.3405c0-3.7485-1.59-5.4732-5.031-5.4732-3.4354 0-6.3052 1.7823-9.1695 4.394V93.637h-7.901m35.333-16.8782c0-12.8687 9.109-17.5785 16.1174-17.5785 7.5795 0 14.8377 4.5175 14.8377 18.2733v1.8537H84.877c.3187 6.1103 4.0755 8.788 9.049 8.788 4.3938 0 6.9423-1.464 9.4853-3.952l4.144 4.0754c-3.507 3.8942-8.1562 6.1213-14.209 6.1213-8.4692 0-16.304-5.1573-16.304-17.5812m23.76-3.312c-.4503-5.1628-2.9933-7.9008-7.7085-7.9008-3.8228 0-7.3242 2.164-8.0904 7.901h15.799m314.6222-37.4172s1.1644-1.7466 2.142-3.0758c1.7824-2.4166 5.0037-5.767 7.4258-7.8432.747-.6316 1.6176-1.3538 1.6176-1.3538s-1.3704.1428-2.142.302c-1.84.3598-4.5396 2.153-5.8907 3.312-2.2244 1.9004-4.6686 4.998-3.5673 7.7443.1647.3954.4146.9145.4146.9145m12.369 3.3092c3.515-.2362 6.8106-1.255 9.8726-2.9495 3.007-1.6807 7.4257-4.9596 6.9754-8.8208-.1456-1.244-.9585-2.1887-1.991-2.631-1.3457-.5848-2.0432-.4805-3.7596.022-1.2413.368-1.7988.5878-2.9714 1.2606-3.4547 2.0047-8.3402 6.2916-10.9958 9.716-.6152.802-1.2358 1.7055-1.7164 2.3207-.313.3762-.5465.7304-.519.8266.1043.3927 3.7293.3542 5.1052.2554m-8.9554 6.577c-.3598.3764-.7415 1.31-1.1424 1.983-.2115.357-.607.8183-.865.9995-.9146.6728-1.6863.703-2.576-.074-1.2358-1.0876-1.9498-2.7875-2.002-4.4353-.0275-.7222.0906-1.5104-.0385-2.1255-.228-1.0216-1.255-2.0707-1.8042-3.051-.648-1.1617-1.172-3.1692-1.235-4.4654-.228-4.048 1.909-7.7718 4.683-10.7157 2.79-2.9742 6.44-5.4458 10.414-7.1237 3.752-1.588 9.255-2.664 13.377-1.233 1.338.461 3.211 1.603 4.15 2.792.198.252.363.527.569.656.179.115.659.162 1.041.23 1.318.228 3.213 1.222 3.985 1.884 1.546 1.343 2.403 2.625 2.796 4.484.791 3.737-1.362 7.843-3.814 10.337-4.204 4.303-8.354 7.321-13.731 9.43-2.356.922-6.033 1.782-8.713 1.54-.829-.069-1.689-.286-2.496-.346-.409-.036-1.923-.418-2.082-.538-.2-.146-.456-.283-.511-.231M290.637 56.961c2.2325-.137 3.6166-.244 5.3605-.9992.964-.409 2.079-1.348 1.5296-2.469-.332-.686-1.513-.925-2.202-.873-2.337.1567-4.02 1.8758-4.819 4.1744-.03.082-.022.168.132.168m9.771-5.775c1.302 1.629 1.89 3.54 2.035 5.638.146 2.115-.53 4.15-1.708 5.762-2.021 2.746-5.393 4.1168-8.777 4.369-.464.03-3.224.1127-3.932-.107-.129-.047-.208-.096-.28-.077-.079.008-.544 1.914-.629 2.5788-.302 2.337-.67 3.991-.939 5.831-.225 1.461-.387 3.029-.516 4.589-.763 9.09-.5 13.58.253 22.475.052.5438.08 1.1617 0 1.535-.203 1.068-.851 1.8127-1.895 2.0818-3.136.824-6.135-2.2793-7.673-4.762-3.592-5.8026-2.419-17.6607-1.384-23.5184.423-2.425 1.527-7.8104 2.293-9.749.407-1.044 1.058-3.095 1.008-3.194-.044-.091-1.686-.717-3.191-1.2963-.566-.206-2.463-1.192-3.276-1.697-1.672-1.049-2.817-1.903-3.973-3.207-.351-.406-1.521-2.145-1.694-2.532-.933-2.125-.988-3.976-.159-6.236.212-.58 1.376-3.021 2.15-2.944 1.115.099.871 1.944 1.165 2.9.096.33.409.879.657 1.175 1.544 1.821 6.726 3.836 8.849 4.471.305.096 3.625 1.107 4.111.885.129-.06.761-1.183 1.165-1.862.217-.381.461-.664.727-.953 2.019-2.172 5.001-4.229 7.97-4.838 1.307-.263 3.869-.044 5.165.695.294.168 1.261.55 2.483 1.991m-31.37 25.769c.093.006.236.053.36.105 1.525.668 1.525 3.389 1.157 4.669-.988 3.367-4.182 6.844-6.731 8.574-1.521 1.017-4.635 2.461-6.862 2.887-3.485.67-6.572-.253-8.437-3.073-1.686-2.551-2.43-5.707-2.565-8.673-.384-8.516 2.301-20.956 5.608-28.066.445-.953 2.631-5.396 4.663-6.113 2.021-.714 2.911 1.656 3.111 3.428.258 2.279-.469 5.3-1.046 7.744-1.016 4.276-2.474 10.961-2.82 12.877-.365 2.027-1.211 6.366-.906 8.58.157 1.176.379 1.763 1.272 1.692.407-.035 6.127-2.666 9.249-3.833 1.17-.434 2.626-.903 3.949-.794m-42.308-3.927s.651.011 1.321 0c2.134-.027 5.712-.42 5.712-.42s-.401-3.15-.725-5.16c-.22-1.343-.395-2.173-.684-3.235-.132-.472-.458-1.82-.802-2.348-.06-.107-.148-.219-.148-.219s-1.727 3.334-2.694 5.657c-.769 1.842-1.153 3.215-1.692 4.333-.129.261-.272.618-.288.926-.017.214 0 .467 0 .467m-11.446.362s1.024-2.302 1.821-4.043c.837-1.829 5.069-10.328 6.813-12.731 1.933-2.686 5.63-7.755 5.66-7.909.079-.558.2-1.549.719-2.343.404-.632 1.4-.898 2.37-.962 1.074-.063 2.186.731 2.669 1.615.931 1.681 2.518 6.465 2.862 7.607 1.854 6.368 3.856 18.262 4.512 24.373.17 1.604.703 9.958.744 11.839.039 1.321 0 3.513-.758 4.595-.28.412-.818.755-1.337.747-.7-.024-2.111-1.005-2.729-1.582-1.711-1.615-2.851-3.254-3.216-5.261-.313-1.747-.755-6.758-.755-6.758l-7.459.299-4.155.069s-.393.97-.714 1.777c-.695 1.73-1.318 3.46-1.587 4.432-.544 1.953-1.59 5.825-1.84 6.429-.524 1.269-.986 2.008-2.219 2.172-1.367.179-2.307.278-3.295-.258-1.862-1.021-2.71-3.18-3.026-5.407-.555-3.792.981-6.852 2.557-11.35.662-1.892-.25-2.521-1.821-4.981-.203-.316-.412-.648-.45-.901-.055-.253.187-.909.53-1.181.107-.088.138-.099.333-.107l3.774-.1784M172.7 48.8436s-.096-2.408-.296-3.751c-.167-1.137-.395-1.991-.936-2.859-.593-.953-1.046-1.551-1.982-1.694-1.148-.167-1.782.615-2.499 1.741-.953 1.53-1.903 4.367-2.463 6.16-.81 2.549-1.153 4.114-1.587 7.014-.717 4.756-1.442 12.847-.67 18.35.143.947.379 2.334.379 2.334s1.148-1.288 1.985-2.189c.357-.39 2.06-2.936 2.211-3.202.294-.511 1.082-1.856 1.192-2.131.1676-.294 1.395-2.927 1.6094-3.545.412-1.181 1.0107-2.999 1.472-4.449 1.079-3.339.887-4.575 1.587-8.283.08-.425.1487-3.496.0718-3.496-.033-.011-.0712 0-.0712 0m-8.144 35.284s.453.794.81 1.39c1.985 3.309 5.157 5.204 8.988 5.3933 3.9243.197 8.964-2.076 11.839-4.076 8.214-5.712 12.5364-16.01 14.893-25.88 2.777-11.573 2.903-23.779-.406-34.978-1.9198-6.5-5.6546-14.637-10.282-19.503-1.3787-1.445-3.49-3.414-4.092-4.221-.626-.832-.777-1.532.179-2.09 1.008-.579 3.216.623 4.317 1.288 5.402 3.282 8.9332 6.552 12.133 11.251.807 1.186 4.0503 6.522 4.644 7.637 3.63 6.852 5.492 12.822 6.489 20.385 1.258 9.626.453 20.555-2.88 30.206-1.4557 4.234-3.702 8.593-6.042 12.267-.555.862-3.966 5.445-4.386 5.896-1.1727 1.236-4.07 3.746-5.424 4.836-6.772 5.435-14.088 8.996-22.118 8.013-4.416-.544-8.041-2.0077-11.578-4.883-1.3567-1.115-3.647-3.435-4.564-5.089-.596-1.06-1.338-2.348-1.434-2.364-.1046-.025-.497.2413-.9257.541-.3732.258-1.9632.997-2.8063 1.31-5.509 2.054-11.672 1.571-16.733-1.714-3.672-2.375-6.778-6.89-8.151-10.985-2.024-6.072-2.186-12.36-1.362-18.819 1.409-10.96 5.355-21.344 11.238-30.535 3.713-5.792 8.527-11.512 14.272-15.615.645-.467 4.149-2.505 4.866-2.834 1.296-.61 3.021-1.173 4.018-.107.519.552.503.999.118 1.727-.6097 1.128-2.1695 2.661-3.032 3.578-.747.807-4.979 5.995-5.853 7.208-.959 1.296-5.265 7.747-5.83 8.739-5.432 9.406-9.746 24.307-9.329 35.863.088 2.386.439 5.827.975 8.068.728 3.021 2.526 7.11 5.226 9.019 2.842 2.0156 5.476 1.9 8.878.549.903-.3654 2.189-.945 2.189-.945s-.992-2.5404-1.64-4.449c-1.783-5.303-2.499-13.761-1.843-19.583.541-4.773 1.6064-8.428 3.765-12.218 1.719-3.038 4.034-6.017 6.926-8.483 2.787-2.379 7.242-4.449 11.16-4.554 3.257-.077 6.629 1.34 8.34 4.3 2.972 5.149 3.161 13.275 2.324 18.63-1.257 8.098-5.451 15.7026-11.501 20.8545-2.172 1.845-6.376 4.973-6.376 4.973m259.09-29.909c.162.03.417.104.634.181 1.884.7196 2.659 2.466 3.123 4.3776 1.0764 4.449 1.538 14.283 1.714 18.1416.132 2.883.203 5.7362.324 8.59.101 2.419.294 5.638-.206 7.909-.184.8152-.728 1.755-1.511 2.246-.898.571-2.933.615-4.051.3844-2.76-.571-3.658-2.345-4.048-5.072-.937-6.512-.489-19.29.066-24.683.178-1.772.854-7.478 1.785-9.867.313-.813.991-2.439 2.169-2.208m-85.001 9.771s-4.087.288-6.893.601c-3.579.382-10.299 1.544-14.171 2.936-1.167.407-3.532 1.398-3.738 2.59-.209 1.247.554 2.211 1.414 3.219.494.58 3.295 3.274 4.078 3.93 3.293 2.744 9.966 6.987 14.89 9.046 1.681.701 4.476 1.7 4.476 1.7s-.209-7.956-.168-15.791c.016-4.141.109-8.23.109-8.23m74.864 3.167c.237 2.137-.318 6.179-.409 6.712-.176 1.228-1.104 4.059-1.252 4.408-.75 1.717-1.483 3.136-2.2682 4.54-1.34 2.411-4.52 6.231-6.415 7.865-7.025 6.075-17.906 9.535-27.243 10.675-6.33.766-13.608.648-20.322-.59-2.307-.426-5.74-1.211-5.74-1.211s.008 1.373-.1043 2.342c-.052.434-.387 1.598-.571 1.974-.4912 1.008-1.291 1.527-2.452 1.746-1.406.269-2.897.349-4.199-.2-2.131-.903-2.9-2.903-3.268-5.193-.302-1.845-.618-5.05-.618-5.05s-1.592-.7523-2.924-1.417c-4.0866-2.016-7.9725-4.449-11.364-6.9642-.939-.695-4.9817-4.084-5.877-4.9294-2.502-2.364-4.751-4.732-6.4646-7.763-1.332-2.367-1.714-4.4734-.703-6.981 1.4-3.496 6.412-6.135 9.845-7.637 2.524-1.112 10.353-3.669 13.61-4.1412 1.535-.2195 3.919-.6424 4.064-.741.06-.044.104-.082.145-.135.074-.107.2-3.573.175-4.836-.027-1.247.923-9.422 1.228-11.15.165-.942.873-4.542 1.598-5.484.47-.637 1.307-.593 1.988-.167 3.732 2.315 4.8633 10.367 5.141 14.465.167 2.494.25 6.248.25 6.248s4.281-.124 6.918-.055c2.557.063 5.377.47 8.035.8923 3.4027.539 10.032 1.986 13.833 3.916 3.1336 1.585 6.061 4.263 7.0085 7.094.885 2.595.75 4.386-.593 6.728-1.507 2.647-4.366 4.608-7.263 4.77-.865.058-4.109-.376-5.105-1.148-.396-.313-.374-.867-.088-1.244.107-.137 1.62-.931 2.518-1.408.447-.244.821-.505 1.167-.824.747-.662 1.414-1.381 1.34-2.221-.105-1.098-1.261-1.777-2.37-2.21-5.19-2.06-15.555-3.776-20.569-4.073-1.961-.115-4.746-.214-4.746-.214l.588 27.66s2.307.442 4.122.739c1.046.154 5.462.552 6.635.582 8.939.236 18.9156-.56 27.1186-4.4405 3.6-1.694 6.904-3.8005 9.403-6.654 3.301-3.787 5.028-8.955 4.569-14.354-.502-5.91-4.657-12.907-7.969-17.172-8.763-11.273-23.782-20.536-36.9914-25.968-13.492-5.5445-26.822-8.741-41.144-9.274-3.688-.1316-11.74.055-15.801 1.181-.5876.162-1.17.36-1.711.475-.4283.1045-1.093.3874-1.28.533-.099.0905-.206.198-.206.198s.253.137.492.2442c.431.1894 2.246.2965 3.185.467.835.159 1.716.607 2.057 1.2246.3293.582.376 1.041-.022 1.527-.923 1.129-4.394.931-5.918.695-1.5876-.258-3.562-.7383-3.927-2.1224-.4177-1.628.349-3.224 1.186-4.701 1.681-2.952 4.081-4.49 7.607-5.4485 4.998-1.373 11.312-2.337 16.035-2.518 10.691-.3985 20.806 1.4634 31.159 4.6133 5.926 1.788 13.693 4.795 19.369 7.533 4.07 1.961 10.496 5.58 14.1047 7.945 1.137.75 7.7962 5.641 8.829 6.5 2.1584 1.763 4.9843 4.298 7.022 6.327 3.955 3.919 8.873 9.922 11.268 14.684.5683 1.148 1.019 2.271 1.755 3.592.255.45 1.351 3.1637 1.532 3.949.178.774.442 1.914.4804 1.955.055.4207.555 2.744.516 3.647zm46.054 2.011c.201.019.25.028.434.055 3.274.445 6.481 1.033 8.934 2.131 2.276 1.011 3.616 2.28 4.833 4.551 1.8535 3.441 1.977 8.255.302 11.902-1.255 2.711-4.001 4.987-6.506 6.196-2.612 1.263-5.169 1.862-8.113 2.197-5.1354.563-10.699-.497-15.329-2.738-2.738-1.337-6.083-3.639-7.772-6.607-1.242-2.181-1.203-5.007.31-7.072 2.403-3.29 7.552-4.015 11.438-3.878 2.96.109 8.282 1.029 11.097 2.024.783.282 3.6526 1.403 4.152 1.908.3517.362.585.876.426 1.362-.648 1.9636-5.413 2.999-6.789 3.205-3.6933.563-5.605-.8295-9.798-2.4854-1.041-.4065-2.428-.857-3.493-.9557-1.901-.182-4.199.343-4.559 2.427-.187 1.074 1.071 2.073 2.029 2.488 2.249.975 4.078 1.318 6.297 1.354 6.533.099 13.879-.975 19.232-4.765.7382-.519 1.4522-1.288 1.4632-2.252 0-.124-.1756-1.162-.511-1.269-.049-.022-.1013.0025-.14-.006-.1233-.036-.3293-.373-.5023-.596-.385-.469-1.936-1.137-2.241-1.266-3.603-1.502-10.26-2.232-13.695-2.515-3.598-.307-9.258-.785-10.62-.983-1.398-.198-2.919-.475-4.136-1.021-1.211-.549-2.403-1.779-2.76-3.139-.626-2.455.179-5.47 1.541-7.436 3.575-5.141 11.94-7.088 18.199-7.863 6.055-.755 15.843-.747 21.788 2.414.92.489 1.392.947 1.194 1.9304-.385 1.843-1.78 3.029-3.452 3.551-1.758.56-5.402.777-7 .876-7.17.404-15.834.192-22.659 2.057-.535.154-1.458.393-1.763.734-1.068 1.159 1.986 1.489 2.642 1.631.192.039.234.047.434.066l15.091 1.788m22.368 26.817c-2.895-1.063-3.551-5.737-3.686-8.101-.459-7.698 1.576-18.408 4.16-25.622.738-2.0546 1.801-5.41 4.1-5.221 1.582.14 2.71 1.3593 3.597 2.612 2.268 3.199 5.251 7.5354 7.228 10.554 2.211 3.383 4.333 6.791 6.42 9.875.256.3734.497.736.778.967.379.305.7195.3213.873.039.0715-.11-.066-3.999-.162-4.779-.162-1.241-.236-2.246-.376-3.317-.385-3.112-1.376-7.489-2.153-10.45-.857-3.312-1.903-6.764-2.686-9.969-.25-1.041-.483-2.092-.475-3.084.008-1.433.928-2.227 2.422-1.691 2.944 1.038 6.846 7.429 7.983 9.6474.387.75 1.9196 4.562 2.263 5.63 1.222 3.661 1.961 7.132 2.299 11.122.324 3.878.052 9.527-1.5875 13.349-.601 1.406-1.837 3.298-2.864 4.251-1.612 1.494-4.825 2.661-7.038 1.398-2.422-1.373-6.402-8.266-7.08-9.444-2.309-4.031-6.283-11.916-6.898-12.8-.1347-.195-.3105-.382-.618-.475-.2335-.069-.327.417-.387.733-.3957 2.296-.6676 13.034-.673 13.333-.066 1.807-.154 6.24-.6757 8.423-.34 1.425-.686 2.595-1.996 3.194-.931.42-1.6396.244-2.768-.173m39.902-.6867c-.313-.239-.818-.755-1.186-1.17-.058-.057-1.099-1.617-1.305-2.098-.182-.414-.319-.714-.451-1.06-.947-2.447-.923-4.855-.398-7.483.486-2.452.947-2.559 2.205-5.926.08-.184.118-.344.146-.547.052-.461-.695-3.564-.739-4.561-.052-1.521 1.1284-2.6005 3.106-2.809.181-.0165.316-.0137.4473-.052.788-.192 1.2935-1.7027 1.725-2.914.601-1.7025 1.5403-4.2976 1.5403-4.2976s-2.499-.577-3.837-1.082c-1.494-.563-2.623-1.291-3.299-2.661-.81-1.604-.277-2.494 1.398-3.013.615-.197 5.465-1.128 6.998-1.345 1.9116-.28 3.71-.519 5.528-.7442 1.582-.192 8.838-1.032 11.147-.972 3.521.102 5.806 1.552 7.863 4.5315 1.107 1.59 1.862 3.479.192 4.504-2.565 1.557-10.875 1.675-12.4 1.692-2.425.024-5.778-.017-5.778-.017l-1.692 5.655s5.954-.063 9.299-.077c.813 0 1.626.044 2.082.14 1.708.379 2.2982 1.691 2.367 3.583.0933 2.214-.324 3.233-2.087 3.529-.912.146-11.139.206-12.5257.368-.865.094-1.7795.231-1.7795.231s-.739 1.928-1.3816 3.875c-.648 2.029-1.203 4.097-1.203 4.097s.519.022.95.022c.7192.0057 1.45-.099 2.021-.198 3.119-.571 7.758-1.2573 11.564-1.856 2.046-.326 3.076-.472 4.152.885.931 1.2 1.414 2.205 1.48 3.655.058 1.365-.983 2.269-2.254 3.241-4.023 3.076-10.9 6.41-16.024 6.981-2.368.266-2.944.003-5.018-.538-.395-.102-1.829-.772-1.815-.843 0 0-.777-.5163-1.0407-.7223zm64.657-28.418c-2.636 2.208-6.0416 6.709-7.667 9.046-2.1727 3.098-4.216 6.646-6.171 9.395-.4205.618-1.681 2.829-1.637 2.903.088.157 1.3565.107 2.661-.112 2.7764-.467 6.5524-2.417 8.568-4.026 3.073-2.464 5.2123-5.847 6.223-9.804.448-1.799.6755-5.57-.599-7.247-.25-.322-.887-.574-1.378-.154M565.547 99.2s-.835 2.4494-1.4473 4.372c-1.057 3.3172-3.383 12.251-3.9213 15.027-.81 4.1192-3.116 14.9146-3.235 15.1453-.162.313-.269.412-.659.6614-.95.558-1.332.374-2.482-.2413-1.494-.7853-2.806-1.5872-3.927-3.0674-2.252-2.925-1.713-8.428-1.274-11.6578 1.546-11.2954 3.109-16.263 7.407-27.506.071-.1925.071-.2365-.017-.4067-1.34-2.853-2.0624-6.2994-2.0624-9.084.011-8.813 5.075-17.532 10.7546-24.535.4282-.532 3.2156-3.872 4.4816-3.806 1.269.061 1.475 1.541 1.285 2.777-.637 4.07-3.501 8.217-5.459 11.65-2.2027 3.836-2.6805 5.4154-3.757 8.933-.173.549-.6045 3.12-.585 3.449.044.945.25 2.137.25 2.137s3.581-5.015 5.9452-8.11c1.2905-1.7 2.219-2.823 3.295-4.0344 1.0905-1.23 5.2894-5.594 6.4977-6.744 2.541-2.425 3.666-3.433 6.413-4.858 2.178-1.126 4.133-1.406 6.256-.003 3.367 2.211 4.834 6.888 5.213 10.68.442 4.531-.483 9.628-2.483 13.509-2.37 4.63-5.607 7.964-10.01 10.881-4.501 2.983-9.782 5.012-14.961 4.891-.7-.016-1.516-.057-1.516-.057"/></svg>