<?xml version="1.0" encoding="UTF-8" standalone="no"?>
<!-- Created with Inkscape (http://www.inkscape.org/) -->

<svg
   xmlns:dc="http://purl.org/dc/elements/1.1/"
   xmlns:cc="http://creativecommons.org/ns#"
   xmlns:rdf="http://www.w3.org/1999/02/22-rdf-syntax-ns#"
   xmlns:svg="http://www.w3.org/2000/svg"
   xmlns="http://www.w3.org/2000/svg"
   xmlns:xlink="http://www.w3.org/1999/xlink"
   xmlns:sodipodi="http://sodipodi.sourceforge.net/DTD/sodipodi-0.dtd"
   xmlns:inkscape="http://www.inkscape.org/namespaces/inkscape"
   width="280.84686"
   height="92.641037"
   id="svg2"
   version="1.1"
   inkscape:version="0.48.2 r9819"
   sodipodi:docname="New document 1">
  <defs
     id="defs4">
    <clipPath
       id="clipPath3235"
       clipPathUnits="userSpaceOnUse">
      <path
         id="path3237"
         d="m 40.2051,163.15 110.1599,0 0,-66.96 -110.1599,0 0,66.96 z"
         inkscape:connector-curvature="0" />
    </clipPath>
    <mask
       id="mask3219"
       height="1"
       width="1"
       y="0"
       x="0"
       maskUnits="userSpaceOnUse">
      <g
         id="g3221">
        <g
           id="g3223"
           clip-path="url(#clipPath3215)">
          <g
             id="g3225">
            <g
               id="g3227"
               transform="matrix(142.56001,0,0,83.520003,34.805061,89.349992)">
              <image
                 sodipodi:absref="C:\Users\Stephen\Desktop\12-0985_DE_bill_insert_Feb_CAR_6.5x3.5_M_lr_img3.png"
                 xlink:href="12-0985_DE_bill_insert_Feb_CAR_6.5x3.5_M_lr_img3.png"
                 width="1"
                 height="1"
                 transform="matrix(1,0,0,-1,0,1)"
                 id="image3229" />
            </g>
          </g>
        </g>
      </g>
    </mask>
    <clipPath
       id="clipPath3215"
       clipPathUnits="userSpaceOnUse">
      <path
         id="path3217"
         d="m 34.8051,172.87 142.5599,0 0,-83.52 -142.5599,0 0,83.52 z"
         inkscape:connector-curvature="0" />
    </clipPath>
    <clipPath
       id="clipPath3197"
       clipPathUnits="userSpaceOnUse">
      <path
         id="path3199"
         d="m 23.6366,222.55 149.0404,0 0,-192.96 -149.0404,0 0,192.96 z"
         inkscape:connector-curvature="0" />
    </clipPath>
    <mask
       id="mask3181"
       height="1"
       width="1"
       y="0"
       x="0"
       maskUnits="userSpaceOnUse">
      <g
         id="g3183">
        <g
           id="g3185"
           clip-path="url(#clipPath3177)">
          <g
             id="g3187">
            <g
               id="g3189"
               transform="matrix(153.36001,0,0,197.28001,21.836627,27.070041)">
              <image
                 sodipodi:absref="C:\Users\Stephen\Desktop\12-0985_DE_bill_insert_Feb_CAR_6.5x3.5_M_lr_img2.png"
                 xlink:href="12-0985_DE_bill_insert_Feb_CAR_6.5x3.5_M_lr_img2.png"
                 width="1"
                 height="1"
                 transform="matrix(1,0,0,-1,0,1)"
                 id="image3191" />
            </g>
          </g>
        </g>
      </g>
    </mask>
    <clipPath
       id="clipPath3177"
       clipPathUnits="userSpaceOnUse">
      <path
         id="path3179"
         d="m 21.8366,224.35 153.3604,0 0,-197.28 -153.3604,0 0,197.28 z"
         inkscape:connector-curvature="0" />
    </clipPath>
    <clipPath
       id="clipPath3149"
       clipPathUnits="userSpaceOnUse">
      <path
         id="path3151"
         d="M 0,0 468,0 468,252 0,252 0,0 z"
         inkscape:connector-curvature="0" />
    </clipPath>
    <clipPath
       id="clipPath3129"
       clipPathUnits="userSpaceOnUse">
      <path
         id="path3131"
         d="M 0,0 468,0 468,252 0,252 0,0 z"
         inkscape:connector-curvature="0" />
    </clipPath>
    <clipPath
       id="clipPath3079"
       clipPathUnits="userSpaceOnUse">
      <path
         id="path3081"
         d="m 169.13,222.55 269.28,0 0,-192.96 -269.28,0 0,192.96 z"
         inkscape:connector-curvature="0" />
    </clipPath>
    <mask
       id="mask3063"
       height="1"
       width="1"
       y="0"
       x="0"
       maskUnits="userSpaceOnUse">
      <g
         id="g3065">
        <g
           id="g3067"
           clip-path="url(#clipPath3059)">
          <g
             id="g3069">
            <g
               id="g3071"
               transform="matrix(273.60001,0,0,197.28001,167.33,27.070041)">
              <image
                 sodipodi:absref="C:\Users\Stephen\Desktop\12-0985_DE_bill_insert_Feb_CAR_6.5x3.5_M_lr_img1.png"
                 xlink:href="12-0985_DE_bill_insert_Feb_CAR_6.5x3.5_M_lr_img1.png"
                 width="1"
                 height="1"
                 transform="matrix(1,0,0,-1,0,1)"
                 id="image3073" />
            </g>
          </g>
        </g>
      </g>
    </mask>
    <clipPath
       id="clipPath3059"
       clipPathUnits="userSpaceOnUse">
      <path
         id="path3061"
         d="m 167.33,224.35 273.6,0 0,-197.28 -273.6,0 0,197.28 z"
         inkscape:connector-curvature="0" />
    </clipPath>
    <mask
       id="mask3031"
       height="1"
       width="1"
       y="0"
       x="0"
       maskUnits="userSpaceOnUse">
      <g
         id="g3033">
        <g
           id="g3035"
           clip-path="url(#clipPath3027)"
           style="opacity:0.30000299">
          <g
             id="g3037">
            <g
               id="g3039"
               transform="matrix(488.88002,0,0,273.24001,-10.440001,-10.52001)">
              <image
                 sodipodi:absref="C:\Users\Stephen\Desktop\12-0985_DE_bill_insert_Feb_CAR_6.5x3.5_M_lr_img0.png"
                 xlink:href="12-0985_DE_bill_insert_Feb_CAR_6.5x3.5_M_lr_img0.png"
                 width="1"
                 height="1"
                 transform="matrix(1,0,0,-1,0,1)"
                 id="image3041" />
            </g>
          </g>
        </g>
      </g>
    </mask>
    <clipPath
       id="clipPath3027"
       clipPathUnits="userSpaceOnUse">
      <path
         id="path3029"
         d="m -10.44,262.72 488.88,0 0,-273.24 -488.88,0 0,273.24 z"
         inkscape:connector-curvature="0" />
    </clipPath>
    <clipPath
       id="clipPath3023"
       clipPathUnits="userSpaceOnUse">
      <path
         id="path3025"
         d="m -9,262 486,0 0,-272 -486,0 0,272 z"
         inkscape:connector-curvature="0" />
    </clipPath>
    <mask
       id="mask3011"
       height="1"
       width="1"
       y="0"
       x="0"
       maskUnits="userSpaceOnUse">
      <g
         id="g3013">
        <g
           id="g3015"
           clip-path="url(#clipPath3007)">
          <path
             id="path3017"
             style="fill:#ffffff;fill-opacity:1;fill-rule:nonzero;stroke:none"
             d="m -9,-9 486,0 0,270 -486,0 0,-270 z"
             inkscape:connector-curvature="0" />
        </g>
      </g>
    </mask>
    <clipPath
       id="clipPath3007"
       clipPathUnits="userSpaceOnUse">
      <path
         id="path3009"
         d="m -9,262 486,0 0,-272 -486,0 0,272 z"
         inkscape:connector-curvature="0" />
    </clipPath>
    <clipPath
       id="clipPath2999"
       clipPathUnits="userSpaceOnUse">
      <path
         id="path3001"
         d="M 0,0 468,0 468,252 0,252 0,0 z"
         inkscape:connector-curvature="0" />
    </clipPath>
    <clipPath
       id="clipPath3129-4"
       clipPathUnits="userSpaceOnUse">
      <path
         inkscape:connector-curvature="0"
         id="path3131-0"
         d="M 0,0 468,0 468,252 0,252 0,0 z" />
    </clipPath>
  </defs>
  <sodipodi:namedview
     id="base"
     pagecolor="#ffffff"
     bordercolor="#666666"
     borderopacity="1.0"
     inkscape:pageopacity="0.0"
     inkscape:pageshadow="2"
     inkscape:zoom="1.4"
     inkscape:cx="315.08381"
     inkscape:cy="85.647921"
     inkscape:document-units="px"
     inkscape:current-layer="layer1"
     showgrid="false"
     fit-margin-top="2"
     fit-margin-left="2"
     fit-margin-right="2"
     fit-margin-bottom="2"
     inkscape:window-width="1920"
     inkscape:window-height="1005"
     inkscape:window-x="-9"
     inkscape:window-y="-9"
     inkscape:window-maximized="1" />
  <metadata
     id="metadata7">
    <rdf:RDF>
      <cc:Work
         rdf:about="">
        <dc:format>image/svg+xml</dc:format>
        <dc:type
           rdf:resource="http://purl.org/dc/dcmitype/StillImage" />
        <dc:title></dc:title>
      </cc:Work>
    </rdf:RDF>
  </metadata>
  <g
     inkscape:label="Layer 1"
     inkscape:groupmode="layer"
     id="layer1"
     transform="translate(-117.43372,-510.32738)">
    <g
       id="g3093"
       transform="matrix(1.25,0,0,-1.25,223.4962,517.27491)">
      <path
         inkscape:connector-curvature="0"
         d="m 0,0 -6.254,0 0,-29.156 6.144,0 c 10.128,0 16.423,5.641 16.423,14.728 C 16.313,-5.664 9.909,0 0,0 m -1.959,-3.992 0.867,0 c 5.977,0 13.109,-1.838 13.109,-10.584 0,-8.754 -7.132,-10.59 -13.109,-10.59 l -0.867,0 0,21.174 z"
         style="fill:#005a84;fill-opacity:1;fill-rule:nonzero;stroke:none"
         id="path3095" />
    </g>
    <g
       id="g3097"
       transform="matrix(1.25,0,0,-1.25,268.51307,538.69979)">
      <path
         inkscape:connector-curvature="0"
         d="m 0,0 c 0,-5.758 -2.117,-8.552 -6.473,-8.552 -4.363,0 -6.481,2.794 -6.481,8.552 l 0,17.14 -4.297,0 0,-18.346 c 0,-6.828 4.329,-11.413 10.778,-11.413 6.439,0 10.771,4.585 10.771,11.413 l 0,18.346 L 0,17.14 0,0 z"
         style="fill:#005a84;fill-opacity:1;fill-rule:nonzero;stroke:none"
         id="path3099" />
    </g>
    <g
       id="g3101"
       transform="matrix(1.25,0,0,-1.25,289.1397,533.73791)">
      <path
         inkscape:connector-curvature="0"
         d="m 0,0 13.169,13.17 -5.704,0 -11.519,-11.77 0,11.77 -4.295,0 0,-29.155 4.295,0 0,12.078 1.017,0.966 10.555,-13.044 5.765,0 L 0,0 z"
         style="fill:#005a84;fill-opacity:1;fill-rule:nonzero;stroke:none"
         id="path3103" />
    </g>
    <g
       id="g3105"
       transform="matrix(1.25,0,0,-1.25,327.77082,548.73204)">
      <path
         inkscape:connector-curvature="0"
         d="m 0,0 -11.719,0 0,9.983 11.377,0 0,3.995 -11.377,0 0,7.196 11.719,0 0,3.992 -16.012,0 0,-29.156 L 0,-3.99 0,0 z"
         style="fill:#005a84;fill-opacity:1;fill-rule:nonzero;stroke:none"
         id="path3107" />
    </g>
    <g
       id="g3109"
       transform="matrix(1.25,0,0,-1.25,216.05595,600.21729)">
      <path
         inkscape:connector-curvature="0"
         d="m 0,0 16.013,0 0,3.993 -11.72,0 0,9.983 11.377,0 0,3.993 -11.377,0 0,7.192 11.72,0 0,3.997 L 0,29.158 0,0 z"
         style="fill:#005a84;fill-opacity:1;fill-rule:nonzero;stroke:none"
         id="path3111" />
    </g>
    <g
       id="g3113"
       transform="matrix(1.25,0,0,-1.25,277.04645,600.21729)">
      <path
         inkscape:connector-curvature="0"
         d="m 0,0 16.012,0 0,3.993 -11.719,0 0,9.983 11.383,0 0,3.993 -11.383,0 0,7.192 11.719,0 0,3.997 L 0,29.158 0,0 z"
         style="fill:#005a84;fill-opacity:1;fill-rule:nonzero;stroke:none"
         id="path3115" />
    </g>
    <g
       id="g3117"
       transform="matrix(1.25,0,0,-1.25,277.04645,600.21729)">
      <path
         inkscape:connector-curvature="0"
         d="m 0,0 16.012,0 0,3.993 -11.719,0 0,9.983 11.383,0 0,3.993 -11.383,0 0,7.192 11.719,0 0,3.997 L 0,29.158 0,0 z"
         style="fill:#005a84;fill-opacity:1;fill-rule:nonzero;stroke:none"
         id="path3119" />
    </g>
    <g
       id="g3121"
       transform="matrix(1.25,0,0,-1.25,267.00683,563.77029)">
      <path
         inkscape:connector-curvature="0"
         d="M 0,0 0,-20.419 -0.005,-20.417 -18.666,0 l -2.653,0 -0.008,0 0,-29.158 0.008,0 4.291,0 0,20.606 18.597,-20.606 2.717,0 L 4.286,0 0,0 z"
         style="fill:#005a84;fill-opacity:1;fill-rule:nonzero;stroke:none"
         id="path3123" />
    </g>
    <g
       id="g3125"
       transform="matrix(1.25,0,0,-1.25,-119.9663,723.12729)">
      <g
         id="g3127"
         clip-path="url(#clipPath3129-4)">
        <g
           id="g3133"
           transform="translate(353.6649,119.0076)">
          <path
             inkscape:connector-curvature="0"
             d="M 0,0 C 0,2.966 -1.498,5.69 -3.921,7.112 -6.338,8.478 -9.254,8.478 -11.6,8.478 l -4.673,0 0,-29.158 4.293,0 0,12.018 0.898,0 8.36,-12.018 5.233,0 -9.039,12.456 C -2.652,-7.472 0,-4.178 0,0 m -4.068,-0.146 c 0,-3.342 -2.208,-4.823 -7.158,-4.823 l -0.754,0 0,9.53 0.565,0 c 5.011,0 7.347,-1.497 7.347,-4.707"
             style="fill:#005a84;fill-opacity:1;fill-rule:nonzero;stroke:none"
             id="path3135" />
        </g>
        <g
           id="g3137"
           transform="translate(372.4715,109.4051)">
          <path
             inkscape:connector-curvature="0"
             d="m 0,0 7.316,0 c -0.391,-4.363 -5.009,-7.688 -8.902,-7.688 -5.677,0 -10.66,5.247 -10.66,11.229 0,6.252 4.817,11.151 10.964,11.151 3.304,0 6.605,-1.718 8.624,-4.482 l 0.252,-0.345 3.049,2.908 -0.218,0.266 c -2.812,3.538 -7.241,5.646 -11.86,5.646 -8.329,0 -15.106,-6.848 -15.106,-15.262 0,-8.187 6.745,-15.101 14.73,-15.101 8.011,0 13.823,5.958 13.823,14.165 l 0,1.502 L 0,3.989 0,0 z"
             style="fill:#005a84;fill-opacity:1;fill-rule:nonzero;stroke:none"
             id="path3139" />
        </g>
      </g>
    </g>
    <g
       id="g3141"
       transform="matrix(1.25,0,0,-1.25,383.12345,563.77029)">
      <path
         inkscape:connector-curvature="0"
         d="M 0,0 -6.751,-11.75 -13.502,0 l -4.944,0 9.549,-16.527 0,-12.631 4.293,0 0,12.631 L 4.942,0 0,0 z"
         style="fill:#005a84;fill-opacity:1;fill-rule:nonzero;stroke:none"
         id="path3143" />
    </g>
    <g
       id="g3153"
       transform="matrix(1.25,0,0,-1.25,173.70295,590.22241)">
      <path
         inkscape:connector-curvature="0"
         d="m 0,0 c -0.128,-0.136 -2.807,-2.963 -6.06,-3.162 -3.552,-0.206 -6.928,1.943 -7.97,9.786 l -14.164,4.175 C -21.988,-11.233 -4.746,-10.471 1.034,-0.764 1.431,-0.144 1.323,0.191 1.025,0.352 0.698,0.529 0.356,0.39 0,0"
         style="fill:#005a84;fill-opacity:1;fill-rule:nonzero;stroke:none"
         id="path3155" />
    </g>
    <g
       id="g3157"
       transform="matrix(1.25,0,0,-1.25,173.6837,517.86066)">
      <path
         inkscape:connector-curvature="0"
         d="m 0,0 c -5.689,11.516 -25.95,0.151 -29.424,-29.299 -0.229,-1.947 0.722,-2.945 1.551,-3.378 1.858,-0.969 2.826,-1.347 5.773,-1.924 1.911,-0.364 3.093,-0.504 4.737,-0.393 1.42,0.098 2.702,1.107 2.843,2.582 3.011,31.636 10.222,38.69 13.569,31.908 C -0.557,-1.285 0.427,-0.936 0,0"
         style="fill:#005a84;fill-opacity:1;fill-rule:nonzero;stroke:none"
         id="path3159" />
    </g>
    <g
       id="g3161"
       transform="matrix(1.25,0,0,-1.25,169.35695,530.30591)">
      <path
         inkscape:connector-curvature="0"
         d="m 0,0 c -1.597,0.033 -2.832,-0.285 -3.624,-1.59 -0.771,-1.277 -1.266,-2.844 -1.611,-4.856 -0.307,-1.77 -0.594,-4.438 -0.32,-5.307 0.28,-0.865 0.936,-1.525 2.093,-1.595 6.457,-0.399 25.403,-3.102 27.999,-8.608 1.78,-3.787 -3.515,-4.755 -7.403,-5.758 -1.483,-0.384 -2.377,-1.356 -2.546,-2.547 -0.442,-3.09 0.356,-4.645 1.054,-5.68 0.479,-0.72 1.425,-1.154 2.633,-0.435 2.876,1.701 5.242,4.723 5.34,4.855 C 36.269,-13.84 9.69,-0.193 0,0"
         style="fill:#54b948;fill-opacity:1;fill-rule:nonzero;stroke:none"
         id="path3163" />
    </g>
    <g
       id="g3165"
       transform="matrix(1.25,0,0,-1.25,177.4892,566.46316)">
      <path
         inkscape:connector-curvature="0"
         d="m 0,0 c -31.772,-3.498 -56.854,11.014 -37.864,14.534 0.089,0.011 2.419,0.56 2.88,1.93 0.457,1.375 0.593,1.818 1.131,3.78 0.339,1.243 0.62,1.953 0.944,2.909 0.499,1.487 -0.432,2.378 -2.548,1.345 -17.344,-8.465 -12.197,-24.288 1.886,-32.229 15.272,-8.612 29.371,-5.483 30.726,-5.08 1.357,0.394 2.732,0.726 4.191,2.919 0.797,1.46 2.036,3.261 1.703,7.279 C 3.049,-2.587 2.992,0.328 0,0"
         style="fill:#27bcd7;fill-opacity:1;fill-rule:nonzero;stroke:none"
         id="path3167" />
    </g>
    <g
       id="g3169"
       transform="matrix(1.25,0,0,-1.25,385.16182,594.97291)">
      <path
         inkscape:connector-curvature="0"
         d="M 0,0 C 0,2.465 1.967,4.43 4.443,4.43 6.928,4.43 8.895,2.465 8.895,0 8.895,-2.475 6.928,-4.443 4.443,-4.443 1.967,-4.443 0,-2.475 0,0 m 0.718,0 c 0,-2.101 1.699,-3.72 3.725,-3.72 2.037,0 3.728,1.619 3.728,3.72 0,2.099 -1.691,3.701 -3.728,3.701 C 2.417,3.701 0.718,2.099 0.718,0 m 5.762,-2.53 -0.827,0 -1.271,2.3 -0.93,0 0,-2.3 -0.716,0 0,4.978 2.098,0 c 0.894,0 1.71,-0.268 1.71,-1.319 0,-0.982 -0.666,-1.333 -1.329,-1.359 l 1.265,-2.3 z m -3.028,4.264 0,-1.25 0.774,0 c 0.671,0 1.593,-0.11 1.593,0.573 0,0.629 -0.532,0.677 -1.126,0.677 l -1.241,0 z"
         style="fill:#005a84;fill-opacity:1;fill-rule:nonzero;stroke:none"
         id="path3171" />
    </g>
  </g>
</svg>
