<?xml version="1.0" encoding="UTF-8" standalone="no"?>
<!-- Created with Inkscape (http://www.inkscape.org/) -->

<svg
   xmlns:dc="http://purl.org/dc/elements/1.1/"
   xmlns:cc="http://creativecommons.org/ns#"
   xmlns:rdf="http://www.w3.org/1999/02/22-rdf-syntax-ns#"
   xmlns:svg="http://www.w3.org/2000/svg"
   xmlns="http://www.w3.org/2000/svg"
   version="1.1"
   width="333.93405"
   height="64"
   id="svg2"
   xml:space="preserve"><metadata
     id="metadata8"><rdf:RDF><cc:Work
         rdf:about=""><dc:format>image/svg+xml</dc:format><dc:type
           rdf:resource="http://purl.org/dc/dcmitype/StillImage" /><dc:title></dc:title></cc:Work></rdf:RDF></metadata><defs
     id="defs6"><clipPath
       id="clipPath16"><path
         d="M 0,0 612,0 612,792 0,792 0,0 z"
         id="path18" /></clipPath><clipPath
       id="clipPath38"><path
         d="m 467.999,22.625 144.001,0 0,42.375 -144.001,0 0,-42.375 z"
         id="path40" /></clipPath><clipPath
       id="clipPath62"><path
         d="m 474,35.84 108.429,0 0,20.16 L 474,56 474,35.84 z"
         id="path64" /></clipPath><clipPath
       id="clipPath78"><path
         d="m 467.999,22.625 144.001,0 0,42.375 -144.001,0 0,-42.375 z"
         id="path80" /></clipPath></defs><g
     transform="matrix(1.25,0,0,-1.25,-347.82319,413.70518)"
     id="g10"><path
       d="m 378.78122,311.50764 c -1.01079,0.0991 -1.65333,-0.16762 -2.38984,-0.34032 -5.10984,3.02222 -10.7581,6.42032 -15.87048,8.87365 4.50794,-3.57079 9.34603,-6.80889 13.48064,-10.75301 -0.4927,-0.0762 -0.40127,-0.73397 -0.85334,-0.85334 -5.00825,2.61588 -10.19936,5.9581 -15.01714,8.19302 4.8,-3.67746 9.68889,-7.26349 14.33651,-11.09333 -0.11429,-0.96762 0.15492,-1.55175 0.34032,-2.21969 -2.80889,-5.32571 -6.35937,-10.82158 -8.7035,-16.04317 3.47937,4.54349 6.68699,9.35619 10.58032,13.48317 0.0762,-0.49269 0.73397,-0.40127 0.85334,-0.85333 -2.41778,-5.14794 -5.96064,-10.08254 -8.02032,-15.01714 3.5073,4.91174 7.26095,9.57714 10.92317,14.33651 1.01334,-0.10413 1.70159,0.11682 2.3873,0.34031 5.10985,-2.96889 10.74286,-6.32381 15.87302,-8.70349 -4.58667,3.37778 -9.13016,6.79619 -13.48317,10.41016 0.45206,0.1727 0.46222,0.78984 0.85333,1.02349 5.05905,-2.5092 10.16381,-5.87936 15.01968,-8.02032 -4.80254,3.56064 -9.52889,7.19747 -14.16635,10.92318 -0.0736,0.83302 -0.35047,1.46794 -0.34032,2.3873 2.85715,5.22159 6.2908,10.77587 8.7035,15.87302 -3.49969,-4.52064 -6.84191,-9.20127 -10.58032,-13.48318 -0.30222,0.32508 -0.72381,0.5308 -1.02603,0.85334 2.6692,4.95492 5.90984,10.24761 8.19301,15.01968 -3.68762,-4.78984 -7.26349,-9.68889 -11.09333,-14.33651 m -1.70667,19.45651 3.07302,0 c 9.21651,-0.88127 15.65714,-5.1708 19.79682,-11.60635 4.21588,-6.56 5.75492,-16.42413 1.87683,-24.74667 -3.83492,-8.23111 -10.64635,-13.56444 -21.67365,-14.84698 l -3.07302,0 c -7.34476,0.51301 -12.81777,3.86032 -16.8965,8.02032 -4.10413,4.18793 -7.16699,10.23746 -7.16699,17.57968 0,14.79619 10.65651,23.98222 24.06349,25.6"
       id="path44"
       style="fill:#0098cc;fill-opacity:1;fill-rule:evenodd;stroke:none" /><path
       d="m 460.01852,299.56072 9.04635,0 c -1.59746,5.45778 -2.7327,11.37524 -4.60952,16.55365 -1.55429,-5.44254 -2.92826,-11.06286 -4.43683,-16.55365 m -6.99683,30.03682 23.38032,0 c 4.94222,-16.33269 10.14603,-32.40634 15.18984,-48.63999 l -17.74984,0 c -0.40635,2.32381 -1.07682,4.38603 -1.70666,6.48634 l -15.18985,0 c -0.68825,-2.0419 -1.28508,-4.17523 -1.70666,-6.48634 l -17.7473,0 c 5.23682,16.15492 10.03936,32.74158 15.53015,48.63999"
       id="path48"
       style="fill:#0098cc;fill-opacity:1;fill-rule:evenodd;stroke:none" /><path
       d="m 278.25855,329.42764 c 12.17524,-0.11429 24.80254,0.22857 36.69333,-0.17016 -0.11428,-4.49524 0.22857,-9.44254 -0.17016,-13.65333 l -20.30984,0 0,-4.09651 17.74984,0 c -0.11428,-4.15238 0.22604,-8.75936 -0.17015,-12.62984 l -17.57969,0 0,-3.92381 c 6.7708,-0.11429 13.99365,0.22603 20.48,-0.1727 -0.11428,-4.55111 0.22857,-9.55682 -0.17016,-13.82349 l -36.52317,0 0,48.46984 z"
       id="path52"
       style="fill:#0098cc;fill-opacity:1;fill-rule:evenodd;stroke:none" /><path
       d="m 352.32786,329.42764 0,-13.82349 c -8.58667,0.48 -15.73333,-0.22603 -18.26032,-5.80318 -2.36952,-5.22666 -0.0432,-11.02222 4.09397,-13.31301 3.3473,-1.85143 8.57397,-1.62032 14.16635,-1.53397 l 0,-13.99619 c -15.78921,-0.93968 -26.77079,1.21397 -32.42667,10.06984 -4.54349,7.11619 -4.87365,17.95302 -1.36635,25.6 4.97016,10.83175 16.53842,14.21968 33.79302,12.8"
       id="path56"
       style="fill:#0098cc;fill-opacity:1;fill-rule:evenodd;stroke:none" /><path
       d="m 406.42919,329.42764 16.04317,0 0,-34.30349 c 5.51873,-0.39873 11.77651,-0.0584 17.57715,-0.17016 -1.54667,-4.65524 -3.00953,-9.39429 -4.60699,-13.99619 l -29.18349,0 0,47.95682 c -0.0152,0.24381 -0.0279,0.48508 0.17016,0.51302"
       id="path68"
       style="fill:#0098cc;fill-opacity:1;fill-rule:evenodd;stroke:none" /><path
       d="m 517.87455,293.07539 c 1.50349,1.50349 1.4019,4.61968 0.17016,6.14349 -1.67873,2.08 -5.87429,1.13524 -9.21651,1.36635 -0.39619,-2.56 -0.0508,-8.58667 -0.17016,-8.70349 3.60127,0.20825 7.45397,-0.56889 9.21651,1.19365 m -1.02349,19.11619 c 1.84381,1.61524 1.35619,5.10984 -0.51302,6.14349 -1.92508,1.06413 -6.42285,0.51048 -7.68,0.51048 l 0,-7.50984 c 2.91556,0 6.54476,-0.58921 8.19302,0.85587 m -23.89334,17.23683 c 1.93778,-0.033 26.70731,2.61841 34.81651,-2.04953 4.81016,-2.76825 8.28191,-10.52698 4.43683,-17.06666 -1.16064,-1.96826 -2.93334,-3.18223 -5.46286,-4.09397 4.32508,-1.88191 8.20318,-4.72889 8.53333,-10.58286 1.11492,-19.72571 -24.71365,-13.75492 -42.49396,-14.67683 l 0,47.95683 c -0.0152,0.24127 -0.0279,0.48254 0.17015,0.51302"
       id="path72"
       style="fill:#0098cc;fill-opacity:1;fill-rule:evenodd;stroke:none" /><path
       d="m 540.95511,328.79813 c 0.74768,-2e-5 1.47766,-0.19175 2.18994,-0.57554 0.71226,-0.38367 1.26713,-0.93262 1.66459,-1.64686 0.39743,-0.71426 0.59616,-1.45897 0.59616,-2.23421 0,-0.76736 -0.19581,-1.50522 -0.58733,-2.21354 -0.39154,-0.70834 -0.94052,-1.25828 -1.64685,-1.64982 -0.70639,-0.39155 -1.44521,-0.58733 -2.21651,-0.58733 -0.7713,0 -1.51012,0.19581 -2.21648,0.58733 -0.70639,0.39154 -1.25631,0.94148 -1.64983,1.64982 -0.39353,0.70832 -0.59028,1.44618 -0.59028,2.21354 0,0.77524 0.19962,1.51995 0.59912,2.23421 0.39944,0.71424 0.95527,1.26319 1.66755,1.64686 0.71226,0.38369 1.44224,0.57552 2.18992,0.57554 z m 0,-0.73785 c -0.6257,0 -1.23467,-0.16051 -1.8269,-0.4811 -0.59225,-0.32071 -1.05562,-0.77914 -1.39012,-1.37533 -0.33447,-0.5962 -0.50174,-1.21697 -0.50174,-1.86233 0,-0.64145 0.16432,-1.2563 0.4929,-1.84462 0.32859,-0.58832 0.78802,-1.04676 1.37829,-1.37534 0.59027,-0.32858 1.20612,-0.49288 1.84757,-0.49288 0.64142,0 1.25729,0.16432 1.84757,0.49288 0.59027,0.32858 1.04871,0.78702 1.37534,1.37534 0.32663,0.58832 0.48993,1.20317 0.48993,1.84462 0,0.64536 -0.16635,1.26613 -0.49877,1.86233 -0.33255,0.59619 -0.79591,1.05462 -1.39012,1.37533 -0.59421,0.32072 -1.20219,0.4811 -1.82395,0.4811 z m -1.95383,-6.18022 0,4.79307 1.64688,0 c 0.56275,-3e-5 0.97003,-0.0442 1.22189,-0.13283 0.25194,-0.0886 0.45253,-0.24305 0.60209,-0.46336 0.14958,-0.22045 0.22425,-0.45453 0.22425,-0.70243 -2e-5,-0.35025 -0.12495,-0.65521 -0.37483,-0.91494 -0.24991,-0.25971 -0.58144,-0.40531 -0.99462,-0.4368 0.16915,-0.0709 0.30497,-0.15543 0.40729,-0.25372 0.19276,-0.18895 0.42893,-0.50567 0.70832,-0.95035 l 0.58438,-0.93854 -0.94443,0 -0.42502,0.75556 c -0.33447,0.59421 -0.60403,0.96609 -0.80866,1.11563 -0.14171,0.11022 -0.34829,0.16533 -0.61981,0.16533 l -0.4545,0 0,-2.03647 z m 0.77328,2.69758 0.93854,0 c 0.44861,0 0.75457,0.0668 0.91787,0.20063 0.1633,0.13384 0.24508,0.31088 0.24508,0.53125 0,0.14172 -0.0394,0.26857 -0.1181,0.38073 -0.0787,0.11225 -0.18793,0.1958 -0.32759,0.25092 -0.13968,0.0551 -0.39845,0.0825 -0.7762,0.0825 l -0.87952,0 z"
       id="path3138"
       style="font-size:4.76000023px;font-variant:normal;font-weight:normal;font-stretch:normal;writing-mode:lr-tb;fill:#0098cc;fill-opacity:1;fill-rule:nonzero;stroke:none;font-family:Arial MT;-inkscape-font-specification:ArialMT" /></g></svg>