<?xml version="1.0" encoding="UTF-8" standalone="no"?>
<!-- Created with Inkscape (http://www.inkscape.org/) -->

<svg
   xmlns:dc="http://purl.org/dc/elements/1.1/"
   xmlns:cc="http://creativecommons.org/ns#"
   xmlns:rdf="http://www.w3.org/1999/02/22-rdf-syntax-ns#"
   xmlns:svg="http://www.w3.org/2000/svg"
   xmlns="http://www.w3.org/2000/svg"
   xmlns:sodipodi="http://sodipodi.sourceforge.net/DTD/sodipodi-0.dtd"
   xmlns:inkscape="http://www.inkscape.org/namespaces/inkscape"
   width="273.37"
   height="75.126427"
   viewBox="0 0 72.329146 19.8772"
   version="1.1"
   id="svg14425"
   inkscape:version="0.92.0 r15299"
   sodipodi:docname="edison intl.svg">
  <defs
     id="defs14419" />
  <sodipodi:namedview
     id="base"
     pagecolor="#ffffff"
     bordercolor="#666666"
     borderopacity="1.0"
     inkscape:pageopacity="0.0"
     inkscape:pageshadow="2"
     inkscape:zoom="2.9553732"
     inkscape:cx="135.68506"
     inkscape:cy="36.563218"
     inkscape:document-units="mm"
     inkscape:current-layer="layer1"
     showgrid="false"
     fit-margin-top="0"
     fit-margin-left="0"
     fit-margin-right="0"
     fit-margin-bottom="0"
     units="px"
     inkscape:window-width="1280"
     inkscape:window-height="744"
     inkscape:window-x="-4"
     inkscape:window-y="-4"
     inkscape:window-maximized="1" />
  <metadata
     id="metadata14422">
    <rdf:RDF>
      <cc:Work
         rdf:about="">
        <dc:format>image/svg+xml</dc:format>
        <dc:type
           rdf:resource="http://purl.org/dc/dcmitype/StillImage" />
        <dc:title></dc:title>
      </cc:Work>
    </rdf:RDF>
  </metadata>
  <g
     inkscape:label="Layer 1"
     inkscape:groupmode="layer"
     id="layer1"
     transform="translate(-39.695232,-211.95753)">
    <g
       id="g14569"
       transform="translate(0.26458403,-0.26458172)">
      <rect
         ry="0.68126965"
         y="212.48669"
         x="39.695263"
         height="19.347921"
         width="19.317757"
         id="rect32630"
         style="fill:#ffffff;fill-opacity:1;fill-rule:nonzero;stroke:#ffffff;stroke-width:0;stroke-miterlimit:4;stroke-dasharray:none;stroke-opacity:1" />
      <path
         id="path31966"
         style="fill:#ffffff;fill-opacity:1;fill-rule:nonzero;stroke:none;stroke-width:0.26458332"
         d="m 63.511701,229.08832 h 0.713782 v -3.79068 h -0.713782 z"
         inkscape:connector-curvature="0" />
      <path
         inkscape:connector-curvature="0"
         d="m 65.692529,229.08832 v -3.79087 h 0.637646 l 1.983052,2.60883 h 0.01124 v -2.60883 h 0.30427 v 3.79087 h -0.315513 l -2.305182,-3.02423 h -0.01124 v 3.02423 h -0.304271"
         style="fill:#ffffff;fill-opacity:1;fill-rule:nonzero;stroke:none;stroke-width:0.66146278"
         id="path31970" />
      <path
         inkscape:connector-curvature="0"
         d="m 70.530435,229.08832 v -3.5448 h -0.754724 v -0.24607 h 2.2225 v 0.24607 h -0.754724 v 3.5448 h -0.713052"
         style="fill:#ffffff;fill-opacity:1;fill-rule:nonzero;stroke:none;stroke-width:0.66146278"
         id="path31974" />
      <path
         inkscape:connector-curvature="0"
         d="m 73.157084,229.08832 v -3.79087 h 2.239697 v 0.24607 h -1.525984 v 1.4625 h 1.438672 v 0.24541 h -1.438672 v 1.59149 h 1.550458 v 0.2454 h -2.264171"
         style="fill:#ffffff;fill-opacity:1;fill-rule:nonzero;stroke:none;stroke-width:0.66146278"
         id="path31978" />
      <path
         inkscape:connector-curvature="0"
         d="m 76.696547,229.08832 v -3.79087 h 1.637771 c 0.689901,0 1.075531,0.50933 1.075531,1.11722 0,0.57944 -0.420687,0.8308 -0.988219,0.90092 l 1.006079,1.77273 H 78.64388 l -1.035182,-1.94207 h 0.04696 c 0.631693,0 1.040474,-0.24606 1.040474,-0.81294 0,-0.42069 -0.204391,-0.84866 -0.900245,-0.84866 h -0.386292 v 3.60367 h -0.713052"
         style="fill:#ffffff;fill-opacity:1;fill-rule:nonzero;stroke:none;stroke-width:0.66146278"
         id="path31982" />
      <path
         inkscape:connector-curvature="0"
         d="m 80.673235,229.08832 v -3.79087 h 0.637645 l 1.983052,2.60883 h 0.01191 v -2.60883 h 0.304271 v 3.79087 h -0.316175 l -2.304523,-3.02423 h -0.01191 v 3.02423 h -0.30427"
         style="fill:#ffffff;fill-opacity:1;fill-rule:nonzero;stroke:none;stroke-width:0.66146278"
         id="path31986" />
      <path
         inkscape:connector-curvature="0"
         d="m 85.856422,226.46163 -0.550333,1.39239 h 1.105958 z m 1.789906,2.62669 h -0.730911 l -0.40349,-0.9889 H 85.20687 l -0.380339,0.9889 h -0.333375 l 1.544506,-3.89605 h 0.01191 l 1.59676,3.89605"
         style="fill:#ffffff;fill-opacity:1;fill-rule:nonzero;stroke:none;stroke-width:0.66146278"
         id="path31990" />
      <path
         inkscape:connector-curvature="0"
         d="m 88.852164,229.08832 v -3.5448 H 88.09744 v -0.24607 h 2.2225 v 0.24607 h -0.754724 v 3.5448 h -0.713052"
         style="fill:#ffffff;fill-opacity:1;fill-rule:nonzero;stroke:none;stroke-width:0.66146278"
         id="path31994" />
      <path
         id="path31996"
         style="fill:#ffffff;fill-opacity:1;fill-rule:nonzero;stroke:none;stroke-width:0.26458332"
         d="m 91.559513,229.08832 h 0.714179 v -3.79068 h -0.714179 z"
         inkscape:connector-curvature="0" />
      <path
         inkscape:connector-curvature="0"
         d="m 95.343716,228.94743 c 0.912813,0 1.117203,-1.018 1.117203,-1.75487 0,-0.73688 -0.20439,-1.75421 -1.117203,-1.75421 -0.912151,0 -1.11125,1.01733 -1.11125,1.75421 0,0.73687 0.199099,1.75487 1.11125,1.75487 z m 0,-3.75515 c 1.100005,0 1.883834,0.88306 1.883834,2.00028 0,1.11722 -0.783829,2.00027 -1.883834,2.00027 -1.094052,0 -1.877218,-0.88305 -1.877218,-2.00027 0,-1.11722 0.783166,-2.00028 1.877218,-2.00028"
         style="fill:#ffffff;fill-opacity:1;fill-rule:nonzero;stroke:none;stroke-width:0.66146278"
         id="path32000" />
      <path
         inkscape:connector-curvature="0"
         d="m 98.391055,229.08832 v -3.79087 h 0.636984 l 1.983711,2.60883 h 0.0112 v -2.60883 h 0.30493 v 3.79087 h -0.31617 l -2.305185,-3.02423 h -0.01124 v 3.02423 h -0.304271"
         style="fill:#ffffff;fill-opacity:1;fill-rule:nonzero;stroke:none;stroke-width:0.66146278"
         id="path32004" />
      <path
         inkscape:connector-curvature="0"
         d="m 103.57358,226.46163 -0.54967,1.39239 h 1.1053 z m 1.78991,2.62669 h -0.73091 l -0.40349,-0.9889 h -1.3044 l -0.381,0.9889 h -0.33271 l 1.54384,-3.89605 h 0.0119 l 1.59676,3.89605"
         style="fill:#ffffff;fill-opacity:1;fill-rule:nonzero;stroke:none;stroke-width:0.66146278"
         id="path32008" />
      <path
         inkscape:connector-curvature="0"
         d="m 106.31466,229.08832 v -3.79087 h 0.71372 V 228.79 h 1.52069 v 0.29832 h -2.23441"
         style="fill:#ffffff;fill-opacity:1;fill-rule:nonzero;stroke:none;stroke-width:0.66146278"
         id="path32012" />
      <path
         inkscape:connector-curvature="0"
         d="m 63.455477,223.12585 6.61e-4,-8.73865 h 5.165328 v 0.56622 h -3.520281 v 3.3715 h 3.317214 v 0.56622 h -3.317214 v 3.66849 h 3.573859 v 0.56622 h -5.219567"
         style="fill:#ffffff;fill-opacity:1;fill-rule:nonzero;stroke:none;stroke-width:0.66146278"
         id="path32016" />
      <path
         inkscape:connector-curvature="0"
         d="m 72.425511,222.55964 h 1.024599 c 2.629958,6.6e-4 3.182937,-1.90106 3.182937,-3.6136 0,-2.19871 -1.024599,-3.99195 -3.101578,-3.99195 h -1.105297 z m -1.645047,-8.17243 h 2.845593 c 3.155818,6.6e-4 4.652698,2.23907 4.652037,4.53171 0,2.79206 -1.793875,4.20694 -4.342474,4.20694 h -3.155818 l 5.29e-4,-8.73865"
         style="fill:#ffffff;fill-opacity:1;fill-rule:nonzero;stroke:none;stroke-width:0.66146278"
         id="path32020" />
      <path
         inkscape:connector-curvature="0"
         d="m 80.243948,223.12717 v -8.73732 l 1.645708,-0.001 -5.29e-4,8.73865 H 80.24408"
         style="fill:#ffffff;fill-opacity:1;fill-rule:nonzero;stroke:none;stroke-width:0.66146278"
         id="path32024" />
      <path
         inkscape:connector-curvature="0"
         d="m 84.88606,221.56214 c 0.458391,0.72828 0.943901,1.1192 1.807104,1.1192 0.755386,0 1.565011,-0.60656 1.565011,-1.51013 0,-2.5354 -4.099719,-1.3355 -4.099719,-4.46424 0,-1.40231 1.172765,-2.56253 2.804583,-2.56253 1.078839,0 2.171568,0.594 2.629959,1.56504 l -0.56687,0.3638 c -0.336683,-0.70115 -0.863203,-1.24091 -1.793214,-1.24091 -0.904213,0 -1.429411,0.68793 -1.429411,1.52402 0,2.04989 4.099057,1.18734 4.099057,4.34254 0,1.60538 -1.402292,2.67034 -2.872052,2.67034 -1.186656,0 -2.144448,-0.35124 -2.751005,-1.36196 l 0.606557,-0.44517"
         style="fill:#ffffff;fill-opacity:1;fill-rule:nonzero;stroke:none;stroke-width:0.66146278"
         id="path32028" />
      <path
         inkscape:connector-curvature="0"
         d="m 95.643357,222.80372 c 2.104099,0 2.57638,-2.34689 2.57638,-4.0462 0,-1.69931 -0.472281,-4.04553 -2.575719,-4.04553 -2.104099,0 -2.562489,2.34622 -2.562489,4.04553 0,1.69931 0.45839,4.0462 2.561828,4.0462 z m 5.29e-4,-8.65795 c 2.53537,0 4.342474,2.03666 4.342474,4.61175 -5.29e-4,2.57642 -1.807104,4.61242 -4.343135,4.61242 -2.522141,0 -4.328584,-2.03666 -4.328584,-4.61242 0,-2.57575 1.807104,-4.61175 4.329245,-4.61175"
         style="fill:#ffffff;fill-opacity:1;fill-rule:nonzero;stroke:none;stroke-width:0.66146278"
         id="path32032" />
      <path
         inkscape:connector-curvature="0"
         d="m 101.77111,223.12717 5.3e-4,-8.73865 h 1.46976 l 4.57133,6.01473 h 0.0271 l 5.3e-4,-6.01473 h 0.70115 l -5.3e-4,8.73931 h -0.72827 l -5.31283,-6.97253 h -0.0271 v 6.97253 l -0.70181,-6.6e-4"
         style="fill:#ffffff;fill-opacity:1;fill-rule:nonzero;stroke:none;stroke-width:0.66146278"
         id="path32036" />
      <path
         inkscape:connector-curvature="0"
         d="m 110.46796,227.17602 c 0.53777,0 0.97367,-0.43591 0.97367,-0.97302 0,-0.53777 -0.4359,-0.97368 -0.97367,-0.97368 -0.5371,0 -0.97367,0.43591 -0.97367,0.97368 0,0.53711 0.43657,0.97302 0.97367,0.97302 z"
         style="fill:none;stroke:#ffffff;stroke-width:0.10715698;stroke-linecap:butt;stroke-linejoin:miter;stroke-miterlimit:4;stroke-dasharray:none;stroke-opacity:1"
         id="path32040" />
      <path
         inkscape:connector-curvature="0"
         d="m 109.98245,226.78443 c 0.0767,-0.005 0.15676,-0.01 0.23019,-0.01 0.0595,0 0.13956,0.005 0.21629,0.01 v -0.041 h -0.041 c -0.0761,0 -0.0952,-0.0172 -0.0952,-0.10584 v -0.37902 c 0.14155,0 0.14486,0.0106 0.2077,0.0919 l 0.33271,0.43392 c 0.0437,-0.005 0.09,-0.01 0.1356,-0.01 0.0476,0 0.0939,0.005 0.13957,0.01 v -0.041 c -0.0675,-0.005 -0.10186,-0.0119 -0.17,-0.10121 l -0.24275,-0.31552 c -0.0377,-0.0476 -0.0734,-0.08 -0.10054,-0.10186 0.20373,-0.043 0.30361,-0.17661 0.30361,-0.33669 0,-0.26591 -0.20175,-0.3347 -0.42532,-0.3347 -0.078,0 -0.15677,0.01 -0.26061,0.01 -0.0734,0 -0.15346,-0.005 -0.23019,-0.01 v 0.041 h 0.041 c 0.0761,0 0.0952,0.0165 0.0952,0.10583 v 0.9373 c 0,0.0886 -0.0192,0.10584 -0.0952,0.10584 h -0.041 z m 0.31022,-1.12979 c 0,-0.0377 0.009,-0.041 0.0628,-0.041 0.31949,0 0.35653,0.15611 0.35653,0.30759 0,0.1098 -0.0463,0.28641 -0.33933,0.28641 -0.0284,0 -0.0582,-0.002 -0.08,-0.003 v -0.54968"
         style="fill:#ffffff;fill-opacity:1;fill-rule:nonzero;stroke:none;stroke-width:0.66146278"
         id="path32044" />
      <path
         id="path32046"
         style="fill:#ffffff;fill-opacity:1;fill-rule:nonzero;stroke:none;stroke-width:0.26458332"
         d="M 39.695232,231.82481 H 59.013123 V 212.48747 H 39.695232 Z"
         inkscape:connector-curvature="0" />
      <path
         inkscape:connector-curvature="0"
         d="m 39.707138,224.33568 8.069129,0.68462 -5.916082,-4.33063 6.783915,2.47455 -6.523962,-8.26173 8.259629,6.47842 -2.482453,-6.72911 4.120223,5.71706 -0.366447,-7.87278 2.583656,7.89659 1.924843,-7.90585 H 39.695232 v 16.46458 h 0.0073 l 7.977848,-1.78729 -7.973218,-2.82843"
         style="fill:#ffd046;fill-opacity:1;fill-rule:nonzero;stroke:none;stroke-width:0.66146278"
         id="path32050" />
      <path
         inkscape:connector-curvature="0"
         d="m 39.695232,228.96132 h 16.463696 v -16.47451 h 2.854192 v 19.34792 H 39.695232 v -2.87341"
         style="fill:#006a53;fill-opacity:1;fill-rule:nonzero;stroke:none;stroke-width:0.66146278"
         id="path32054" />
      <path
         id="path32056"
         style="fill:#808285;fill-opacity:1;fill-rule:nonzero;stroke:none;stroke-width:0.26458332"
         d="m 63.511701,229.08832 h 0.713782 v -3.79068 h -0.713782 z"
         inkscape:connector-curvature="0" />
      <path
         inkscape:connector-curvature="0"
         d="m 65.692529,229.08832 v -3.79087 h 0.637646 l 1.983052,2.60883 h 0.01124 v -2.60883 h 0.30427 v 3.79087 h -0.315513 l -2.305182,-3.02423 h -0.01124 v 3.02423 h -0.304271"
         style="fill:#808285;fill-opacity:1;fill-rule:nonzero;stroke:none;stroke-width:0.66146278"
         id="path32060" />
      <path
         inkscape:connector-curvature="0"
         d="m 70.530435,229.08832 v -3.5448 h -0.754724 v -0.24607 h 2.2225 v 0.24607 h -0.754724 v 3.5448 h -0.713052"
         style="fill:#808285;fill-opacity:1;fill-rule:nonzero;stroke:none;stroke-width:0.66146278"
         id="path32064" />
      <path
         inkscape:connector-curvature="0"
         d="m 73.157084,229.08832 v -3.79087 h 2.239697 v 0.24607 h -1.525984 v 1.4625 h 1.438672 v 0.24541 h -1.438672 v 1.59149 h 1.550458 v 0.2454 h -2.264171"
         style="fill:#808285;fill-opacity:1;fill-rule:nonzero;stroke:none;stroke-width:0.66146278"
         id="path32068" />
      <path
         inkscape:connector-curvature="0"
         d="m 76.696547,229.08832 v -3.79087 h 1.637771 c 0.689901,0 1.075531,0.50933 1.075531,1.11722 0,0.57944 -0.420687,0.8308 -0.988219,0.90092 l 1.006079,1.77273 H 78.64388 l -1.035182,-1.94207 h 0.04696 c 0.631693,0 1.040474,-0.24606 1.040474,-0.81294 0,-0.42069 -0.204391,-0.84866 -0.900245,-0.84866 h -0.386292 v 3.60367 h -0.713052"
         style="fill:#808285;fill-opacity:1;fill-rule:nonzero;stroke:none;stroke-width:0.66146278"
         id="path32072" />
      <path
         inkscape:connector-curvature="0"
         d="m 80.673235,229.08832 v -3.79087 h 0.637645 l 1.983052,2.60883 h 0.01191 v -2.60883 h 0.304271 v 3.79087 h -0.316175 l -2.304523,-3.02423 h -0.01191 v 3.02423 h -0.30427"
         style="fill:#808285;fill-opacity:1;fill-rule:nonzero;stroke:none;stroke-width:0.66146278"
         id="path32076" />
      <path
         inkscape:connector-curvature="0"
         d="m 85.856422,226.46163 -0.550333,1.39239 h 1.105958 z m 1.789906,2.62669 h -0.730911 l -0.40349,-0.9889 H 85.20687 l -0.380339,0.9889 h -0.333375 l 1.544506,-3.89605 h 0.01191 l 1.59676,3.89605"
         style="fill:#808285;fill-opacity:1;fill-rule:nonzero;stroke:none;stroke-width:0.66146278"
         id="path32080" />
      <path
         inkscape:connector-curvature="0"
         d="m 88.852164,229.08832 v -3.5448 H 88.09744 v -0.24607 h 2.2225 v 0.24607 h -0.754724 v 3.5448 h -0.713052"
         style="fill:#808285;fill-opacity:1;fill-rule:nonzero;stroke:none;stroke-width:0.66146278"
         id="path32084" />
      <path
         id="path32086"
         style="fill:#808285;fill-opacity:1;fill-rule:nonzero;stroke:none;stroke-width:0.26458332"
         d="m 91.559513,229.08832 h 0.714179 v -3.79068 h -0.714179 z"
         inkscape:connector-curvature="0" />
      <path
         inkscape:connector-curvature="0"
         d="m 95.343716,228.94743 c 0.912813,0 1.117203,-1.018 1.117203,-1.75487 0,-0.73688 -0.20439,-1.75421 -1.117203,-1.75421 -0.912151,0 -1.11125,1.01733 -1.11125,1.75421 0,0.73687 0.199099,1.75487 1.11125,1.75487 z m 0,-3.75515 c 1.100005,0 1.883834,0.88306 1.883834,2.00028 0,1.11722 -0.783829,2.00027 -1.883834,2.00027 -1.094052,0 -1.877218,-0.88305 -1.877218,-2.00027 0,-1.11722 0.783166,-2.00028 1.877218,-2.00028"
         style="fill:#808285;fill-opacity:1;fill-rule:nonzero;stroke:none;stroke-width:0.66146278"
         id="path32090" />
      <path
         inkscape:connector-curvature="0"
         d="m 98.391055,229.08832 v -3.79087 h 0.636984 l 1.983711,2.60883 h 0.0112 v -2.60883 h 0.30493 v 3.79087 h -0.31617 l -2.305185,-3.02423 h -0.01124 v 3.02423 h -0.304271"
         style="fill:#808285;fill-opacity:1;fill-rule:nonzero;stroke:none;stroke-width:0.66146278"
         id="path32094" />
      <path
         inkscape:connector-curvature="0"
         d="m 103.57358,226.46163 -0.54967,1.39239 h 1.1053 z m 1.78991,2.62669 h -0.73091 l -0.40349,-0.9889 h -1.3044 l -0.381,0.9889 h -0.33271 l 1.54384,-3.89605 h 0.0119 l 1.59676,3.89605"
         style="fill:#808285;fill-opacity:1;fill-rule:nonzero;stroke:none;stroke-width:0.66146278"
         id="path32098" />
      <path
         inkscape:connector-curvature="0"
         d="m 106.31466,229.08832 v -3.79087 h 0.71372 V 228.79 h 1.52069 v 0.29832 h -2.23441"
         style="fill:#808285;fill-opacity:1;fill-rule:nonzero;stroke:none;stroke-width:0.66146278"
         id="path32102" />
      <path
         inkscape:connector-curvature="0"
         d="m 63.455477,223.12585 6.61e-4,-8.73865 h 5.165328 v 0.56622 h -3.520281 v 3.3715 h 3.317214 v 0.56622 h -3.317214 v 3.66849 h 3.573859 v 0.56622 h -5.219567"
         style="fill:#808285;fill-opacity:1;fill-rule:nonzero;stroke:none;stroke-width:0.66146278"
         id="path32106" />
      <path
         inkscape:connector-curvature="0"
         d="m 72.425511,222.55964 h 1.024599 c 2.629958,6.6e-4 3.182937,-1.90106 3.182937,-3.6136 0,-2.19871 -1.024599,-3.99195 -3.101578,-3.99195 h -1.105297 z m -1.645047,-8.17243 h 2.845593 c 3.155818,6.6e-4 4.652698,2.23907 4.652037,4.53171 0,2.79206 -1.793875,4.20694 -4.342474,4.20694 h -3.155818 l 5.29e-4,-8.73865"
         style="fill:#808285;fill-opacity:1;fill-rule:nonzero;stroke:none;stroke-width:0.66146278"
         id="path32110" />
      <path
         inkscape:connector-curvature="0"
         d="m 80.243948,223.12717 v -8.73732 l 1.645708,-0.001 -5.29e-4,8.73865 H 80.24408"
         style="fill:#808285;fill-opacity:1;fill-rule:nonzero;stroke:none;stroke-width:0.66146278"
         id="path32114" />
      <path
         inkscape:connector-curvature="0"
         d="m 84.88606,221.56214 c 0.458391,0.72828 0.943901,1.1192 1.807104,1.1192 0.755386,0 1.565011,-0.60656 1.565011,-1.51013 0,-2.5354 -4.099719,-1.3355 -4.099719,-4.46424 0,-1.40231 1.172765,-2.56253 2.804583,-2.56253 1.078839,0 2.171568,0.594 2.629959,1.56504 l -0.56687,0.3638 c -0.336683,-0.70115 -0.863203,-1.24091 -1.793214,-1.24091 -0.904213,0 -1.429411,0.68793 -1.429411,1.52402 0,2.04989 4.099057,1.18734 4.099057,4.34254 0,1.60538 -1.402292,2.67034 -2.872052,2.67034 -1.186656,0 -2.144448,-0.35124 -2.751005,-1.36196 l 0.606557,-0.44517"
         style="fill:#808285;fill-opacity:1;fill-rule:nonzero;stroke:none;stroke-width:0.66146278"
         id="path32118" />
      <path
         inkscape:connector-curvature="0"
         d="m 95.643357,222.80372 c 2.104099,0 2.57638,-2.34689 2.57638,-4.0462 0,-1.69931 -0.472281,-4.04553 -2.575719,-4.04553 -2.104099,0 -2.562489,2.34622 -2.562489,4.04553 0,1.69931 0.45839,4.0462 2.561828,4.0462 z m 5.29e-4,-8.65795 c 2.53537,0 4.342474,2.03666 4.342474,4.61175 -5.29e-4,2.57642 -1.807104,4.61242 -4.343135,4.61242 -2.522141,0 -4.328584,-2.03666 -4.328584,-4.61242 0,-2.57575 1.807104,-4.61175 4.329245,-4.61175"
         style="fill:#808285;fill-opacity:1;fill-rule:nonzero;stroke:none;stroke-width:0.66146278"
         id="path32122" />
      <path
         inkscape:connector-curvature="0"
         d="m 101.77111,223.12717 5.3e-4,-8.73865 h 1.46976 l 4.57133,6.01473 h 0.0271 l 5.3e-4,-6.01473 h 0.70115 l -5.3e-4,8.73931 h -0.72827 l -5.31283,-6.97253 h -0.0271 v 6.97253 l -0.70181,-6.6e-4"
         style="fill:#808285;fill-opacity:1;fill-rule:nonzero;stroke:none;stroke-width:0.66146278"
         id="path32126" />
      <path
         inkscape:connector-curvature="0"
         d="m 110.46796,227.17602 c 0.53777,0 0.97367,-0.43591 0.97367,-0.97302 0,-0.53777 -0.4359,-0.97368 -0.97367,-0.97368 -0.5371,0 -0.97367,0.43591 -0.97367,0.97368 0,0.53711 0.43657,0.97302 0.97367,0.97302 z"
         style="fill:none;stroke:#808285;stroke-width:0.10715698;stroke-linecap:butt;stroke-linejoin:miter;stroke-miterlimit:4;stroke-dasharray:none;stroke-opacity:1"
         id="path32130" />
      <path
         inkscape:connector-curvature="0"
         d="m 109.98245,226.78443 c 0.0767,-0.005 0.15676,-0.01 0.23019,-0.01 0.0595,0 0.13956,0.005 0.21629,0.01 v -0.041 h -0.041 c -0.0761,0 -0.0952,-0.0172 -0.0952,-0.10584 v -0.37902 c 0.14155,0 0.14486,0.0106 0.2077,0.0919 l 0.33271,0.43392 c 0.0437,-0.005 0.09,-0.01 0.1356,-0.01 0.0476,0 0.0939,0.005 0.13957,0.01 v -0.041 c -0.0675,-0.005 -0.10186,-0.0119 -0.17,-0.10121 l -0.24275,-0.31552 c -0.0377,-0.0476 -0.0734,-0.08 -0.10054,-0.10186 0.20373,-0.043 0.30361,-0.17661 0.30361,-0.33669 0,-0.26591 -0.20175,-0.3347 -0.42532,-0.3347 -0.078,0 -0.15677,0.01 -0.26061,0.01 -0.0734,0 -0.15346,-0.005 -0.23019,-0.01 v 0.041 h 0.041 c 0.0761,0 0.0952,0.0165 0.0952,0.10583 v 0.9373 c 0,0.0886 -0.0192,0.10584 -0.0952,0.10584 h -0.041 z m 0.31022,-1.12979 c 0,-0.0377 0.009,-0.041 0.0628,-0.041 0.31949,0 0.35653,0.15611 0.35653,0.30759 0,0.1098 -0.0463,0.28641 -0.33933,0.28641 -0.0284,0 -0.0582,-0.002 -0.08,-0.003 v -0.54968"
         style="fill:#808285;fill-opacity:1;fill-rule:nonzero;stroke:none;stroke-width:0.66146278"
         id="path32134" />
    </g>
  </g>
</svg>
