<!-- Created with Inkscape (http://www.inkscape.org/) -->
<svg xmlns:inkscape="http://www.inkscape.org/namespaces/inkscape" xmlns:rdf="http://www.w3.org/1999/02/22-rdf-syntax-ns#" xmlns="http://www.w3.org/2000/svg" sodipodi:docname="Eastman Chemical Company logo.svg" xmlns:sodipodi="http://sodipodi.sourceforge.net/DTD/sodipodi-0.dtd" version="1.1" xmlns:cc="http://creativecommons.org/ns#" xmlns:xlink="http://www.w3.org/1999/xlink" inkscape:version="0.48.2 r9819" viewBox="0 0 562 64" xmlns:dc="http://purl.org/dc/elements/1.1/">
<title>Eastman Chemical Company logo</title>
<defs></defs>
<sodipodi:namedview fit-margin-left="0" inkscape:zoom="1.5765125" borderopacity="1.0" inkscape:current-layer="layer1" inkscape:cx="281" inkscape:cy="32" inkscape:window-maximized="1" showgrid="false" fit-margin-right="0" units="px" inkscape:document-units="px" bordercolor="#666666" inkscape:window-x="0" inkscape:window-y="27" fit-margin-bottom="0" inkscape:window-width="1024" inkscape:pageopacity="0.0" inkscape:pageshadow="2" pagecolor="#ffffff" inkscape:window-height="689" fit-margin-top="0"/>
<metadata>
<rdf:RDF>
<cc:Work rdf:about="">
<dc:format>image/svg+xml</dc:format>
<dc:type rdf:resource="http://purl.org/dc/dcmitype/StillImage"/>
<dc:title>Eastman Chemical Company logo</dc:title>
<dc:creator>
<cc:Agent>
<dc:title>Eastman Chemical Company</dc:title>
</cc:Agent>
</dc:creator>
<dc:publisher>
<cc:Agent>
<dc:title>Eastman Chemical Company</dc:title>
</cc:Agent>
</dc:publisher>
<dc:description>Logo obtained from Eastman Chemical Company press kit.</dc:description>
</cc:Work>
</rdf:RDF>
</metadata>
<g inkscape:label="Layer 1" inkscape:groupmode="layer" transform="translate(-617.69697,-363.47037)">
<g fill-rule="nonzero" fill="#ed1b2f" transform="matrix(3.1047069,0,0,3.1047069,-1885.284,-838.69735)">
<path d="m962.68,387.89,12.739,0,4.0962,13.572,0.0662,0,0-13.572,7.305,0,0,19.256-12.515,0-4.3212-13.96-0.0638,0,0,13.96-7.3062,0,0-19.256z" inkscape:connector-curvature="0"/>
<path d="m942.37,407.13,3.0925-7.295,0-7.3525,3.7162,0,0,7.3525,3.35,7.295,8.805,0-7.91-19.244-11.721,0-7.78,19.244,8.4475,0z" inkscape:connector-curvature="0"/>
<path d="m900.76,387.89,12.579,0,2.8925,10.538,0.0638,0,2.8588-10.538,12.546,0,0,19.256-7.6875,0,0-15.119-0.1275,0-4.35,15.119-7.085,0-4.3362-15.119-0.015,0,0.015,15.119-7.3538,0,0-19.256z" inkscape:connector-curvature="0"/>
<path d="m899.2,393.57-7.3175,0,0,13.574-8.5138,0,0-13.574-7.3188,0,0-5.6825,23.15,0,0,5.6825z" inkscape:connector-curvature="0"/>
<path d="m874.43,393.16c-1.905-0.57875-4.1612-0.965-6.575-0.965-1.335,0-3.6538,0.0275-3.6538,1.2688,0,2.51,11.659,0.13875,11.659,7.5575,0,5.16-5.8775,6.4562-10.8,6.4562-3.2725,0-5.9725-0.27625-9.1488-0.91125v-4.9925c2.2862,0.8275,5.0825,1.27,7.6238,1.27,2.0012,0,3.8112-0.36,3.8112-1.3238,0-2.595-11.658-0.24875-11.658-7.725,0-5.2962,6.3525-6.235,11.404-6.235,2.3825,0,5.0188,0.24875,7.3375,0.6625v4.9375z" inkscape:connector-curvature="0"/>
<path d="m806.51,387.89,19.218,0,0,4.635-10.895,0,0,2.73,10.42,0,0,4.635-10.42,0,0,2.62,11.119,0,0,4.6362-19.441,0,0-19.256z" inkscape:connector-curvature="0"/>
<path d="m835.86,407.17,3.095-7.295,0-7.3538,3.7138,0,0,7.3538,3.35,7.295,8.8062,0-7.9088-19.245-11.722,0-7.7825,19.245,8.4488,0z" inkscape:connector-curvature="0"/>
</g>
</g>
</svg>
