<?xml version="1.0" encoding="utf-8"?>
<!-- Generator: Adobe Illustrator 14.0.0, SVG Export Plug-In . SVG Version: 6.00 Build 43363)  -->
<!DOCTYPE svg PUBLIC "-//W3C//DTD SVG 1.1//EN" "http://www.w3.org/Graphics/SVG/1.1/DTD/svg11.dtd">
<svg version="1.1" id="Layer_1" xmlns="http://www.w3.org/2000/svg" xmlns:xlink="http://www.w3.org/1999/xlink" x="0px" y="0px"
	 width="250px" height="110px" viewBox="0 0 250 110" enable-background="new 0 0 250 110" xml:space="preserve">
<g>
	<g>
		<path fill="#004685" d="M114.75,89.811v-7.732h2.426c3.417,0,7.158,0.121,7.158,3.625c0,3.705-3.609,4.107-7.875,4.107H114.75
			 M114.75,94.041h3.151l9.461,11.393h9.91l-11.558-12.357c2.43-0.768,7.486-2.258,7.486-7.455c0-7.57-10.244-7.773-15.3-7.773
			h-10.635c-1.118,0-1.382,0.121-1.382,0.85v26.75c0,0,0.264-0.006,1.382-0.006h6.106l1.377,0.006V94.041z"/>
		<path fill="#004685" d="M183.205,101.895c-4.924,0-7.023-3.949-7.023-10.232c0-6.281,2.1-10.268,7.023-10.268
			c4.925,0,7.027,3.945,7.027,10.268C190.232,97.945,188.13,101.895,183.205,101.895 M199.557,91.662
			c0-9.746-6.239-14.498-16.352-14.498s-16.35,4.713-16.35,14.498c0,9.75,6.17,14.461,16.35,14.461
			C193.383,106.123,199.557,101.412,199.557,91.662"/>
		<path fill="#004685" d="M85.868,93.195h12.421v-4.35H85.868v-6.645h13.858l1.885-4.352H78.383H78.27
			c-0.912,0.006-1.212,0.119-1.266,0.633v26.951l24.295,0.008l0.002-0.848v-2.656l0.004-0.85H85.868V93.195"/>
		<path fill="#004685" d="M232.939,77.848h-4.796l-1.38-0.006c0,0,0.167,16.664,0.167,17.949l-14.81-17.418
			c-0.392-0.443-0.524-0.525-1.509-0.525h-5.385l-0.153,0.002c-0.857,0.006-1.16,0.119-1.224,0.594v27.004
			c0,0,0.262-0.006,1.377-0.006h4.795c1.115,0,1.38,0.006,1.38,0.006V90.094c0-1.854-0.057-3.078-0.057-3.605
			c0,0,15.139,17.711,15.751,18.385c0.605,0.68,1.509,0.568,1.509,0.568h4.334l1.376,0.016V77.842L232.939,77.848"/>
		<path fill="#004685" d="M13.866,93.195h12.417v-4.35H13.866v-6.645h13.857l1.886-4.352H6.378H6.275
			C5.287,77.855,5.018,77.988,5,78.627v26.807l24.295,0.008v-0.848v-2.656l0.008-0.85H13.866V93.195"/>
		<path fill="#004685" d="M52.769,95.008L42.223,78.586c-0.393-0.441-0.524-0.52-1.509-0.52h-5.386l-1.38,0.006v27.594
			c0,0,0.264-0.01,1.38-0.01h4.796c1.114,0,1.374,0.01,1.374,0.01V90.311c0-1.854-0.05-2.58-0.05-3.105
			c0,0,10.403,16.66,11.432,17.832l0.056-0.002c1.039-1.176,10.902-17.83,10.902-17.83c0,0.525-0.056,1.252-0.056,3.105v15.355
			c0,0,0.264-0.01,1.378-0.01h4.792c1.12,0,1.382,0.01,1.382,0.01V78.072l-1.382-0.006h-5.382c-0.987,0-1.116,0.078-1.509,0.52
			L53.05,95.008H52.769"/>
		<path fill="#004685" d="M159.53,90.57c-5.466-2.617-12.912-2.854-12.912-5.912c0-2.418,2.422-3.143,5.28-3.143
			c4.47,0,8.32,1.771,8.692,1.771c0.248,0,0.497-0.16,0.684-0.404l0.42-0.545l2.224-2.832c0-0.002,0.002-0.002,0.002-0.002
			s-0.01-0.004-0.063-0.025c-0.139-0.066-0.523-0.242-1.063-0.455c-0.438-0.17-0.709-0.264-0.848-0.307
			c-2.216-0.736-6.299-1.553-10.296-1.553c-7.205,0-13.662,2.416-13.662,8.217c0,3.344,1.526,5.455,4.819,6.748
			c6.334,2.496,12.693,2.355,12.693,5.939c0,2.496-1.552,3.705-5.031,3.705c-5.342,0-9.939-1.773-10.306-1.773
			c-0.251,0-0.563,0.164-0.686,0.404l-0.681,1.266l-1.19,2.207l0.973,0.367c1.979,0.783,7.154,1.879,12.138,1.879
			c7.827,0,13.56-2.563,13.413-8.498C164.059,94.566,162.696,92.1,159.53,90.57"/>
		<polygon fill="#004685" points="239.377,102.279 239.377,105.467 238.862,105.467 238.862,102.279 237.656,102.279 
			237.656,101.979 240.589,101.979 240.589,102.279 		"/>
		<polygon fill="#004685" points="244.526,105.467 244.526,102.27 243.287,105.467 242.816,105.467 241.561,102.299 
			241.561,105.467 241.15,105.467 241.15,101.977 241.901,101.977 243.113,104.963 244.271,101.977 245,101.977 245,105.467 		"/>
	</g>
	<g>
		<defs>
			<path id="SVGID_1_" d="M116.662,11.369c-0.033,0.068-0.075,0.203-0.033,0.395c0.206,0.528,15.079,18.761,15.079,18.761
				l7.509,3.125c2.411,1.037,2.896,0.765,3.059,0.58l0.036-0.062c0.146-0.277-0.268-0.865-0.869-1.615L121.718,8.398
				c-1.838-2.203-1.678-2.642-1.587-2.865L116.662,11.369z"/>
		</defs>
		<clipPath id="SVGID_2_">
			<use xlink:href="#SVGID_1_"  overflow="visible"/>
		</clipPath>
		
			<linearGradient id="SVGID_3_" gradientUnits="userSpaceOnUse" x1="-200.106" y1="462.8047" x2="-198.133" y2="462.8047" gradientTransform="matrix(14.7245 8.6009 8.6009 -14.7245 -917.9274 8547.9717)">
			<stop  offset="0" style="stop-color:#949698"/>
			<stop  offset="0.103" style="stop-color:#9FA1A3"/>
			<stop  offset="0.2837" style="stop-color:#BCBEBF"/>
			<stop  offset="0.5" style="stop-color:#E7E8E9"/>
			<stop  offset="0.6003" style="stop-color:#DDDEDF"/>
			<stop  offset="0.7718" style="stop-color:#C2C3C5"/>
			<stop  offset="0.9925" style="stop-color:#96989A"/>
			<stop  offset="1" style="stop-color:#949698"/>
		</linearGradient>
		<polygon clip-path="url(#SVGID_2_)" fill="url(#SVGID_3_)" points="123.169,-5.736 155.156,12.949 135.878,45.956 103.889,27.271 
					"/>
	</g>
	<g>
		<defs>
			<path id="SVGID_4_" d="M106.815,28.008l-0.019,0.037c-0.16,0.276,0.223,0.908,0.827,1.655l1.436,1.763l12.236,5.085l-3.933-4.815
				l-7.511-3.125c-1.372-0.592-2.118-0.757-2.534-0.757c-0.004,0-0.006,0-0.01,0C107.016,27.851,106.887,27.935,106.815,28.008"/>
		</defs>
		<clipPath id="SVGID_5_">
			<use xlink:href="#SVGID_4_"  overflow="visible"/>
		</clipPath>
		
			<linearGradient id="SVGID_6_" gradientUnits="userSpaceOnUse" x1="-219.748" y1="473.0586" x2="-217.775" y2="473.0586" gradientTransform="matrix(7.3568 4.2972 4.2972 -7.3568 -309.3912 4452.5059)">
			<stop  offset="0" style="stop-color:#949698"/>
			<stop  offset="0.206" style="stop-color:#9FA1A3"/>
			<stop  offset="0.5675" style="stop-color:#BCBEBF"/>
			<stop  offset="1" style="stop-color:#E7E8E9"/>
		</linearGradient>
		<polygon clip-path="url(#SVGID_5_)" fill="url(#SVGID_6_)" points="110.365,21.466 125.083,30.064 117.566,42.933 102.848,34.336 
					"/>
	</g>
	<g>
		<defs>
			<path id="SVGID_7_" d="M110.326,22.135c-0.017,0.01-0.092,0.084-0.106,0.11l-3.436,5.802c0.01-0.013,0.017-0.025,0.031-0.039
				c0.175-0.181,0.69-0.412,3.035,0.6l27.152,11.29c0.41,0.148,1.351,0.445,1.74,0.226c0.04-0.025,0.146-0.152,0.165-0.193
				l3.384-5.719c-0.006,0.006-0.011,0.011-0.017,0.019c-0.162,0.185-0.647,0.457-3.059-0.58l-27.168-11.295
				c-0.312-0.112-0.898-0.299-1.339-0.299C110.56,22.056,110.425,22.079,110.326,22.135"/>
		</defs>
		<clipPath id="SVGID_8_">
			<use xlink:href="#SVGID_7_"  overflow="visible"/>
		</clipPath>
		
			<linearGradient id="SVGID_9_" gradientUnits="userSpaceOnUse" x1="-200.0381" y1="462.4141" x2="-198.065" y2="462.4141" gradientTransform="matrix(14.778 8.6321 8.6321 -14.778 -925.5099 8582.9902)">
			<stop  offset="0" style="stop-color:#004786"/>
			<stop  offset="0.2022" style="stop-color:#004786"/>
			<stop  offset="0.2746" style="stop-color:#175490"/>
			<stop  offset="0.425" style="stop-color:#5076A9"/>
			<stop  offset="0.5056" style="stop-color:#7289B7"/>
			<stop  offset="0.5601" style="stop-color:#5B7CAD"/>
			<stop  offset="0.7254" style="stop-color:#1A5691"/>
			<stop  offset="0.8034" style="stop-color:#004786"/>
			<stop  offset="1" style="stop-color:#004786"/>
		</linearGradient>
		<polygon clip-path="url(#SVGID_8_)" fill="url(#SVGID_9_)" points="115.818,6.59 150.258,26.708 133.259,55.809 98.819,35.691 		
			"/>
	</g>
	<g>
		<defs>
			<path id="SVGID_10_" d="M101.888,36.323l-0.017,0.031c-0.158,0.275,0.225,0.908,0.829,1.653l1.436,1.763l11.932,4.964
				l0.081,0.031l0.226,0.092l-3.935-4.813l-7.513-3.125c-1.372-0.593-2.116-0.761-2.532-0.761
				C102.093,36.158,101.961,36.246,101.888,36.323"/>
		</defs>
		<clipPath id="SVGID_11_">
			<use xlink:href="#SVGID_10_"  overflow="visible"/>
		</clipPath>
		
			<linearGradient id="SVGID_12_" gradientUnits="userSpaceOnUse" x1="-219.7485" y1="472.499" x2="-217.776" y2="472.499" gradientTransform="matrix(7.3576 4.2977 4.2977 -7.3576 -311.9571 4457.1675)">
			<stop  offset="0" style="stop-color:#949698"/>
			<stop  offset="0.206" style="stop-color:#9FA1A3"/>
			<stop  offset="0.5675" style="stop-color:#BCBEBF"/>
			<stop  offset="1" style="stop-color:#E7E8E9"/>
		</linearGradient>
		<polygon clip-path="url(#SVGID_11_)" fill="url(#SVGID_12_)" points="105.441,29.773 120.164,38.372 112.645,51.244 
			97.925,42.646 		"/>
	</g>
	<g>
		<defs>
			<path id="SVGID_13_" d="M96.965,44.63l-0.017,0.031c-0.16,0.275,0.227,0.908,0.829,1.653l19.72,24.16
				c1.759,2.105,1.78,2.533,1.63,2.797l3.428-5.766c0,0,0.125-0.166,0.05-0.449c-0.116-0.318-0.441-0.756-0.854-1.27l-14.236-17.436
				l-7.513-3.125c-1.368-0.593-2.116-0.759-2.532-0.759C97.169,44.466,97.036,44.553,96.965,44.63"/>
		</defs>
		<clipPath id="SVGID_14_">
			<use xlink:href="#SVGID_13_"  overflow="visible"/>
		</clipPath>
		
			<linearGradient id="SVGID_15_" gradientUnits="userSpaceOnUse" x1="-200.1187" y1="461.5459" x2="-198.1454" y2="461.5459" gradientTransform="matrix(14.7197 8.5981 8.5981 -14.7197 -928.7028 8564.1563)">
			<stop  offset="0" style="stop-color:#949698"/>
			<stop  offset="0.103" style="stop-color:#9FA1A3"/>
			<stop  offset="0.2837" style="stop-color:#BCBEBF"/>
			<stop  offset="0.5" style="stop-color:#E7E8E9"/>
			<stop  offset="0.6003" style="stop-color:#DDDEDF"/>
			<stop  offset="0.7718" style="stop-color:#C2C3C5"/>
			<stop  offset="0.9925" style="stop-color:#96989A"/>
			<stop  offset="1" style="stop-color:#949698"/>
		</linearGradient>
		<polygon clip-path="url(#SVGID_14_)" fill="url(#SVGID_15_)" points="103.374,33.19 135.225,51.795 116.094,84.549 84.243,65.943 
					"/>
	</g>
	<g>
		<defs>
			<path id="SVGID_16_" d="M100.479,38.751c-0.015,0.008-0.038,0.039-0.04,0.041c-0.023,0.025-0.052,0.046-0.064,0.069
				c0,0-3.42,5.783-3.411,5.77c0.172-0.183,0.675-0.426,3.037,0.595l27.15,11.288c0.412,0.148,1.354,0.445,1.744,0.225
				c0.04-0.021,0.146-0.156,0.165-0.193l3.384-5.718c-0.002,0.006-0.009,0.014-0.015,0.018c-0.16,0.183-0.642,0.462-3.061-0.58
				l-25.235-10.494l-1.933-0.8c-0.314-0.114-0.898-0.298-1.335-0.298C100.713,38.672,100.578,38.695,100.479,38.751"/>
		</defs>
		<clipPath id="SVGID_17_">
			<use xlink:href="#SVGID_16_"  overflow="visible"/>
		</clipPath>
		
			<linearGradient id="SVGID_18_" gradientUnits="userSpaceOnUse" x1="-200.0464" y1="461.8584" x2="-198.0729" y2="461.8584" gradientTransform="matrix(14.7748 8.6302 8.6302 -14.7748 -930.2134 8589.5977)">
			<stop  offset="0" style="stop-color:#004786"/>
			<stop  offset="0.2022" style="stop-color:#004786"/>
			<stop  offset="0.2746" style="stop-color:#175490"/>
			<stop  offset="0.425" style="stop-color:#5076A9"/>
			<stop  offset="0.5056" style="stop-color:#7289B7"/>
			<stop  offset="0.5601" style="stop-color:#5B7CAD"/>
			<stop  offset="0.7254" style="stop-color:#1A5691"/>
			<stop  offset="0.8034" style="stop-color:#004786"/>
			<stop  offset="1" style="stop-color:#004786"/>
		</linearGradient>
		<polygon clip-path="url(#SVGID_17_)" fill="url(#SVGID_18_)" points="105.983,23.216 140.41,43.324 123.416,72.416 88.991,52.307 
					"/>
	</g>
	<g>
		<defs>
			<path id="SVGID_19_" d="M122.85,34.015l3.933,4.817l7.512,3.125c2.416,1.039,2.896,0.763,3.058,0.58l0.037-0.06
				c0.148-0.28-0.267-0.867-0.869-1.615l-1.432-1.759L122.85,34.015z"/>
		</defs>
		<clipPath id="SVGID_20_">
			<use xlink:href="#SVGID_19_"  overflow="visible"/>
		</clipPath>
		
			<linearGradient id="SVGID_21_" gradientUnits="userSpaceOnUse" x1="-218.7456" y1="473.2139" x2="-216.7719" y2="473.2139" gradientTransform="matrix(7.3616 4.3001 4.3001 -7.3616 -301.7581 4458.4033)">
			<stop  offset="0" style="stop-color:#E7E8E9"/>
			<stop  offset="0.2006" style="stop-color:#DDDEDF"/>
			<stop  offset="0.5437" style="stop-color:#C2C3C5"/>
			<stop  offset="0.9851" style="stop-color:#96989A"/>
			<stop  offset="1" style="stop-color:#949698"/>
		</linearGradient>
		<polygon clip-path="url(#SVGID_20_)" fill="url(#SVGID_21_)" points="126.586,27.619 141.448,36.3 133.801,49.394 118.938,40.713 
					"/>
	</g>
	<g>
		<defs>
			<path id="SVGID_22_" d="M105.401,30.442c-0.011,0.009-0.088,0.084-0.102,0.111l-3.438,5.8c0.008-0.01,0.018-0.021,0.027-0.031
				c0.173-0.183,0.673-0.426,3.037,0.595l27.153,11.286c0.412,0.15,1.353,0.445,1.739,0.226c0.045-0.021,0.146-0.154,0.168-0.193
				l3.386-5.719c-0.004,0.008-0.012,0.014-0.02,0.02c-0.162,0.183-0.642,0.458-3.058-0.58l-7.512-3.125l-17.724-7.369l-1.933-0.802
				c-0.312-0.111-0.898-0.296-1.337-0.296C105.636,30.365,105.501,30.386,105.401,30.442"/>
		</defs>
		<clipPath id="SVGID_23_">
			<use xlink:href="#SVGID_22_"  overflow="visible"/>
		</clipPath>
		
			<linearGradient id="SVGID_24_" gradientUnits="userSpaceOnUse" x1="-200.0396" y1="462.1348" x2="-198.0664" y2="462.1348" gradientTransform="matrix(14.7786 8.6324 8.6324 -14.7786 -928.0328 8587.5)">
			<stop  offset="0" style="stop-color:#004786"/>
			<stop  offset="0.2022" style="stop-color:#004786"/>
			<stop  offset="0.2746" style="stop-color:#175490"/>
			<stop  offset="0.425" style="stop-color:#5076A9"/>
			<stop  offset="0.5056" style="stop-color:#7289B7"/>
			<stop  offset="0.5601" style="stop-color:#5B7CAD"/>
			<stop  offset="0.7254" style="stop-color:#1A5691"/>
			<stop  offset="0.8034" style="stop-color:#004786"/>
			<stop  offset="1" style="stop-color:#004786"/>
		</linearGradient>
		<polygon clip-path="url(#SVGID_23_)" fill="url(#SVGID_24_)" points="110.895,14.899 145.333,35.017 128.338,64.115 
			93.897,43.998 		"/>
	</g>
	<g>
		<defs>
			<path id="SVGID_25_" d="M113.001,50.631l9.421,11.535c1.761,2.111,1.778,2.533,1.63,2.799l3.445-5.795
				c0.033-0.066,0.087-0.213,0.029-0.428c-0.118-0.313-2.286-3.021-2.286-3.021L113.001,50.631z"/>
		</defs>
		<clipPath id="SVGID_26_">
			<use xlink:href="#SVGID_25_"  overflow="visible"/>
		</clipPath>
		
			<linearGradient id="SVGID_27_" gradientUnits="userSpaceOnUse" x1="-218.7534" y1="471.959" x2="-216.7799" y2="471.959" gradientTransform="matrix(7.3616 4.3001 4.3001 -7.3616 -307.3362 4467.8369)">
			<stop  offset="0" style="stop-color:#E7E8E9"/>
			<stop  offset="0.2006" style="stop-color:#DDDEDF"/>
			<stop  offset="0.5437" style="stop-color:#C2C3C5"/>
			<stop  offset="0.9851" style="stop-color:#96989A"/>
			<stop  offset="1" style="stop-color:#949698"/>
		</linearGradient>
		<polygon clip-path="url(#SVGID_26_)" fill="url(#SVGID_27_)" points="116.71,44.281 133.825,54.279 123.873,71.314 106.76,61.318 
					"/>
	</g>
	<g>
		<defs>
			<path id="SVGID_28_" d="M117.924,42.322l3.935,4.817l7.511,3.125c2.419,1.042,2.9,0.763,3.061,0.58l0.034-0.058
				c0.146-0.281-0.266-0.867-0.869-1.615l-1.432-1.759L117.924,42.322z"/>
		</defs>
		<clipPath id="SVGID_29_">
			<use xlink:href="#SVGID_28_"  overflow="visible"/>
		</clipPath>
		
			<linearGradient id="SVGID_30_" gradientUnits="userSpaceOnUse" x1="-218.7451" y1="472.6504" x2="-216.7719" y2="472.6504" gradientTransform="matrix(7.3627 4.3007 4.3007 -7.3627 -304.3485 4463.2061)">
			<stop  offset="0" style="stop-color:#E7E8E9"/>
			<stop  offset="0.0449" style="stop-color:#E7E8E9"/>
			<stop  offset="0.2366" style="stop-color:#DDDEDF"/>
			<stop  offset="0.5642" style="stop-color:#C2C3C5"/>
			<stop  offset="0.9857" style="stop-color:#96989A"/>
			<stop  offset="1" style="stop-color:#949698"/>
		</linearGradient>
		<polygon clip-path="url(#SVGID_29_)" fill="url(#SVGID_30_)" points="121.661,35.926 136.523,44.607 128.875,57.703 
			114.013,49.02 		"/>
	</g>
	<g>
		<defs>
			<path id="SVGID_31_" d="M111.739,19.676c-0.033,0.063-0.077,0.197-0.035,0.387c0.098,0.328,0.416,0.8,0.842,1.33l1.436,1.763
				l12.238,5.085l-9.423-11.537c-1.842-2.203-1.682-2.64-1.591-2.865L111.739,19.676z"/>
		</defs>
		<clipPath id="SVGID_32_">
			<use xlink:href="#SVGID_31_"  overflow="visible"/>
		</clipPath>
		
			<linearGradient id="SVGID_33_" gradientUnits="userSpaceOnUse" x1="-219.7158" y1="473.7539" x2="-217.7423" y2="473.7539" gradientTransform="matrix(7.3624 4.3005 4.3005 -7.3624 -306.7771 4450.4243)">
			<stop  offset="0" style="stop-color:#949698"/>
			<stop  offset="0.206" style="stop-color:#9FA1A3"/>
			<stop  offset="0.5675" style="stop-color:#BCBEBF"/>
			<stop  offset="1" style="stop-color:#E7E8E9"/>
		</linearGradient>
		<polygon clip-path="url(#SVGID_32_)" fill="url(#SVGID_33_)" points="115.365,7.498 132.492,17.503 122.516,34.581 105.39,24.579 
					"/>
	</g>
</g>
</svg>
