<?xml version="1.0" encoding="utf-8"?>
<!-- Generator: Adobe Illustrator 15.0.0, SVG Export Plug-In . SVG Version: 6.00 Build 0)  -->
<!DOCTYPE svg PUBLIC "-//W3C//DTD SVG 1.1//EN" "http://www.w3.org/Graphics/SVG/1.1/DTD/svg11.dtd">
<svg version="1.1" id="Layer_1" xmlns="http://www.w3.org/2000/svg" xmlns:xlink="http://www.w3.org/1999/xlink" x="0px" y="0px"
	 width="500.002px" height="241.621px" viewBox="0 0 500.002 241.621" enable-background="new 0 0 500.002 241.621"
	 xml:space="preserve">
<g>
	<g>
		<g>
			<polygon fill="#FF0000" points="343.971,31.423 343.971,92.057 330.125,96.902 330.125,26.599 288.575,12.095 288.575,111.406 
				274.723,116.231 274.723,7.248 253.954,0 233.179,7.248 233.179,116.231 219.334,111.406 219.334,12.095 177.783,26.599 
				177.783,96.902 163.938,92.057 163.938,31.423 150.078,36.27 150.078,101.901 191.636,116.405 191.636,36.429 205.488,31.597 
				205.488,121.237 247.031,135.748 247.031,17.093 253.954,14.67 260.877,17.093 260.877,135.748 302.435,121.237 302.435,31.597 
				316.28,36.429 316.28,116.405 357.83,101.901 357.83,36.27 			"/>
			<polygon points="7.451,214.624 32.103,214.624 32.103,207.926 7.451,207.926 7.451,193.473 44.212,193.473 44.212,186.804 
				0,186.804 0,237.801 45.507,237.801 45.507,231.219 7.451,231.219 			"/>
			<path d="M201.93,217.481c0,9.107-6.033,15.141-14.988,15.141c-8.695,0-14.135-6.105-14.135-15.141v-30.548h-7.379v30.889
				c0,13.902,10.041,21.483,21.455,21.483c16.869,0,22.353-11.516,22.353-21.483v-30.889h-7.306V217.481z"/>
			<rect x="250.294" y="186.804" width="7.32" height="50.997"/>
			<polygon points="345.012,226.763 308.829,186.804 301.588,186.804 301.588,237.801 308.901,237.801 308.901,197.51 
				345.157,237.801 352.304,237.801 352.304,186.804 345.012,186.804 			"/>
			<rect x="396.704" y="186.804" width="7.313" height="50.997"/>
			<polygon points="475.19,210.125 496.429,186.746 487.4,186.746 470.546,205.076 454.147,186.746 444.592,186.746 465.077,210.14 
				439.456,237.787 448.809,237.787 469.815,215.088 489.86,237.787 500.002,237.787 			"/>
			<path d="M101.156,184.734c-15.198,0.102-26.909,11.604-26.909,27.647v0.202c0,15.943,12.001,27.17,27.083,27.069
				c3.877-0.029,8.456-1.042,11.893-2.814l4.159,4.782l8.507-0.008l-7.277-8.34c5.961-4.543,9.715-12.023,9.715-21.268v-0.202
				C128.326,195.954,116.289,184.626,101.156,184.734z M120.709,212.267c0,7.212-2.329,11.892-6.583,15.899l-3.964-4.586
				l-8.492-0.015l6.959,7.979c-1.7,0.825-4.768,1.483-7.147,1.497c-10.915,0.072-19.603-8.738-19.603-20.717l-0.008-0.188
				c0-12.196,8.138-20.818,19.119-20.876c10.98-0.087,19.719,8.68,19.719,20.797V212.267z"/>
		</g>
	</g>
</g>
</svg>
