<?xml version="1.0" encoding="UTF-8" standalone="no"?>
<!-- Created with Inkscape (http://www.inkscape.org/) -->

<svg
   xmlns:dc="http://purl.org/dc/elements/1.1/"
   xmlns:cc="http://creativecommons.org/ns#"
   xmlns:rdf="http://www.w3.org/1999/02/22-rdf-syntax-ns#"
   xmlns:svg="http://www.w3.org/2000/svg"
   xmlns="http://www.w3.org/2000/svg"
   xmlns:sodipodi="http://sodipodi.sourceforge.net/DTD/sodipodi-0.dtd"
   xmlns:inkscape="http://www.inkscape.org/namespaces/inkscape"
   width="355.97034"
   height="80.290283"
   id="svg2"
   version="1.1"
   inkscape:version="0.48.2 r9819"
   sodipodi:docname="New document 1">
  <defs
     id="defs4">
    <clipPath
       id="clipPath4033"
       clipPathUnits="userSpaceOnUse">
      <path
         id="path4035"
         d="m 418.68,72 31.539,0 0,7.673 -31.539,0 0,-7.673 z"
         inkscape:connector-curvature="0" />
    </clipPath>
    <clipPath
       id="clipPath3909"
       clipPathUnits="userSpaceOnUse">
      <path
         id="path3911"
         d="m 236.952,67.842 84.608,0 0,34.129 -84.608,0 0,-34.129 z"
         inkscape:connector-curvature="0" />
    </clipPath>
    <clipPath
       id="clipPath3899"
       clipPathUnits="userSpaceOnUse">
      <path
         id="path3901"
         d="m 240.375,81.625 c 0.405,-0.783 0.871,-1.536 1.379,-2.256 l 0,0 c 0.264,-0.378 0.546,-0.723 0.834,-1.077 l 0,0 c 0.556,-0.662 1.138,-1.248 1.744,-1.769 l 0,0 c 0.365,-0.316 0.381,-0.307 0.861,-0.688 l 0,0 c 0.805,-0.599 1.685,-1.138 2.607,-1.536 l 0,0 c 1.088,-0.471 2.251,-0.859 3.402,-1.137 l 0,0 c 1.046,-0.251 2.117,-0.376 3.195,-0.409 l 0,0 c 1.017,-0.029 2.037,0.005 3.051,0.083 l 0,0 c 0.917,0.071 1.834,0.185 2.74,0.357 l 0,0 c 0.745,0.142 1.481,0.322 2.215,0.518 l 0,0 c 0.083,0.021 0.163,0.047 0.245,0.066 l 0,0 c -2.816,-0.567 -5.19,-0.233 -7.074,1.005 l 0,0 c -3.154,2.07 -4.021,6.124 -4.233,7.528 l 0,0 c -6.984,-2.298 -10.966,-0.685 -10.966,-0.685"
         inkscape:connector-curvature="0" />
    </clipPath>
    <clipPath
       id="clipPath3883"
       clipPathUnits="userSpaceOnUse">
      <path
         id="path3885"
         d="m 236.952,67.842 84.608,0 0,34.129 -84.608,0 0,-34.129 z"
         inkscape:connector-curvature="0" />
    </clipPath>
    <clipPath
       id="clipPath3873"
       clipPathUnits="userSpaceOnUse">
      <path
         id="path3875"
         d="m 265.298,88.507 c -0.183,-3.767 -3.236,-6.575 -4.338,-7.467 l 0,0 c 5.524,-4.852 6.155,-9.101 6.155,-9.101 l 0,0 c 0.468,0.747 0.881,1.528 1.245,2.332 l 0,0 c 0.19,0.417 0.346,0.838 0.504,1.266 l 0,0 c 0.29,0.815 0.495,1.615 0.638,2.4 l 0,0 c 0.088,0.475 0.07,0.483 0.158,1.09 l 0,0 c 0.106,0.999 0.124,2.028 0.002,3.027 l 0,0 c -0.148,1.175 -0.405,2.375 -0.752,3.508 l 0,0 c -0.311,1.032 -0.747,2.015 -1.266,2.958 l 0,0 c -0.491,0.893 -1.038,1.755 -1.621,2.588 l 0,0 c -0.527,0.758 -1.089,1.488 -1.697,2.182 l 0,0 c -0.499,0.57 -1.03,1.112 -1.57,1.647 l 0,0 c -0.059,0.058 -0.125,0.113 -0.181,0.176 l 0,0 c 1.917,-2.138 2.832,-4.353 2.723,-6.606"
         inkscape:connector-curvature="0" />
    </clipPath>
    <clipPath
       id="clipPath3857"
       clipPathUnits="userSpaceOnUse">
      <path
         id="path3859"
         d="m 236.952,67.842 84.608,0 0,34.129 -84.608,0 0,-34.129 z"
         inkscape:connector-curvature="0" />
    </clipPath>
    <clipPath
       id="clipPath3847"
       clipPathUnits="userSpaceOnUse">
      <path
         id="path3849"
         d="m 259.52,99.864 c -0.457,-0.04 -0.901,-0.112 -1.351,-0.185 l 0,0 c -0.85,-0.15 -1.651,-0.362 -2.404,-0.625 l 0,0 c -0.456,-0.158 -0.456,-0.176 -1.025,-0.4 l 0,0 c -0.921,-0.4 -1.827,-0.889 -2.635,-1.49 l 0,0 c -0.952,-0.707 -1.869,-1.52 -2.685,-2.38 l 0,0 c -0.743,-0.781 -1.384,-1.645 -1.951,-2.56 l 0,0 c -0.536,-0.865 -1.016,-1.767 -1.455,-2.684 l 0,0 c -0.398,-0.831 -0.757,-1.682 -1.061,-2.552 l 0,0 c -0.251,-0.716 -0.461,-1.446 -0.66,-2.177 l 0,0 c -0.019,-0.07 -0.033,-0.143 -0.055,-0.21 l 0,0 c 0.919,2.702 2.394,4.578 4.397,5.588 l 0,0 c 3.37,1.696 7.316,0.422 8.635,-0.099 l 0,0 c 1.503,7.197 4.894,9.84 4.894,9.84 l 0,0 c -0.275,0.011 -0.549,0.018 -0.824,0.018 l 0,0 c -0.608,0 -1.215,-0.03 -1.82,-0.084 M 244.237,84.596 c 0,10e-4 0.001,0.003 0.001,0.005 l 0,0 c 0,-0.002 -0.001,-0.004 -0.001,-0.005 m -0.011,-0.03 c 0.003,0.01 0.007,0.021 0.011,0.03 l 0,0 c -0.004,-0.009 -0.008,-0.02 -0.011,-0.03"
         inkscape:connector-curvature="0" />
    </clipPath>
    <clipPath
       id="clipPath3831"
       clipPathUnits="userSpaceOnUse">
      <path
         id="path3833"
         d="m 236.952,67.842 84.608,0 0,34.129 -84.608,0 0,-34.129 z"
         inkscape:connector-curvature="0" />
    </clipPath>
    <clipPath
       id="clipPath3731"
       clipPathUnits="userSpaceOnUse">
      <path
         id="path3733"
         d="m 157.237,71.454 56.893,0 0,28.604 -56.893,0 0,-28.604 z"
         inkscape:connector-curvature="0" />
    </clipPath>
    <clipPath
       id="clipPath3341"
       clipPathUnits="userSpaceOnUse">
      <path
         id="path3343"
         d="m 54.936,71.735 76.447,0 0,34.969 -76.447,0 0,-34.969 z"
         inkscape:connector-curvature="0" />
    </clipPath>
    <clipPath
       id="clipPath3237"
       clipPathUnits="userSpaceOnUse">
      <path
         id="path3239"
         d="m 54,308.852 170.903,0 0,38.548 -170.903,0 0,-38.548 z"
         inkscape:connector-curvature="0" />
    </clipPath>
    <clipPath
       id="clipPath3155"
       clipPathUnits="userSpaceOnUse">
      <path
         id="path3157"
         d="m 0,0 1242,0 0,792 L 0,792 0,0 z"
         inkscape:connector-curvature="0" />
    </clipPath>
    <clipPath
       id="clipPath3031"
       clipPathUnits="userSpaceOnUse">
      <path
         id="path3033"
         d="m 701,723.859 189.892,0 0,42.831 -189.892,0 0,-42.831 z"
         inkscape:connector-curvature="0" />
    </clipPath>
    <clipPath
       id="clipPath3013"
       clipPathUnits="userSpaceOnUse">
      <path
         id="path3015"
         d="m 0,0 1242,0 0,792 L 0,792 0,0 z"
         inkscape:connector-curvature="0" />
    </clipPath>
    <clipPath
       id="clipPath2999"
       clipPathUnits="userSpaceOnUse">
      <path
         id="path3001"
         d="m 620.8,482.052 0,-379.812 621.2,0 0,415.016 c -26.354,1.95 -86.11,5.563 -166.731,5.564 l 0,0 C 956.032,522.822 791.115,514.922 620.8,482.052"
         inkscape:connector-curvature="0" />
    </clipPath>
  </defs>
  <sodipodi:namedview
     id="base"
     pagecolor="#ffffff"
     bordercolor="#666666"
     borderopacity="1.0"
     inkscape:pageopacity="0.0"
     inkscape:pageshadow="2"
     inkscape:zoom="1.11"
     inkscape:cx="177.47251"
     inkscape:cy="51.402516"
     inkscape:document-units="px"
     inkscape:current-layer="g2993"
     showgrid="false"
     fit-margin-top="0"
     fit-margin-left="0"
     fit-margin-right="0"
     fit-margin-bottom="0"
     inkscape:window-width="537"
     inkscape:window-height="458"
     inkscape:window-x="66"
     inkscape:window-y="66"
     inkscape:window-maximized="0" />
  <metadata
     id="metadata7">
    <rdf:RDF>
      <cc:Work
         rdf:about="">
        <dc:format>image/svg+xml</dc:format>
        <dc:type
           rdf:resource="http://purl.org/dc/dcmitype/StillImage" />
        <dc:title></dc:title>
      </cc:Work>
    </rdf:RDF>
  </metadata>
  <g
     inkscape:label="Layer 1"
     inkscape:groupmode="layer"
     id="layer1"
     transform="translate(-190.12846,-545.80269)">
    <g
       transform="matrix(1.25,0,0,-1.25,-401.25,1027.3622)"
       inkscape:label="2011 Annual Report"
       id="g2993">
      <g
         id="g3233"
         transform="matrix(1.6663094,0,0,1.6663094,383.12206,-193.62761)">
        <g
           clip-path="url(#clipPath3237)"
           id="g3235">
          <g
             transform="translate(91.8114,328.126)"
             id="g3241">
            <path
               id="path3243"
               style="fill:#1162a5;fill-opacity:1;fill-rule:nonzero;stroke:none"
               d="m 0,0 c 0,-10.238 -8.3,-18.538 -18.538,-18.538 -10.237,0 -18.537,8.3 -18.537,18.538 0,10.238 8.3,18.538 18.537,18.538 C -8.3,18.538 0,10.238 0,0"
               inkscape:connector-curvature="0" />
          </g>
          <g
             transform="translate(73.274,346.4706)"
             id="g3245">
            <path
               id="path3247"
               style="fill:#ffffff;fill-opacity:1;fill-rule:nonzero;stroke:none"
               d="m 0,0 c -10.115,0 -18.345,-8.229 -18.345,-18.345 0,-10.115 8.23,-18.344 18.345,-18.344 10.115,0 18.345,8.229 18.345,18.344 C 18.345,-8.229 10.115,0 0,0 m 0,-37.619 c -10.628,0 -19.274,8.647 -19.274,19.274 0,10.629 8.646,19.274 19.274,19.274 10.627,0 19.274,-8.645 19.274,-19.274 0,-10.627 -8.647,-19.274 -19.274,-19.274"
               inkscape:connector-curvature="0" />
          </g>
          <path
             id="path3249"
             style="fill:#ffffff;fill-opacity:1;fill-rule:nonzero;stroke:none"
             d="m 92.211,328.97 -37.746,0 0,0.91 37.746,0 0,-0.91 z"
             inkscape:connector-curvature="0" />
          <path
             id="path3251"
             style="fill:#ffffff;fill-opacity:1;fill-rule:nonzero;stroke:none"
             d="m 86.29,341.348 -25.981,0 0,0.91 25.981,0 0,-0.91 z"
             inkscape:connector-curvature="0" />
          <path
             id="path3253"
             style="fill:#ffffff;fill-opacity:1;fill-rule:nonzero;stroke:none"
             d="m 87.708,315.807 -28.918,0 0,0.91 28.918,0 0,-0.91 z"
             inkscape:connector-curvature="0" />
          <g
             transform="translate(98.4319,324.9347)"
             id="g3255">
            <path
               id="path3257"
               style="fill:#231f20;fill-opacity:1;fill-rule:nonzero;stroke:none"
               d="m 0,0 0,8.677 4.814,0 -0.188,-1.178 -3.184,0 0,-2.37 2.67,0 0,-1.191 -2.644,0 0,-2.708 3.472,0 L 4.94,0 0,0 z"
               inkscape:connector-curvature="0" />
          </g>
          <g
             transform="translate(110.7315,324.9347)"
             id="g3259">
            <path
               id="path3261"
               style="fill:#231f20;fill-opacity:1;fill-rule:nonzero;stroke:none"
               d="M 0,0 -1.793,3.436 -3.523,0 l -1.768,0 2.658,4.652 -2.332,4.025 1.756,0 1.391,-2.683 1.367,2.683 1.704,0 L -0.953,4.753 1.731,0 0,0 z"
               inkscape:connector-curvature="0" />
          </g>
          <g
             transform="translate(118.9813,332.0201)"
             id="g3263">
            <path
               id="path3265"
               style="fill:#231f20;fill-opacity:1;fill-rule:nonzero;stroke:none"
               d="m 0,0 c -0.264,0.275 -0.641,0.426 -1.204,0.426 l -1.128,0 0,-3.047 1.128,0 c 1.064,0 1.554,0.501 1.554,1.53 C 0.35,-0.615 0.237,-0.251 0,0 m -0.866,-3.774 -1.466,0 0,-3.312 -1.43,0 0,8.678 2.308,0 c 1.266,0 1.729,-0.126 2.206,-0.414 0.764,-0.452 1.191,-1.229 1.191,-2.181 0,-1.706 -1.24,-2.771 -2.809,-2.771"
               inkscape:connector-curvature="0" />
          </g>
          <g
             transform="translate(126.265,332.4458)"
             id="g3267">
            <path
               id="path3269"
               style="fill:#231f20;fill-opacity:1;fill-rule:nonzero;stroke:none"
               d="m 0,0 -0.789,0 0,-2.746 0.739,0 c 0.752,0 1.153,0.101 1.417,0.364 0.238,0.238 0.388,0.602 0.388,1.053 C 1.755,-0.452 1.28,0 0,0 m 2.006,-7.511 -0.752,1.342 c -0.602,1.066 -1.003,1.668 -1.48,2.145 -0.163,0.163 -0.289,0.251 -0.563,0.264 l 0,-3.751 -1.417,0 0,8.677 2.645,0 C 2.382,1.166 3.26,0.038 3.26,-1.317 3.26,-2.558 2.457,-3.7 1.103,-3.7 1.416,-3.861 1.993,-4.702 2.445,-5.428 l 1.28,-2.083 -1.719,0 z"
               inkscape:connector-curvature="0" />
          </g>
          <g
             transform="translate(133.1232,324.9347)"
             id="g3271">
            <path
               id="path3273"
               style="fill:#231f20;fill-opacity:1;fill-rule:nonzero;stroke:none"
               d="m 0,0 0,8.677 4.815,0 -0.189,-1.178 -3.184,0 0,-2.37 2.671,0 0,-1.191 -2.645,0 0,-2.708 3.472,0 L 4.94,0 0,0 z"
               inkscape:connector-curvature="0" />
          </g>
          <g
             transform="translate(143.5424,324.7729)"
             id="g3275">
            <path
               id="path3277"
               style="fill:#231f20;fill-opacity:1;fill-rule:nonzero;stroke:none"
               d="m 0,0 c -0.992,0 -1.993,0.263 -2.846,0.777 l 0.553,1.103 c 0.776,-0.45 1.465,-0.714 2.343,-0.714 1.066,0 1.704,0.513 1.704,1.379 0,0.64 -0.4,1.04 -1.29,1.291 L -0.464,4.1 c -0.79,0.225 -1.353,0.551 -1.68,1.04 -0.239,0.352 -0.363,0.765 -0.363,1.267 0,1.529 1.203,2.57 2.946,2.57 0.989,0 1.981,-0.289 2.747,-0.827 L 2.532,7.134 C 1.729,7.609 1.177,7.798 0.489,7.798 c -0.854,0 -1.417,-0.464 -1.417,-1.179 0,-0.538 0.301,-0.815 1.154,-1.065 l 1.027,-0.3 C 2.507,4.89 3.387,4.087 3.387,2.783 3.387,1.34 2.219,0 0,0"
               inkscape:connector-curvature="0" />
          </g>
          <g
             transform="translate(152.5312,324.7729)"
             id="g3279">
            <path
               id="path3281"
               style="fill:#231f20;fill-opacity:1;fill-rule:nonzero;stroke:none"
               d="m 0,0 c -0.99,0 -1.993,0.263 -2.845,0.777 l 0.552,1.103 c 0.776,-0.45 1.465,-0.714 2.343,-0.714 1.066,0 1.705,0.513 1.705,1.379 0,0.64 -0.401,1.04 -1.291,1.291 L -0.464,4.1 c -0.788,0.225 -1.353,0.551 -1.679,1.04 -0.24,0.352 -0.364,0.765 -0.364,1.267 0,1.529 1.203,2.57 2.946,2.57 0.992,0 1.981,-0.289 2.745,-0.827 L 2.534,7.134 C 1.731,7.609 1.177,7.798 0.489,7.798 c -0.852,0 -1.417,-0.464 -1.417,-1.179 0,-0.538 0.301,-0.815 1.154,-1.065 l 1.028,-0.3 C 2.507,4.89 3.385,4.087 3.385,2.783 3.385,1.34 2.219,0 0,0"
               inkscape:connector-curvature="0" />
          </g>
          <g
             transform="translate(166.2213,324.7729)"
             id="g3283">
            <path
               id="path3285"
               style="fill:#231f20;fill-opacity:1;fill-rule:nonzero;stroke:none"
               d="m 0,0 c -0.99,0 -1.994,0.263 -2.845,0.777 l 0.55,1.103 c 0.779,-0.45 1.469,-0.714 2.347,-0.714 1.064,0 1.703,0.513 1.703,1.379 0,0.64 -0.401,1.04 -1.289,1.291 L -0.464,4.1 c -0.789,0.225 -1.354,0.551 -1.679,1.04 -0.24,0.352 -0.364,0.765 -0.364,1.267 0,1.529 1.205,2.57 2.945,2.57 0.992,0 1.982,-0.289 2.747,-0.827 L 2.533,7.134 C 1.73,7.609 1.179,7.798 0.491,7.798 c -0.853,0 -1.418,-0.464 -1.418,-1.179 0,-0.538 0.301,-0.815 1.153,-1.065 l 1.028,-0.3 C 2.509,4.89 3.386,4.087 3.386,2.783 3.386,1.34 2.219,0 0,0"
               inkscape:connector-curvature="0" />
          </g>
          <g
             transform="translate(176.4124,324.7977)"
             id="g3287">
            <path
               id="path3289"
               style="fill:#231f20;fill-opacity:1;fill-rule:nonzero;stroke:none"
               d="m 0,0 c -1.151,0 -2.068,0.439 -2.743,1.254 -0.654,0.79 -0.992,1.843 -0.992,3.096 0,1.041 0.189,1.907 0.578,2.633 0.652,1.242 1.843,1.995 3.196,1.995 0.841,0 1.643,-0.251 2.157,-0.678 L 1.532,7.347 C 1.068,7.686 0.59,7.836 0.052,7.836 -0.687,7.836 -1.303,7.461 -1.679,6.795 -1.981,6.269 -2.128,5.542 -2.128,4.514 c 0,-1.065 0.111,-1.668 0.337,-2.157 0.375,-0.827 1.091,-1.228 1.932,-1.228 0.612,0 1.064,0.163 1.554,0.551 L 2.372,0.764 C 1.695,0.251 0.929,0 0,0"
               inkscape:connector-curvature="0" />
          </g>
          <g
             transform="translate(184.2498,332.4458)"
             id="g3291">
            <path
               id="path3293"
               style="fill:#231f20;fill-opacity:1;fill-rule:nonzero;stroke:none"
               d="m 0,0 -0.789,0 0,-2.746 0.739,0 c 0.752,0 1.153,0.101 1.417,0.364 0.238,0.238 0.388,0.602 0.388,1.053 C 1.755,-0.452 1.28,0 0,0 m 2.006,-7.511 -0.752,1.342 c -0.603,1.066 -1.001,1.668 -1.48,2.145 -0.163,0.163 -0.288,0.251 -0.563,0.264 l 0,-3.751 -1.419,0 0,8.677 2.647,0 c 1.944,0 2.822,-1.128 2.822,-2.483 0,-1.241 -0.804,-2.383 -2.158,-2.383 0.313,-0.161 0.89,-1.002 1.342,-1.728 l 1.28,-2.083 -1.719,0 z"
               inkscape:connector-curvature="0" />
          </g>
          <path
             id="path3295"
             style="fill:#231f20;fill-opacity:1;fill-rule:nonzero;stroke:none"
             d="m 191.108,333.612 1.481,0 0,-8.677 -1.481,0 0,8.677 z"
             inkscape:connector-curvature="0" />
          <g
             transform="translate(200.2354,332.0201)"
             id="g3297">
            <path
               id="path3299"
               style="fill:#231f20;fill-opacity:1;fill-rule:nonzero;stroke:none"
               d="m 0,0 c -0.263,0.275 -0.64,0.426 -1.203,0.426 l -1.13,0 0,-3.047 1.13,0 c 1.064,0 1.553,0.501 1.553,1.53 C 0.35,-0.615 0.238,-0.251 0,0 m -0.865,-3.774 -1.468,0 0,-3.312 -1.428,0 0,8.678 2.307,0 c 1.266,0 1.729,-0.126 2.208,-0.414 0.764,-0.452 1.19,-1.229 1.19,-2.181 0,-1.706 -1.242,-2.771 -2.809,-2.771"
               inkscape:connector-curvature="0" />
          </g>
          <g
             transform="translate(210.0642,332.4085)"
             id="g3301">
            <path
               id="path3303"
               style="fill:#231f20;fill-opacity:1;fill-rule:nonzero;stroke:none"
               d="m 0,0 -2.182,0 0,-7.474 -1.44,0 0,7.474 -2.195,0 0,1.203 6.005,0 L 0,0 z"
               inkscape:connector-curvature="0" />
          </g>
          <g
             transform="translate(215.1669,324.7729)"
             id="g3305">
            <path
               id="path3307"
               style="fill:#231f20;fill-opacity:1;fill-rule:nonzero;stroke:none"
               d="m 0,0 c -0.989,0 -1.993,0.263 -2.846,0.777 l 0.553,1.103 c 0.777,-0.45 1.465,-0.714 2.344,-0.714 1.065,0 1.705,0.513 1.705,1.379 0,0.64 -0.402,1.04 -1.292,1.291 L -0.463,4.1 c -0.791,0.225 -1.354,0.551 -1.68,1.04 -0.239,0.352 -0.363,0.765 -0.363,1.267 0,1.529 1.202,2.57 2.945,2.57 0.99,0 1.982,-0.289 2.745,-0.827 L 2.532,7.134 C 1.731,7.609 1.178,7.798 0.489,7.798 c -0.852,0 -1.416,-0.464 -1.416,-1.179 0,-0.538 0.3,-0.815 1.153,-1.065 l 1.029,-0.3 C 2.508,4.89 3.385,4.087 3.385,2.783 3.385,1.34 2.22,0 0,0"
               inkscape:connector-curvature="0" />
          </g>
          <g
             transform="translate(223.0064,332.1651)"
             id="g3309">
            <path
               id="path3311"
               style="fill:#231f20;fill-opacity:1;fill-rule:nonzero;stroke:none"
               d="m 0,0 c -0.05,0.016 -0.151,0.033 -0.261,0.033 l -0.167,0 0,-0.629 0.156,0 c 0.199,0 0.289,0.024 0.35,0.08 0.055,0.055 0.088,0.137 0.088,0.232 C 0.166,-0.139 0.112,-0.045 0,0 m 0.246,-1.912 c -0.091,0.157 -0.128,0.217 -0.218,0.384 -0.227,0.417 -0.3,0.533 -0.384,0.566 -0.021,0.012 -0.044,0.017 -0.072,0.017 l 0,-0.967 -0.455,0 0,2.318 0.86,0 c 0.412,0 0.686,-0.273 0.686,-0.678 0,-0.351 -0.234,-0.633 -0.519,-0.64 0.044,-0.038 0.068,-0.06 0.096,-0.1 0.133,-0.167 0.556,-0.9 0.556,-0.9 l -0.55,0 z m -0.407,2.801 c -0.879,0 -1.584,-0.734 -1.584,-1.656 0,-0.922 0.705,-1.667 1.584,-1.667 0.877,0 1.59,0.745 1.59,1.667 0,0.922 -0.713,1.656 -1.59,1.656 m 0,-3.724 c -1.127,0 -2.056,0.912 -2.056,2.068 0,1.15 0.929,2.068 2.056,2.068 1.128,0 2.057,-0.918 2.057,-2.068 0,-1.156 -0.929,-2.068 -2.057,-2.068"
               inkscape:connector-curvature="0" />
          </g>
          <g
             transform="translate(69.5572,336.9371)"
             id="g3313">
            <path
               id="path3315"
               style="fill:#ffffff;fill-opacity:1;fill-rule:nonzero;stroke:none"
               d="m 0,0 c 1.462,3.138 0.368,3.533 -1.648,3.695 l 0.565,1.204 17.322,0 c 0,0 2.021,-1.623 2.746,-2.69 C 18.594,1.164 18.32,0.341 18.043,-0.544 l -1.426,-0.119 c 0.319,1.629 0.108,2.702 -0.31,3.337 -0.508,0.675 -1.712,1.034 -4.674,1.034 l -3.62,0 C 7.28,3.708 6.945,3.628 6.428,2.515 l -4.234,-9.058 4.112,0 c 4.113,0 4.591,0.319 6.397,2.781 l 1.316,0 -3.315,-7.111 -1.316,0 c 0.529,2.663 0.165,2.941 -3.731,2.941 l -4.162,0 -3.534,-7.707 c -0.796,-1.709 -1.242,-2.902 -0.725,-3.178 0.755,-0.404 2.137,-0.478 4.495,-0.478 3.126,0 5.176,0.398 6.645,1.313 1.174,0.753 2.699,2.025 4.209,3.614 l 1.241,-0.159 c -0.626,-0.874 -3.539,-4.886 -4.423,-5.959 l -20.506,0 c 0,0 -0.436,0.553 -0.703,0.937 3.33,0.307 3.215,1.119 4.516,3.91 L 0,0 z"
               inkscape:connector-curvature="0" />
          </g>
          <g
             transform="translate(64.6711,336.9139)"
             id="g3317">
            <path
               id="path3319"
               style="fill:#ffffff;fill-opacity:1;fill-rule:nonzero;stroke:none"
               d="m 0,0 -0.083,0.906 c 0.466,0.042 0.934,0.07 1.415,0.062 0.311,0 0.619,-0.009 0.926,-0.028 L 2.202,0.032 C 1.907,0.051 1.627,0.064 1.311,0.059 0.872,0.059 0.431,0.039 0,0 M 6.285,-0.823 C 5.599,-0.57 4.886,-0.369 4.167,-0.224 L 4.346,0.668 C 5.111,0.514 5.869,0.3 6.6,0.031 L 6.285,-0.823 z M -4.06,-0.975 -4.398,-0.131 c 0.725,0.292 1.477,0.528 2.235,0.704 l 0.205,-0.887 C -2.671,-0.478 -3.377,-0.701 -4.06,-0.975 M 9.948,-2.817 C 9.361,-2.376 8.737,-1.978 8.092,-1.634 L 8.52,-0.831 C 9.206,-1.197 9.87,-1.62 10.495,-2.089 L 9.948,-2.817 z m -17.612,-0.26 -0.568,0.71 c 0.609,0.487 1.261,0.929 1.937,1.316 l 0.452,-0.788 c -0.636,-0.365 -1.248,-0.782 -1.821,-1.238 m 20.554,-2.7 c -0.436,0.589 -0.922,1.149 -1.441,1.664 l 0.639,0.647 c 0.554,-0.548 1.069,-1.143 1.534,-1.769 L 12.89,-5.777 z m 1.975,-3.678 c -0.249,0.688 -0.554,1.364 -0.905,2.009 l 0.798,0.435 c 0.374,-0.684 0.698,-1.403 0.962,-2.135 l -0.855,-0.309 z"
               inkscape:connector-curvature="0" />
          </g>
          <g
             transform="translate(80.2981,322.6837)"
             id="g3321">
            <path
               id="path3323"
               style="fill:#ffffff;fill-opacity:1;fill-rule:nonzero;stroke:none"
               d="M 0,0 C -0.022,0.732 -0.101,1.47 -0.235,2.19 L 0.66,2.357 C 0.804,1.581 0.888,0.808 0.91,0.028 L 0,0 z m -1.352,-8.087 -0.777,0.476 c 0.383,0.622 0.56,0.918 0.843,1.596 l 1.001,0.012 c -0.303,-0.721 -0.661,-1.422 -1.067,-2.084 m -2.848,-3.4 -0.605,0.677 c 0.546,0.488 1.06,1.021 1.526,1.585 l 0.702,-0.578 c -0.496,-0.601 -1.041,-1.169 -1.623,-1.684"
               inkscape:connector-curvature="0" />
          </g>
          <g
             transform="translate(59.8941,314.3063)"
             id="g3325">
            <path
               id="path3327"
               style="fill:#ffffff;fill-opacity:1;fill-rule:nonzero;stroke:none"
               d="M 0,0 -0.627,0.627 14.486,32.819 15.309,32.432 0.139,0.077 0,0 z"
               inkscape:connector-curvature="0" />
          </g>
          <g
             transform="translate(63.2259,311.9863)"
             id="g3329">
            <path
               id="path3331"
               style="fill:#ffffff;fill-opacity:1;fill-rule:nonzero;stroke:none"
               d="M 0,0 -0.824,0.383 15.112,34.601 15.937,34.217 0,0 z"
               inkscape:connector-curvature="0" />
          </g>
          <g
             transform="translate(72.2427,309.1035)"
             id="g3333">
            <path
               id="path3335"
               style="fill:#ffffff;fill-opacity:1;fill-rule:nonzero;stroke:none"
               d="M 0,0 -0.648,0.473 C 0.032,0.745 0.696,1.07 1.326,1.441 L 1.79,0.659 C 1.119,0.262 0.879,0.184 0.156,-0.104 L 0,0 z"
               inkscape:connector-curvature="0" />
          </g>
        </g>
      </g>
    </g>
  </g>
</svg>
