<?xml version="1.0" encoding="UTF-8" standalone="no"?>
<!-- Generator: Adobe Illustrator 16.0.0, SVG Export Plug-In . SVG Version: 6.00 Build 0)  -->

<svg
   xmlns:dc="http://purl.org/dc/elements/1.1/"
   xmlns:cc="http://creativecommons.org/ns#"
   xmlns:rdf="http://www.w3.org/1999/02/22-rdf-syntax-ns#"
   xmlns:svg="http://www.w3.org/2000/svg"
   xmlns="http://www.w3.org/2000/svg"
   xmlns:sodipodi="http://sodipodi.sourceforge.net/DTD/sodipodi-0.dtd"
   xmlns:inkscape="http://www.inkscape.org/namespaces/inkscape"
   version="1.1"
   id="Layer_1"
   x="0px"
   y="0px"
   width="908.41901"
   height="124"
   viewBox="0 0 908.41901 124"
   enable-background="new 0 0 144 22"
   xml:space="preserve"
   sodipodi:docname="ETrade Logo.svg"
   inkscape:version="0.92.2 (5c3e80d, 2017-08-06)"><metadata
     id="metadata17"><rdf:RDF><cc:Work
         rdf:about=""><dc:format>image/svg+xml</dc:format><dc:type
           rdf:resource="http://purl.org/dc/dcmitype/StillImage" /><dc:title></dc:title></cc:Work></rdf:RDF></metadata><defs
     id="defs15" /><sodipodi:namedview
     pagecolor="#ffffff"
     bordercolor="#666666"
     borderopacity="1"
     objecttolerance="10"
     gridtolerance="10"
     guidetolerance="10"
     inkscape:pageopacity="0"
     inkscape:pageshadow="2"
     inkscape:window-width="640"
     inkscape:window-height="480"
     id="namedview13"
     showgrid="false"
     fit-margin-top="0"
     fit-margin-left="0"
     fit-margin-right="0"
     fit-margin-bottom="0"
     inkscape:zoom="1.0833711"
     inkscape:cx="407.82507"
     inkscape:cy="10.051999"
     inkscape:current-layer="Layer_1" /><g
     id="g10"
     transform="matrix(6.3204037,0,0,6.3204037,-0.8595749,-9.0571385)"><path
       d="m 143.864,4.898 c 0,0.835 -0.678,1.513 -1.514,1.513 -0.834,0 -1.512,-0.677 -1.512,-1.513 0,-0.836 0.678,-1.513 1.512,-1.513 0.837,0 1.514,0.677 1.514,1.513 z m -1.513,-1.261 c -0.696,0 -1.26,0.564 -1.26,1.261 0,0.696 0.563,1.261 1.26,1.261 0.697,0 1.262,-0.565 1.262,-1.261 -0.001,-0.697 -0.565,-1.261 -1.262,-1.261 z m 0.655,0.941 c 0,0.224 -0.234,0.432 -0.47,0.432 0.132,0.045 0.235,0.164 0.578,0.728 h -0.321 C 142.54,5.309 142.449,5.047 142.18,5.047 h -0.173 v 0.691 h -0.26 v -1.63 h 0.656 c 0.494,0 0.603,0.245 0.603,0.47 m -0.999,0.244 h 0.354 c 0.226,0 0.369,-0.062 0.369,-0.248 0,-0.185 -0.144,-0.247 -0.369,-0.247 h -0.354 v 0.495 m -2.48,14.148 H 122.892 V 3.513 h 16.349 v 2.769 h -12.616 v 3.389 h 8.669 v 2.778 h -8.669 v 3.596 h 12.902 z M 16.771,16.045 H 3.869 v -3.596 h 8.668 V 9.671 H 3.869 V 6.282 H 16.485 V 3.513 H 0.136 V 18.97 h 16.635 z m 31.43,-9.618 h 7.437 V 3.513 H 37.06 v 2.914 h 7.394 V 18.97 h 3.748 V 6.427 Z M 101.07,3.513 h 9.867 c 6.037,0 9.286,2.636 9.286,7.709 0,3.055 -1.375,5.097 -3.619,6.473 -1.56,0.985 -3.748,1.274 -6.623,1.274 h -8.911 z m 8.38,12.386 c 4.752,0 7.054,-0.696 7.054,-4.75 0,-3.317 -1.959,-4.723 -5.493,-4.723 h -6.151 v 9.473 z M 81.606,18.97 H 77.858 L 86.927,3.513 h 3.692 L 99.844,18.97 H 95.623 L 93.694,15.899 H 83.479 Z m 3.475,-6.011 h 7.055 L 88.675,6.702 Z M 61.784,18.97 H 58.08 V 3.513 h 12.476 c 3.474,0 5.749,2.058 5.749,5.054 0,2.435 -1.175,4.016 -3.476,4.65 l 3.888,5.752 h -4.18 l -3.743,-5.476 h -7.009 v 5.477 z m 0,-8.447 h 8.368 c 1.576,0 2.491,-0.78 2.491,-2.057 0,-1.172 -0.93,-1.985 -2.504,-1.985 h -8.354 v 4.042 z"
       id="path2"
       inkscape:connector-curvature="0" /><g
       id="g8"><polygon
         points="30.774,9.162 37.295,9.162 37.295,13.323 30.774,13.323 34.035,18.97 30.431,21.052 27.17,15.403 24.767,11.242 27.17,7.08 30.431,1.433 34.035,3.513 "
         id="polygon4"
         style="fill:#99cc00" /><polygon
         points="23.566,9.162 17.044,9.162 17.044,13.323 23.566,13.323 20.306,18.97 23.91,21.052 27.17,15.403 29.573,11.242 27.17,7.08 23.91,1.433 20.306,3.513 "
         id="polygon6"
         style="fill:#6633cc" /></g></g></svg>