<?xml version="1.0" encoding="UTF-8" standalone="no"?>
<svg xmlns:rdf="http://www.w3.org/1999/02/22-rdf-syntax-ns#" xmlns="http://www.w3.org/2000/svg" height="33.6548" width="85.56189" version="1.1" xmlns:cc="http://creativecommons.org/ns#" xmlns:dc="http://purl.org/dc/elements/1.1/" viewBox="0 0 85.56189 33.6548"><defs><clipPath id="clip-path" transform="translate(-0.00018 -0.0004)"><rect width="85.561" height="33.655" fill="none"/></clipPath></defs><title>Entergy logo</title><g clip-path="url(#clip-path)"><path d="M81.84058,30.037a1.38,1.38,0,1,1-1.38,1.38,1.38148,1.38148,0,0,1,1.38-1.38m.004,2.553a1.17478,1.17478,0,1,0-1.12-1.173,1.12312,1.12312,0,0,0,1.12,1.173m-.532-1.984h.619c.371,0,.555.149.555.455a.41243.41243,0,0,1-.417.448l.459.714h-.279l-.451-.714h-.222v.714h-.264Zm.264.696h.314c.202,0,.332-.042.332-.252,0-.184-.164-.237-.332-.237h-.314Z" transform="translate(-0.00018 -0.0004)" fill="#231f20"/><path d="M14.41058,21.9141h3.966a11.97635,11.97635,0,0,0,1.577-1.22h-5.543Z" transform="translate(-0.00018 -0.0004)" fill="#e21f26"/><path d="M4.52319,14.296h4.882v1.342h5.005V14.296h4.882v1.342h3.932a11.87472,11.87472,0,0,0,.573-3.003h-4.505V11.633h-4.882v1.002h-5.005V11.633h-4.882v1.002H.01819a11.91775,11.91775,0,0,0,.573,3.003h3.932Z" transform="translate(-0.00018 -0.0004)" fill="#e21f26"/><path d="M4.52319,10.6274h4.882v1.006h5.005v-1.006h4.882v1.006h4.524a11.91126,11.91126,0,0,0-23.816,0h4.523Z" transform="translate(-0.00018 -0.0004)" fill="#e21f26"/><path d="M4.52319,18.47549h4.882v1.282h5.005v-1.282h4.882v1.282h1.577a11.92109,11.92109,0,0,0,1.55-2.238h-3.127v-1.345h-4.882v1.345h-5.005v-1.345h-4.882v1.345h-3.126a11.91748,11.91748,0,0,0,1.549,2.238h1.577Z" transform="translate(-0.00018 -0.0004)" fill="#e21f26"/><path d="M9.405,20.6942H3.862a11.97575,11.97575,0,0,0,1.577,1.22H9.405Z" transform="translate(-0.00018 -0.0004)" fill="#e21f26"/><rect x="9.40479" y="22.1316" width="5.00601" height="1.211" fill="#e21f26"/><rect x="9.40482" y="22.1316" width="5.00601" height="1.211" fill="#e21f26"/><path d="M50.09619,16.83l-.869,3.066h-1.546l-.17.596h.934c.242,0,.394.036.451.109.058.076.085.166.014.416l-1.362,4.799a6.58394,6.58394,0,0,0-.295,1.571,1.51484,1.51484,0,0,0,1.727,1.601,3.52826,3.52826,0,0,0,2.445-1.356l-.386-.311a2.73587,2.73587,0,0,1-1.662.941.37046.37046,0,0,1-.351-.19c-.119-.224-.062-.53.101-1.105l1.836-6.475h1.552l.169-.596h-1.552l1.004-3.539a4.95068,4.95068,0,0,1-2.04.473" transform="translate(-0.00018 -0.0004)" fill="#231f20"/><path d="M40.58521,21.6297l.492-1.733h-3.366l-.169.595,1.023.001c.195,0,.255.019.322.099.066.08.038.222.001.351l-2.245,7.92h1.891l1.271-4.482c.766-2.701,2.962-4.174,3.875-4.174.364,0,.581.153.571.593a6.66929,6.66929,0,0,1-.348,1.541l-1.054,3.257a6.76442,6.76442,0,0,0-.389,1.826,1.367,1.367,0,0,0,1.423,1.591,2.88473,2.88473,0,0,0,2.229-1.4l-.394-.297c-.455.61-.898.951-1.255.961-.218.007-.348-.169-.244-.686a8.279,8.279,0,0,1,.248-.938s.973-3.031,1.097-3.469a7.85527,7.85527,0,0,0,.393-1.925,1.61019,1.61019,0,0,0-.429-1.184,1.99264,1.99264,0,0,0-1.471-.499,4.81912,4.81912,0,0,0-3.472,2.052" transform="translate(-0.00018 -0.0004)" fill="#231f20"/><path d="M27.25378,14.9852l-.177.626h1.311c.186,0,.285.009.345.08.07.082.031.271-.017.444l-3.259,11.492a.98575.98575,0,0,1-.214.483.54311.54311,0,0,1-.385.127h-1.077l-.177.626h11.122l1.251-4.413h-.639l-.007.027a4.98115,4.98115,0,0,1-1.447,2.755,5.60981,5.60981,0,0,1-3.715,1.005h-2.53l1.874-6.609h1.304c1.118,0,1.699.275,1.882.892a3.68992,3.68992,0,0,1-.148,1.785h.54l1.505-5.304h-.541c-.601,2.009-1.712,1.999-3.294,1.999h-1.07l1.528-5.389h2.786a2.9042,2.9042,0,0,1,2.089.556,1.897,1.897,0,0,1,.456,1.431,8.13592,8.13592,0,0,1-.138,1.276h.531l1-3.889Z" transform="translate(-0.00018 -0.0004)" fill="#231f20"/><path d="M57.69708,19.386c1.784,0,2.689.67,2.689,1.99a3.03728,3.03728,0,0,1-1.606,2.412,13.40784,13.40784,0,0,0,3.699-1.775l.305-1.074a.416.416,0,0,0-.003-.347c-.055-.075-.122-.099-.323-.099h-.715l.169-.597h3.058l-.285,1.007a6.4649,6.4649,0,0,1,3.275-1.108l-.654,2.015a2.56958,2.56958,0,0,0-1.646-.051,7.45146,7.45146,0,0,0-1.372.543l-1.861,6.561h-1.891l1.578-5.564a13.67168,13.67168,0,0,1-7.737,1.436,5.84693,5.84693,0,0,0-.164,1.433,2.53352,2.53352,0,0,0,.545,1.827,1.57648,1.57648,0,0,0,1.183.414,3.56211,3.56211,0,0,0,2.486-1.326l.39.292a4.02161,4.02161,0,0,1-3.274,1.656,3.14468,3.14468,0,0,1-2.24-.886,3.74667,3.74667,0,0,1-.935-2.789c.048-3.417,2.853-5.97,5.329-5.97m-3.197,4.794a8.41807,8.41807,0,0,0,1.609-.081,2.83507,2.83507,0,0,0,2.605-2.808,1.20716,1.20716,0,0,0-1.238-1.336c-1.917-.007-2.831,3.657-2.976,4.225" transform="translate(-0.00018 -0.0004)" fill="#231f20"/><path d="M68.81708,20.5882a3.72777,3.72777,0,0,0-1.157,2.683,2.94257,2.94257,0,0,0,1.066,2.269c-1.562.485-2.269,1.203-2.269,2.176a1.39916,1.39916,0,0,0,.504,1.091,2.55262,2.55262,0,0,0-1.886,2.419c0,1.794,2.138,2.429,4.024,2.429,3.571,0,4.838-2.08,4.838-3.862,0-1.802-1.435-2.093-2.514-2.155l-2.787-.115c-.559-.03-.927-.155-.943-.443-.026-.482.698-.96,1.502-1.217a2.83825,2.83825,0,0,0,1.349.349,3.93165,3.93165,0,0,0,4.233-3.958,3.16827,3.16827,0,0,0-.5-1.765h.833c.813,0,1.199.089,1.342.614.105.393,1.975,7.638,1.975,7.638-1.311,2.69-2.629,3.855-4.932,4.489a6.34633,6.34633,0,0,0,3.615-.691,5.48,5.48,0,0,0,1.986-2.144c1.485-2.563,4.563-8.253,4.563-8.253a6.28243,6.28243,0,0,1,1.903-2.246h-2.426c-1.213,2.469-3.383,6.68-3.383,6.68l-1.53-6.68h-4.504a3.23406,3.23406,0,0,0-1.768-.522,4.345,4.345,0,0,0-3.134,1.214m-2.324,10.507a2.07722,2.07722,0,0,1,1.085-1.959,4.14041,4.14041,0,0,0,.696.148c.726.102,2.176.143,2.823.164.524.016,1.738.176,1.72,1.318-.014.868-.48,2.325-3.447,2.325-1.351,0-2.877-.352-2.877-1.996m2.895-6.799c-.028-1.025.64-4.283,2.392-4.357a1.20947,1.20947,0,0,1,.928.286,1.41371,1.41371,0,0,1,.317,1.141c-.025.942-.682,4.222-2.315,4.317-.771.044-1.294-.379-1.322-1.387" transform="translate(-0.00018 -0.0004)" fill="#231f20"/></g></svg>