<?xml version="1.0" encoding="UTF-8" standalone="no"?>
<!-- Created with Inkscape (http://www.inkscape.org/) -->

<svg
   xmlns:dc="http://purl.org/dc/elements/1.1/"
   xmlns:cc="http://creativecommons.org/ns#"
   xmlns:rdf="http://www.w3.org/1999/02/22-rdf-syntax-ns#"
   xmlns:svg="http://www.w3.org/2000/svg"
   xmlns="http://www.w3.org/2000/svg"
   xmlns:sodipodi="http://sodipodi.sourceforge.net/DTD/sodipodi-0.dtd"
   xmlns:inkscape="http://www.inkscape.org/namespaces/inkscape"
   width="109.10675"
   height="44.506271"
   id="svg2"
   version="1.1"
   inkscape:version="0.48.5 r10040"
   sodipodi:docname="New document 1">
  <defs
     id="defs4">
    <clipPath
       clipPathUnits="userSpaceOnUse"
       id="clipPath460">
      <path
         inkscape:connector-curvature="0"
         d="m 550.975,254.477 87.488,0 0,35.553 -87.488,0 0,-35.553 z"
         id="path462" />
    </clipPath>
    <clipPath
       clipPathUnits="userSpaceOnUse"
       id="clipPath448">
      <path
         inkscape:connector-curvature="0"
         d="m 550.975,255.298 85.685,0 0,34.007 -85.685,0 0,-34.007 z"
         id="path450" />
    </clipPath>
  </defs>
  <sodipodi:namedview
     id="base"
     pagecolor="#ffffff"
     bordercolor="#666666"
     borderopacity="1.0"
     inkscape:pageopacity="0.0"
     inkscape:pageshadow="2"
     inkscape:zoom="1.979899"
     inkscape:cx="60.790024"
     inkscape:cy="4.9792048"
     inkscape:document-units="px"
     inkscape:current-layer="layer1"
     showgrid="false"
     fit-margin-top="1"
     fit-margin-left="1"
     fit-margin-right="1"
     fit-margin-bottom="1"
     inkscape:window-width="463"
     inkscape:window-height="405"
     inkscape:window-x="483"
     inkscape:window-y="301"
     inkscape:window-maximized="0" />
  <metadata
     id="metadata7">
    <rdf:RDF>
      <cc:Work
         rdf:about="">
        <dc:format>image/svg+xml</dc:format>
        <dc:type
           rdf:resource="http://purl.org/dc/dcmitype/StillImage" />
        <dc:title></dc:title>
      </cc:Work>
    </rdf:RDF>
  </metadata>
  <g
     inkscape:label="Layer 1"
     inkscape:groupmode="layer"
     id="layer1"
     transform="translate(-385.44663,-304.39476)">
    <g
       transform="matrix(1.25,0,0,-1.25,-302.2735,667.02601)"
       id="g444">
      <g
         id="g446"
         clip-path="url(#clipPath448)">
        <g
           id="g452"
           transform="translate(579.3291,284.583)">
          <path
             inkscape:connector-curvature="0"
             d="M 0,0 C -0.06,0.025 0,0.151 -0.101,0.1 -0.21,0.017 -0.21,-0.092 -0.201,-0.216 l 0.032,0 c 0.044,0.015 0.034,0.058 0.068,0.074 l 0.016,-0.016 c 0.043,-0.01 0.076,0.007 0.102,0.041 0.005,0.042 -0.009,0.075 -0.042,0.099 L 0,0 z m -0.327,-0.259 c 0.009,0.017 0.033,0.025 0.023,0.043 -0.014,0.007 -0.023,0.023 -0.043,0.015 l 0.02,-0.058 z m -0.344,-0.058 c 0.067,0 0.135,-0.093 0.185,0 0.008,0.017 -0.008,0.024 -0.018,0.041 -0.066,-0.017 -0.151,0.067 -0.167,-0.041 M 0.56,0.403 C 0.503,0.419 0.45,0.394 0.42,0.344 0.209,0.385 0.308,0.076 0.1,0.143 0.032,0.117 0.074,0.05 0.032,0.025 0.081,-0.034 0.183,-0.042 0.233,-0.018 0.35,-0.008 0.259,0.133 0.377,0.143 0.409,0.36 0.503,0.05 0.577,0.201 0.494,0.251 0.593,0.35 0.56,0.403 M 0.963,0.544 C 0.879,0.485 0.803,0.36 0.721,0.259 0.702,0.21 0.742,0.184 0.761,0.143 0.837,0.21 0.986,0.159 1.037,0.259 0.879,0.293 0.995,0.453 0.963,0.544 m -2.355,-0.963 c -0.084,-0.025 -0.084,-0.108 -0.116,-0.158 -0.159,-0.025 -0.126,-0.209 -0.241,-0.268 -0.137,0.099 -0.221,-0.118 -0.363,-0.06 0.009,-0.14 -0.126,-0.09 -0.201,-0.118 l 0,-0.14 0.034,0.042 c 0.008,0.167 0.176,0.007 0.243,0.057 l 0,0.041 c 0.058,0.019 0.14,0.06 0.183,0.06 l 0.043,0.042 c 0.025,-0.009 0.061,0.016 0.076,-0.027 0.034,0.052 0.082,0.061 0.125,0.085 0.034,0.094 0.16,0.152 0.236,0.217 -0.034,0.044 -0.019,0.119 0.04,0.127 0.025,0.05 -0.05,0.075 -0.059,0.1 m -5.543,-7.963 0.1,0 c 0.159,0.051 0.068,0.132 0.094,0.181 -0.11,-0.008 -0.187,-0.13 -0.194,-0.181 m 6.304,8.282 c -0.157,0.05 -0.166,-0.168 -0.316,-0.2 0.024,-0.01 0.058,-0.061 0.075,-0.017 0.176,-0.076 0.126,0.166 0.241,0.217 m -1.475,-7.988 c -0.047,0.019 -0.102,-0.026 -0.122,-0.042 0.037,-0.12 -0.118,-0.053 -0.085,-0.169 -0.109,0.068 -0.2,-0.025 -0.285,-0.083 -0.008,0.058 -0.125,-0.009 -0.182,0 -0.143,-0.009 -0.185,-0.04 -0.301,-0.031 -0.026,-0.026 -0.044,-0.054 -0.085,-0.047 l -0.087,0.023 c -0.057,-0.092 -0.098,-0.03 -0.164,-0.08 l -0.025,0.018 c -0.068,-0.076 -0.127,-0.134 -0.245,-0.085 -0.075,0 -0.047,-0.117 -0.133,-0.185 -0.117,0.016 -0.14,0.077 -0.247,0.111 -0.043,-0.034 -0.121,-0.06 -0.179,-0.043 l -0.019,0.016 c -0.049,-0.15 -0.184,0.009 -0.2,-0.133 l -0.043,-0.043 c -0.008,0.052 -0.05,0.101 -0.099,0.118 -0.077,-0.1 -0.176,0.033 -0.259,-0.041 -0.075,-0.025 -0.135,-0.101 -0.202,-0.133 l 0,0.032 c -0.201,0.034 -0.344,-0.168 -0.561,-0.032 -0.066,-0.111 -0.192,0.032 -0.242,-0.043 l -0.344,0.016 -0.043,-0.043 c -0.049,0.077 -0.083,-0.074 -0.14,0 l -0.101,-0.115 c -0.066,0.041 -0.126,0.11 -0.219,0.083 -0.083,-0.083 -0.066,-0.268 -0.217,-0.201 l -0.041,-0.042 c 0.006,0.025 -0.027,0.042 -0.042,0.059 -0.069,0.008 -0.091,-0.068 -0.142,-0.1 l -0.118,0.1 0.017,0.016 c -0.268,0.177 0.201,0.064 0.026,0.264 l 0,0.027 c 0.185,0.049 0.223,-0.257 0.459,0.078 0.175,-0.059 0.293,0.075 0.42,0.16 0.007,0.057 -0.009,0.116 0.057,0.116 0.093,0.025 0.058,-0.091 0.126,-0.102 l 0.059,0.086 c 0.058,-0.051 0.117,-0.193 0.203,-0.086 l 0.015,-0.014 c 0.057,0.049 0.16,0.049 0.183,0.141 0.084,-0.067 0.144,0.026 0.202,0.076 -0.017,0.059 0.025,0.059 0.058,0.084 0.034,-0.025 0.016,-0.076 0.059,-0.101 0.041,-0.017 0.059,0.017 0.082,0.042 l 0.016,-0.025 c 0.179,0.134 0.355,-0.017 0.487,0.159 0.11,-0.033 0.11,0.058 0.185,0.099 0,-0.041 0.05,-0.067 0.074,-0.099 l 0.042,0.041 c 0.07,0.026 0.201,0.043 0.262,0.058 0.065,0.075 0.183,0.026 0.24,0.126 0.127,-0.083 0.402,0.077 0.605,0.018 0.11,0.176 0.276,0.015 0.402,0.142 0.06,-0.017 0.175,0.092 0.218,0 0.372,0.227 0.449,0.065 0.727,-0.085 l -0.052,-0.106 z m -5.315,-0.876 c -0.032,0.058 0.051,0.032 0.06,0.074 -0.009,-0.042 0.083,-0.057 0.024,-0.1 -0.033,0.009 -0.066,-0.017 -0.084,0.026 m 0.017,-0.298 c -0.025,-0.009 -0.041,0.032 -0.034,0.059 l 0.034,0 0,-0.059 z m -0.065,0.405 0,0.041 0.044,-0.041 -0.044,0 z m 1.719,0.687 0.059,0.116 c 0.091,-0.085 -0.05,-0.125 -0.059,-0.217 -0.059,-0.077 -0.1,0 -0.159,-0.085 0.017,0.085 -0.084,0.117 -0.067,0.201 0.075,-0.009 0.15,-0.067 0.226,-0.015 m 0.274,0.243 c 0.07,0.024 0.049,-0.063 0.094,-0.094 0.023,-0.052 -0.028,-0.052 -0.004,-0.107 -0.038,0.035 -0.084,-0.01 -0.122,0.026 0.027,0.035 0.078,0.057 0.073,0.111 l -0.041,0.064 z M -7.739,-9.22 c -0.084,-0.042 -0.075,0.109 -0.143,0.159 0.033,0.025 0.075,0.017 0.118,0.017 0.034,-0.017 0.049,-0.058 0.083,-0.058 0.018,-0.06 -0.024,-0.085 -0.058,-0.118 m -2.29,-0.494 -0.025,0.024 -0.043,-0.041 c 0.051,0.049 -0.007,0.133 0.083,0.16 l -0.015,-0.143 z m -5.148,-2.404 c -0.051,0.052 -0.056,0.11 0.019,0.143 l -0.019,-0.143 z m -1.527,-0.704 -0.086,0.051 c 0.073,0.044 0.026,0.16 0.13,0.138 -0.024,-0.037 0.009,-0.083 0.014,-0.125 -0.038,0.003 -0.038,-0.046 -0.058,-0.064 m -1.526,-0.904 -0.103,0 c 0.042,0.076 -0.059,0.15 0.042,0.185 0,-0.043 0.051,-0.068 0.076,-0.102 -0.033,-0.015 -0.01,-0.058 -0.015,-0.083 m -1.954,-1.324 -0.076,0.103 c 0.05,0 0.083,-0.033 0.136,-0.026 -0.012,-0.033 -0.019,-0.058 -0.06,-0.077 m -1.548,-0.986 -0.035,0 0,0.058 0.06,-0.016 c -0.011,-0.018 -0.034,-0.025 -0.025,-0.042 m -0.909,-0.581 c -0.081,0.005 -0.2,-0.008 -0.252,0.024 0.008,0.018 0.027,0.011 0.05,0.008 -0.01,0.051 0.011,0.075 0.049,0.099 0.01,-0.025 0.044,-0.051 0.064,-0.024 0.032,0.065 0.064,0.016 0.113,0.022 0.039,-0.046 0.041,-0.099 -0.024,-0.129 m -1.577,-1.382 0,0.041 0.041,0 -0.041,-0.041 z m -0.171,-0.242 -0.099,0 c 0.043,0.075 -0.06,0.151 0.043,0.185 0,-0.042 0.049,-0.069 0.072,-0.102 -0.032,-0.015 -0.007,-0.058 -0.016,-0.083 m -0.074,-0.588 c -0.045,0.009 -0.027,0.039 -0.027,0.039 l 0.019,0.014 0.028,-0.038 c 0,0 0.03,-0.021 -0.02,-0.015 m -0.048,0.432 c -0.021,0.012 0,0.05 0,0.05 0,0 0.031,-0.029 0.04,-0.05 0.008,-0.02 -0.017,-0.012 -0.04,0 m -0.213,-0.207 c -0.033,0.066 0.05,0.034 0.057,0.083 0.018,0.009 0.027,-0.008 0.044,-0.024 l -0.101,-0.059 z m -1.62,-1.997 c -0.048,0.006 -0.029,0.036 -0.029,0.036 l 0.019,0.016 0.029,-0.041 c 0,0 0.027,-0.019 -0.019,-0.011 m -0.099,-0.62 -0.072,0.073 c 0.055,0.042 0.006,0.129 0.091,0.122 -0.014,-0.03 0.017,-0.066 0.023,-0.098 -0.03,-0.002 -0.028,-0.082 -0.042,-0.097 m -0.193,0.344 c -0.022,0.011 0,0.05 0,0.05 0,0 0.031,-0.029 0.04,-0.05 0.007,-0.021 -0.019,-0.012 -0.04,0 m -0.212,-0.475 c -0.006,0.017 0.009,0.025 0.027,0.042 -0.042,0.025 -0.052,0.059 -0.042,0.1 0.024,-0.006 0.066,0 0.058,0.033 -0.026,0.067 0.034,0.06 0.058,0.102 0.06,0 0.1,-0.035 0.085,-0.102 -0.059,-0.057 -0.127,-0.158 -0.186,-0.175 m -0.071,-0.204 -0.118,0.049 c 0.042,0.076 -0.059,0.15 0.042,0.184 0,-0.04 0.052,-0.066 0.076,-0.1 -0.034,-0.017 0.008,-0.107 0,-0.133 m -0.151,-0.241 c -0.033,0.066 0.051,0.034 0.058,0.083 0.019,0.01 0.026,-0.007 0.043,-0.024 l -0.101,-0.059 z m -0.831,-3.465 -0.1,0 c 0.041,0.077 -0.059,0.151 0.041,0.185 0,-0.043 0.05,-0.067 0.076,-0.101 -0.035,-0.018 -0.009,-0.058 -0.017,-0.084 m -0.17,-0.759 c -0.062,0.02 -0.091,0.038 -0.082,0.071 0.012,0.05 0.191,0.099 0.2,0.183 l 0.025,-0.016 c -0.072,-0.058 -0.054,-0.266 -0.143,-0.238 m -0.019,0.293 c 0.018,0.01 0.026,-0.007 0.043,-0.024 l -0.101,-0.058 c -0.035,0.067 0.05,0.032 0.058,0.082 m 0.143,0.099 c -0.01,-0.032 -0.018,-0.058 -0.06,-0.075 l -0.075,0.101 c 0.05,0 0.084,-0.033 0.135,-0.026 m -0.042,0.274 c -0.01,-0.034 -0.018,-0.059 -0.06,-0.075 l -0.075,0.099 c 0.051,0 0.083,-0.033 0.135,-0.024 m 17.324,19.736 c -0.017,-0.085 -0.013,-0.185 -0.089,-0.225 0,0.025 -0.009,0.048 0.018,0.058 l -0.041,0.04 c 0.044,0.054 0.089,0.076 0.112,0.127 m 0.636,0.501 0,-0.124 -0.173,0 c -0.123,0.174 0.123,-0.099 0.173,0.124 m 0.55,0.19 -0.054,-0.154 -0.005,0.146 c 0.024,-0.004 0.05,-0.016 0.059,0.008 m 0.863,0.746 c 0.159,-0.064 0.044,-0.133 -0.025,-0.188 -0.1,-0.035 -0.109,0.121 -0.159,0.154 0.066,0.086 0.161,-0.155 0.184,0.034 m 6.933,-3.634 c 0.028,0.242 -0.279,0.246 -0.37,0.42 -0.135,-0.041 -0.15,0.161 -0.285,0.06 -0.023,0.033 -0.066,0.068 -0.076,0.101 -0.05,0.007 -0.133,0.059 -0.166,-0.017 -0.075,0.06 -0.143,-0.026 -0.219,-0.042 l -0.042,0.102 c -0.073,0 -0.166,0.091 -0.241,0 -0.093,0.083 -0.026,-0.12 -0.136,-0.06 -0.049,-0.051 -0.148,-0.06 -0.141,-0.144 -0.066,0.345 -0.246,0.005 -0.438,0.065 -0.075,-0.069 -0.161,-0.163 -0.244,-0.203 -0.134,0.125 -0.276,0.011 -0.396,-0.021 -0.09,-0.16 -0.222,-0.062 -0.348,-0.086 -0.068,-0.049 -0.183,-0.082 -0.268,-0.107 -0.025,-0.222 -0.183,0.027 -0.274,-0.074 l -0.126,0.042 c -0.025,-0.05 -0.143,0 -0.102,-0.1 -0.116,-0.208 -0.196,0.001 -0.331,-0.023 -0.023,-0.17 -0.122,-0.067 -0.22,-0.151 -0.027,-0.022 -0.017,-0.034 0.05,-0.044 l -0.042,-0.085 c -0.048,0.085 -0.067,-0.073 -0.117,0 -0.169,0.019 -0.335,-0.099 -0.484,-0.099 0.007,-0.042 -0.019,-0.1 0.023,-0.134 -0.05,-0.092 -0.167,0 -0.199,-0.067 -0.053,-0.025 -0.06,0.042 -0.085,0.067 l -0.043,-0.042 c -0.015,0 -0.043,-0.009 -0.059,0.017 0,0.025 0,0.05 0.027,0.059 l -0.042,0.041 c -0.026,0.059 0.092,0.019 0.117,0.046 0.025,0.05 -0.032,0.05 -0.058,0.075 l -0.184,-0.137 c -0.125,0.154 -0.17,-0.194 -0.304,-0.17 l -0.026,0.101 c -0.032,-0.051 -0.096,-0.03 -0.104,-0.098 -0.066,-0.051 -0.089,0.005 -0.148,0.022 -0.095,-0.066 -0.09,-0.089 -0.123,-0.183 -0.068,-0.15 -0.218,0.094 -0.276,-0.099 -0.027,0 -0.05,0 -0.058,0.024 -0.033,-0.049 -0.117,-0.075 -0.082,-0.142 -0.111,-0.067 -0.188,-0.108 -0.302,-0.142 -0.034,0.016 -0.012,0.057 -0.018,0.084 0.006,0.025 0.033,0.016 0.056,0.016 l 0.124,0.173 c -0.032,-0.008 -0.136,-0.037 -0.168,-0.02 -0.05,-0.066 -0.188,-0.044 -0.181,-0.126 l -0.015,0.015 -0.078,-0.126 -0.039,0.167 c -0.069,0.035 -0.209,0 -0.285,-0.056 -0.1,0.032 -0.185,-0.136 -0.287,-0.102 l -0.032,-0.042 c -0.025,0 -0.051,-0.009 -0.066,0.017 l -0.077,-0.075 c -0.016,-0.008 -0.024,0.008 -0.039,0.017 0.039,0.024 0.015,0.083 0.015,0.115 -0.095,-0.014 -0.158,0.052 -0.199,0.126 l -0.035,-0.041 c -0.02,-0.008 -0.035,0.01 -0.042,0.017 -0.033,-0.075 -0.092,-0.017 -0.145,-0.017 -0.133,0.059 -0.231,0.125 -0.385,0.201 -0.2,-0.017 -0.2,0.193 -0.402,0.184 -0.023,0.059 -0.099,0.135 -0.073,0.202 l -0.042,0.033 c -0.059,0.118 -0.186,0.234 -0.186,0.343 l -0.032,0.042 c 0,0.026 -0.009,0.051 0.016,0.059 l -0.042,0.042 c 0.011,0.024 -0.017,0.067 0.026,0.084 -0.168,0.142 0.058,0.335 -0.043,0.477 0.034,0.091 0.01,0.201 0.101,0.259 0.035,0.075 0.035,0.176 0.118,0.226 0.058,0.101 0.126,0.2 0.184,0.301 0.184,0.076 0.201,0.235 0.3,0.378 0.161,0.024 0.236,0.168 0.278,0.3 0.098,-0.083 0.159,0.128 0.267,0.025 l 0.034,0.077 c 0.133,0.026 0.068,0.251 0.244,0.227 0.016,0.099 -0.1,0.149 -0.077,0.259 0.019,0.134 0.083,0.209 0.159,0.301 0.026,-0.007 0.068,0.018 0.077,-0.017 -0.027,-0.134 -0.093,-0.3 -0.101,-0.403 0.05,0 0.092,0 0.125,-0.023 0.009,0.115 0.16,0.1 0.16,0.225 0.091,0.034 0.115,0.051 0.159,0.134 0.057,0.026 0.057,-0.033 0.083,-0.06 0.083,0.06 0.075,0.127 0.142,0.186 0.184,-0.017 0.109,0.259 0.302,0.159 0.092,0.141 0.151,0.05 0.233,0.185 l 0.028,-0.026 c 0.015,0.065 0.116,0.076 0.116,0.159 0.058,-0.075 0.093,0.075 0.141,0 0.027,0.043 0.036,0.109 0.101,0.085 0.144,0.024 0.245,0.37 0.402,0.336 0,-0.196 0.251,0.373 0.419,0.165 0.049,0.075 0.151,0.092 0.168,0.159 0.054,0.15 0.143,0.102 0.236,0.102 0.083,0.05 0.224,0.05 0.224,0.182 0.026,-0.008 0.067,0.019 0.075,-0.024 l 0.042,0.043 c 0.017,0.091 0.069,0.383 0.203,0.142 l 0.024,-0.017 c 0.042,0.033 0.117,0.041 0.117,0.117 l 0.016,-0.017 c 0.059,0.117 0.088,0.412 0.202,0.117 0.014,-0.037 0.073,-0.008 0.101,0.002 0,-10e-4 0,-10e-4 0,-0.002 0.125,0.01 0.225,0.134 0.327,0.143 0.083,0.049 0.116,0.108 0.201,0.175 0.101,-0.068 0.124,0.177 0.244,0.019 0.105,0.087 0.193,0.238 0.357,0.166 0.028,0.229 0.091,0.126 0.202,0.1 -0.035,0.058 0.076,0.11 -0.025,0.143 0.093,-0.016 0.194,0.049 0.283,0.075 0.026,0.101 -0.107,0.033 -0.099,0.125 -0.032,0.009 -0.059,-0.015 -0.083,-0.042 -0.101,0.018 -0.187,-0.109 -0.301,-0.116 0.023,-0.1 -0.109,-0.041 -0.135,-0.108 -0.05,-0.025 -0.099,-0.019 -0.134,0.007 -0.057,-0.067 -0.049,-0.11 -0.098,-0.204 l -0.104,0.104 -0.051,-0.025 c -0.041,0.009 -0.082,-0.03 -0.223,-0.055 0.228,-0.147 -0.107,-0.027 -0.073,-0.212 -0.05,-0.026 -0.139,0.125 -0.188,0.107 -0.102,-0.023 -0.042,-0.149 -0.027,-0.224 -0.042,0.029 -0.224,0.016 -0.18,0.117 -0.085,0.032 -0.143,-0.015 -0.17,-0.097 -0.134,0.024 -0.098,-0.159 -0.23,-0.053 C -6.437,-2.863 -6.5,-3 -6.526,-2.905 -6.544,-2.852 -6.609,-3.005 -6.64,-3.089 -6.677,-3.19 -6.849,-3.216 -6.939,-3.185 -7,-3.166 -7.034,-3.301 -7.132,-3.246 -7.131,-3.291 -7.077,-3.403 -7.201,-3.36 -7.245,-3.396 -7.303,-3.43 -7.356,-3.47 -7.55,-3.277 -7.548,-3.886 -7.739,-3.593 l -0.035,-0.094 c -0.068,0.059 -0.075,-0.006 -0.133,-0.03 -0.125,0.057 -0.101,-0.134 -0.218,-0.102 -0.031,-0.178 -0.275,-0.016 -0.386,-0.117 l 0.069,-0.056 c 0,-0.078 -0.009,-0.161 -0.069,-0.187 l -0.03,0.042 c -0.046,0.009 -0.069,0.067 -0.102,0 -0.026,0.033 -0.085,0.05 -0.067,0.101 -0.102,0.034 -0.143,-0.143 -0.234,-0.083 l -0.027,-0.219 c -0.075,0.018 -0.056,-0.075 -0.117,-0.1 -0.268,0.175 -0.109,-0.176 -0.326,-0.202 -0.059,0 -0.124,0.093 -0.176,0 0,-0.131 -0.177,-0.082 -0.225,-0.125 -0.111,0.018 -0.185,-0.092 -0.236,-0.16 0.009,-0.041 -0.017,-0.091 0.017,-0.116 -0.067,-0.093 -0.2,0.008 -0.301,-0.059 l -0.018,-0.168 c -0.057,-0.016 -0.109,-0.1 -0.168,-0.034 l -0.032,-0.041 c -0.023,0 -0.051,-0.009 -0.067,0.018 -0.067,-0.076 -0.124,-0.11 -0.157,-0.202 l -0.02,0.025 c -0.149,-0.1 -0.166,-0.269 -0.325,-0.342 -0.026,-0.077 -0.059,-0.153 -0.134,-0.185 l -0.026,0.024 c -0.241,-0.057 -0.05,-0.368 -0.319,-0.401 -0.033,-0.05 -0.033,-0.144 0.018,-0.185 0.102,0.093 0.134,0.244 0.284,0.185 -0.024,-0.026 -0.084,-0.034 -0.057,-0.085 -0.058,-0.04 -0.027,-0.15 -0.125,-0.142 l 0,-0.042 -0.102,-0.01 -0.033,-0.048 -0.042,-0.041 c -0.159,-0.075 -0.008,-0.193 -0.026,-0.32 -0.232,-0.124 0.124,-0.319 -0.099,-0.418 0.05,-0.024 0.042,-0.075 0.042,-0.126 0.107,-0.108 0.117,-0.251 0.181,-0.377 0.153,0.017 0.085,-0.159 0.161,-0.226 -0.076,-0.05 0.076,-0.083 0,-0.141 0.026,-0.034 0.092,-0.059 0.076,-0.117 l 0.083,0 c 0.066,-0.085 0.149,-0.186 0.143,-0.285 0.091,-0.093 0.109,-0.126 0.242,-0.133 0.05,-0.052 0.042,-0.144 0.101,-0.169 l 0.033,0.042 0.226,-0.176 -0.026,-0.025 c -0.006,-0.033 0.026,-0.058 0.043,-0.076 -0.066,-0.041 -0.126,-0.108 -0.217,-0.083 -0.076,-0.017 -0.076,-0.101 -0.082,-0.16 -0.078,-0.15 -0.146,0.042 -0.245,0.017 -0.117,-0.034 -0.166,-0.16 -0.202,-0.26 -0.024,-0.024 -0.075,-0.024 -0.099,0.017 -0.101,-0.058 -0.184,-0.041 -0.293,-0.017 -0.06,-0.117 0.027,-0.316 -0.268,-0.259 -0.099,-0.017 -0.032,-0.142 -0.134,-0.184 -0.076,0.091 -0.142,-0.143 -0.202,0.025 0.068,0.009 0.06,0.084 0.06,0.134 l -0.06,-0.017 c -0.084,-0.084 -0.126,-0.167 -0.268,-0.183 0.078,-0.358 -0.167,-0.041 -0.218,-0.201 -0.052,0.104 -0.091,0.016 -0.141,0.082 -0.058,-0.033 -0.176,-0.242 -0.243,-0.084 -0.026,-0.282 -0.14,0.005 -0.177,-0.117 -0.036,-0.115 -0.133,-0.217 -0.243,-0.283 -0.024,0.066 0,0.139 -0.006,0.196 -0.034,-0.015 -0.087,-0.077 -0.121,-0.085 0.018,-0.176 -0.052,-0.143 -0.136,-0.259 0,0 0.027,0.155 -0.081,0.189 -0.104,0.033 -0.065,-0.086 -0.117,-0.1 0.06,-0.126 0.089,-0.268 -0.047,-0.399 -0.351,0.026 0.049,0.057 -0.092,0.224 l -0.057,-0.005 c 0.016,-0.126 -0.079,0.037 -0.062,-0.081 -0.076,0 0,0.043 -0.042,0.06 l -0.042,-0.043 c -0.202,0.135 -0.16,-0.133 -0.217,-0.217 -0.008,0.084 -0.118,0.049 -0.145,0.06 0,-0.043 -0.013,-0.146 -0.048,-0.173 -0.118,0.035 -0.145,-0.034 -0.24,-0.109 -0.083,0 -0.102,0.122 -0.171,0.138 -0.05,0 -0.043,-0.146 -0.067,-0.17 -0.027,0.024 -0.067,0.178 -0.116,0.154 -0.008,-0.009 -0.027,-0.025 -0.02,-0.042 0,-0.093 -0.085,-0.185 -0.168,-0.102 -0.03,-0.209 -0.308,-0.209 -0.273,-0.434 -0.22,-0.143 -0.008,0.142 -0.083,0.176 -0.126,-0.034 -0.077,-0.176 -0.12,-0.26 -0.032,-0.008 -0.04,0.026 -0.056,0.043 -0.025,-0.017 -0.025,-0.043 -0.025,-0.061 -0.134,0.01 -0.127,-0.175 -0.278,-0.165 -0.032,-0.025 -0.032,-0.094 0.017,-0.118 -0.017,-0.076 -0.042,-0.142 -0.084,-0.202 -0.058,-0.017 -0.109,-0.116 -0.175,-0.058 0.016,0.067 -0.017,0.218 0.074,0.201 0,0.05 0.02,0.133 -0.058,0.142 0,0.016 0.039,0.035 0.062,0.052 0.067,0.017 0.062,0.147 0.156,0.091 0.084,0.009 0.052,0.081 0.036,0.14 -0.085,-0.023 -0.084,-0.03 -0.151,-0.065 -0.009,0.068 -0.077,-0.052 -0.11,-0.019 -0.117,-0.018 -0.089,-0.139 -0.067,-0.205 -0.065,-0.169 -0.219,-0.203 -0.269,-0.379 0,0 -0.108,0.168 -0.196,0.143 -0.089,-0.029 0.11,-0.192 -0.037,-0.142 -0.084,0.03 -0.133,0.05 -0.133,0.05 -0.01,-0.133 -0.095,0.041 -0.095,-0.051 -0.016,0.033 -0.067,0.007 -0.101,0.017 -0.099,-0.11 -0.351,-0.16 -0.3,-0.319 l 0.099,0 0,0.042 c 0.02,0.035 0.053,0.009 0.084,0.018 0.01,-0.044 0.153,-0.114 0.138,-0.164 -0.144,0.05 -0.263,-0.171 -0.422,-0.079 -0.009,0.034 0.025,0.042 0.043,0.066 -0.094,0.151 -0.243,-0.066 -0.361,0 -0.025,-0.032 -0.085,-0.049 -0.058,-0.101 -0.053,-0.009 -0.095,-0.084 -0.126,0 -0.102,0.017 -0.159,0.017 -0.243,-0.067 -0.026,-0.05 -0.109,-0.141 -0.201,-0.133 -0.008,-0.034 0.034,-0.042 0.042,-0.067 -0.008,-0.084 -0.05,-0.118 -0.118,-0.16 0.019,-0.05 -0.007,-0.108 0.059,-0.142 -0.05,-0.042 0.017,-0.143 -0.059,-0.175 -0.034,0.007 -0.066,-0.016 -0.084,0.017 l -0.043,-0.042 c -0.033,0.009 -0.055,-0.076 -0.098,-0.018 -0.06,-0.084 -0.152,-0.134 -0.235,-0.084 -0.118,0.084 0.083,0.094 0.099,0.144 -0.05,0.158 0.124,0.066 0.109,0.208 l 0.053,0.011 c 0.06,0.034 0.072,0.081 0.057,0.123 -0.094,0.041 -0.193,-0.042 -0.261,-0.117 0.035,-0.151 -0.167,-0.159 -0.183,-0.267 -0.068,0.083 -0.083,-0.068 -0.157,-0.018 -0.011,-0.067 -0.06,-0.134 -0.119,-0.158 l 0.075,-0.084 c -0.026,-0.06 -0.026,-0.143 -0.059,-0.201 l -0.099,0.025 c -0.066,-0.076 -0.233,-0.163 -0.198,-0.255 -0.052,0.067 -0.124,0.134 -0.147,0.23 -0.051,0.049 -0.117,0.076 -0.173,0.025 0.033,-0.213 -0.337,-0.226 -0.303,-0.469 -0.009,-0.118 -0.234,-0.216 -0.284,-0.284 -0.009,0.058 -0.085,0.204 -0.137,0.204 -0.135,-0.116 -0.287,-0.089 -0.295,-0.298 0,0 -0.013,0.088 -0.059,0.094 -0.047,0.011 -0.095,-0.096 -0.095,-0.096 -0.002,-0.086 0.074,-0.029 0.105,-0.078 -0.023,-0.117 -0.096,-0.162 -0.13,-0.27 l -0.063,0.113 c 0.13,0.072 0.018,0.105 0.012,0.154 -0.051,0.007 -0.084,-0.017 -0.126,-0.042 0,-0.151 -0.167,-0.16 -0.259,-0.234 0.013,-0.051 0.002,-0.196 -0.114,-0.169 0.04,-0.128 0.011,-0.191 -0.13,-0.217 0.016,-0.092 -0.119,-0.067 -0.102,-0.158 -0.117,0.066 -0.059,-0.109 -0.158,-0.143 -0.041,-0.05 -0.094,-0.011 -0.117,0.017 -0.025,0.118 0.109,0.025 0.141,0.1 -0.024,0.092 0.104,0.117 0.017,0.201 -0.082,0.017 -0.074,-0.075 -0.098,-0.118 -0.144,0 -0.203,-0.065 -0.304,-0.14 0.05,-0.211 -0.242,-0.085 -0.216,-0.262 -0.06,-0.116 -0.125,-0.023 -0.201,-0.083 l 0,-0.033 c 0.123,-0.195 -0.023,-0.489 -0.129,-0.494 -0.111,-0.008 -0.031,0.193 -0.073,0.268 -0.1,0.026 -0.051,-0.11 -0.125,-0.118 -0.069,-0.025 -0.054,-0.423 -0.24,-0.15 -0.1,-0.1 -0.163,-0.11 -0.279,-0.151 0.008,-0.117 -0.055,-0.153 -0.088,-0.238 -0.066,-0.025 -0.059,-0.198 -0.158,-0.114 -0.039,-0.011 -0.08,-0.034 -0.08,-0.074 0,0 0.04,0.022 0.08,-0.031 0.084,-0.199 -0.181,-0.128 -0.282,-0.247 0.057,-0.074 0.082,-0.125 0.075,-0.203 -0.042,-0.111 -0.143,-0.131 -0.209,-0.081 l 0,0.04 c -0.084,0.018 -0.124,-0.015 -0.166,-0.082 -0.177,0.058 10e-4,-0.264 -0.171,-0.275 -0.069,10e-4 -0.089,0.058 -0.089,0.058 -0.034,-0.043 -0.121,-0.152 -0.096,-0.283 -0.155,0.081 -0.181,-0.053 -0.282,-0.119 -0.066,-0.068 -0.035,-0.325 -0.086,-0.418 -0.058,-0.025 -0.073,0.175 -0.1,0.198 -0.099,-0.016 -0.099,-0.133 -0.181,-0.167 0.207,-0.277 -0.187,-0.129 -0.149,-0.388 -0.202,-0.034 0.309,-0.394 -0.313,-0.248 -0.008,-0.05 -0.051,-0.133 0.025,-0.168 -0.042,-0.008 -0.017,-0.05 -0.025,-0.076 -0.051,-0.015 -0.101,-0.09 -0.143,-0.058 -0.083,-0.049 0.054,-0.168 0.024,-0.243 -0.019,-0.008 -0.174,-0.032 -0.2,-0.023 -0.007,-0.068 -0.218,-0.143 -0.083,-0.235 l -0.142,-0.025 c -0.042,-0.058 -0.101,-0.134 -0.118,-0.219 -0.108,-0.041 -0.033,-0.208 -0.143,-0.242 0.077,-0.05 0.035,-0.152 0.103,-0.201 -0.076,-0.109 -0.171,-0.258 -0.278,-0.101 -0.069,-0.052 -0.1,-0.108 -0.127,-0.183 0,-0.043 0.031,-0.166 0.115,-0.191 -0.251,-0.085 -0.156,-0.153 -0.273,-0.17 l 0,-0.041 c -0.024,-0.043 0,-0.135 -0.085,-0.135 0,-0.066 0.061,-0.157 0.085,-0.207 0.026,-0.105 -0.117,-0.194 -0.201,-0.221 0.009,-0.024 -0.017,-0.067 0.018,-0.074 l 0.043,0.034 c 0.098,-0.136 -0.145,-0.017 -0.078,-0.16 0.017,0 0.043,0.009 0.058,-0.017 -0.007,-0.033 0.02,-0.067 -0.023,-0.083 l -0.035,0.058 c -0.007,-0.034 -0.075,-0.076 -0.025,-0.117 l 0.033,0.02 0.027,-0.003 c 0.016,-0.05 -0.027,-0.076 -0.035,-0.117 -0.117,0.032 -0.1,-0.126 -0.182,-0.142 0.016,-0.084 -0.102,-0.058 -0.061,-0.159 -0.15,-0.052 -0.133,-0.211 -0.159,-0.319 0.034,-0.025 0.103,-0.034 0.075,-0.101 -0.007,-0.025 -0.033,-0.025 -0.058,-0.025 -0.04,-0.092 0.067,-0.066 0.101,-0.101 -0.034,-0.108 0.091,-0.246 -0.131,-0.339 -0.009,-0.267 0.092,-0.475 -0.041,-0.701 0.192,0.005 -0.075,-0.238 0.181,-0.326 -0.05,-0.042 -0.024,-0.158 -0.127,-0.158 -0.009,-0.209 0.022,-0.467 0.196,-0.618 -0.142,-0.065 0.082,-0.06 0.082,-0.171 0.042,-0.124 -0.072,-0.273 0.03,-0.374 0.033,-0.016 0.081,0.006 0.104,0.033 0.034,-0.068 0.131,-0.148 0.098,-0.234 -0.013,-0.015 -0.024,-0.023 -0.055,-0.029 -0.025,-0.059 -0.027,-0.097 -0.018,-0.139 0.107,0.007 0.117,-0.084 0.224,-0.075 0.043,-0.034 0.069,-0.084 0.061,-0.142 0.193,-0.11 -0.023,-0.305 0.183,-0.421 0.089,-0.049 0.016,-0.099 0.035,-0.166 -0.019,-0.11 0.165,-0.034 0.175,-0.126 0.017,-0.178 0.386,-0.03 0.31,-0.294 0.05,-0.015 0.083,0.026 0.115,0.043 0.111,0.142 -0.121,0.179 -0.13,0.23 -0.2,-0.134 -0.003,0.11 -0.08,0.135 l -0.043,0.028 c -0.022,0.025 -0.013,-0.058 -0.047,-0.093 -0.05,-0.023 -0.066,0.042 -0.101,0.059 0.135,0.052 0.018,0.211 0.024,0.287 l -0.083,0.074 c 0.042,0.11 0.002,0.138 -0.055,0.23 -0.11,-0.059 -0.104,0.135 -0.195,0.118 -0.009,0.017 0.041,0.022 0.05,0.038 0.025,0.007 0.051,0.05 0.041,0.1 -0.091,0.076 -0.075,0.167 -0.116,0.259 l 0.016,0.018 c -0.084,0.117 -0.075,0.267 -0.201,0.367 0.01,0.084 0.075,0.167 0.017,0.261 -0.007,0.066 -0.184,0.141 -0.033,0.2 0,0.066 -0.008,0.117 -0.069,0.159 0.051,0.143 0,0.219 -0.015,0.361 0.076,0.201 0.024,0.326 0.042,0.528 l 0.016,0 c 0.052,0.066 0,0.159 -0.043,0.218 l 0.069,0.041 c 0.076,0.108 -0.084,0.251 0.057,0.317 0.019,0.077 0.009,0.135 -0.057,0.186 0,0 -0.034,0.057 -0.026,0.1 0.168,0.025 0.083,0.252 0.2,0.318 -0.032,0.235 0.285,0.338 0.15,0.635 0.161,0.046 0.079,0.295 0.295,0.329 -0.016,0.125 0.118,0.184 0.101,0.301 0.159,0.117 -0.066,0.087 -0.059,0.201 0.009,0.113 0.218,0.183 0.218,0.183 0,0.118 0.183,0.084 0.158,0.218 0.143,0.076 0.135,0.277 0.285,0.327 -0.023,0.108 0.069,0.134 0.116,0.201 0.044,0.125 0.135,0.192 0.187,0.301 0.024,0.193 0.29,0.283 0.174,0.482 0.207,-0.018 0.209,0.205 0.386,0.28 -0.025,0.168 0.109,0.296 0.084,0.464 0.066,0.092 0.238,0.108 0.338,0.2 0.109,0.027 0.071,0.233 0.251,0.198 0,0.206 0.081,0.311 0.291,0.386 0.025,0.143 0.199,0.126 0.199,0.277 0.187,0.101 0.321,0.209 0.387,0.402 0.125,-0.033 0.082,0.143 0.183,0.143 0,0.025 -0.023,0.066 0.017,0.083 0.152,-0.068 0.185,0.109 0.285,0.158 l 0,0.061 c -0.008,0.034 0.026,0.049 0.06,0.04 0.073,0.075 0.199,0.134 0.242,0.218 0.101,0 0.025,0.16 0.159,0.101 0.018,0.025 0.05,0.041 0.041,0.084 0.026,0.034 0.076,0.15 0.135,0.083 0.124,0.168 0.343,0.243 0.401,0.435 0.153,-0.058 0.209,0.118 0.329,0.168 0.032,0.051 -0.036,0.184 0.074,0.177 0.043,0.074 0.201,0.033 0.141,0.159 0.069,0.067 0.152,0.067 0.227,0.125 0.05,-0.058 0.1,0.008 0.159,0.018 0.025,0.14 0.185,0.134 0.26,0.241 l 0.017,-0.016 0.067,0.057 c 0.075,0.118 0.2,0.244 0.276,0.361 0.075,0.026 0.124,0.151 0.2,0.102 l -0.016,-0.017 c -0.009,-0.033 0.025,-0.042 0.043,-0.067 0.041,0.04 0.101,0.079 0.101,0.135 0.018,0.01 0.056,0.015 0.075,0.006 -0.009,0.084 0.082,0.152 0.139,0.059 0.153,0.1 0.295,0.244 0.462,0.303 l 0.026,-0.019 c 0.026,-0.007 0.034,0.026 0.059,0.042 -0.025,0.135 0.135,0.059 0.143,0.16 0.076,0.075 0.175,0.093 0.217,0.184 0.05,0.117 0.234,0.091 0.244,0.235 0.025,0.026 0.025,0.092 0.075,0.067 0.05,-0.009 0.125,-0.076 0.168,0 0.014,0 0.042,0 0.057,-0.025 l 0.076,0.084 c 0.084,0.108 0.241,0.158 0.241,0.343 0.11,0.026 0.086,-0.142 0.203,-0.084 0.017,0.16 0.233,0.15 0.325,0.201 -0.041,0.025 -0.05,0.058 -0.041,0.1 0.041,0.026 0.11,0 0.159,-0.017 0.059,0.151 0.167,-0.016 0.218,0.135 0.1,-0.009 0.2,0.091 0.301,0.141 0.042,0.127 0.225,0.076 0.303,0.185 0.047,0.183 0.307,0.05 0.368,0.259 0.051,-0.082 0.066,0.084 0.117,0 0.2,0.126 0.191,0.271 0.506,0.363 0.32,0.093 0.181,0.11 0.332,0.286 0.281,-0.155 0.07,0.384 0.567,0.24 0.07,0.058 0.136,0 0.161,0.117 0.024,0.252 0.1,-0.069 0.184,0 -0.024,0.1 0.085,0.033 0.115,0.084 -0.007,0.15 0.186,0.026 0.286,0.117 0.018,0.126 0.236,0.092 0.202,0.26 0.042,-0.041 0.15,-0.018 0.142,0.057 0,-0.083 0.102,-0.042 0.134,-0.075 0.126,0.11 0.335,0.092 0.369,0.277 l 0.033,-0.058 c 0.143,-0.025 0.168,0.135 0.243,0.199 0.1,-0.015 0.1,-0.033 0.202,0 0.024,0.118 0.125,0.027 0.184,0.044 l -0.083,0.057 c 0.066,0.026 0.15,0 0.226,-0.017 0.117,0.01 0.05,0.135 0.157,0.178 0.018,0 0.044,0.006 0.059,-0.017 0,0 -0.031,0.13 0.105,0.142 0.135,0.013 0.24,0.135 0.24,0.135 0.016,0 0.04,0.007 0.058,-0.018 0,-0.025 0.007,-0.05 -0.018,-0.059 0.042,0 0.186,0.115 0.217,0.056 0,0 -0.018,0.147 0.072,0.141 0.091,-0.006 0.089,-0.079 0.089,-0.079 l 0.101,0.126 c 0.083,-0.02 0.133,0 0.242,0 0.085,0.058 0.159,0.132 0.259,0.158 l 0.016,-0.026 c 0.069,0.119 0.192,-0.057 0.228,0.084 -0.018,0.11 0.107,0.05 0.141,0.119 0.119,-0.069 0.134,0.092 0.235,0.125 0.117,-0.05 0.167,0.06 0.259,0.067 0.118,0.093 0.202,0.126 0.327,0.191 l 0.043,-0.098 0.176,0.183 c 0.005,0.042 -0.007,0.152 0.043,0.177 l 0.05,-0.04 c 0.008,-0.016 -0.045,-0.07 -0.007,-0.064 l 0.103,-0.126 c 0.053,0.037 -0.021,0.22 0.11,0.212 0.019,-0.018 0.037,-0.025 0.027,-0.043 0.084,-0.007 0.202,-0.074 0.26,-0.015 0.173,-0.075 0.225,0.234 0.402,0.1 0.117,-0.175 0.117,0.066 0.217,0.075 0.043,-0.017 0.017,-0.067 0.023,-0.1 l 0.104,0 c 0.108,0.177 0.193,-0.075 0.3,-0.075 0.05,0.083 0.134,0 0.202,0 0.158,-0.143 0.266,0.2 0.377,0.015 0.049,0 0.118,-0.057 0.141,0.018 0.018,-0.025 0.041,-0.018 0.059,-0.018 0.034,0.035 0.076,0.068 0.084,0.102 0.042,0.008 0.084,0.074 0.118,0.017 0.024,-0.051 -0.034,-0.051 -0.059,-0.076 0.067,-0.05 0.152,-0.076 0.243,-0.058 0.125,0 0.006,0.141 0.099,0.175 0.026,0 0.05,0.008 0.06,-0.017 0.006,-0.041 -0.01,-0.066 -0.016,-0.1 0.115,-0.201 0.266,0.025 0.4,0.042 0.059,0 0.134,-0.092 0.176,0 0.176,-0.109 0.353,0.008 0.485,0.117 0,-0.059 0.067,-0.051 0.101,-0.083 0.094,-0.034 0.276,-0.009 0.345,0.125 l 0.015,-0.025 -0.015,-0.017 c 0.033,-0.034 0.065,-0.083 0.115,-0.059 l 0,0.042 c 0.069,0.101 0.161,0.026 0.244,0.017 0.092,0.042 0.166,0.059 0.242,0.084 l 0.042,0.034 c 0.068,-0.01 0.151,-0.051 0.175,-0.118 l 0.042,0.042 c 0.126,-0.007 0.32,0.009 0.42,0.059 0.167,-0.05 0.207,0.249 0.386,0.117 0.167,-0.11 0.24,0.218 0.484,0.084 0.11,-0.034 0.219,0.193 0.32,0.142 0.057,0.069 0.309,-0.194 0.254,0.192 0.051,-0.076 0.165,0.073 0.147,-0.15 0.092,0.021 0.117,0.092 0.184,0.134 l 0.034,-0.032 c 0.216,0.182 0.38,0.164 0.608,0.333 l 0.124,0.236 c 0.018,0.153 0.009,0.215 -0.041,0.314 l -0.095,0.218 z m 0.736,7.272 c 0.024,0.008 0.065,-0.016 0.075,0.025 0.025,0.084 -0.066,0.042 -0.101,0.075 -0.033,-0.025 -0.007,-0.075 0.026,-0.1 M 3.59,1.566 C 3.433,1.641 3.531,1.408 3.415,1.366 3.415,1.459 3.29,1.399 3.29,1.491 3.206,1.44 3.223,1.356 3.188,1.29 3.155,1.317 3.071,1.333 3.048,1.264 2.987,1.348 2.861,1.356 2.786,1.348 2.786,1.298 2.771,1.24 2.712,1.232 L 2.671,1.264 C 2.646,1.248 2.627,1.214 2.586,1.232 2.586,1.208 2.596,1.181 2.569,1.164 L 2.528,1.208 C 2.387,1.24 2.436,1.088 2.368,1.03 2.318,1.005 2.311,1.064 2.283,1.088 2.168,1.064 2.268,0.824 1.915,0.944 1.739,0.844 1.624,0.795 1.506,0.645 1.474,0.478 1.306,0.645 1.223,0.502 1.196,0.411 1.255,0.411 1.322,0.385 1.447,0.561 1.568,0.49 1.721,0.606 1.745,0.741 1.907,0.697 2.026,0.751 2.29,0.674 2.239,0.963 2.407,0.83 2.519,0.872 2.444,0.947 2.544,0.947 2.653,0.963 2.786,0.988 2.87,1.005 2.938,1.256 3.223,0.93 3.231,1.208 3.256,1.172 3.313,1.197 3.35,1.189 3.356,1.214 3.331,1.256 3.374,1.264 3.39,1.232 3.423,1.256 3.448,1.248 c 0.1,-0.076 0.1,0.108 0.185,0.1 C 3.685,1.591 3.901,1.29 3.975,1.491 4.034,1.433 4.067,1.566 4.135,1.548 4.151,1.617 4.018,1.658 4.144,1.72 4.195,1.746 4.067,1.802 4.018,1.793 3.926,1.668 3.759,1.608 3.59,1.566 m -4.738,-1.883 c -0.05,-0.068 -0.05,-0.16 0,-0.227 0.025,0.067 0.117,0.043 0.075,0.125 0.015,0.051 -0.042,0.085 -0.075,0.102 m -1.868,-1.031 c -0.059,0.034 -0.01,0.06 -0.041,0.085 -0.025,-0.051 -0.076,-0.035 -0.126,-0.042 -0.035,-0.027 -0.06,-0.077 -0.035,-0.102 0.075,-0.067 0.136,0.042 0.202,0.059 M -20.05,-14.549 c 0.069,0.068 0.01,0.17 -0.049,0.179 -0.037,-0.026 -0.018,-0.083 -0.009,-0.107 l 0.058,-0.072 z m -5.818,-14.528 c -0.11,-0.007 -0.086,0.145 -0.163,0.121 -0.006,-0.017 -0.031,-0.063 0,-0.081 0.041,-0.068 0.097,-0.121 0.184,-0.12 0.091,0 0.047,0.073 -0.021,0.08 m -0.286,0.277 c -0.118,-0.058 -0.092,0.117 -0.202,0.084 -0.007,-0.024 -0.058,-0.058 -0.017,-0.084 0.06,-0.1 0.127,-0.201 0.244,-0.16 0.15,0.052 -0.025,0.093 -0.025,0.16 m -0.504,0.486 c -0.066,-0.058 -0.024,-0.159 -0.059,-0.226 0.042,-0.033 0,-0.158 0.102,-0.118 0.015,-0.016 0.012,-0.036 0.043,-0.058 0.022,-0.021 0.107,-0.058 0.141,0.018 0.068,0.074 0,0.125 -0.025,0.199 -0.125,0.036 -0.067,0.135 -0.202,0.185 m 22.47,26.346 c -0.034,-0.05 0.042,-0.108 0.067,-0.16 l 0.219,0.143 c -0.061,0.093 -0.135,-0.016 -0.219,0.017 -0.016,0.051 -0.093,0.1 -0.067,0.142 -0.026,-0.008 -0.051,-0.016 -0.077,-0.042 -0.023,-0.075 0.06,-0.042 0.077,-0.1 m 1.691,0.923 0,-0.043 c 0.025,0 0.051,0 0.058,0.024 -0.007,0.027 -0.033,0.019 -0.058,0.019 m -0.904,-0.662 0.016,-0.018 c 0.05,0.075 0.228,0.066 0.184,0.176 -0.083,0.084 -0.134,-0.059 -0.216,-0.034 -0.008,-0.067 -0.118,-0.083 -0.084,-0.167 0.041,0 0.076,0.008 0.1,0.043 m 0.904,0.484 c -0.05,0 -0.067,0.076 -0.117,0.076 -0.041,-0.051 -0.102,-0.051 -0.102,-0.116 -0.049,0.065 -0.091,-0.085 -0.141,0 l -0.082,-0.085 c -0.034,-0.067 0.057,-0.083 0.057,-0.134 0.166,0.033 0.218,0.226 0.385,0.259 m -1.364,-0.628 c 0.067,0.085 0.192,0.126 0.201,0.243 -0.018,0.059 -0.111,0.043 -0.084,-0.016 -0.034,0 -0.069,-0.083 -0.101,-0.042 -0.051,0.016 -0.076,-0.033 -0.118,-0.041 0.034,-0.043 0.009,-0.153 0.102,-0.144 m 17.346,6.14 c -0.084,-0.043 -0.074,0.109 -0.139,0.158 0.032,0.025 0.073,0.018 0.115,0.018 0.034,-0.018 0.052,-0.06 0.084,-0.06 C 13.563,4.347 13.52,4.322 13.485,4.289 M 12.591,4.115 c -0.101,0.037 -0.01,0.163 -0.026,0.218 0.106,0.027 0.026,-0.22 0.162,-0.087 0.081,-0.15 -0.049,-0.13 -0.136,-0.131 m -0.76,-0.037 c 0.034,0.035 -0.092,0.06 -0.074,0.101 L 11.89,4.162 C 11.865,4.138 11.865,4.104 11.831,4.078 M 11.53,4.104 11.59,4.046 C 11.621,4.029 11.506,4.054 11.53,4.104 M 10.711,3.743 10.65,3.719 10.727,3.878 10.711,3.743 z m -0.383,-0.014 -0.095,0.13 c 0.038,0.021 0.078,-0.018 0.095,-0.057 l 0,-0.073 z M 7.593,2.957 C 7.57,2.998 7.486,2.938 7.511,3.015 l 0.082,0 0,-0.058 z M 7.409,2.873 C 7.36,2.865 7.285,2.889 7.294,2.938 l 0.115,-0.023 0,-0.042 z M 5.887,2.438 C 5.859,2.47 5.919,2.521 5.944,2.47 5.91,2.478 5.902,2.445 5.887,2.438 M 19.511,2.169 c 0.008,0.108 -0.068,0.158 0.016,0.245 -0.023,0.064 -0.008,0.182 -0.118,0.182 0.011,0.027 -0.015,0.067 0.021,0.076 -0.028,0.117 -0.036,0.243 -0.16,0.3 0.042,0.211 -0.217,0.237 -0.217,0.428 0.074,0.083 -0.104,0.109 -0.084,0.177 -0.02,0.166 -0.187,0.176 -0.304,0.225 -0.009,0.017 -0.05,0.024 -0.041,0.058 -0.018,0 -0.04,-0.008 -0.061,0.018 0.01,0.032 -0.013,0.084 0.028,0.099 -0.103,0.092 -0.126,0.177 -0.242,0.245 -0.197,-0.153 -0.152,0.243 -0.362,0.14 0.025,-0.073 -0.067,-0.04 -0.084,-0.1 -0.107,0 -0.141,0.067 -0.218,0.143 l 0.017,0.016 c -0.031,0.034 -0.067,0.085 -0.116,0.06 -0.033,-0.026 -0.076,-0.06 -0.084,-0.1 l -0.159,0.2 C 17.176,4.455 17.042,4.632 16.882,4.682 16.813,4.64 16.755,4.614 16.697,4.581 c -0.01,0.018 -0.024,0.026 -0.016,0.042 -0.048,0 -0.108,0.092 -0.143,0 -0.125,0.142 -0.344,0.026 -0.503,0.059 -0.05,-0.134 -0.148,0.016 -0.2,-0.119 -0.042,0.01 -0.092,-0.015 -0.125,0.018 0.007,0.051 0.108,0.039 0.124,0.091 C 15.75,4.729 15.631,4.646 15.558,4.689 L 15.49,4.707 C 15.466,4.715 15.425,4.691 15.408,4.725 15.331,4.698 15.331,4.632 15.308,4.563 15.274,4.623 15.133,4.532 15.149,4.649 15.096,4.532 15.015,4.698 14.972,4.581 c -0.016,0.018 -0.034,0.026 -0.024,0.042 -0.044,0 -0.11,0.092 -0.143,0 C 14.645,4.614 14.629,4.455 14.587,4.322 14.57,4.312 14.563,4.329 14.544,4.347 14.596,4.455 14.421,4.481 14.428,4.607 14.368,4.614 14.336,4.506 14.285,4.563 14.234,4.538 14.178,4.455 14.128,4.481 l 0,0.067 C 14.178,4.765 13.993,4.516 13.899,4.623 13.809,4.623 13.883,4.516 13.8,4.481 13.74,4.489 13.691,4.538 13.641,4.563 13.615,4.538 13.6,4.516 13.565,4.523 13.549,4.538 13.531,4.548 13.54,4.563 13.497,4.563 13.351,4.594 13.317,4.502 13.142,4.635 13.088,4.506 12.937,4.447 13.108,4.256 12.812,4.381 12.736,4.306 12.66,4.338 12.721,4.421 12.66,4.465 12.511,4.516 12.519,4.372 12.435,4.306 12.343,4.312 12.302,4.113 12.219,4.222 c 0.032,0.024 0.065,0.075 0.04,0.1 C 12.202,4.297 12.202,4.362 12.176,4.381 12.108,4.28 11.976,4.438 11.915,4.306 11.899,4.429 11.801,4.297 11.757,4.347 11.732,4.306 11.595,4.145 11.561,4.153 11.323,4.322 11.323,4.187 11.223,4.034 11.146,4.068 11.027,4.013 10.986,4.104 10.853,4.179 10.735,4.069 10.627,4.003 10.601,4.154 10.493,3.815 10.443,3.865 10.309,4.093 10.122,3.91 9.981,3.86 c 0.091,-0.041 0,-0.107 0,-0.159 C 9.964,3.693 9.956,3.711 9.945,3.719 9.922,3.711 9.915,3.677 9.881,3.677 9.821,3.719 9.847,3.826 9.847,3.86 9.821,3.836 9.796,3.811 9.764,3.819 9.779,3.737 9.685,3.645 9.693,3.562 9.616,3.544 9.621,3.753 9.563,3.778 9.513,3.786 9.437,3.852 9.403,3.778 9.386,3.743 9.337,3.711 9.403,3.677 L 9.345,3.618 c -0.026,0 -0.05,0 -0.067,0.026 C 9.209,3.527 9.193,3.677 9.118,3.659 9.086,3.644 9.109,3.611 9.102,3.577 9.009,3.443 8.834,3.443 8.7,3.475 8.583,3.393 8.508,3.308 8.374,3.258 8.354,3.284 8.313,3.3 8.313,3.342 8.198,3.527 8.158,2.904 7.87,3.275 7.787,3.25 7.878,3.149 7.796,3.116 7.722,3.125 7.644,3.141 7.609,3.199 7.511,3.09 7.344,2.998 7.192,3.015 7.167,2.981 7.103,2.898 7.128,2.832 6.967,2.847 6.975,2.772 6.834,2.756 6.79,2.797 6.797,2.856 6.765,2.898 6.665,2.938 6.589,2.881 6.547,2.797 6.514,2.832 6.431,2.815 6.405,2.815 L 6.445,2.772 C 6.371,2.705 6.298,2.705 6.202,2.621 6.25,2.552 6.237,2.453 6.229,2.396 6.119,2.38 6.129,2.496 6.044,2.538 6.062,2.581 6.087,2.654 6.062,2.697 5.951,2.572 5.761,2.596 5.727,2.414 5.61,2.294 5.56,2.563 5.459,2.414 5.341,2.438 5.308,2.302 5.24,2.236 L 5.099,2.211 C 5.13,2.092 5.025,2.086 4.95,2.042 4.937,2.05 4.919,2.058 4.897,2.065 c 0,0 -0.088,0.098 -0.101,0.045 C 4.744,1.89 4.658,2.12 4.616,2.045 L 4.578,2.051 C 4.53,2.058 4.532,2.023 4.499,2.013 4.522,1.929 4.574,1.944 4.643,1.917 4.625,1.741 4.471,1.933 4.421,1.768 4.312,1.684 4.354,1.875 4.254,1.851 L 4.227,1.953 C 4.194,1.879 4.085,1.933 4.119,1.835 l 0.075,0 C 4.262,1.744 4.135,1.659 4.254,1.591 4.295,1.574 4.312,1.608 4.336,1.634 4.454,1.759 4.604,1.566 4.695,1.733 4.78,1.659 4.831,1.768 4.897,1.793 L 4.856,1.835 C 4.904,1.86 4.948,1.888 4.978,1.914 5.071,1.938 5.264,2.122 5.282,1.909 5.408,1.933 5.482,2.419 5.56,2.11 5.668,2.144 5.735,2.12 5.828,2.193 5.878,2.453 6.062,2.11 6.204,2.211 6.354,2.152 6.237,2.414 6.387,2.372 6.411,2.363 6.405,2.336 6.405,2.311 l 0.126,0 C 6.547,2.386 6.589,2.445 6.646,2.496 6.688,2.462 6.808,2.487 6.765,2.414 6.849,2.453 6.94,2.59 7.007,2.657 6.979,2.492 7.16,2.521 7.233,2.596 7.276,2.563 7.344,2.581 7.394,2.555 7.443,2.689 7.618,2.647 7.713,2.756 7.745,2.72 7.796,2.748 7.838,2.738 7.828,2.815 7.912,2.832 7.953,2.873 L 7.996,2.815 c 0.117,0.041 0.093,0.256 0.218,0.279 0.082,-0.341 0.201,0.072 0.402,-0.096 0.033,0.076 0.109,0.009 0.159,0 0.067,0.05 0.168,0.092 0.183,0.159 L 9.102,3.175 C 9.076,3.258 9.136,3.266 9.177,3.317 9.269,3.3 9.244,3.209 9.278,3.157 l 0.041,0.042 c 0.026,0 0.05,0 0.059,-0.024 0.101,0.118 0.317,0.008 0.368,0.2 L 9.764,3.359 c 0.108,-0.134 0.108,0.074 0.2,0.1 l 0.099,-0.1 c 0.059,0.084 0.162,0.1 0.246,0.06 0.091,0.158 0.184,0.125 0.295,0.175 l 0.081,-0.119 c 0.091,0 0.065,0.138 0.095,0.212 l 0.13,-0.086 c 0.026,-0.007 0.041,0.025 0.06,0.043 0.167,-0.033 0.316,-0.043 0.442,0.033 l 0.041,-0.059 c 0.454,0.162 0.201,0.291 0.346,0.366 0.022,0 0.142,-0.14 0.16,-0.165 l 0.074,0.085 0.124,-0.126 0.036,0.041 c 0.109,-0.008 0.191,0.025 0.3,-0.017 l 0.026,0.175 0.141,0 c 0.068,-0.199 0.236,0.179 0.378,-0.073 0.135,0.183 0.234,-0.017 0.403,0.016 -0.054,0.172 -0.017,0.177 0.043,0.149 -0.009,0.033 0.005,0.078 -0.003,0.11 0.059,0.076 0.21,0.043 0.218,-0.032 -0.079,0.061 -0.147,-0.029 -0.19,-0.09 0.068,-0.036 0.161,-0.092 0.192,-0.002 0.136,0.041 0.456,-0.229 0.32,0.145 0.181,0.056 0.298,-0.105 0.365,-0.18 0.135,0.184 0.276,-0.133 0.385,0.058 0.042,0.193 0.26,0.026 0.362,0.101 0.032,-0.092 0.159,-0.066 0.241,-0.101 0.112,0.449 0.361,-0.092 0.52,0.084 0.16,0.034 0.36,-0.049 0.544,-0.084 l 0.076,0.084 c 0.015,-0.008 0.034,-0.024 0.024,-0.041 0.043,0 0.108,-0.084 0.143,0 0.033,0.009 0.068,-0.008 0.099,-0.017 0.135,0.167 0.263,-0.129 0.383,0.094 -0.005,-0.215 0.246,-0.144 0.256,-0.32 0.208,0 0.366,-0.11 0.568,-0.135 0.151,-0.099 0.311,-0.117 0.419,-0.284 0.109,-0.159 0.302,-0.243 0.418,-0.42 0.043,-0.141 0.145,-0.259 0.186,-0.4 0.184,-0.152 0.125,-0.403 0.217,-0.588 L 19.21,2.035 C 19.201,2.002 19.234,1.993 19.251,1.968 19.219,1.751 19.143,1.524 19.15,1.306 19.01,1.132 19.11,0.795 18.908,0.645 18.959,0.453 18.647,0.437 18.79,0.227 18.741,0.176 18.688,0.151 18.647,0.126 18.601,0.033 18.524,-0.018 18.465,-0.117 c -0.052,-0.051 0.023,-0.159 -0.075,-0.159 -0.034,-0.085 -0.218,-0.109 -0.184,-0.243 -0.11,-0.083 -0.219,-0.192 -0.303,-0.302 -0.201,-0.127 -0.215,-0.612 -0.518,-0.46 -0.042,-0.15 -0.202,-0.176 -0.302,-0.268 0.01,-0.085 -0.093,-0.067 -0.127,-0.135 -0.166,0.018 -0.166,-0.184 -0.275,-0.266 -0.118,0.066 -0.077,-0.11 -0.186,-0.119 -0.224,0.109 -0.183,-0.208 -0.301,-0.284 -0.082,-0.066 -0.209,-0.077 -0.285,-0.101 -0.022,-0.049 -0.074,-0.033 -0.116,-0.033 -0.025,-0.025 -0.05,-0.042 -0.043,-0.084 -0.05,-0.033 -0.081,-0.051 -0.14,-0.059 -0.093,0 -0.018,-0.116 -0.101,-0.141 0,0 -0.084,-0.035 -0.135,-0.043 -0.051,-0.083 -0.353,-0.25 -0.402,-0.242 0.007,-0.084 -0.023,-0.048 0.02,-0.149 0,-0.084 -0.196,-0.079 -0.246,-0.053 -0.058,-0.076 -0.126,0.01 -0.176,-0.1 l -0.026,0.024 c -0.05,0.026 -0.065,-0.041 -0.099,-0.058 -0.112,0.025 -0.188,-0.039 -0.264,-0.105 -0.05,0 -0.096,-0.012 -0.102,-0.059 -0.012,10e-4 -0.025,0.007 -0.036,0.022 l 0.019,-0.064 c -0.017,-0.028 -0.038,-0.05 -0.056,-0.075 -0.048,0.01 -0.096,0.025 -0.107,0.038 -0.043,-0.133 -0.122,-0.094 -0.158,-0.168 -0.048,0.018 -0.091,-0.005 -0.133,-0.043 l -0.102,0.019 c 0.01,-0.054 0.003,-0.086 -0.015,-0.112 -0.01,-0.004 -0.02,-0.012 -0.031,-0.014 -0.004,-0.013 -0.01,-0.014 -0.013,-0.024 -0.093,-0.044 -0.267,-0.02 -0.409,-0.119 -0.084,-0.122 -0.204,-0.088 -0.326,-0.15 l 0.039,-0.092 c -0.129,-0.061 -0.267,-0.046 -0.388,-0.188 -0.224,0.102 -0.272,-0.291 -0.48,-0.17 l -0.03,-0.09 c -0.067,-0.083 -0.115,-0.091 -0.211,-0.069 -0.059,-0.128 -0.23,-0.117 -0.308,-0.162 l -0.021,0.014 c -0.042,0.004 -0.074,-0.009 -0.092,-0.055 L 11.2,-5.036 11.13,-5.13 c -0.016,-0.01 -0.028,0.005 -0.045,0.019 -0.013,-0.019 -0.019,-0.053 -0.054,-0.05 -0.009,0.008 -0.026,0.022 -0.021,0.041 -0.122,-0.085 -0.26,-0.071 -0.345,-0.192 -0.074,-0.01 -0.145,0.005 -0.209,-0.072 -0.168,0.037 -0.268,-0.172 -0.431,-0.144 C 9.854,-5.627 9.651,-5.749 9.449,-5.768 9.315,-5.711 9.247,-5.948 9.097,-5.834 9.062,-5.949 8.956,-5.804 8.921,-5.918 8.755,-5.873 8.556,-5.96 8.402,-5.829 8.384,-5.756 8.484,-5.698 8.443,-5.646 8.388,-5.602 8.335,-5.713 8.28,-5.685 8.21,-5.728 8.127,-5.782 8.147,-5.891 8.288,-6.179 8.97,-6.198 9.126,-6.177 l 0.026,0.046 c 0.138,-0.065 0.199,0.052 0.324,0.061 0.165,-0.086 0.286,0.134 0.454,0.088 0.038,0.015 0.071,0.079 0.11,0.033 0.064,0.052 0.138,0.113 0.22,0.073 0.035,0.057 0.083,0.08 0.149,0.08 0.184,0.135 0.312,0.077 0.495,0.212 0.125,0.144 0.331,0.004 0.45,0.165 0.249,0.034 0.461,0.266 0.734,0.278 0.154,0.207 0.614,0.163 0.478,0.419 l 0.159,-0.086 c 0.043,-0.003 0.055,0.024 0.078,0.054 0.059,0.018 0.132,0.017 0.181,0.049 0.042,-0.008 0.084,-0.003 0.114,0.04 0.023,0.151 0.258,0.118 0.284,0.202 0.006,0.004 0.014,0.01 0.018,0.015 0.034,0.018 0.068,0.035 0.082,0.032 0.002,0.015 0.007,0.022 0.011,0.034 0.047,0.031 0.098,0.048 0.148,0.019 0.159,0.085 0.317,0.151 0.461,0.267 l 0.026,-0.023 c 0.166,0.107 0.358,0.183 0.501,0.325 0.117,-0.057 0.15,0.092 0.261,0.059 -0.008,0.075 0.082,0.092 0.115,0.142 0,0 0.21,0.085 0.303,0.118 0.008,0.26 0.302,0.066 0.384,0.26 0.119,0.049 0.16,0.208 0.286,0.183 0.032,0.075 0.141,0.069 0.134,0.16 0.109,0.016 0.234,0.083 0.344,0.142 0.107,0.177 0.35,0.218 0.441,0.377 0.018,0.009 0.026,-0.008 0.041,-0.017 l 0.178,0.16 c 0.118,0.141 0.251,0.308 0.429,0.384 l 0,0.06 c 0.108,0.059 0.208,0.168 0.342,0.183 0.025,0.118 0.168,0.21 0.217,0.302 0.227,0.067 0.26,0.327 0.459,0.418 0.078,0.177 0.168,0.294 0.304,0.444 -0.043,0.135 0.102,0.009 0.058,0.143 0.044,0.083 0.128,0.192 0.185,0.234 l 0,0.042 c 0.133,0 -0.008,0.169 0.117,0.159 -0.033,0.191 0.142,0.244 0.167,0.402 0.117,0.184 0.084,0.462 0.176,0.671 -0.101,0.074 0.034,0.208 -0.043,0.276 -0.034,0.1 -0.016,0.225 0.069,0.3 -0.103,0.101 0.117,0.312 -0.085,0.361 m -45.264,-31.37 c -0.018,-0.05 0.025,-0.101 0.084,-0.075 0.033,-0.009 0.049,0.025 0.041,0.058 -0.032,0.033 -0.084,0.007 -0.125,0.017"
             style="fill:#f37b20;fill-opacity:1;fill-rule:nonzero;stroke:none"
             id="path454" />
        </g>
      </g>
    </g>
    <g
       transform="matrix(1.25,0,0,-1.25,-302.2735,667.02601)"
       id="g456">
      <g
         id="g458"
         clip-path="url(#clipPath460)">
        <g
           id="g464"
           transform="translate(578.5479,267.5967)">
          <path
             inkscape:connector-curvature="0"
             d="m 0,0 c 0.05,0 2.443,2.511 2.443,2.511 l 0.062,0.06 -1.026,0 c 0,0 -1.971,-2.076 -1.977,-2.083 l -0.003,0.005 c -0.025,0.081 -1.906,2.08 -1.906,2.08 L -3.473,2.571 c 0,0 2.538,-2.621 2.54,-2.622 -0.049,0 -2.701,-2.757 -2.701,-2.757 l 1.03,0 c 0.028,0.014 2.146,2.243 2.158,2.255 l 0.004,-0.003 c 0.028,-0.086 2.076,-2.252 2.076,-2.252 L 2.676,-2.809 C 2.676,-2.809 0.002,0 0,0"
             style="fill:#794400;fill-opacity:1;fill-rule:nonzero;stroke:none"
             id="path466" />
        </g>
        <g
           id="g468"
           transform="translate(587.6982,267.4863)">
          <path
             inkscape:connector-curvature="0"
             d="m 0,0 c 0,-1.469 -1.213,-2.126 -2.417,-2.126 -0.796,0 -1.548,0.287 -1.917,0.731 -0.379,0.433 -0.422,0.978 -0.422,1.35 0,0.448 0.064,1.104 0.612,1.595 0.418,0.368 1.04,0.574 1.748,0.574 C -0.627,2.124 0,0.979 0,0 M -2.222,2.839 C -3,2.839 -4.055,2.661 -4.769,1.887 l 0,0.811 -0.748,0 0.003,-7.427 0.745,0.004 c 0,0 -0.002,2.608 -10e-4,2.769 0.569,-0.607 1.349,-0.908 2.398,-0.908 1.614,0 3.25,0.979 3.25,2.851 0,1.373 -0.971,2.852 -3.1,2.852"
             style="fill:#794400;fill-opacity:1;fill-rule:nonzero;stroke:none"
             id="path470" />
        </g>
        <g
           id="g472"
           transform="translate(602.4404,267.5176)">
          <path
             inkscape:connector-curvature="0"
             d="m 0,0 c 0,-0.612 -0.118,-1.072 -0.36,-1.405 -0.377,-0.511 -1.098,-0.817 -1.926,-0.817 -1.527,0 -2.516,0.856 -2.516,2.178 0.02,1.536 1.277,2.132 2.344,2.18 C -1.896,2.18 -1.135,1.959 -0.687,1.624 -0.518,1.496 0,1.105 0,0 M 0,4.95 0,1.86 c -0.42,0.573 -1.342,0.957 -2.362,0.957 -1.648,0 -3.317,-0.979 -3.317,-2.848 0,-1.976 1.701,-2.874 3.283,-2.874 0.625,0 1.159,0.107 1.629,0.329 0.387,0.178 0.568,0.361 0.767,0.578 L 0,-2.726 0.771,-2.722 0.754,4.957 0,4.95"
             style="fill:#794400;fill-opacity:1;fill-rule:nonzero;stroke:none"
             id="path474" />
        </g>
        <g
           id="g476"
           transform="translate(618.9229,270.1855)">
          <path
             inkscape:connector-curvature="0"
             d="M 0,0 0,-5.395 0.765,-5.39 0.764,-0.009 0,0 z"
             style="fill:#794400;fill-opacity:1;fill-rule:nonzero;stroke:none"
             id="path478" />
        </g>
        <g
           id="g480"
           transform="translate(626.6826,269.9111)">
          <path
             inkscape:connector-curvature="0"
             d="m 0,0 c -0.467,0.269 -1.178,0.428 -1.901,0.428 -1.523,0 -2.161,-0.558 -2.458,-0.85 l 0,0.707 -0.815,0 0.011,-5.393 0.765,0 0.039,3 c 0,0.504 0.05,0.769 0.366,1.096 0.566,0.591 1.499,0.678 2.006,0.678 2.243,0 2.243,-1.212 2.243,-1.863 l 0,-2.913 0.792,0 0,2.956 C 1.035,-1.521 1.021,-0.565 0,0"
             style="fill:#794400;fill-opacity:1;fill-rule:nonzero;stroke:none"
             id="path482" />
        </g>
        <g
           id="g484"
           transform="translate(619.3047,272.457)">
          <path
             inkscape:connector-curvature="0"
             d="m 0,0 c -0.252,0 -0.455,-0.206 -0.455,-0.458 0,-0.251 0.203,-0.455 0.455,-0.455 0.253,0 0.458,0.204 0.458,0.455 C 0.458,-0.206 0.253,0 0,0"
             style="fill:#794400;fill-opacity:1;fill-rule:nonzero;stroke:none"
             id="path486" />
        </g>
        <g
           id="g488"
           transform="translate(605.0205,270.1855)">
          <path
             inkscape:connector-curvature="0"
             d="m 0,0 0,-5.395 0.765,0.005 0,5.381 L 0,0 z"
             style="fill:#794400;fill-opacity:1;fill-rule:nonzero;stroke:none"
             id="path490" />
        </g>
        <g
           id="g492"
           transform="translate(605.4014,272.457)">
          <path
             inkscape:connector-curvature="0"
             d="m 0,0 c -0.249,0 -0.454,-0.206 -0.454,-0.458 0,-0.251 0.205,-0.455 0.454,-0.455 0.253,0 0.459,0.204 0.459,0.455 C 0.459,-0.206 0.253,0 0,0"
             style="fill:#794400;fill-opacity:1;fill-rule:nonzero;stroke:none"
             id="path494" />
        </g>
        <g
           id="g496"
           transform="translate(636.1865,265.7588)">
          <path
             inkscape:connector-curvature="0"
             d="m 0,0 c -0.262,0 -0.476,-0.214 -0.476,-0.476 0,-0.261 0.214,-0.474 0.476,-0.474 0.263,0 0.475,0.213 0.475,0.474 C 0.475,-0.214 0.263,0 0,0"
             style="fill:#794400;fill-opacity:1;fill-rule:nonzero;stroke:none"
             id="path498" />
        </g>
        <g
           id="g500"
           transform="translate(634.5937,266.6738)">
          <path
             inkscape:connector-curvature="0"
             d="m 0,0 c -0.134,-0.226 -0.305,-0.488 -0.576,-0.716 -0.452,-0.375 -1.164,-0.609 -1.86,-0.609 -1.441,0 -2.448,0.888 -2.448,2.158 0,1.091 0.767,2.188 2.481,2.188 1.344,0 1.975,-0.721 2.275,-1.166 L 0.59,2.289 C 0.407,2.546 0.137,2.857 -0.314,3.146 -0.893,3.51 -1.648,3.717 -2.393,3.717 c -1.622,0 -3.369,-0.908 -3.369,-2.895 0,-1.976 1.632,-2.861 3.251,-2.861 1.74,0 2.594,0.801 3.065,1.454 L 0,0"
             style="fill:#794400;fill-opacity:1;fill-rule:nonzero;stroke:none"
             id="path502" />
        </g>
        <g
           id="g504"
           transform="translate(569.3945,268.9629)">
          <path
             inkscape:connector-curvature="0"
             d="m 0,0 c 0.571,0.638 1.258,0.713 1.724,0.713 0.76,0 1.211,-0.239 1.481,-0.417 C 3.78,-0.078 3.97,-0.529 4.072,-0.93 l -4.536,0 C -0.431,-0.749 -0.354,-0.396 0,0 M 4.225,-2.553 C 4.111,-2.693 3.988,-2.825 3.988,-2.825 3.845,-2.979 3.397,-3.443 2.518,-3.604 c -10e-4,0 -0.525,-0.042 -0.525,-0.042 -1.177,0 -2.401,0.645 -2.492,2.082 l 0.335,0 5.154,-0.04 c 0,0.012 -0.002,0.027 -0.002,0.04 l 0.002,0 C 4.988,-1.56 4.988,-1.556 4.988,-1.549 4.979,-1.032 4.894,-0.267 4.172,0.453 3.365,1.264 2.311,1.384 1.755,1.384 0.852,1.384 -0.046,1.049 -0.587,0.507 -1.054,0.026 -1.321,-0.656 -1.321,-1.37 c 0,-1.722 1.366,-2.972 3.25,-2.972 0.693,0 1.4,0.187 1.945,0.505 0.455,0.274 0.725,0.568 0.914,0.816 l -0.563,0.468"
             style="fill:#794400;fill-opacity:1;fill-rule:nonzero;stroke:none"
             id="path506" />
        </g>
        <g
           id="g508"
           transform="translate(590.833,268.9629)">
          <path
             inkscape:connector-curvature="0"
             d="m 0,0 c 0.569,0.638 1.256,0.713 1.721,0.713 0.758,0 1.211,-0.239 1.48,-0.417 0.578,-0.374 0.766,-0.825 0.868,-1.226 l -4.536,0 C -0.432,-0.749 -0.355,-0.396 0,0 M 4.222,-2.553 C 4.108,-2.693 3.985,-2.825 3.985,-2.825 3.841,-2.979 3.397,-3.443 2.516,-3.604 c -0.002,0 -0.525,-0.042 -0.525,-0.042 -1.178,0 -2.401,0.645 -2.49,2.082 l 0.332,0 5.154,-0.04 c 0,0.012 -0.001,0.027 -0.001,0.04 l 0.001,0 C 4.986,-1.56 4.986,-1.556 4.984,-1.549 4.979,-1.032 4.892,-0.267 4.171,0.453 3.362,1.264 2.308,1.384 1.754,1.384 0.851,1.384 -0.049,1.049 -0.589,0.507 -1.057,0.026 -1.325,-0.656 -1.325,-1.37 c 0,-1.722 1.367,-2.972 3.253,-2.972 0.692,0 1.4,0.187 1.943,0.505 0.456,0.274 0.724,0.568 0.914,0.816 l -0.563,0.468"
             style="fill:#794400;fill-opacity:1;fill-rule:nonzero;stroke:none"
             id="path510" />
        </g>
        <g
           id="g512"
           transform="translate(614.123,265.2803)">
          <path
             inkscape:connector-curvature="0"
             d="m 0,0 0,0.023 0.002,0 C 0.002,0.023 0.001,0.014 0,0 m -1.909,0.888 c -0.354,-0.4 -1.248,-0.83 -2.386,-0.83 -0.498,0 -1.669,0.101 -1.669,1.044 0,0.304 0.155,0.581 0.44,0.78 0.606,0.452 2.235,0.49 3.989,0.49 C -1.563,1.76 -1.582,1.271 -1.909,0.888 m 1.218,-0.65 c -0.13,0.121 -0.157,0.333 -0.157,0.615 l 0,2.283 c 0,0.712 -0.247,1.214 -0.732,1.493 -0.601,0.344 -1.53,0.416 -2.205,0.416 -0.986,0 -2.076,-0.122 -2.67,-1.035 C -6.566,3.844 -6.633,3.682 -6.68,3.538 l 0.801,-0.116 c 0.244,0.542 0.623,0.897 2.127,0.897 2.166,0 2.166,-0.691 2.166,-1.302 -2.009,0.017 -3.774,-0.002 -4.56,-0.565 -0.416,-0.305 -0.665,-0.806 -0.665,-1.34 0,-0.605 0.321,-1.151 0.856,-1.462 0.157,-0.085 0.575,-0.308 1.575,-0.308 1.575,0 2.378,0.563 2.819,0.894 0.086,-0.503 0.273,-0.797 0.913,-0.797 l 0.686,0.041 0,0.583 c -0.396,0.02 -0.608,0.061 -0.729,0.175"
             style="fill:#794400;fill-opacity:1;fill-rule:nonzero;stroke:none"
             id="path514" />
        </g>
      </g>
    </g>
  </g>
</svg>
