<?xml version="1.0" encoding="UTF-8" standalone="no"?>
<svg
   xmlns:dc="http://purl.org/dc/elements/1.1/"
   xmlns:cc="http://creativecommons.org/ns#"
   xmlns:rdf="http://www.w3.org/1999/02/22-rdf-syntax-ns#"
   xmlns:svg="http://www.w3.org/2000/svg"
   xmlns="http://www.w3.org/2000/svg"
   version="1.1"
   id="svg6096"
   viewBox="0 0 304.00001 116.4918"
   height="116.49181"
   width="304">
  <defs
     id="defs6098">
    <linearGradient
       id="linearGradient4220"
       spreadMethod="pad"
       gradientTransform="matrix(0,-21.714783,-21.714783,0,1209.199,115.59734)"
       gradientUnits="userSpaceOnUse"
       y2="0"
       x2="1"
       y1="0"
       x1="0">
      <stop
         id="stop4222"
         offset="0"
         style="stop-opacity:1;stop-color:#ffffff" />
      <stop
         id="stop4224"
         offset="0.55217822"
         style="stop-opacity:1;stop-color:#ffffff" />
      <stop
         id="stop4226"
         offset="0.691011"
         style="stop-opacity:1;stop-color:#efeeee" />
      <stop
         id="stop4228"
         offset="0.8"
         style="stop-opacity:1;stop-color:#e9e9e9" />
      <stop
         id="stop4230"
         offset="1"
         style="stop-opacity:1;stop-color:#d3d2d2" />
    </linearGradient>
    <linearGradient
       id="linearGradient4194"
       spreadMethod="pad"
       gradientTransform="matrix(0,-15.65387,-15.65387,0,1221.6552,109.63853)"
       gradientUnits="userSpaceOnUse"
       y2="0"
       x2="1"
       y1="0"
       x1="0">
      <stop
         id="stop4196"
         offset="0"
         style="stop-opacity:1;stop-color:#ffffff" />
      <stop
         id="stop4198"
         offset="0.55217822"
         style="stop-opacity:1;stop-color:#ffffff" />
      <stop
         id="stop4200"
         offset="0.691011"
         style="stop-opacity:1;stop-color:#efeeee" />
      <stop
         id="stop4202"
         offset="0.8"
         style="stop-opacity:1;stop-color:#e9e9e9" />
      <stop
         id="stop4204"
         offset="1"
         style="stop-opacity:1;stop-color:#d3d2d2" />
    </linearGradient>
    <linearGradient
       id="linearGradient4168"
       spreadMethod="pad"
       gradientTransform="matrix(0,-31.564102,-31.564102,0,1215.1939,119.73077)"
       gradientUnits="userSpaceOnUse"
       y2="0"
       x2="1"
       y1="0"
       x1="0">
      <stop
         id="stop4170"
         offset="0"
         style="stop-opacity:1;stop-color:#ffffff" />
      <stop
         id="stop4172"
         offset="0.55217822"
         style="stop-opacity:1;stop-color:#ffffff" />
      <stop
         id="stop4174"
         offset="0.691011"
         style="stop-opacity:1;stop-color:#fafafa" />
      <stop
         id="stop4176"
         offset="0.8"
         style="stop-opacity:1;stop-color:#d3d2d2" />
      <stop
         id="stop4178"
         offset="1"
         style="stop-opacity:1;stop-color:#bdbcbc" />
    </linearGradient>
    <linearGradient
       id="linearGradient4144"
       spreadMethod="pad"
       gradientTransform="matrix(-9.4758759,35.364487,35.364487,9.4758759,1231.2016,100.53252)"
       gradientUnits="userSpaceOnUse"
       y2="0"
       x2="1"
       y1="0"
       x1="0">
      <stop
         id="stop4146"
         offset="0"
         style="stop-opacity:1;stop-color:#b2b1b1" />
      <stop
         id="stop4148"
         offset="0.35"
         style="stop-opacity:1;stop-color:#deddde" />
      <stop
         id="stop4150"
         offset="0.65"
         style="stop-opacity:1;stop-color:#deddde" />
      <stop
         id="stop4152"
         offset="1"
         style="stop-opacity:1;stop-color:#b2b1b1" />
    </linearGradient>
    <linearGradient
       id="linearGradient4120"
       spreadMethod="pad"
       gradientTransform="matrix(-9.52005,35.529205,35.529205,9.52005,1206.1377,81.089096)"
       gradientUnits="userSpaceOnUse"
       y2="0"
       x2="1"
       y1="0"
       x1="0">
      <stop
         id="stop4122"
         offset="0"
         style="stop-opacity:1;stop-color:#b2b1b1" />
      <stop
         id="stop4124"
         offset="0.35"
         style="stop-opacity:1;stop-color:#deddde" />
      <stop
         id="stop4126"
         offset="0.65"
         style="stop-opacity:1;stop-color:#deddde" />
      <stop
         id="stop4128"
         offset="1"
         style="stop-opacity:1;stop-color:#b2b1b1" />
    </linearGradient>
    <clipPath
       id="clipPath4100"
       clipPathUnits="userSpaceOnUse">
      <path
         id="path4102"
         d="m 1163.689,62.096 102.93,0 0,67.565 -102.93,0 0,-67.565 z" />
    </clipPath>
    <linearGradient
       id="linearGradient4086"
       spreadMethod="pad"
       gradientTransform="matrix(0,22.012619,22.012619,0,1200.2318,93.443436)"
       gradientUnits="userSpaceOnUse"
       y2="0"
       x2="1"
       y1="0"
       x1="0">
      <stop
         id="stop4088"
         offset="0"
         style="stop-opacity:1;stop-color:#08142e" />
      <stop
         id="stop4090"
         offset="0.808989"
         style="stop-opacity:1;stop-color:#17326e" />
      <stop
         id="stop4092"
         offset="1"
         style="stop-opacity:1;stop-color:#0d69a9" />
    </linearGradient>
    <linearGradient
       id="linearGradient4064"
       spreadMethod="pad"
       gradientTransform="matrix(0,22.011795,22.011795,0,1212.2976,93.443726)"
       gradientUnits="userSpaceOnUse"
       y2="0"
       x2="1"
       y1="0"
       x1="0">
      <stop
         id="stop4066"
         offset="0"
         style="stop-opacity:1;stop-color:#08142e" />
      <stop
         id="stop4068"
         offset="0.808989"
         style="stop-opacity:1;stop-color:#17326e" />
      <stop
         id="stop4070"
         offset="1"
         style="stop-opacity:1;stop-color:#0d69a9" />
    </linearGradient>
    <linearGradient
       id="linearGradient4042"
       spreadMethod="pad"
       gradientTransform="matrix(0,20.793945,20.793945,0,1211.5911,94.198196)"
       gradientUnits="userSpaceOnUse"
       y2="0"
       x2="1"
       y1="0"
       x1="0">
      <stop
         id="stop4044"
         offset="0"
         style="stop-opacity:1;stop-color:#08142e" />
      <stop
         id="stop4046"
         offset="0.808989"
         style="stop-opacity:1;stop-color:#17326e" />
      <stop
         id="stop4048"
         offset="1"
         style="stop-opacity:1;stop-color:#0d69a9" />
    </linearGradient>
    <linearGradient
       id="linearGradient4020"
       spreadMethod="pad"
       gradientTransform="matrix(0,22.009415,22.009415,0,1217.3034,93.444855)"
       gradientUnits="userSpaceOnUse"
       y2="0"
       x2="1"
       y1="0"
       x1="0">
      <stop
         id="stop4022"
         offset="0"
         style="stop-opacity:1;stop-color:#08142e" />
      <stop
         id="stop4024"
         offset="0.808989"
         style="stop-opacity:1;stop-color:#17326e" />
      <stop
         id="stop4026"
         offset="1"
         style="stop-opacity:1;stop-color:#0d69a9" />
    </linearGradient>
    <linearGradient
       id="linearGradient3998"
       spreadMethod="pad"
       gradientTransform="matrix(0,21.543838,21.543838,0,1227.1696,93.85498)"
       gradientUnits="userSpaceOnUse"
       y2="0"
       x2="1"
       y1="0"
       x1="0">
      <stop
         id="stop4000"
         offset="0"
         style="stop-opacity:1;stop-color:#08142e" />
      <stop
         id="stop4002"
         offset="0.808989"
         style="stop-opacity:1;stop-color:#17326e" />
      <stop
         id="stop4004"
         offset="1"
         style="stop-opacity:1;stop-color:#0d69a9" />
    </linearGradient>
    <linearGradient
       id="linearGradient3976"
       spreadMethod="pad"
       gradientTransform="matrix(0,22.022888,22.022888,0,1202.3253,93.438858)"
       gradientUnits="userSpaceOnUse"
       y2="0"
       x2="1"
       y1="0"
       x1="0">
      <stop
         id="stop3978"
         offset="0"
         style="stop-opacity:1;stop-color:#08142e" />
      <stop
         id="stop3980"
         offset="0.808989"
         style="stop-opacity:1;stop-color:#17326e" />
      <stop
         id="stop3982"
         offset="1"
         style="stop-opacity:1;stop-color:#0d69a9" />
    </linearGradient>
    <linearGradient
       id="linearGradient3954"
       spreadMethod="pad"
       gradientTransform="matrix(0,22.011856,22.011856,0,1201.8017,93.444)"
       gradientUnits="userSpaceOnUse"
       y2="0"
       x2="1"
       y1="0"
       x1="0">
      <stop
         id="stop3956"
         offset="0"
         style="stop-opacity:1;stop-color:#08142e" />
      <stop
         id="stop3958"
         offset="0.808989"
         style="stop-opacity:1;stop-color:#17326e" />
      <stop
         id="stop3960"
         offset="1"
         style="stop-opacity:1;stop-color:#0d69a9" />
    </linearGradient>
    <linearGradient
       id="linearGradient3932"
       spreadMethod="pad"
       gradientTransform="matrix(0,22.006378,22.006378,0,1204.6737,93.447998)"
       gradientUnits="userSpaceOnUse"
       y2="0"
       x2="1"
       y1="0"
       x1="0">
      <stop
         id="stop3934"
         offset="0"
         style="stop-opacity:1;stop-color:#08142e" />
      <stop
         id="stop3936"
         offset="0.808989"
         style="stop-opacity:1;stop-color:#17326e" />
      <stop
         id="stop3938"
         offset="1"
         style="stop-opacity:1;stop-color:#0d69a9" />
    </linearGradient>
    <linearGradient
       id="linearGradient3910"
       spreadMethod="pad"
       gradientTransform="matrix(0,22.011093,22.011093,0,1194.8192,93.444565)"
       gradientUnits="userSpaceOnUse"
       y2="0"
       x2="1"
       y1="0"
       x1="0">
      <stop
         id="stop3912"
         offset="0"
         style="stop-opacity:1;stop-color:#08142e" />
      <stop
         id="stop3914"
         offset="0.808989"
         style="stop-opacity:1;stop-color:#17326e" />
      <stop
         id="stop3916"
         offset="1"
         style="stop-opacity:1;stop-color:#0d69a9" />
    </linearGradient>
    <linearGradient
       id="linearGradient3888"
       spreadMethod="pad"
       gradientTransform="matrix(0,21.864044,21.864044,0,1211.4201,93.448578)"
       gradientUnits="userSpaceOnUse"
       y2="0"
       x2="1"
       y1="0"
       x1="0">
      <stop
         id="stop3890"
         offset="0"
         style="stop-opacity:1;stop-color:#08142e" />
      <stop
         id="stop3892"
         offset="0.808989"
         style="stop-opacity:1;stop-color:#17326e" />
      <stop
         id="stop3894"
         offset="1"
         style="stop-opacity:1;stop-color:#0d69a9" />
    </linearGradient>
    <linearGradient
       id="linearGradient3866"
       spreadMethod="pad"
       gradientTransform="matrix(0,21.504028,21.504028,0,1214.8621,93.689117)"
       gradientUnits="userSpaceOnUse"
       y2="0"
       x2="1"
       y1="0"
       x1="0">
      <stop
         id="stop3868"
         offset="0"
         style="stop-opacity:1;stop-color:#08142e" />
      <stop
         id="stop3870"
         offset="0.808989"
         style="stop-opacity:1;stop-color:#17326e" />
      <stop
         id="stop3872"
         offset="1"
         style="stop-opacity:1;stop-color:#0d69a9" />
    </linearGradient>
    <linearGradient
       id="linearGradient3844"
       spreadMethod="pad"
       gradientTransform="matrix(0,22.012054,22.012054,0,1236.1159,93.444)"
       gradientUnits="userSpaceOnUse"
       y2="0"
       x2="1"
       y1="0"
       x1="0">
      <stop
         id="stop3846"
         offset="0"
         style="stop-opacity:1;stop-color:#08142e" />
      <stop
         id="stop3848"
         offset="0.808989"
         style="stop-opacity:1;stop-color:#17326e" />
      <stop
         id="stop3850"
         offset="1"
         style="stop-opacity:1;stop-color:#0d69a9" />
    </linearGradient>
    <linearGradient
       id="linearGradient3822"
       spreadMethod="pad"
       gradientTransform="matrix(0,22.031433,22.031433,0,1224.1119,93.436279)"
       gradientUnits="userSpaceOnUse"
       y2="0"
       x2="1"
       y1="0"
       x1="0">
      <stop
         id="stop3824"
         offset="0"
         style="stop-opacity:1;stop-color:#08142e" />
      <stop
         id="stop3826"
         offset="0.808989"
         style="stop-opacity:1;stop-color:#17326e" />
      <stop
         id="stop3828"
         offset="1"
         style="stop-opacity:1;stop-color:#0d69a9" />
    </linearGradient>
    <linearGradient
       id="linearGradient3800"
       spreadMethod="pad"
       gradientTransform="matrix(0,22.017456,22.017456,0,1231.5757,93.442566)"
       gradientUnits="userSpaceOnUse"
       y2="0"
       x2="1"
       y1="0"
       x1="0">
      <stop
         id="stop3802"
         offset="0"
         style="stop-opacity:1;stop-color:#08142e" />
      <stop
         id="stop3804"
         offset="0.808989"
         style="stop-opacity:1;stop-color:#17326e" />
      <stop
         id="stop3806"
         offset="1"
         style="stop-opacity:1;stop-color:#0d69a9" />
    </linearGradient>
    <linearGradient
       id="linearGradient3778"
       spreadMethod="pad"
       gradientTransform="matrix(0,21.857285,21.857285,0,1219.9395,93.451447)"
       gradientUnits="userSpaceOnUse"
       y2="0"
       x2="1"
       y1="0"
       x1="0">
      <stop
         id="stop3780"
         offset="0"
         style="stop-opacity:1;stop-color:#08142e" />
      <stop
         id="stop3782"
         offset="0.808989"
         style="stop-opacity:1;stop-color:#17326e" />
      <stop
         id="stop3784"
         offset="1"
         style="stop-opacity:1;stop-color:#0d69a9" />
    </linearGradient>
    <linearGradient
       id="linearGradient3756"
       spreadMethod="pad"
       gradientTransform="matrix(0,22.007767,22.007767,0,1210.4225,93.444855)"
       gradientUnits="userSpaceOnUse"
       y2="0"
       x2="1"
       y1="0"
       x1="0">
      <stop
         id="stop3758"
         offset="0"
         style="stop-opacity:1;stop-color:#08142e" />
      <stop
         id="stop3760"
         offset="0.808989"
         style="stop-opacity:1;stop-color:#17326e" />
      <stop
         id="stop3762"
         offset="1"
         style="stop-opacity:1;stop-color:#0d69a9" />
    </linearGradient>
    <linearGradient
       id="linearGradient3734"
       spreadMethod="pad"
       gradientTransform="matrix(0,22.012421,22.012421,0,1229.4719,93.442856)"
       gradientUnits="userSpaceOnUse"
       y2="0"
       x2="1"
       y1="0"
       x1="0">
      <stop
         id="stop3736"
         offset="0"
         style="stop-opacity:1;stop-color:#08142e" />
      <stop
         id="stop3738"
         offset="0.808989"
         style="stop-opacity:1;stop-color:#17326e" />
      <stop
         id="stop3740"
         offset="1"
         style="stop-opacity:1;stop-color:#0d69a9" />
    </linearGradient>
    <linearGradient
       id="linearGradient3682"
       spreadMethod="pad"
       gradientTransform="matrix(0,20.877228,20.877228,0,1220.7351,93.998276)"
       gradientUnits="userSpaceOnUse"
       y2="0"
       x2="1"
       y1="0"
       x1="0">
      <stop
         id="stop3684"
         offset="0"
         style="stop-opacity:1;stop-color:#08142e" />
      <stop
         id="stop3686"
         offset="0.808989"
         style="stop-opacity:1;stop-color:#17326e" />
      <stop
         id="stop3688"
         offset="1"
         style="stop-opacity:1;stop-color:#0d69a9" />
    </linearGradient>
    <linearGradient
       id="linearGradient3660"
       spreadMethod="pad"
       gradientTransform="matrix(0,20.197082,20.197082,0,1232.8853,94.283707)"
       gradientUnits="userSpaceOnUse"
       y2="0"
       x2="1"
       y1="0"
       x1="0">
      <stop
         id="stop3662"
         offset="0"
         style="stop-opacity:1;stop-color:#08142e" />
      <stop
         id="stop3664"
         offset="0.808989"
         style="stop-opacity:1;stop-color:#17326e" />
      <stop
         id="stop3666"
         offset="1"
         style="stop-opacity:1;stop-color:#0d69a9" />
    </linearGradient>
    <linearGradient
       id="linearGradient3638"
       spreadMethod="pad"
       gradientTransform="matrix(0,22.047882,22.047882,0,1231.5362,93.432282)"
       gradientUnits="userSpaceOnUse"
       y2="0"
       x2="1"
       y1="0"
       x1="0">
      <stop
         id="stop3640"
         offset="0"
         style="stop-opacity:1;stop-color:#08142e" />
      <stop
         id="stop3642"
         offset="0.808989"
         style="stop-opacity:1;stop-color:#17326e" />
      <stop
         id="stop3644"
         offset="1"
         style="stop-opacity:1;stop-color:#0d69a9" />
    </linearGradient>
    <linearGradient
       id="linearGradient3616"
       spreadMethod="pad"
       gradientTransform="matrix(0,21.757935,21.757935,0,1222.2318,93.515793)"
       gradientUnits="userSpaceOnUse"
       y2="0"
       x2="1"
       y1="0"
       x1="0">
      <stop
         id="stop3618"
         offset="0"
         style="stop-opacity:1;stop-color:#08142e" />
      <stop
         id="stop3620"
         offset="0.808989"
         style="stop-opacity:1;stop-color:#17326e" />
      <stop
         id="stop3622"
         offset="1"
         style="stop-opacity:1;stop-color:#0d69a9" />
    </linearGradient>
    <linearGradient
       id="linearGradient3594"
       spreadMethod="pad"
       gradientTransform="matrix(0,31.40509,31.40509,0,1215.638,88.119827)"
       gradientUnits="userSpaceOnUse"
       y2="0"
       x2="1"
       y1="0"
       x1="0">
      <stop
         id="stop3596"
         offset="0"
         style="stop-opacity:1;stop-color:#08142e" />
      <stop
         id="stop3598"
         offset="0.808989"
         style="stop-opacity:1;stop-color:#17326e" />
      <stop
         id="stop3600"
         offset="1"
         style="stop-opacity:1;stop-color:#0d69a9" />
    </linearGradient>
    <linearGradient
       id="linearGradient3572"
       spreadMethod="pad"
       gradientTransform="matrix(0,31.402237,31.402237,0,1215.1293,88.121536)"
       gradientUnits="userSpaceOnUse"
       y2="0"
       x2="1"
       y1="0"
       x1="0">
      <stop
         id="stop3574"
         offset="0"
         style="stop-opacity:1;stop-color:#08142e" />
      <stop
         id="stop3576"
         offset="0.808989"
         style="stop-opacity:1;stop-color:#17326e" />
      <stop
         id="stop3578"
         offset="1"
         style="stop-opacity:1;stop-color:#0d69a9" />
    </linearGradient>
    <radialGradient
       id="radialGradient3546"
       spreadMethod="pad"
       gradientTransform="matrix(177.90231,0,0,-173.47302,1214.8976,-51.051468)"
       gradientUnits="userSpaceOnUse"
       r="1"
       cy="0"
       cx="0"
       fy="0"
       fx="0">
      <stop
         id="stop3548"
         offset="0"
         style="stop-opacity:1;stop-color:#00050d" />
      <stop
         id="stop3550"
         offset="0.7"
         style="stop-opacity:1;stop-color:#051125" />
      <stop
         id="stop3552"
         offset="0.904494"
         style="stop-opacity:1;stop-color:#173e7e" />
      <stop
         id="stop3554"
         offset="0.955"
         style="stop-opacity:1;stop-color:#4ca9e3" />
      <stop
         id="stop3556"
         offset="1"
         style="stop-opacity:1;stop-color:#4ca9e3" />
    </radialGradient>
    <clipPath
       id="clipPath3526"
       clipPathUnits="userSpaceOnUse">
      <path
         id="path3528"
         d="m 1163.689,62.096 102.93,0 0,67.565 -102.93,0 0,-67.565 z" />
    </clipPath>
  </defs>
  <metadata
     id="metadata6101">
    <rdf:RDF>
      <cc:Work
         rdf:about="">
        <dc:format>image/svg+xml</dc:format>
        <dc:type
           rdf:resource="http://purl.org/dc/dcmitype/StillImage" />
        <dc:title></dc:title>
      </cc:Work>
    </rdf:RDF>
  </metadata>
  <g
     transform="translate(-657.92486,-622.89716)"
     id="layer1">
    <g
       id="g3522"
       transform="matrix(3.6405116,0,0,-3.6405116,-3614.0161,1059.4319)">
      <g
         clip-path="url(#clipPath3526)"
         id="g3524">
        <g
           transform="translate(1256.1486,105.1039)"
           id="g3530">
          <path
             id="path3532"
             style="fill:#d3d2d2;fill-opacity:1;fill-rule:nonzero;stroke:none"
             d="M 0,0 C 0.015,-0.075 0.027,-0.15 0.039,-0.225 0.029,-0.15 0.014,-0.075 0,0 m -40.951,14.257 c -22.871,0 -41.203,-6.855 -41.203,-15.45 0,-8.542 18.484,-15.45 41.203,-15.45 22.72,0 41.203,6.93 41.203,15.45 0,8.519 -18.483,15.45 -41.203,15.45" />
        </g>
      </g>
    </g>
    <g
       id="g3534"
       transform="matrix(3.6405116,0,0,-3.6405116,-3614.0161,1059.4319)">
      <g
         id="g3536">
        <g
           id="g3542">
          <g
             id="g3544">
            <path
               id="path3558"
               style="fill:url(#radialGradient3546);stroke:none"
               d="m 1174.628,103.919 c 0,-8.195 18.155,-14.823 40.57,-14.823 l 0,0 c 22.417,0 40.57,6.628 40.57,14.823 l 0,0 c 0,8.199 -18.153,14.824 -40.57,14.824 l 0,0 c -22.415,0 -40.57,-6.625 -40.57,-14.824" />
          </g>
        </g>
      </g>
    </g>
    <g
       id="g3560"
       transform="matrix(3.6405116,0,0,-3.6405116,-3614.0161,1059.4319)">
      <g
         id="g3562">
        <g
           id="g3568">
          <g
             id="g3570">
            <path
               id="path3580"
               style="fill:url(#linearGradient3572);stroke:none"
               d="m 1177.682,103.915 c 0,-0.555 0.112,-1.103 0.327,-1.64 l 0,0 c -0.093,0.354 -0.141,0.71 -0.141,1.073 l 0,0 c 0,6.786 16.796,12.286 37.514,12.286 l 0,0 c 19.059,0 34.795,-4.655 37.196,-10.681 l 0,0 c -1.601,6.34 -17.724,11.322 -37.383,11.322 l 0,0 c -20.719,0 -37.513,-5.533 -37.513,-12.36" />
          </g>
        </g>
      </g>
    </g>
    <g
       id="g3582"
       transform="matrix(3.6405116,0,0,-3.6405116,-3614.0161,1059.4319)">
      <g
         id="g3584">
        <g
           id="g3590">
          <g
             id="g3592">
            <path
               id="path3602"
               style="fill:url(#linearGradient3594);stroke:none"
               d="m 1254.073,103.915 c 0,-7.474 -17.406,-13.532 -38.878,-13.532 l 0,0 c -19.109,0 -34.996,4.798 -38.265,11.119 l 0,0 c 2.487,-6.583 18.795,-11.665 38.543,-11.665 l 0,0 c 21.47,0 38.873,6.005 38.873,13.417 l 0,0 c 0,0.752 -0.179,1.491 -0.525,2.208 l 0,0 c 0.167,-0.508 0.252,-1.024 0.252,-1.547" />
          </g>
        </g>
      </g>
    </g>
    <g
       id="g3604"
       transform="matrix(3.6405116,0,0,-3.6405116,-3614.0161,1059.4319)">
      <g
         id="g3606">
        <g
           id="g3612">
          <g
             id="g3614">
            <path
               id="path3624"
               style="fill:url(#linearGradient3616);stroke:none"
               d="m 1222.438,102.605 c -0.871,-0.907 -0.935,-2.08 -0.365,-2.608 l 0,0 c 0.203,-0.189 0.438,-0.276 0.689,-0.291 l 0,0 c -0.373,0.472 -0.548,1.396 -0.086,2.127 l 0,0 c -0.085,0.216 -0.102,0.46 -0.052,0.703 l 0,0 c 0.012,0.058 -0.035,0.113 -0.096,0.113 l 0,0 c -0.028,0 -0.06,-0.013 -0.09,-0.044" />
          </g>
        </g>
      </g>
    </g>
    <g
       id="g3626"
       transform="matrix(3.6405116,0,0,-3.6405116,-3614.0161,1059.4319)">
      <g
         id="g3628">
        <g
           id="g3634">
          <g
             id="g3636">
            <path
               id="path3646"
               style="fill:url(#linearGradient3638);stroke:none"
               d="m 1231.419,100.67 c 0.013,-0.136 0.048,-0.394 0.078,-0.586 l 0,0 c 0.045,0.085 0.089,0.178 0.137,0.275 l 0,0 c 0.036,0.073 0.018,0.096 -0.014,0.108 l 0,0 c -0.09,0.032 -0.181,0.1 -0.193,0.17 l 0,0 c -0.01,0.013 -0.01,0.026 -0.01,0.041 l 0,0 0,-0.008 z" />
          </g>
        </g>
      </g>
    </g>
    <g
       id="g3648"
       transform="matrix(3.6405116,0,0,-3.6405116,-3614.0161,1059.4319)">
      <g
         id="g3650">
        <g
           id="g3656">
          <g
             id="g3658">
            <path
               id="path3668"
               style="fill:url(#linearGradient3660);stroke:none"
               d="m 1232.485,103.639 c 0.291,-0.277 0.468,-0.616 0.502,-0.926 l 0,0 c 0.013,-0.147 0.125,-0.165 0.216,-0.036 l 0,0 c 0.024,0.036 0.051,0.08 0.083,0.129 l 0,0 c -0.025,0.034 -0.051,0.068 -0.079,0.103 l 0,0 c -0.127,0.15 -0.429,0.475 -0.722,0.73 z" />
          </g>
        </g>
      </g>
    </g>
    <g
       id="g3670"
       transform="matrix(3.6405116,0,0,-3.6405116,-3614.0161,1059.4319)">
      <g
         id="g3672">
        <g
           id="g3678">
          <g
             id="g3680">
            <path
               id="path3690"
               style="fill:url(#linearGradient3682);stroke:none"
               d="m 1220.425,104.211 c 0.233,-0.318 0.343,-0.774 0.327,-1.357 l 0,0 c 0,-0.151 0.106,-0.141 0.178,-0.039 l 0,0 c 0.04,0.057 0.077,0.11 0.115,0.161 l 0,0 c -0.17,0.525 -0.433,1.041 -0.62,1.235 z" />
          </g>
        </g>
      </g>
    </g>
    <g
       id="g3722"
       transform="matrix(3.6405116,0,0,-3.6405116,-3614.0161,1059.4319)">
      <g
         id="g3724">
        <g
           id="g3730">
          <g
             id="g3732">
            <path
               id="path3742"
               style="fill:url(#linearGradient3734);stroke:none"
               d="m 1228.463,101.163 c -0.812,-0.999 -1.25,-2.014 -1.266,-3.004 l 0,0 c -0.01,-0.35 0.128,-0.784 0.438,-0.945 l 0,0 c 0.101,-0.054 0.204,-0.09 0.311,-0.108 l 0,0 c -0.037,0.141 -0.054,0.279 -0.056,0.398 l 0,0 c -0.011,1.019 0.306,2.041 1.118,3.038 l 0,0 c 0.985,1.214 2.02,1.818 2.739,1.485 l 0,0 c -0.036,0.266 -0.174,0.497 -0.48,0.64 l 0,0 c -0.133,0.064 -0.277,0.095 -0.432,0.095 l 0,0 c -0.685,0 -1.563,-0.605 -2.372,-1.599" />
          </g>
        </g>
      </g>
    </g>
    <g
       id="g3744"
       transform="matrix(3.6405116,0,0,-3.6405116,-3614.0161,1059.4319)">
      <g
         id="g3746">
        <g
           id="g3752">
          <g
             id="g3754">
            <path
               id="path3764"
               style="fill:url(#linearGradient3756);stroke:none"
               d="m 1212.153,103.278 c -1.103,-0.419 -2.208,-1.069 -2.973,-2.092 l 0,0 c -0.866,-1.162 -1.101,-2.562 -0.52,-3.367 l 0,0 c 0.137,-0.189 0.302,-0.328 0.485,-0.42 l 0,0 c -0.314,0.963 -0.087,2.254 0.649,3.247 l 0,0 c 0.757,1.027 1.61,1.414 2.582,1.835 l 0,0 c 0.126,0.056 0.143,0.129 0.118,0.242 l 0,0 c -0.042,0.194 -0.177,0.676 -0.217,0.79 l 0,0 -10e-4,10e-4 c 0.031,-0.107 0,-0.188 -0.123,-0.236" />
          </g>
        </g>
      </g>
    </g>
    <g
       id="g3766"
       transform="matrix(3.6405116,0,0,-3.6405116,-3614.0161,1059.4319)">
      <g
         id="g3768">
        <g
           id="g3774">
          <g
             id="g3776">
            <path
               id="path3786"
               style="fill:url(#linearGradient3778);stroke:none"
               d="m 1220.395,100.183 c -1.027,-1.57 -1.987,-3.088 -3.005,-4.682 l 0,0 c -0.053,-0.075 -0.1,-0.123 -0.205,-0.128 l 0,0 c -0.631,0 -1.319,0.002 -2.014,-0.002 l 0,0 c -0.073,0 -0.123,0.033 -0.14,0.084 l 0,0 c 0.055,-0.244 0.144,-0.685 0.168,-0.787 l 0,0 c 0.017,-0.07 0.069,-0.106 0.147,-0.106 l 0,0 c 0.746,0 1.661,0 2.282,0.003 l 0,0 c 0.092,0.005 0.157,0.058 0.205,0.128 l 0,0 c 0.926,1.45 1.916,3.025 2.862,4.479 l 0,0 c 0.209,-0.732 0.314,-1.075 0.701,-1.419 l 0,0 c 0.393,-0.353 0.755,-0.443 1.291,-0.449 l 0,0 c 0.487,-0.005 0.966,0.189 1.533,0.426 l 0,0 c 0.206,0.085 0.388,0.19 0.552,0.295 l 0,0 c 0,0.27 0.027,0.539 0.075,0.798 l 0,0 c 0,0.028 -0.023,0.206 -0.176,0.1 l 0,0 c -0.262,-0.189 -0.605,-0.396 -1.032,-0.555 l 0,0 c -0.523,-0.195 -0.769,-0.269 -1.254,-0.263 l 0,0 c -0.611,0.004 -1.162,0.263 -1.55,0.868 l 0,0 c -0.216,0.327 -0.306,0.825 -0.327,1.19 l 0,0 c 0,0.026 -0.024,0.065 -0.055,0.065 l 0,0 c -0.017,0 -0.038,-0.012 -0.058,-0.045" />
          </g>
        </g>
      </g>
    </g>
    <g
       id="g3788"
       transform="matrix(3.6405116,0,0,-3.6405116,-3614.0161,1059.4319)">
      <g
         id="g3790">
        <g
           id="g3796">
          <g
             id="g3798">
            <path
               id="path3808"
               style="fill:url(#linearGradient3800);stroke:none"
               d="m 1238.081,99.375 c -0.98,-1.198 -2.065,-2.33 -3.102,-3.13 l 0,0 c -1.615,-1.25 -3.226,-1.567 -4.023,-0.767 l 0,0 c -0.297,0.299 -0.461,0.727 -0.48,1.086 l 0,0 c -0.01,0.195 -0.109,0.205 -0.202,0.114 l 0,0 c -0.952,-0.941 -2.607,-1.985 -4.113,-1.243 l 0,0 c -0.755,0.373 -1.16,1.064 -1.316,1.829 l 0,0 c 0.094,-0.562 0.216,-1.345 0.474,-1.833 l 0,0 c 0.173,-0.33 0.557,-0.701 0.793,-0.818 l 0,0 c 1.336,-0.659 3.244,0.089 4.469,1.267 l 0,0 c 0.013,0.015 0.015,0.017 0.033,0.037 l 0,0 c 0.056,-0.213 0.124,-0.47 0.134,-0.504 l 0,0 c 0.084,-0.274 0.214,-0.522 0.33,-0.654 l 0,0 c 0.838,-0.948 2.619,-0.517 4.471,0.916 l 0,0 c 1.034,0.801 1.802,1.605 2.742,2.699 l 0,0 c 0.037,0.046 0.034,0.113 0.014,0.214 l 0,0 c -0.054,0.237 -0.14,0.67 -0.186,0.886 l 0,0 c 0,-0.039 -0.016,-0.073 -0.038,-0.099 m -13.249,-2.044 c 0,-0.022 0.01,-0.045 0.013,-0.067 l 0,0 c 0,0.013 -0.01,0.027 -0.01,0.04 l 0,0 c 0,0.009 0,0.018 -0.01,0.027 z" />
          </g>
        </g>
      </g>
    </g>
    <g
       id="g3810"
       transform="matrix(3.6405116,0,0,-3.6405116,-3614.0161,1059.4319)">
      <g
         id="g3812">
        <g
           id="g3818">
          <g
             id="g3820">
            <path
               id="path3830"
               style="fill:url(#linearGradient3822);stroke:none"
               d="m 1225.31,102.675 c -0.094,-0.598 -0.417,-1.124 -0.967,-1.396 l 0,0 c -0.465,-0.227 -1.009,-0.188 -1.39,0.152 l 0,0 c -0.119,0.108 -0.205,0.239 -0.266,0.377 l 0,0 c 0.099,-0.45 0.183,-0.782 0.301,-0.959 l 0,0 c 0.36,-0.54 0.981,-0.678 1.667,-0.307 l 0,0 c 0.496,0.269 0.933,0.838 0.877,1.762 l 0,0 c -0.028,0.46 -0.162,0.932 -0.376,1.316 l 0,0 c 0.145,-0.281 0.207,-0.606 0.154,-0.945" />
          </g>
        </g>
      </g>
    </g>
    <g
       id="g3832"
       transform="matrix(3.6405116,0,0,-3.6405116,-3614.0161,1059.4319)">
      <g
         id="g3834">
        <g
           id="g3840">
          <g
             id="g3842">
            <path
               id="path3852"
               style="fill:url(#linearGradient3844);stroke:none"
               d="m 1239.403,108.343 c -0.313,-0.543 -6.347,-9.73 -6.728,-10.68 l 0,0 c -0.121,-0.301 -0.136,-0.53 -0.013,-0.697 l 0,0 c 0.125,-0.167 0.307,-0.231 0.513,-0.227 l 0,0 c 0.019,0.115 0.064,0.247 0.12,0.385 l 0,0 c 0.382,0.953 6.033,9.541 6.343,10.085 l 0,0 c 0.026,0.047 0.018,0.1 0.01,0.134 l 0,0 c -0.018,0.087 -0.207,1.002 -0.225,1.085 l 0,0 c 0,-0.025 0,-0.054 -0.018,-0.085" />
          </g>
        </g>
      </g>
    </g>
    <g
       id="g3854"
       transform="matrix(3.6405116,0,0,-3.6405116,-3614.0161,1059.4319)">
      <g
         id="g3856">
        <g
           id="g3862">
          <g
             id="g3864">
            <path
               id="path3874"
               style="fill:url(#linearGradient3866);stroke:none"
               d="m 1214.353,104.067 c 0.018,-0.019 0.032,-0.039 0.048,-0.059 l 0,0 c 0.363,-0.54 0.561,-1.301 0.58,-2.087 l 0,0 c 0.023,-0.165 0.094,-0.169 0.175,-0.083 l 0,0 c 0.073,0.074 0.145,0.152 0.215,0.229 l 0,0 c -0.105,0.423 -0.271,0.802 -0.44,1.167 l 0,0 c -0.063,0.134 -0.341,0.608 -0.578,0.833 z" />
          </g>
        </g>
      </g>
    </g>
    <g
       id="g3876"
       transform="matrix(3.6405116,0,0,-3.6405116,-3614.0161,1059.4319)">
      <g
         id="g3878">
        <g
           id="g3884">
          <g
             id="g3886">
            <path
               id="path3896"
               style="fill:url(#linearGradient3888);stroke:none"
               d="m 1217.431,102.248 c -1.302,-0.985 -2.396,-2.522 -2.949,-3.208 l 0,0 c -0.328,-0.405 -0.636,-1.001 -1.489,-1.927 l 0,0 c -1.343,-1.457 -3.121,-2.294 -4.836,-1.716 l 0,0 c -0.937,0.315 -1.614,1.07 -1.873,1.992 l 0,0 c -0.052,0.179 -0.152,0.229 -0.248,0.111 l 0,0 c -0.278,-0.345 -0.844,-0.854 -1.318,-1.175 l 0,0 c -0.051,-0.037 -0.179,-0.112 -0.289,-0.058 l 0,0 c -0.099,0.044 -0.451,0.542 -0.521,0.684 l 0,0 c -0.01,0.015 -0.014,0.032 -0.016,0.046 l 0,0 0,-0.005 c 0.123,-0.612 0.139,-0.682 0.305,-0.964 l 0,0 c 0.191,-0.313 0.375,-0.532 0.416,-0.551 l 0,0 c 0.111,-0.055 0.223,-0.004 0.279,0.026 l 0,0 c 0.367,0.189 1.085,0.74 1.393,1.125 l 0,0 c 0.094,0.088 0.183,0.028 0.214,-0.065 l 0,0 c 0.128,-0.41 0.318,-0.725 0.529,-1.06 l 0,0 c 0.231,-0.372 0.695,-0.759 1.295,-0.925 l 0,0 c 0.777,-0.217 1.615,-0.256 2.717,0.166 l 0,0 c 0.883,0.338 1.809,1.027 2.522,1.8 l 0,0 c 0.854,0.927 1.163,1.523 1.487,1.929 l 0,0 c 0.554,0.685 1.416,1.899 2.626,2.932 l 0,0 c 0.423,0.361 0.886,0.595 1.177,0.482 l 0,0 c 0.175,0.45 0.092,0.698 -0.095,0.819 l 0,0 c -0.062,0.041 -0.137,0.059 -0.222,0.059 l 0,0 c -0.304,0 -0.732,-0.232 -1.104,-0.517" />
          </g>
        </g>
      </g>
    </g>
    <g
       id="g3898"
       transform="matrix(3.6405116,0,0,-3.6405116,-3614.0161,1059.4319)">
      <g
         id="g3900">
        <g
           id="g3906">
          <g
             id="g3908">
            <path
               id="path3918"
               style="fill:url(#linearGradient3910);stroke:none"
               d="m 1195.766,103.478 c -0.732,-0.374 -1.613,-1.014 -2.047,-1.887 l 0,0 c -0.354,-0.714 -0.425,-1.572 0.114,-2.391 l 0,0 c 0.045,-0.066 0.094,-0.132 0.147,-0.193 l 0,0 c -0.172,0.68 0.014,1.41 0.288,1.959 l 0,0 c 0.433,0.874 1.042,1.29 1.642,1.669 l 0,0 c 0.257,0.163 0.372,0.321 0.219,0.748 l 0,0 c -0.044,0.121 -0.069,0.339 -0.116,0.534 l 0,0 c 0.015,-0.19 -0.078,-0.354 -0.247,-0.439" />
          </g>
        </g>
      </g>
    </g>
    <g
       id="g3920"
       transform="matrix(3.6405116,0,0,-3.6405116,-3614.0161,1059.4319)">
      <g
         id="g3922">
        <g
           id="g3928">
          <g
             id="g3930">
            <path
               id="path3940"
               style="fill:url(#linearGradient3932);stroke:none"
               d="m 1201.301,112.26 c -2.116,-0.791 -3.043,-2.468 -2.597,-3.589 l 0,0 c 0.086,-0.215 0.223,-0.38 0.4,-0.499 l 0,0 c -0.149,1.035 0.626,2.729 2.66,3.401 l 0,0 c 2.661,0.878 5.627,0.323 8.012,-0.187 l 0,0 c 0.333,0.209 0.626,0.353 0.917,0.512 l 0,0 c 0.146,0.075 -0.018,0.166 -0.062,0.166 l 0,0 c -1.909,0.359 -3.865,0.783 -5.806,0.783 l 0,0 c -1.185,0 -2.365,-0.158 -3.524,-0.587" />
          </g>
        </g>
      </g>
    </g>
    <g
       id="g3942"
       transform="matrix(3.6405116,0,0,-3.6405116,-3614.0161,1059.4319)">
      <g
         id="g3944">
        <g
           id="g3950">
          <g
             id="g3952">
            <path
               id="path3962"
               style="fill:url(#linearGradient3954);stroke:none"
               d="m 1210.164,105.965 c -0.957,-0.055 -2.452,-0.2 -3.464,-0.326 l 0,0 c -0.246,-0.03 -0.282,-0.076 -0.332,-0.162 l 0,0 c -1.614,-2.661 -3.337,-5.531 -5.23,-7.453 l 0,0 c -2.028,-2.06 -3.716,-2.602 -5.507,-2.617 l 0,0 c -2.067,-0.014 -3.908,1.159 -4.371,3.217 l 0,0 c 0.248,-1.149 0.99,-2.535 1.847,-3.138 l 0,0 c 0.871,-0.615 1.729,-0.819 2.732,-0.837 l 0,0 c 2.037,-0.036 3.897,0.804 5.868,2.807 l 0,0 c 1.893,1.921 3.532,4.605 5.147,7.266 l 0,0 c 0.055,0.095 0.111,0.136 0.383,0.17 l 0,0 c 1.013,0.127 1.922,0.184 2.817,0.269 l 0,0 c 0.267,0.025 0.47,0.049 0.567,-0.048 l 0,0 c 0.324,-0.323 0.7,-0.619 0.949,-0.763 l 0,0 c 0.166,-0.002 0.304,-0.039 0.402,-0.126 l 0,0 c 0.104,0.014 0.2,0.072 0.261,0.131 l 0,0 c 0.116,0.113 0.122,0.247 0.102,0.361 l 0,0 c -0.04,0.22 -0.099,0.656 -0.17,0.782 l 0,0 c 0.048,-0.096 0.018,-0.233 -0.08,-0.341 l 0,0 c -0.07,-0.081 -0.181,-0.158 -0.323,-0.155 l 0,0 c -0.115,0.003 -0.185,0.042 -0.331,0.122 l 0,0 c -0.3,0.162 -0.675,0.429 -0.925,0.744 l 0,0 c -0.065,0.081 -0.106,0.102 -0.217,0.102 l 0,0 c -0.034,0 -0.074,-0.002 -0.125,-0.005" />
          </g>
        </g>
      </g>
    </g>
    <g
       id="g3964"
       transform="matrix(3.6405116,0,0,-3.6405116,-3614.0161,1059.4319)">
      <g
         id="g3966">
        <g
           id="g3972">
          <g
             id="g3974">
            <path
               id="path3984"
               style="fill:url(#linearGradient3976);stroke:none"
               d="m 1201.423,104.355 c -0.223,-0.162 -0.543,-0.14 -0.684,0.075 l 0,0 c -0.047,0.073 -0.071,0.152 -0.072,0.232 l 0,0 c -0.02,-0.345 0.117,-0.852 0.23,-1.023 l 0,0 c 0.122,-0.188 0.467,-0.28 0.742,-0.078 l 0,0 c 0.616,0.456 1.174,0.72 1.798,0.839 l 0,0 c 0.161,0.219 0.335,0.462 0.533,0.735 l 0,0 c 0.016,0.022 0.02,0.051 0.013,0.065 l 0,0 c -0.012,0.023 -0.03,0.031 -0.07,0.033 l 0,0 c -0.915,-0.025 -1.714,-0.298 -2.49,-0.878" />
          </g>
        </g>
      </g>
    </g>
    <g
       id="g3986"
       transform="matrix(3.6405116,0,0,-3.6405116,-3614.0161,1059.4319)">
      <g
         id="g3988">
        <g
           id="g3994">
          <g
             id="g3996">
            <path
               id="path4006"
               style="fill:url(#linearGradient3998);stroke:none"
               d="m 1227.152,112.829 c 0.012,-0.018 0.024,-0.039 0.036,-0.061 l 0,0 c -0.012,0.024 -0.024,0.045 -0.036,0.061 z" />
          </g>
        </g>
      </g>
    </g>
    <g
       id="g4008"
       transform="matrix(3.6405116,0,0,-3.6405116,-3614.0161,1059.4319)">
      <g
         id="g4010">
        <g
           id="g4016">
          <g
             id="g4018">
            <path
               id="path4028"
               style="fill:url(#linearGradient4020);stroke:none"
               d="m 1227.248,112.435 c -0.033,-0.589 -0.49,-1.156 -1.615,-1.77 l 0,0 c -1.278,-0.702 -2.616,-0.914 -4.013,-0.926 l 0,0 c -3.381,-0.028 -6.529,1.289 -9.787,1.997 l 0,0 c 0,-0.142 0.041,-0.313 -0.078,-0.402 l 0,0 c -1.804,-1.331 -3.436,-2.683 -4.528,-4.581 l 0,0 c -0.037,-0.045 -0.017,-0.087 0.046,-0.082 l 0,0 c 0.289,0.014 0.567,0.028 0.842,0.042 l 0,0 c 0.995,1.558 2.059,2.452 3.687,3.653 l 0,0 c 0.121,0.091 0.242,0.156 0.203,0.502 l 0,0 c 3.266,-0.724 5.752,-1.927 9.972,-1.939 l 0,0 c 1.259,-0.003 3.035,0.417 3.989,0.993 l 0,0 c 1.098,0.66 1.39,1.145 1.431,1.658 l 0,0 c 0.012,0.16 -0.029,0.399 -0.056,0.522 l 0,0 c -0.037,0.174 -0.062,0.395 -0.112,0.56 l 0,0 c 0.018,-0.068 0.025,-0.144 0.019,-0.227" />
          </g>
        </g>
      </g>
    </g>
    <g
       id="g4030"
       transform="matrix(3.6405116,0,0,-3.6405116,-3614.0161,1059.4319)">
      <g
         id="g4032">
        <g
           id="g4038">
          <g
             id="g4040">
            <path
               id="path4050"
               style="fill:url(#linearGradient4042);stroke:none"
               d="m 1211.515,108.463 c -0.04,-0.039 -0.085,-0.078 -0.13,-0.118 l 0,0 c -0.322,-0.335 -0.421,-0.777 -0.373,-1.111 l 0,0 c 0.025,-0.137 0.078,-0.163 0.14,-0.151 l 0,0 c 0.062,0.013 0.124,0.033 0.187,0.058 l 0,0 c 0.023,0.185 0.101,0.363 0.287,0.528 l 0,0 c 0.134,0.119 0.303,0.174 0.447,0.149 l 0,0 c 0.124,0.249 0.16,0.545 0.01,0.675 l 0,0 c -0.066,0.057 -0.148,0.084 -0.237,0.084 l 0,0 c -0.109,0 -0.226,-0.041 -0.33,-0.114" />
          </g>
        </g>
      </g>
    </g>
    <g
       id="g4052"
       transform="matrix(3.6405116,0,0,-3.6405116,-3614.0161,1059.4319)">
      <g
         id="g4054">
        <g
           id="g4060">
          <g
             id="g4062">
            <path
               id="path4072"
               style="fill:url(#linearGradient4064);stroke:none"
               d="m 1212.815,107.306 c -0.31,-0.593 -0.821,-0.91 -1.312,-1.064 l 0,0 c 0,0 -0.103,-0.022 -0.088,-0.116 l 0,0 c 0.013,-0.106 0.36,-0.327 0.578,-0.48 l 0,0 c 0.031,0.009 0.078,0.027 0.078,0.027 l 0,0 c 0.252,0.098 0.672,0.353 0.915,0.886 l 0,0 c 0.155,0.341 0.239,0.61 0.172,1.197 l 0,0 c -0.048,0.411 -0.131,0.783 -0.241,0.974 l 0,0 c 0.211,-0.43 0.126,-0.983 -0.102,-1.424" />
          </g>
        </g>
      </g>
    </g>
    <g
       id="g4074"
       transform="matrix(3.6405116,0,0,-3.6405116,-3614.0161,1059.4319)">
      <g
         id="g4076">
        <g
           id="g4082">
          <g
             id="g4084">
            <path
               id="path4094"
               style="fill:url(#linearGradient4086);stroke:none"
               d="m 1203.791,110.076 c 0.063,-0.15 0.063,-0.372 -0.056,-0.653 l 0,0 c -0.895,-2.102 -2.603,-3.768 -4.684,-3.839 l 0,0 c -1.254,-0.041 -2.193,0.602 -2.632,1.551 l 0,0 c 0.322,-0.709 0.981,-1.341 1.557,-1.703 l 0,0 c 0.451,-0.282 1.008,-0.437 1.644,-0.416 l 0,0 c 2.168,0.073 3.81,1.859 4.354,3.369 l 0,0 c 0.146,0.407 0.032,0.844 -0.036,1.138 l 0,0 c -0.027,0.113 -0.065,0.37 -0.147,0.553 l 0,0 z" />
          </g>
        </g>
      </g>
    </g>
    <g
       id="g4096"
       transform="matrix(3.6405116,0,0,-3.6405116,-3614.0161,1059.4319)">
      <g
         clip-path="url(#clipPath4100)"
         id="g4098">
        <g
           transform="translate(1256.1486,105.1039)"
           id="g4104">
          <path
             id="path4106"
             style="fill:#4f4c4d;fill-opacity:1;fill-rule:nonzero;stroke:none"
             d="M 0,0 C 0.015,-0.075 0.027,-0.15 0.039,-0.225 0.029,-0.15 0.014,-0.075 0,0 m -81.87,-1.363 c -0.009,1.807 0.788,3.605 2.463,5.295 5.898,5.95 21.354,9.972 38.386,10.042 22.565,0.094 40.952,-6.634 40.991,-14.997 0.008,-1.808 -0.837,-3.582 -2.513,-5.271 -5.899,-5.952 -21.306,-9.996 -38.338,-10.067 -22.564,-0.094 -40.952,6.634 -40.989,14.998 m 40.919,15.62 c -22.871,0 -41.203,-6.855 -41.203,-15.45 0,-8.542 18.484,-15.45 41.203,-15.45 22.72,0 41.203,6.93 41.203,15.45 0,8.519 -18.483,15.45 -41.203,15.45" />
        </g>
      </g>
    </g>
    <g
       id="g4108"
       transform="matrix(3.6405116,0,0,-3.6405116,-3614.0161,1059.4319)">
      <g
         id="g4110">
        <g
           id="g4116">
          <g
             id="g4118">
            <path
               id="path4130"
               style="fill:url(#linearGradient4120);stroke:none"
               d="m 1174.119,103.91 c 0,-0.403 0.047,-0.802 0.13,-1.197 l 0,0 c -0.062,0.338 -0.098,0.682 -0.1,1.027 l 0,0 c -0.01,1.833 0.812,3.682 2.501,5.387 l 0,0 c 5.931,5.983 21.402,10.009 38.478,10.08 l 0,0 c 2.366,0.01 4.684,-0.057 6.942,-0.191 l 0,0 c -2.235,0.141 -4.531,0.215 -6.872,0.215 l 0,0 c -22.778,0 -41.079,-6.829 -41.079,-15.321" />
          </g>
        </g>
      </g>
    </g>
    <g
       id="g4132"
       transform="matrix(3.6405116,0,0,-3.6405116,-3614.0161,1059.4319)">
      <g
         id="g4134">
        <g
           id="g4140">
          <g
             id="g4142">
            <path
               id="path4154"
               style="fill:url(#linearGradient4144);stroke:none"
               d="m 1256.247,104.077 c 0.01,-1.832 -0.86,-3.658 -2.55,-5.361 l 0,0 c -5.91,-5.963 -21.376,-10.031 -38.429,-10.102 l 0,0 c -2.411,-0.01 -4.776,0.055 -7.074,0.194 l 0,0 c 2.275,-0.145 4.616,-0.218 7.004,-0.218 l 0,0 c 22.648,0 41.074,6.914 41.074,15.317 l 0,0 c 0,0.32 -0.03,0.639 -0.082,0.955 l 0,0 c 0.037,-0.26 0.056,-0.521 0.057,-0.785" />
          </g>
        </g>
      </g>
    </g>
    <g
       id="g4156"
       transform="matrix(3.6405116,0,0,-3.6405116,-3614.0161,1059.4319)">
      <g
         id="g4158">
        <g
           id="g4164">
          <g
             id="g4166">
            <path
               id="path4180"
               style="fill:url(#linearGradient4168);stroke:none"
               d="m 1176.314,103.915 c 0,-7.474 17.408,-13.532 38.881,-13.532 l 0,0 c 21.472,0 38.878,6.058 38.878,13.532 l 0,0 c 0,7.474 -17.406,13.531 -38.878,13.531 l 0,0 c -21.473,0 -38.881,-6.057 -38.881,-13.531 m 1.368,0 c 0,6.827 16.794,12.36 37.513,12.36 l 0,0 c 20.719,0 37.512,-5.533 37.512,-12.36 l 0,0 c 0,-6.827 -16.793,-12.362 -37.512,-12.362 l 0,0 c -20.719,0 -37.513,5.535 -37.513,12.362" />
          </g>
        </g>
      </g>
    </g>
    <g
       id="g4182"
       transform="matrix(3.6405116,0,0,-3.6405116,-3614.0161,1059.4319)">
      <g
         id="g4184">
        <g
           id="g4190">
          <g
             id="g4192">
            <path
               id="path4206"
               style="fill:url(#linearGradient4194);stroke:none"
               d="m 1237.199,108.504 c -0.154,0 -0.233,-0.019 -0.306,-0.161 l 0,0 c -0.239,-0.458 -3.149,-4.819 -3.69,-5.666 l 0,0 c -0.091,-0.129 -0.203,-0.111 -0.216,0.036 l 0,0 c -0.055,0.503 -0.489,1.08 -1.174,1.358 l 0,0 c -0.521,0.211 -1.032,0.25 -1.561,0.18 l 0,0 c -0.957,-0.129 -1.81,-0.634 -2.559,-1.204 l 0,0 c -1.131,-0.858 -2.105,-1.972 -3.364,-2.794 l 0,0 c -0.686,-0.448 -1.628,-0.839 -2.256,-0.256 l 0,0 c -0.57,0.528 -0.506,1.701 0.365,2.608 l 0,0 c 0.092,0.096 0.203,0.017 0.186,-0.069 l 0,0 c -0.083,-0.411 0.019,-0.819 0.329,-1.105 l 0,0 c 0.381,-0.34 0.925,-0.379 1.39,-0.152 l 0,0 c 0.55,0.272 0.873,0.798 0.967,1.396 l 0,0 c 0.146,0.925 -0.567,1.742 -1.459,1.807 l 0,0 c -0.724,0.051 -1.419,-0.201 -2.096,-0.76 l 0,0 c -0.339,-0.281 -0.532,-0.489 -0.825,-0.907 l 0,0 c -0.072,-0.102 -0.182,-0.112 -0.178,0.039 l 0,0 c 0.034,1.186 -0.456,1.852 -1.437,1.875 l 0,0 c -0.76,0.018 -1.574,-0.396 -2.207,-0.9 l 0,0 c -0.694,-0.558 -1.302,-1.296 -1.952,-1.991 l 0,0 c -0.081,-0.086 -0.152,-0.082 -0.175,0.083 l 0,0 c -0.019,0.786 -0.217,1.547 -0.58,2.087 l 0,0 c -0.129,0.188 -0.399,0.281 -0.627,0.154 l 0,0 c -0.105,-0.057 -0.471,-0.225 -0.737,-0.44 l 0,0 c -0.131,-0.109 -0.183,-0.266 -0.125,-0.468 l 0,0 c 0.351,-1.172 0.275,-2.507 -0.202,-3.633 l 0,0 c -0.437,-1.032 -1.287,-1.964 -2.285,-2.278 l 0,0 c -0.658,-0.209 -1.342,-0.107 -1.765,0.476 l 0,0 c -0.581,0.805 -0.346,2.205 0.52,3.367 l 0,0 c 0.765,1.023 1.87,1.673 2.973,2.092 l 0,0 c 0.13,0.05 0.157,0.134 0.12,0.244 l 0,0 c -0.06,0.181 -0.156,0.428 -0.194,0.541 l 0,0 c -0.101,0.269 -0.385,0.313 -0.731,0.275 l 0,0 c -0.801,-0.093 -1.524,-0.368 -2.239,-0.75 l 0,0 c -1.87,-1.001 -2.807,-2.94 -3.218,-3.976 l 0,0 c -0.198,-0.499 -0.367,-0.809 -0.586,-1.085 l 0,0 c -0.294,-0.371 -0.665,-0.708 -1.342,-1.303 l 0,0 c -0.06,-0.054 -0.106,-0.167 -0.055,-0.273 l 0,0 c 0.07,-0.142 0.422,-0.64 0.521,-0.684 l 0,0 c 0.11,-0.054 0.238,0.021 0.289,0.058 l 0,0 c 0.474,0.321 1.04,0.83 1.318,1.175 l 0,0 c 0.096,0.118 0.196,0.068 0.248,-0.111 l 0,0 c 0.259,-0.922 0.936,-1.677 1.873,-1.992 l 0,0 c 1.715,-0.578 3.493,0.259 4.836,1.716 l 0,0 c 0.853,0.926 1.161,1.522 1.489,1.927 l 0,0 c 0.553,0.686 1.647,2.223 2.949,3.208 l 0,0 c 0.477,0.365 1.043,0.642 1.326,0.458 l 0,0 c 0.228,-0.148 0.303,-0.492 -0.064,-1.157 l 0,0 c -1.327,-2.425 -3.28,-5.272 -3.639,-5.964 l 0,0 c -0.066,-0.119 -0.01,-0.214 0.117,-0.214 l 0,0 c 0.695,0.004 1.383,0.002 2.014,0.002 l 0,0 c 0.105,0.005 0.152,0.053 0.205,0.128 l 0,0 c 1.018,1.594 1.978,3.112 3.005,4.682 l 0,0 c 0.058,0.091 0.11,0.02 0.113,-0.02 l 0,0 c 0.021,-0.365 0.111,-0.863 0.327,-1.19 l 0,0 c 0.388,-0.605 0.939,-0.864 1.55,-0.868 l 0,0 c 0.485,-0.006 0.731,0.068 1.254,0.263 l 0,0 c 0.427,0.159 0.77,0.366 1.032,0.555 l 0,0 c 0.153,0.106 0.18,-0.072 0.176,-0.1 l 0,0 c -0.236,-1.266 0.056,-2.766 1.314,-3.388 l 0,0 c 1.506,-0.742 3.161,0.302 4.113,1.243 l 0,0 c 0.093,0.091 0.192,0.081 0.202,-0.114 l 0,0 c 0.019,-0.359 0.183,-0.787 0.48,-1.086 l 0,0 c 0.797,-0.8 2.408,-0.483 4.023,0.767 l 0,0 c 1.037,0.8 2.122,1.932 3.102,3.13 l 0,0 c 0.037,0.046 0.064,0.121 -0.01,0.197 l 0,0 c -0.149,0.155 -0.365,0.334 -0.513,0.472 l 0,0 c -0.067,0.057 -0.166,0.041 -0.224,-0.003 l 0,0 c -1.004,-0.955 -1.909,-2.044 -3.217,-2.946 l 0,0 c -0.44,-0.308 -1.143,-0.556 -1.459,-0.129 l 0,0 c -0.123,0.167 -0.108,0.396 0.013,0.697 l 0,0 c 0.381,0.95 6.415,10.137 6.728,10.68 l 0,0 c 0.055,0.094 0,0.163 -0.121,0.163 l 0,0 c -0.621,0 -1.436,-0.002 -2.083,-0.002 m -9.564,-11.29 c -0.31,0.161 -0.445,0.595 -0.438,0.945 l 0,0 c 0.016,0.99 0.454,2.005 1.266,3.004 l 0,0 c 0.991,1.217 2.085,1.851 2.804,1.504 l 0,0 c 0.743,-0.354 0.505,-1.215 0.173,-1.89 l 0,0 c -0.024,-0.053 -0.026,-0.097 -0.013,-0.14 l 0,0 c 0.012,-0.07 0.103,-0.138 0.193,-0.17 l 0,0 c 0.032,-0.012 0.05,-0.035 0.014,-0.108 l 0,0 c -0.256,-0.55 -0.493,-0.868 -0.814,-1.345 l 0,0 c -0.295,-0.441 -0.629,-0.786 -1.033,-1.117 l 0,0 c -0.47,-0.388 -1.08,-0.804 -1.655,-0.804 l 0,0 c -0.17,0 -0.338,0.036 -0.497,0.121" />
          </g>
        </g>
      </g>
    </g>
    <g
       id="g4208"
       transform="matrix(3.6405116,0,0,-3.6405116,-3614.0161,1059.4319)">
      <g
         id="g4210">
        <g
           id="g4216">
          <g
             id="g4218">
            <path
               id="path4232"
               style="fill:url(#linearGradient4220);stroke:none"
               d="m 1205.123,114.076 c -0.576,0 -1.154,-0.022 -1.737,-0.069 l 0,0 c -3.709,-0.313 -7.237,-2.401 -7.245,-5.57 l 0,0 c 0,-1.608 1.14,-2.91 2.91,-2.853 l 0,0 c 2.081,0.071 3.789,1.737 4.684,3.839 l 0,0 c 0.339,0.797 -0.29,1.128 -0.589,0.669 l 0,0 c -0.534,-0.827 -1.286,-1.468 -2.1,-1.867 l 0,0 c -0.979,-0.48 -2.025,-0.35 -2.342,0.446 l 0,0 c -0.446,1.121 0.481,2.798 2.597,3.589 l 0,0 c 3.056,1.131 6.254,0.382 9.33,-0.196 l 0,0 c 0.044,0 0.208,-0.091 0.062,-0.166 l 0,0 c -0.55,-0.3 -1.092,-0.545 -1.937,-1.272 l 0,0 c -0.607,-0.519 -1.4,-1.209 -2.014,-1.962 l 0,0 c -0.608,-0.742 -1.04,-1.404 -1.611,-2.136 l 0,0 c -0.08,-0.107 -0.178,-0.102 -0.176,-0.102 l 0,0 c -1.392,-0.235 -2.756,-0.392 -4.003,-1.26 l 0,0 c -0.258,-0.178 -0.37,-0.494 -0.213,-0.736 l 0,0 c 0.141,-0.215 0.461,-0.237 0.684,-0.075 l 0,0 c 0.776,0.58 1.575,0.853 2.49,0.878 l 0,0 c 0.04,-0.002 0.058,-0.01 0.07,-0.033 l 0,0 c 0.01,-0.014 0,-0.043 -0.013,-0.065 l 0,0 c -1.372,-1.902 -1.715,-2.332 -2.746,-3.511 l 0,0 c -0.528,-0.606 -1.047,-1.117 -1.627,-1.65 l 0,0 c -2.341,-2.175 -4.861,-2.139 -5.764,-0.774 l 0,0 c -0.539,0.819 -0.468,1.677 -0.114,2.391 l 0,0 c 0.434,0.873 1.315,1.513 2.047,1.887 l 0,0 c 0.272,0.139 0.35,0.486 0.078,0.802 l 0,0 c -0.172,0.207 -0.593,0.244 -0.904,0.187 l 0,0 c -0.96,-0.178 -2.093,-0.903 -2.763,-1.775 l 0,0 c -0.754,-0.98 -1.131,-2.168 -1.005,-3.502 l 0,0 c 0.227,-2.408 2.209,-3.799 4.459,-3.783 l 0,0 c 1.791,0.015 3.479,0.557 5.507,2.617 l 0,0 c 1.893,1.922 3.616,4.792 5.23,7.453 l 0,0 c 0.05,0.086 0.086,0.132 0.332,0.162 l 0,0 c 1.012,0.126 2.507,0.271 3.464,0.326 l 0,0 c 0.214,0.012 0.257,0.009 0.342,-0.097 l 0,0 c 0.25,-0.315 0.625,-0.582 0.925,-0.744 l 0,0 c 0.146,-0.08 0.216,-0.119 0.331,-0.122 l 0,0 c 0.142,-0.003 0.253,0.074 0.323,0.155 l 0,0 c 0.102,0.112 0.13,0.256 0.076,0.351 l 0,0 c -0.057,0.098 -0.726,0.469 -0.746,0.618 l 0,0 c -0.015,0.094 0.088,0.116 0.088,0.116 l 0,0 c 0.491,0.154 1.002,0.471 1.312,1.064 l 0,0 c 0.304,0.584 0.353,1.364 -0.204,1.797 l 0,0 c -0.488,0.38 -1.226,0.32 -1.815,-0.208 l 0,0 c -0.575,-0.513 -0.767,-1.26 -0.688,-1.914 l 0,0 c 0.013,-0.113 0.01,-0.152 -0.147,-0.165 l 0,0 c -0.886,-0.07 -1.739,-0.095 -2.688,-0.145 l 0,0 c -0.063,-0.005 -0.083,0.037 -0.046,0.082 l 0,0 c 1.092,1.898 2.724,3.25 4.528,4.581 l 0,0 c 0.119,0.089 0.083,0.26 0.078,0.402 l 0,0 c 3.258,-0.708 6.406,-2.025 9.787,-1.997 l 0,0 c 1.397,0.012 2.735,0.224 4.013,0.926 l 0,0 c 1.125,0.614 1.582,1.181 1.615,1.77 l 0,0 c 0.027,0.408 -0.256,0.665 -0.66,0.578 l 0,0 c -3.415,-0.785 -6.672,-0.776 -10.071,-0.365 l 0,0 c -3.854,0.467 -7.553,1.428 -11.388,1.428 l 0,0 c 0,0 0,0 -0.01,0 m 5.889,-6.842 c -0.049,0.361 0.068,0.845 0.454,1.186 l 0,0 c 0.193,0.172 0.455,0.211 0.616,0.073 l 0,0 c 0.18,-0.154 0.095,-0.537 -0.087,-0.803 l 0,0 c -0.198,-0.293 -0.536,-0.546 -0.843,-0.607 l 0,0 c -0.01,-0.002 -0.017,-0.003 -0.025,-0.003 l 0,0 c -0.051,0 -0.093,0.036 -0.115,0.154" />
          </g>
        </g>
      </g>
    </g>
  </g>
</svg>
