<svg xmlns="http://www.w3.org/2000/svg" viewBox="0 0 266 100"><path fill="#3B5998" d="M0 0h266v100H0z"/><g fill="#FFF" fill-rule="evenodd" clip-rule="evenodd"><path d="M143.88 42.84c-3.287-.352-6.13.644-8.535 3.535V28.644l-8.705 1.054v41.04h8.705v-2.436c1.174.838 2.316 1.847 3.652 2.325 5.072 1.818 11.76.336 14.1-6.448 1.502-4.353 1.463-8.815.332-13.216-1.255-4.89-4.51-7.588-9.55-8.125zm1.3 17.773c-.382 2.706-2.536 4.124-5.093 3.925-.64-.05-1.217-.18-1.736-.384-2.06-1.183-2.683-3.164-2.864-4.408-.002 0-.004 0-.004.002-.14-1.925-.293-5.95.646-7.852.797-1.458 2.188-2.252 4.033-2.313 2.622-.086 4.605 1.214 4.995 3.874.346 2.344.362 4.814.026 7.156zM174.73 43.346c-3.024-.81-6.08-.8-9.097.005-4.52 1.204-7.55 4.064-8.525 8.613-.533 2.482-.64 5.12-.498 7.666.322 5.82 3.922 9.968 9.51 11.256.078.02.16.033.24.05h-.002l.04.01c.216.042.43.082.647.115l.217.02h.006c.27.05.596.087.938.114 1.094.116 2.486.2 3.648.062.008 0 .012-.002.018-.003.06 0 .12 0 .178-.005 5.77-.3 10.148-3.938 11.426-9.52.7-3.06.7-6.136.023-9.2-1.062-4.807-3.978-7.9-8.77-9.182zm.37 16.826c-.03.18-.06.36-.1.538-.58 2.568-2.444 3.958-4.93 3.842-2.675-.122-4.51-1.685-4.767-4.357-.186-1.952-.2-3.945-.04-5.898.255-3.083 2.183-4.77 5.075-4.712 2.377.046 4.07 1.393 4.674 3.678.548 2.3.14 6.386.087 6.91zM44.054 43.202H37.84V39.07c.455-3.906 6.907-3.164 6.907-3.164l.002-.267-.003-.03v-6.417h-.006c-.22-.054-12.833-3.047-15.338 6.552 0 .002 0 .005-.003.007l-.017.063c-.394 1.2-.367 6.696-.362 7.387h-5.384v7.35h5.72v19.99h8.327V50.55h6.37l.717-7.35h-.716zM63.915 46.718c-.102-.113-.203-.222-.29-.313-.014-.015-.025-.027-.04-.04-.12-.127-.205-.21-.205-.21-1.96-1.995-2.7-2.49-4.237-2.944-5.907-1.74-11.658 1.354-13.48 7.297-1.118 3.652-1.134 7.41-.478 11.11 1.417 8.008 7.374 10.69 13.723 9.368 1.948-.406 3.396-1.62 4.74-3.308 0 0 .12-.148.268-.436v3.525h8.124V43.233h-8.124v3.485zM63.2 60.573c-.272 2.546-2.332 4.075-4.767 3.98-2.495-.098-4.146-1.434-4.685-3.828-.646-3.406.11-7.453.174-7.78.652-2.287 2.315-3.418 4.755-3.36 2.396.053 4.243 1.47 4.513 3.953.253 2.322.26 4.712.01 7.035zM96.852 68.792c-.377-1.38-.806-2.74-1.22-4.053l-.393-1.462s-10.183 4.888-11.77-4.4c-.148-1.533-.103-3.115.108-4.628.396-2.855 2.138-4.384 4.91-4.646.935-.09 1.91-.044 2.836.113 1.262.213 2.494.593 3.875.934.48-1.468.97-2.92 1.427-4.384.072-.23.132-.427.18-.604l.23-.88c-.058-.116-.197-.237-.383-.355-.234-.195-.633-.358-1.256-.586-.25-.09-.5-.17-.75-.25-.223-.07-.37-.112-.37-.112h.002c-2.675-.765-5.42-.824-8.21-.53-5.88.62-9.872 4.09-10.98 9.82-.58 3.013-.553 6.064.114 9.087 1 4.527 3.743 7.452 8.204 8.76 2.91.853 5.894.896 8.862.433 1.248-.195 3.038-.842 4.323-1.303l.49-.172-.232-.783.002.002zM123.657 58.02c-.04-1.905-.013-3.82-.283-5.693-.743-5.136-3.87-8.386-8.927-9.235-1.93-.323-3.97-.28-5.932-.093-5.367.51-9.44 3.854-10.276 8.885-.508 3.052-.573 6.29-.163 9.356.62 4.612 2.864 7.55 6.748 8.96h.002c.017 0 .034.003.05.005v.003c1.772.53 10.45 2.8 18.098-1.044l-.307-1.126c-.003.002-.008.002-.01.002-.355-1.502-.78-2.988-1.182-4.477l-.043-.146s-.16.057-.44.147c-.007 0-.015 0-.02.002-.335.087-.665.19-.993.3-.06.02-.12.038-.182.056-1.158.326-2.813.728-4.56.953-1.468.148-2.95.154-4.446.026-2.43-.4-4.288-1.702-4.2-4.778h15.675c.113 0 .228 0 .34-.002v.002s1.023-.013 1.066-.023v-.304l-.016-1.775zm-7.83-3.753h-9.406c.05-1.87.284-3.61 1.947-4.67 1.766-1.12 3.717-1.163 5.533-.157 1.836 1.014 1.98 2.846 1.927 4.827zM242.362 43.52h-9.234l-8.02 12.538V28.67l-8.705 1.054v41.04h8.705v-12.56l8.02 12.58h9.234l-8.703-13.655M204.42 43.342c-3.024-.81-6.08-.8-9.1.004-4.517 1.204-7.546 4.063-8.522 8.61-.533 2.484-.64 5.122-.498 7.668.32 5.822 3.922 9.97 9.508 11.257.08.02.162.034.242.052h-.002l.04.008c.214.043.43.083.647.115.072.007.145.014.217.018.002.002.004.002.006.002.273.05.596.088.936.115 1.096.116 2.49.2 3.65.062l.018-.004c.06 0 .12 0 .176-.004 5.77-.3 10.15-3.94 11.428-9.52.7-3.06.7-6.137.025-9.2-1.064-4.808-3.978-7.9-8.77-9.182zm.368 16.825c-.03.182-.06.36-.1.54-.58 2.567-2.443 3.955-4.93 3.84-2.674-.124-4.508-1.686-4.766-4.357-.186-1.95-.203-3.944-.04-5.897.257-3.084 2.183-4.77 5.077-4.713 2.372.046 4.067 1.393 4.67 3.678.547 2.298.143 6.387.088 6.91z"/></g></svg>