<?xml version="1.0" encoding="UTF-8" standalone="no"?>
<!-- Created with Inkscape (http://www.inkscape.org/) -->
<svg
   xmlns:svg="http://www.w3.org/2000/svg"
   xmlns="http://www.w3.org/2000/svg"
   version="1.0"
   width="180"
   height="26"
   viewBox="0 0 172.521 23.625"
   id="Layer_1"
   xml:space="preserve"><defs
   id="defs16" />
<g
   transform="matrix(0.974265,0,0,0.974265,2.3121471,0.3039573)"
   id="g3">
	<rect
   width="32.952"
   height="23.504999"
   x="0"
   y="0"
   id="rect5" />
	<polygon
   points="0,7.531 0,19.66 5.342,19.627 5.342,16.632 11.563,16.632 11.563,13.598 5.342,13.598 5.342,10.526 11.525,10.526 11.525,7.531 0,7.531 "
   id="polygon7"
   style="fill:#00aeef" />
	<polygon
   points="11.602,10.603 20.511,10.603 22.315,14.865 24.082,10.641 32.836,10.603 32.914,19.627 26.77,19.627 26.77,19.665 26.77,13.675 24.236,19.627 20.28,19.627 17.823,13.561 11.602,13.561 11.602,10.603 "
   id="polygon9"
   style="fill:#00aeef" />
	<polygon
   points="11.602,16.67 11.602,19.627 17.861,19.627 17.861,16.632 11.602,16.67 "
   id="polygon11"
   style="fill:#00aeef" />
	<path
   d="M 69.065,18.084 C 69.065,19.215 68.375,19.171 68.375,19.171 L 67.732,19.171 L 67.732,17.1 L 68.513,17.1 C 69.203,17.291 69.065,18.084 69.065,18.084 M 70.077,15.648 L 64.918,15.648 L 64.918,23.349 L 67.731,23.349 L 67.731,20.683 L 69.735,20.683 C 72.05,20.295 71.787,18.077 71.787,18.077 C 71.895,15.828 70.077,15.648 70.077,15.648 M 132.637,17.703 L 132.637,21.359 C 132.666,21.962 132.116,22.049 132.116,22.049 L 131.289,22.049 L 131.289,17.114 L 132.3,17.1 C 132.698,17.277 132.637,17.703 132.637,17.703 M 133.204,15.661 L 128.5,15.661 L 128.5,23.328 L 133.234,23.328 C 135.255,23.123 135.38,21.007 135.38,21.007 C 135.502,19.627 135.38,18.29 135.38,18.29 C 135.456,15.896 133.204,15.661 133.204,15.661 M 124.563,15.646 L 121.757,15.646 L 121.757,23.342 L 127.411,23.342 L 127.411,21.756 L 124.561,21.756 L 124.563,15.646 L 124.563,15.646 z M 117.606,21.654 C 117.606,21.654 117.575,22.183 116.993,22.064 C 116.993,22.064 116.441,22.152 116.38,21.638 L 116.38,17.365 C 116.38,17.365 116.334,16.865 116.962,16.939 C 116.962,16.939 117.638,16.792 117.608,17.378 L 117.606,21.654 L 117.606,21.654 z M 119.89,16.482 C 119.139,15.469 116.994,15.573 116.994,15.573 C 114.879,15.617 114.39,16.219 114.39,16.219 C 113.377,16.865 113.517,19.524 113.517,19.524 C 113.394,21.801 114.128,22.419 114.128,22.419 C 114.986,23.579 117.024,23.388 117.024,23.388 C 119.444,23.711 120.149,22.037 120.149,22.037 C 120.546,21.141 120.502,19.334 120.502,19.334 C 120.472,16.748 119.89,16.482 119.89,16.482 M 107.953,20.699 L 108.566,20.699 L 108.566,21.271 C 108.443,22.005 107.585,21.83 107.585,21.83 C 106.957,21.889 106.806,21.213 106.806,21.213 L 106.806,16.307 C 106.957,15.559 107.725,15.705 107.725,15.705 C 108.627,15.601 108.598,16.337 108.598,16.337 L 108.598,17.174 L 112.153,17.174 C 112.23,14.75 110.146,14.28 110.146,14.28 C 107.939,13.619 105.763,14.089 105.763,14.089 C 102.958,14.662 103.281,17.557 103.281,17.557 C 103.128,19.333 103.281,20.332 103.281,20.332 C 103.327,22.139 104.492,22.945 104.492,22.945 C 105.411,23.681 106.913,23.562 106.913,23.562 C 107.74,23.562 108.169,23.416 108.169,23.416 C 109.351,22.857 109.732,22.977 109.732,22.977 C 110.498,22.873 110.667,23.343 110.667,23.343 L 112.168,23.343 L 112.168,18.805 L 107.97,18.805 L 107.953,20.699 z M 95.082,22.036 C 95.082,22.036 94.898,22.271 94.439,22.271 L 93.872,22.271 C 93.872,22.271 93.443,22.138 93.397,21.712 L 93.397,21.006 C 93.397,21.006 93.425,20.61 93.764,20.61 C 93.764,20.61 93.902,20.315 95.08,21.637 L 95.082,22.036 L 95.082,22.036 z M 94.071,16.792 C 94.071,16.792 94.822,16.777 94.822,17.365 C 94.822,17.365 95.005,17.908 94.193,18.23 L 94.01,18.23 C 94.01,18.23 93.335,17.892 93.381,17.409 C 93.381,17.409 93.306,16.762 94.071,16.792 M 97.825,21.109 L 98.882,19.64 L 96.724,19.626 L 96.57,19.905 L 96.34,19.905 L 95.59,19.303 L 95.59,19.037 C 95.59,19.037 97.26,18.215 97.122,17.01 C 97.122,17.01 97.122,15.483 94.226,15.468 C 94.226,15.468 91.466,15.233 91.052,16.995 C 91.052,16.995 90.792,17.759 92.188,18.949 L 92.188,19.183 C 92.188,19.183 90.641,19.948 90.641,21.343 C 90.641,21.343 90.411,23.369 93.199,23.56 C 93.199,23.56 94.824,23.87 96.263,23.105 L 96.66,23.105 L 96.89,23.326 L 99.893,23.326 L 97.825,21.357 L 97.825,21.109 L 97.825,21.109 z M 84.142,17.761 C 84.142,18.731 83.636,18.584 83.636,18.584 L 82.901,18.584 L 82.901,16.88 L 83.652,16.88 C 84.249,16.88 84.142,17.761 84.142,17.761 M 85.429,19.45 L 85.429,19.157 C 85.429,19.157 86.9,18.878 86.946,17.687 L 86.946,17.085 C 86.946,17.085 86.884,15.808 85.337,15.646 C 85.337,15.646 85.123,15.573 80.082,15.573 L 80.082,23.343 L 82.887,23.343 L 82.887,20.038 L 83.653,20.038 C 83.653,20.038 84.143,20.066 84.143,20.508 L 84.143,23.328 L 86.961,23.328 L 86.961,20.611 C 86.961,20.611 86.686,19.523 85.429,19.45 M 73.018,23.343 L 78.611,23.343 L 78.611,21.742 L 75.776,21.742 L 75.776,20.185 L 78.457,20.185 L 78.457,18.745 L 75.776,18.745 L 75.776,17.247 L 78.611,17.247 L 78.611,15.646 L 73.033,15.646 L 73.018,23.343 z M 60.791,18.202 C 60.791,19.509 59.534,19.171 59.534,19.171 L 59.534,17.07 C 61.082,16.807 60.791,18.202 60.791,18.202 M 61.848,15.676 L 56.639,15.647 L 56.639,23.343 L 59.457,23.343 L 59.457,20.699 L 61.525,20.699 C 61.525,20.699 63.211,20.552 63.471,18.73 C 63.471,18.73 63.594,17.775 63.409,17.041 C 63.411,17.041 63.288,15.91 61.848,15.676 M 52.425,21.551 C 52.425,21.551 52.41,21.992 52.088,22.036 L 51.522,22.05 C 51.522,22.05 51.185,22.006 51.185,21.727 L 51.185,17.395 C 51.185,17.395 51.185,17.028 51.522,16.954 L 52.088,16.94 C 52.088,16.94 52.425,16.968 52.425,17.526 L 52.425,21.551 z M 54.386,16.189 C 53.466,15.351 50.8,15.617 50.8,15.617 C 48.349,15.793 48.303,18.099 48.303,18.099 C 48.227,19.332 48.319,20.757 48.319,20.757 C 48.456,22.138 49.054,22.607 49.054,22.607 C 49.666,23.224 50.539,23.342 50.539,23.342 C 50.953,23.459 52.838,23.386 52.838,23.386 C 53.742,23.24 54.278,22.872 54.278,22.872 C 55.075,22.183 55.197,21.212 55.197,21.212 L 55.213,18.024 C 55.198,16.689 54.386,16.189 54.386,16.189 M 43.875,13.839 C 43.875,13.839 41.516,13.751 41.163,13.957 C 41.163,13.957 38.865,14.207 38.589,16.454 C 38.589,16.454 38.513,19.744 38.605,21.037 C 38.605,21.037 38.774,23.314 42.068,23.46 C 42.068,23.46 44.535,23.71 46.051,22.652 C 46.051,22.652 47.109,21.933 47.047,20.288 L 43.538,20.288 L 43.538,21.213 C 43.538,21.213 43.507,21.698 42.804,21.698 C 42.804,21.698 41.976,21.726 41.976,21.228 L 41.976,16.101 C 41.976,16.101 42.068,15.455 42.696,15.542 C 42.696,15.542 43.462,15.396 43.554,16.042 L 43.538,17.026 L 47.047,17.026 C 47.047,17.027 47.415,14.118 43.875,13.839 M 159.222,7.582 L 159.787,4.585 L 159.909,4.585 L 160.584,7.582 L 159.222,7.582 z M 157.935,2.72 L 155.926,10.417 L 158.609,10.417 L 158.9,9.021 L 160.892,9.021 L 161.229,10.417 L 163.956,10.417 L 161.935,2.72 L 157.935,2.72 L 157.935,2.72 z M 151.561,3.014 L 151.561,4.042 C 151.561,4.674 150.978,4.629 150.978,4.629 L 150.088,4.629 L 150.088,2.411 L 150.992,2.411 C 151.59,2.529 151.561,3.014 151.561,3.014 M 153.322,5.584 L 153.23,5.511 L 153.23,5.276 L 153.276,5.202 C 155.528,4.835 155.16,2.867 155.16,2.867 C 155.16,0.899 152.97,0.737 152.97,0.737 L 146.503,0.737 L 146.503,10.417 L 150.089,10.417 L 150.089,6.377 L 151.039,6.377 C 151.652,6.377 151.638,7.068 151.638,7.068 L 151.638,10.417 L 155.224,10.417 L 155.224,7.303 C 155.038,5.584 153.322,5.584 153.322,5.584 M 142.566,8.713 C 142.566,8.713 142.581,9.139 141.983,9.139 C 141.983,9.139 141.248,9.227 141.263,8.728 L 141.292,4.718 C 141.292,4.718 141.263,4.027 141.675,4.027 L 142.242,4.027 C 142.242,4.027 142.564,4.115 142.564,4.571 L 142.566,8.713 L 142.566,8.713 z M 144.695,3.425 C 143.684,2.529 141.891,2.632 141.891,2.632 C 140.987,2.632 140.191,2.823 140.191,2.823 C 139.271,3.102 138.904,3.778 138.904,3.778 C 138.612,4.057 138.459,5.276 138.459,5.276 L 138.459,7.817 C 138.628,9.389 139.409,9.859 139.409,9.859 C 140.129,10.549 141.937,10.534 141.937,10.534 C 143.531,10.534 144.25,10.05 144.25,10.05 C 145.309,9.462 145.415,7.846 145.415,7.846 L 145.415,5.672 C 145.385,3.983 144.695,3.425 144.695,3.425 M 131.564,5.614 L 131.256,5.614 L 130.2,0.737 L 125.434,0.737 L 125.434,10.431 L 128.56,10.431 L 128.438,4.703 L 128.483,4.629 L 128.589,4.644 L 128.729,4.718 L 130.246,10.417 L 132.559,10.417 L 134.043,4.659 L 134.12,4.615 L 134.259,4.615 L 134.335,4.659 L 134.259,10.417 L 137.368,10.417 L 137.368,0.752 L 132.588,0.752 L 131.564,5.614 z M 119.89,10.461 L 121.926,10.461 C 121.926,10.461 124.408,10.402 124.394,8.008 L 121.682,8.008 L 121.682,8.728 C 121.682,8.728 121.728,9.139 120.978,9.139 C 120.978,9.139 120.349,9.212 120.349,8.801 L 120.349,4.556 C 120.349,4.556 120.395,4.16 120.993,4.16 C 120.993,4.16 121.682,4.086 121.682,4.718 L 121.698,5.408 L 124.41,5.408 C 124.41,5.408 124.686,2.94 121.652,2.867 C 121.652,2.867 120.104,2.882 120.012,2.882 C 119.918,2.882 117.712,3.175 117.712,4.923 C 117.712,4.923 117.589,6.495 117.683,8.507 C 117.683,8.507 117.759,10.138 119.89,10.461 M 116.61,10.417 L 116.61,0.737 L 111.768,0.737 L 110.772,5.672 L 110.496,5.672 L 109.424,0.737 L 104.674,0.737 L 104.674,10.417 L 107.754,10.417 L 107.662,4.864 L 107.754,4.629 L 107.953,4.85 L 109.439,10.387 L 111.845,10.387 L 113.239,4.762 L 113.468,4.585 L 113.562,4.776 L 113.499,10.417 L 116.61,10.417 L 116.61,10.417 z M 93.643,4.321 L 93.643,10.417 L 96.46,10.417 L 96.46,4.321 L 98.515,4.321 L 98.515,2.72 L 91.65,2.72 L 91.665,4.321 L 93.643,4.321 z M 87.957,4.585 L 87.957,5.07 C 87.957,5.761 87.375,5.746 87.375,5.746 L 86.731,5.746 L 86.731,3.954 L 87.419,3.939 C 88.003,3.939 87.957,4.585 87.957,4.585 M 90.777,10.402 L 90.777,7.817 L 90.746,7.729 C 90.485,6.451 89.244,6.539 89.244,6.539 L 89.244,6.231 C 90.838,5.952 90.731,4.894 90.731,4.894 L 90.731,4.057 C 90.64,2.823 89.336,2.72 89.336,2.72 L 83.835,2.72 L 83.835,10.417 L 86.731,10.417 L 86.731,7.112 L 87.482,7.112 C 87.925,7.112 87.988,7.567 87.988,7.567 L 87.988,10.402 L 90.777,10.402 L 90.777,10.402 z M 80.219,8.713 C 80.219,8.713 80.235,9.139 79.637,9.139 C 79.637,9.139 78.902,9.227 78.916,8.728 L 78.947,4.718 C 78.947,4.718 78.916,4.027 79.33,4.027 L 79.897,4.027 C 79.897,4.027 80.218,4.115 80.218,4.571 L 80.218,8.713 L 80.219,8.713 z M 82.579,9.55 C 82.579,9.55 83.115,8.919 83.177,7.567 L 83.177,5.584 C 83.177,5.584 83.101,4.086 82.595,3.587 C 82.595,3.587 82.089,2.823 80.696,2.705 L 78.658,2.705 C 78.658,2.705 77.248,2.823 76.773,3.572 C 76.773,3.572 76.343,3.851 76.174,5.114 L 76.174,8.023 C 76.174,8.023 76.374,9.242 77.002,9.727 C 77.002,9.727 77.416,10.285 78.58,10.476 C 78.58,10.476 80.036,10.622 80.924,10.446 C 80.924,10.446 81.905,10.373 82.579,9.55 M 71.562,4.174 L 72.251,4.16 C 72.804,4.16 72.804,4.703 72.804,4.703 L 72.804,5.643 C 72.574,6.568 71.562,6.319 71.562,6.319 L 71.562,4.174 z M 71.486,7.758 L 73.6,7.758 C 73.6,7.758 75.531,7.611 75.531,5.511 L 75.531,4.703 C 75.531,4.703 75.669,2.984 73.738,2.749 L 73.6,2.72 L 68.665,2.72 L 68.665,10.417 L 71.485,10.417 L 71.485,7.758 L 71.486,7.758 z M 67.425,8.816 L 64.667,8.816 L 64.667,7.259 L 67.272,7.259 L 67.272,5.805 L 64.667,5.805 L 64.667,4.321 L 67.425,4.321 L 67.425,2.72 L 61.849,2.72 L 61.849,10.417 L 67.425,10.417 L 67.425,8.816 z M 60.76,8.816 L 57.926,8.816 L 57.926,7.259 L 60.608,7.259 L 60.608,5.805 L 57.926,5.805 L 57.926,4.321 L 60.76,4.321 L 60.76,2.72 L 55.107,2.72 L 55.107,10.417 L 60.76,10.417 L 60.76,8.816 z M 49.991,4.035 L 50.741,4.035 C 51.339,4.035 51.232,4.916 51.232,4.916 C 51.232,5.885 50.726,5.738 50.726,5.738 L 49.991,5.738 L 49.991,4.035 z M 49.958,7.112 L 50.679,7.112 C 50.679,7.112 51.277,7.112 51.277,7.626 L 51.277,10.417 L 54.02,10.417 L 54.02,7.509 C 54.02,7.509 53.575,6.568 52.472,6.568 L 52.472,6.216 C 52.472,6.216 53.989,5.996 53.989,4.879 L 53.989,3.954 C 53.989,3.954 53.836,2.999 52.64,2.735 L 47.14,2.735 L 47.14,10.417 L 49.958,10.417 L 49.958,7.112 L 49.958,7.112 z M 42.833,6.451 L 46.204,6.451 L 46.204,4.644 L 42.833,4.644 L 42.833,2.779 L 46.357,2.779 L 46.357,0.737 L 39.248,0.737 L 39.248,10.417 L 42.833,10.417 L 42.833,6.451 z M 170.023,2.72 L 170.115,6.686 L 169.809,6.686 L 168.108,2.72 L 164.752,2.72 L 164.752,10.402 L 167.173,10.402 L 167.173,6.51 L 167.39,6.51 L 168.751,10.417 L 172.522,10.417 L 172.522,2.72 L 170.023,2.72 z"
   id="path13" />
</g>
</svg>