<?xml version="1.0" encoding="UTF-8" standalone="no"?>
<!-- Created with Inkscape (http://www.inkscape.org/) -->

<svg
   xmlns:dc="http://purl.org/dc/elements/1.1/"
   xmlns:cc="http://creativecommons.org/ns#"
   xmlns:rdf="http://www.w3.org/1999/02/22-rdf-syntax-ns#"
   xmlns:svg="http://www.w3.org/2000/svg"
   xmlns="http://www.w3.org/2000/svg"
   xmlns:sodipodi="http://sodipodi.sourceforge.net/DTD/sodipodi-0.dtd"
   xmlns:inkscape="http://www.inkscape.org/namespaces/inkscape"
   width="168.78"
   height="40.630001"
   id="svg2"
   version="1.1"
   inkscape:version="0.47 r22583"
   sodipodi:docname="New document 1">
  <defs
     id="defs4">
    <inkscape:perspective
       sodipodi:type="inkscape:persp3d"
       inkscape:vp_x="0 : 526.18109 : 1"
       inkscape:vp_y="0 : 1000 : 0"
       inkscape:vp_z="744.09448 : 526.18109 : 1"
       inkscape:persp3d-origin="372.04724 : 350.78739 : 1"
       id="perspective10" />
    <clipPath
       id="clipPath2916"
       clipPathUnits="userSpaceOnUse">
      <path
         id="path2918"
         d="M 0,0 612,0 612,792 0,792 0,0 z" />
    </clipPath>
    <clipPath
       id="clipPath2854"
       clipPathUnits="userSpaceOnUse">
      <path
         id="path2856"
         d="m 71.124,384.77 133.421,0 0,30.904 -133.421,0 0,-30.904 z" />
    </clipPath>
    <clipPath
       id="clipPath2838"
       clipPathUnits="userSpaceOnUse">
      <path
         id="path2840"
         d="M 0,0 612,0 612,792 0,792 0,0 z" />
    </clipPath>
    <inkscape:perspective
       id="perspective2824"
       inkscape:persp3d-origin="0.5 : 0.33333333 : 1"
       inkscape:vp_z="1 : 0.5 : 1"
       inkscape:vp_y="0 : 1000 : 0"
       inkscape:vp_x="0 : 0.5 : 1"
       sodipodi:type="inkscape:persp3d" />
  </defs>
  <sodipodi:namedview
     id="base"
     pagecolor="#ffffff"
     bordercolor="#666666"
     borderopacity="1.0"
     inkscape:pageopacity="0.0"
     inkscape:pageshadow="2"
     inkscape:zoom="4.4385179"
     inkscape:cx="104.07233"
     inkscape:cy="17.739602"
     inkscape:document-units="px"
     inkscape:current-layer="layer1"
     showgrid="false"
     inkscape:window-width="1680"
     inkscape:window-height="1000"
     inkscape:window-x="-8"
     inkscape:window-y="-8"
     inkscape:window-maximized="1" />
  <metadata
     id="metadata7">
    <rdf:RDF>
      <cc:Work
         rdf:about="">
        <dc:format>image/svg+xml</dc:format>
        <dc:type
           rdf:resource="http://purl.org/dc/dcmitype/StillImage" />
        <dc:title></dc:title>
      </cc:Work>
    </rdf:RDF>
  </metadata>
  <g
     inkscape:label="Layer 1"
     inkscape:groupmode="layer"
     id="layer1"
     transform="translate(1097.3448,-167.35089)">
    <path
       id="path2860"
       style="fill:#1a5dad;fill-opacity:1;fill-rule:nonzero;stroke:none"
       d="m -1097.3448,197.71374 c 43.165,-3.65625 122.385,-7.11875 148.7525,4.9575 l -0.82875,4.63375 c -28.19625,-15.70125 -142.02875,-9.895 -147.92375,-9.59125" />
    <path
       id="path2864"
       style="fill:#231f20;fill-opacity:1;fill-rule:evenodd;stroke:none"
       d="m -1070.5475,192.77274 4.33,0 2.4025,-17.10125 -4.3288,0 -2.4037,17.10125 z" />
    <path
       id="path2868"
       style="fill:#231f20;fill-opacity:1;fill-rule:evenodd;stroke:none"
       d="m -1064.6917,192.77274 4.33,0 1.1637,-8.28 c 0.5213,-3.7175 3.3688,-5.03625 6.3138,-5.03625 l 0.5887,-4.19 c -2.5187,0 -4.62,0.81125 -5.925,2.77125 l -0.071,0 0.3325,-2.36625 -4.3288,0 -2.4037,17.10125 z" />
    <path
       id="path2872"
       style="fill:#231f20;fill-opacity:1;fill-rule:evenodd;stroke:none"
       d="m -1037.6717,178.04861 c -0.7088,-1.01375 -2.6863,-3.11 -6.98,-3.11 -4.435,0 -8.1863,1.69 -8.7275,5.5425 -0.9113,6.48875 10.5325,4.09 10.1237,6.99625 -0.1275,0.9125 -1.6987,1.99375 -3.7575,1.99375 -2.3062,0 -4.0825,-0.7425 -4.8812,-2.12875 l -3.6025,2.39875 c 1.355,1.72375 4.035,3.11 8.2575,3.11 4.1162,0 8.245,-1.85875 8.825,-5.98125 0.9062,-6.455 -10.7688,-3.92125 -10.3513,-6.895 0.1425,-1.01375 1.515,-1.69 3.5325,-1.65625 2.555,0 3.79,1.31875 4.165,2.43375 l 3.3963,-2.70375 z" />
    <path
       id="path2876"
       style="fill:#231f20;fill-opacity:1;fill-rule:evenodd;stroke:none"
       d="m -1038.178,188.66349 c -0.3663,2.6025 0.6275,4.12375 4.1762,4.12375 1.3475,0 2.4413,-0.2025 3.4988,-0.40625 l 0.475,-3.37875 c -0.6488,0.0662 -1.3413,0.2025 -1.945,0.2025 -1.6688,0 -1.8475,-0.74375 -1.6575,-2.09625 l 1.2162,-8.65125 3.8675,0 0.4188,-2.97375 -3.8688,0 0.715,-5.085 -4.33,0 -2.5662,18.265 z" />
    <path
       id="path2880"
       style="fill:#231f20;fill-opacity:1;fill-rule:evenodd;stroke:none"
       d="m -1088.4323,192.78699 4.7687,0 1.4813,-10.4575 12.065,0 0.5612,-3.9875 -12.065,0 0.7688,-5.475 13.13,0 0.5887,-4.19125 -17.885,0 -3.4137,24.11125 z" />
    <path
       id="path2884"
       style="fill:#231f20;fill-opacity:1;fill-rule:evenodd;stroke:none"
       d="m -1029.3383,192.77274 18.8075,0 0.5888,-4.19125 -14.0525,0 0.8737,-6.2175 12.065,0 0.56,-3.98875 -12.0637,0 0.7687,-5.475 13.13,0 0.5888,-4.19 -17.8851,0 -3.3812,24.0625 z" />
    <path
       id="path2888"
       style="fill:#231f20;fill-opacity:1;fill-rule:evenodd;stroke:none"
       d="m -1009.5683,192.77274 4.33,0 1.2675,-9.02375 c 0.4413,-3.1425 2.37,-4.495 4.46375,-4.495 2.23625,0 2.7675,1.52125 2.54875,3.07625 l -1.4675,10.4425 4.32875,0 1.64375,-11.69375 c 0.5275,-3.75125 -1.09875,-5.8125 -5.3575,-5.8125 -1.73875,0 -3.705,0.60875 -5.1913,2.095 l -0.071,0 0.2375,-1.69 -4.33,0 -2.4025,17.10125 z" />
    <path
       id="path2892"
       style="fill:#231f20;fill-opacity:1;fill-rule:evenodd;stroke:none"
       d="m -987.32928,182.02549 c 0.7175,-1.825 2.60375,-3.38 5.12375,-3.38 2.91,0 3.73375,2.4675 3.605,3.38 l -8.72875,0 z m 12.825,2.85 c 0.85875,-6.1175 -1.23,-9.93625 -7.22625,-9.93625 -5.82,0 -9.7325,3.8525 -10.45,8.95625 -0.7175,5.1025 2.1125,8.955 7.9325,8.955 4.8975,0 7.80125,-2.23 9.425,-4.19 l -3.37,-2.0275 c -0.5075,0.57375 -2.11625,2.4325 -5.5225,2.4325 -2.3425,0 -4.34625,-1.655 -4.06,-4.19 l 13.27125,0 z" />
    <path
       id="path2896"
       style="fill:#231f20;fill-opacity:1;fill-rule:evenodd;stroke:none"
       d="m -974.66152,192.77274 4.33,0 1.1625,-8.28 c 0.5225,-3.7175 3.37,-5.03625 6.315,-5.03625 l 0.58875,-4.19 c -2.52,0 -4.62,0.81125 -5.925,2.77125 l -0.0712,0 0.3325,-2.36625 -4.32875,0 -2.40375,17.10125 z" />
    <path
       id="path2900"
       style="fill:#231f20;fill-opacity:1;fill-rule:evenodd;stroke:none"
       d="m -951.7344,183.58011 c -0.29125,1.825 -1.63,4.52875 -4.895,4.52875 -3.26375,0 -3.8425,-2.70375 -3.62125,-4.52875 0.29125,-1.825 1.63,-4.52875 4.895,-4.52875 3.26375,0 3.8425,2.70375 3.62125,4.52875 m 5.29875,-7.90875 -4.32875,0 -0.2325,1.65625 -0.0712,0 c -0.89375,-1.21625 -2.15875,-2.06125 -4.75,-2.06125 -4.47,0 -8.25375,3.17625 -8.975,8.31375 -0.72125,5.13625 2.1675,8.31375 6.63875,8.31375 1.56125,0 3.7925,-0.47375 5.375,-1.8925 l -0.25625,1.825 c -0.29375,2.095 -1.76125,3.4475 -4.565,3.4475 -2.165,0 -3.2375,-0.94625 -3.39125,-2.13 l -4.54125,0 c -0.3,2.13 0.88625,5.30625 6.56375,5.30625 5.465,0 9.49875,-1.1825 10.1825,-6.04875 l 2.35125,-16.73 z" />
    <path
       id="path2904"
       style="fill:#231f20;fill-opacity:1;fill-rule:evenodd;stroke:none"
       d="m -930.56853,175.67187 -4.47125,0 -5.11875,12.43625 -0.0712,0 -2.12,-12.43625 -4.64875,0 3.99375,17.54 c -0.685,1.08125 -1.23375,1.45375 -2.6175,1.45375 l -1.70625,0.0175 -0.52625,3.75 2.5875,0.0175 c 3.1225,0 4.755,-1.01375 6.19125,-4.1575 l 8.5075,-18.62125 z" />
    <path
       id="path2908"
       style="fill:#231f20;fill-opacity:1;fill-rule:evenodd;stroke:none"
       d="m -934.8504,194.44011 c 0.36875,0 0.63875,0.0362 0.81,0.1075 0.3075,0.1275 0.46125,0.3775 0.46125,0.75125 0,0.265 -0.0975,0.46125 -0.29125,0.58625 -0.10375,0.0662 -0.2475,0.11375 -0.43125,0.14375 0.23375,0.0362 0.405,0.13375 0.5125,0.29125 0.1075,0.15625 0.1625,0.31 0.1625,0.46 l 0,0.2175 c 0,0.0687 0.001,0.1425 0.008,0.22125 0.004,0.0787 0.0125,0.13 0.025,0.155 l 0.0188,0.0362 -0.49,0 c -0.003,-0.01 -0.005,-0.02 -0.008,-0.0288 -0.002,-0.01 -0.005,-0.0213 -0.008,-0.0337 l -0.0112,-0.0962 0,-0.235 c 0,-0.34375 -0.0925,-0.57125 -0.28,-0.6825 -0.11,-0.0637 -0.30375,-0.095 -0.58125,-0.095 l -0.41375,0 0,1.17125 -0.5225,0 0,-2.97 1.03875,0 z m 0.56,0.46875 c -0.13,-0.0738 -0.34,-0.11125 -0.63,-0.11125 l -0.44625,0 0,1.07625 0.4725,0 c 0.22,0 0.38625,-0.0225 0.49625,-0.0662 0.205,-0.0813 0.30625,-0.23625 0.30625,-0.465 0,-0.21625 -0.0663,-0.36 -0.19875,-0.43375 m 1.4075,2.94375 c -0.5275,0.53 -1.16625,0.79625 -1.91625,0.79625 -0.74875,0 -1.38625,-0.26625 -1.9125,-0.79625 -0.5225,-0.52875 -0.785,-1.1675 -0.785,-1.92 0,-0.745 0.265,-1.38 0.7925,-1.90875 0.52625,-0.52625 1.16125,-0.78875 1.905,-0.78875 0.75,0 1.38875,0.2625 1.91625,0.78875 0.52875,0.52625 0.7925,1.1625 0.7925,1.90875 0,0.74875 -0.26375,1.38875 -0.7925,1.92 m -3.55875,-3.5675 c -0.45375,0.455 -0.67875,1.00375 -0.67875,1.6475 0,0.64875 0.225,1.20125 0.675,1.6575 0.45125,0.4575 1.00125,0.68625 1.64625,0.68625 0.64625,0 1.195,-0.22875 1.6475,-0.68625 0.45125,-0.45625 0.6775,-1.00875 0.6775,-1.6575 0,-0.64375 -0.22625,-1.1925 -0.6775,-1.6475 -0.455,-0.45625 -1.00375,-0.685 -1.6475,-0.685 -0.64125,0 -1.18875,0.22875 -1.6425,0.685" />
  </g>
</svg>
