<?xml version="1.0" encoding="UTF-8" standalone="no"?>
<svg
   xmlns:dc="http://purl.org/dc/elements/1.1/"
   xmlns:cc="http://creativecommons.org/ns#"
   xmlns:rdf="http://www.w3.org/1999/02/22-rdf-syntax-ns#"
   xmlns:svg="http://www.w3.org/2000/svg"
   xmlns="http://www.w3.org/2000/svg"
   xmlns:sodipodi="http://sodipodi.sourceforge.net/DTD/sodipodi-0.dtd"
   xmlns:inkscape="http://www.inkscape.org/namespaces/inkscape"
   width="339.38342"
   height="205.76309"
   viewBox="0 0 194 194"
   id="svg2"
   sodipodi:version="0.32"
   inkscape:version="0.46"
   sodipodi:docname="Foot Locker logo.svg"
   inkscape:output_extension="org.inkscape.output.svg.inkscape"
   version="1.0">
  <metadata
     id="metadata75">
    <rdf:RDF>
      <cc:Work
         rdf:about="">
        <dc:format>image/svg+xml</dc:format>
        <dc:type
           rdf:resource="http://purl.org/dc/dcmitype/StillImage" />
      </cc:Work>
    </rdf:RDF>
  </metadata>
  <defs
     id="defs73">
    <inkscape:perspective
       sodipodi:type="inkscape:persp3d"
       inkscape:vp_x="0 : 121.25 : 1"
       inkscape:vp_y="0 : 1000 : 0"
       inkscape:vp_z="242.5 : 121.25 : 1"
       inkscape:persp3d-origin="121.25 : 80.833333 : 1"
       id="perspective77" />
    <inkscape:perspective
       id="perspective2457"
       inkscape:persp3d-origin="372.04724 : 350.78739 : 1"
       inkscape:vp_z="744.09448 : 526.18109 : 1"
       inkscape:vp_y="0 : 1000 : 0"
       inkscape:vp_x="0 : 526.18109 : 1"
       sodipodi:type="inkscape:persp3d" />
  </defs>
  <sodipodi:namedview
     inkscape:window-height="667"
     inkscape:window-width="636"
     inkscape:pageshadow="2"
     inkscape:pageopacity="0.0"
     guidetolerance="10.0"
     gridtolerance="10.0"
     objecttolerance="10.0"
     borderopacity="1.0"
     bordercolor="#666666"
     pagecolor="#ffffff"
     id="base"
     showgrid="false"
     inkscape:zoom="15.241237"
     inkscape:cx="332.32873"
     inkscape:cy="-11.358064"
     inkscape:window-x="202"
     inkscape:window-y="207"
     inkscape:current-layer="svg2" />
  <g
     id="g2463"
     transform="matrix(1.7101739,0,0,1.7101739,-68.281611,-68.991499)">
    <g
       id="g12"
       style="fill:#ffffff;fill-rule:evenodd;stroke:none;stroke-width:1;stroke-linecap:butt;stroke-linejoin:miter;stroke-dasharray:none"
       transform="translate(46.7686,40.3418)">
      <path
         id="path14"
         d="M 7.6142,42.4121 C 7.6142,42.4121 1.9335,46.5937 1.9335,46.5937 C 1.9335,46.5937 0.1181,49.75 0.1181,49.75 C 0.1181,49.75 0,54.7207 0,54.7207 C 0,54.7207 3.038,61.0332 3.038,61.0332 C 3.038,61.0332 8.1279,66.1622 8.1279,66.1622 C 8.1279,66.1622 26.6699,77.4062 26.6699,77.4062 C 26.6699,77.4062 26.9462,77.9202 26.9462,77.9202 C 26.9462,77.9202 25.4082,82.4572 25.4082,82.4572 C 25.4082,82.4572 68.2534,82.4572 68.2534,82.4572 C 68.2534,82.4572 68.3724,80.5622 68.3724,80.5622 C 68.3724,80.5622 70.3054,79.9712 70.3054,79.9712 C 70.3054,79.9712 91.8474,67.1092 91.8474,67.1092 C 91.8474,67.1092 98.9484,59.8492 98.9484,59.8492 C 98.9484,59.8492 98.3964,55.9443 98.3964,55.9443 C 98.3964,55.9443 93.2284,48.6455 93.2284,48.6455 C 93.2284,48.6455 87.4274,43.5557 87.4274,43.5557 C 87.4274,43.5557 85.7714,41.5439 85.7714,41.5439 C 85.7714,41.5439 78.1964,36.2969 78.1964,36.2969 C 78.1964,36.2969 69.0824,32.0752 69.0824,32.0752 C 67.7414,31.4434 66.0444,30.8125 63.8354,30.2207 C 63.8354,30.2207 61.6264,29.2734 61.6264,29.2734 C 62.4554,28.6426 62.9274,27.8145 62.9664,26.7881 C 63.0064,26.1572 62.8884,25.4863 62.4554,24.7363 C 62.4554,24.7363 63.5584,23.0801 63.5584,23.0801 C 63.5584,23.0801 63.1644,20.9102 63.1644,20.9102 C 63.1644,20.9102 64.4664,19.2139 64.4664,19.2139 C 64.4664,19.2139 64.8224,18.4639 64.8224,18.4639 C 64.8224,18.4639 64.0724,16.2939 64.0724,16.2939 C 64.0724,16.2939 62.4554,15.0312 62.4554,15.0312 C 62.4154,13.7686 62.1384,12.2305 61.5074,10.376 C 61.5074,10.376 62.5724,7.6934 62.5724,7.6934 C 62.5724,7.6934 62.5724,6.4697 62.5724,6.4697 C 62.1384,4.1816 61.6264,2.8008 61.0344,2.3672 C 61.0344,2.3672 59.6534,1.1836 59.6534,1.1836 C 59.6534,1.1836 56.6154,1.2617 56.6154,1.2617 C 55.3134,0.6309 53.7354,0.1572 51.9199,0 C 51.9199,0 49.2773,0.2764 49.2773,0.2764 C 49.2773,0.2764 47.2646,0.7891 47.2646,0.7891 C 47.2646,0.7891 44.1875,1.1045 44.1875,1.1045 C 43.7539,1.1045 43.3593,1.2617 43.083,1.6172 C 43.083,1.6172 41.4257,2.9189 41.4257,2.9189 C 41.4257,2.9189 38.664,4.418 38.664,4.418 C 38.664,4.418 38.2695,5.0889 38.2695,5.0889 C 37.7568,6.1543 37.0468,6.8643 36.1787,7.2988 C 36.1787,7.2988 35.6259,8.0088 35.6259,8.0088 C 35.6259,8.0088 34.0087,12.3877 34.0087,12.3877 C 34.0087,12.3877 36.7705,22.8828 36.7705,22.8828 C 36.7705,22.8828 39.7685,27.0645 39.7685,27.0645 C 39.7685,27.0645 40.0839,27.3799 40.0839,27.3799 C 40.0839,27.3799 37.9541,29.1553 37.9541,29.1553 C 37.9541,29.1553 29.9453,30.2207 29.9453,30.2207 C 29.9453,30.2207 29.1562,30.418 29.1562,30.418 C 29.1562,30.418 18.2275,36.0996 18.2275,36.0996 C 18.2275,36.0996 7.6142,42.4121 7.6142,42.4121 z M 21.8574,54.8398 C 21.8574,54.8398 24.2246,52.3145 24.2246,52.3145 C 24.2246,52.3145 25.4082,51.9199 25.4082,51.9199 C 25.4082,51.9199 26,56.1025 26,56.1025 C 26,56.1025 27.6572,62.8882 27.6572,62.8882 C 27.6572,62.8882 27.5781,64.9392 27.5781,64.9392 C 27.5781,64.9392 24.8945,63.0862 24.8945,63.0862 C 24.8945,63.0862 22.3701,60.3632 22.3701,60.3632 C 22.3701,60.3632 19.8447,55.5498 19.8447,55.5498 C 19.8447,55.5498 21.8574,54.8398 21.8574,54.8398 z M 71.6074,65.9262 C 71.6074,65.9262 70.3054,66.8332 70.3054,66.8332 C 70.3054,66.8332 73.1854,54.8398 73.1854,54.8398 C 73.1854,54.8398 77.3674,56.8916 77.3674,56.8916 C 77.3674,56.8916 79.0644,58.666 79.0644,58.666 C 79.0644,58.666 71.6074,65.9262 71.6074,65.9262 z" />
    </g>
    <g
       id="g16"
       style="fill:#161413;fill-rule:evenodd;stroke:none;stroke-width:1;stroke-linecap:butt;stroke-linejoin:miter;stroke-dasharray:none"
       transform="translate(48.8203,42.3936)">
      <path
         id="path18"
         d="M 10.8887,42.6875 C 10.8887,42.6875 11.875,44.1865 11.875,44.1865 C 10.8096,45.331 9.3106,46.0019 7.4561,46.3173 C 7.4561,46.3173 6.9434,46.9882 6.9434,46.9882 C 6.9434,46.9882 6.8643,48.0927 6.8643,48.0927 C 6.8643,48.0927 8.167,52.6689 8.167,52.6689 C 8.167,52.6689 10.376,56.8115 10.376,56.8115 C 11.0068,57.7974 14.3604,60.5994 20.4365,65.2544 C 20.4365,65.2544 23.0801,68.0954 23.0801,68.0954 C 23.0801,68.0954 25.0127,68.2934 25.0127,68.2934 C 26.5127,67.0694 27.8145,66.3204 29.0371,66.1634 C 29.0371,66.1634 29.2744,60.2444 29.2744,60.2444 C 29.2744,60.2444 27.9326,51.4072 27.9326,51.4072 C 27.9326,51.4072 28.3662,36.2177 28.3662,36.2177 C 28.3662,36.2177 29.708,34.3632 29.708,34.3632 C 29.3135,36.9668 29.3135,38.9003 29.6289,40.123 C 29.6289,40.123 29.6289,68.2134 29.6289,68.2134 C 29.6289,68.2134 30.8125,70.0684 30.8125,70.0684 C 30.8125,70.0684 31.5225,56.6142 31.5225,56.6142 C 31.918,49.4736 31.957,44.8574 31.7988,42.8457 C 31.7988,42.8457 31.5225,39.4921 31.5225,39.4921 C 31.5225,39.4921 31.957,37.0068 31.957,37.0068 C 31.957,37.0068 33.9688,34.3632 33.9688,34.3632 C 33.9688,34.3632 33.1797,41.8984 33.1797,41.8984 C 33.1797,41.8984 31.918,72.1204 31.918,72.1204 C 31.918,72.1204 31.0889,78.1964 31.0889,78.1964 C 31.0889,78.1964 33.6924,78.1964 33.6924,78.1964 C 33.6924,78.1964 34.8369,59.9674 34.8369,59.9674 C 35.1924,50.0263 35.5078,43.5957 35.8233,40.7548 C 35.9815,39.0976 36.4942,36.6513 37.2832,33.456 C 37.2832,33.456 37.7568,32.7851 37.7568,32.7851 C 37.7568,32.7851 37.9932,33.456 37.9932,33.456 C 37.9932,33.456 38.0322,35.3886 38.0322,35.3886 C 38.0322,35.3886 36.7305,67.3064 36.7305,67.3064 C 36.7305,67.3064 36.0205,72.2784 36.0205,72.2784 C 36.0205,72.2784 36.2178,78.1964 36.2178,78.1964 C 36.2178,78.1964 38.8613,78.1964 38.8613,78.1964 C 38.8613,78.1964 42.294,35.2314 42.294,35.2314 C 42.294,35.2314 44.4639,34.3632 44.4639,34.3632 C 44.4639,34.3632 41.583,78.1964 41.583,78.1964 C 41.583,78.1964 45.4502,78.1964 45.4502,78.1964 C 45.4502,78.1964 48.2119,35.2314 48.2119,35.2314 C 48.2119,35.2314 49.3555,33.7314 49.3555,33.7314 C 49.3555,33.7314 50.5401,34.955 50.5401,34.955 C 50.5401,34.955 48.5274,78.1964 48.5274,78.1964 C 48.5274,78.1964 51.8017,78.1964 51.8017,78.1964 C 51.8017,78.1964 52.5127,57.206 52.5127,57.206 C 52.5127,57.206 54.8397,58.1924 54.8397,58.1924 C 54.8397,58.1924 54.3267,78.1964 54.3267,78.1964 C 54.3267,78.1964 57.6807,78.1964 57.6807,78.1964 C 57.6807,78.1964 57.6807,64.5044 57.6807,64.5044 C 57.6807,64.5044 58.5877,58.4694 58.5877,58.4694 C 59.0617,58.4694 59.5747,58.1144 60.0867,57.3642 C 60.0867,57.3642 58.8647,78.1964 58.8647,78.1964 C 58.8647,78.1964 61.0337,78.1964 61.0337,78.1964 C 61.0337,78.1964 63.2827,43.5556 63.2827,43.5556 C 63.4017,40.0439 62.8877,36.6123 61.7837,33.2978 C 61.7837,33.2978 63.5587,34.8369 63.5587,34.8369 C 63.5587,34.8369 64.8217,44.6601 64.8217,44.6601 C 64.8217,44.6601 62.2957,78.1964 62.2957,78.1964 C 62.2957,78.1964 64.2687,78.1964 64.2687,78.1964 C 64.2687,78.1964 64.3877,76.8154 64.3877,76.8154 C 64.3877,76.8154 67.2677,76.0264 67.2677,76.0264 C 69.0427,74.4874 76.0657,70.3054 88.4137,63.4794 C 88.4137,63.4794 94.7667,57.0488 94.7667,57.0488 C 94.7667,57.0488 94.2527,54.6816 94.2527,54.6816 C 94.2527,54.6816 89.5587,47.9746 89.5587,47.9746 C 89.5587,47.9746 83.7587,42.9638 83.7587,42.9638 C 83.7587,42.9638 82.2197,41.0312 82.2197,41.0312 C 82.2197,41.0312 75.1587,36.0986 75.1587,36.0986 C 75.1587,36.0986 66.1627,32.0351 66.1627,32.0351 C 64.6237,31.2861 62.4927,30.5361 59.6927,29.747 C 59.6927,29.747 58.9827,29.2734 58.9827,29.2734 C 58.9827,29.2734 55.9447,28.1689 55.9447,28.1689 C 53.6957,27.538 53.9327,26.9462 56.6157,26.2363 C 58.0757,25.7627 58.7847,25.2099 58.8647,24.5791 C 58.8647,24.0664 58.6277,23.4746 58.1937,22.9609 C 58.1937,22.9609 58.3117,22.0927 58.3117,22.0927 C 58.3117,22.0927 59.2587,20.4755 59.2587,20.4755 C 58.9827,19.5293 58.8647,18.582 58.8647,17.6748 C 58.8647,17.6748 60.1257,17.0039 60.1257,17.0039 C 60.1257,17.0039 60.5207,16.1748 60.5207,16.1748 C 60.5207,16.1748 60.2447,15.4257 60.2447,15.4257 C 60.2447,15.4257 58.3507,13.8476 58.3507,13.8476 C 58.3907,12.8222 58.3117,11.6377 57.8777,10.3759 C 57.8777,10.3759 57.3257,8.4423 57.3257,8.4423 C 57.2457,7.9687 57.6807,6.8252 58.5877,4.9306 C 58.5877,4.9306 57.6017,1.9726 57.6017,1.9726 C 57.6017,1.9726 56.8127,1.2617 56.8127,1.2617 C 56.8127,1.2617 54.0507,1.3798 54.0507,1.3798 C 53.1827,0.6308 51.7627,0.1972 49.6318,0 C 49.6318,0 45.7256,0.8281 45.7256,0.8281 C 45.7256,0.8281 42.4121,1.1044 42.4121,1.1044 C 42.4121,1.1044 40.5186,2.6425 40.5186,2.6425 C 40.5186,2.6425 38.0322,3.9843 38.0322,3.9843 C 37.1651,5.7597 36.336,6.7851 35.3897,7.0615 C 35.3897,7.0615 34.127,10.4941 34.127,10.4941 C 34.127,10.4941 36.7705,20.1601 36.7705,20.1601 C 36.7705,20.1601 39.1377,23.5136 39.1377,23.5136 C 39.1377,23.5136 40.3213,24.6181 40.3213,24.6181 C 40.3213,24.6181 40.3213,26.6699 40.3213,26.6699 C 40.3213,26.6699 39.7686,26.6699 39.7686,26.6699 C 39.7686,26.6699 36.7705,29.0371 36.7705,29.0371 C 36.7705,29.0371 27.9326,30.2998 27.9326,30.2998 C 27.9326,30.2998 17.1621,35.8232 17.1621,35.8232 C 17.1621,35.8232 1.499,46.0019 1.499,46.0019 C 1.499,46.0019 0.1182,48.3691 0.1182,48.3691 C 0.1182,48.3691 0,52.3144 0,52.3144 C 0,52.3144 2.7617,57.7194 2.7617,57.7194 C 2.7617,57.7194 7.4561,62.4934 7.4561,62.4934 C 13.6504,66.3204 19.8447,70.0684 25.999,73.7764 C 25.999,73.7764 27.3799,75.3544 27.3799,75.3544 C 27.3799,75.3544 26.3936,78.1964 26.3936,78.1964 C 26.3936,78.1964 29.8262,78.1964 29.8262,78.1964 C 30.3389,76.8934 30.5762,75.5514 30.5361,74.1704 C 30.5361,73.1064 30.2608,72.1204 29.6289,71.1334 C 29.6289,71.1334 25.4072,71.1334 25.4072,71.1334 C 25.4072,71.1334 22.7647,69.8714 22.7647,69.8714 C 21.2256,68.6874 19.332,67.4634 17.1621,66.2024 C 15.1104,65.0184 13.0195,63.5584 10.8887,62.0204 C 7.0615,58.9814 4.3789,56.1015 2.8799,53.3798 C 2.8799,53.3798 2.3672,51.288 2.3672,51.288 C 2.3672,51.288 2.4854,48.8818 2.4854,48.8818 C 2.4854,48.8818 3.1563,47.58 3.1563,47.58 C 3.1563,47.58 5.7998,45.0546 5.7998,45.0546 C 5.7998,45.0546 10.2188,42.5693 10.2188,42.5693 C 10.2188,42.5693 10.8887,42.6875 10.8887,42.6875 z M 15.3867,44.3447 C 15.3867,44.3447 15.3867,43.4775 15.3867,43.4775 C 15.3867,43.4775 26.5127,36.7695 26.5127,36.7695 C 26.5127,36.7695 26.5518,37.7168 26.5518,37.7168 C 26.5518,37.7168 17.2803,44.5419 17.2803,44.5419 C 17.2803,44.5419 16.1758,44.9365 16.1758,44.9365 C 16.1758,44.9365 15.3867,44.3447 15.3867,44.3447 z M 13.9658,40.5175 C 13.9658,40.5175 13.7295,39.7685 13.7295,39.7685 C 13.7295,39.7685 27.1826,32.5878 27.1826,32.5878 C 27.1826,32.5878 26.5127,33.8505 26.5127,33.8505 C 26.5127,33.8505 17.5567,39.0976 17.5567,39.0976 C 17.5567,39.0976 13.9658,40.5175 13.9658,40.5175 z M 26.6699,42.9638 C 26.6699,42.9638 26.2754,43.6748 26.2754,43.6748 C 26.2754,43.6748 18.9375,47.9746 18.9375,47.9746 C 18.9375,47.9746 18.543,48.6054 18.543,48.6054 C 18.543,48.6054 18.1485,47.9746 18.1485,47.9746 C 18.1485,47.9746 18.3848,47.2646 18.3848,47.2646 C 18.3848,47.2646 24.8555,42.1748 24.8555,42.1748 C 24.8555,42.1748 26.5127,42.0166 26.5127,42.0166 C 26.5127,42.0166 26.6699,42.9638 26.6699,42.9638 z M 25.6055,47.2646 C 25.7627,49.4736 25.9209,51.6044 26.2363,53.6552 C 26.2363,53.6552 27.6172,64.7814 27.6172,64.7814 C 27.6172,64.7814 26.5518,65.0574 26.5518,65.0574 C 26.5518,65.0574 25.1318,65.1764 25.1318,65.1764 C 22.9619,63.3614 20.9492,61.3484 19.0947,59.1004 C 17.5567,57.0888 16.1758,54.958 15.0313,52.6689 C 15.0313,52.6689 15.3867,52.1171 15.3867,52.1171 C 17.2803,50.8935 19.2139,49.75 21.1865,48.6455 C 22.4883,48.0136 23.8692,47.3828 25.2891,46.8701 C 25.2891,46.8701 25.6055,47.2646 25.6055,47.2646 z M 77.6437,44.7392 C 77.6437,44.7392 77.5257,45.4502 77.5257,45.4502 C 77.5257,45.4502 76.1447,45.1738 76.1447,45.1738 C 76.1447,45.1738 68.6487,40.5175 68.6487,40.5175 C 68.6487,40.5175 67.4647,40.5175 67.4647,40.5175 C 67.4647,40.5175 66.2017,39.5312 66.2017,39.5312 C 66.2017,39.5312 65.8077,37.9931 65.8077,37.9931 C 67.0707,38.3877 68.2537,38.9003 69.3587,39.5312 C 69.3587,39.5312 77.6437,44.7392 77.6437,44.7392 z M 79.5767,42.5302 C 79.5767,42.5302 77.6437,41.8984 77.6437,41.8984 C 77.6437,41.8984 69.6347,36.3359 69.6347,36.3359 C 67.2677,35.3496 66.0437,34.8369 65.8077,34.8369 C 65.8077,34.8369 65.6497,33.6923 65.6497,33.6923 C 65.6497,33.6923 68.1747,34.0478 68.1747,34.0478 C 68.1747,34.0478 80.1687,42.1357 80.1687,42.1357 C 80.1687,42.1357 79.5767,42.5302 79.5767,42.5302 z M 55.7077,11.0859 C 55.7077,11.0859 55.3137,11.5986 55.3137,11.5986 C 55.3137,11.5986 51.9987,13.0976 51.9987,13.0976 C 51.9987,13.0976 52.7877,14.3994 52.7877,14.3994 C 52.7877,14.3994 55.8257,14.913 55.8257,14.913 C 55.8257,14.913 57.6807,14.5185 57.6807,14.5185 C 57.6807,14.5185 59.0617,15.7412 59.0617,15.7412 C 59.0617,15.7412 57.8777,16.6093 57.8777,16.6093 C 57.8777,16.6093 56.9307,17.0039 56.9307,17.0039 C 56.9307,17.0039 57.8777,18.0693 57.8777,18.0693 C 57.8777,18.0693 57.8777,18.5419 57.8777,18.5419 C 57.8777,18.5419 56.3387,18.8584 56.3387,18.8584 C 56.3387,18.8584 55.3137,19.9238 55.3137,19.9238 C 55.3137,19.9238 55.4317,20.831 55.4317,20.831 C 55.4317,20.831 56.8127,20.4755 56.8127,20.4755 C 56.8127,20.4755 57.3647,20.4365 57.3647,20.4365 C 57.3647,20.4365 57.6017,20.831 57.6017,20.831 C 57.6017,20.831 56.6157,21.3046 56.6157,21.3046 C 56.4577,21.3046 56.2207,21.6201 55.9837,22.4091 C 55.9837,22.4091 56.4177,22.4091 56.4177,22.4091 C 56.4177,22.4091 57.0097,23.5136 57.0097,23.5136 C 57.0887,23.8691 56.7337,24.1054 56.1027,24.2236 C 56.1027,24.2236 51.6837,23.3955 51.6837,23.3955 C 51.6837,23.3955 46.9883,23.5136 46.9883,23.5136 C 46.9883,23.5136 45.1738,24.6181 45.1738,24.6181 C 45.1738,24.6181 45.1738,25.4072 45.1738,25.4072 C 45.1738,25.4072 47.5801,27.3798 47.5801,27.3798 C 47.5801,27.3798 47.3828,30.6943 47.3828,30.6943 C 47.3828,31.1669 46.9883,31.0888 46.1201,30.5361 C 46.1201,30.5361 41.5049,27.6562 41.5049,27.6562 C 41.5049,27.6562 41.583,24.8544 41.583,24.8544 C 41.583,24.8544 42.1748,24.7363 42.1748,24.7363 C 42.1748,24.7363 43.3985,19.2529 43.3985,19.2529 C 43.3985,19.2529 41.7803,17.122 41.7803,17.122 C 41.7803,17.122 41.583,14.6367 41.583,14.6367 C 41.583,14.6367 42.4121,13.7294 42.4121,13.7294 C 42.4121,13.7294 44.0693,13.4531 44.0693,13.4531 C 44.0693,13.4531 46.1201,15.2285 46.1201,15.2285 C 46.1201,15.2285 47.2256,15.2285 47.2256,15.2285 C 47.2256,15.2285 47.6983,13.0976 47.6983,13.0976 C 47.6983,13.0976 52.1177,10.3359 52.1177,10.3359 C 52.1177,10.3359 55.1557,10.3359 55.1557,10.3359 C 55.1557,10.3359 55.7077,11.0859 55.7077,11.0859 z M 45.6074,36.0205 C 45.6074,35.7041 45.8047,35.5068 46.1992,35.5068 C 46.5547,35.5068 46.7119,35.7041 46.7119,36.0205 C 46.7119,36.4541 46.5547,36.6123 46.1992,36.6123 C 45.8047,36.6123 45.6074,36.4541 45.6074,36.0205 z M 46.4365,42.8457 C 46.4365,43.2802 46.2393,43.4775 45.8447,43.4775 C 45.4502,43.4775 45.2129,43.2802 45.2129,42.8457 C 45.2129,42.4511 45.4502,42.2929 45.8447,42.2929 C 46.2393,42.2929 46.4365,42.4511 46.4365,42.8457 z M 54.0507,35.0732 C 54.0507,35.0732 54.4457,34.955 54.4457,34.955 C 54.4457,34.955 55.9837,38.1503 55.9837,38.1503 C 55.9837,38.1503 56.1027,40.3603 56.1027,40.3603 C 56.1027,40.3603 55.8257,45.331 55.8257,45.331 C 55.8257,45.331 53.3007,45.331 53.3007,45.331 C 53.3007,45.331 54.0507,35.0732 54.0507,35.0732 z M 58.9827,36.6123 C 58.9827,36.6123 60.6397,35.5068 60.6397,35.5068 C 60.6397,35.5068 60.3637,45.4502 60.3637,45.4502 C 60.3637,45.4502 58.7447,45.4502 58.7447,45.4502 C 58.7447,45.4502 58.9827,36.6123 58.9827,36.6123 z M 75.0397,47.6982 C 75.0397,47.6982 75.6317,48.7636 75.6317,48.7636 C 75.6317,48.7636 74.6457,49.4736 74.6457,49.4736 C 74.6457,49.4736 69.5557,46.8701 69.5557,46.8701 C 69.5557,46.8701 66.8727,42.5693 66.8727,42.5693 C 66.8727,42.5693 75.0397,47.6982 75.0397,47.6982 z M 68.8057,52.6298 C 68.8057,52.6298 69.0427,50.1445 69.0427,50.1445 C 70.0297,50.4209 70.9367,50.7753 71.7257,51.249 C 74.4877,52.8662 77.1307,54.5634 79.6957,56.4169 C 76.7767,59.4564 73.7377,62.2564 70.4237,64.8214 C 68.8057,66.1634 67.0307,67.2664 65.0577,68.0954 C 65.0577,68.0954 66.7147,63.1244 66.7147,63.1244 C 66.7147,63.1244 68.8057,52.6298 68.8057,52.6298 z M 66.4787,50.0263 C 66.4787,50.0263 66.4387,46.4355 66.4387,46.4355 C 66.4387,45.8046 66.6757,45.6865 67.1497,46.1201 C 67.3467,46.4355 67.5437,47.1855 67.5827,48.3691 C 67.5827,48.3691 66.8727,55.0361 66.8727,55.0361 C 66.8727,55.0361 65.7687,59.6924 65.7687,59.6924 C 65.7687,59.6924 66.4787,50.0263 66.4787,50.0263 z M 60.9147,48.2109 C 60.9147,48.2109 60.9147,48.7636 60.9147,48.7636 C 60.9147,48.7636 53.3007,48.7636 53.3007,48.7636 C 53.3007,48.7636 53.3007,48.2109 53.3007,48.2109 C 53.3007,48.2109 60.9147,48.2109 60.9147,48.2109 z M 60.9147,46.5537 C 60.9147,46.5537 60.9147,47.2646 60.9147,47.2646 C 60.9147,47.2646 53.3007,47.2646 53.3007,47.2646 C 53.3007,47.2646 53.3007,46.5537 53.3007,46.5537 C 53.3007,46.5537 60.9147,46.5537 60.9147,46.5537 C 60.9147,46.5537 65.0577,72.7114 65.0577,72.7114 C 65.0577,72.7114 65.0977,69.2394 65.0977,69.2394 C 65.0977,69.2394 68.8457,68.8054 68.8457,68.8054 C 68.8457,68.8054 82.2197,56.6142 82.2197,56.6142 C 82.2197,56.6142 77.8017,52.1171 77.8017,52.1171 C 77.8017,52.1171 80.6817,47.9746 80.6817,47.9746 C 80.6817,47.9746 81.8257,48.0927 81.8257,48.0927 C 81.8257,48.0927 87.5067,55.4306 87.5067,55.4306 C 87.5067,55.4306 87.1917,56.9306 87.1917,56.9306 C 84.2327,59.7314 81.0757,62.2954 77.6827,64.6634 C 73.5797,67.5834 69.4377,70.3054 65.0577,72.7114 C 65.0577,72.7114 60.9147,46.5537 60.9147,46.5537 z" />
    </g>
    <g
       id="g20"
       style="fill:#161413;fill-rule:evenodd;stroke:none;stroke-width:1;stroke-linecap:butt;stroke-linejoin:miter;stroke-dasharray:none"
       transform="translate(90.9561,56.7539)">
      <path
         id="path22"
         d="M 2.2089,0.0391 C 2.2089,0.0391 0.4335,0 0.4335,0 C 0.4335,0 0,0.8682 0,0.8682 C 0,0.8682 0.2763,1.5391 0.2763,1.5391 C 0.2763,1.5391 0.9472,1.4199 0.9472,1.4199 C 0.9472,1.4199 1.3418,2.1309 1.3418,2.1309 C 1.3418,2.1309 1.9335,2.8018 1.9335,2.8018 C 1.9335,2.8018 2.5253,2.7617 2.5253,2.7617 C 2.5253,2.7617 2.8017,1.3809 2.8017,1.3809 C 2.8017,1.3809 2.2089,0.0391 2.2089,0.0391 z" />
    </g>
    <g
       id="g24"
       style="fill:#e52935;fill-rule:evenodd;stroke:none;stroke-width:1;stroke-linecap:butt;stroke-linejoin:miter;stroke-dasharray:none"
       transform="translate(56.6709,129.15)">
      <path
         id="path26"
         d="M 9.5479,0 C 9.5479,0 2.7617,0 2.7617,0 C 2.7617,0 2.7617,6.155 2.7617,6.155 C 2.7617,6.155 0,6.155 0,6.155 C 0,6.155 0,12.231 0,12.231 C 0,12.231 2.7617,12.231 2.7617,12.231 C 2.7617,12.231 2.7617,21.029 2.7617,21.029 C 2.7617,21.897 3.1172,22.725 3.748,23.357 C 4.498,23.989 5.2871,24.303 6.1943,24.303 C 6.1943,24.303 13.4541,24.303 13.4541,24.303 C 13.4541,24.303 13.4541,18.268 13.4541,18.268 C 13.4541,18.268 11.0869,18.268 11.0869,18.268 C 10.1006,18.268 9.5879,17.715 9.5879,16.65 C 9.5879,16.65 9.5879,12.231 9.5879,12.231 C 9.5879,12.231 12.1914,12.231 12.1914,12.231 C 12.1914,12.231 12.1914,6.155 12.1914,6.155 C 12.1914,6.155 9.5879,6.155 9.5879,6.155 C 9.5879,6.155 9.5479,0 9.5479,0 z" />
    </g>
    <g
       id="g28"
       style="fill:#e52935;fill-rule:evenodd;stroke:none;stroke-width:1;stroke-linecap:butt;stroke-linejoin:miter;stroke-dasharray:none"
       transform="translate(83.6572,127.494)">
      <path
         id="path30"
         d="M 6.7461,0 C 6.7461,0 0,0 0,0 C 0,0 0,22.685 0,22.685 C 0,24.895 1.0655,25.959 3.3145,25.959 C 3.3145,25.959 13.375,25.959 13.375,25.959 C 13.375,25.959 13.375,19.924 13.375,19.924 C 13.375,19.924 8.3252,19.924 8.3252,19.924 C 7.2989,19.924 6.7461,19.371 6.7461,18.306 C 6.7461,18.306 6.7461,0 6.7461,0 z" />
    </g>
    <g
       id="g32"
       style="fill:#e52935;fill-rule:evenodd;stroke:none;stroke-width:1;stroke-linecap:butt;stroke-linejoin:miter;stroke-dasharray:none"
       transform="translate(177.438,134.832)">
      <path
         id="path34"
         d="M 3.353,0 C 1.104,0 0,1.064 0,3.314 C 0,3.314 0,18.621 0,18.621 C 0,18.621 6.786,18.621 6.786,18.621 C 6.786,18.621 6.786,7.574 6.786,7.574 C 6.786,6.588 7.298,6.076 8.325,6.076 C 8.325,6.076 11.875,6.076 11.875,6.076 C 11.875,6.076 11.875,0 11.875,0 C 11.875,0 3.353,0 3.353,0 z" />
    </g>
    <g
       id="g36"
       style="fill:#e52935;fill-rule:evenodd;stroke:none;stroke-width:1;stroke-linecap:butt;stroke-linejoin:miter;stroke-dasharray:none"
       transform="translate(3.09375,127.533)">
      <path
         id="path38"
         d="M 3.47266,0 C 2.52539,0 1.73633,0.356 0.98633,0.987 C 0.35547,1.656 0,2.486 0,3.432 C 0,3.432 0,25.92 0,25.92 C 0,25.92 6.86523,25.92 6.86523,25.92 C 6.86523,25.92 6.86523,16.689 6.86523,16.689 C 6.86523,16.689 10.4951,16.689 10.4951,16.689 C 10.4951,16.689 10.4951,10.613 10.4951,10.613 C 10.4951,10.613 6.86523,10.613 6.86523,10.613 C 6.86523,10.613 6.86523,7.694 6.86523,7.694 C 6.86523,6.588 7.41795,6.076 8.40425,6.076 C 8.40425,6.076 13.4541,6.076 13.4541,6.076 C 13.4541,6.076 13.4541,0 13.4541,0 C 13.4541,0 3.47266,0 3.47266,0 z" />
    </g>
    <g
       id="g40"
       style="fill:#e52935;fill-rule:evenodd;stroke:none;stroke-width:1;stroke-linecap:butt;stroke-linejoin:miter;stroke-dasharray:none"
       transform="translate(15.2852,134.596)">
      <path
         id="path42"
         d="M 16.2939,2.76 C 14.4394,0.906 12.1914,0 9.6269,0 C 6.9043,0 4.6953,0.906 2.8408,2.76 C 0.9472,4.654 0,6.943 0,9.508 C 0,12.23 0.9472,14.439 2.8408,16.293 C 4.7343,18.187 6.9834,19.174 9.6269,19.174 C 12.1914,19.174 14.4394,18.187 16.2939,16.293 C 18.1875,14.4 19.1347,12.15 19.1347,9.508 C 19.1347,6.943 18.1875,4.654 16.2939,2.76 z M 6.7461,9.508 C 6.7461,7.693 7.7324,6.785 9.6269,6.785 C 11.4414,6.785 12.3886,7.693 12.3886,9.508 C 12.3886,11.361 11.4414,12.269 9.6269,12.269 C 7.7324,12.269 6.7461,11.361 6.7461,9.508 z" />
    </g>
    <g
       id="g44"
       style="fill:#e52935;fill-rule:evenodd;stroke:none;stroke-width:1;stroke-linecap:butt;stroke-linejoin:miter;stroke-dasharray:none"
       transform="translate(36.2744,134.596)">
      <path
         id="path46"
         d="M 16.294,2.76 C 14.4395,0.906 12.1904,0 9.626,0 C 6.9434,0 4.6944,0.906 2.8399,2.76 C 0.9463,4.654 0,6.943 0,9.508 C 0,12.23 0.9463,14.439 2.8399,16.293 C 4.7344,18.187 6.9824,19.174 9.626,19.174 C 12.1904,19.174 14.4395,18.187 16.294,16.293 C 18.1875,14.4 19.1348,12.15 19.1348,9.508 C 19.1348,6.943 18.1875,4.654 16.294,2.76 z M 6.7461,9.508 C 6.7461,7.693 7.7324,6.785 9.626,6.785 C 11.4805,6.785 12.3877,7.693 12.3877,9.508 C 12.3877,11.361 11.4805,12.269 9.626,12.269 C 7.7324,12.269 6.7461,11.361 6.7461,9.508 z" />
    </g>
    <g
       id="g48"
       style="fill:#e52935;fill-rule:evenodd;stroke:none;stroke-width:1;stroke-linecap:butt;stroke-linejoin:miter;stroke-dasharray:none"
       transform="translate(98.5713,134.596)">
      <path
         id="path50"
         d="M 16.2927,2.76 C 14.4397,0.906 12.1907,0 9.5077,0 C 6.8647,0 4.6547,0.906 2.7617,2.76 C 0.9062,4.654 0,6.943 0,9.508 C 0,12.23 0.9062,14.439 2.7617,16.293 C 4.6547,18.187 6.8647,19.174 9.5077,19.174 C 12.1907,19.174 14.4397,18.187 16.2927,16.293 C 18.1877,14.439 19.0947,12.23 19.0947,9.508 C 19.0947,6.943 18.1877,4.654 16.2927,2.76 z M 7.5747,7.574 C 8.1267,7.061 8.7577,6.785 9.5077,6.785 C 11.3617,6.785 12.2697,7.693 12.2697,9.508 C 12.2697,11.361 11.3617,12.269 9.5077,12.269 C 7.6537,12.269 6.7847,11.361 6.7847,9.508 C 6.7847,8.837 7.0617,8.205 7.5747,7.574 z" />
    </g>
    <g
       id="g52"
       style="fill:#e52935;fill-rule:evenodd;stroke:none;stroke-width:1;stroke-linecap:butt;stroke-linejoin:miter;stroke-dasharray:none"
       transform="translate(119.757,134.596)">
      <path
         id="path54"
         d="M 2.841,2.76 C 0.947,4.654 0,6.943 0,9.508 C 0,12.23 0.947,14.439 2.841,16.293 C 4.734,18.187 6.983,19.174 9.627,19.174 C 13.019,19.174 15.703,17.674 17.636,14.755 C 17.636,14.755 11.875,11.047 11.875,11.047 C 11.323,11.875 10.613,12.269 9.627,12.269 C 7.732,12.269 6.746,11.361 6.746,9.508 C 6.746,7.693 7.732,6.785 9.627,6.785 C 10.613,6.785 11.323,7.218 11.875,8.088 C 11.875,8.088 17.636,4.418 17.636,4.418 C 15.703,1.498 13.019,0 9.627,0 C 6.904,0 4.695,0.906 2.841,2.76 z" />
    </g>
    <g
       id="g56"
       style="fill:#e52935;fill-rule:evenodd;stroke:none;stroke-width:1;stroke-linecap:butt;stroke-linejoin:miter;stroke-dasharray:none"
       transform="translate(186.669,149.902)">
      <path
         id="path58"
         d="M 1.736,0 C 0.592,0 0,0.592 0,1.776 C 0,2.999 0.592,3.551 1.736,3.551 C 2.959,3.551 3.512,2.999 3.512,1.776 C 3.512,0.592 2.959,0 1.736,0 z M 0.316,1.776 C 0.316,0.829 0.75,0.317 1.736,0.317 C 2.723,0.317 3.236,0.829 3.236,1.776 C 3.236,2.762 2.723,3.276 1.736,3.276 C 0.75,3.276 0.316,2.762 0.316,1.776 z" />
    </g>
    <g
       id="g60"
       style="fill:#e52935;fill-rule:evenodd;stroke:none;stroke-width:1;stroke-linecap:butt;stroke-linejoin:miter;stroke-dasharray:none"
       transform="translate(187.735,150.731)">
      <path
         id="path62"
         d="M 1.578,0.552 C 1.578,0.158 1.38,0 0.907,0 C 0.907,0 0,0 0,0 C 0,0 0,1.933 0,1.933 C 0,1.933 0.276,1.933 0.276,1.933 C 0.276,1.933 0.276,1.066 0.276,1.066 C 0.276,1.066 0.631,1.066 0.631,1.066 C 0.631,1.066 1.183,1.933 1.183,1.933 C 1.183,1.933 1.578,1.933 1.578,1.933 C 1.578,1.933 0.947,1.066 0.947,1.066 C 1.38,1.066 1.578,0.908 1.578,0.552 z M 0.276,0.79 C 0.276,0.79 0.276,0.277 0.276,0.277 C 0.276,0.277 0.788,0.277 0.788,0.277 C 0.788,0.277 1.301,0.435 1.301,0.435 C 1.301,0.671 1.065,0.79 0.631,0.79 C 0.631,0.79 0.276,0.79 0.276,0.79 z" />
    </g>
    <g
       id="g64"
       style="fill:#e52935;fill-rule:evenodd;stroke:none;stroke-width:1;stroke-linecap:butt;stroke-linejoin:miter;stroke-dasharray:none"
       transform="translate(138.971,127.494)">
      <path
         id="path66"
         d="M 6.864,12.742 C 6.864,12.742 6.864,0 6.864,0 C 6.864,0 0,0 0,0 C 0,0 0,25.959 0,25.959 C 0,25.959 6.864,25.959 6.864,25.959 C 6.864,25.959 6.864,20.476 6.864,20.476 C 6.864,20.476 11.401,25.959 11.401,25.959 C 11.401,25.959 19.332,25.959 19.332,25.959 C 19.332,25.959 11.283,16.293 11.283,16.293 C 11.283,16.293 17.675,8.483 17.675,8.483 C 17.675,8.483 10.298,8.483 10.298,8.483 C 10.298,8.483 6.864,12.742 6.864,12.742 z" />
    </g>
    <g
       id="g68"
       style="fill:#e52935;fill-rule:evenodd;stroke:none;stroke-width:1;stroke-linecap:butt;stroke-linejoin:miter;stroke-dasharray:none"
       transform="translate(156.33,134.358)">
      <path
         id="path70"
         d="M 19.214,9.035 C 19.214,7.456 18.583,5.761 17.28,3.906 C 15.623,1.619 13.335,0.355 10.337,0.198 C 6.707,0 3.905,1.263 1.894,4.064 C 0.631,5.8 0,7.694 0,9.746 C 0,12.468 0.986,14.677 2.88,16.531 C 4.774,18.425 7.023,19.412 9.666,19.412 C 11.876,19.412 13.849,18.781 15.505,17.439 C 15.505,17.439 17.793,14.993 17.793,14.993 C 17.793,14.993 12.271,11.442 12.271,11.442 C 12.271,11.442 11.599,12.231 11.599,12.231 C 10.692,12.98 9.666,13.138 8.562,12.744 C 8.562,12.744 7.181,11.679 7.181,11.679 C 7.181,11.679 19.214,9.035 19.214,9.035 z M 8.719,6.707 C 10.061,6.313 11.126,6.667 11.993,7.694 C 11.993,7.694 6.667,8.917 6.667,8.917 C 7.023,7.851 7.693,7.142 8.719,6.707 z" />
    </g>
  </g>
</svg>
