<?xml version="1.0" encoding="UTF-8" standalone="no"?>
<!-- Created with Inkscape (http://www.inkscape.org/) -->
<svg
   xmlns:svg="http://www.w3.org/2000/svg"
   xmlns="http://www.w3.org/2000/svg"
   version="1.0"
   width="785.01965"
   height="177.41338"
   id="svg2460"
   xml:space="preserve"><defs
     id="defs2463"><clipPath
       id="clipPath2475"><path
         d="M 0,0 L 612,0 L 612,792 L 0,792 L 0,0 z"
         id="path2477" /></clipPath><clipPath
       id="clipPath2483"><path
         d="M -387,-237.71648 L -387,462.95999 L 243,462.95999 L 243,-237.71648 L -387,-237.71648 z"
         id="path2485" /></clipPath><clipPath
       id="clipPath2491"><path
         d="M 222.72,0.96001 L 222.72,472.56 L 640.07996,472.56 L 640.07996,0.96001 L 222.72,0.96001 z"
         id="path2493" /></clipPath><clipPath
       id="clipPath2505"><path
         d="M -104,-41 L -104,-21.84607 L 0.1485,-21.84607 L 0.1485,-41 L -104,-41 z"
         id="path2507" /></clipPath><clipPath
       id="clipPath2547"><path
         d="M 36.68742,62.0294 L 36.68742,78.9706 L 54.68742,78.9706 L 54.68742,62.0294 L 36.68742,62.0294 z"
         id="path2549" /></clipPath></defs><g
     transform="matrix(1.25,0,0,-1.25,0.8215001,986.21571)"
     id="g2469"><g
       transform="matrix(7.9928228,0,0,7.9928228,12.312823,-5523.1475)"
       id="g2676"><g
         transform="matrix(1,0,0,-1,103.3428,747.97256)"
         id="g2501"
         style="fill:#214478"><g
           clip-path="url(#clipPath2505)"
           id="g2503"
           style="fill:#214478"><g
             transform="matrix(0.50072,0,0,-0.50072,-104,-24.65956)"
             id="g2509"
             style="fill:#214478"><path
               d="M 23.189,32.18997 L 4.69482,32.18997 L 0,5.36429 L 7.52686,5.36429 C 7.52686,5.36429 9.23972,15.18951 9.29099,15.49899 C 9.60498,15.49899 19.86819,15.49899 19.86819,15.49899 L 20.99319,21.87891 C 20.99319,21.87891 10.8501,21.87891 10.41409,21.87891 C 10.48187,22.26321 11.04977,25.53226 11.09808,25.81009 C 11.41309,25.81009 22.29099,25.81009 22.29099,25.81009 L 23.41599,32.18997 L 23.189,32.18997"
               id="path2511"
               style="fill:#214478;fill-opacity:1;fill-rule:evenodd;stroke:none" /><path
               d="M 38.5679,32.18997 L 31.26709,32.18997 L 26.57617,5.36429 L 45.29788,5.36429 L 46.37991,11.74121 C 46.37991,11.74121 35.66409,11.74121 35.2251,11.74121 C 35.30518,12.17969 38.79877,32.18997 38.79877,32.18997 L 38.5679,32.18997"
               id="path2513"
               style="fill:#214478;fill-opacity:1;fill-rule:evenodd;stroke:none" /><path
               d="M 78.49509,32.18997 L 71.1938,32.18997 L 68.16989,14.8887 C 67.77779,12.7598 65.89401,11.43259 63.24608,11.43259 C 61.81979,11.43259 60.76219,11.7998 60.18898,12.48929 C 59.70699,13.06552 59.55518,13.8526 59.73289,14.8223 C 59.73579,14.8223 62.77199,32.18997 62.77199,32.18997 L 55.24318,32.18997 L 51.99608,13.7832 C 51.60298,11.57422 52.0659,9.6055 53.3252,8.10739 C 55.04199,6.05182 58.2021,4.92188 62.23189,4.92188 C 69.31979,4.92188 74.51509,8.37891 75.46678,13.71881 L 78.72459,32.18997 L 78.49509,32.18997"
               id="path2515"
               style="fill:#214478;fill-opacity:1;fill-rule:evenodd;stroke:none" /><path
               d="M 108.12198,29.53421 C 106.39999,31.5889 103.535,32.63431 99.60248,32.63431 C 91.27438,32.63431 86.24609,27.97806 84.65038,18.81201 C 83.80569,13.94141 84.35838,10.31061 86.28708,8.01563 C 88.0098,5.96289 90.87701,4.92188 94.80179,4.92188 C 103.16498,4.92188 108.03998,9.44629 109.70598,18.74509 C 110.58099,23.59915 110.04498,27.23392 108.12198,29.53421 z M 102.19299,18.815 L 102.19299,18.815 C 101.14899,13.2901 99.24899,11.03711 95.63669,11.03711 C 94.21288,11.03711 93.2119,11.40329 92.59079,12.15329 C 91.65428,13.2901 91.52249,15.32132 92.1689,18.7359 C 93.2197,24.23587 95.1162,26.4722 98.72359,26.4722 C 100.15298,26.4722 101.14899,26.10989 101.77199,25.35599 C 102.70798,24.21927 102.83899,22.20612 102.19299,18.815"
               id="path2517"
               style="fill:#214478;fill-opacity:1;fill-rule:evenodd;stroke:none" /><path
               d="M 142.41798,10.53711 C 141.97499,10.37988 141.46999,10.2832 141.02797,10.2832 C 139.80399,10.2832 139.58499,10.8985 139.23099,12.17288 C 138.79199,13.88968 138.31598,15.53619 137.451,16.86429 C 140.11798,18.41989 141.90898,20.8941 142.36398,23.68314 C 142.44598,24.16312 142.48697,24.63528 142.48697,25.09134 C 142.48697,26.70999 141.97899,28.14896 140.99799,29.31204 C 139.40498,31.19632 136.67198,32.18997 133.09799,32.18997 L 120.32999,32.18997 L 115.63799,5.36429 L 123.16599,5.36429 C 123.16599,5.36429 124.80798,14.6084 124.84698,14.8389 C 125.13399,14.9248 125.97499,15.14749 127.19202,15.14749 C 130.90898,15.14749 131.24098,13.17581 131.696,10.4375 C 131.84801,9.53522 132.00699,8.5947 132.29701,7.61819 C 132.77899,5.9541 134.51999,4.92188 136.84201,4.92188 C 138.90601,4.92188 140.50798,5.41992 141.79999,5.9053 L 141.90199,5.9444 L 142.73099,10.6514 L 142.41798,10.53711 z M 134.89198,23.61429 C 134.57799,22.00491 133.11598,21.03812 130.98198,21.03812 C 130.98198,21.03812 126.34201,21.03812 125.92097,21.03812 C 125.99399,21.44388 126.77101,25.83499 126.82498,26.12112 C 127.12599,26.12112 131.95201,26.12112 131.95201,26.12112 C 133.188,26.12112 134.09099,25.82523 134.55899,25.25931 C 134.81299,24.95706 134.93999,24.57327 134.93999,24.12601 C 134.93999,23.96487 134.92499,23.79691 134.89198,23.61429"
               id="path2519"
               style="fill:#214478;fill-opacity:1;fill-rule:evenodd;stroke:none" /><path
               d="M 148.93199,7.4805 C 149.57399,7.4805 150.18901,7.32031 150.77698,6.99811 C 151.36699,6.6778 151.83098,6.21881 152.16699,5.62009 C 152.50398,5.02051 152.67198,4.39362 152.67198,3.74033 C 152.67198,3.0889 152.50699,2.4668 152.17699,1.87701 C 151.84598,1.28711 151.38599,0.8252 150.79399,0.49512 C 150.20398,0.1651 149.58199,0 148.93199,0 C 148.28101,0 147.66101,0.1651 147.06897,0.49512 C 146.47899,0.8252 146.01698,1.28711 145.68698,1.87701 C 145.35698,2.4668 145.192,3.0889 145.192,3.74033 C 145.192,4.39362 145.36098,5.02051 145.69701,5.62009 C 146.03398,6.21881 146.49698,6.6778 147.08499,6.99811 C 147.67598,7.32031 148.28998,7.4805 148.93199,7.4805 z M 148.93698,6.7471 C 148.42201,6.7471 147.92899,6.6192 147.457,6.3623 C 146.98598,6.1055 146.61401,5.73541 146.34198,5.25299 C 146.06897,4.77249 145.93399,4.2666 145.93399,3.74033 C 145.93399,3.2149 146.06699,2.7149 146.332,2.24033 C 146.59697,1.76471 146.96698,1.39362 147.442,1.12701 C 147.91701,0.86041 148.41498,0.7276 148.93698,0.7276 C 149.46098,0.7276 149.959,0.86041 150.43399,1.12701 C 150.90698,1.39362 151.27699,1.76471 151.54399,2.24033 C 151.81099,2.7149 151.94397,3.2149 151.94397,3.74033 C 151.94397,4.2666 151.80899,4.77249 151.537,5.25299 C 151.26601,5.73541 150.89198,6.1055 150.41899,6.3623 C 149.94597,6.6192 149.45099,6.7471 148.93698,6.7471 z M 147.24199,1.73831 L 147.24199,5.70709 L 148.04898,5.70709 C 148.80399,5.70709 149.22699,5.7041 149.317,5.6973 C 149.584,5.6748 149.79201,5.6221 149.94098,5.53912 C 150.089,5.45508 150.21201,5.32809 150.31099,5.1582 C 150.40999,4.9873 150.46098,4.79691 150.46098,4.58789 C 150.46098,4.30371 150.36699,4.05859 150.17899,3.8555 C 149.99199,3.65039 149.729,3.52539 149.39101,3.47461 C 149.50998,3.42972 149.60399,3.37991 149.66899,3.32721 C 149.73398,3.2735 149.82399,3.17191 149.93701,3.02252 C 149.96698,2.9834 150.06398,2.8223 150.23,2.53809 L 150.69899,1.73831 L 149.70398,1.73831 L 149.36998,2.3819 C 149.14699,2.81549 148.96098,3.0889 148.81398,3.2002 C 148.66899,3.3125 148.48198,3.36823 148.25699,3.36823 L 148.04898,3.36823 L 148.04898,1.73831 L 147.24199,1.73831 z M 148.04898,3.99319 L 148.37497,3.99319 C 148.84099,3.99319 149.12898,4.01169 149.24199,4.04691 C 149.354,4.08398 149.44199,4.14551 149.50699,4.23541 C 149.57399,4.3252 149.60498,4.42679 149.60498,4.5401 C 149.60498,4.6524 149.57399,4.75 149.50998,4.83499 C 149.44701,4.92188 149.35698,4.9834 149.23901,5.02249 C 149.12198,5.05759 148.834,5.07718 148.37497,5.07718 L 148.04898,5.07718 L 148.04898,3.99319"
               id="path2521"
               style="fill:#214478;fill-opacity:1;fill-rule:evenodd;stroke:none" /></g></g></g></g></g></svg>