<?xml version="1.0" encoding="utf-8"?>
<!-- Generator: Adobe Illustrator 14.0.0, SVG Export Plug-In . SVG Version: 6.00 Build 43363)  -->
<!DOCTYPE svg PUBLIC "-//W3C//DTD SVG 1.1//EN" "http://www.w3.org/Graphics/SVG/1.1/DTD/svg11.dtd">
<svg version="1.1" id="Layer_1" xmlns="http://www.w3.org/2000/svg" xmlns:xlink="http://www.w3.org/1999/xlink" x="0px" y="0px"
	 width="534px" height="40px" viewBox="0 0 534 40" enable-background="new 0 0 534 40" xml:space="preserve">
<g>
	<path fill-rule="evenodd" clip-rule="evenodd" fill="#231F20" d="M7.71,20.146c0,5.732,1.158,12.592,10.004,12.592
		c6.939,0,21.637,0,21.637,0V17.383H22.407v6.35h10.41v2.965c0,0-10.717,0-13.678,0c-5.135,0-4.387-4.982-4.387-6.447
		c0-3.65,0.68-5.631,4.082-5.631h20.516V8.018H18.937C10.876,8.018,7.71,12.777,7.71,20.146L7.71,20.146z"/>
	<polygon fill-rule="evenodd" clip-rule="evenodd" fill="#231F20" points="45.497,32.738 73.052,32.738 73.052,26.697 
		52.386,26.697 52.386,23.732 73.052,23.732 73.052,17.742 52.386,17.742 52.386,15.131 73.052,15.131 73.052,8.018 45.497,8.018 
		45.497,32.738 	"/>
	<polygon fill-rule="evenodd" clip-rule="evenodd" fill="#231F20" points="102.464,26.236 88.585,8.018 79.194,8.018 79.194,32.738 
		85.624,32.738 85.624,14.516 99.503,32.738 108.894,32.738 108.894,8.018 102.464,8.018 102.464,26.236 	"/>
	<polygon fill-rule="evenodd" clip-rule="evenodd" fill="#231F20" points="115.858,32.738 143.413,32.738 143.413,26.697 
		122.747,26.697 122.747,23.732 143.413,23.732 143.413,17.742 122.747,17.742 122.747,15.131 143.413,15.131 143.413,8.018 
		115.858,8.018 115.858,32.738 	"/>
	<path fill-rule="evenodd" clip-rule="evenodd" fill="#231F20" d="M180.382,16.82c0-3.43-0.068-8.803-8.266-8.803H149.56v24.721
		h6.635v-7.217h10.307l5.768,7.217h8.572l-6.174-7.934C179.19,24.133,180.382,20.92,180.382,16.82L180.382,16.82z M170.226,19.471
		H156.19v-4.658h14.137c1.889,0,3.215,0.562,3.215,2.1C173.542,18.447,173.235,19.471,170.226,19.471L170.226,19.471z"/>
	<polygon fill-rule="evenodd" clip-rule="evenodd" fill="#231F20" points="227.712,8.018 220.825,8.018 220.825,32.738 
		245.624,32.738 245.624,26.697 227.712,26.697 227.712,8.018 	"/>
	<path fill-rule="evenodd" clip-rule="evenodd" fill="#231F20" d="M195.401,8.018l-13.879,24.721h7.553l2.723-4.863h16.156
		l2.705,4.863h7.553L204.331,8.018H195.401L195.401,8.018z M195.208,21.775l4.658-8.316l4.67,8.316H195.208L195.208,21.775z"/>
	<path fill-rule="evenodd" clip-rule="evenodd" fill="#231F20" d="M286.862,8.018h-20.41v6.602v18.119c0,0,14.697,0,21.637,0
		c8.301,0,10-5.223,10-12.592S294.925,8.018,286.862,8.018L286.862,8.018z M286.657,26.697c-2.961,0-13.676,0-13.676,0V14.619
		h13.982c3.811,0,4.082,2.391,4.082,5.631C291.046,23.217,291.114,26.697,286.657,26.697L286.657,26.697z"/>
	<polygon fill-rule="evenodd" clip-rule="evenodd" fill="#231F20" points="357.507,26.236 343.628,8.018 334.237,8.018 
		334.237,32.738 340.669,32.738 340.669,14.516 354.548,32.738 363.938,32.738 363.938,8.018 357.507,8.018 357.507,26.236 	"/>
	<path fill-rule="evenodd" clip-rule="evenodd" fill="#231F20" d="M380.806,8.018l-13.881,24.721h7.553l2.723-4.863h16.158
		l2.703,4.863h7.553L389.733,8.018H380.806L380.806,8.018z M380.61,21.775l4.658-8.316l4.67,8.316H380.61L380.61,21.775z"/>
	<polygon fill-rule="evenodd" clip-rule="evenodd" fill="#231F20" points="314.866,18.662 306.054,8.018 297.071,8.018 
		311.259,24.193 311.259,32.738 318.302,32.738 318.302,24.193 332.487,8.018 323.505,8.018 314.866,18.662 	"/>
	<polygon fill-rule="evenodd" clip-rule="evenodd" fill="#231F20" points="424.942,25.238 416.778,8.018 406.165,8.018 
		406.165,32.738 412.595,32.738 412.595,13.877 421.983,32.738 427.903,32.738 437.294,13.877 437.294,32.738 443.72,32.738 
		443.72,8.018 433.108,8.018 424.942,25.238 	"/>
	<polygon fill-rule="evenodd" clip-rule="evenodd" fill="#231F20" points="451.157,8.018 451.157,32.738 458.099,32.738 
		458.048,8.018 451.157,8.018 	"/>
	<path fill-rule="evenodd" clip-rule="evenodd" fill="#231F20" d="M462.94,20.146c0,7.369,1.699,12.592,10.004,12.592
		c6.939,0,19.49,0,19.49,0v-6.014c0,0-15.105-0.027-18.064-0.027c-4.455,0-4.387-3.48-4.387-6.447c0-3.242,0.271-5.631,4.08-5.631
		h18.371V8.018h-18.268C466.104,8.018,462.94,12.777,462.94,20.146L462.94,20.146z"/>
	<path fill-rule="evenodd" clip-rule="evenodd" fill="#231F20" d="M519.749,17.691h-14.902c-1.07,0-2.271-0.307-2.271-1.484
		s1.201-1.484,2.271-1.484c2.961,0,21.381-0.025,21.381-0.025V8.684c0,0-16.072,0-23.016,0c-5.865,0-7.293,3.02-7.293,7.523
		s1.428,7.525,7.293,7.525h14.902c1.074,0,2.271,0.303,2.271,1.484c0,1.178-1.197,1.48-2.271,1.48
		c-2.957,0-21.381,0.027-21.381,0.027v6.014c0,0,16.076,0,23.016,0c5.867,0,7.295-3.021,7.295-7.521
		C527.044,20.711,525.616,17.691,519.749,17.691L519.749,17.691z"/>
</g>
</svg>
