<?xml version="1.0" encoding="UTF-8" standalone="no"?>
<!-- Created with Inkscape (http://www.inkscape.org/) -->

<svg
   xmlns:dc="http://purl.org/dc/elements/1.1/"
   xmlns:cc="http://creativecommons.org/ns#"
   xmlns:rdf="http://www.w3.org/1999/02/22-rdf-syntax-ns#"
   xmlns:svg="http://www.w3.org/2000/svg"
   xmlns="http://www.w3.org/2000/svg"
   xmlns:sodipodi="http://sodipodi.sourceforge.net/DTD/sodipodi-0.dtd"
   xmlns:inkscape="http://www.inkscape.org/namespaces/inkscape"
   width="238.96243"
   height="238.9299"
   id="svg4111"
   sodipodi:version="0.32"
   inkscape:version="0.48.4 r9939"
   version="1.0"
   sodipodi:docname="General_Motors_logo.svg"
   inkscape:output_extension="org.inkscape.output.svg.inkscape">
  <defs
     id="defs4113">
    <inkscape:perspective
       sodipodi:type="inkscape:persp3d"
       inkscape:vp_x="0 : 526.18109 : 1"
       inkscape:vp_y="0 : 1000 : 0"
       inkscape:vp_z="744.09448 : 526.18109 : 1"
       inkscape:persp3d-origin="372.04724 : 350.78739 : 1"
       id="perspective4119" />
  </defs>
  <sodipodi:namedview
     id="base"
     pagecolor="#ffffff"
     bordercolor="#666666"
     borderopacity="1.0"
     gridtolerance="10000"
     guidetolerance="10"
     objecttolerance="10"
     inkscape:pageopacity="0.0"
     inkscape:pageshadow="2"
     inkscape:zoom="1.9908778"
     inkscape:cx="119.48121"
     inkscape:cy="119.46496"
     inkscape:document-units="px"
     inkscape:current-layer="layer1"
     showgrid="false"
     inkscape:window-width="1024"
     inkscape:window-height="721"
     inkscape:window-x="-4"
     inkscape:window-y="-4"
     fit-margin-top="0"
     fit-margin-left="0"
     fit-margin-right="0"
     fit-margin-bottom="0"
     inkscape:window-maximized="0" />
  <metadata
     id="metadata4116">
    <rdf:RDF>
      <cc:Work
         rdf:about="">
        <dc:format>image/svg+xml</dc:format>
        <dc:type
           rdf:resource="http://purl.org/dc/dcmitype/StillImage" />
      </cc:Work>
    </rdf:RDF>
  </metadata>
  <g
     inkscape:label="Layer 1"
     inkscape:groupmode="layer"
     id="layer1"
     transform="translate(-169.09021,-178.61151)">
    <path
       style="fill:#22559e;overflow:visible"
       d="m 169.09021,178.61151 238.96243,0 0,238.9299 -238.96243,0 0,-238.9299 z"
       id="rect4057"
       inkscape:connector-curvature="0" />
    <path
       style="fill:#ffffff;overflow:visible"
       d="m 228.86137,338.62448 119.55228,0 0,19.39815 -119.55228,0 0,-19.39815 z"
       id="rect4059"
       inkscape:connector-curvature="0" />
    <path
       transform="matrix(0.6641609,0,0,0.6641609,159.01356,170.97301)"
       style="fill:#ffffff;overflow:visible"
       d="m 194.418,101.792 30.413,0 14.882,98.896 15.213,-98.896 30.081,0 0,135.124 -20.044,0 0,-101.762 -16.894,101.762 -17.321,0 -16.302,-101.762 0,101.564 -20.028,0 0,-134.926"
       id="polyline4061"
       inkscape:connector-curvature="0" />
    <path
       d="m 260.45418,267.07509 13.65117,0 0,-6.33808 c 0,-6.20791 0,-24.01805 -22.83585,-24.01805 -22.33174,0 -22.33174,20.33993 -22.33174,24.01805 0,1.95928 0,43.07614 0,46.64468 0,13.61796 4.9812,22.54029 17.88718,22.6273 7.63121,0.0113 12.95113,-4.76203 14.07822,-6.57918 l 0,4.76203 13.20219,0.13084 0,-48.62654 -21.4783,0 0,10.79395 7.82713,0 c 0,0 0,12.57788 0,14.20972 0,7.20349 -2.25482,12.10699 -8.96551,12.10699 -6.72197,0 -8.85658,-5.22163 -8.85658,-12.10699 0,-4.26923 0,-41.30283 0,-43.9628 0,-3.5692 0,-11.7138 8.85658,-11.7138 8.96551,0 8.96551,8.2761 8.96551,11.7138 0,2.98806 0,6.33808 0,6.33808"
       id="path4063"
       style="fill:#ffffff;overflow:visible"
       inkscape:connector-curvature="0" />
  </g>
</svg>
