<?xml version="1.0" encoding="UTF-8"?><svg version="1.1" viewBox="0 0 297 72" xmlns="http://www.w3.org/2000/svg"><path fill="#ED1C24" d="m278.27 43.62v-19.738h-6.605v-6.451h6.605v-11.522h7.066v11.522h9.216v6.451h-9.216v19.2c0 4.225 1.767 6.145 5.069 6.145 1.305 0 2.227-0.154 3.226-0.615l2.457 6.068c-1.613 0.691-3.303 0.999-5.683 0.999-7.911 0-12.135-4.378-12.135-12.059zm-45.544-7.3732c0-10.676 7.374-20.045 18.434-20.045 11.213 0 18.433 7.91 18.433 20.045 0 0.538-0.077 1.306-0.077 1.306h-29.723c0.384 7.988 6.144 12.288 11.981 12.288 4.147 0 8.294-1.689 10.292-6.451l6.298 2.611c-2.227 5.376-7.758 10.292-16.436 10.292-11.52 0-19.202-8.679-19.202-20.046zm18.28-13.594c-5.222 0-9.37 3.533-10.753 9.063h21.813c-0.23-3.303-2.996-9.063-11.06-9.063zm-52.915 27.188h-0.307v5.222h-6.758v-54.991h7.065v17.358l-0.307 5.223h0.307c2.151-3.456 6.837-6.452 12.827-6.452 9.523 0 17.895 8.525 17.895 20.046s-8.372 20.046-17.895 20.046c-5.99 0-10.676-2.996-12.827-6.452zm23.656-13.594c0-8.449-5.683-13.594-11.981-13.594s-11.982 4.992-11.982 13.594 5.684 13.594 11.982 13.594 11.981-5.145 11.981-13.594zm-71.424 7.4489c0-8.524 7.68-13.133 16.513-13.133 5.069 0 8.755 1.459 10.215 2.305v-1.075c0-5.684-4.532-9.14-9.832-9.14-3.916 0-7.68 1.92-8.985 5.453l-6.451-2.765c1.305-3.456 5.836-9.14 15.283-9.14 9.217 0 16.743 5.531 16.743 16.13v22.733h-6.758v-5.222h-0.308c-2.073 3.148-5.913 6.451-12.365 6.451-7.681 0-14.055-4.762-14.055-12.597zm26.728-4.838s-2.995-2.458-8.987-2.458c-7.45 0-10.368 3.995-10.368 7.45 0 3.995 4.147 5.992 7.834 5.992 5.607 0 11.521-4.84 11.521-10.984zm-58.753-21.428l-0.307 5.222h0.307c1.997-3.456 6.759-6.451 11.905-6.451 9.6 0 14.362 6.528 14.362 15.822v23.041h-7.066v-21.966c0-7.834-3.917-10.446-9.293-10.446-6.145 0-9.908 5.838-9.908 11.598v20.814h-7.066v-54.991h7.066v17.357zm-43.084 32.411h-0.307l0.307 5.222v16.591h-7.066v-54.224h6.759v5.223h0.307c2.151-3.456 6.836-6.452 12.827-6.452 9.523 0 17.895 8.525 17.895 20.046s-8.372 20.046-17.895 20.046c-5.991 0-10.676-2.996-12.827-6.452zm23.656-13.594c0-8.449-5.684-13.594-11.981-13.594-6.299 0-11.982 4.992-11.982 13.594s5.683 13.594 11.982 13.594c6.297 0 11.981-5.145 11.981-13.594zm-45.313 18.817h7.066v-54.991h-7.066v54.991zm-32.793-54.992l-20.738 54.992h7.835l5.375-14.9h23.119l5.3 14.9h7.833l-20.737-54.992h-7.987zm3.839 8.679h0.308l8.986 24.807h-18.279l8.985-24.807z"/></svg>