<svg id="Layer_1" data-name="Layer 1" xmlns="http://www.w3.org/2000/svg" viewBox="0 0 108.38 78.02"><title>Gap_logo</title><path d="M445.42,574.53c-2,0-8.36.63-8.36,8.78v57.9c0,0.07-.34,5.72,2.72,9a7.75,7.75,0,0,0,5.92,2.34,9,9,0,0,0,5.88-2.36l0,0a1.5,1.5,0,0,1,1.33,0,2,2,0,0,1,.71,1.72h1.1V615.6h2.72v-1H445.89v1h3.39V646.8a5.54,5.54,0,0,1-1,3.83,3.28,3.28,0,0,1-2.56,1,2.89,2.89,0,0,1-2.15-.88c-1.08-1.11-1.59-3.2-1.51-6.21,0-.08,0-0.14,0-0.18V581c0-.23.25-5.5,3.16-5.5s6.39,7.34,7.58,21.37v2.21h1v-23.9h-1v1.95l-0.09.06a1.41,1.41,0,0,1-.78.26,2.31,2.31,0,0,1-1-.61A9.12,9.12,0,0,0,445.42,574.53Zm79,77.44H537v-1h-4.35V620.72h5.4a6.91,6.91,0,0,0,7.35-6.69V583.3c0-7.4-9.47-7.54-9.56-7.54l-11.7,0v1h3V651h-2.76v1Zm-31.6-.1h11.59v-1h-3.08L493,575.8h-4.53c-0.41,3.93-7.4,71-7.4,71.92a3.27,3.27,0,0,1-3.12,3.16h-0.59v1h8.1v-1h-0.43a3,3,0,0,1-2.86-3.31l2.8-27.09h7.54l3.26,30.4h-3v1Zm40.1-32.41h-0.19V576.84h3.19c3.71,0,4.29,4.93,4.29,5V615c0,4.34-3.27,4.44-3.3,4.44h-4Zm-40.43-.19h-7.33l0-.21,3.62-34.12Z" transform="translate(-437.04 -574.53)"/></svg>