<?xml version="1.0" encoding="UTF-8" standalone="no"?>
<svg
   xmlns:dc="http://purl.org/dc/elements/1.1/"
   xmlns:cc="http://web.resource.org/cc/"
   xmlns:rdf="http://www.w3.org/1999/02/22-rdf-syntax-ns#"
   xmlns:svg="http://www.w3.org/2000/svg"
   xmlns="http://www.w3.org/2000/svg"
   xmlns:sodipodi="http://sodipodi.sourceforge.net/DTD/sodipodi-0.dtd"
   xmlns:inkscape="http://www.inkscape.org/namespaces/inkscape"
   width="165.082"
   height="165.08299"
   id="svg2"
   sodipodi:version="0.32"
   inkscape:version="0.44.1"
   sodipodi:docname="Goldman_Sachs.eps(converted)-page1.svg"
   sodipodi:docbase="C:\Documents and Settings\John\My Documents\My Pictures"
   version="1.0">
  <metadata
     id="metadata55">
    <rdf:RDF>
      <cc:Work
         rdf:about="">
        <dc:format>image/svg+xml</dc:format>
        <dc:type
           rdf:resource="http://purl.org/dc/dcmitype/StillImage" />
      </cc:Work>
    </rdf:RDF>
  </metadata>
  <defs
     id="defs53" />
  <sodipodi:namedview
     inkscape:window-height="573"
     inkscape:window-width="853"
     inkscape:pageshadow="2"
     inkscape:pageopacity="0.0"
     guidetolerance="10.0"
     gridtolerance="10.0"
     objecttolerance="10.0"
     borderopacity="1.0"
     bordercolor="#666666"
     pagecolor="#ffffff"
     id="base"
     inkscape:zoom="1.0992959"
     inkscape:cx="84.159817"
     inkscape:cy="69.274148"
     inkscape:window-x="104"
     inkscape:window-y="34"
     inkscape:current-layer="svg2"
     borderlayer="false" />
  <g
     style="fill:white;fill-rule:evenodd;stroke:none;stroke-width:1pt;stroke-linecap:butt;stroke-linejoin:miter;stroke-dasharray:none"
     id="g4"
     transform="translate(-13.83693,-13.83694)">
    <path
       d="M 0,0 C 0,0 192.756,0 192.756,0 C 192.756,0 192.756,192.756 192.756,192.756 C 192.756,192.756 0,192.756 0,192.756 C 0,192.756 0,0 0,0 z "
       id="path6" />
  </g>
  <g
     style="fill:#64a8f0;fill-rule:evenodd;stroke:none;stroke-width:1pt;stroke-linecap:butt;stroke-linejoin:miter;stroke-dasharray:none"
     id="g8">
    <path
       d="M 0,165.083 C 0,165.083 165.082,165.083 165.082,165.083 C 165.082,165.083 165.082,0 165.082,0 C 165.082,0 0,0 0,0 C 0,0 0,165.083 0,165.083 z "
       id="path10" />
  </g>
  <g
     transform="translate(138.6623,14.4726)"
     style="fill:white;fill-rule:evenodd;stroke:none;stroke-width:1pt;stroke-linecap:butt;stroke-linejoin:miter;stroke-dasharray:none"
     id="g12">
    <path
       d="M 5.721,23.2217 C 5.721,23.2217 0,23.2217 0,23.2217 C 0,23.2217 0,0.6729 0,0.6729 C 0,0.6729 5.385,0.6729 5.385,0.6729 C 5.385,0.6729 5.385,3.1973 5.385,3.1973 C 6.058,1.6826 7.741,0.336 9.929,0.168 C 13.631,0 16.155,2.1875 16.155,6.8994 C 16.155,6.8994 16.155,23.2217 16.155,23.2217 C 16.155,23.2217 10.265,23.2217 10.265,23.2217 C 10.265,23.2217 10.265,6.2266 10.265,6.2266 C 10.265,4.2071 10.265,2.5244 8.919,2.1875 C 8.414,2.0196 7.573,2.1875 6.899,2.6914 C 6.058,3.5332 5.721,4.543 5.721,6.2266 C 5.721,6.5625 5.721,23.2217 5.721,23.2217 z "
       id="path14" />
  </g>
  <g
     transform="translate(33.1513,14.6406)"
     style="fill:white;fill-rule:evenodd;stroke:none;stroke-width:1pt;stroke-linecap:butt;stroke-linejoin:miter;stroke-dasharray:none"
     id="g16">
    <path
       d="M 13.9668,2.0195 C 12.6211,0.8418 10.9375,0 8.918,0 C 6.8995,0 5.3848,0.8418 3.8702,2.0195 C 1.5137,4.0391 0,7.7412 0,11.7793 C 0,15.9863 1.5137,19.5195 3.8702,21.54 C 5.3848,22.7178 6.8995,23.5586 8.918,23.5586 C 10.9375,23.5586 12.6211,22.7178 13.9668,21.54 C 16.4913,19.5195 17.837,15.9863 17.837,11.7793 C 17.837,7.7412 16.4913,4.0391 13.9668,2.0195 z M 11.7793,11.7793 C 11.7793,15.9863 11.7793,19.3525 11.1055,21.0352 C 10.6016,21.876 10.0958,22.3809 8.918,22.3809 C 7.9092,22.3809 7.2364,21.876 6.8995,21.0352 C 6.0577,19.3525 6.0577,15.9863 6.0577,11.7793 C 6.0577,7.7412 6.0577,4.207 6.8995,2.5234 C 7.2364,1.6826 7.9092,1.1777 8.918,1.1777 C 10.0958,1.1777 10.6016,1.6826 11.1055,2.5234 C 11.9483,4.207 11.7793,7.7412 11.7793,11.7793 z "
       id="path18" />
  </g>
  <g
     transform="translate(92.55327,46.2773)"
     style="fill:white;fill-rule:evenodd;stroke:none;stroke-width:1pt;stroke-linecap:butt;stroke-linejoin:miter;stroke-dasharray:none"
     id="g20">
    <path
       d="M 13.294,0 C 13.294,0 13.294,6.0576 13.294,6.0576 C 13.294,6.0576 12.117,6.0576 12.117,6.0576 C 11.444,3.5342 10.434,1.3467 7.742,1.1778 C 6.059,1.0098 4.544,2.0195 4.375,3.5342 C 4.207,5.0479 4.712,6.3945 7.742,8.0772 C 11.612,10.2647 14.641,11.2744 14.641,15.8184 C 14.641,20.6983 10.434,23.0547 6.9,23.0547 C 5.385,23.0547 0.168,23.0547 0.168,23.0547 C 0.168,23.0547 0.168,14.6397 0.168,14.6397 C 0.168,14.6397 1.347,14.6397 1.347,14.6397 C 2.189,19.0156 3.535,21.708 6.732,21.876 C 8.751,21.876 10.265,20.6983 10.265,18.5108 C 10.265,16.3233 8.919,14.9766 5.722,13.125 C 2.189,10.9375 0,9.5918 0,6.5625 C 0,2.5235 2.862,0 7.405,0 C 8.919,0 13.294,0 13.294,0 z "
       id="path22" />
  </g>
  <g
     transform="translate(87.16927,14.4726)"
     style="fill:white;fill-rule:evenodd;stroke:none;stroke-width:1pt;stroke-linecap:butt;stroke-linejoin:miter;stroke-dasharray:none"
     id="g24">
    <path
       d="M 26.083,23.2217 C 26.083,23.2217 26.083,6.8994 26.083,6.8994 C 26.083,2.1875 23.558,0 19.856,0.168 C 17.332,0.336 15.818,2.0196 15.144,3.3653 C 14.303,1.0098 12.452,0 9.759,0.168 C 7.573,0.336 5.889,1.6826 5.216,3.1973 C 5.216,3.1973 5.216,0.6729 5.216,0.6729 C 5.216,0.6729 0,0.6729 0,0.6729 C 0,0.6729 0,23.2217 0,23.2217 C 0,23.2217 5.721,23.2217 5.721,23.2217 C 5.721,23.2217 5.721,6.7315 5.721,6.2266 C 5.721,4.543 5.889,3.5332 6.899,2.6914 C 7.573,2.1875 8.246,2.0196 8.75,2.1875 C 10.096,2.5244 10.096,4.2071 10.096,6.2266 C 10.096,6.2266 10.096,23.2217 10.096,23.2217 C 10.096,23.2217 15.818,23.2217 15.818,23.2217 C 15.818,23.2217 15.818,6.0586 15.818,6.0586 C 15.818,4.543 16.154,3.5332 16.996,2.6914 C 17.669,2.1875 18.342,2.0196 18.847,2.1875 C 20.193,2.5244 20.361,4.2071 20.361,6.2266 C 20.361,6.2266 20.361,23.2217 20.361,23.2217 C 20.361,23.2217 26.083,23.2217 26.083,23.2217 z "
       id="path26" />
  </g>
  <g
     transform="translate(54.8594,10.4336)"
     style="fill:white;fill-rule:evenodd;stroke:none;stroke-width:1pt;stroke-linecap:butt;stroke-linejoin:miter;stroke-dasharray:none"
     id="g28">
    <path
       d="M 0,0 C 0,0 5.8896,0 5.8896,0 C 5.8896,0 5.8896,27.2607 5.8896,27.2607 C 5.8896,27.2607 0,27.2607 0,27.2607 C 0,27.2607 0,0 0,0 z "
       id="path30" />
  </g>
  <g
     transform="translate(64.4512,10.4336)"
     style="fill:white;fill-rule:evenodd;stroke:none;stroke-width:1pt;stroke-linecap:butt;stroke-linejoin:miter;stroke-dasharray:none"
     id="g32">
    <path
       d="M 17.165,27.2607 C 17.165,27.2607 17.165,0 17.165,0 C 17.165,0 11.2744,0 11.2744,0 C 11.2744,0 11.2744,6.3945 11.2744,6.3945 C 10.7705,5.2168 9.5917,4.375 7.9091,4.375 C 3.7021,4.375 0.3359,8.75 0.1679,15.4814 C 0,20.0254 1.5146,27.5976 7.4042,27.5976 C 9.7597,27.5976 11.1064,26.2519 11.6113,25.0732 C 11.6113,25.0732 11.6113,27.2607 11.6113,27.2607 C 11.6113,27.2607 17.165,27.2607 17.165,27.2607 z M 10.2646,6.5634 C 11.4433,8.2461 11.4433,12.2841 11.4433,15.4814 C 11.4433,18.8466 11.6113,23.2226 10.2646,25.0732 C 9.7597,25.747 9.2558,26.083 8.414,26.083 C 7.2363,26.083 6.5625,24.7373 6.2265,22.5498 C 6.0576,20.5302 6.0576,18.0058 6.0576,15.3134 C 6.0576,10.7705 6.3945,5.7216 8.582,5.7216 C 9.4238,5.7216 9.7597,6.0586 10.2646,6.5634 z "
       id="path34" />
  </g>
  <g
     transform="translate(117.1223,14.6406)"
     style="fill:white;fill-rule:evenodd;stroke:none;stroke-width:1pt;stroke-linecap:butt;stroke-linejoin:miter;stroke-dasharray:none"
     id="g36">
    <path
       d="M 13.631,1.1777 C 15.145,2.0195 16.155,3.3652 16.155,6.3945 C 16.155,6.3945 16.155,23.0537 16.155,23.0537 C 16.155,23.0537 10.602,23.0537 10.602,23.0537 C 10.602,23.0537 10.602,20.5303 10.602,20.5303 C 9.929,22.3809 8.078,23.5586 5.553,23.5586 C 3.534,23.5586 0,22.5498 0,17.333 C 0,12.4521 3.198,11.4434 6.732,9.9287 C 9.929,8.583 10.265,8.4131 10.265,7.0674 C 10.265,5.8906 10.265,4.8799 10.265,3.3652 C 10.265,1.8516 9.425,1.1777 7.741,1.1777 C 7.068,1.3457 5.89,1.6826 5.89,2.5234 C 5.721,3.5342 6.899,3.5342 7.068,5.0488 C 7.236,7.4043 5.385,8.2451 3.703,8.0771 C 2.524,8.0771 1.178,7.4043 1.01,5.5537 C 0.842,2.5234 4.207,0 8.919,0 C 11.107,0 12.453,0.5049 13.631,1.1777 z M 10.265,9.5918 C 10.265,9.5918 8.414,10.7695 8.414,10.7695 C 6.563,11.9482 6.226,13.4619 6.058,15.1455 C 5.89,16.4912 5.89,17.6699 6.058,19.6885 C 6.226,21.54 7.405,21.876 8.414,21.54 C 9.593,21.0352 10.265,18.8477 10.265,16.4912 C 10.265,16.4912 10.265,10.4336 10.265,9.5918 z "
       id="path38" />
  </g>
  <g
     transform="translate(33.8232,46.2773)"
     style="fill:white;fill-rule:evenodd;stroke:none;stroke-width:1pt;stroke-linecap:butt;stroke-linejoin:miter;stroke-dasharray:none"
     id="g40">
    <path
       d="M 13.6319,1.0098 C 15.1465,2.0195 15.9873,3.1973 15.9873,6.2256 C 15.9873,6.2256 15.9873,23.0547 15.9873,23.0547 C 15.9873,23.0547 10.6026,23.0547 10.6026,23.0547 C 10.6026,23.0547 10.6026,20.5303 10.6026,20.5303 C 9.9297,22.2129 8.0791,23.3906 5.5537,23.3906 C 3.3662,23.3906 0,22.5488 0,17.333 C 0,12.4531 3.1983,11.4434 6.5645,9.9287 C 9.9297,8.4141 10.2656,8.2461 10.2656,7.0674 C 10.2656,5.8897 10.2656,4.8799 10.2656,3.3653 C 10.2656,1.6826 9.4239,1.0098 7.7422,1.1778 C 7.0684,1.1778 5.8906,1.5147 5.8906,2.3555 C 5.7227,3.5342 6.9004,3.5342 7.0684,5.0479 C 7.2373,7.2363 5.3858,8.0772 3.7031,8.0772 C 2.5254,7.9092 1.1787,7.2363 1.0098,5.3848 C 0.8418,2.5235 4.208,0 8.9199,0 C 11.1074,0 12.4531,0.3369 13.6319,1.0098 z M 10.2656,9.4238 C 10.2656,9.4238 8.4151,10.6016 8.4151,10.6016 C 6.5645,11.7793 6.2276,13.294 6.0586,14.9766 C 5.8906,16.3233 5.8906,17.669 6.0586,19.5205 C 6.0586,21.5401 7.2373,21.876 8.2461,21.3711 C 9.5928,20.8662 10.2656,18.8477 10.2656,16.3233 C 10.2656,16.3233 10.2656,10.2647 10.2656,9.4238 z "
       id="path42" />
  </g>
  <g
     transform="translate(53.6816,41.9023)"
     style="fill:white;fill-rule:evenodd;stroke:none;stroke-width:1pt;stroke-linecap:butt;stroke-linejoin:miter;stroke-dasharray:none"
     id="g44">
    <path
       d="M 34.4967,11.1065 C 34.4967,6.3945 31.9727,4.0381 28.2705,4.375 C 26.4199,4.543 24.9053,5.3848 24.0635,6.5625 C 24.0635,6.5625 24.0635,0 24.0635,0 C 24.0635,0 18.3418,0 18.3418,0 C 18.3418,0 18.3418,15.4815 18.3418,15.4815 C 18.3418,21.2031 14.3037,26.5879 10.2647,26.419 C 7.4033,26.419 6.7305,24.2315 6.3946,21.876 C 5.8897,18.5098 5.8897,14.6397 6.2256,10.4326 C 6.5625,7.7403 7.2354,5.5528 9.2549,5.5528 C 10.7696,5.5528 10.9375,6.5625 10.2647,7.2354 C 9.5908,8.0772 8.5821,8.918 9.0869,10.7695 C 9.5908,12.7891 12.7881,13.125 14.3037,11.6113 C 15.4815,10.2647 15.3135,8.0772 14.4717,6.7305 C 13.4619,5.0479 11.7793,4.375 9.2549,4.375 C 6.0576,4.375 0,7.2354 0,16.3233 C 0,26.083 6.2256,27.7656 9.7598,27.7656 C 13.7988,27.7656 17.3321,24.2315 18.3418,21.3711 C 18.3418,21.3711 18.3418,27.4297 18.3418,27.4297 C 18.3418,27.4297 24.0635,27.4297 24.0635,27.4297 C 24.0635,27.4297 24.0635,10.4326 24.0635,10.4326 C 24.0635,8.75 24.4004,7.7403 25.2412,6.8985 C 25.9151,6.3945 26.7559,6.2256 27.2608,6.3945 C 28.6074,6.7305 28.6074,8.4131 28.6074,10.4326 C 28.6074,10.4326 28.6074,27.4297 28.6074,27.4297 C 28.6074,27.4297 34.4967,27.4297 34.4967,27.4297 C 34.4967,27.4297 34.4967,11.1065 34.4967,11.1065 z "
       id="path46" />
  </g>
  <g
     transform="translate(8.9189,9.9287)"
     style="fill:white;fill-rule:evenodd;stroke:none;stroke-width:1pt;stroke-linecap:butt;stroke-linejoin:miter;stroke-dasharray:none"
     id="g48">
    <path
       d="M 20.3614,0 C 20.3614,0 20.3614,9.5918 20.3614,9.5918 C 20.3614,9.5918 19.1836,9.5918 19.1836,9.5918 C 18.1739,4.8799 15.9864,1.3457 12.9571,1.1777 C 10.9375,1.0097 9.7608,2.1875 8.75,3.8711 C 7.7412,5.8896 7.2354,10.0967 7.2354,15.1455 C 7.2354,19.8574 7.4043,23.3906 7.9092,25.915 C 8.2451,27.0928 9.0869,28.9443 11.2744,28.9443 C 12.4522,28.9443 13.294,28.6074 13.7989,27.9346 C 14.6407,26.9248 14.8086,24.9053 14.8086,23.5596 C 14.8086,21.3721 14.8086,20.6982 14.8086,19.0156 C 14.8086,17.333 14.3037,16.3232 13.4619,15.8183 C 12.7891,15.4814 11.7793,15.4814 11.2744,15.3135 C 11.2744,15.3135 11.2744,14.1357 11.2744,14.1357 C 11.2744,14.1357 20.6983,14.1357 20.6983,14.1357 C 20.6983,14.1357 20.6983,38.1992 20.6983,38.1992 C 20.6983,38.1992 19.5196,38.1992 19.5196,38.1992 C 19.0157,36.3486 18.6787,35.0019 17.8379,33.4873 C 16.9961,31.9736 15.4815,30.291 12.9571,30.291 C 10.2647,30.1221 8.2451,31.8056 8.2451,34.3291 C 8.2451,37.6953 10.2647,38.5361 13.9668,40.5547 C 17.501,42.5742 22.044,44.2578 22.044,50.1474 C 22.044,55.8691 17.1641,59.4033 11.6114,59.4033 C 10.4326,59.4033 2.6924,59.4033 2.6924,59.4033 C 2.6924,59.4033 2.6924,47.792 2.6924,47.792 C 2.6924,47.792 3.8701,47.792 3.8701,47.792 C 5.3848,56.542 9.0869,58.0566 11.6114,58.0566 C 14.8086,58.0566 16.3223,56.0371 16.3223,53.1767 C 16.1543,49.4736 13.6309,48.1279 10.0967,46.2773 C 5.0489,43.416 2.6924,42.0693 2.6924,37.3584 C 2.8604,33.3193 6.0586,30.7949 9.5918,29.7861 C 2.1875,28.9443 0,22.2139 0.168,14.9765 C 0.168,7.7412 4.375,0 12.6201,0 C 16.3223,0 20.3614,0 20.3614,0 z "
       id="path50" />
  </g>
</svg>
