<?xml version="1.0" encoding="UTF-8" standalone="no"?>
<!-- Created with Inkscape (http://www.inkscape.org/) -->
<svg
   xmlns:svg="http://www.w3.org/2000/svg"
   xmlns="http://www.w3.org/2000/svg"
   version="1.0"
   width="545.34003"
   height="99.629997"
   id="svg2">
  <defs
     id="defs4" />
  <path
     d="M 52.02669,75.7987 C 52.02669,75.7987 16.47788,75.7987 16.47788,75.7987 C 8.63772,75.7987 1.50202,69.35588 1.50202,57.25045 C 1.50202,31.33291 22.91137,23.72835 36.66642,23.72835 C 46.72526,23.72835 51.93008,27.59257 51.93008,27.59257 L 48.06586,34.45156 C 48.06586,34.45156 45.49227,31.21385 39.3548,30.53075 C 34.32657,29.9711 30.93358,32.19281 30.48367,33.87192 C 30.48367,33.87192 22.07899,64.68908 22.07899,64.68908 C 21.53368,66.7242 22.24212,69.71742 24.22775,69.71742 C 24.22775,69.71742 30.89353,69.71742 30.89353,69.71742 L 37.24605,48.45935 L 58.88568,48.45935 L 52.02669,75.7987 z"
     id="path2396"
     style="fill:#000000;fill-opacity:1;fill-rule:evenodd;stroke:none;stroke-width:1px;stroke-linecap:butt;stroke-linejoin:miter;stroke-opacity:1" />
  <path
     d="M 101.67949,23.04697 C 85.89691,23.04698 67.47874,34.39378 67.47874,55.50641 C 67.47874,71.43039 81.42373,77.34891 91.06255,77.34891 C 111.17503,77.34892 124.84066,58.19079 124.84066,43.82439 C 124.84066,29.3472 111.10459,23.04697 101.67949,23.04697 z M 100.73997,30.21647 C 105.58695,30.73795 104.13086,36.33505 104.13086,36.33505 C 104.13086,36.33505 96.43864,66.64744 96.43865,66.64744 C 96.43865,66.64744 95.36463,71.64012 90.23416,70.82321 C 85.88261,70.13033 86.80225,65.09209 86.80225,65.09209 C 86.80225,65.09209 94.79877,34.67826 94.79877,34.67827 C 94.79877,34.67827 96.29207,29.74159 100.73997,30.21647 z"
     id="path3168"
     style="fill:#000000;fill-opacity:1;fill-rule:evenodd;stroke:none;stroke-width:1px;stroke-linecap:butt;stroke-linejoin:miter;stroke-opacity:1" />
  <path
     d="M 240.37599,24.31492 C 240.37599,24.31492 206.39501,24.60232 206.39501,24.60232 L 193.17455,75.895 C 193.17456,75.895 228.32204,75.895 228.32204,75.895 C 234.57122,75.895 253.91039,66.89629 254.79677,44.29776 C 255.416,28.60597 243.39971,24.31492 240.37599,24.31492 z M 226.00592,31.75354 C 226.00592,31.75354 232.4809,31.75354 232.48091,31.75354 C 234.49781,32.29397 235.04622,35.21732 234.42509,37.53538 C 234.42509,37.53538 227.24006,66.03883 227.24006,66.03883 C 226.90337,67.29537 225.05968,68.57472 223.48694,68.57472 C 223.48694,68.57472 216.64003,68.57472 216.64002,68.57472 L 226.00592,31.75354 z"
     id="path3172"
     style="fill:#000000;fill-opacity:1;fill-rule:evenodd;stroke:none;stroke-width:1px;stroke-linecap:butt;stroke-linejoin:miter;stroke-opacity:1" />
  <path
     d="M 320.68654,76.18513 L 344.93452,76.18513 L 350.82746,53.09642 L 374.88223,24.11485 L 364.2059,24.11485 L 347.70092,42.94112 L 341.55333,24.11485 L 317.11214,24.11485 L 326.38627,53.19302 L 320.68654,76.18513 z"
     id="path3176"
     style="fill:#000000;fill-opacity:1;fill-rule:evenodd;stroke:none;stroke-width:1px;stroke-linecap:butt;stroke-linejoin:miter;stroke-opacity:1" />
  <path
     d="M 380.58195,24.11485 L 366.7373,75.78371 L 409.27377,75.78371 L 411.01268,67.87706 L 392.17461,67.87706 L 395.94222,54.25568 L 408.78389,54.25568 L 410.23983,45.46458 L 398.55057,45.46458 L 401.64194,32.61605 L 420.86644,32.61605 L 422.1223,24.11485 L 380.58195,24.11485 z"
     id="path3178"
     style="fill:#000000;fill-opacity:1;fill-rule:evenodd;stroke:none;stroke-width:1px;stroke-linecap:butt;stroke-linejoin:miter;stroke-opacity:1" />
  <path
     d="M 445.97212,24.11205 L 414.5115,75.89523 L 423.95781,75.89523 L 428.59004,68.06754 L 448.30239,68.06754 L 448.40383,75.89523 L 470.93398,75.89523 L 466.45939,24.11205 L 445.97212,24.11205 z M 444.73524,42.08308 L 447.05135,60.15555 L 433.42515,60.15555 L 444.73524,42.08308 z"
     id="path3180"
     style="fill:#000000;fill-opacity:1;fill-rule:evenodd;stroke:none;stroke-width:1px;stroke-linecap:butt;stroke-linejoin:miter;stroke-opacity:1" />
  <path
     d="M 491.48021,24.11205 L 477.66805,75.97541 L 500.86302,75.97541 L 505.10642,60.83179 L 508.20021,60.83179 L 512.0548,75.97541 L 535.6386,75.97541 L 531.4797,57.53513 C 531.4797,57.53513 543.838,50.28399 543.838,39.66553 C 543.838,28.66355 533.6051,24.11205 527.5237,24.11205 C 527.5237,24.11205 491.48021,24.11205 491.48021,24.11205 z M 519.4934,31.55067 C 521.2519,31.53488 521.4162,35.9985 520.8459,38.12709 C 520.8459,38.12709 518.1409,49.62314 518.1409,49.62314 C 517.6344,51.51349 515.3414,53.34139 514.0835,53.00433 C 514.0835,53.00433 507.42254,53.00434 507.42254,53.00433 L 512.2238,31.6521 C 512.2238,31.6521 519.4934,31.55067 519.4934,31.55067 z"
     id="path3184"
     style="fill:#000000;fill-opacity:1;fill-rule:evenodd;stroke:none;stroke-width:1px;stroke-linecap:butt;stroke-linejoin:miter;stroke-opacity:1" />
  <path
     d="M 271.51436,50.58467 C 271.51436,50.58467 280.69187,69.71256 280.69187,69.71256 C 280.69187,69.71256 271.87138,78.54233 268.13316,82.36788 C 258.20229,92.53075 250.54281,93.1707 249.56834,92.49973 C 246.71656,90.53619 256.40212,83.74703 259.69131,77.39329 C 262.99482,71.01189 265.08168,58.74784 271.51436,50.58467 z"
     id="path3188"
     style="fill:#000000;fill-opacity:1;fill-rule:evenodd;stroke:none;stroke-width:1px;stroke-linecap:butt;stroke-linejoin:miter;stroke-opacity:1" />
  <path
     d="M 274.1227,47.30009 L 284.16967,66.52458 C 284.16967,66.52458 293.22489,58.43628 305.51949,50.9711 C 305.51949,50.9711 301.65526,44.0155 301.65526,44.0155 C 301.65526,44.0155 296.90579,50.19825 295.95554,50.19825 C 293.45715,50.19825 288.51692,40.24789 288.51692,40.24789 L 274.1227,47.30009 z"
     id="path3190"
     style="fill:#000000;fill-opacity:1;fill-rule:evenodd;stroke:none;stroke-width:1px;stroke-linecap:butt;stroke-linejoin:miter;stroke-opacity:1" />
  <path
     d="M 283.68665,37.44633 L 273.44647,43.14605 L 273.73628,35.61082 L 283.68665,37.44633 z"
     id="path3192"
     style="fill:#000000;fill-opacity:1;fill-rule:evenodd;stroke:none;stroke-width:1px;stroke-linecap:butt;stroke-linejoin:miter;stroke-opacity:1" />
  <path
     d="M 288.1305,27.10954 C 288.03389,27.78578 287.55086,32.80927 287.55086,32.80927 L 278.66316,32.61605 L 288.1305,27.10954 z"
     id="path3194"
     style="fill:#000000;fill-opacity:1;fill-rule:evenodd;stroke:none;stroke-width:1px;stroke-linecap:butt;stroke-linejoin:miter;stroke-opacity:1" />
  <path
     d="M 266.49087,23.63174 L 271.41775,31.7466 L 285.90857,22.9555 L 286.295,12.61872 L 266.49087,23.63174 z"
     id="path3196"
     style="fill:#000000;fill-opacity:1;fill-rule:evenodd;stroke:none;stroke-width:1px;stroke-linecap:butt;stroke-linejoin:miter;stroke-opacity:1" />
  <path
     d="M 252.65385,96.58061 C 252.88135,95.71612 258.79806,94.46268 267.16711,87.971 C 272.43696,83.88329 287.26105,69.13293 287.26105,69.13293 C 287.26105,69.13293 298.86394,58.68562 307.49161,54.14251 C 308.24886,53.74376 309.26018,55.77808 308.50254,56.17607 C 296.85714,62.29351 293.39476,67.1595 287.26105,72.32091 C 281.1124,77.49488 274.30354,85.99324 267.84334,90.77255 C 263.9102,93.68234 254.85989,99.16533 253.40325,98.58588 C 252.65649,98.28881 252.42635,97.4451 252.65385,96.58061 z"
     id="path3198"
     style="fill:#000000;fill-opacity:1;fill-rule:evenodd;stroke:none;stroke-width:1px;stroke-linecap:butt;stroke-linejoin:miter;stroke-opacity:1" />
  <path
     d="M 364.26287,1.0016 C 363.28129,0.99666 354.5899,2.44392 350.7381,2.67529 C 344.72076,3.03672 336.66356,2.81107 330.63691,2.67529 C 323.56,2.51585 308.70989,1.61021 308.70988,1.61021 C 295.67499,1.88346 290.45144,9.66548 290.45144,16.48746 C 290.45144,22.48969 292.90279,23.69555 292.90281,25.17712 C 292.90281,27.57017 291.9742,30.26925 292.27729,32.42978 C 292.75137,35.80915 293.46794,43.04672 296.33472,43.04672 C 299.26725,43.04672 300.214,33.29198 302.13346,33.29198 C 303.32841,33.29198 303.39386,35.81097 305.22725,35.81097 C 306.55964,35.81097 306.37265,29.13312 307.15453,29.13312 C 308.27286,29.13312 309.55055,31.0773 310.34976,31.0773 C 311.90015,31.0773 312.47409,20.25749 313.27449,20.25749 C 315.84461,20.25749 318.57117,23.15138 323.55331,20.17296 C 324.50381,19.60474 321.74376,18.85389 321.94725,17.87375 C 322.25376,16.39721 329.54555,18.06727 330.48476,15.81122 C 331.1668,14.17294 325.24191,13.68665 326.76545,10.97611 C 326.89052,10.7536 333.1729,12.03834 335.94538,12.22716 C 339.67537,12.48118 348.40509,12.22716 348.40507,12.22716 C 360.3995,11.42047 362.11664,5.53707 364.3474,1.0185 C 364.35427,1.00457 364.3283,1.00193 364.26287,1.0016 z M 310.53572,5.90433 C 312.21444,6.03551 316.1485,6.19414 316.1485,6.19414 C 316.1485,6.19414 316.46766,8.65788 314.22009,8.67933 C 311.49196,8.70561 311.22204,11.93877 309.41156,11.94943 C 305.91231,11.97016 306.25762,13.54528 304.7877,13.83322 C 303.42395,14.10036 300.15547,13.83322 300.15547,13.83322 C 299.53626,13.50263 298.85371,12.66268 298.85371,11.88904 C 298.85371,11.5088 300.24194,11.11619 302.27572,11.11077 C 304.26754,11.10552 301.7392,7.99434 307.95636,7.98617 C 309.13106,8.02767 309.8129,5.84784 310.53572,5.90433 z M 295.13439,18.70214 C 296.43158,18.63388 298.15528,18.97903 298.80299,19.7165 C 299.83685,20.89362 300.13299,24.94044 298.5663,24.94044 C 297.09777,24.94044 297.06489,22.81408 296.33472,21.98189 C 295.57106,21.11152 293.1645,20.35146 293.59595,19.27694 C 293.7389,18.92091 294.35608,18.7431 295.13439,18.70214 z"
     id="path3200"
     style="fill:#000000;fill-opacity:1;fill-rule:evenodd;stroke:none;stroke-width:1px;stroke-linecap:butt;stroke-linejoin:miter;stroke-opacity:1" />
  <path
     d="M 167.19371,23.04728 C 151.41113,23.04729 132.99296,34.3941 132.99296,55.50673 C 132.99296,71.4307 146.93794,77.34923 156.57677,77.34923 C 176.68925,77.34923 190.35488,58.1911 190.35488,43.82471 C 190.35488,29.34751 176.61881,23.04728 167.19371,23.04728 z M 166.25419,30.21678 C 171.10117,30.73827 169.64508,36.33537 169.64508,36.33537 C 169.64508,36.33537 161.95286,66.64775 161.95287,66.64775 C 161.95287,66.64775 160.87885,71.64043 155.74838,70.82353 C 151.39683,70.13064 152.31647,65.09241 152.31647,65.09241 C 152.31647,65.09241 160.31299,34.67858 160.31299,34.67858 C 160.31299,34.67858 161.80629,29.74191 166.25419,30.21678 z"
     id="path3234"
     style="fill:#000000;fill-opacity:1;fill-rule:evenodd;stroke:none;stroke-width:1px;stroke-linecap:butt;stroke-linejoin:miter;stroke-opacity:1" />
</svg>
