<?xml version="1.0" encoding="UTF-8" standalone="no"?>
<svg
   xmlns:dc="http://purl.org/dc/elements/1.1/"
   xmlns:cc="http://creativecommons.org/ns#"
   xmlns:rdf="http://www.w3.org/1999/02/22-rdf-syntax-ns#"
   xmlns:svg="http://www.w3.org/2000/svg"
   xmlns="http://www.w3.org/2000/svg"
   xmlns:sodipodi="http://sodipodi.sourceforge.net/DTD/sodipodi-0.dtd"
   xmlns:inkscape="http://www.inkscape.org/namespaces/inkscape"
   version="1.1"
   width="1271.8602"
   height="91.206543"
   viewBox="-0.3779297 -0.7988281 1271.8602 91.206544"
   id="svg2"
   inkscape:version="0.48.4 r9939"
   sodipodi:docname="Halliburton_logo.svg">
  <metadata
     id="metadata32">
    <rdf:RDF>
      <cc:Work
         rdf:about="">
        <dc:format>image/svg+xml</dc:format>
        <dc:type
           rdf:resource="http://purl.org/dc/dcmitype/StillImage" />
      </cc:Work>
    </rdf:RDF>
  </metadata>
  <defs
     id="defs30" />
  <sodipodi:namedview
     pagecolor="#ffffff"
     bordercolor="#666666"
     borderopacity="1"
     objecttolerance="10"
     gridtolerance="10"
     guidetolerance="10"
     inkscape:pageopacity="0"
     inkscape:pageshadow="2"
     inkscape:window-width="1920"
     inkscape:window-height="1096"
     id="namedview28"
     showgrid="false"
     fit-margin-top="0"
     fit-margin-left="0"
     fit-margin-right="0"
     fit-margin-bottom="0"
     inkscape:zoom="0.5"
     inkscape:cx="1195.8168"
     inkscape:cy="-155.75099"
     inkscape:window-x="-8"
     inkscape:window-y="-8"
     inkscape:window-maximized="1"
     inkscape:current-layer="svg2" />
  <polygon
     clip-rule="evenodd"
     points="500,63.158203 0,63.158203 0,0 0,0 500,0 "
     id="polygon4"
     style="opacity:0;fill:#ffffff;fill-rule:evenodd"
     transform="matrix(2.75,0,0,2.75,-51.947164,-42.04077)" />
  <polygon
     clip-rule="evenodd"
     points="28.73291,26.991699 28.73291,15.400391 18.752441,15.400391 18.752441,47.859375 18.752441,47.859375 28.73291,47.859375 28.73291,35.55957 49.699219,35.55957 49.699219,47.859375 59.579102,47.859375 59.579102,15.400391 49.699219,15.400391 49.699219,26.991699 "
     id="polygon6"
     style="fill:#ed171f;fill-rule:evenodd"
     transform="matrix(2.75,0,0,2.75,-51.947164,-42.04077)" />
  <path
     clip-rule="evenodd"
     d="m 121.59555,89.572508 h 30.771 l 8.03918,-15.80176 h 55.44581 l 8.31446,15.80176 h 30.49571 L 205.59275,0.3103049 h -35.48413 l -48.51307,89.2622031 0,0 z m 66.25513,-68.474728 17.74207,33.267213 h -35.20484 l 17.46277,-33.267213 0,0 z"
     id="path8"
     inkscape:connector-curvature="0"
     style="fill:#ed171f;fill-rule:evenodd" />
  <polygon
     clip-rule="evenodd"
     points="147.37988,47.859375 147.37988,39.492188 125.00146,39.492188 125.00146,15.400391 115.02246,15.400391 115.02246,47.859375 115.02246,47.859375 "
     id="polygon10"
     style="fill:#ed171f;fill-rule:evenodd"
     transform="matrix(2.75,0,0,2.75,-51.947164,-42.04077)" />
  <polygon
     clip-rule="evenodd"
     points="183.87109,47.859375 183.87109,39.492188 161.49268,39.492188 161.49268,15.400391 151.51367,15.400391 151.51367,47.859375 151.51367,47.859375 "
     id="polygon12"
     style="fill:#ed171f;fill-rule:evenodd"
     transform="matrix(2.75,0,0,2.75,-51.947164,-42.04077)" />
  <polygon
     clip-rule="evenodd"
     points="198.58936,15.400391 188.61035,15.400391 188.61035,47.859375 188.61035,47.859375 198.58936,47.859375 "
     id="polygon14"
     style="fill:#ed171f;fill-rule:evenodd"
     transform="matrix(2.75,0,0,2.75,-51.947164,-42.04077)" />
  <path
     clip-rule="evenodd"
     d="m 514.1339,89.572508 h 87.04393 c 15.5265,0 27.167,-4.15454 27.167,-23.84497 0,-13.301512 -4.4352,-19.678341 -16.35364,-21.342039 V 44.10889 c 7.48327,-2.218263 13.02757,-5.267702 13.02757,-20.516238 0,-17.4627671 -10.53269,-23.2823471 -32.15539,-23.2823471 H 514.1339 V 89.572508 l 0,0 z m 27.16697,-35.492184 h 49.06765 c 5.81957,0 9.97947,1.385742 9.97947,7.492674 0,4.98975 -4.1599,6.3728 -9.97947,6.3728 H 541.30087 V 54.080324 l 0,0 z m 0,-32.426637 h 48.51308 c 4.98974,0 8.03919,1.938965 8.03919,7.208009 0,4.989746 -3.04945,6.653444 -8.03919,6.653444 H 541.30087 V 21.653687 l 0,0 z"
     id="path16"
     inkscape:connector-curvature="0"
     style="fill:#ed171f;fill-rule:evenodd" />
  <path
     clip-rule="evenodd"
     d="m 644.98178,57.684328 c 0,22.17725 11.36256,32.72339 36.58521,32.72339 h 39.08814 c 25.2307,0 36.59595,-10.54614 36.59595,-32.72339 V 0.3103049 H 729.80746 V 51.862061 c 0,11.378667 -3.87791,15.801757 -15.2512,15.801757 h -27.16431 c -11.08863,0 -15.24586,-4.42309 -15.24586,-15.801757 V 0.3103049 H 644.98178 V 57.684328 l 0,0 z"
     id="path18"
     inkscape:connector-curvature="0"
     style="fill:#ed171f;fill-rule:evenodd" />
  <path
     clip-rule="evenodd"
     d="m 802.98862,22.483522 h 42.69482 c 8.59375,0 12.74828,1.388428 12.74828,9.427614 v 2.770141 c 0,6.375487 -2.76878,9.42761 -10.2534,9.42761 h -45.1897 V 22.483522 l 0,0 z m -27.44091,67.088986 h 27.44091 v -23.29443 h 42.96875 c 8.59375,0 11.36522,3.05347 11.36522,12.48242 v 10.81201 h 27.16701 v -15.25122 c 0,-14.68457 -6.65209,-18.288571 -14.69262,-19.674313 V 54.364993 C 882.2767,51.311525 885.0482,44.385499 885.0482,32.465701 v -5.82361 c 0,-15.797729 -5.82496,-26.3317861 -26.89307,-26.3317861 H 775.54771 V 89.572508 l 0,0 z"
     id="path20"
     inkscape:connector-curvature="0"
     style="fill:#ed171f;fill-rule:evenodd" />
  <polygon
     clip-rule="evenodd"
     points="368.9502,23.463379 382.96191,23.463379 382.96191,15.400391 345.05762,15.400391 345.05762,23.463379 345.05762,23.463379 358.97168,23.463379 358.97168,47.859375 368.9502,47.859375 "
     id="polygon22"
     style="fill:#ed171f;fill-rule:evenodd"
     transform="matrix(2.75,0,0,2.75,-51.947164,-42.04077)" />
  <path
     clip-rule="evenodd"
     d="m 1011.1749,58.25098 c 0,26.049808 14.6927,32.156738 39.0909,32.156738 h 44.0778 c 24.6722,0 39.0882,-6.10693 39.0882,-32.156738 V 31.631837 c 0,-26.0565191 -14.416,-32.4306651 -39.0882,-32.4306651 h -44.0778 c -24.3982,0 -39.0909,6.374146 -39.0909,32.4306651 V 58.25098 l 0,0 z m 28.0022,-18.300662 c 0,-11.088622 2.7688,-17.742066 17.1875,-17.742066 h 31.8801 c 14.4161,0 17.1875,6.653444 17.1875,17.742066 v 9.698854 c 0,13.024906 -2.7714,18.014646 -15.5278,18.014646 h -35.2021 c -12.7564,0 -15.5252,-4.98974 -15.5252,-18.014646 v -9.698854 l 0,0 z"
     id="path24"
     inkscape:connector-curvature="0"
     style="fill:#ed171f;fill-rule:evenodd" />
  <polygon
     clip-rule="evenodd"
     points="471.16602,38.988281 452.51855,15.400391 437.09375,15.400391 437.09375,47.859375 437.09375,47.859375 447.0752,47.859375 447.0752,24.270508 447.17578,24.270508 465.8252,47.859375 481.24707,47.859375 481.24707,15.400391 471.26855,15.400391 471.26855,38.988281 "
     id="polygon26"
     style="fill:#ed171f;fill-rule:evenodd"
     transform="matrix(2.75,0,0,2.75,-51.947164,-42.04077)" />
</svg>
