<?xml version="1.0" encoding="utf-8"?>
<!-- Generator: Adobe Illustrator 14.0.0, SVG Export Plug-In . SVG Version: 6.00 Build 43363)  -->
<!DOCTYPE svg PUBLIC "-//W3C//DTD SVG 1.1//EN" "http://www.w3.org/Graphics/SVG/1.1/DTD/svg11.dtd">
<svg version="1.1" id="Layer_1" xmlns="http://www.w3.org/2000/svg" xmlns:xlink="http://www.w3.org/1999/xlink" x="0px" y="0px"
	 width="300px" height="234.494px" viewBox="8.504 -69.429 300 234.494" enable-background="new 8.504 -69.429 300 234.494"
	 xml:space="preserve">
<g>
	<path fill="#FFFFFF" d="M161.445-67.864c12.147,9.423,27.196,16.935,44.715,22.334c15.229,4.689,32.338,7.796,50.876,9.238
		l3.15,0.249V3.847h48.317v86.674h-29.697l-2.917,2.969l-7.271,6.451c-32.64,28.978-78.037,63.796-108.943,65.124h-0.123h-0.134
		c-23.707-0.79-63.697-24.364-109.708-64.69l-6.971-6.107l-3.571-3.724H8.504V3.845H57.85v-39.947l3.202-0.153
		c39.078-1.828,68.777-11.595,96.303-31.667l2.063-1.507L161.445-67.864L161.445-67.864z"/>
	<path d="M159.358-65.172c26.694,20.695,62.968,29.597,97.414,32.273v28.235c-7.301-0.379-13.219,7.272-13.235,11.916L305.1,7.245
		v79.872h-57.078c1.354,7.395,11.229,10.659,18.333,10.277c-37.945,33.685-79.776,63.106-106.829,64.267
		c-24.65-0.816-66.317-27.691-107.58-63.85c17.11,0.278,18.624-10.704,18.624-10.704l-58.665,0.045V7.245h61.373
		C72.97,1.402,67.608-4.042,61.215-4.663v-28.19C97.795-34.564,129.409-43.336,159.358-65.172L159.358-65.172z"/>
	<path fill="#FF6600" d="M249.661-26.76c-0.01,5.032-0.01,11.945,0,17.664C242.925-7.7,236.122,1.451,236.136,7.253
		c-3.899-0.008-5.544,0-5.544,0c0.54-11.037,6.661-16.399,13.554-20.057c0-3.482,0-5.376,0.035-8.794
		c-29.376-0.724-63.354-13.342-84.61-27.701c-19.341,13.027-55.731,26.957-85.4,27.701c-0.009,1.933-0.009,5.779,0,8.8
		c7.753,3.95,12.302,11.676,12.778,20.042c-3.015,0-4.199,0-5.836,0C79.854-1.489,74.856-6.17,68.719-9.602
		c0-5.581,0-11.024-0.036-16.816c33.546-1.896,71.168-14.871,90.517-29.861C177.735-41.032,216.699-29.278,249.661-26.76
		L249.661-26.76z"/>
	<g>
		<path fill="#FF6600" d="M145.569-23.549c-0.321-7.871-2.106-9.744-13.62-4.147c-7.367,3.673-9.062,3.337-9.202,9.832v17.138
			c0.094,8.163,2.75,8.038,10.884,7.979c9.898-0.066,11.874,0.083,11.938-5.735C145.554-2.615,145.592-12.798,145.569-23.549z
			 M139.134-0.733c-0.009,1.153-0.564,1.476-1.368,1.505c-1.757,0.08-4.886,0.014-7.015,0.022c-1.315,0.008-1.852-1.214-1.866-2.275
			c-0.049-4.712-0.466-15.918,1.238-17.644c0.557-0.57,9.002-5.435,9.011-1.436C139.134-20.559,139.14-1.986,139.134-0.733z"/>
		<path fill="#FF6600" d="M105.742-7.185l-5.29-11.433c-1.901,0.343-2.992,0.628-6.65,1.28V7.245l6.737,0.008l0.205-9.778
			c1.99,2.569,3.6,6.227,5.165,9.356c1.536-3.095,3.117-7.212,4.952-10.549c0.884,1.039,0.718,7.25,0.718,10.963v0.001h6.648
			v-29.615c-5.207,1.068-5.119,1.068-6.926,1.581L105.742-7.185z"/>
		<path fill="#FF6600" d="M146.287-34.127l-0.052,7.345l9.231-4.573c0,0-0.016,25.955,0,38.608h7.409v-38.608l9.481,4.662
			l0.05-7.483c0,0-10.919-5.239-13.385-7.038C156.725-39.504,146.287-34.127,146.287-34.127z"/>
		<path fill="#FF6600" d="M222.809-2.695c2.799-0.964,3.562-10.233,0.321-13.796c-1.749-1.923-12.23-3.576-21.104-5.508V7.253h6.431
			V-0.58c3.204-0.013,2.397-0.059,5.095-0.008c3.721-0.005,5.211,0.119,5.224,7.841h6.36C225.136,7.253,225.777-0.471,222.809-2.695
			z M216.716-6.675c-2.928-0.176-3.994-0.212-8.172-0.423l-0.042-6.775c3.503,0.396,8.813,1.078,9.347,1.757
			C218.509-11.276,219.063-6.638,216.716-6.675z"/>
		<path fill="#FF6600" d="M186.38-27.917c-5.734-2.275-13.284-6.269-13.284,3.059c-0.007,6.947,0,25.644,0,25.644
			c0,6.458,3.746,6.458,12.237,6.467c8.981-0.008,11.28-0.008,11.28-6.467c0,0,0-16.903,0-20.648
			C196.613-24.874,191.808-25.765,186.38-27.917z M190.089-1.78c0.015,3.017-2.832,2.561-4.784,2.561
			c-2.809,0.006-5.406,0.499-5.397-4.506c0,0-0.025-9.672-0.016-15.508c0.007-3.432,2.093-2.875,5.222-1.962
			c2,0.587,4.99,0.617,4.984,4.208C190.104-10.332,190.104-7.997,190.089-1.78z"/>
	</g>
	<polygon fill="#FF6600" points="19.374,14.737 297.954,14.737 297.954,79.352 19.374,79.352 	"/>
	<polygon points="25.496,20.194 292.52,20.194 292.52,74.265 25.496,74.265 	"/>
	<g>
		<path fill="#FFFFFF" d="M44.199,42.541h-4.44V26.932H33.66V67.77h6.143l-0.005-17.017c1.835,0.007,2.684,0.007,4.358,0v17.058
			h6.146V26.974h-6.103V42.541z"/>
		<path fill="#FFFFFF" d="M97.613,60.949L97.613,60.949l-0.001-33.975h-6.525V67.77h12.62v-6.821
			C101.497,60.965,99.84,60.965,97.613,60.949z"/>
		<path fill="#FFFFFF" d="M105.058,67.77h12.568v-6.861c-2.311,0.023-3.796,0.023-6.085,0V50.075h6.13V42.93
			c-2.143,0.013-3.674,0.013-6.13,0v-9.525h6.174v-6.43h-12.657V67.77z"/>
		<rect x="135.703" y="44.998" fill="#FFFFFF" width="11.229" height="5.077"/>
		<path fill="#FFFFFF" d="M165.666,33.975c-0.007-4.769-2.217-7.023-5.393-7.023c-4.142,0-5.925,0-10.643,0.022V67.77
			c3.546,0,6.548,0,8.763-0.017c5.012,0.017,7.286-3.897,7.322-7.235C165.703,53.147,165.659,42.643,165.666,33.975z
			 M158.006,60.918c-1.361,0.014-1.279,0.014-2.195-0.01l-0.006-27.76c0,0,3.643-0.835,3.643,1.953
			c0,1.588,0.044,18.896,0.065,23.907C159.491,60.119,158.854,60.889,158.006,60.918z"/>
		<path fill="#FFFFFF" d="M136.719,26.974h-6.012c-1.361,4.528-1.698,8.528-3.088,13.32c-1.293-4.754-2.012-9.005-2.814-13.342
			c-1.964,0-3.367,0-6.364,0.022c1.652,8.038,3.979,15.88,6.027,23.919c-0.009,5.098,0.034,9.815,0.014,16.538h6.144
			c0-6.336,0-9.869-0.022-16.415C132.789,43.023,135.042,35.583,136.719,26.974z"/>
		<path fill="#FFFFFF" d="M85.639,47.031c3.191-3.197,3.051-6.852,3.051-8.807c0.008-4.294-0.673-11.273-6.618-11.273
			c-6.804,0-7.662,0-10.317,0.021L71.666,67.81h6.606V52.114h1.09c1.427,0.007,2.918,0.262,2.927,2.787
			c-0.008,3.051-0.017,8.552,0.007,11.127c-0.015,1.192,1.728,1.742,2.457,1.784h3.974c0.015-5.232,0.015-8.845,0.015-13.092
			C88.698,50.257,87.645,48.831,85.639,47.031z M81.967,42.174c0.015,1.615-0.71,2.084-1.331,2.098h-2.405V33.438
			c2.39,0.024,3.75,0.024,3.766,2.292C81.99,37.479,82.027,40.302,81.967,42.174z"/>
		<path fill="#FFFFFF" d="M65.582,26.976h-9.405c-1.318,13.97-2.764,27.402-4.186,40.838h5.802l1.14-9.824h4.199
			c0.314,2.342,0.783,6.168,1.258,9.78h5.669c-1.471-14.324-2.875-27.593-4.478-40.796V26.976z M59.897,49.993l0.725-14.731
			c0.863,5.259,1.207,9.554,1.645,14.731H59.897z"/>
		<path fill="#FFFFFF" d="M241.222,45.381c-2.796-2.086-5.539-3.073-5.548-8.407c0.009-1.814-0.325-4.191,1.729-4.204
			c2.407-0.163,2.407,3.115,2.414,8.125l6.1,0.039V32.95c0.008-3.921-2.319-7-7.856-7.041c-9.351-0.104-8.458,8.57-8.45,14.306
			c-0.008,6.344,5.18,8.385,7.906,10.447c1.384,1.045,2.591,2.319,2.591,6.437c0,3.614-0.583,4.887-2.114,4.879
			c-2.521-0.015-2.31-2.449-2.318-3.649c0.009-1.097,0.009-4.117,0.019-6.198c-1.284-0.007-5.194-0.007-6.161-0.023
			c-0.014,12.686,1.01,16.05,8.448,16.05c6.338,0,8.295-4.504,8.295-10.289C246.23,49.96,244.95,48.173,241.222,45.381z"/>
		<path fill="#FFFFFF" d="M220.893,26.629c-3.49,0.011-7.104,0.011-9.691,0v40.848c2.193,0,5.521,0,8.455-0.007
			c5.207,0.007,7.864-2.26,7.848-6.658V33.836C227.521,28.443,223.993,26.638,220.893,26.629z M221.75,58.918
			c-0.011,1.833-0.436,2.01-4.048,1.989V33.104c0,0,0.907,0.024,2.004,0c0.927,0.016,2.033,0.995,2.05,2.195
			C221.785,42.305,221.75,58.918,221.75,58.918z"/>
		<path fill="#FFFFFF" d="M256.779,25.616c-3.489,0.02-8.508,0.746-8.498,8.608c-0.01,10.972,0.003,20.454,0,26.253
			c-0.01,6.02,4.407,7.937,7.95,7.997c4.242,0.08,8.39-3.634,8.39-7.908c0,0,0.005-22.305,0-26.188
			C264.621,26.828,259.96,25.586,256.779,25.616z M258.396,59.335c-0.01,3.884-4.305,2.912-4.296-0.593
			c-0.009-9.297-0.059-19.047-0.023-24.271c0.017-2.794,4.333-2.72,4.319,0.002C258.387,36.82,258.387,49.958,258.396,59.335z"/>
		<path fill="#FFFFFF" d="M278.54,26.629l0.257,18.713c-1.362-6.101-2.614-12.479-3.957-18.713h-7.835V67.11h6.458l-0.19-22.413
			c1.509,7.658,2.824,14.805,4.207,22.413h7.207V26.629H278.54z"/>
		<path fill="#FFFFFF" d="M192.202,50.8c-0.861-7.901-1.675-16.234-2.413-24.171h-6.182l5.423,40.804h6.515l5.678-40.804h-6.058
			C194.185,33.756,192.202,50.8,192.202,50.8z"/>
		<path fill="#FFFFFF" d="M171.507,26.629c-1.358,13.439-3.686,27.302-4.87,40.804h5.831l1.2-9.868c1.3,0,2.703,0,4.357,0
			c0.557,3.364,0.887,6.568,1.566,9.868h5.755l-5.076-40.804H171.507z M174.385,49.993l1.359-14.606
			c0.797,4.067,1.178,10.615,1.391,14.606H174.385z"/>
		<polygon fill="#FFFFFF" points="202.356,26.629 202.356,67.477 208.523,67.477 208.502,26.629 		"/>
	</g>
	<path fill="#FF6600" d="M84.958,87.11c-0.087,6.721-2.977,11.483-7.196,15.026c27.182,24.351,63.917,45.102,81.977,46.303
		c18.33-1.201,54.05-23.313,81.342-46.474c-5.479-4.813-7.052-8.983-7.068-14.855c2.604,0.006,3.709,0.006,5.414,0.013
		c0.467,7.055,7.952,12.752,11.06,14.083c-40.101,33.107-65.439,49.266-91.131,52.653c-26.691-3.731-52.542-19.716-91.369-52.354
		c5.406-2.399,10.846-8.007,10.832-14.395H84.958L84.958,87.11z"/>
	<g>
		<path fill="#FF6600" d="M116.21,87.11c-3.271,0.006-8.398-0.104-8.392,3.664c-0.007,6.444-0.007,20.243-0.007,23.417
			c0,4.539,2.575,5.39,6.884,8.339c4.315,2.953,5.588,3.86,7.395,4.103c1.2,0.154,3.08-1.018,3.08-4.484
			c0.013-9.627,0.013-30.034,0.013-30.027C125.183,86.903,121.995,87.117,116.21,87.11z M119.374,115.122
			c0,3.608-2.413,1.937-3.238,1.363c-0.674-0.451-2.881-1.13-2.881-3.707c-0.016-4.938,0-13.606,0.005-17.857
			c0-1.704,1.887-1.92,2.619-1.93c2.158-0.007,3.495-0.323,3.504,2.227C119.374,102.642,119.374,108.251,119.374,115.122z"/>
		<path fill="#FF6600" d="M139.939,108.989c-1.449-5.201-5.523-19.647-5.523-19.647s-0.352-2.226-1.917-2.226
			c-1.193,0-3.036-0.02-4.688-0.006v43.129c2.136,1.479,3.151,2.076,5.486,2.883c0.006-9.269,0.006-18.066,0-26.203h0.542
			c1.871,6.329,4.695,15.034,6.392,19.862c1.732-5.342,3.358-11.303,5.032-16.773l0.623,0.042l0.009,28.819l5.77,2.202V87.11h-5.89
			C143.89,94.477,142.316,100.77,139.939,108.989z"/>
		<path fill="#FF6600" d="M104.081,87.11h-7.724c-1.749,0.006-3.87,1.749-3.876,3.737c0.007,4.346,0.007,10.408,0.013,14.564
			c-0.006,2.325,8.369,7.956,12.589,10.373c0.007-2.417-0.037-3.587-0.029-6.751c-2.854-2.021-6.743-3.594-6.729-5.385
			c0.006-4.967-0.029-8.208-0.029-10.321c0.886,0,5.939,0,6.334,0c0,0,0.783,0.006,0.783-1.017c0.007-0.842-0.008-3.826-0.008-3.826
			C105.412,87.54,105.083,87.117,104.081,87.11z"/>
		<path fill="#FF6600" d="M227.841,87.11c-1.639,0.006-3.591,0.006-5.326,0l-3.269,11.98c-1.08-3.386-1.674-8.615-2.604-11.98
			c-1.662,0.006-4.758,0-6.07,0c1.813,5.324,3.853,11.016,5.734,16.591c-0.008,3.657-0.008,5.99-0.015,11.053
			c1.872-1.272,4.001-2.979,5.458-4.076c-0.011-1.874-0.011-6.084,0.006-8.981C223.313,98.256,226.244,92.133,227.841,87.11z"/>
		<path fill="#FF6600" d="M184.968,87.107h-6.692l-8.887,53.12c4.009-1.242,5.456-1.837,6.846-2.523
			c0.653-4.628,1.457-9.729,2.011-13.267c2.21-0.8,4.296-1.356,6.812-1.903c0.541,3.19,1.01,6.717,1.523,10.205
			c2.464-0.89,4.292-2.033,5.588-2.88c-2.064-14.213-4.484-28.155-7.2-42.748V87.107z M179.212,117.716
			c0,0,1.974-16.366,2.584-16.423c0.611-0.057,2.235,15.069,2.235,15.069C182.407,116.962,181.349,117.263,179.212,117.716z"/>
		<path fill="#FF6600" d="M203.336,87.11v17.314h-0.513c0,0-2.384-10.93-4.191-17.314h-5.799v42.331l6.056-3.554l-0.167-19.73
			c2.223,6.218,3.369,10.512,5.17,16.341c1.731-1.015,3.433-2.004,5.246-3.392c0.015-10.522,0.015-21.194,0-31.996H203.336z"/>
		<path fill="#FF6600" d="M172.468,112.495l-0.023-19.666c0.008-2.582-1.346-5.713-5.345-5.719c-3.141,0.006-7.946,0-12.372,0
			v54.519c3.629,1.578,4.66,1.748,6.459,0.468l0.009-22.223C169.57,118.924,172.124,118.713,172.468,112.495z M161.195,113.736
			V92.991h2.992c1.045-0.007,1.769,0.628,1.752,2.246c0.017,3.913,0.017,11.227,0.025,15.743
			C165.956,112.632,165.066,113.481,161.195,113.736z"/>
	</g>
	<path fill="#231F20" d="M265.591,90.817c0.414,0.41,0.613,0.907,0.613,1.484c0,0.595-0.199,1.092-0.613,1.507c-0.406,0.414-0.903,0.624-1.49,0.624
		s-1.083-0.21-1.492-0.624c-0.401-0.415-0.604-0.912-0.604-1.507c0-0.577,0.203-1.074,0.611-1.484
		c0.408-0.417,0.909-0.622,1.485-0.622C264.688,90.196,265.185,90.401,265.591,90.817L265.591,90.817z M265.836,90.578
		c-0.475-0.474-1.052-0.707-1.735-0.707c-0.673,0-1.243,0.233-1.727,0.707c-0.474,0.483-0.717,1.053-0.717,1.727
		c0,0.687,0.243,1.267,0.717,1.742c0.475,0.483,1.045,0.724,1.727,0.724c0.681,0,1.257-0.24,1.735-0.724
		c0.48-0.482,0.715-1.06,0.715-1.742C266.551,91.631,266.316,91.053,265.836,90.578L265.836,90.578z M264.468,92.194
		c-0.104,0.037-0.25,0.059-0.457,0.059h-0.424v-0.972h0.404c0.263,0,0.453,0.037,0.569,0.104c0.125,0.063,0.184,0.197,0.184,0.392
		C264.746,91.981,264.65,92.121,264.468,92.194L264.468,92.194z M263.112,93.642h0.475v-1.057h0.374c0.25,0,0.425,0.028,0.526,0.087
		c0.17,0.102,0.259,0.307,0.259,0.62v0.213l0.005,0.086c0,0.007,0.008,0.015,0.008,0.03c0,0.009,0.007,0.017,0.007,0.023h0.449
		l-0.023-0.03c-0.007-0.023-0.016-0.072-0.023-0.138c-0.007-0.074-0.007-0.14-0.007-0.205v-0.197c0-0.133-0.044-0.273-0.146-0.417
		c-0.094-0.14-0.25-0.227-0.462-0.263c0.168-0.023,0.291-0.065,0.389-0.124c0.176-0.117,0.263-0.293,0.263-0.533
		c0-0.337-0.14-0.563-0.417-0.68c-0.154-0.067-0.401-0.097-0.733-0.097h-0.943v2.681H263.112z"/>
</g>
</svg>