<?xml version="1.0" encoding="UTF-8" standalone="no"?>
<!-- Created with Inkscape (http://www.inkscape.org/) -->

<svg
   xmlns:dc="http://purl.org/dc/elements/1.1/"
   xmlns:cc="http://creativecommons.org/ns#"
   xmlns:rdf="http://www.w3.org/1999/02/22-rdf-syntax-ns#"
   xmlns:svg="http://www.w3.org/2000/svg"
   xmlns="http://www.w3.org/2000/svg"
   xmlns:sodipodi="http://sodipodi.sourceforge.net/DTD/sodipodi-0.dtd"
   xmlns:inkscape="http://www.inkscape.org/namespaces/inkscape"
   width="441.901"
   height="159.67"
   viewBox="0 0 441.901 159.67"
   id="svg2"
   version="1.1"
   inkscape:version="0.91 r13725"
   sodipodi:docname="HersheyCo.svg">
  <defs
     id="defs4" />
  <sodipodi:namedview
     id="base"
     pagecolor="#ffffff"
     bordercolor="#666666"
     borderopacity="1.0"
     inkscape:pageopacity="0.0"
     inkscape:pageshadow="2"
     inkscape:zoom="2.35"
     inkscape:cx="298.69599"
     inkscape:cy="97.189479"
     inkscape:document-units="px"
     inkscape:current-layer="layer1"
     showgrid="false"
     inkscape:window-width="1680"
     inkscape:window-height="987"
     inkscape:window-x="-8"
     inkscape:window-y="-8"
     inkscape:window-maximized="1"
     units="px" />
  <metadata
     id="metadata7">
    <rdf:RDF>
      <cc:Work
         rdf:about="">
        <dc:format>image/svg+xml</dc:format>
        <dc:type
           rdf:resource="http://purl.org/dc/dcmitype/StillImage" />
        <dc:title></dc:title>
      </cc:Work>
    </rdf:RDF>
  </metadata>
  <g
     inkscape:label="Layer 1"
     inkscape:groupmode="layer"
     id="layer1"
     transform="translate(0,-892.6921)">
    <path
       style="opacity:1;fill:#3e000f;fill-opacity:1"
       d="M 0.231482,1015.1324 C 0.104167,1015.0051 0,987.90125 0,954.9016 c 0,-59.27672 0.0082,-60.00375 0.681922,-60.36431 0.442257,-0.23669 4.07273,-0.33251 10.329861,-0.27263 l 9.647939,0.0923 0.173611,22.91666 0.173612,22.91667 4.166666,0 4.166667,0 0.08936,-22.53694 c 0.06382,-16.09768 0.201247,-22.67176 0.480965,-23.0088 0.316463,-0.38132 2.264838,-0.45418 10.153699,-0.37973 l 9.762088,0.0921 0.0878,60.50871 0.0878,60.50867 -10.157221,-0.092 -10.157226,-0.092 -0.08883,-28.3454 -0.08883,-28.34545 -0.779229,-0.20884 c -0.428576,-0.11486 -2.28595,-0.21097 -4.127497,-0.21358 -2.735811,-0.004 -3.386819,0.0957 -3.559028,0.5445 -0.115918,0.30207 -0.21076,13.1927 -0.21076,28.64583 l 0,28.09664 -10.185185,0 c -5.601852,0 -10.289352,-0.1042 -10.416666,-0.2315 z"
       id="path4162"
       inkscape:connector-curvature="0" />
    <path
       style="opacity:1;fill:#3e000f;fill-opacity:1"
       d="m 59.609417,1015.1354 c -0.12893,-0.129 -0.23442,-27.30106 -0.23442,-60.38248 0,-54.52683 0.0513,-60.16773 0.54923,-60.35879 0.99233,-0.3808 35.20714,-0.23922 35.93193,0.14867 0.63447,0.33956 0.67162,0.80633 0.67162,8.4375 0,5.81998 -0.11647,8.19454 -0.41667,8.49473 -0.2972,0.29721 -2.47512,0.41667 -7.59637,0.41667 -5.64645,0 -7.2638,0.10132 -7.57347,0.47445 -0.28246,0.34034 -0.36809,4.38899 -0.30293,14.32292 l 0.0908,13.84846 7.01482,0.17361 c 4.28054,0.10594 7.15908,0.31823 7.38491,0.54463 0.24669,0.24731 0.33899,3.14156 0.27684,8.68056 l -0.0932,8.30954 -7.29166,0.19143 c -4.01042,0.10529 -7.33204,0.22248 -7.38139,0.26042 -0.0494,0.0379 -0.0494,8.77992 0,19.42662 l 0.0897,19.35764 8.25973,0.17361 c 6.82958,0.14355 8.31725,0.26379 8.59196,0.69444 0.19378,0.30378 0.2968,3.92127 0.24722,8.68057 l -0.085,8.1597 -18.94961,0.09 c -10.42229,0.049 -19.0551,-0.016 -19.18403,-0.1447 z"
       id="path4164"
       inkscape:connector-curvature="0" />
    <path
       style="opacity:1;fill:#3e000f;fill-opacity:1"
       d="m 104.39815,1015.1324 c -0.12731,-0.1273 -0.23148,-27.29655 -0.23148,-60.37613 l 0,-60.14469 0.78125,-0.20937 c 0.42969,-0.11515 8.08048,-0.2115 17.00175,-0.2141 17.29989,-0.005 17.01507,-0.029 20.98223,1.76055 2.94638,1.32907 7.32955,6.20801 7.96626,8.86732 0.1316,0.54963 0.35953,1.15558 0.50653,1.34655 0.14699,0.19097 0.43795,1.27436 0.64657,2.40752 0.50878,2.76363 0.5076,26.80561 -0.001,29.55936 -0.63259,3.422 -2.20023,6.29177 -4.87305,8.92077 -2.11833,2.0836 -2.928,3.38319 -2.10781,3.38319 0.5489,0 3.28328,2.90313 4.37492,4.6449 2.52901,4.03518 2.39329,2.78285 2.67634,24.69537 0.14062,10.88542 0.41298,20.65106 0.60526,21.70136 0.88088,4.812 2.74638,9.1289 5.05411,11.6956 0.86598,0.9632 1.47506,1.8507 1.35349,1.9723 -0.12156,0.1216 -5.56139,0.221 -12.08851,0.221 -10.86511,0 -11.9131,-0.051 -12.40761,-0.6076 -0.51493,-0.5793 -0.91511,-1.6841 -1.72941,-4.7743 -0.22838,-0.8667 -0.4456,-10.26634 -0.57773,-25.00002 -0.19567,-21.81906 -0.25844,-23.67985 -0.82702,-24.51669 -0.88614,-1.30422 -2.90494,-2.11069 -4.95854,-1.98083 l -1.71792,0.10863 -0.0889,28.10579 c -0.0694,21.95552 -0.1834,28.16582 -0.52084,28.38012 -0.52185,0.3314 -19.48943,0.3825 -19.81853,0.054 z m 26.59686,-73.32293 c 1.37463,-0.90643 1.96741,-1.81216 1.98006,-3.02541 0.006,-0.58247 0.17214,-1.22012 0.36903,-1.41701 0.40864,-0.40865 0.2524,-18.84833 -0.17909,-21.13507 -0.14413,-0.76389 -0.57203,-1.68349 -0.95087,-2.04355 -0.82832,-0.78725 -3.769,-1.94951 -4.93252,-1.94951 -2.04976,0 -1.93439,-0.89958 -1.93439,15.08345 0,8.06405 0.10416,14.76609 0.23148,14.8934 0.52034,0.52035 4.45909,0.22488 5.4163,-0.4063 z"
       id="path4166"
       inkscape:connector-curvature="0" />
    <path
       style="opacity:1;fill:#3e000f;fill-opacity:1"
       d="m 174.61552,1016.4213 c -3.06786,-1.0295 -4.24643,-1.5903 -6.83219,-3.2508 -3.07859,-1.977 -5.33303,-5.1222 -7.1191,-9.932 -0.67318,-1.8129 -0.72764,-2.8154 -0.84951,-15.64036 -0.0716,-7.5368 -0.04,-14.06266 0.0702,-14.50192 l 0.20045,-0.79864 9.80105,0.0922 9.80106,0.0922 0.17361,12.25117 0.17362,12.25117 1.17723,1.20369 c 0.98244,1.00451 1.42444,1.20369 2.67113,1.20369 0.89351,0 1.99027,-0.29288 2.72901,-0.72874 l 1.23513,-0.72874 -0.0122,-12.03168 -0.0122,-12.03167 -1.11624,-2.1378 c -0.61394,-1.17579 -1.50687,-2.63509 -1.9843,-3.24289 -2.30127,-2.92964 -3.49731,-4.31496 -7.19587,-8.33459 -7.00965,-7.61817 -7.35439,-8.02366 -9.9036,-11.64901 -2.19491,-3.12148 -2.24203,-3.20101 -3.89805,-6.58016 -2.77728,-5.66708 -3.05346,-7.80978 -2.86435,-22.22222 0.13892,-10.58746 0.20625,-11.61209 0.88596,-13.48138 2.57575,-7.08366 8.13675,-11.63262 16.03146,-13.11392 4.22826,-0.79336 13.69623,-0.39353 16.49306,0.69649 2.30198,0.89716 5.73698,2.68415 6.84225,3.55954 1.53418,1.2151 4.00942,4.92536 5.05841,7.58232 1.05245,2.66571 1.46676,7.88873 1.4671,18.49508 l 2.9e-4,8.94647 -9.63541,-0.0923 -9.63542,-0.0923 -0.17361,-9.60812 c -0.17313,-9.58117 -0.17598,-9.61064 -1.01539,-10.50348 -0.70203,-0.7467 -1.15139,-0.89535 -2.70675,-0.89535 -3.64367,0 -4.17286,1.62117 -3.79698,11.63195 0.30999,8.25592 1.32576,10.98222 6.0268,16.17572 1.2982,1.43421 3.376,3.7586 4.61732,5.16533 1.24132,1.40673 2.48543,2.78843 2.7647,3.07044 0.27927,0.28202 0.98239,1.09932 1.5625,1.81624 1.10575,1.36651 5.2137,6.50794 5.6773,7.1056 2.18509,2.81691 3.99625,5.95706 5.00672,8.68056 0.28341,0.76389 0.72638,1.93576 0.98436,2.60416 0.3633,0.94125 0.49634,4.89513 0.59003,17.53473 l 0.12096,16.31942 -0.8869,2.2627 c -1.92755,4.9177 -5.19088,8.4449 -10.24695,11.0753 -4.10082,2.1335 -6.22757,2.5653 -13.21161,2.6827 -5.91127,0.099 -6.1576,0.075 -9.06504,-0.9008 z"
       id="path4168"
       inkscape:connector-curvature="0" />
    <path
       style="opacity:1;fill:#3e000f;fill-opacity:1"
       d="m 216.05806,954.86562 0.0878,-60.50864 9.64794,-0.0923 c 6.23512,-0.0597 9.88827,0.0363 10.32735,0.27129 0.66231,0.35445 0.68166,0.93357 0.76872,23.00898 l 0.0893,22.64538 3.90377,0.0981 3.90377,0.0982 0.0893,-23.01482 0.0893,-23.01482 9.20139,-0.10081 c 5.06076,-0.0554 9.70964,-0.009 10.33084,0.10272 l 1.12945,0.20353 -0.0878,60.31395 -0.0878,60.31392 -10.24305,0 -10.24306,0 -0.17361,-28.4722 -0.17361,-28.47222 -3.81945,0 -3.81944,0 -0.17361,28.47222 -0.17361,28.4722 -10.33084,0.092 -10.33084,0.092 0.0878,-60.50862 z"
       id="path4170"
       inkscape:connector-curvature="0" />
    <path
       style="opacity:1;fill:#3e000f;fill-opacity:1"
       d="m 275.17421,1015.1354 c -0.12892,-0.129 -0.23441,-27.29955 -0.23441,-60.37913 l 0,-60.14469 0.78125,-0.20937 c 1.0236,-0.27431 34.22489,-0.27284 35.24903,0.002 l 0.78722,0.21093 -0.0928,8.55169 -0.0928,8.55169 -7.36199,0.17361 c -4.49637,0.10603 -7.50513,0.31709 -7.72973,0.54223 -0.24966,0.25025 -0.33858,4.82184 -0.2769,14.23612 l 0.0908,13.86748 7.11806,0.19894 c 3.91493,0.10941 7.15712,0.2266 7.20486,0.26041 0.0477,0.0338 0.0868,3.96774 0.0868,8.74204 l 0,8.68056 -6.85764,0.005 c -3.7717,0.003 -7.05429,0.13016 -7.29464,0.28275 -0.34437,0.21862 -0.41797,4.35716 -0.34722,19.52593 l 0.0898,19.24851 8.02479,0.0931 c 7.26769,0.0843 8.07908,0.15309 8.60028,0.729 0.50728,0.56055 0.56443,1.59885 0.48216,8.7611 l -0.0933,8.1251 -18.94961,0.09 c -10.42228,0.049 -19.0551,-0.016 -19.18403,-0.1446 z"
       id="path4174"
       inkscape:connector-curvature="0" />
    <path
       style="opacity:1;fill:#3e000f;fill-opacity:1"
       d="m 331.1691,996.35867 c -0.0121,-11.1132 -0.16413,-19.73707 -0.36585,-20.75169 -0.18983,-0.95486 -0.5566,-2.98611 -0.81504,-4.51389 -0.57288,-3.38664 -1.46191,-8.42332 -2.1451,-12.15278 -0.27986,-1.52778 -0.64134,-3.63715 -0.80328,-4.6875 -0.16194,-1.05035 -0.45223,-2.61285 -0.64509,-3.47222 -0.19286,-0.85938 -0.46202,-2.57184 -0.59813,-3.80548 -0.1361,-1.23364 -0.36853,-2.48364 -0.5165,-2.77778 -0.14798,-0.29414 -0.44495,-1.7848 -0.65995,-3.31258 -0.215,-1.52777 -0.52461,-3.4809 -0.68802,-4.34027 -0.1634,-0.85938 -0.70969,-4.14063 -1.21397,-7.29167 -0.50427,-3.15104 -1.07052,-6.21024 -1.25833,-6.79822 -0.18781,-0.58798 -0.49483,-2.27864 -0.68227,-3.75701 -0.18743,-1.47837 -0.41357,-2.80569 -0.50251,-2.94961 -0.089,-0.14392 -0.32196,-1.42202 -0.5178,-2.84022 -0.19585,-1.4182 -0.60346,-3.75043 -0.90581,-5.18272 -0.30235,-1.43229 -0.69062,-3.61979 -0.86282,-4.86111 -0.1722,-1.24132 -0.52793,-3.50694 -0.7905,-5.03472 -0.3086,-1.79558 -0.3598,-2.93125 -0.1448,-3.21181 0.47872,-0.62468 19.31209,-0.62468 20.12204,0 0.36415,0.28086 0.62379,1.16926 0.73571,2.51736 0.0951,1.14584 0.504,4.19271 0.9086,6.77084 0.40459,2.57812 0.86008,5.625 1.01219,6.77083 0.89967,6.777 1.14647,8.47193 1.4157,9.72222 0.16449,0.76389 0.63723,4.20139 1.05055,7.63889 0.90722,7.54523 0.86706,7.38623 1.67974,6.65077 0.48035,-0.43472 0.76202,-1.76125 1.24498,-5.86324 0.3433,-2.91578 0.76515,-6.16079 0.93743,-7.21114 0.17229,-1.05035 0.62605,-4.48785 1.00836,-7.63889 0.3823,-3.15104 0.84871,-6.43229 1.03646,-7.29166 0.18774,-0.85938 0.57206,-3.51563 0.85403,-5.90278 0.28197,-2.38716 0.64569,-4.80903 0.80825,-5.38195 l 0.29557,-1.04166 7.53744,-0.0936 c 4.47864,-0.0556 7.79686,0.0452 8.1767,0.24852 0.53667,0.28722 0.59255,0.55298 0.34821,1.6561 -0.16008,0.72269 -0.61184,3.26711 -1.00392,5.65426 -0.78672,4.78994 -1.19797,7.16623 -1.93919,11.20497 -0.27234,1.48391 -0.49516,3.23251 -0.49516,3.88576 0,0.65325 -0.13799,1.27302 -0.30664,1.37725 -0.16865,0.10423 -0.41211,1.09002 -0.54103,2.19063 -0.12891,1.10061 -0.54847,3.64174 -0.93235,5.64695 -0.38388,2.00521 -0.91111,4.89583 -1.17162,6.42361 -0.26051,1.52778 -0.72303,4.18403 -1.02782,5.90278 -0.30479,1.71875 -0.71377,4.28535 -0.90885,5.70355 -0.19507,1.4182 -0.43728,2.71222 -0.53825,2.87559 -0.10097,0.16337 -0.41226,1.7374 -0.69175,3.49783 -0.27948,1.76045 -0.6498,3.98206 -0.82292,4.93692 -0.82236,4.53591 -1.43777,8.19918 -1.74994,10.41666 -0.1882,1.33681 -0.50366,2.97743 -0.70104,3.64584 -0.94367,3.19566 -1.14427,7.06921 -1.33962,25.86805 l -0.20567,19.79165 -10.32986,0.092 -10.32986,0.092 -0.0207,-19.01556 z"
       id="path4176"
       inkscape:connector-curvature="0" />
    <path
       style="opacity:1;fill:#3e000f;fill-opacity:1"
       d="m 366.60646,1014.6843 c -1.9151,-1.0225 -3.29855,-2.4505 -4.55565,-4.7023 -1.13765,-2.0379 -1.16315,-2.1743 -1.16827,-6.25 -0.004,-3.3266 0.13207,-4.51675 0.67575,-5.9028 1.73052,-4.41179 3.63469,-6.94957 10.43012,-13.90075 2.29167,-2.34419 5.10186,-5.3033 6.24487,-6.57581 4.88113,-5.43411 8.56097,-12.17693 9.72767,-17.82465 0.18926,-0.91618 0.38617,-1.12684 0.97366,-1.04167 0.48854,0.0708 0.82262,0.45739 0.99252,1.14843 1.1176,4.54574 2.81029,8.3453 5.51213,12.37296 2.18552,3.25797 4.02767,5.36664 10.585,12.11634 6.1203,6.29986 8.58738,9.52632 10.14072,13.26207 0.78925,1.89812 0.90969,2.69418 0.93374,6.17228 0.0266,3.8441 -0.0139,4.0724 -1.08512,6.123 -0.61201,1.1716 -1.76105,2.685 -2.55342,3.3632 -2.86213,2.4499 -1.48057,2.321 -24.68397,2.304 -19.78225,-0.014 -21.02245,-0.052 -22.16975,-0.6643 z"
       id="path4178"
       inkscape:connector-curvature="0" />
    <path
       style="opacity:1;fill:#3e000f;fill-opacity:1"
       d="m 6.78063,1051.8044 c -0.300206,-0.1247 -0.623091,-0.3963 -0.717523,-0.6035 -0.122113,-0.268 -0.171693,-2.989 -0.171693,-9.4224 0,-8.0218 -0.02687,-9.0724 -0.237376,-9.2829 -0.192827,-0.1928 -0.628011,-0.2374 -2.318848,-0.2374 -2.173774,0 -2.938989,-0.1465 -3.187146,-0.6102 -0.08133,-0.1519 -0.147869,-0.8901 -0.147869,-1.6404 0,-1.2564 0.02683,-1.3795 0.339879,-1.5583 0.264054,-0.1508 1.979245,-0.1941 7.688101,-0.1941 8.644312,0 7.984105,-0.1397 7.984105,1.6899 0,0.6129 -0.09431,1.3401 -0.209567,1.6159 -0.258272,0.6182 -0.57979,0.6972 -2.835315,0.6972 -1.097021,0 -1.822656,0.073 -2.17145,0.2189 l -0.523849,0.2189 0,9.2106 0,9.2106 -0.391072,0.4648 c -0.371169,0.4411 -0.446123,0.4643 -1.47281,0.457 -0.600664,0 -1.324481,-0.1087 -1.627567,-0.2346 z"
       id="path4188"
       inkscape:connector-curvature="0" />
    <path
       style="opacity:1;fill:#3e000f;fill-opacity:1"
       d="m 20.755462,1051.5331 -0.513595,-0.5136 0,-10.9583 0,-10.9583 0.364881,-0.4239 c 0.351551,-0.4083 0.416647,-0.4238 1.781793,-0.4238 1.102143,0 1.50767,0.059 1.825452,0.2678 l 0.408539,0.2679 0,4.5229 c 0,4.3364 0.0122,4.5294 0.295855,4.6812 0.194292,0.104 2.09999,0.1447 5.551359,0.1187 l 5.255505,-0.04 0.07553,-4.7082 c 0.04154,-2.5895 0.121126,-4.7537 0.176855,-4.8093 0.199257,-0.1988 1.2765,-0.3697 2.353357,-0.3732 1.877195,-0.01 1.699396,-1.2443 1.699396,11.834 0,11.1358 -0.0027,11.2369 -0.313079,11.6315 -0.282684,0.3593 -0.411003,0.3978 -1.321752,0.3963 -0.554771,-9e-4 -1.266698,-0.044 -1.582062,-0.096 -0.974568,-0.161 -1.012715,-0.3521 -1.012715,-5.0723 0,-3.4916 -0.03625,-4.1797 -0.235151,-4.4637 -0.234832,-0.3352 -0.241861,-0.3357 -5.165451,-0.3357 l -4.930298,0 -0.423674,0.4059 -0.423673,0.4059 0,4.1148 0,4.1148 -0.563119,0.4642 c -0.51595,0.4253 -0.656397,0.4642 -1.676737,0.4642 -1.065058,0 -1.136014,-0.022 -1.627214,-0.5136 z"
       id="path4190"
       inkscape:connector-curvature="0" />
    <path
       style="opacity:1;fill:#3e000f;fill-opacity:1"
       d="m 48.174397,1051.8531 c -0.58754,-0.4511 -0.59121,-0.5253 -0.58883,-11.9188 0.001,-6.0912 0.0523,-11.1497 0.1133,-11.2411 0.31992,-0.4791 0.80566,-0.5135 7.24779,-0.5135 7.77089,0 7.19854,-0.1571 7.11466,1.9522 -0.037,0.9304 -0.12962,1.4278 -0.31991,1.7179 l -0.26783,0.4084 -4.60862,0 c -3.6827,0 -4.71387,0.044 -5.13247,0.2189 l -0.52385,0.2189 0,2.5703 c 0,2.3867 0.0209,2.5816 0.29218,2.7268 0.17787,0.095 1.7588,0.1589 4.04079,0.1629 3.84641,0.01 4.97195,0.108 5.19972,0.4675 0.0717,0.1131 0.1314,0.7019 0.13267,1.3084 0.003,1.2422 -0.25148,1.9054 -0.78469,2.0483 -0.19026,0.051 -1.95021,0.094 -3.911,0.095 -3.60472,0 -4.39623,0.098 -4.78085,0.5789 -0.13425,0.1679 -0.18882,0.9722 -0.18882,2.783 l 0,2.5468 0.52385,0.2189 c 0.41843,0.1748 1.44725,0.2188 5.11254,0.2188 5.37364,0 5.08472,-0.09 5.19368,1.62 0.0538,0.845 0.0112,1.1092 -0.24425,1.5145 l -0.30948,0.4909 -6.53545,-0.01 c -4.89922,0 -6.59546,-0.051 -6.77513,-0.1888 z"
       id="path4192"
       inkscape:connector-curvature="0" />
    <path
       style="opacity:1;fill:#3e000f;fill-opacity:1"
       d="m 77.711617,1051.9422 c -0.17826,-0.035 -0.45016,-0.2027 -0.60423,-0.3729 -0.26667,-0.2946 -0.28207,-0.8447 -0.32072,-11.4517 -0.0478,-13.1114 -0.23898,-11.8561 1.80658,-11.86 1.48148,0 1.98928,0.2316 2.14058,0.9881 0.0531,0.2653 0.0965,2.3359 0.0965,4.6013 0,3.6167 0.0291,4.1303 0.23894,4.2108 0.13141,0.05 2.59954,0.092 5.48472,0.092 3.96351,0 5.30647,-0.046 5.49406,-0.1889 0.21845,-0.1661 0.25367,-0.7189 0.29322,-4.6032 0.0444,-4.3602 0.0492,-4.4187 0.38805,-4.7574 0.28625,-0.286 0.54029,-0.3518 1.53304,-0.3969 2.02013,-0.092 1.82476,-1.3566 1.82476,11.8142 0,11.1358 -0.003,11.2369 -0.31307,11.6314 -0.28428,0.3614 -0.40915,0.398 -1.35714,0.398 -0.93992,0 -1.09325,-0.044 -1.53737,-0.4405 l -0.49332,-0.4405 -0.0755,-4.2449 -0.0755,-4.2449 -0.45317,-0.2985 c -0.42788,-0.2818 -0.72783,-0.2985 -5.37397,-0.2994 l -4.9208,-10e-4 -0.32845,0.3496 c -0.32046,0.3411 -0.32844,0.4486 -0.32844,4.4226 0,4.5189 -0.0112,4.5751 -0.99677,4.9869 -0.47721,0.1994 -1.4072,0.2459 -2.1219,0.1061 z"
       id="path4194"
       inkscape:connector-curvature="0" />
    <path
       style="opacity:1;fill:#3e000f;fill-opacity:1"
       d="m 104.27877,1051.9456 c -0.1056,-0.043 -0.29253,-0.2716 -0.41541,-0.5092 -0.19122,-0.3698 -0.22341,-2.0309 -0.22341,-11.5313 l 0,-11.0993 0.39802,-0.3131 c 0.38839,-0.3055 0.55183,-0.313 6.75982,-0.3122 3.90712,5e-4 6.5784,0.061 6.92317,0.1568 0.93931,0.2608 1.06185,0.4848 1.00079,1.8293 -0.0477,1.0511 -0.0994,1.2262 -0.47117,1.5983 l -0.41757,0.4178 -4.86843,0.075 c -3.5703,0.055 -4.95906,0.1273 -5.20831,0.2697 -0.33208,0.1896 -0.33988,0.2546 -0.33988,2.8323 0,1.451 0.017,2.6494 0.0378,2.6631 0.0208,0.014 2.00907,0.066 4.41843,0.1155 3.11584,0.064 4.4788,0.146 4.72055,0.2825 0.31231,0.1764 0.33988,0.3001 0.33988,1.5258 0,1.1206 -0.05,1.3974 -0.31308,1.7318 l -0.31308,0.398 -3.93646,0 c -3.72423,0 -3.9639,0.017 -4.44523,0.3145 l -0.50877,0.3144 0,2.6273 0,2.6273 0.44567,0.2305 c 0.371,0.1918 1.22012,0.2304 5.06792,0.2304 5.11719,0 5.33871,0.036 5.64828,0.9243 0.23736,0.6809 0.20741,1.5194 -0.0683,1.9131 -0.54744,0.7815 -0.6193,0.7889 -7.57396,0.7761 -3.55587,-0.01 -6.55161,-0.047 -6.65721,-0.089 z"
       id="path4196"
       inkscape:connector-curvature="0" />
    <path
       style="opacity:1;fill:#3e000f;fill-opacity:1"
       d="m 125.05242,1051.8206 c -0.93501,-0.5082 -0.89169,0.069 -0.87517,-11.6643 0.008,-5.881 0.0612,-10.8626 0.11765,-11.0703 0.0601,-0.2212 0.31975,-0.487 0.62693,-0.6417 0.46321,-0.2334 1.03515,-0.2642 4.90502,-0.2642 4.50989,-10e-5 6.09996,0.1476 6.8806,0.6392 0.20358,0.1282 0.64206,0.3188 0.97438,0.4237 0.33233,0.1049 0.87138,0.4183 1.19789,0.6966 0.32651,0.2783 0.64191,0.5059 0.70088,0.5059 0.059,0 0.25586,0.3162 0.43752,0.7027 0.18166,0.3864 0.45827,0.8113 0.6147,0.9441 0.50374,0.4276 0.79973,1.5087 0.86178,3.1475 0.0505,1.3331 0.005,1.7211 -0.32703,2.8108 -0.36342,1.1914 -0.45372,1.3327 -1.56988,2.4564 -1.30125,1.3101 -1.94668,1.8721 -2.14996,1.8721 -0.0731,0 -0.20071,0.1267 -0.28358,0.2815 -0.11646,0.2176 -0.0553,0.432 0.26915,0.9441 0.2309,0.3644 0.49382,0.8752 0.58426,1.1351 0.0904,0.2599 0.37478,0.763 0.63188,1.1179 0.25709,0.3549 0.46744,0.7076 0.46744,0.7837 0,0.076 0.16152,0.3549 0.35894,0.6193 0.19743,0.2645 0.44371,0.7528 0.54731,1.0851 0.1036,0.3324 0.31364,0.7421 0.46676,0.9107 0.15313,0.1685 0.37939,0.5926 0.50282,0.9424 0.25688,0.7281 0.0997,1.4479 -0.37122,1.7 -0.44099,0.236 -1.96662,0.1702 -2.7886,-0.1203 -0.61631,-0.2178 -0.81088,-0.378 -1.0574,-0.8706 -0.16617,-0.332 -0.48905,-0.8732 -0.71752,-1.2026 -0.22848,-0.3294 -0.41541,-0.6556 -0.41541,-0.725 0,-0.069 -0.16151,-0.3424 -0.3589,-0.6069 -0.19739,-0.2645 -0.40664,-0.7527 -0.465,-1.0851 -0.0584,-0.3323 -0.26319,-0.7741 -0.45519,-0.9818 -0.19201,-0.2077 -0.45564,-0.7519 -0.58586,-1.2092 -0.27569,-0.9683 -1.10499,-1.8828 -1.91909,-2.1163 -0.28551,-0.082 -1.14447,-0.1489 -1.90882,-0.1489 -1.95934,0 -1.85988,-0.238 -1.86058,4.4521 -5.3e-4,3.5024 -0.0226,3.8167 -0.29989,4.2715 -0.29098,0.4772 -0.32786,0.4908 -1.32119,0.4849 -0.58436,0 -1.19045,-0.098 -1.41562,-0.2201 z m 10.04331,-12.6059 c 0.62471,-0.1449 1.4826,-0.8821 2.15402,-1.851 0.32174,-0.4642 0.39608,-0.7484 0.40355,-1.5424 0.008,-0.8292 -0.0537,-1.064 -0.41492,-1.5853 -0.54116,-0.7809 -1.60792,-1.6569 -2.23763,-1.8375 -0.75258,-0.2158 -6.50802,-0.1808 -6.72979,0.041 -0.25662,0.2566 -0.25662,6.4805 0,6.7372 0.21906,0.219 5.90785,0.2508 6.82477,0.038 z"
       id="path4198"
       inkscape:connector-curvature="0" />
    <path
       style="opacity:1;fill:#3e000f;fill-opacity:1"
       d="m 150.59724,1052.0991 c -0.29079,-0.1309 -0.90506,-0.3555 -1.36505,-0.4992 -0.85317,-0.2665 -2.15914,-1.1486 -2.55439,-1.7254 -0.1207,-0.1761 -0.34183,-0.409 -0.4914,-0.5176 -0.34453,-0.2501 -0.3487,-0.7514 -0.009,-1.1264 0.14442,-0.1595 0.43332,-0.6067 0.642,-0.9937 0.35303,-0.6547 0.4255,-0.707 1.04199,-0.7511 0.55593,-0.04 0.73827,0.022 1.13293,0.3859 0.87553,0.8066 1.67524,1.2357 2.70567,1.4517 0.56469,0.1184 1.1478,0.3248 1.29581,0.4588 0.32815,0.2969 0.43518,0.3002 0.95489,0.029 0.2241,-0.117 0.87821,-0.3612 1.45357,-0.5428 0.99811,-0.315 1.05565,-0.3589 1.25417,-0.9572 0.11443,-0.3448 0.20042,-1.0219 0.19109,-1.5047 -0.0167,-0.8613 -0.0325,-0.8922 -0.85142,-1.6616 -1.43329,-1.3466 -1.54193,-1.427 -2.19106,-1.6215 -0.34823,-0.1043 -0.77732,-0.324 -0.95352,-0.4881 -0.17621,-0.1642 -0.63339,-0.3927 -1.01596,-0.5079 -0.38256,-0.1151 -0.83505,-0.3331 -1.00552,-0.4845 -0.17048,-0.1513 -0.61585,-0.3876 -0.98972,-0.525 -0.44313,-0.163 -1.08728,-0.6445 -1.85045,-1.3834 -0.64388,-0.6235 -1.1707,-1.1588 -1.1707,-1.1897 0,-0.4963 -0.37844,-1.7439 -0.64039,-2.1112 -0.52157,-0.7312 -0.46063,-2.0607 0.14378,-3.1367 0.2522,-0.449 0.50014,-0.9943 0.55098,-1.2118 0.1369,-0.5857 1.39381,-2.0363 1.95233,-2.2533 0.26716,-0.1038 0.72367,-0.3428 1.01445,-0.5312 0.52107,-0.3376 2.57609,-0.7341 3.77644,-0.7286 1.36918,0.01 3.16932,0.3524 3.7302,0.7174 0.31621,0.2057 0.85651,0.4478 1.20065,0.5378 0.63338,0.1658 1.71567,1.1559 1.71567,1.5695 0,0.5945 -0.53361,1.6501 -1.08673,2.1498 -0.51504,0.4653 -0.68343,0.5365 -1.0833,0.458 -0.26041,-0.051 -0.66294,-0.2319 -0.89451,-0.4017 -0.23158,-0.1699 -0.67469,-0.3983 -0.9847,-0.5077 -0.31001,-0.1093 -0.8003,-0.3431 -1.08953,-0.5194 -0.41237,-0.2514 -0.77069,-0.3207 -1.66007,-0.3211 -1.07276,-6e-4 -1.18535,0.033 -2.0786,0.6165 -0.51943,0.3394 -1.01868,0.7558 -1.10945,0.9254 -0.0938,0.1753 -0.13917,0.7729 -0.10511,1.3845 0.058,1.0415 0.0813,1.097 0.72531,1.7302 0.36597,0.3599 0.94078,0.7941 1.27737,0.9649 0.33659,0.1709 0.76413,0.4294 0.95009,0.5746 0.18596,0.1452 0.64001,0.3092 1.00901,0.3645 0.36899,0.055 0.8412,0.2346 1.04934,0.3983 0.20815,0.1638 0.66983,0.4005 1.02597,0.5262 0.35614,0.1256 0.78541,0.3544 0.95394,0.5084 0.16852,0.154 0.57832,0.4181 0.91064,0.5868 0.33233,0.1688 0.71328,0.4376 0.84657,0.5973 0.13328,0.1598 0.37119,0.3862 0.5287,0.5032 0.60611,0.4505 1.38788,1.8704 1.63063,2.9617 0.315,1.4161 0.30506,2.1656 -0.0455,3.4297 -0.2648,0.9549 -0.38607,1.1354 -1.54822,2.3036 -0.96562,0.9707 -1.4513,1.3387 -2.07385,1.5717 -0.44711,0.1673 -0.95511,0.4037 -1.12889,0.5254 -0.46876,0.3284 -4.94376,0.306 -5.68682,-0.028 z"
       id="path4204"
       inkscape:connector-curvature="0" />
    <path
       style="opacity:1;fill:#3e000f;fill-opacity:1"
       d="m 167.0166,1051.6012 -0.40728,-0.484 0,-11.1557 0,-11.1557 0.39802,-0.3131 c 0.30704,-0.2415 0.60915,-0.3115 1.32175,-0.3065 1.12291,0.01 2.17009,0.1976 2.4087,0.436 0.12373,0.1236 0.1993,1.5663 0.2522,4.8141 l 0.0755,4.6376 5.26914,0.04 c 3.76303,0.028 5.32823,-0.01 5.47583,-0.1318 0.16643,-0.1381 0.20669,-1.0499 0.20669,-4.6812 l 0,-4.5098 0.3968,-0.26 c 0.27226,-0.1784 0.8056,-0.2792 1.69939,-0.3211 1.16241,-0.055 1.34731,-0.026 1.71801,0.2675 l 0.41541,0.3286 0,11.1557 0,11.1557 -0.39107,0.4647 c -0.36598,0.435 -0.45689,0.4648 -1.4166,0.4648 -1.13117,0 -2.02379,-0.2936 -2.26543,-0.7451 -0.0969,-0.181 -0.15651,-1.843 -0.15651,-4.3606 0,-3.8868 -0.014,-4.0858 -0.31308,-4.4661 l -0.31308,-0.398 -4.95052,0 c -4.60414,0 -4.96801,0.019 -5.20051,0.2762 -0.2194,0.2425 -0.25,0.7667 -0.25,4.2826 0,4.1955 -0.08,4.8283 -0.64867,5.1327 -0.17312,0.093 -0.90037,0.2018 -1.6161,0.2426 l -1.30134,0.074 -0.40728,-0.484 z"
       id="path4206"
       inkscape:connector-curvature="0" />
    <path
       style="opacity:1;fill:#3e000f;fill-opacity:1"
       d="m 193.92718,1051.7061 c -0.22065,-0.1865 -0.47556,-0.4876 -0.56647,-0.6691 -0.18223,-0.3637 -0.24411,-20.2763 -0.067,-21.5683 0.0804,-0.5867 0.18327,-0.7692 0.56646,-1.005 0.44476,-0.2736 0.80224,-0.286 7.13677,-0.2483 7.88276,0.047 7.30425,-0.094 7.30425,1.778 0,0.9616 -0.0598,1.2515 -0.34584,1.676 l -0.34583,0.5133 -5.04148,0.04 c -3.46318,0.027 -5.1057,0.093 -5.24662,0.2101 -0.16189,0.1343 -0.19647,0.7469 -0.16404,2.9057 l 0.0411,2.7356 4.30513,0.075 c 5.35743,0.094 5.19289,0.041 5.25544,1.6916 0.0417,1.1003 0.021,1.1856 -0.40265,1.6601 l -0.4466,0.5002 -4.24792,0.076 c -3.5543,0.063 -4.27129,0.1126 -4.39111,0.3022 -0.21926,0.3469 -0.18907,5.6385 0.0334,5.861 0.13363,0.1336 1.48592,0.1813 5.14588,0.1813 2.9495,0 5.07676,0.06 5.24091,0.1478 0.36663,0.1962 0.61019,0.9347 0.61019,1.8501 0,0.6213 -0.073,0.8173 -0.44155,1.1859 l -0.44156,0.4415 -6.54485,-7e-4 -6.54485,-8e-4 -0.40118,-0.3391 z"
       id="path4208"
       inkscape:connector-curvature="0" />
    <path
       style="opacity:1;fill:#3e000f;fill-opacity:1"
       d="m 219.2885,1051.8579 c -0.5076,-0.3854 -0.56437,-0.9943 -0.56437,-6.0526 l 0,-5.0133 -0.5287,-0.7436 c -0.29079,-0.409 -0.5287,-0.8084 -0.5287,-0.8876 0,-0.079 -0.22093,-0.3964 -0.49094,-0.705 -0.80025,-0.9146 -1.04213,-1.2328 -1.37102,-1.8038 -0.17162,-0.298 -0.50266,-0.7782 -0.73562,-1.0672 -0.23296,-0.2889 -0.42357,-0.6013 -0.42357,-0.6941 0,-0.093 -0.14476,-0.2982 -0.32169,-0.4565 -0.17693,-0.1583 -0.44068,-0.5633 -0.58612,-0.9 -0.14543,-0.3368 -0.45951,-0.822 -0.69795,-1.0783 -0.23843,-0.2564 -0.58161,-0.6606 -0.76262,-0.8983 -0.18101,-0.2378 -0.57187,-0.7276 -0.86858,-1.0886 -0.63653,-0.7744 -0.71803,-1.4767 -0.22332,-1.9244 0.26553,-0.2403 0.55606,-0.2861 1.81413,-0.2861 l 1.49797,0 0.59397,0.6498 c 0.32668,0.3574 0.77105,0.9344 0.98748,1.2823 0.21644,0.3479 0.56081,0.8705 0.76528,1.1613 0.38104,0.5419 0.55321,0.7607 1.57165,1.9974 0.32314,0.3924 0.63584,0.8683 0.6949,1.0574 0.0591,0.1892 0.28514,0.5601 0.50241,0.8242 0.21726,0.2641 0.49699,0.6157 0.62161,0.7813 0.35344,0.4697 1.16042,0.2787 1.41712,-0.3354 0.10874,-0.2601 0.31518,-0.5704 0.45874,-0.6894 0.14357,-0.1191 0.40127,-0.493 0.57268,-0.8309 0.30595,-0.6031 0.76768,-1.24 1.44051,-1.9872 0.18656,-0.2071 0.45101,-0.5948 0.58766,-0.8614 0.33781,-0.6591 0.89306,-1.3493 1.78575,-2.2199 0.64612,-0.6301 0.85854,-0.744 1.54834,-0.8302 0.90484,-0.113 2.44151,0.034 2.72546,0.2611 0.10385,0.083 0.18882,0.2639 0.18882,0.4019 0,0.2919 -0.8454,1.6976 -1.41661,2.3555 -0.51713,0.5957 -1.06847,1.3823 -1.43638,2.0494 -0.16342,0.2964 -0.40904,0.6317 -0.5458,0.7452 -0.13677,0.1135 -0.37918,0.4622 -0.53868,0.7749 -0.15951,0.3126 -0.37902,0.623 -0.48782,0.6898 -0.10879,0.067 -0.33019,0.3318 -0.492,0.5889 -0.74387,1.1822 -1.28141,1.9799 -1.56808,2.3271 -1.88742,2.2858 -1.73894,1.671 -1.7877,7.4018 -0.023,2.7001 -0.0753,5.0615 -0.11637,5.2474 -0.16488,0.747 -2.56573,1.3009 -3.28184,0.7571 z"
       id="path4210"
       inkscape:connector-curvature="0" />
    <path
       style="opacity:1;fill:#3e000f;fill-opacity:1"
       d="m 250.54881,1052.1245 c -0.16127,-0.1234 -0.75838,-0.3661 -1.32691,-0.5393 -0.56853,-0.1732 -1.45221,-0.5455 -1.96375,-0.8272 -1.02552,-0.565 -3.3321,-2.6766 -3.48746,-3.1928 -0.0542,-0.18 -0.24798,-0.5174 -0.43062,-0.7495 -0.56262,-0.7153 -1.30253,-2.3249 -1.47709,-3.2134 -0.0991,-0.5043 -0.14606,-2.0691 -0.11638,-3.8772 l 0.0498,-3.0316 0.49094,-0.9359 c 0.27001,-0.5147 0.49093,-1.0292 0.49093,-1.1433 0,-0.6461 3.0176,-4.0071 4.07855,-4.5426 0.29079,-0.1467 0.63067,-0.3526 0.75529,-0.4573 0.12462,-0.1048 0.39653,-0.2417 0.60423,-0.3041 0.20771,-0.062 0.7855,-0.3011 1.28399,-0.5302 1.31253,-0.6032 3.99975,-1.0179 5.07962,-0.7838 0.44639,0.097 1.26781,0.2168 1.82537,0.2666 0.64814,0.058 1.14289,0.1922 1.37183,0.3723 0.19694,0.1549 0.69242,0.4102 1.10105,0.5674 0.67214,0.2585 1.28751,0.6138 2.30687,1.3321 0.19549,0.1378 0.45269,0.4833 0.57155,0.7677 0.29937,0.7165 0.0731,1.4413 -0.68076,2.1802 -0.48879,0.4791 -0.70746,0.5877 -1.17847,0.5849 -0.34015,0 -0.73386,-0.125 -0.95597,-0.2987 -0.20771,-0.1625 -0.45335,-0.2969 -0.54587,-0.2988 -0.0925,0 -0.33655,-0.1716 -0.54227,-0.3774 -0.22955,-0.2295 -0.68977,-0.4391 -1.1913,-0.5426 -0.44948,-0.093 -1.38258,-0.3417 -2.07355,-0.5532 l -1.25631,-0.3847 -0.43697,0.3231 c -0.24375,0.1802 -0.66284,0.323 -0.94778,0.323 -0.85985,0 -1.83347,0.3791 -2.66805,1.0388 -1.03983,0.8219 -2.0103,1.9252 -2.27526,2.5866 -0.11649,0.2908 -0.36542,0.7565 -0.55317,1.0348 -0.47526,0.7047 -0.54207,1.2212 -0.47807,3.6963 0.0548,2.1207 0.0663,2.1838 0.58326,3.21 0.60524,1.2015 2.45501,3.1656 3.2227,3.4219 0.26226,0.088 0.61279,0.2812 0.77895,0.4303 0.16616,0.1492 0.47885,0.3381 0.69485,0.4199 0.7133,0.2702 2.73947,0.3586 4.06346,0.1774 1.04789,-0.1435 1.42311,-0.2711 2.04058,-0.6941 0.41613,-0.285 0.8196,-0.5183 0.89661,-0.5183 0.077,0 0.29311,-0.1438 0.48022,-0.3196 0.20175,-0.1895 0.62141,-0.3513 1.03111,-0.3975 0.66657,-0.075 0.71745,-0.051 1.44446,0.6757 0.97115,0.9712 1.02638,1.5642 0.22484,2.414 -0.29078,0.3082 -0.5287,0.6151 -0.5287,0.682 0,0.067 -0.35687,0.2915 -0.79305,0.4993 -0.43618,0.2078 -0.96299,0.4704 -1.17069,0.5836 -0.20771,0.1131 -0.82637,0.418 -1.37482,0.6776 l -0.99718,0.472 -2.86368,0 c -2.30061,0 -2.92133,-0.044 -3.1569,-0.2244 z"
       id="path4212"
       inkscape:connector-curvature="0" />
    <path
       style="opacity:1;fill:#3e000f;fill-opacity:1"
       d="m 274.80241,1052.2417 c -0.12462,-0.046 -0.32855,-0.1677 -0.45317,-0.2708 -0.12462,-0.1031 -0.56953,-0.299 -0.98868,-0.4353 -0.41914,-0.1363 -0.92623,-0.366 -1.12684,-0.5104 -0.20062,-0.1443 -0.61736,-0.3984 -0.9261,-0.5646 -1.20661,-0.6494 -2.21625,-1.4277 -2.54775,-1.9641 -0.19083,-0.3088 -0.50675,-0.7338 -0.70205,-0.9446 -0.19531,-0.2107 -0.3551,-0.4619 -0.3551,-0.5583 0,-0.096 -0.17142,-0.4075 -0.38092,-0.6915 -0.20951,-0.284 -0.45158,-0.79 -0.53795,-1.1245 -0.0864,-0.3345 -0.27906,-0.7792 -0.42822,-0.9882 -0.3926,-0.55 -0.61678,-2.0935 -0.61582,-4.2396 8.9e-4,-1.9724 0.15686,-2.8531 0.60648,-3.4247 0.1493,-0.1898 0.31842,-0.6865 0.37581,-1.1038 0.0609,-0.4427 0.24681,-0.9292 0.44631,-1.1679 0.18808,-0.225 0.4821,-0.681 0.65339,-1.0133 0.38078,-0.7388 2.47877,-2.8176 3.20418,-3.1748 0.29078,-0.1433 0.63066,-0.3462 0.75529,-0.4509 0.12462,-0.1048 0.39652,-0.2391 0.60423,-0.2984 0.2077,-0.059 0.78631,-0.3031 1.28579,-0.5416 0.93056,-0.4445 2.77198,-0.7876 4.2278,-0.7877 1.23108,-10e-5 3.08437,0.3115 3.75518,0.6312 0.34402,0.164 0.96536,0.4269 1.38077,0.5843 0.41541,0.1574 1.02719,0.4601 1.35952,0.6727 1.05823,0.6771 3.19191,2.7355 3.56646,3.4407 0.19856,0.3739 0.47148,0.8157 0.60646,0.9819 0.13499,0.1662 0.35789,0.6485 0.49533,1.0718 0.13745,0.4234 0.38388,1.0325 0.54762,1.3537 0.26698,0.5237 0.29772,0.8971 0.29772,3.6168 0,2.7196 -0.0307,3.0931 -0.29772,3.6167 -0.16374,0.3212 -0.41,0.9304 -0.54724,1.3537 -0.13723,0.4234 -0.40027,0.9397 -0.58453,1.1474 -0.18426,0.2077 -0.41913,0.5915 -0.52194,0.8528 -0.22881,0.5816 -2.66248,2.9889 -3.18452,3.15 -0.2077,0.064 -0.60093,0.3113 -0.87383,0.5493 -0.33255,0.2901 -0.66182,0.4328 -0.99838,0.4328 -0.2762,0 -0.88433,0.2039 -1.3514,0.4532 l -0.84923,0.4532 -2.83518,-0.012 c -1.55935,-0.01 -2.93714,-0.049 -3.06177,-0.095 z m 5.3417,-4.0334 c 0.48702,-0.1146 1.06613,-0.3419 1.28691,-0.5051 0.22077,-0.1632 0.55498,-0.3455 0.74268,-0.4051 0.44314,-0.1406 2.34527,-2.0174 2.65842,-2.623 0.1332,-0.2576 0.34476,-0.5257 0.47013,-0.5959 0.32059,-0.1794 0.68005,-2.2116 0.67046,-3.7905 -0.0115,-1.898 -0.30303,-3.2899 -0.85933,-4.103 -0.47626,-0.6961 -2.50157,-2.7061 -3.27251,-3.2477 -0.69931,-0.4913 -1.7109,-0.6741 -3.71519,-0.6713 -2.43983,0 -3.70964,0.2461 -4.47578,0.8556 -0.91211,0.7255 -2.77498,2.7048 -2.77498,2.9484 0,0.1206 -0.13211,0.3388 -0.29357,0.4849 -0.41965,0.3798 -0.76383,2.0849 -0.76383,3.7842 0,1.6234 0.36466,3.5254 0.70064,3.6543 0.12022,0.046 0.34532,0.3304 0.50023,0.6317 0.42874,0.8339 1.96777,2.4503 2.5694,2.6986 0.29417,0.1214 0.63683,0.3106 0.76145,0.4206 0.68812,0.6069 4.04408,0.8752 5.79487,0.4633 z"
       id="path4214"
       inkscape:connector-curvature="0" />
    <path
       style="opacity:1;fill:#3e000f;fill-opacity:1"
       d="m 306.12127,1052.16 c -0.423,-0.6716 -1.24514,-2.432 -1.3335,-2.8552 -0.0581,-0.2782 -0.27094,-0.7933 -0.473,-1.1447 -0.20207,-0.3514 -0.43824,-1.0312 -0.52482,-1.5106 -0.0866,-0.4794 -0.31606,-1.1096 -0.50993,-1.4003 -0.19388,-0.2908 -0.39947,-0.7667 -0.45688,-1.0574 -0.0574,-0.2908 -0.224,-0.737 -0.3702,-0.9916 -0.1462,-0.2546 -0.4226,-0.9343 -0.61422,-1.5106 -0.19162,-0.5762 -0.50726,-1.3467 -0.70142,-1.7122 -0.19416,-0.3655 -0.35301,-0.7773 -0.35301,-0.9152 0,-0.1379 -0.0912,-0.3755 -0.20275,-0.528 -0.19358,-0.2648 -0.21405,-0.2612 -0.45317,0.08 -0.16521,0.2358 -0.25043,0.6639 -0.25043,1.2581 0,0.567 -0.10599,1.128 -0.28619,1.5147 -0.29007,0.6225 -0.39512,1.2783 -0.61859,3.8619 -0.16383,1.894 -0.43899,3.454 -0.6981,3.9577 -0.11539,0.2244 -0.21197,0.7342 -0.21461,1.133 -0.006,0.9108 -0.20797,1.1757 -1.13676,1.491 -0.86254,0.2928 -2.41031,0.2031 -2.77429,-0.1609 -0.37052,-0.3705 -0.20546,-2.098 0.30414,-3.183 0.15865,-0.3378 0.2909,-0.8816 0.29389,-1.2085 0.0101,-1.1068 0.38966,-3.5145 0.59256,-3.759 0.11829,-0.1425 0.28487,-1.0833 0.40275,-2.2747 0.11056,-1.1174 0.31021,-2.2879 0.44366,-2.6012 0.22606,-0.5307 0.34555,-1.1363 0.67863,-3.4397 0.22641,-1.5657 0.39533,-2.4027 0.57307,-2.8395 0.0946,-0.2324 0.23114,-1.0666 0.3035,-1.8537 0.14495,-1.5768 0.33904,-1.9434 1.14218,-2.1575 0.94289,-0.2514 1.95389,0.5109 2.12986,1.6059 0.0497,0.3091 0.18275,0.7999 0.29573,1.0907 0.55738,1.4346 1.0387,2.5147 1.21163,2.719 0.10549,0.1247 0.30828,0.6336 0.45065,1.131 0.14236,0.4975 0.41459,1.1772 0.60496,1.5106 0.19037,0.3334 0.39041,0.8591 0.44454,1.1682 0.0541,0.3091 0.25579,0.7509 0.44814,0.9819 0.19234,0.2309 0.43494,0.7937 0.5391,1.2506 0.10417,0.457 0.34765,1.0688 0.54108,1.3595 0.19342,0.2908 0.39549,0.7327 0.44903,0.9819 0.0535,0.2493 0.16482,0.6231 0.24728,0.8308 0.18646,0.4697 1.01073,1.145 1.17671,0.9641 0.0672,-0.073 0.24093,-0.5071 0.38599,-0.9641 0.14507,-0.4569 0.38773,-1.0369 0.53926,-1.2888 0.15153,-0.2519 0.34963,-0.7888 0.44023,-1.1931 0.0906,-0.4043 0.30089,-0.9263 0.46732,-1.16 0.16642,-0.2337 0.42982,-0.7844 0.58533,-1.2238 0.15551,-0.4394 0.41861,-1.072 0.58467,-1.4058 0.16606,-0.3338 0.34878,-0.8567 0.40605,-1.1619 0.0573,-0.3053 0.26449,-0.7724 0.4605,-1.0381 0.19602,-0.2657 0.40121,-0.7819 0.45597,-1.1471 0.0548,-0.3652 0.2611,-0.902 0.4585,-1.1929 0.1974,-0.2909 0.43703,-0.8493 0.5325,-1.2409 0.17452,-0.7157 0.35935,-1.1601 0.60629,-1.4577 0.0733,-0.088 0.28723,-0.3985 0.47544,-0.6893 0.28321,-0.4375 0.44549,-0.5363 0.94149,-0.5731 0.32961,-0.024 0.72199,0.045 0.87195,0.1551 0.28579,0.2092 0.54779,1.0832 0.55549,1.8531 0.002,0.2492 0.11568,0.6571 0.25153,0.9063 0.24676,0.4528 0.63163,3.0129 0.64854,4.3141 0.005,0.3787 0.10875,0.8206 0.23073,0.9818 0.12198,0.1613 0.22394,0.5059 0.22658,0.7657 0.003,0.2599 0.10677,0.7166 0.23139,1.0148 0.12463,0.2983 0.2266,0.9014 0.22662,1.3402 3e-5,0.9288 0.37331,3.01 0.62383,3.4781 0.16105,0.3009 0.23857,0.776 0.57332,3.5132 0.0711,0.5816 0.23033,1.2953 0.35379,1.5861 0.32061,0.7551 0.4807,2.9126 0.24878,3.3529 -0.26869,0.51 -0.41972,0.5697 -1.44735,0.5723 -0.95565,0 -2.1605,-0.3864 -2.41213,-0.7783 -0.0711,-0.1107 -0.1781,-0.7791 -0.23779,-1.4853 -0.2042,-2.4159 -0.30419,-3.0974 -0.57627,-3.9275 -0.14978,-0.4569 -0.31958,-1.5445 -0.37733,-2.4169 -0.0691,-1.0438 -0.20612,-1.8185 -0.40072,-2.2659 -0.16265,-0.3738 -0.33431,-1.0196 -0.38145,-1.435 -0.0824,-0.7258 -0.41842,-1.3513 -0.6493,-1.2086 -0.0608,0.038 -0.18977,0.4713 -0.28666,0.9638 -0.0969,0.4925 -0.27669,0.9788 -0.39955,1.0808 -0.12285,0.102 -0.33218,0.5674 -0.46518,1.0342 -0.13299,0.4669 -0.40355,1.176 -0.60125,1.5759 -0.1977,0.3998 -0.46905,1.1136 -0.603,1.5861 -0.13396,0.4725 -0.33894,1.0102 -0.45552,1.195 -0.11657,0.1847 -0.31385,0.7285 -0.43838,1.2084 -0.12454,0.4799 -0.36075,1.055 -0.52493,1.2779 -0.16417,0.223 -0.36558,0.7048 -0.44757,1.0706 -0.13947,0.6224 -0.8869,2.2058 -1.24469,2.6369 -0.20742,0.2499 -1.57731,0.2527 -1.73424,0 l 0,0 z"
       id="path4216"
       inkscape:connector-curvature="0" />
    <path
       style="opacity:1;fill:#3e000f;fill-opacity:1"
       d="m 326.1505,1051.6569 -0.36621,-0.3898 0,-11.2362 c 0,-10.5812 0.0157,-11.252 0.26948,-11.506 0.24215,-0.2424 0.66234,-0.2743 4.14343,-0.3149 3.88183,-0.045 5.71049,0.094 6.31188,0.4805 0.16632,0.107 0.52865,0.272 0.80517,0.3668 0.75603,0.2591 2.5643,1.5102 2.67164,1.8483 0.0518,0.1633 0.26027,0.4942 0.46325,0.7354 0.20297,0.2413 0.47197,0.7303 0.59776,1.0869 0.1258,0.3565 0.33933,0.7705 0.47451,0.9198 0.18966,0.2096 0.26239,0.7029 0.31854,2.1603 0.0713,1.85 0.0646,1.9005 -0.32529,2.4631 -0.21893,0.3159 -0.39805,0.6534 -0.39805,0.7499 0,0.2685 -0.49327,1.2433 -0.62913,1.2433 -0.066,0 -0.25296,0.2606 -0.41545,0.5791 -0.28059,0.55 -0.84483,1.0477 -2.20315,1.9434 -0.94357,0.6222 -2.01569,0.8156 -5.03414,0.9079 -2.7586,0.084 -2.76877,0.086 -2.90786,0.4517 -0.0768,0.2019 -0.13957,1.753 -0.13957,3.4469 0,2.0694 -0.0593,3.2099 -0.18083,3.4766 -0.26603,0.5839 -1.15258,0.9768 -2.20374,0.9768 -0.75718,0 -0.93929,-0.057 -1.25224,-0.3898 z m 8.60981,-11.9102 c 0.13116,-0.1185 0.57422,-0.34 0.98458,-0.4923 0.76367,-0.2833 1.21433,-0.8131 1.83904,-2.1619 0.33305,-0.7191 0.18919,-2.1231 -0.28053,-2.7377 -1.46974,-1.9233 -1.57239,-1.9688 -4.646,-2.0617 -3.1395,-0.095 -2.89998,-0.4197 -2.84063,3.8531 0.0352,2.5358 0.0949,3.3759 0.25338,3.5665 0.17471,0.2102 0.5412,0.2494 2.3295,0.2494 1.6255,0 2.17799,-0.05 2.36066,-0.2154 z"
       id="path4218"
       inkscape:connector-curvature="0" />
    <path
       style="opacity:1;fill:#3e000f;fill-opacity:1"
       d="m 343.00518,1051.5664 c -0.35605,-0.4231 -0.39204,-0.5625 -0.30235,-1.1707 0.056,-0.3797 0.29517,-0.9839 0.53149,-1.3427 0.23632,-0.3588 0.50486,-1.0029 0.59675,-1.4314 0.0919,-0.4285 0.29208,-0.9166 0.44487,-1.0848 0.15278,-0.1682 0.36254,-0.5777 0.46614,-0.91 0.1036,-0.3323 0.34804,-0.8182 0.5432,-1.0797 0.19517,-0.2615 0.42722,-0.7984 0.51567,-1.1931 0.0885,-0.3947 0.28206,-0.8945 0.43025,-1.1106 0.14819,-0.2162 0.38965,-0.7172 0.53659,-1.1133 0.14693,-0.3962 0.36677,-0.8199 0.48853,-0.9417 0.12175,-0.1217 0.32876,-0.5453 0.46002,-0.9413 0.13126,-0.396 0.36133,-0.856 0.51128,-1.0222 0.14994,-0.1662 0.34202,-0.608 0.42683,-0.9818 0.0848,-0.3739 0.52197,-1.4275 0.97147,-2.3414 0.44949,-0.9139 0.92996,-2.0079 1.06769,-2.4312 0.13774,-0.4233 0.41842,-0.9973 0.62373,-1.2756 0.20531,-0.2783 0.37329,-0.5981 0.37329,-0.7107 0,-0.2803 0.42389,-1.0773 0.77135,-1.4502 0.15733,-0.1689 0.28605,-0.3513 0.28605,-0.4054 0,-0.2241 0.70376,-0.3934 1.14522,-0.2756 0.56806,0.1516 0.87654,0.4864 1.10522,1.1996 0.0956,0.2981 0.34211,0.7702 0.5478,1.049 0.20568,0.2788 0.37397,0.586 0.37397,0.6828 0,0.097 0.19479,0.5424 0.43288,0.9903 0.23808,0.4479 0.54329,1.1963 0.67823,1.6632 0.13495,0.4668 0.34428,0.9309 0.46519,1.0312 0.12091,0.1004 0.3297,0.5133 0.464,0.9176 0.13429,0.4043 0.3786,0.906 0.54291,1.1149 0.16432,0.2089 0.42608,0.7395 0.58169,1.1792 0.15562,0.4397 0.41687,1.0714 0.58056,1.4037 0.16369,0.3323 0.34344,0.8181 0.39944,1.0795 0.056,0.2614 0.23069,0.5919 0.38818,0.7344 0.15749,0.1425 0.36167,0.622 0.45374,1.0655 0.0921,0.4434 0.34171,1.0631 0.55479,1.3771 0.21307,0.314 0.47237,0.8117 0.57621,1.106 0.10385,0.2944 0.35917,0.7862 0.56739,1.093 0.20821,0.3069 0.42376,0.8593 0.479,1.2276 0.0555,0.3699 0.26277,0.8587 0.46299,1.0917 0.19941,0.2321 0.43817,0.7318 0.53058,1.1106 0.0924,0.3787 0.25867,0.8551 0.36948,1.0587 0.17129,0.3146 0.16661,0.4233 -0.0312,0.7252 -0.36097,0.5509 -0.98431,0.7929 -2.04225,0.7929 -0.81055,0 -1.00978,-0.054 -1.2582,-0.3398 -0.59815,-0.6888 -1.23042,-1.7159 -1.41812,-2.3037 -0.30219,-0.9462 -0.73009,-1.7125 -1.0528,-1.8852 -0.1933,-0.1034 -2.03137,-0.1444 -5.31438,-0.1183 l -5.01887,0.04 -0.41662,0.6797 c -0.22914,0.3739 -0.531,1.0537 -0.6708,1.5106 -0.3811,1.2457 -0.61865,1.6257 -1.27507,2.0401 -0.47647,0.3008 -0.79296,0.3768 -1.56837,0.3768 -0.90614,0 -0.99862,-0.032 -1.3756,-0.4803 z m 13.68245,-8.2373 c 0.17091,-0.4495 -0.14248,-1.5258 -0.54045,-1.8561 -0.11569,-0.096 -0.28601,-0.5391 -0.3785,-0.9846 -0.0925,-0.4455 -0.30161,-0.9797 -0.46471,-1.187 -0.1631,-0.2074 -0.39884,-0.6669 -0.52387,-1.0213 -0.12503,-0.3544 -0.32491,-0.7522 -0.44417,-0.884 -0.11926,-0.1317 -0.35857,-0.56 -0.53179,-0.9516 -0.17323,-0.3916 -0.37149,-0.712 -0.44058,-0.712 -0.0691,0 -0.23586,0.4389 -0.37058,0.9752 -0.13473,0.5364 -0.41489,1.2256 -0.62259,1.5317 -0.20771,0.306 -0.37764,0.6394 -0.37764,0.7409 0,0.1014 -0.17262,0.4388 -0.3836,0.7497 -0.21098,0.3108 -0.47654,0.9151 -0.59015,1.3428 -0.26949,1.0144 -0.39075,1.3063 -0.54281,1.3063 -0.19905,0 -0.31707,0.5437 -0.21033,0.969 l 0.098,0.3905 3.08404,0 3.08404,0 0.15568,-0.4095 z"
       id="path4220"
       inkscape:connector-curvature="0" />
    <path
       style="opacity:1;fill:#3e000f;fill-opacity:1"
       d="m 386.02041,1051.9508 c -0.17219,-0.2189 -0.31308,-0.4856 -0.31308,-0.5926 0,-0.1071 -0.44184,-0.6344 -0.98187,-1.1718 -0.54003,-0.5374 -0.98188,-1.0493 -0.98188,-1.1377 0,-0.088 -0.38952,-0.5546 -0.86561,-1.036 -0.47609,-0.4814 -1.0433,-1.1472 -1.26048,-1.4796 -0.21717,-0.3323 -0.94924,-1.1987 -1.62683,-1.9253 -0.67758,-0.7266 -1.23197,-1.4046 -1.23197,-1.5066 0,-0.1019 -0.39976,-0.5658 -0.88837,-1.0307 -0.4886,-0.465 -0.99305,-1.0478 -1.121,-1.2952 -0.12795,-0.2475 -0.54708,-0.7526 -0.93141,-1.1225 -0.38432,-0.3699 -0.89565,-0.9784 -1.13628,-1.3523 -0.24063,-0.3739 -0.64109,-0.9177 -0.88992,-1.2084 -0.83551,-0.9765 -0.84393,-0.9113 -0.89224,6.8946 -0.0368,5.9403 -0.0786,7.0844 -0.26987,7.3763 -0.31051,0.4739 -1.35959,0.7454 -2.38485,0.6173 -1.5021,-0.1876 -1.37502,0.8812 -1.41741,-11.9207 -0.0292,-8.8096 0.004,-11.2808 0.15459,-11.5778 0.1505,-0.2965 0.32665,-0.3875 0.81998,-0.4236 0.60944,-0.045 0.6683,-0.01 1.96022,1.2905 0.73255,0.7351 1.50185,1.5715 1.70955,1.8587 0.20771,0.2872 0.82814,0.9979 1.37874,1.5795 0.55061,0.5816 1.10558,1.2613 1.23328,1.5106 0.12769,0.2492 0.81579,1.0549 1.52911,1.7904 0.71332,0.7354 1.29694,1.4104 1.29694,1.5 0,0.09 0.67717,0.8287 1.50483,1.6425 0.82766,0.8139 1.61647,1.7024 1.75292,1.9744 0.13644,0.272 0.69763,0.953 1.24709,1.5133 0.978,0.9974 1.00297,1.0117 1.18735,0.6798 0.14273,-0.257 0.18964,-2.062 0.19369,-7.4531 0.005,-6.6134 0.0242,-7.1311 0.27306,-7.3563 0.38439,-0.3479 2.05934,-0.4776 2.89878,-0.2245 0.61062,0.1842 0.68566,0.2593 0.79771,0.7986 0.068,0.3274 0.1046,5.5483 0.0813,11.6021 l -0.0424,11.0067 -0.35662,0.2887 c -0.25973,0.2103 -0.59531,0.2888 -1.23526,0.2888 -0.76929,0 -0.91761,-0.049 -1.19172,-0.3981 z"
       id="path4222"
       inkscape:connector-curvature="0" />
    <path
       style="opacity:1;fill:#3e000f;fill-opacity:1"
       d="m 400.92687,1051.6313 -0.39589,-0.4154 -0.0478,-5.0604 -0.0478,-5.0604 -0.37765,-0.5726 c -0.2077,-0.3149 -0.59856,-0.8481 -0.86858,-1.185 -0.27001,-0.3368 -0.49093,-0.7038 -0.49093,-0.8155 0,-0.1825 -0.53737,-0.8821 -1.59352,-2.0746 -0.20363,-0.2299 -0.37023,-0.5033 -0.37023,-0.6075 0,-0.1043 -0.19431,-0.426 -0.43181,-0.7149 -0.2375,-0.289 -0.48037,-0.6795 -0.53972,-0.8679 -0.0593,-0.1884 -0.30015,-0.5283 -0.53511,-0.7553 -0.23496,-0.227 -0.74025,-0.8886 -1.12287,-1.4702 -0.38261,-0.5815 -0.79311,-1.1612 -0.91221,-1.288 -0.60864,-0.6482 -0.68623,-1.673 -0.16605,-2.1932 0.32317,-0.3231 0.50257,-0.3696 1.39728,-0.3622 1.3635,0.011 1.99498,0.2464 2.41155,0.8978 0.40469,0.6328 1.03696,1.4988 1.57739,2.1605 0.21695,0.2657 0.51528,0.7209 0.66294,1.0117 0.14767,0.2908 0.44599,0.7399 0.66294,0.9981 0.21696,0.2581 0.53041,0.6312 0.69658,0.8289 0.16616,0.1978 0.47205,0.6633 0.67976,1.0344 0.2077,0.3712 0.59131,0.799 0.85246,0.9506 l 0.47482,0.2756 0.47513,-0.4752 c 0.26131,-0.2613 0.61019,-0.7221 0.77529,-1.0241 0.1651,-0.302 0.60522,-0.9229 0.97805,-1.3798 0.37283,-0.457 0.82216,-1.1027 0.99851,-1.4351 0.17636,-0.3323 0.44839,-0.7401 0.60452,-0.9063 0.71579,-0.7618 1.29907,-1.5522 1.48132,-2.0073 0.28608,-0.7144 0.64776,-0.8477 2.32216,-0.8557 1.30037,-0.01 1.51157,0.029 1.69939,0.2861 0.35524,0.4857 0.26806,1.3571 -0.19026,1.9018 -0.2226,0.2645 -0.5115,0.6704 -0.64199,0.9019 -0.28805,0.5109 -1.0847,1.5854 -1.59783,2.155 -0.20712,0.2299 -0.37659,0.5082 -0.37659,0.6185 0,0.1103 -0.14156,0.3287 -0.31458,0.4853 -0.17303,0.1566 -0.41129,0.5161 -0.52949,0.799 -0.11819,0.2829 -0.43547,0.7735 -0.70505,1.0903 -0.74289,0.8729 -1.09905,1.3699 -1.39708,1.9495 -0.14898,0.2897 -0.44771,0.7047 -0.66384,0.9221 -0.21614,0.2174 -0.56292,0.6601 -0.77062,0.9838 l -0.37765,0.5884 -0.0755,5.136 c -0.0772,5.2524 -0.12466,5.6573 -0.68791,5.8734 -0.13373,0.051 -0.66671,0.093 -1.1844,0.093 -0.83014,0 -0.98799,-0.049 -1.33715,-0.4154 z"
       id="path4224"
       inkscape:connector-curvature="0" />
    <path
       style="opacity:1;fill:#a8a9ad;fill-opacity:1"
       d="m 388.72848,953.45015 c -0.12462,-0.0458 -0.34554,-0.18694 -0.49094,-0.3136 -0.24074,-0.20973 -0.26435,-0.63407 -0.26435,-4.75254 0,-4.29351 0.0153,-4.54167 0.30212,-4.90632 0.2011,-0.25566 0.30335,-0.61717 0.3058,-1.08123 0.005,-0.95711 0.25291,-1.9792 0.5941,-2.45007 0.15678,-0.21637 0.36191,-0.67879 0.45583,-1.0276 0.0939,-0.34882 0.28754,-0.75097 0.43025,-0.89368 0.14271,-0.14271 0.44788,-0.58097 0.67816,-0.97391 0.23027,-0.39293 0.47555,-0.71443 0.54505,-0.71443 0.0695,0 0.21156,-0.20569 0.31569,-0.45709 0.10414,-0.2514 0.38429,-0.59591 0.62256,-0.76557 0.23827,-0.16967 0.43322,-0.40407 0.43322,-0.5209 0,-0.11684 0.19383,-0.31266 0.43074,-0.43517 0.23691,-0.12251 0.54437,-0.39616 0.68324,-0.60811 0.13888,-0.21195 0.35615,-0.38536 0.48282,-0.38536 0.12667,0 0.38117,-0.16278 0.56555,-0.36173 0.18438,-0.19894 0.61834,-0.50928 0.96437,-0.68964 0.34603,-0.18036 0.70698,-0.42172 0.80211,-0.53635 0.0951,-0.11463 0.52461,-0.32409 0.9544,-0.46547 0.42978,-0.14138 0.9635,-0.40853 1.18604,-0.59367 0.22253,-0.18514 0.63805,-0.38041 0.92337,-0.43394 0.28531,-0.0535 0.63827,-0.22938 0.78434,-0.39079 0.29079,-0.32131 0.86041,-0.53154 1.85971,-0.68636 0.35683,-0.0553 0.93462,-0.25746 1.28399,-0.44929 0.47139,-0.25883 1.05764,-0.38871 2.27313,-0.50358 1.06513,-0.10066 1.72622,-0.23471 1.89044,-0.38333 0.29062,-0.26301 1.36876,-0.53906 2.12637,-0.54446 0.28532,-0.002 0.79514,-0.13349 1.13293,-0.29214 0.67838,-0.31862 0.97301,-0.37407 3.69756,-0.69599 1.05025,-0.12409 1.98046,-0.31165 2.11481,-0.4264 0.38391,-0.32791 0.74511,-0.41149 2.41076,-0.55784 0.86384,-0.0759 1.71442,-0.23053 1.89018,-0.34364 0.53592,-0.34487 1.32423,-0.56891 2.46151,-0.69956 0.71347,-0.082 1.24169,-0.23652 1.54392,-0.45172 0.30462,-0.21691 0.92345,-0.39644 1.83679,-0.53288 0.96045,-0.14348 1.47621,-0.29752 1.70381,-0.50887 0.17953,-0.16671 0.71679,-0.37439 1.1939,-0.46152 0.47712,-0.0871 1.05867,-0.29977 1.29234,-0.47252 0.23366,-0.17276 0.82894,-0.41926 1.32284,-0.54777 0.4939,-0.12852 1.01723,-0.36088 1.16295,-0.51637 0.14572,-0.15549 0.61469,-0.38657 1.04216,-0.51351 0.42747,-0.12695 0.86838,-0.36096 0.9798,-0.52004 0.11142,-0.15907 0.54385,-0.37669 0.96096,-0.48359 0.48012,-0.12306 0.84219,-0.3223 0.98683,-0.54304 0.12565,-0.19177 0.32649,-0.34868 0.44631,-0.34868 0.11981,0 0.44113,-0.1945 0.71404,-0.43222 0.2729,-0.23772 0.71524,-0.54439 0.98296,-0.68148 0.26772,-0.13709 0.73728,-0.41926 1.04345,-0.62704 0.52268,-0.3547 0.57369,-0.36239 0.83499,-0.12592 0.26317,0.23817 0.27829,0.65567 0.27829,7.68237 0,7.23868 -0.008,7.43758 -0.30211,7.70393 -0.16616,0.15038 -0.30212,0.36484 -0.30212,0.47659 0,0.31781 -1.11809,1.3562 -1.58702,1.47389 -0.23226,0.0583 -0.55293,0.27206 -0.71259,0.47504 -0.15966,0.20297 -0.37797,0.36904 -0.48514,0.36904 -0.10717,0 -0.45126,0.20378 -0.76466,0.45283 -0.31339,0.24905 -0.82464,0.52144 -1.1361,0.60531 -0.31147,0.0839 -0.65919,0.2645 -0.77272,0.40139 -0.26141,0.31522 -0.92923,0.59125 -1.76247,0.72849 -0.36424,0.06 -0.80334,0.26064 -0.99937,0.45667 -0.24782,0.24782 -0.60854,0.38086 -1.23851,0.45677 -0.48887,0.0589 -1.22873,0.26527 -1.64413,0.45858 -0.41541,0.19329 -1.20522,0.42291 -1.75513,0.51025 -0.54991,0.0873 -1.29764,0.28854 -1.66163,0.44712 -0.36399,0.15858 -1.30756,0.36856 -2.09684,0.46662 -1.62709,0.20215 -2.1464,0.31637 -3.32326,0.73092 -0.59143,0.20833 -1.46194,0.32285 -3.02115,0.39744 -1.62583,0.0778 -2.25562,0.16357 -2.44364,0.33288 -0.39764,0.35806 -1.23682,0.50284 -3.62579,0.62554 -1.77315,0.0911 -2.27495,0.1659 -2.50434,0.3735 -0.15778,0.14279 -0.50691,0.25962 -0.77585,0.25962 -0.26893,0 -0.60817,0.0638 -0.75387,0.14177 -0.14569,0.078 -1.00791,0.22006 -1.91605,0.31575 -0.90813,0.0957 -1.84754,0.27923 -2.08756,0.40787 -0.24003,0.12865 -0.9801,0.32825 -1.64461,0.44357 -0.82638,0.14341 -1.34148,0.32181 -1.62993,0.56453 -0.23357,0.19653 -0.73465,0.40178 -1.12308,0.46003 -0.3945,0.0592 -0.839,0.24283 -1.01598,0.41981 -0.17305,0.17305 -0.65229,0.44293 -1.06499,0.59974 -0.41269,0.15682 -0.96938,0.45218 -1.23707,0.65636 -0.2677,0.20418 -0.56301,0.37124 -0.65625,0.37124 -0.0932,0 -0.40745,0.23791 -0.69823,0.5287 -0.29079,0.29078 -0.5972,0.5287 -0.68092,0.5287 -0.0837,0 -0.25517,0.19911 -0.38102,0.44246 -0.12584,0.24336 -0.35519,0.48258 -0.50965,0.53161 -0.15447,0.049 -0.35831,0.25913 -0.45298,0.46691 -0.0947,0.20777 -0.3429,0.4427 -0.55162,0.52206 -0.20873,0.0793 -0.3795,0.24589 -0.3795,0.37009 0,0.12419 -0.20393,0.37657 -0.45317,0.56084 -0.24925,0.18428 -0.45318,0.42009 -0.45318,0.52404 0,0.10395 -0.2719,0.50315 -0.60422,0.88712 -0.33233,0.38398 -0.60423,0.78543 -0.60423,0.89212 0,0.48614 -0.75134,0.81044 -1.35952,0.58682 z"
       id="path4236"
       inkscape:connector-curvature="0" />
  </g>
</svg>
