<?xml version="1.0" encoding="UTF-8" standalone="no"?>
<svg
   xmlns:dc="http://purl.org/dc/elements/1.1/"
   xmlns:cc="http://creativecommons.org/ns#"
   xmlns:rdf="http://www.w3.org/1999/02/22-rdf-syntax-ns#"
   xmlns:svg="http://www.w3.org/2000/svg"
   xmlns="http://www.w3.org/2000/svg"
   viewBox="0 0 233.85809 32.31525"
   height="32.31525"
   width="233.85809"
   xml:space="preserve"
   version="1.1"
   id="svg2"><metadata
     id="metadata8"><rdf:RDF><cc:Work
         rdf:about=""><dc:format>image/svg+xml</dc:format><dc:type
           rdf:resource="http://purl.org/dc/dcmitype/StillImage" /><dc:title></dc:title></cc:Work></rdf:RDF></metadata><defs
     id="defs6" /><g
     transform="matrix(1.25,0,0,-1.25,-3.8681625,137.33875)"
     id="g10"><g
       transform="scale(0.1,0.1)"
       id="g12"><path
         id="path16"
         style="fill:#231f20;fill-opacity:1;fill-rule:evenodd;stroke:none"
         d="m 30.9453,919.008 22.0703,0 0,87.6445 -22.0703,0 0,-87.6445 z" /><path
         id="path18"
         style="fill:#231f20;fill-opacity:1;fill-rule:evenodd;stroke:none"
         d="m 164.625,919.008 -18.289,0 -49.1837,56.117 0,-56.117 -21.4375,0 0,87.642 20.1758,0 46.6644,-53.595 0,53.595 22.07,0 0,-87.642" /><path
         id="path20"
         style="fill:#231f20;fill-opacity:1;fill-rule:evenodd;stroke:none"
         d="m 264.25,990.891 -31.527,0 0,-71.883 -22.071,0 0,71.883 -32.156,0 0,15.759 85.754,0 0,-15.759" /><path
         id="path22"
         style="fill:#231f20;fill-opacity:1;fill-rule:evenodd;stroke:none"
         d="m 343.07,919.008 -64.316,0 0,87.642 63.687,0 0,-15.759 -42.246,0 0,-18.286 40.352,0 0,-16.398 -40.352,0 0,-21.437 42.875,0 0,-15.762" /><path
         id="path24"
         style="fill:#231f20;fill-opacity:1;fill-rule:evenodd;stroke:none"
         d="m 401.715,1006.65 c 18.285,0 28.375,-11.978 28.375,-25.22 0,-9.457 -4.414,-16.395 -14.504,-21.438 8.828,-4.414 11.352,-15.133 23.961,-40.984 l -23.961,0 c -9.457,18.914 -13.242,35.937 -25.223,35.937 l -6.304,0 0,-35.937 -22.071,0 0,87.642 39.727,0 0,0 z m -17.656,-35.939 11.98,0 c 5.676,0 11.981,2.523 11.981,10.09 0,6.933 -4.415,10.09 -12.614,10.09 l -11.347,0 0,-20.18" /><path
         id="path26"
         style="fill:#231f20;fill-opacity:1;fill-rule:evenodd;stroke:none"
         d="m 538.547,919.008 -18.289,0 -48.555,56.117 0,-56.117 -22.066,0 0,87.642 20.176,0 47.292,-53.595 0,53.595 21.442,0 0,-87.642" /><path
         id="path28"
         style="fill:#231f20;fill-opacity:1;fill-rule:evenodd;stroke:none"
         d="m 650.781,919.008 -23.961,0 -6.933,17.652 -39.727,0 -6.305,-17.652 -23.332,0 35.313,87.642 25.855,0 39.09,-87.642 0,0 z m -51.703,66.836 -12.609,-34.047 27.113,0 -14.504,34.047" /><path
         id="path30"
         style="fill:#231f20;fill-opacity:1;fill-rule:evenodd;stroke:none"
         d="m 725.82,990.891 -31.527,0 0,-71.883 -22.07,0 0,71.883 -32.157,0 0,15.759 85.754,0 0,-15.759" /><path
         id="path32"
         style="fill:#231f20;fill-opacity:1;fill-rule:evenodd;stroke:none"
         d="m 741.586,919.008 22.0664,0 0,87.6445 -22.0664,0 0,-87.6445 z" /><path
         id="path34"
         style="fill:#231f20;fill-opacity:1;fill-rule:evenodd;stroke:none"
         d="m 828.602,917.746 c -32.157,0 -50.446,22.699 -50.446,45.399 0,20.808 17.028,44.765 50.446,44.765 32.789,0 49.816,-23.957 49.816,-44.765 0,-22.7 -18.289,-45.399 -49.816,-45.399 l 0,0 z m 0,71.883 c -17.028,0 -27.747,-10.719 -27.747,-26.484 0,-16.395 10.719,-27.114 27.747,-27.114 16.394,0 27.742,10.719 27.742,27.114 0,15.765 -11.348,26.484 -27.742,26.484" /><path
         id="path36"
         style="fill:#231f20;fill-opacity:1;fill-rule:evenodd;stroke:none"
         d="m 979.938,919.008 -18.918,0 -48.555,56.117 0,-56.117 -22.07,0 0,87.642 20.179,0 47.293,-53.595 0,53.595 22.071,0 0,-87.642" /><path
         id="path38"
         style="fill:#231f20;fill-opacity:1;fill-rule:evenodd;stroke:none"
         d="m 1091.54,919.008 -23.96,0 -6.93,17.652 -39.73,0 -6.3,-17.652 -23.335,0 35.315,87.642 25.85,0 39.09,-87.642 0,0 z m -51.7,66.836 -13.24,-34.047 27.11,0 -13.87,34.047" /><path
         id="path40"
         style="fill:#231f20;fill-opacity:1;fill-rule:evenodd;stroke:none"
         d="m 1169.73,919.008 -67.47,0 0,87.642 22.07,0 0,-71.88 45.4,0 0,-15.762" /><path
         id="path42"
         style="fill:#231f20;fill-opacity:1;fill-rule:evenodd;stroke:none"
         d="m 1527.26,1006.65 c 20.18,0 29.01,-13.869 29.01,-25.849 0,-12.61 -8.83,-26.485 -29.01,-26.485 l -17.65,0 0,-35.308 -22.07,0 0,87.642 39.72,0 0,0 z m -17.65,-35.939 10.08,0 c 10.09,0 13.88,3.156 13.88,10.09 0,7.566 -4.42,10.09 -15.77,10.09 l -8.19,0 0,-20.18" /><path
         id="path44"
         style="fill:#231f20;fill-opacity:1;fill-rule:evenodd;stroke:none"
         d="m 1651.48,919.008 -23.33,0 -7.57,17.652 -39.09,0 -6.94,-17.652 -23.33,0 35.94,87.642 25.23,0 39.09,-87.642 0,0 z m -51.71,66.836 -12.61,-34.047 27.12,0 -14.51,34.047" /><path
         id="path46"
         style="fill:#231f20;fill-opacity:1;fill-rule:evenodd;stroke:none"
         d="m 1698.14,1006.65 c 20.18,0 29,-13.869 29,-25.849 0,-12.61 -8.19,-26.485 -29,-26.485 l -17.02,0 0,-35.308 -22.07,0 0,87.642 39.09,0 0,0 z m -17.02,-35.939 10.09,0 c 10.08,0 13.87,3.156 13.87,10.09 0,7.566 -4.42,10.09 -16.4,10.09 l -7.56,0 0,-20.18" /><path
         id="path48"
         style="fill:#231f20;fill-opacity:1;fill-rule:evenodd;stroke:none"
         d="m 1806.6,919.008 -64.95,0 0,87.642 64.31,0 0,-15.759 -42.24,0 0,-18.286 40.35,0 0,-16.398 -40.35,0 0,-21.437 42.88,0 0,-15.762" /><path
         id="path50"
         style="fill:#231f20;fill-opacity:1;fill-rule:evenodd;stroke:none"
         d="m 1863.98,1006.65 c 17.65,0 28.37,-11.978 28.37,-25.22 0,-9.457 -5.04,-16.395 -15.13,-21.438 9.46,-4.414 11.98,-15.133 24.59,-40.984 l -24.59,0 c -8.83,18.914 -12.61,35.937 -24.59,35.937 l -6.31,0 0,-35.937 -22.07,0 0,87.642 39.73,0 0,0 z m -17.66,-35.939 11.98,0 c 5.68,0 11.99,2.523 11.99,10.09 0,6.933 -4.42,10.09 -12.62,10.09 l -11.35,0 0,-20.18" /><path
         id="path52"
         style="fill:#231f20;fill-opacity:1;fill-rule:evenodd;stroke:none"
         d="m 1234.68,919.008 27.75,0 74.4,128.002 -13.87,23.96 -88.28,-151.962" /><path
         id="path54"
         style="fill:#231f20;fill-opacity:1;fill-rule:evenodd;stroke:none"
         d="m 1322.96,1098.71 c -71.25,0 -129.26,-58.01 -129.26,-129.261 0,-71.25 58.01,-129.261 129.26,-129.261 71.88,0 129.26,58.011 129.26,129.261 0,71.251 -57.38,129.261 -129.26,129.261 l 0,0 z m 11.98,-235.823 0,139.983 34.05,-58.64 -29.01,0 0,-25.222 71.25,0 -70.62,122.322 -29.63,-51.701 0,-126.109 c -53.6,5.675 -94.59,51.074 -94.59,105.929 0,59.271 47.93,106.571 106.57,106.571 59.27,0 107.2,-47.3 107.2,-106.571 0,-54.855 -41.62,-100.254 -95.22,-106.562" /></g></g></svg>