<?xml version="1.0" encoding="UTF-8"?>
<svg id="logo" width="256" height="44.52" version="1.1" viewBox="0 0 256 44.52" xml:space="preserve" xmlns="http://www.w3.org/2000/svg" xmlns:cc="http://creativecommons.org/ns#" xmlns:dc="http://purl.org/dc/elements/1.1/" xmlns:rdf="http://www.w3.org/1999/02/22-rdf-syntax-ns#"><metadata><rdf:RDF><cc:Work rdf:about=""><dc:format>image/svg+xml</dc:format><dc:type rdf:resource="http://purl.org/dc/dcmitype/StillImage"/><dc:title/></cc:Work></rdf:RDF></metadata><style type="text/css">
	.st0{fill:#00A1DF;}
	.st1{fill:#005487;}
	.st2{fill:#7FA9C3;}
</style><g transform="matrix(.60735 0 0 .60735 -41.118 -49.105)"><path class="st0" d="m244.4 80.9c-18.6 1-33 16.9-32 35.6 1 18.6 16.9 33 35.6 32 2.7-0.1 5.3-0.6 7.8-1.3l2.5 4.8c1 2 3.4 2.7 5.4 1.7s2.7-3.4 1.7-5.4l-2.3-4.3c10.6-6.2 17.5-18 16.8-31.1-0.8-18.6-16.8-33-35.5-32zm15.1 56-2.9-5.5c-1-2-3.4-2.7-5.4-1.7s-2.7 3.4-1.7 5.4l2.5 4.8c-1.4 0.3-2.9 0.5-4.4 0.6-14.2 0.7-26.4-10.2-27.2-24.5-0.7-14.2 10.2-26.4 24.5-27.2 14.2-0.7 26.4 10.2 27.2 24.5 0.5 9.9-4.7 18.8-12.6 23.6z" fill="#00a1df"/><path class="st0" d="m192.4 148.4c-2.2 0-4-1.8-4-4v-59.4c0-2.2 1.8-4 4-4s4 1.8 4 4v59.4c0 2.2-1.8 4-4 4z" fill="#00a1df"/><path class="st1" d="m382.4 148.4c-2.2 0-4-1.8-4-4v-59.4c0-2.2 1.8-4 4-4s4 1.8 4 4v59.4c0 2.2-1.8 4-4 4z" fill="#005487"/><path class="st1" d="m325.4 148.4c-1.5 0-2.9-0.8-3.5-2.1l-31.1-59.4c-1-2-0.3-4.4 1.7-5.4s4.4-0.3 5.4 1.7l27.6 52.7 28.1-52.7c1-1.9 3.5-2.7 5.4-1.6 1.9 1 2.7 3.5 1.6 5.4l-31.7 59.4c-0.7 1.2-2.1 2-3.5 2z" fill="#005487"/><g fill="#005487"><path class="st1" d="m452.2 134.9h-19.2c-2.2 0-4-1.8-4-4s1.8-4 4-4h19.3c2.2 0 4 1.8 4 4s-1.8 4-4.1 4z"/><path class="st1" d="m473.9 148.4c-1.4 0-2.8-0.8-3.5-2.1l-27.6-52.7-28.1 52.7c-1 1.9-3.5 2.7-5.4 1.6-1.9-1-2.7-3.5-1.6-5.4l31.7-59.4c0.7-1.3 2.1-2.2 3.5-2.1 1.5 0 2.8 0.8 3.5 2.1l31.1 59.4c1 2 0.3 4.4-1.7 5.4-0.6 0.3-1.3 0.5-1.9 0.5z"/></g><g fill="#005487"><path class="st1" d="m474.5 90.9h-1.4v-8.6h-3.1v-1.3h7.7v1.2h-3.2z"/><path class="st1" d="m484.2 88.6 2.9-7.6h2.1v9.8h-1.4v-8.2l-3.3 8.2h-0.9l-3.3-8.2v8.2h-1.3v-9.8h2.1z"/></g><g fill="#005487"><path class="st1" d="m165.2 137.3h-19.6c-1.4 2.5-3 4.8-4.7 6.8h24.4c1.9 0 3.4-1.5 3.4-3.4-0.1-1.9-1.6-3.4-3.5-3.4z"/><path class="st1" d="m165.2 124.3h-15c-0.5 2.4-1.1 4.6-1.9 6.8h16.8c1.9 0 3.4-1.5 3.4-3.4s-1.4-3.4-3.3-3.4z"/><path class="st1" d="m165.2 111.3h-14.1c0.1 1.1 0.1 2.1 0.1 3.2 0 1.2 0 2.4-0.1 3.6h14.1c1.9 0 3.4-1.5 3.4-3.4s-1.5-3.4-3.4-3.4z"/><path class="st1" d="m165.2 98.3h-16.7c0.8 2.2 1.4 4.5 1.8 6.8h14.9c1.9 0 3.4-1.5 3.4-3.4 0-1.8-1.5-3.4-3.4-3.4z"/><path class="st1" d="m165.2 85.3h-24c1.7 2 3.3 4.3 4.6 6.8h19.4c1.9 0 3.4-1.5 3.4-3.4s-1.5-3.4-3.4-3.4z"/></g><path class="st0" d="m100.3 140.7c0-1.9 1.5-3.4 3.4-3.4h-13.4c-1.9 0-3.4 1.5-3.4 3.4s1.5 3.4 3.4 3.4h13.4c-1.8 0-3.4-1.6-3.4-3.4z" fill="#00a1df"/><path class="st2" d="m145.6 137.3h-41.9c-1.9 0-3.4 1.5-3.4 3.4s1.5 3.4 3.4 3.4h37.1c1.8-2.1 3.4-4.3 4.8-6.8z" fill="#7fa9c3"/><path class="st0" d="m90.8 128.4c-0.5-2.2 1.2-4.1 3.3-4.1h-13.4c-1.9 0-3.4 1.5-3.4 3.4s1.5 3.4 3.4 3.4h13.5c-1.6 0-3.1-1.1-3.4-2.7z" fill="#00a1df"/><path class="st2" d="m150.3 124.3h-56.2c-2.1 0-3.8 1.9-3.3 4.1 0.3 1.6 1.8 2.7 3.4 2.7h54.1c0.9-2.2 1.5-4.5 2-6.8z" fill="#7fa9c3"/><path class="st0" d="m81.2 115.4c-0.5-2.2 1.2-4.1 3.3-4.1h-13.4c-1.9 0-3.4 1.5-3.4 3.4s1.5 3.4 3.4 3.4h13.5c-1.6 0-3-1.1-3.4-2.7z" fill="#00a1df"/><path class="st2" d="m81.2 115.4c0.3 1.6 1.8 2.7 3.4 2.7h66.4c0.1-1.2 0.1-2.4 0.1-3.6 0-1.1 0-2.2-0.1-3.2h-66.4c-2.1 0-3.8 1.9-3.4 4.1z" fill="#7fa9c3"/><path class="st0" d="m85.9 101.7c0-1.9 1.5-3.4 3.4-3.4h-13.4c-1.9 0-3.4 1.5-3.4 3.4s1.5 3.4 3.4 3.4h13.4c-1.9 0-3.4-1.5-3.4-3.4z" fill="#00a1df"/><path class="st2" d="m148.5 98.3h-59.2c-1.9 0-3.4 1.5-3.4 3.4s1.5 3.4 3.4 3.4h61c-0.4-2.3-1-4.6-1.8-6.8z" fill="#7fa9c3"/><path class="st0" d="m110.6 89.5c-0.5-2.2 1.2-4.1 3.3-4.1h-13.4c-1.9 0-3.4 1.5-3.4 3.4s1.5 3.4 3.4 3.4h13.5c-1.5 0-3-1.1-3.4-2.7z" fill="#00a1df"/><path class="st2" d="m141.2 85.3h-27.2c-2.1 0-3.8 1.9-3.3 4.1 0.3 1.6 1.8 2.7 3.4 2.7h31.7c-1.3-2.4-2.9-4.7-4.6-6.8z" fill="#7fa9c3"/></g></svg>
