<?xml version="1.0" encoding="UTF-8" standalone="no"?>
<svg
     xmlns:dc="http://purl.org/dc/elements/1.1/"
     xmlns:cc="http://creativecommons.org/ns#"
     xmlns:rdf="http://www.w3.org/1999/02/22-rdf-syntax-ns#"
     xmlns:svg="http://www.w3.org/2000/svg"
     xmlns="http://www.w3.org/2000/svg"
     version="1.1"
     id="svg3336"
     width="500"
     height="116.02155"
     viewBox="0 0 500 116.02155">
    <metadata
         id="metadata3349">
        <rdf:RDF>
            <cc:Work
                 rdf:about="">
                <dc:format>image/svg+xml</dc:format>
                <dc:type
                     rdf:resource="http://purl.org/dc/dcmitype/StillImage" />
                <dc:title></dc:title>
            </cc:Work>
        </rdf:RDF>
    </metadata>
    <defs
         id="defs3338">
        <clipPath
             id="a">
            <path
                 id="path3341"
                 d="M 0,0 792,0 792,594 0,594 0,0 Z" />
        </clipPath>
    </defs>
    <g
         id="g3343"
         transform="matrix(2.2262716,0,0,-2.2262716,-893.46207,1083.4685)"
         clip-path="url(#a)">
        <path
             style="fill:#006699"
             id="path3345"
             d="m 624.0929,469.5066 -0.643,-7.716 -3.151,0 c -5.031,0 -7.646,-4.033 -7.646,-7.898 l 0,-17.427 -8.917,0 0,33.041 8.446,0 0.192,-4.124 c 1.772,2.828 4.873,4.124 8.697,4.124 l 3.022,0 z m -61.8203,-33.0407 -8.925,0 0,17.467 c 0,3.658 -0.316,8.262 -5.461,8.262 -4.955,0 -6.929,-3.576 -6.929,-7.74 l 0,-17.989 -8.922,0 0,33.041 8.272,0 0.189,-4.224 c 1.773,2.828 5.075,5.03 9.946,5.03 8.992,0 11.83,-6.42 11.83,-13.101 l 0,-20.746 z m -34.1286,7.7183 -0.624,-7.518 c -2.14,-0.574 -4.04,-0.78 -6.339,-0.78 -8.409,0 -10.848,3.856 -10.848,11.606 l 0,31.332 8.924,0 0,-9.318 8.88,0 -0.617,-7.715 -8.263,0 0,-13.628 c 0,-3.11 0.853,-4.79 4.043,-4.79 1.387,0 2.93,0.167 4.844,0.811 m -20.7412,25.3224 -0.691,-7.716 -2.425,0 c -5.021,0 -7.518,-4.028 -7.518,-7.898 l 0,-17.427 -8.925,0 0,33.041 8.45,0 0.176,-4.124 c 1.782,2.828 4.883,4.124 8.712,4.124 l 2.221,0 z m -59.8314,-29.3802 c -6.053,-3.238 -12.099,-5.106 -20.085,-4.874 -14.805,0.452 -25.486,9.645 -25.486,25.173 0,15.46 10.784,25.338 25.493,25.57 7.456,0.114 14.128,-1.778 19.343,-6.38 l -6.282,-6.355 c -3.227,2.751 -7.975,4.359 -13.649,4.102 -9.257,-0.431 -14.835,-7.158 -14.958,-16.407 -0.121,-10.021 6.024,-16.927 15.63,-17.179 4.52,-0.113 7.758,0.494 10.56,1.752 l 0,10.243 -9.984,0 0.674,8.401 18.744,0 0,-24.046 z m 152.1792,9.7198 -24.467,0 c 0.697,-4.222 4.016,-6.762 8.149,-6.877 4.018,-0.109 6.266,1.105 9.205,4.081 l 5.823,-4.44 c -4.138,-5.097 -9.104,-6.952 -14.761,-6.952 -9.95,0 -17.404,6.957 -17.404,17.329 0,10.361 7.417,17.326 17.032,17.326 10.597,0 16.423,-6.42 16.423,-17.816 l 0,-2.651 z m -8.94,6.908 c -0.274,4.174 -3.401,6.813 -7.708,6.645 -4.335,-0.164 -7.221,-2.987 -7.819,-6.645 l 15.527,0 z m -108.585,1.3478 0,-21.636 -7.868,0 -0.195,3.258 c -2.414,-2.99 -6.333,-4.066 -10.368,-4.066 -6.076,0 -11.817,2.996 -11.937,9.974 -0.181,10.968 12.344,11.747 20.21,11.747 l 1.572,0 0,0.434 c 0,3.627 -2.4,5.586 -6.919,5.586 -3.244,0 -6.446,-1.301 -8.814,-3.521 l -5.149,5.231 c 4.675,3.79 9.539,5.204 14.721,5.204 10.235,0 14.747,-4.73 14.747,-12.211 m -8.586,-7.227 -1.241,0 c -4.225,-0.009 -11.646,-0.217 -11.618,-4.635 0.04,-6.224 12.859,-4.246 12.859,3.26 l 0,1.375 z m 143.492,-10.5656 c 0,2.103 1.587,3.688 3.622,3.688 2.01,0 3.6,-1.585 3.6,-3.688 0,-2.14 -1.59,-3.72 -3.6,-3.72 -2.035,0 -3.622,1.58 -3.622,3.72 m 3.622,-4.459 c 2.423,0 4.49,1.882 4.49,4.459 0,2.551 -2.067,4.429 -4.49,4.429 -2.445,0 -4.514,-1.878 -4.514,-4.429 0,-2.577 2.069,-4.459 4.514,-4.459 m -0.941,4.103 0.895,0 1.349,-2.221 0.872,0 -1.457,2.257 c 0.753,0.092 1.328,0.496 1.328,1.413 0,1.01 -0.599,1.458 -1.811,1.458 l -1.95,0 0,-5.128 0.774,0 0,2.221 z m 0,0.661 0,1.585 1.057,0 c 0.542,0 1.118,-0.117 1.118,-0.752 0,-0.787 -0.588,-0.833 -1.244,-0.833 l -0.931,0 z" />
    </g>
</svg>
