<?xml version="1.0" encoding="utf-8"?>
<!-- Generator: Adobe Illustrator 14.0.0, SVG Export Plug-In . SVG Version: 6.00 Build 43363)  -->
<!DOCTYPE svg PUBLIC "-//W3C//DTD SVG 1.1//EN" "http://www.w3.org/Graphics/SVG/1.1/DTD/svg11.dtd">
<svg version="1.1" id="Layer_1" xmlns="http://www.w3.org/2000/svg" xmlns:xlink="http://www.w3.org/1999/xlink" x="0px" y="0px"
	 width="250px" height="115px" viewBox="0 0 250 115" enable-background="new 0 0 250 115" xml:space="preserve">
<g>
	<polygon fill-rule="evenodd" clip-rule="evenodd" fill="#08338F" points="45.514,109.789 44.718,109.774 43.969,109.729 
		43.232,109.64 42.5,109.519 41.779,109.385 41.088,109.19 40.401,108.979 39.74,108.741 39.11,108.484 38.508,108.185 
		37.909,107.854 37.324,107.51 36.785,107.103 36.259,106.715 35.765,106.295 35.271,105.814 34.821,105.334 34.384,104.825 
		33.979,104.3 33.606,103.743 33.245,103.176 32.929,102.574 32.629,101.961 32.373,101.331 32.121,100.67 31.923,99.994 
		31.73,99.288 31.581,98.568 31.476,97.851 31.4,97.099 31.338,96.348 31.324,95.556 31.338,94.791 31.386,94.07 31.443,93.319 
		31.562,92.599 31.7,91.896 31.85,91.22 32.028,90.545 32.253,89.884 32.496,89.254 32.762,88.638 33.064,88.041 33.378,87.454 
		33.739,86.897 34.115,86.344 34.502,85.85 34.94,85.339 35.389,84.875 35.855,84.439 36.35,84.005 36.861,83.615 37.429,83.254 
		37.985,82.923 38.568,82.623 39.186,82.338 39.816,82.084 40.475,81.875 41.149,81.694 41.855,81.514 42.574,81.409 43.325,81.318 
		44.074,81.259 44.854,81.247 45.348,81.259 45.845,81.275 46.354,81.333 46.879,81.395 47.388,81.471 47.916,81.561 48.424,81.665 
		48.935,81.784 49.46,81.92 49.969,82.069 50.48,82.22 50.975,82.386 51.47,82.55 51.933,82.729 52.399,82.923 52.848,83.104 
		51.184,87.245 50.419,86.932 49.656,86.629 48.859,86.344 48.065,86.12 47.659,86.016 47.254,85.939 46.833,85.85 46.43,85.788 
		46.011,85.73 45.604,85.697 45.201,85.669 44.78,85.669 44.271,85.669 43.805,85.717 43.341,85.788 42.89,85.864 42.455,85.969 
		42.051,86.12 41.661,86.271 41.254,86.448 40.893,86.646 40.548,86.855 40.22,87.093 39.887,87.35 39.573,87.618 39.291,87.903 
		39.02,88.22 38.749,88.52 38.508,88.864 38.285,89.209 38.076,89.57 37.881,89.943 37.7,90.319 37.534,90.711 37.384,91.13 
		37.249,91.534 37.144,91.954 37.022,92.373 36.951,92.824 36.875,93.26 36.828,93.709 36.785,94.161 36.771,94.61 36.756,95.073 
		36.771,95.613 36.785,96.155 36.844,96.709 36.904,97.204 36.979,97.729 37.084,98.224 37.203,98.706 37.355,99.17 37.505,99.649 
		37.671,100.085 37.881,100.52 38.076,100.94 38.299,101.331 38.568,101.718 38.825,102.094 39.11,102.424 39.409,102.771 
		39.74,103.085 40.082,103.385 40.443,103.67 40.819,103.924 41.211,104.181 41.616,104.404 42.051,104.585 42.5,104.764 
		42.966,104.916 43.446,105.049 43.955,105.168 44.48,105.258 45.02,105.319 45.59,105.349 46.159,105.365 46.52,105.349 
		46.879,105.349 47.24,105.319 47.568,105.272 47.93,105.215 48.274,105.168 48.622,105.11 48.98,105.021 49.309,104.944 
		49.656,104.825 49.984,104.735 50.329,104.616 50.989,104.359 51.633,104.058 52.924,107.961 52.489,108.185 52.038,108.365 
		51.619,108.561 51.17,108.725 50.69,108.891 50.255,109.04 49.774,109.176 49.309,109.309 48.845,109.413 48.379,109.504 
		47.884,109.594 47.421,109.656 46.955,109.713 46.458,109.746 45.995,109.789 	"/>
	<path fill-rule="evenodd" clip-rule="evenodd" fill="#08338F" d="M63.813,109.817h-0.568l-0.57-0.043l-0.54-0.062l-0.523-0.09
		l-0.528-0.119l-0.509-0.119l-0.48-0.181l-0.48-0.181l-0.449-0.209l-0.452-0.226l-0.433-0.238l-0.42-0.285l-0.39-0.285l-0.375-0.316
		l-0.345-0.313l-0.345-0.361l-0.316-0.345l-0.299-0.376l-0.299-0.404l-0.254-0.42l-0.257-0.419l-0.224-0.449l-0.195-0.466
		l-0.197-0.466l-0.162-0.492l-0.152-0.482l-0.119-0.509l-0.105-0.525l-0.076-0.542l-0.06-0.54l-0.031-0.537v-0.57v-0.559
		l0.031-0.568l0.06-0.537l0.076-0.528l0.105-0.525l0.119-0.494l0.152-0.509l0.162-0.497l0.197-0.464l0.195-0.451l0.224-0.449
		l0.257-0.419l0.254-0.421l0.299-0.39l0.299-0.375l0.316-0.376l0.345-0.328l0.345-0.345l0.375-0.3l0.39-0.302l0.42-0.254l0.433-0.24
		l0.452-0.224l0.449-0.212l0.48-0.194l0.48-0.167l0.509-0.133l0.528-0.104l0.523-0.091l0.54-0.076l0.57-0.045l0.568-0.015
		l0.587,0.015l0.57,0.045l0.54,0.076l0.54,0.091l0.508,0.104l0.495,0.133l0.511,0.152l0.466,0.195l0.464,0.192l0.435,0.226
		l0.435,0.271l0.406,0.254l0.39,0.285l0.375,0.316l0.359,0.313l0.347,0.345l0.314,0.376l0.313,0.376l0.286,0.39l0.254,0.404
		l0.24,0.435l0.226,0.449l0.209,0.452l0.195,0.478l0.164,0.48l0.152,0.494l0.104,0.512l0.119,0.525l0.076,0.542l0.06,0.537
		l0.031,0.568L74,99.246l-0.015,0.57l-0.031,0.554l-0.06,0.537l-0.076,0.528l-0.119,0.525l-0.104,0.522l-0.152,0.497l-0.164,0.48
		l-0.195,0.492l-0.209,0.451l-0.226,0.436l-0.24,0.433l-0.254,0.423l-0.286,0.388l-0.313,0.376l-0.314,0.361l-0.347,0.345
		l-0.359,0.313l-0.375,0.33l-0.39,0.271l-0.406,0.271l-0.435,0.255l-0.435,0.224l-0.464,0.211l-0.466,0.164l-0.511,0.181
		l-0.495,0.119l-0.508,0.119l-0.54,0.09l-0.54,0.062l-0.57,0.043H63.813z M63.813,92.884h-0.328l-0.316,0.031l-0.3,0.045
		l-0.285,0.074l-0.285,0.073l-0.254,0.091l-0.269,0.121l-0.226,0.121l-0.224,0.149L61.1,93.74l-0.195,0.178l-0.195,0.181
		l-0.166,0.195l-0.167,0.194l-0.147,0.21l-0.15,0.226l-0.135,0.24l-0.136,0.24l-0.104,0.257l-0.119,0.254l-0.09,0.271l-0.076,0.252
		l-0.076,0.271l-0.071,0.271l-0.107,0.567l-0.074,0.571l-0.048,0.587l-0.014,0.582l0.014,0.571l0.048,0.587l0.074,0.585l0.107,0.554
		l0.071,0.271l0.076,0.285l0.076,0.252l0.09,0.257l0.119,0.269l0.104,0.242l0.136,0.237l0.135,0.227l0.15,0.224l0.147,0.209
		l0.167,0.214l0.166,0.178l0.195,0.195l0.195,0.164l0.226,0.149l0.224,0.139l0.226,0.118l0.269,0.119l0.254,0.091l0.285,0.075
		l0.285,0.074l0.3,0.045l0.316,0.031h0.328h0.347l0.314-0.031l0.302-0.045l0.285-0.074l0.269-0.075l0.271-0.091l0.252-0.119
		l0.229-0.118l0.224-0.139l0.226-0.149l0.209-0.164l0.195-0.195l0.167-0.178l0.164-0.214l0.149-0.209l0.15-0.224l0.135-0.227
		l0.122-0.237l0.119-0.242l0.104-0.269l0.105-0.257l0.076-0.252l0.076-0.285l0.074-0.271l0.104-0.554l0.076-0.585l0.045-0.587
		l0.014-0.571l-0.014-0.582l-0.045-0.557l-0.076-0.587l-0.104-0.552l-0.074-0.287l-0.076-0.269l-0.076-0.269l-0.105-0.271
		l-0.104-0.24l-0.119-0.271l-0.122-0.24l-0.135-0.224l-0.15-0.226l-0.149-0.227l-0.164-0.194l-0.167-0.195l-0.195-0.181L66.53,93.74
		l-0.226-0.15l-0.224-0.149l-0.229-0.121L65.6,93.198l-0.271-0.091l-0.269-0.073l-0.285-0.074l-0.302-0.045l-0.314-0.031H63.813z"/>
	<polygon fill-rule="evenodd" clip-rule="evenodd" fill="#08338F" points="89.854,109.385 89.854,96.647 89.854,96.424 89.839,96.2 
		89.825,95.989 89.78,95.779 89.749,95.585 89.688,95.39 89.63,95.209 89.583,95.028 89.511,94.85 89.404,94.698 89.316,94.536 
		89.226,94.384 89.105,94.251 89,94.113 88.896,93.994 88.76,93.858 88.473,93.649 88.175,93.469 87.845,93.288 87.486,93.169 
		87.11,93.064 86.689,92.988 86.285,92.946 85.85,92.915 85.325,92.946 84.799,92.988 84.274,93.093 83.78,93.184 83.254,93.319 
		82.746,93.469 82.234,93.636 81.754,93.813 81.769,93.918 81.799,94.146 81.83,94.413 81.83,94.669 81.845,109.385 76.983,109.385 
		76.983,93.545 76.969,93.127 76.926,92.675 76.895,92.211 76.835,91.745 76.745,90.994 76.683,90.694 77.765,90.319 78.89,89.943 
		79.474,89.779 80.045,89.615 80.63,89.435 81.229,89.285 81.816,89.166 82.415,89.045 82.983,88.938 83.584,88.833 84.169,88.76 
		84.757,88.714 85.325,88.669 85.896,88.654 86.361,88.669 86.811,88.686 87.26,88.714 87.695,88.743 88.116,88.79 88.548,88.864 
		88.969,88.909 89.359,89.014 89.749,89.104 90.125,89.209 90.498,89.33 90.859,89.479 91.204,89.63 91.52,89.796 91.851,89.991 
		92.165,90.172 92.45,90.395 92.718,90.621 92.989,90.873 93.229,91.144 93.456,91.429 93.681,91.729 93.859,92.06 94.038,92.406 
		94.204,92.748 94.34,93.139 94.444,93.545 94.535,93.966 94.639,94.413 94.685,94.879 94.715,95.375 94.729,95.884 94.729,109.385 
			"/>
	<polygon fill-rule="evenodd" clip-rule="evenodd" fill="#08338F" points="105.965,110.105 105.604,110.105 105.275,110.091 
		104.945,110.074 104.631,110.029 104.315,109.97 104.016,109.925 103.716,109.865 103.417,109.789 103.131,109.699 
		102.875,109.594 102.605,109.489 102.363,109.356 102.125,109.232 101.885,109.1 101.66,108.936 101.448,108.755 101.239,108.589 
		101.061,108.408 100.894,108.199 100.713,107.989 100.552,107.764 100.414,107.526 100.295,107.283 100.176,107.015 
		100.069,106.744 99.964,106.459 99.891,106.159 99.814,105.845 99.784,105.515 99.741,105.187 99.724,104.84 99.71,104.48 
		99.71,93.273 97.399,93.169 97.399,89.313 99.71,89.194 99.71,83.553 104.569,83.553 104.569,89.104 110.253,89.104 
		110.253,93.336 104.569,93.336 104.569,104.119 104.569,104.343 104.617,104.555 104.646,104.735 104.688,104.916 104.764,105.063 
		104.84,105.215 104.945,105.334 105.049,105.438 105.171,105.56 105.304,105.636 105.47,105.71 105.651,105.77 105.815,105.8 
		106.01,105.845 106.219,105.859 106.445,105.859 106.909,105.845 107.36,105.783 107.838,105.71 108.275,105.591 108.725,105.486 
		109.158,105.334 109.612,105.201 110.044,105.034 111.395,108.979 110.719,109.204 110.059,109.413 109.386,109.594 
		108.71,109.774 108.033,109.925 107.36,110.015 107.016,110.044 106.657,110.091 106.31,110.105 	"/>
	<polygon fill-rule="evenodd" clip-rule="evenodd" fill="#08338F" points="124.76,93.288 124.491,93.215 124.192,93.139 
		123.859,93.064 123.514,93.02 123.139,92.96 122.796,92.915 122.435,92.884 122.076,92.884 121.624,92.884 121.175,92.898 
		120.709,92.946 120.245,93.02 119.793,93.093 119.33,93.169 118.878,93.273 118.432,93.409 118.46,93.56 118.488,93.813 
		118.488,109.385 113.615,109.385 113.615,93.935 113.601,93.514 113.556,93.034 113.508,92.525 113.437,92.045 113.361,91.596 
		113.299,91.234 113.256,90.994 113.242,90.906 114.352,90.454 115.477,90.033 116.044,89.839 116.615,89.658 117.2,89.479 
		117.771,89.33 118.355,89.18 118.94,89.045 119.508,88.938 120.11,88.833 120.709,88.76 121.294,88.714 121.895,88.669 
		122.494,88.654 122.977,88.669 123.438,88.686 123.935,88.729 124.415,88.79 124.896,88.833 125.359,88.909 125.811,89.014 
		126.217,89.104 	"/>
	<path fill-rule="evenodd" clip-rule="evenodd" fill="#08338F" d="M136.176,109.817h-0.585l-0.556-0.043l-0.543-0.062l-0.537-0.09
		l-0.527-0.119l-0.494-0.119l-0.509-0.181l-0.467-0.181l-0.446-0.209l-0.452-0.226l-0.423-0.238l-0.419-0.285l-0.39-0.285
		l-0.371-0.316l-0.361-0.313l-0.332-0.361l-0.314-0.345l-0.299-0.376l-0.286-0.404l-0.285-0.42l-0.237-0.419l-0.229-0.449
		l-0.209-0.466l-0.181-0.466l-0.166-0.492l-0.134-0.482l-0.133-0.509l-0.093-0.525l-0.074-0.542l-0.059-0.54l-0.029-0.537
		l-0.033-0.57l0.033-0.559l0.029-0.568l0.059-0.537l0.074-0.528l0.093-0.525l0.133-0.494l0.134-0.509l0.166-0.497l0.181-0.464
		l0.209-0.451l0.229-0.449l0.237-0.419l0.285-0.421l0.286-0.39l0.299-0.375l0.314-0.376l0.332-0.328l0.361-0.345l0.371-0.3
		l0.39-0.302l0.419-0.254l0.423-0.24l0.452-0.224l0.446-0.212l0.467-0.194l0.509-0.167l0.494-0.133l0.527-0.104l0.537-0.091
		l0.543-0.076l0.556-0.045l0.585-0.015l0.565,0.015l0.557,0.045l0.557,0.076l0.527,0.091l0.523,0.104l0.509,0.133l0.479,0.152
		l0.495,0.195l0.451,0.192l0.447,0.226l0.409,0.271l0.418,0.254l0.39,0.285l0.376,0.316l0.376,0.313l0.328,0.345l0.332,0.376
		l0.3,0.376l0.285,0.39l0.271,0.404l0.237,0.435l0.224,0.449l0.209,0.452l0.181,0.478l0.181,0.48l0.119,0.494l0.138,0.512
		l0.091,0.525l0.104,0.542l0.043,0.537l0.033,0.568l0.014,0.559l-0.014,0.57l-0.033,0.554l-0.043,0.537l-0.104,0.528l-0.091,0.525
		l-0.138,0.522l-0.119,0.497l-0.181,0.48l-0.181,0.492l-0.209,0.451l-0.224,0.436l-0.237,0.433l-0.285,0.423l-0.271,0.388
		l-0.3,0.376l-0.332,0.361l-0.328,0.345l-0.376,0.313l-0.376,0.33l-0.39,0.271l-0.418,0.271l-0.409,0.255l-0.447,0.224l-0.451,0.211
		l-0.495,0.164l-0.479,0.181l-0.509,0.119l-0.523,0.119l-0.527,0.09l-0.557,0.062l-0.557,0.043H136.176z M136.176,92.884h-0.333
		l-0.328,0.031l-0.299,0.045l-0.3,0.074l-0.257,0.073l-0.285,0.091l-0.238,0.121l-0.242,0.121l-0.224,0.149l-0.209,0.15
		l-0.214,0.178l-0.176,0.181l-0.167,0.195l-0.181,0.194l-0.166,0.21l-0.133,0.226l-0.152,0.24l-0.104,0.24l-0.104,0.257
		l-0.119,0.237l-0.091,0.288l-0.09,0.252l-0.071,0.271l-0.063,0.271l-0.118,0.567l-0.076,0.571l-0.033,0.587l-0.015,0.582
		l0.015,0.571l0.033,0.587l0.076,0.585l0.118,0.554l0.063,0.271l0.071,0.285l0.09,0.252l0.091,0.257l0.119,0.269l0.104,0.242
		l0.104,0.237l0.152,0.227l0.133,0.224l0.166,0.209l0.181,0.214l0.167,0.178l0.176,0.195l0.214,0.164l0.209,0.149l0.224,0.139
		l0.242,0.118l0.238,0.119l0.285,0.091l0.257,0.075l0.3,0.074l0.299,0.045l0.328,0.031h0.333h0.313l0.328-0.031l0.285-0.045
		l0.3-0.074l0.285-0.075l0.271-0.091l0.242-0.119l0.238-0.118l0.223-0.139l0.21-0.149l0.209-0.164l0.186-0.195l0.176-0.178
		l0.181-0.214l0.152-0.209l0.147-0.224l0.123-0.227l0.134-0.237l0.118-0.242l0.091-0.269l0.09-0.257l0.091-0.252l0.076-0.271
		l0.076-0.285l0.104-0.554l0.071-0.585l0.047-0.587v-0.571v-0.567l-0.047-0.571l-0.071-0.587l-0.104-0.552l-0.076-0.287
		l-0.076-0.269l-0.091-0.269l-0.09-0.271l-0.091-0.24l-0.118-0.271l-0.134-0.24l-0.123-0.224l-0.147-0.226l-0.152-0.227
		l-0.181-0.194l-0.176-0.195l-0.186-0.181l-0.209-0.178l-0.21-0.15l-0.223-0.149l-0.238-0.121l-0.242-0.121l-0.271-0.091
		l-0.285-0.073l-0.3-0.074l-0.285-0.045l-0.328-0.031H136.176z"/>
	<polygon fill-rule="evenodd" clip-rule="evenodd" fill="#08338F" points="154.158,79.626 149.313,79.626 149.313,100.503 
		149.313,109.385 154.158,109.385 	"/>
	<polygon fill-rule="evenodd" clip-rule="evenodd" fill="#08338F" points="163.624,109.817 163.173,109.817 162.74,109.806 
		162.303,109.774 161.884,109.729 161.451,109.67 161.014,109.594 160.596,109.519 160.158,109.447 159.321,109.252 
		158.494,109.023 157.7,108.783 156.935,108.501 158.342,104.676 158.884,104.901 159.488,105.125 160.102,105.334 160.743,105.515 
		161.375,105.664 161.988,105.783 162.303,105.845 162.603,105.859 162.901,105.874 163.206,105.888 163.491,105.888 
		163.776,105.874 164.048,105.845 164.313,105.8 164.599,105.724 164.837,105.65 165.079,105.56 165.303,105.438 165.517,105.319 
		165.726,105.139 165.859,104.973 166.011,104.764 166.13,104.523 166.221,104.271 166.282,103.986 166.297,103.67 166.263,103.356 
		166.191,103.057 166.073,102.771 165.906,102.5 165.692,102.26 165.469,102.065 165.212,101.856 164.913,101.645 164.57,101.466 
		164.237,101.285 163.867,101.104 163.491,100.94 162.678,100.594 161.855,100.221 161.451,100.04 161.043,99.83 160.639,99.604 
		160.248,99.379 159.858,99.124 159.497,98.854 159.141,98.554 158.822,98.24 158.522,97.881 158.271,97.506 158.028,97.099 
		157.819,96.666 157.672,96.187 157.533,95.661 157.477,95.104 157.443,94.518 157.462,94.113 157.505,93.74 157.553,93.393 
		157.624,93.051 157.743,92.734 157.848,92.421 158,92.121 158.181,91.833 158.342,91.548 158.551,91.296 158.751,91.054 
		158.975,90.83 159.217,90.604 159.469,90.395 159.726,90.2 160.011,90.02 160.296,89.853 160.563,89.691 160.866,89.554 
		161.166,89.403 161.48,89.285 161.779,89.18 162.107,89.09 162.426,88.985 162.74,88.909 163.082,88.833 163.4,88.79 
		163.715,88.743 164.028,88.714 164.328,88.686 164.642,88.669 164.941,88.654 165.364,88.669 165.755,88.686 166.145,88.714 
		166.563,88.743 166.952,88.805 167.328,88.864 167.718,88.938 168.094,88.985 168.47,89.09 168.831,89.18 169.173,89.271 
		169.534,89.39 169.848,89.494 170.195,89.63 170.495,89.734 170.794,89.884 169.43,93.649 168.902,93.483 168.351,93.288 
		167.794,93.139 167.209,93.02 166.61,92.884 166.054,92.811 165.498,92.734 164.941,92.72 164.718,92.72 164.494,92.734 
		164.257,92.748 164.048,92.794 163.819,92.841 163.624,92.898 163.43,92.988 163.249,93.093 163.082,93.198 162.901,93.336 
		162.783,93.483 162.664,93.649 162.573,93.845 162.497,94.042 162.455,94.294 162.44,94.551 162.455,94.85 162.56,95.133 
		162.664,95.39 162.83,95.613 163.039,95.839 163.311,96.034 163.581,96.215 163.881,96.381 164.224,96.557 164.57,96.724 
		164.975,96.876 165.364,97.023 166.206,97.339 167.058,97.67 167.494,97.864 167.932,98.045 168.336,98.269 168.755,98.497 
		169.159,98.763 169.534,99.049 169.896,99.364 170.224,99.692 170.557,100.054 170.823,100.458 171.065,100.894 171.274,101.39 
		171.441,101.913 171.574,102.47 171.65,103.085 171.693,103.743 171.664,104.15 171.631,104.555 171.574,104.944 171.483,105.291 
		171.365,105.65 171.261,105.964 171.108,106.295 170.946,106.594 170.752,106.894 170.557,107.15 170.348,107.404 170.104,107.659 
		169.848,107.885 169.596,108.08 169.306,108.289 169.025,108.484 168.726,108.65 168.427,108.814 168.112,108.964 167.794,109.1 
		167.466,109.204 167.119,109.323 166.791,109.428 166.43,109.504 166.073,109.58 165.74,109.656 165.379,109.713 165.018,109.746 
		164.675,109.789 164.313,109.806 163.957,109.817 	"/>
	<polygon fill-rule="evenodd" clip-rule="evenodd" fill="#08338F" points="10.309,75.439 9.857,75.589 9.365,75.739 8.823,75.905 
		8.254,76.066 7.655,76.233 7.085,76.386 6.483,76.533 5.898,76.685 5,72.304 5.388,72.259 5.78,72.185 6.184,72.078 6.574,72.004 
		6.964,71.916 7.339,71.812 7.698,71.704 8.029,71.598 8.269,71.51 8.523,71.389 8.751,71.298 8.975,71.179 9.153,71.061 
		9.348,70.925 9.529,70.789 9.679,70.653 9.828,70.521 9.98,70.368 10.114,70.219 10.218,70.04 10.339,69.874 10.43,69.695 
		10.52,69.501 10.594,69.32 10.744,68.913 10.834,68.495 10.938,68.029 10.986,67.547 11.029,67.023 11.058,66.484 11.058,65.93 
		11.091,65.331 11.091,44.66 16.114,44.66 16.114,64.534 16.1,65.555 16.069,66.498 16.009,67.428 15.919,68.3 15.843,68.732 
		15.786,69.125 15.693,69.544 15.588,69.919 15.484,70.309 15.365,70.653 15.246,71.015 15.094,71.374 14.914,71.704 14.75,72.035 
		14.555,72.349 14.345,72.65 14.117,72.936 13.879,73.202 13.608,73.49 13.325,73.744 13.026,73.999 12.709,74.238 12.379,74.465 
		12.006,74.676 11.63,74.871 11.209,75.08 10.791,75.275 	"/>
	<path fill-rule="evenodd" clip-rule="evenodd" fill="#08338F" d="M29.313,72.589h-0.568l-0.57-0.028l-0.54-0.076l-0.542-0.104
		l-0.509-0.104l-0.511-0.136l-0.495-0.167L25.1,71.812l-0.452-0.214l-0.435-0.238l-0.433-0.254l-0.421-0.257l-0.39-0.3l-0.375-0.299
		l-0.361-0.331l-0.331-0.345l-0.314-0.358l-0.316-0.393l-0.283-0.39l-0.273-0.404l-0.238-0.436l-0.223-0.435l-0.212-0.466
		l-0.181-0.466l-0.164-0.492l-0.15-0.48l-0.119-0.525l-0.104-0.523l-0.076-0.527l-0.062-0.54L19.159,62.6v-0.571v-0.554l0.029-0.57
		l0.062-0.54l0.076-0.527l0.104-0.523l0.119-0.511l0.15-0.495l0.164-0.492l0.181-0.466l0.212-0.466l0.223-0.435l0.238-0.435
		l0.273-0.404l0.283-0.39l0.316-0.392l0.314-0.359l0.331-0.359l0.361-0.316l0.375-0.314l0.39-0.285l0.421-0.257l0.433-0.269
		l0.435-0.224l0.452-0.211l0.478-0.181l0.495-0.15l0.511-0.15l0.509-0.119l0.542-0.09l0.54-0.062l0.57-0.028l0.568-0.014l0.57,0.014
		l0.554,0.028l0.573,0.062l0.509,0.09l0.525,0.119l0.509,0.15l0.495,0.15l0.482,0.181l0.449,0.211l0.449,0.224l0.435,0.24
		l0.407,0.271l0.39,0.3l0.374,0.299l0.361,0.331l0.328,0.342l0.333,0.347l0.314,0.404l0.283,0.392L37.909,56l0.24,0.435l0.226,0.433
		l0.209,0.466l0.178,0.464l0.181,0.497l0.152,0.494L39.2,59.3l0.119,0.522l0.076,0.542l0.045,0.54l0.045,0.54l0.014,0.584
		L39.485,62.6l-0.045,0.539l-0.045,0.555l-0.076,0.527L39.2,64.744l-0.104,0.511l-0.152,0.494l-0.181,0.497l-0.178,0.464
		l-0.209,0.466l-0.226,0.433l-0.24,0.435l-0.257,0.404L37.37,68.84l-0.314,0.404l-0.333,0.347l-0.328,0.343l-0.361,0.33l-0.374,0.3
		l-0.39,0.285l-0.407,0.285l-0.435,0.24l-0.449,0.224l-0.449,0.214l-0.482,0.179l-0.495,0.149l-0.509,0.136l-0.525,0.104
		l-0.509,0.104l-0.573,0.076l-0.554,0.028H29.313z M29.313,55.667h-0.328L28.668,55.7l-0.299,0.043l-0.285,0.076l-0.286,0.076
		l-0.254,0.088l-0.271,0.107l-0.223,0.135l-0.226,0.147l-0.226,0.152l-0.179,0.162l-0.209,0.181l-0.167,0.197l-0.167,0.209
		l-0.147,0.209l-0.152,0.228l-0.136,0.224l-0.133,0.238l-0.104,0.257l-0.119,0.254l-0.09,0.257l-0.076,0.283l-0.076,0.254
		l-0.076,0.288l-0.119,0.568l-0.074,0.57l-0.031,0.585l-0.014,0.587l0.014,0.568l0.031,0.585l0.074,0.554l0.119,0.57l0.076,0.285
		l0.076,0.27l0.076,0.271l0.09,0.257l0.119,0.254l0.104,0.24l0.133,0.24l0.136,0.224l0.152,0.226l0.147,0.227l0.167,0.178
		l0.167,0.209l0.209,0.167l0.179,0.181l0.226,0.149l0.226,0.149l0.223,0.119l0.271,0.107l0.254,0.104l0.286,0.073l0.285,0.06
		l0.299,0.048l0.316,0.028l0.328,0.015l0.316-0.015l0.331-0.028l0.316-0.048l0.285-0.06l0.269-0.073l0.271-0.104l0.238-0.107
		l0.243-0.119l0.223-0.149l0.224-0.149l0.197-0.181l0.195-0.167l0.181-0.209l0.162-0.178l0.152-0.227l0.15-0.226L33.2,66.17
		l0.121-0.24l0.119-0.24l0.104-0.254l0.104-0.257l0.076-0.271l0.074-0.27l0.06-0.285l0.121-0.57l0.074-0.554l0.031-0.585
		l0.031-0.568l-0.031-0.587l-0.031-0.57l-0.074-0.568l-0.121-0.57l-0.06-0.271l-0.074-0.269l-0.076-0.285l-0.104-0.257L33.44,58.46
		l-0.119-0.271l-0.121-0.24l-0.135-0.223l-0.15-0.229l-0.152-0.224l-0.162-0.209l-0.181-0.181l-0.195-0.197l-0.197-0.162
		l-0.224-0.152l-0.223-0.147l-0.243-0.135l-0.238-0.107l-0.271-0.088l-0.269-0.076l-0.285-0.076L29.959,55.7l-0.331-0.033H29.313z"
		/>
	<polygon fill-rule="evenodd" clip-rule="evenodd" fill="#08338F" points="55.58,72.14 55.58,59.328 55.563,58.94 55.521,58.551 
		55.458,58.173 55.34,57.816 55.204,57.498 55.04,57.198 54.859,56.915 54.65,56.658 54.41,56.435 54.153,56.226 53.882,56.06 
		53.583,55.924 53.255,55.819 52.924,55.729 52.563,55.667 52.19,55.667 51.89,55.667 51.591,55.686 51.274,55.729 50.975,55.771 
		50.675,55.833 50.362,55.91 50.06,56 49.76,56.09 49.159,56.313 48.574,56.583 48.034,56.868 47.511,57.139 47.511,72.14 
		42.664,72.14 42.649,42.392 47.511,42.392 47.511,52.788 48.229,52.489 48.95,52.218 49.684,51.994 50.433,51.813 50.823,51.709 
		51.198,51.664 51.591,51.59 51.966,51.531 52.371,51.483 52.744,51.469 53.134,51.455 53.523,51.44 53.93,51.455 54.349,51.469 
		54.741,51.514 55.13,51.559 55.49,51.635 55.849,51.709 56.179,51.813 56.526,51.918 56.84,52.054 57.139,52.203 57.441,52.355 
		57.724,52.517 57.979,52.714 58.219,52.909 58.461,53.119 58.685,53.342 58.894,53.57 59.105,53.822 59.272,54.096 59.462,54.381 
		59.614,54.647 59.764,54.949 59.885,55.28 60.004,55.596 60.094,55.924 60.185,56.283 60.258,56.644 60.334,57.02 60.377,57.41 
		60.411,57.797 60.425,58.189 60.454,58.624 60.454,72.14 	"/>
	<polygon fill-rule="evenodd" clip-rule="evenodd" fill="#08338F" points="77.465,72.14 77.465,59.433 77.449,58.983 77.39,58.551 
		77.361,58.37 77.299,58.159 77.24,57.992 77.18,57.797 77.104,57.636 77.014,57.469 76.926,57.319 76.835,57.169 76.717,57.02 
		76.61,56.884 76.488,56.749 76.37,56.644 76.236,56.525 76.084,56.418 75.935,56.313 75.782,56.226 75.44,56.06 75.095,55.924 
		74.72,55.833 74.33,55.757 73.909,55.7 73.458,55.686 72.934,55.7 72.409,55.757 71.915,55.848 71.389,55.969 70.88,56.09 
		70.355,56.24 69.86,56.418 69.364,56.583 69.38,56.673 69.425,56.901 69.439,57.184 69.454,57.44 69.454,72.14 64.595,72.14 
		64.595,56.299 64.566,55.91 64.549,55.444 64.49,54.98 64.445,54.528 64.34,53.779 64.31,53.466 65.389,53.088 66.516,52.729 
		67.668,52.384 68.84,52.07 69.439,51.935 70.008,51.813 70.609,51.709 71.194,51.619 71.779,51.545 72.352,51.483 72.934,51.455 
		73.505,51.455 73.968,51.455 74.42,51.469 74.87,51.483 75.288,51.531 75.725,51.559 76.16,51.619 76.564,51.694 76.969,51.785 
		77.361,51.89 77.751,51.994 78.124,52.113 78.485,52.234 78.813,52.413 79.161,52.579 79.474,52.745 79.776,52.955 80.076,53.164 
		80.344,53.404 80.601,53.644 80.853,53.898 81.082,54.2 81.291,54.5 81.469,54.828 81.664,55.158 81.816,55.534 81.935,55.91 
		82.07,56.313 82.158,56.734 82.234,57.184 82.296,57.65 82.339,58.144 82.339,58.655 82.339,72.14 	"/>
	<polygon fill-rule="evenodd" clip-rule="evenodd" fill="#08338F" points="91.851,72.589 91.399,72.589 90.964,72.574 
		90.529,72.529 90.11,72.498 89.673,72.439 89.24,72.38 88.819,72.304 88.387,72.213 87.545,72.035 86.718,71.812 85.91,71.54 
		85.146,71.255 86.571,67.461 87.125,67.685 87.709,67.908 88.325,68.119 88.969,68.283 89.602,68.447 90.215,68.571 90.529,68.614 
		90.831,68.643 91.13,68.659 91.43,68.676 91.713,68.659 92,68.659 92.269,68.614 92.554,68.585 92.823,68.51 93.065,68.434 
		93.306,68.343 93.529,68.224 93.755,68.105 93.933,67.925 94.114,67.761 94.235,67.532 94.371,67.309 94.444,67.055 94.506,66.77 
		94.521,66.455 94.506,66.108 94.43,65.809 94.294,65.555 94.145,65.283 93.933,65.046 93.695,64.819 93.438,64.61 93.139,64.43 
		92.823,64.235 92.466,64.055 92.105,63.888 91.713,63.71 90.936,63.362 90.11,63.006 89.688,62.794 89.283,62.6 88.865,62.391 
		88.473,62.147 88.099,61.896 87.726,61.625 87.396,61.322 87.048,60.995 86.749,60.664 86.495,60.274 86.254,59.885 86.06,59.433 
		85.896,58.94 85.774,58.43 85.701,57.873 85.684,57.274 85.684,56.884 85.729,56.525 85.774,56.164 85.879,55.833 85.969,55.505 
		86.104,55.172 86.224,54.904 86.404,54.604 86.585,54.333 86.766,54.079 86.975,53.822 87.201,53.599 87.438,53.39 87.695,53.18 
		87.949,52.969 88.235,52.802 88.52,52.641 88.791,52.46 89.091,52.341 89.39,52.189 89.707,52.07 90.006,51.966 90.336,51.858 
		90.65,51.768 90.98,51.694 91.309,51.619 91.625,51.559 91.941,51.531 92.571,51.455 93.17,51.44 93.591,51.455 93.981,51.455 
		94.385,51.483 94.792,51.531 95.181,51.559 95.569,51.635 95.944,51.694 96.32,51.768 97.055,51.966 97.761,52.161 98.075,52.279 
		98.421,52.384 98.719,52.517 99.018,52.655 97.625,56.435 97.131,56.24 96.574,56.074 96.021,55.91 95.436,55.771 94.834,55.667 
		94.28,55.582 93.724,55.52 93.17,55.505 92.947,55.505 92.718,55.52 92.495,55.534 92.269,55.582 92.045,55.625 91.851,55.686 
		91.656,55.757 91.475,55.848 91.309,55.969 91.13,56.09 91.009,56.24 90.888,56.418 90.8,56.599 90.726,56.825 90.679,57.048 
		90.665,57.319 90.712,57.621 90.783,57.888 90.888,58.159 91.054,58.384 91.28,58.607 91.52,58.803 91.803,58.983 92.105,59.164 
		92.45,59.313 92.823,59.478 93.199,59.628 93.591,59.78 94.43,60.108 95.286,60.438 95.721,60.634 96.154,60.828 96.56,61.037 
		96.993,61.28 97.383,61.549 97.761,61.819 98.136,62.119 98.479,62.464 98.764,62.84 99.049,63.243 99.289,63.679 99.513,64.159 
		99.693,64.67 99.8,65.255 99.876,65.854 99.919,66.529 99.891,66.934 99.86,67.323 99.8,67.698 99.71,68.074 99.589,68.419 
		99.484,68.747 99.337,69.063 99.17,69.363 98.976,69.648 98.764,69.934 98.569,70.174 98.331,70.416 98.075,70.64 97.82,70.863 
		97.535,71.061 97.25,71.241 96.95,71.434 96.65,71.583 96.334,71.735 96.021,71.854 95.69,71.99 95.343,72.108 95.015,72.199 
		94.653,72.289 94.294,72.365 93.933,72.425 93.605,72.484 93.246,72.513 92.899,72.561 92.54,72.574 92.181,72.589 	"/>
	<path fill-rule="evenodd" clip-rule="evenodd" fill="#08338F" d="M112.236,72.604l-0.571-0.015l-0.554-0.028l-0.557-0.076
		l-0.525-0.076l-0.525-0.119l-0.508-0.149l-0.495-0.149l-0.468-0.179l-0.464-0.214l-0.449-0.224l-0.435-0.269l-0.39-0.257
		l-0.407-0.3l-0.375-0.299l-0.359-0.316l-0.328-0.359l-0.333-0.358l-0.299-0.393l-0.297-0.39l-0.257-0.404l-0.24-0.436l-0.226-0.435
		l-0.209-0.466l-0.179-0.466l-0.181-0.492l-0.152-0.48l-0.104-0.525l-0.119-0.523l-0.076-0.527l-0.042-0.54l-0.048-0.539
		l-0.014-0.571l0.014-0.554l0.048-0.57l0.042-0.54l0.076-0.527l0.119-0.523l0.104-0.511l0.152-0.495l0.181-0.492l0.179-0.466
		l0.209-0.449l0.226-0.452l0.24-0.435l0.257-0.404l0.297-0.39l0.299-0.392l0.333-0.359l0.328-0.345l0.359-0.33l0.375-0.3
		l0.407-0.299l0.39-0.257l0.435-0.254l0.449-0.238l0.464-0.211l0.468-0.164l0.495-0.167l0.508-0.136l0.525-0.133l0.525-0.076
		l0.557-0.076l0.554-0.028l0.571-0.014l0.584,0.014l0.554,0.028l0.54,0.062l0.542,0.09l0.525,0.119l0.495,0.15l0.494,0.15
		l0.478,0.181l0.452,0.211l0.449,0.224l0.421,0.24l0.418,0.271l0.39,0.3l0.375,0.299l0.361,0.331l0.331,0.342l0.345,0.347
		l0.283,0.404l0.288,0.392L120.828,56l0.257,0.435l0.226,0.433l0.209,0.466l0.181,0.464l0.181,0.497L122,58.788l0.135,0.512
		l0.09,0.522l0.104,0.542l0.045,0.54l0.045,0.54v0.584V62.6l-0.045,0.539l-0.045,0.555l-0.104,0.527l-0.09,0.523L122,65.255
		l-0.119,0.494l-0.181,0.497l-0.181,0.464l-0.209,0.466l-0.226,0.433l-0.257,0.435l-0.266,0.404l-0.288,0.393l-0.283,0.404
		l-0.345,0.347l-0.331,0.343l-0.361,0.33l-0.375,0.3l-0.39,0.285l-0.418,0.285l-0.421,0.24l-0.449,0.224l-0.452,0.214l-0.478,0.179
		l-0.494,0.149l-0.495,0.149l-0.525,0.119l-0.542,0.076l-0.54,0.076l-0.554,0.028L112.236,72.604z M112.236,55.667h-0.316
		l-0.331,0.033l-0.302,0.043l-0.299,0.076l-0.269,0.076l-0.269,0.088l-0.24,0.107l-0.243,0.135l-0.224,0.147l-0.209,0.152
		l-0.212,0.162l-0.178,0.197l-0.197,0.181l-0.147,0.209l-0.166,0.209l-0.133,0.228l-0.152,0.224l-0.104,0.238l-0.104,0.257
		l-0.121,0.254l-0.09,0.257l-0.091,0.283l-0.071,0.254l-0.062,0.288l-0.119,0.568l-0.076,0.57l-0.031,0.585l-0.014,0.587
		l0.014,0.568l0.031,0.585l0.076,0.554l0.119,0.57l0.062,0.285l0.071,0.27l0.091,0.271l0.09,0.257l0.09,0.254l0.121,0.24l0.119,0.24
		l0.136,0.224l0.15,0.226l0.152,0.227l0.162,0.178l0.197,0.209l0.178,0.167l0.212,0.181l0.209,0.149l0.224,0.149l0.243,0.119
		l0.24,0.107l0.269,0.104l0.269,0.073l0.299,0.06l0.302,0.048l0.331,0.028l0.316,0.015l0.328-0.015l0.33-0.028l0.286-0.048
		l0.299-0.06l0.271-0.073l0.283-0.104l0.243-0.107l0.238-0.119l0.226-0.149l0.212-0.149l0.209-0.181l0.178-0.167l0.167-0.209
		l0.167-0.178l0.178-0.227l0.121-0.226l0.15-0.224l0.119-0.24l0.104-0.24l0.121-0.254l0.088-0.257l0.076-0.271l0.076-0.27
		l0.076-0.285l0.119-0.57l0.074-0.554l0.031-0.585l0.015-0.568l-0.015-0.587l-0.031-0.57l-0.074-0.568l-0.119-0.57l-0.076-0.271
		l-0.076-0.269l-0.076-0.285l-0.088-0.257l-0.121-0.238l-0.104-0.271l-0.119-0.24l-0.15-0.223l-0.121-0.229l-0.178-0.224
		l-0.167-0.209l-0.167-0.181l-0.178-0.197l-0.209-0.162l-0.212-0.152l-0.226-0.147l-0.238-0.135l-0.243-0.107l-0.283-0.088
		l-0.271-0.076l-0.299-0.076l-0.286-0.043l-0.33-0.033H112.236z"/>
	<polygon fill-rule="evenodd" clip-rule="evenodd" fill="#08338F" points="138.486,72.14 138.486,59.433 138.453,58.983 
		138.41,58.551 138.363,58.37 138.306,58.159 138.259,57.992 138.187,57.797 138.111,57.636 138.035,57.469 137.931,57.319 
		137.84,57.169 137.735,57.02 137.611,56.884 137.507,56.749 137.374,56.644 137.241,56.525 137.089,56.418 136.937,56.313 
		136.789,56.226 136.461,56.06 136.1,55.924 135.724,55.833 135.334,55.757 134.896,55.7 134.479,55.686 133.955,55.7 
		133.428,55.757 132.919,55.848 132.391,55.969 131.868,56.09 131.359,56.24 130.865,56.418 130.37,56.583 130.385,56.673 
		130.413,56.901 130.441,57.184 130.456,57.44 130.456,72.14 125.616,72.14 125.616,56.299 125.602,55.91 125.556,55.444 
		125.525,54.98 125.463,54.528 125.375,53.779 125.316,53.466 126.41,53.088 127.518,52.729 128.673,52.384 129.843,52.07 
		130.428,51.935 131.031,51.813 131.616,51.694 132.201,51.619 132.786,51.545 133.37,51.483 133.955,51.455 134.507,51.44 
		134.973,51.455 135.425,51.455 135.876,51.483 136.309,51.531 136.741,51.559 137.15,51.619 137.583,51.694 137.973,51.785 
		138.363,51.89 138.738,51.994 139.114,52.113 139.476,52.265 139.817,52.413 140.165,52.579 140.479,52.745 140.778,52.955 
		141.063,53.18 141.349,53.404 141.605,53.644 141.844,53.898 142.066,54.2 142.295,54.5 142.49,54.828 142.656,55.158 
		142.818,55.534 142.956,55.91 143.061,56.313 143.165,56.734 143.256,57.184 143.313,57.65 143.327,58.144 143.341,58.655 
		143.341,72.14 	"/>
	<polygon fill-rule="evenodd" clip-rule="evenodd" fill="#29B582" points="234.259,16.218 233.855,15.83 233.451,15.438 
		233.047,15.034 232.629,14.644 231.516,15.169 230.451,15.74 229.386,16.294 228.354,16.879 227.36,17.48 226.371,18.094 
		225.425,18.724 224.498,19.37 223.595,20.043 222.725,20.721 221.888,21.41 221.061,22.114 220.252,22.834 219.486,23.583 
		218.735,24.334 218.031,25.1 218.212,26.314 218.359,27.543 218.512,28.789 218.646,30.021 218.75,31.25 218.84,32.51 
		218.944,33.784 218.987,35.03 219.049,36.14 219.063,37.217 219.097,38.313 219.097,39.363 219.063,40.429 219.049,41.448 
		219.021,42.482 218.973,43.519 218.916,44.522 218.84,45.514 218.75,46.505 218.659,47.479 218.555,48.44 218.436,49.4 
		218.298,50.33 218.15,51.26 217.998,52.189 217.837,53.104 217.67,54.003 217.476,54.875 217.28,55.757 217.071,56.616 
		216.843,57.483 216.619,58.308 216.382,59.149 216.11,59.975 215.854,60.785 215.568,61.563 215.283,62.373 214.984,63.139 
		214.685,63.904 214.371,64.653 214.865,65.464 215.359,66.246 215.916,67.023 216.453,67.804 217.023,68.538 217.628,69.289 
		218.27,70.023 218.897,70.759 219.577,71.45 220.267,72.14 220.999,72.831 221.735,73.49 222.501,74.15 223.31,74.78 
		224.108,75.395 224.945,76.01 225.439,75.753 225.905,75.47 226.371,75.214 226.866,74.928 227.313,74.629 227.778,74.329 
		228.23,74.029 228.682,73.728 228.035,72.965 227.417,72.199 226.818,71.434 226.267,70.625 225.696,69.843 225.168,69.021 
		224.674,68.195 224.18,67.371 223.714,66.529 223.267,65.689 222.829,64.819 222.425,63.964 222.05,63.079 221.688,62.195 
		221.36,61.294 221.032,60.41 220.746,59.509 220.461,58.579 220.219,57.664 219.995,56.734 219.786,55.819 219.591,54.859 
		219.425,53.929 219.292,52.969 219.188,51.994 219.097,51.05 219.021,50.073 218.959,49.101 218.944,48.109 218.944,47.132 
		218.959,46.144 218.987,45.14 219.063,44.073 219.188,43.01 219.32,41.959 219.486,40.909 219.667,39.889 219.877,38.854 
		220.114,37.818 220.399,36.829 220.699,35.824 221.013,34.849 221.374,33.857 221.75,32.899 222.154,31.937 222.592,30.993 
		223.038,30.078 223.519,29.134 224.032,28.233 224.555,27.334 225.093,26.462 225.682,25.58 226.281,24.738 226.895,23.885 
		227.541,23.06 228.202,22.235 228.877,21.438 229.595,20.645 230.332,19.862 231.064,19.127 231.844,18.379 232.629,17.642 
		233.437,16.94 	"/>
	<polygon fill-rule="evenodd" clip-rule="evenodd" fill="#00B5C2" points="225.468,9.514 224.974,9.245 224.465,8.974 223.941,8.72 
		223.428,8.449 222.349,8.96 221.298,9.483 220.267,10.022 219.259,10.579 218.255,11.164 217.28,11.765 216.32,12.381 
		215.359,13.022 215.555,13.653 215.735,14.313 215.916,14.958 216.097,15.619 216.258,16.28 216.41,16.94 216.572,17.599 
		216.725,18.274 217.775,17.119 218.84,15.963 219.938,14.839 221.013,13.729 222.125,12.647 223.247,11.584 224.346,10.55 	"/>
	<polygon fill-rule="evenodd" clip-rule="evenodd" fill="#00B5C2" points="214.504,79.744 215.103,79.609 215.707,79.474 
		216.272,79.354 216.862,79.174 217.447,79.026 218.031,78.857 218.598,78.68 219.168,78.484 218.227,77.434 217.309,76.369 
		216.396,75.244 215.493,74.117 214.594,72.965 213.738,71.778 212.901,70.563 212.074,69.349 211.655,70.069 211.237,70.759 
		210.8,71.45 210.362,72.125 209.915,72.784 209.449,73.428 208.983,74.074 208.522,74.705 209.184,75.365 209.901,76.01 
		210.634,76.668 211.385,77.315 212.122,77.931 212.916,78.544 213.695,79.146 	"/>
	<polygon fill-rule="evenodd" clip-rule="evenodd" fill="#7DBA00" points="243.997,33.962 243.274,34.578 242.585,35.239 
		241.957,35.931 241.311,36.62 241.025,36.979 240.726,37.34 240.454,37.713 240.169,38.075 239.917,38.465 239.646,38.838 
		239.408,39.214 239.166,39.604 238.938,39.993 238.715,40.414 238.505,40.804 238.296,41.208 238.082,41.629 237.906,42.033 
		237.739,42.468 237.573,42.906 237.426,43.324 237.278,43.759 237.126,44.194 236.988,44.646 236.869,45.093 236.765,45.544 
		236.675,45.994 236.57,46.429 236.494,46.938 236.418,47.432 236.375,47.915 236.332,48.423 236.299,48.906 236.271,49.4 
		236.271,49.878 236.271,50.39 236.299,50.87 236.332,51.364 236.375,51.844 236.418,52.341 236.479,52.819 236.57,53.285 
		236.646,53.779 236.765,54.257 236.869,54.723 237.008,55.22 237.141,55.686 237.293,56.15 237.44,56.616 237.606,57.093 
		237.802,57.56 237.978,58.025 238.191,58.475 238.387,58.94 238.609,59.39 238.833,59.837 239.09,60.289 239.332,60.738 
		239.584,61.189 239.87,61.625 240.469,60.574 241.025,59.478 241.296,58.94 241.553,58.398 241.805,57.845 242.047,57.274 
		242.271,56.72 242.494,56.135 242.718,55.582 242.917,54.994 243.112,54.41 243.288,53.811 243.488,53.237 243.649,52.641 
		243.802,52.039 243.949,51.409 244.102,50.825 244.234,50.192 244.339,49.593 244.458,48.978 244.548,48.347 244.639,47.734 
		244.715,47.104 244.791,46.474 244.848,45.844 244.91,45.197 244.938,44.57 244.972,43.909 244.985,43.279 245,42.62 
		244.985,41.51 244.924,40.414 244.848,39.304 244.743,38.222 244.596,37.131 244.415,36.063 244.221,35.015 	"/>
	<polygon fill-rule="evenodd" clip-rule="evenodd" fill="#54B840" points="232.372,45.768 232.447,45.093 232.533,44.389 
		232.629,43.73 232.747,43.024 232.866,42.349 232.999,41.658 233.151,40.985 233.299,40.295 233.465,39.618 233.66,38.942 
		233.841,38.27 234.05,37.578 234.273,36.903 234.502,36.259 234.739,35.583 235.011,34.925 235.268,34.264 235.553,33.62 
		235.818,32.959 236.118,32.314 236.451,31.685 236.765,31.055 237.126,30.422 237.454,29.809 237.83,29.193 238.206,28.592 
		238.596,27.995 238.985,27.41 239.408,26.837 239.841,26.269 240.26,25.713 240.726,25.176 240.426,24.617 240.155,24.08 
		239.855,23.554 239.542,23.029 238.672,23.523 237.83,24.032 236.988,24.545 236.18,25.1 235.4,25.653 234.635,26.224 
		233.897,26.794 233.166,27.41 232.477,28.04 231.801,28.668 231.141,29.329 230.513,29.973 229.895,30.65 229.31,31.354 
		228.758,32.06 228.23,32.795 227.702,33.544 227.208,34.281 226.761,35.058 226.343,35.824 225.92,36.62 225.529,37.431 
		225.168,38.239 224.854,39.081 224.555,39.92 224.27,40.759 224.032,41.643 223.818,42.53 223.643,43.398 223.476,44.313 
		223.356,45.214 223.247,46.16 223.19,46.985 223.172,47.779 223.157,48.604 223.19,49.429 223.233,50.254 223.323,51.064 
		223.414,51.89 223.552,52.684 223.699,53.494 223.88,54.305 224.089,55.084 224.317,55.896 224.555,56.673 224.84,57.469 
		225.14,58.234 225.454,58.998 225.801,59.766 226.162,60.515 226.538,61.249 226.956,62 227.389,62.721 227.841,63.438 
		228.278,64.13 228.772,64.834 229.281,65.509 229.804,66.185 230.346,66.846 230.902,67.504 231.482,68.134 232.067,68.747 
		232.686,69.363 233.299,69.947 233.688,69.574 234.064,69.199 234.439,68.809 234.815,68.419 235.191,68.029 235.553,67.623 
		235.895,67.219 236.256,66.798 235.952,66.228 235.657,65.631 235.386,65.029 235.115,64.43 234.863,63.828 234.606,63.215 
		234.364,62.6 234.154,61.967 233.932,61.354 233.736,60.724 233.541,60.079 233.375,59.449 233.209,58.803 233.062,58.159 
		232.909,57.498 232.775,56.839 232.671,56.195 232.553,55.52 232.462,54.845 232.372,54.169 232.31,53.494 232.233,52.819 
		232.191,52.127 232.162,51.44 232.144,50.749 232.144,50.03 232.144,49.339 232.162,48.633 232.191,47.915 232.233,47.208 
		232.296,46.474 	"/>
	<polygon fill-rule="evenodd" clip-rule="evenodd" fill="#00B8E0" points="180.907,15.393 180.304,15.994 179.704,16.593 
		179.12,17.224 178.563,17.87 177.993,18.5 177.47,19.175 176.947,19.848 176.447,20.538 175.938,21.244 175.473,21.95 
		175.012,22.684 174.574,23.402 174.142,24.139 173.732,24.905 173.328,25.67 172.972,26.447 172.597,27.229 172.249,28.009 
		171.936,28.82 171.617,29.631 171.332,30.453 171.051,31.278 170.809,32.117 170.585,32.959 170.361,33.815 170.181,34.683 
		169.986,35.538 169.834,36.425 169.701,37.293 169.596,38.194 169.501,39.081 169.43,39.979 170,39.409 170.585,38.824 
		171.122,38.194 171.664,37.564 172.188,36.903 172.715,36.23 173.224,35.553 173.689,34.849 174.185,34.128 174.636,33.408 
		175.083,32.659 175.487,31.894 175.896,31.128 176.314,30.349 176.69,29.555 177.065,28.758 177.422,27.964 177.755,27.139 
		178.069,26.314 178.383,25.489 178.668,24.665 178.958,23.823 179.21,22.984 179.481,22.13 179.704,21.289 179.928,20.449 
		180.108,19.594 180.304,18.752 180.484,17.898 180.637,17.06 180.77,16.218 	"/>
	<polygon fill-rule="evenodd" clip-rule="evenodd" fill="#0399CC" points="188.344,9.799 187.926,10.039 187.492,10.308 
		187.056,10.564 186.637,10.85 186.275,12.424 185.914,13.969 185.538,15.483 185.163,16.969 184.759,18.407 184.369,19.834 
		183.937,21.215 183.499,22.577 183.052,23.913 182.586,25.218 182.12,26.495 181.625,27.738 181.131,28.967 180.617,30.154 
		180.095,31.323 179.571,32.464 179.029,33.589 178.459,34.683 177.902,35.75 177.317,36.798 176.752,37.818 176.148,38.838 
		175.549,39.813 174.936,40.79 174.304,41.719 173.671,42.635 173.029,43.55 172.387,44.434 171.722,45.318 171.051,46.16 
		170.376,47 169.682,47.81 169.806,48.528 169.91,49.22 170.043,49.94 170.195,50.644 170.348,51.335 170.509,52.039 
		170.689,52.714 170.885,53.404 172.312,52.46 173.661,51.483 174.936,50.42 176.119,49.324 177.275,48.155 178.354,46.938 
		179.362,45.694 180.318,44.389 181.222,43.053 182.044,41.658 182.823,40.262 183.546,38.824 184.217,37.354 184.82,35.883 
		185.377,34.385 185.899,32.869 186.347,31.354 186.756,29.809 187.131,28.278 187.445,26.747 187.73,25.218 187.968,23.704 
		188.163,22.188 188.329,20.721 188.448,19.232 188.539,17.794 188.567,16.368 188.601,14.989 188.567,13.624 188.539,12.305 
		188.463,11.014 	"/>
	<polygon fill-rule="evenodd" clip-rule="evenodd" fill="#08338F" points="219.125,35.03 219.063,34.024 219.021,33.019 
		218.944,32.013 218.868,31.01 218.764,30.021 218.674,29.029 218.569,28.04 218.436,27.063 218.298,26.088 218.179,25.114 
		218.031,24.139 217.851,23.179 217.685,22.235 217.519,21.272 217.309,20.314 217.128,19.384 216.919,18.453 216.695,17.523 
		216.468,16.593 216.244,15.692 216.006,14.777 215.764,13.878 215.493,12.98 215.212,12.079 214.955,11.209 214.656,10.322 
		214.371,9.44 214.071,8.582 213.757,7.743 213.443,6.873 213.125,6.033 212.777,5.194 212.24,5.118 211.698,5.059 211.133,4.999 
		210.591,4.954 210.876,7.624 211.133,10.308 211.356,12.98 211.522,15.635 211.655,18.274 211.731,20.901 211.774,23.523 
		211.774,26.103 211.698,28.685 211.58,31.233 211.433,33.767 211.209,36.259 210.952,38.719 210.634,41.18 210.229,43.593 
		209.811,45.965 209.302,48.305 208.746,50.615 208.113,52.895 207.438,55.13 206.691,57.289 205.894,59.449 205.009,61.549 
		204.067,63.588 203.045,65.583 201.966,67.532 200.796,69.438 199.564,71.284 198.276,73.055 196.893,74.795 195.424,76.459 
		193.893,78.05 194.482,78.259 195.033,78.468 195.618,78.648 196.188,78.846 196.773,79.008 197.358,79.174 197.958,79.326 
		198.533,79.474 199.127,79.609 199.731,79.73 200.345,79.85 200.943,79.954 201.576,80.044 202.189,80.135 202.808,80.208 
		203.421,80.284 204.381,79.397 205.309,78.499 206.212,77.569 207.096,76.595 207.947,75.589 208.774,74.538 209.588,73.476 
		210.349,72.349 211.1,71.21 211.803,70.023 212.492,68.809 213.153,67.547 213.8,66.261 214.385,64.938 214.955,63.558 
		215.483,62.181 215.992,60.755 216.453,59.283 216.871,57.783 217.28,56.24 217.628,54.681 217.97,53.059 218.255,51.409 
		218.512,49.745 218.721,48.034 218.897,46.279 219.035,44.508 219.125,42.677 219.188,40.818 219.201,38.928 219.188,36.993 	"/>
	<polygon fill-rule="evenodd" clip-rule="evenodd" fill="#0554A3" points="204.396,4.895 203.854,4.923 203.316,4.985 202.76,5.042 
		202.236,5.118 202.294,6.903 202.308,8.748 202.308,10.655 202.294,12.647 202.218,14.658 202.146,16.727 202.009,18.842 
		201.842,20.987 201.647,23.165 201.396,25.371 201.124,27.605 200.782,29.854 200.406,32.089 199.969,34.352 199.488,36.62 
		198.951,38.869 198.366,41.12 197.706,43.369 196.997,45.575 196.236,47.763 195.395,49.926 194.496,52.054 193.521,54.124 
		192.471,56.164 191.344,58.159 190.16,60.079 188.9,61.967 187.55,63.769 186.123,65.509 184.611,67.176 183.019,68.747 
		181.326,70.25 181.968,70.849 182.643,71.434 183.323,71.99 184.008,72.529 184.701,73.055 185.405,73.58 186.138,74.074 
		186.889,74.555 189.048,73.01 191.092,71.329 192.979,69.619 194.748,67.804 196.384,65.899 197.9,63.964 199.308,61.938 
		200.572,59.855 201.737,57.74 202.793,55.582 203.734,53.342 204.576,51.079 205.309,48.799 205.955,46.474 206.497,44.135 
		206.944,41.748 207.319,39.38 207.591,36.979 207.785,34.563 207.89,32.165 207.947,29.778 207.919,27.377 207.813,24.995 
		207.647,22.625 207.424,20.286 207.139,17.975 206.811,15.692 206.421,13.429 205.969,11.223 205.475,9.064 204.951,6.949 	"/>
	<polygon fill-rule="evenodd" clip-rule="evenodd" fill="#0575B8" points="196.027,6.452 195.547,6.604 195.063,6.754 
		194.601,6.918 194.149,7.082 194.03,8.884 193.893,10.698 193.73,12.514 193.536,14.33 193.308,16.144 193.069,17.96 
		192.784,19.772 192.485,21.588 192.157,23.388 191.781,25.19 191.358,26.989 190.939,28.758 190.445,30.543 189.937,32.284 
		189.395,34.038 188.824,35.764 188.178,37.474 187.521,39.154 186.813,40.818 186.066,42.468 185.286,44.073 184.445,45.663 
		183.561,47.239 182.643,48.768 181.668,50.299 180.637,51.754 179.571,53.195 178.444,54.604 177.289,55.969 176.072,57.289 
		174.803,58.579 173.462,59.837 173.823,60.528 174.198,61.204 174.589,61.879 175.012,62.54 175.416,63.201 175.849,63.828 
		176.271,64.458 176.719,65.089 178.521,63.936 180.199,62.689 181.82,61.354 183.352,59.961 184.792,58.475 186.138,56.901 
		187.417,55.296 188.601,53.584 189.694,51.844 190.73,50.045 191.691,48.2 192.562,46.308 193.355,44.375 194.078,42.409 
		194.734,40.429 195.318,38.403 195.813,36.363 196.265,34.309 196.641,32.239 196.969,30.168 197.211,28.083 197.373,26.015 
		197.511,23.958 197.554,21.888 197.554,19.848 197.511,17.856 197.387,15.845 197.226,13.895 196.997,11.974 196.717,10.084 
		196.402,8.24 	"/>
</g>
</svg>
