<?xml version="1.0" encoding="UTF-8" standalone="no"?>
<svg
   xmlns:dc="http://purl.org/dc/elements/1.1/"
   xmlns:cc="http://creativecommons.org/ns#"
   xmlns:rdf="http://www.w3.org/1999/02/22-rdf-syntax-ns#"
   xmlns:svg="http://www.w3.org/2000/svg"
   xmlns="http://www.w3.org/2000/svg"
   id="svg17847"
   version="1.1"
   viewBox="0 0 400 75.816207885742"
   height="75.8162078857422"
   width="400">
  <defs
     id="defs17841" />
  <metadata
     id="metadata17844">
    <rdf:RDF>
      <cc:Work
         rdf:about="">
        <dc:format>image/svg+xml</dc:format>
        <dc:type
           rdf:resource="http://purl.org/dc/dcmitype/StillImage" />
        <dc:title></dc:title>
      </cc:Work>
    </rdf:RDF>
  </metadata>
  <g
     transform="translate(-372.683303491012,-490.941156659974)"
     id="layer1">
    <g
       style="fill:#d51900;fill-opacity:1;fill-rule:evenodd;stroke:none;stroke-width:1"
       id="--Symbols"
       transform="matrix(3.32201327697973,0,0,3.32201327697973,374.682511487847,490.302202112821)">
      <g
         style="fill:#d51900;fill-opacity:1"
         transform="translate(-137,-447)"
         id="Footer-1440">
        <g
           style="fill:#d51900;fill-opacity:1"
           transform="translate(137,447)"
           id="Logo">
          <path
             style="fill:#d51900;fill-opacity:1"
             id="Fill-1"
             d="m 43.2526887,8.62219868 c 0,-0.1962914 0.13351,-0.30119206 0.3011921,-0.30119206 0.2837086,0 0.712053,0.30119206 0.9536424,0.90357616 -0.0866225,0 -0.2169537,0.02622517 -0.3043709,0.02622517 -0.5165563,0 -0.9504636,-0.24556292 -0.9504636,-0.62860927 z m -31.2524503,0 c 0,-0.1962914 0.127947,-0.30119206 0.3027815,-0.30119206 0.2765563,0 0.6874172,0.30119206 0.9258278,0.90357616 -0.7978808,0 -1.2286093,-0.17245033 -1.2286093,-0.6023841 z M 18.028053,5.50935099 c 0,-3.22251655 0.6278145,-3.71761589 0.8225165,-3.71761589 0.3464901,0 0.3878146,0.21615894 0.3878146,1.45192053 0,1.26993377 -0.541192,2.93165563 -1.2103311,3.84397351 z M 39.9705695,8.68656954 C 39.598649,9.20471523 39.297457,9.94060927 39.297457,10.8886887 c 0,1.8158941 1.0354966,3.5491391 3.0476821,3.5491391 1.9454304,0 3.3083443,-1.5369536 3.3083443,-3.6802649 0,-0.6222516 -0.023841,-0.7080795 -0.0643708,-0.9663576 0.4521854,-0.19708609 0.8423841,-0.49827815 1.1459602,-0.73907285 0.2582782,-0.19470199 0.4513908,-0.30357616 0.605563,-0.30357616 0.1939072,0 0.2789404,0.15178808 0.2789404,0.43231788 V 13.421404 c 0,0.690596 0.218543,1.0164238 0.7565563,1.0164238 0.495894,0 0.8447682,-0.3480795 1.0378807,-0.7581457 0.7152318,-1.4916556 1.7507285,-3.48 2.202914,-4.23496687 0.1088741,-0.17324503 0.197086,-0.30596026 0.2590728,-0.30596026 0.0866225,0 0.1311258,0.06596026 0.1311258,0.34569536 v 3.37589407 c 0,0.9496688 0.4339073,1.5774834 1.3811921,1.5774834 0.9965563,0 1.4908609,-0.9544371 2.3618543,-2.423841 0.0413245,-0.088212 0.0596026,-0.1509934 0.0596026,-0.2137749 0,-0.194702 -0.1684768,-0.3051655 -0.3425165,-0.3051655 -0.1962914,0 -0.3043709,0.1962913 -0.9512583,0.9075496 -0.1311258,0.1350994 -0.2582781,0.322649 -0.4982781,0.322649 -0.0858279,0 -0.1517881,-0.1041059 -0.1517881,-0.2360265 V 8.70484768 c 0,-1.01642384 -0.4545696,-1.42649006 -1.0378808,-1.42649006 -0.4744371,0 -0.8654305,0.19470198 -1.2754967,0.8002649 -0.7350993,1.0831788 -1.4916556,2.61933778 -1.9009272,3.39337748 -0.0460927,0.090596 -0.1080794,0.2193377 -0.1501986,0.2193377 -0.045298,0 -0.0643709,-0.0667549 -0.0643709,-0.2193377 V 8.70484768 c 0,-0.79788079 -0.2161589,-1.42649006 -1.0609271,-1.42649006 -0.8868875,0 -1.3398676,0.60635761 -1.9883444,1.05933774 -0.4108609,0.30596027 -0.7772186,0.5197351 -1.0569537,0.64927153 C 44.8961325,7.88471523 44.097457,7.32603974 43.4275232,7.34272848 42.7552053,7.36577483 42.2799735,7.77901987 42.2799735,8.4712053 c 0,0.70966887 0.434702,1.20397351 1.0156291,1.42410596 0.3226491,0.12953644 0.6262252,0.15417214 1.0609272,0.15417214 0.1303311,0 0.2590728,0 0.3425166,-0.0246357 0.0460927,0.2153642 0.0254304,0.5221192 0.0254304,0.7589404 0,1.0609271 -0.6270198,2.1170861 -1.7928477,2.1170861 -1.2135099,0 -1.9239735,-1.1674172 -1.9239735,-2.5064901 0,-1.01721854 0.3011921,-1.85880794 0.794702,-2.4405298 0.1994702,-0.21774834 0.3480795,-0.34966887 0.3480795,-0.54913907 0,-0.10092715 -0.1486093,-0.12635761 -0.2797351,-0.12635761 -0.8233113,0 -1.7284768,0.36874172 -2.3539073,0.69139072 C 38.6910993,8.40286093 37.7207682,9.11888742 36.9197086,9.8317351 36.5310993,8.96471523 36.0558675,8.20815894 35.8166623,7.62246358 35.7308344,7.38484768 35.668053,7.10908609 35.4948079,7.10908609 c -0.1533774,0 -0.2201324,0.15099338 -0.3258278,0.44900663 -0.3878145,1.14675496 -2.4643708,4.50039738 -2.9181457,4.95417218 -0.0429139,0.0619868 -0.1056953,0.1303311 -0.1263576,0.1303311 -0.0468874,0 -0.0715232,-0.0214569 -0.0715232,-0.1533775 V 8.70484768 c 0,-1.01642384 -0.4100662,-1.42649006 -0.967947,-1.42649006 -0.4776159,0 -0.8868874,0.19470198 -1.2754967,0.8002649 -0.7120529,1.0831788 -1.5806622,2.66145698 -1.9899337,3.43788078 -0.0659603,0.1335099 -0.1311259,0.1748344 -0.1533775,0.1748344 -0.021457,0 -0.0389404,-0.0858278 -0.0389404,-0.2193377 V 8.70484768 c 0,-1.01642384 -0.4124504,-1.42649006 -0.9750994,-1.42649006 -0.4768212,0 -0.9282119,0.17721854 -1.2977483,0.8002649 -0.9059603,1.53695364 -2.4182781,3.89324498 -2.6996027,4.27947018 -0.0437086,0.066755 -0.0874172,0.1104636 -0.1303311,0.1311258 -0.0429139,0 -0.0675496,-0.0421192 -0.0675496,-0.1494039 V 8.70484768 c 0,-1.01642384 -0.4100663,-1.42649006 -0.9687418,-1.42649006 -0.7796026,0 -1.2095364,0.71682119 -1.493245,1.16821192 -0.3909934,0.62701986 -0.9075497,1.47178808 -1.3168212,2.25139076 -0.2821192,0.5213245 -0.5213245,0.9933774 -0.6087417,0.9933774 -0.0413245,0 -0.0413245,-0.1962913 -0.0413245,-0.562649 v -2.895894 c 1.3597351,-1.51629139 2.2037086,-3.37350993 2.2037086,-5.40556291 0,-1.16980133 -0.5165563,-1.81509934 -1.3144371,-1.81509934 -1.4948344,0 -2.6376159,2.33562914 -2.6376159,5.10039735 V 8.36074172 C 15.5867285,8.7938543 14.937457,9.00524503 14.1363974,9.16180132 13.7271258,7.9538543 12.8609007,7.32603974 12.171894,7.34272848 11.5035497,7.36577483 11.0259338,7.77901987 11.0259338,8.4712053 c 0,1.14437086 1.1245033,1.6196026 2.1162914,1.6196026 h 0.2813245 c 0.0421192,0.2177484 0.0421192,0.456159 0.0421192,0.6929802 0,1.0609271 -0.6262252,2.1170861 -1.7904636,2.1170861 -1.2095364,0 -1.92476821,-1.1674172 -1.92476821,-2.5064901 0,-1.01721854 0.29960261,-1.85880794 0.79708611,-2.4405298 0.1962914,-0.21774834 0.3488742,-0.41245033 0.3488742,-0.54913907 0,-0.10092715 -0.1525828,-0.12635761 -0.2837087,-0.12635761 -0.82092711,0 -2.63443704,1.10701986 -4.79761585,3.26860928 C 5.62354967,8.81690066 5.40580132,7.12895364 5.40580132,5.48550993 c 0,-1.83655629 0.36317881,-3.39655629 0.44980133,-3.84635761 0.04370861,-0.2789404 0.07072848,-0.45456954 0.07072848,-0.58172186 0,-0.174039732 -0.09218543,-0.263046354 -0.32503312,-0.263046354 C 3.84818543,0.794384106 2.38410596e-4,3.58458278 2.38410596e-4,7.75676821 2.38410596e-4,10.7154437 1.08341722,12.1435232 2.96050331,13.9808742 c -1.13960265,1.8381457 -2.053509933,4.0203973 -2.053509933,5.9666225 0,1.402649 0.327417223,2.4651656 1.362119203,2.4651656 2.16238411,0 3.78198676,-4.4940398 3.78198676,-7.8254305 0,-0.9933775 -0.0397351,-1.9891391 -0.12476821,-2.9817219 C 6.72341722,10.7575629 7.956,9.61557616 8.25639735,9.50749669 8.12765563,9.96206623 8.04103311,10.4388874 8.04103311,10.8886887 c 0,1.8158941 1.0394702,3.5491391 3.04768209,3.5491391 1.8834437,0 3.3075497,-1.5369536 3.3075497,-3.6802649 0,-0.2765563 -0.0222517,-0.517351 -0.0413245,-0.77562913 0.6882119,-0.12953642 1.3215894,-0.30675496 1.9247682,-0.66834437 v 4.3446358 c 0,0.5594702 0.3862252,0.7796026 0.7541722,0.7796026 0.4998675,0 0.7589404,-0.3480795 1.1229139,-1.1435761 0.3059603,-0.6516557 1.1245033,-2.1417219 1.6211921,-3.0309934 0.391788,-0.69377486 0.607947,-1.14437088 0.7819867,-1.14437088 0.0405298,0 0.0866225,0.10569536 0.0866225,0.36556291 v 3.69774837 c 0,0.9949669 0.5189404,1.2556291 0.967947,1.2556291 0.4323179,0 0.7152318,-0.2376159 0.9965563,-0.6278146 1.1252981,-1.6013245 2.3157616,-3.5014569 2.7878146,-4.32556287 0.0874172,-0.14781457 0.194702,-0.25986755 0.2821192,-0.25986755 0.0842384,0 0.127947,0.04688742 0.127947,0.32423841 V 13.421404 c 0,0.690596 0.216159,1.0164238 0.7589404,1.0164238 0.4943047,0 0.8177484,-0.3480795 1.010861,-0.7581457 0.7184106,-1.4916556 1.7745695,-3.4601324 2.2307284,-4.23496687 0.1056954,-0.17324503 0.2145696,-0.32582781 0.2789404,-0.32582781 0.0898014,0 0.1096689,0.10569536 0.1096689,0.38860927 v 3.67470201 c 0,0.9949669 0.5189404,1.2556291 0.975894,1.2556291 0.6,0 0.9933775,-0.434702 1.3819868,-0.9298013 0.7088742,-0.9337748 1.7475497,-2.5915232 2.3753642,-3.65562915 0.2177484,0.34728475 0.4529802,0.75894035 0.650861,1.21192055 -0.5197351,0.6270198 -1.0394702,1.3382781 -1.0394702,2.0940397 0,0.8010596 0.5618543,1.2794702 1.1459602,1.2794702 0.9925828,0 1.8993378,-0.9544371 1.8993378,-2.2704636 0,-0.517351 -0.1486093,-1.0593377 -0.3417219,-1.5766887 0.8813245,-0.86701987 1.9422517,-1.71019868 2.7242384,-1.90410596 z M 4.36474172,13.3991523 c 0.17483444,1.1443709 0.32662252,2.2712583 0.32662252,3.1557616 0,2.0717881 -0.68980133,4.4940397 -1.8794702,4.4741722 -0.45933775,0 -0.84556291,-0.4593378 -0.86463576,-1.2548344 -0.04370861,-2.5915232 1.18807947,-4.7976159 2.41748344,-6.3750994 z M 35.9247417,11.9257748 c 0.1311258,0.3719206 0.1970861,0.6723179 0.1970861,0.9750994 0,0.34649 -0.1303311,0.6929801 -0.3695364,0.6929801 -0.1700662,0 -0.3433113,-0.194702 -0.3433113,-0.4982781 0,-0.3250332 0.2797351,-0.8439736 0.5157616,-1.1698014 z M 5.14513907,1.61610596 c 0,0.13192053 -0.30278145,0.73509934 -0.69059602,1.81748344 -0.41086093,1.12211921 -0.80264901,2.7202649 -0.80264901,4.64503312 0,1.14596026 0.28370861,2.66145698 0.52291391,4.19523178 L 3.48262252,13.2068344 C 2.37878146,11.8629934 1.68818543,10.3522649 1.68818543,7.75676821 c 0,-3.67390728 2.22596027,-6.22251655 3.36953642,-6.22251655 0.06834438,0 0.08741722,0.01907284 0.08741722,0.0818543 z" />
          <path
             style="fill:#d51900;fill-opacity:1"
             id="Fill-4"
             d="m 106.649563,8.62219868 c 0,-0.1962914 0.126358,-0.30119206 0.301192,-0.30119206 0.27894,0 0.712053,0.30119206 0.948874,0.90357616 -0.084238,0 -0.213775,0.02622517 -0.304371,0.02622517 -0.514172,0 -0.945695,-0.24556292 -0.945695,-0.62860927 z m -31.258808,0 c 0,-0.1962914 0.1319205,-0.30119206 0.3027814,-0.30119206 0.2813245,0 0.696159,0.30119206 0.9290066,0.90357616 -0.7994702,0 -1.231788,-0.17245033 -1.231788,-0.6023841 z m 6.031788,-3.11284769 c 0,-3.22251655 0.6238411,-3.71761589 0.8209272,-3.71761589 0.3449007,0 0.3886093,0.21615894 0.3886093,1.45192053 0,1.26993377 -0.5419868,2.93165563 -1.2095365,3.84397351 z M 67.7632053,13.3991523 c 0.1676821,1.1443709 0.3250331,2.2712583 0.3250331,3.1557616 0,2.0717881 -0.690596,4.4940397 -1.882649,4.4741722 -0.4529801,0 -0.8423841,-0.4593378 -0.8638411,-1.2548344 -0.0445033,-2.5915232 1.1896689,-4.7976159 2.421457,-6.3750994 z m 31.5592053,-1.4733775 c 0.1311258,0.3719206 0.1931126,0.6723179 0.1931126,0.9750994 0,0.34649 -0.1295364,0.6929801 -0.3671523,0.6929801 -0.170861,0 -0.3488742,-0.194702 -0.3488742,-0.4982781 0,-0.3250332 0.2837086,-0.8439736 0.5229139,-1.1698014 z M 68.537245,1.61610596 c 0,0.13192053 -0.2996026,0.73509934 -0.6913907,1.81748344 -0.4076821,1.12211921 -0.7994702,2.7202649 -0.7994702,4.64503312 0,1.14596026 0.2884768,2.66145698 0.5245033,4.19523178 l -0.6937748,0.9329801 c -1.1006623,-1.343841 -1.7960265,-2.8545695 -1.7960265,-5.45006619 0,-3.67390728 2.2307285,-6.22251655 3.3743046,-6.22251655 0.0627815,0 0.0818543,0.01907284 0.0818543,0.0818543 z M 64.9332715,12.4248477 c 0.3862252,0.5189404 0.8630464,1.0156291 1.4249007,1.5560265 -1.146755,1.8381457 -2.0535099,4.0203973 -2.0535099,5.9666225 0,1.402649 0.3266225,2.4651656 1.3645033,2.4651656 2.1592053,0 3.7788079,-4.4940398 3.7788079,-7.8254305 0,-0.9933775 -0.0421192,-1.9891391 -0.1287417,-2.9817219 0.8010596,-0.847947 2.0288742,-1.98993374 2.3356291,-2.09801321 -0.1303311,0.45456954 -0.2201324,0.93139071 -0.2201324,1.38119201 0,1.8158941 1.0386755,3.5491391 3.0508609,3.5491391 1.8786755,0 3.3051656,-1.5369536 3.3051656,-3.6802649 0,-0.2765563 -0.0198676,-0.517351 -0.0437086,-0.77562913 0.6929801,-0.12953642 1.3239735,-0.30675496 1.9255629,-0.66834437 v 4.3446358 c 0,0.5594702 0.3870198,0.7796026 0.7517881,0.7796026 0.503841,0 0.7629139,-0.3480795 1.1284768,-1.1435761 0.301192,-0.6516557 1.1245033,-2.1417219 1.6227814,-3.0309934 0.3878146,-0.69377486 0.6039735,-1.14437088 0.7811921,-1.14437088 0.0405298,0 0.0810596,0.10569536 0.0810596,0.36556291 v 3.69774837 c 0,0.9949669 0.517351,1.2556291 0.9719205,1.2556291 0.4339073,0 0.712053,-0.2376159 0.9989404,-0.6278146 1.1205298,-1.6013245 2.3109934,-3.5014569 2.7854305,-4.32556287 0.0866225,-0.14781457 0.1962914,-0.25986755 0.2797351,-0.25986755 0.0842384,0 0.1319205,0.04688742 0.1319205,0.32423841 V 13.421404 c 0,0.690596 0.2137748,1.0164238 0.7533775,1.0164238 0.4974834,0 0.8217218,-0.3480795 1.0180132,-0.7581457 0.7136424,-1.4916556 1.7721855,-3.4601324 2.2243709,-4.23496687 0.1104636,-0.17324503 0.2177483,-0.32582781 0.285298,-0.32582781 0.0842384,0 0.1080795,0.10569536 0.1080795,0.38860927 v 3.67470201 c 0,0.9949669 0.5141722,1.2556291 0.9671523,1.2556291 0.6095364,0 0.9989404,-0.434702 1.3851656,-0.9298013 0.7128476,-0.9337748 1.7531125,-2.5915232 2.3793377,-3.65562915 0.2137748,0.34728475 0.4545695,0.75894035 0.6508609,1.21192055 -0.5245033,0.6270198 -1.0378808,1.3382781 -1.0378808,2.0940397 0,0.8010596 0.5554967,1.2794702 1.1435762,1.2794702 0.9925827,0 1.8993377,-0.9544371 1.8993377,-2.2704636 0,-0.517351 -0.150199,-1.0593377 -0.344901,-1.5766887 0.885298,-0.86701987 1.945431,-1.71019868 2.723444,-1.90410596 -0.367152,0.51814569 -0.669934,1.25403973 -0.669934,2.20211916 0,1.8158941 1.038676,3.5491391 3.049272,3.5491391 1.94543,0 3.303576,-1.5369536 3.303576,-3.6802649 0,-0.6222516 -0.019868,-0.7080795 -0.060397,-0.9663576 0.449006,-0.19708609 0.840794,-0.49827815 1.146755,-0.73907285 0.25351,-0.19470199 0.452185,-0.30357616 0.600794,-0.30357616 0.195497,0 0.286888,0.15178808 0.286888,0.43231788 V 13.421404 c 0,0.690596 0.21298,1.0164238 0.753377,1.0164238 0.4951,0 0.843179,-0.3480795 1.038676,-0.7581457 0.708874,-1.4916556 1.748344,-3.48 2.20053,-4.23496687 0.108079,-0.17324503 0.196291,-0.30596026 0.261456,-0.30596026 0.088212,0 0.130332,0.06596026 0.130332,0.34569536 v 3.37589407 c 0,0.9496688 0.428344,1.5774834 1.381986,1.5774834 0.997351,0 1.493245,-0.9544371 2.359471,-2.423841 0.040529,-0.088212 0.061192,-0.1509934 0.061192,-0.2137749 0,-0.194702 -0.173245,-0.3051655 -0.344901,-0.3051655 -0.193113,0 -0.303576,0.1962913 -0.950464,0.9075496 -0.127947,0.1350994 -0.259867,0.322649 -0.496688,0.322649 -0.089007,0 -0.150199,-0.1041059 -0.150199,-0.2360265 V 8.70484768 c 0,-1.01642384 -0.459338,-1.42649006 -1.042649,-1.42649006 -0.472848,0 -0.859868,0.19470198 -1.272318,0.8002649 -0.736689,1.0831788 -1.490861,2.61933778 -1.898543,3.39337748 -0.046887,0.090596 -0.109669,0.2193377 -0.155762,0.2193377 -0.046092,0 -0.062781,-0.0667549 -0.062781,-0.2193377 V 8.70484768 c 0,-0.79788079 -0.216159,-1.42649006 -1.059338,-1.42649006 -0.888477,0 -1.339867,0.60635761 -1.987549,1.05933774 -0.414835,0.30596027 -0.779603,0.5197351 -1.063312,0.64927153 -0.428344,-1.10225166 -1.230993,-1.66092715 -1.897748,-1.64423841 -0.673907,0.02304635 -1.145166,0.43629139 -1.145166,1.12847682 0,0.70966887 0.432318,1.20397351 1.010861,1.42410596 0.325033,0.12953644 0.627815,0.15417214 1.065696,0.15417214 0.126357,0 0.25192,0 0.344106,-0.0246357 0.042119,0.2153642 0.019867,0.5221192 0.019867,0.7589404 0,1.0609271 -0.628609,2.1170861 -1.796821,2.1170861 -1.209536,0 -1.92,-1.1674172 -1.92,-2.5064901 0,-1.01721854 0.300397,-1.85880794 0.795497,-2.4405298 0.197086,-0.21774834 0.349669,-0.34966887 0.349669,-0.54913907 0,-0.10092715 -0.152583,-0.12635761 -0.28212,-0.12635761 -0.817748,0 -1.728476,0.36874172 -2.355496,0.69139072 -0.822517,0.43311259 -1.795232,1.14913908 -2.592318,1.86198676 C 99.9263841,8.96471523 99.4535364,8.20815894 99.2127417,7.62246358 99.1237351,7.38484768 99.0649272,7.10908609 98.8853245,7.10908609 c -0.149404,0 -0.2153642,0.15099338 -0.3218543,0.44900663 -0.3901987,1.14675496 -2.4635762,4.50039738 -2.917351,4.95417218 -0.0437086,0.0619868 -0.1080795,0.1303311 -0.1311258,0.1303311 -0.0405298,0 -0.0643709,-0.0214569 -0.0643709,-0.1533775 V 8.70484768 c 0,-1.01642384 -0.4076821,-1.42649006 -0.9750993,-1.42649006 -0.4760265,0 -0.8805298,0.19470198 -1.2739073,0.8002649 -0.7144371,1.0831788 -1.5766887,2.66145698 -1.9875497,3.43788078 -0.0635761,0.1335099 -0.1271523,0.1748344 -0.1478145,0.1748344 -0.0246358,0 -0.0468875,-0.0858278 -0.0468875,-0.2193377 V 8.70484768 c 0,-1.01642384 -0.4076821,-1.42649006 -0.9703311,-1.42649006 -0.4768212,0 -0.9337748,0.17721854 -1.2977483,0.8002649 -0.9107285,1.53695364 -2.421457,3.89324498 -2.7043709,4.27947018 -0.0381457,0.066755 -0.0842384,0.1104636 -0.1303311,0.1311258 -0.0381457,0 -0.0635762,-0.0421192 -0.0635762,-0.1494039 V 8.70484768 c 0,-1.01642384 -0.4092715,-1.42649006 -0.9735099,-1.42649006 -0.7803974,0 -1.2095364,0.71682119 -1.4924503,1.16821192 -0.3886093,0.62701986 -0.9043709,1.47178808 -1.3168212,2.25139076 -0.2789404,0.5213245 -0.517351,0.9933774 -0.6039735,0.9933774 -0.0437087,0 -0.0437087,-0.1962913 -0.0437087,-0.562649 v -2.895894 c 1.3637087,-1.51629139 2.2037087,-3.37350993 2.2037087,-5.40556291 0,-1.16980133 -0.517351,-1.81509934 -1.32,-1.81509934 -1.4892716,0 -2.6336424,2.33562914 -2.6336424,5.10039735 V 8.36074172 C 78.9788344,8.7938543 78.3303576,9.00524503 77.529298,9.16180132 77.1216159,7.9538543 76.2561854,7.32603974 75.5687682,7.34272848 c -0.674702,0.02304635 -1.1483444,0.43629139 -1.1483444,1.12847682 0,1.14437086 1.1205298,1.6196026 2.1170861,1.6196026 h 0.2829139 c 0.0397351,0.2177484 0.0397351,0.456159 0.0397351,0.6929802 0,1.0609271 -0.6246357,2.1170861 -1.7928476,2.1170861 -1.2111259,0 -1.9207947,-1.1674172 -1.9207947,-2.5064901 0,-1.01721854 0.3019867,-1.85880794 0.7954966,-2.4405298 0.1939073,-0.21774834 0.3464901,-0.41245033 0.3464901,-0.54913907 0,-0.10092715 -0.1525828,-0.12635761 -0.2805298,-0.12635761 -0.8225165,0 -2.6368212,1.10701986 -4.8007947,3.26860928 C 69.017245,8.81690066 68.798702,7.12895364 68.798702,5.48550993 c 0,-1.83655629 0.3671523,-3.39655629 0.4537748,-3.84635761 0.0429139,-0.2789404 0.066755,-0.45456954 0.066755,-0.58172186 0,-0.174039732 -0.0882119,-0.263046354 -0.3218543,-0.263046354 -1.7515232,0 -5.5994702,2.790198674 -5.5994702,6.962384104 0,1.70543047 0.3671523,2.91894039 1.0156291,3.97668879 -0.2415894,-0.0421193 -0.4315232,-0.0421193 -0.6087417,-0.0421193 -0.6890066,0 -1.3398675,0.1716557 -1.7435762,0.2598676 v -0.434702 c 0,-0.9258278 -0.2193377,-2.2029139 -0.6095364,-2.63602648 -0.0460927,-0.04450331 -0.1104636,-0.06357616 -0.1708609,-0.06357616 -0.1780133,0 -0.3909934,0.08344371 -0.6278146,0.21456954 -0.2622516,0.13033112 -0.5213245,0.26145695 -0.5213245,0.34569536 0,0.04132451 0,0.08503312 0.0651656,0.19231788 0.1525828,0.22172186 0.5642384,0.65006626 0.7128477,1.66887416 -0.7366888,-0.735894 -1.5758941,-1.0625165 -2.6741722,-1.0625165 -1.2993378,0 -1.6903311,0.5817218 -1.6903311,1.1690066 0,1.1237086 1.4916556,1.6855629 3.3750993,1.6855629 0.3449007,0 0.7327152,-0.0651656 1.1197351,-0.1533775 0,0.3464901 0.0437086,0.653245 0.0437086,0.9107285 0,0.367947 0.0627815,0.6500662 0.3035762,0.6500662 0.3663576,0 0.5841059,-0.7382781 0.6254304,-1.7952318 0.6699338,-0.1740397 1.3629139,-0.3234437 1.9486093,-0.3234437 0.2797351,0 0.629404,0.0389404 0.9719205,0.1056954 z m -4.2580132,-0.216159 c -0.3639735,0.0429139 -0.5856954,0.0429139 -0.9711258,0.0429139 -0.845563,0 -1.4686093,-0.3258278 -1.4686093,-0.797086 0,-0.3019868 0.149404,-0.4776159 0.5817218,-0.4776159 0.6929802,0 1.2516557,0.4776159 1.8580133,1.231788 z" />
        </g>
      </g>
    </g>
  </g>
</svg>
