<?xml version="1.0" encoding="UTF-8" standalone="no"?>
<!-- Created with Inkscape (http://www.inkscape.org/) -->
<svg
   xmlns:dc="http://purl.org/dc/elements/1.1/"
   xmlns:cc="http://creativecommons.org/ns#"
   xmlns:rdf="http://www.w3.org/1999/02/22-rdf-syntax-ns#"
   xmlns:svg="http://www.w3.org/2000/svg"
   xmlns="http://www.w3.org/2000/svg"
   xmlns:sodipodi="http://sodipodi.sourceforge.net/DTD/sodipodi-0.dtd"
   xmlns:inkscape="http://www.inkscape.org/namespaces/inkscape"
   width="360"
   height="45"
   id="svg2606"
   sodipodi:version="0.32"
   inkscape:version="0.46"
   version="1.0"
   sodipodi:docname="005.svg"
   inkscape:output_extension="org.inkscape.output.svg.inkscape">
  <defs
     id="defs2608">
    <clipPath
       clipPathUnits="userSpaceOnUse"
       id="clipPath23">
      <path
         d="M 19.257,642.097 L 319.388,642.097 L 319.388,662.001 L 19.257,662.001 L 19.257,642.097 z"
         id="path25" />
    </clipPath>
    <inkscape:perspective
       sodipodi:type="inkscape:persp3d"
       inkscape:vp_x="0 : 526.18109 : 1"
       inkscape:vp_y="0 : 1000 : 0"
       inkscape:vp_z="744.09448 : 526.18109 : 1"
       inkscape:persp3d-origin="372.04724 : 350.78739 : 1"
       id="perspective2614" />
  </defs>
  <sodipodi:namedview
     id="base"
     pagecolor="#ffffff"
     bordercolor="#666666"
     borderopacity="1.0"
     gridtolerance="10000"
     guidetolerance="10"
     objecttolerance="10"
     inkscape:pageopacity="0.0"
     inkscape:pageshadow="2"
     inkscape:zoom="1.979899"
     inkscape:cx="170.09849"
     inkscape:cy="91.428571"
     inkscape:document-units="pt"
     inkscape:current-layer="layer1"
     showgrid="true"
     units="pt"
     inkscape:window-width="1279"
     inkscape:window-height="949"
     inkscape:window-x="0"
     inkscape:window-y="25">
    <inkscape:grid
       type="xygrid"
       id="grid2664"
       visible="true"
       enabled="true"
       units="pt"
       spacingx="9pt"
       spacingy="9pt"
       empspacing="8" />
  </sodipodi:namedview>
  <metadata
     id="metadata2611">
    <rdf:RDF>
      <cc:Work
         rdf:about="">
        <dc:format>image/svg+xml</dc:format>
        <dc:type
           rdf:resource="http://purl.org/dc/dcmitype/StillImage" />
        <dc:title>J. P. Morgan Chase &amp; Co. Logo</dc:title>
        <dc:date>2008.11.23</dc:date>
        <dc:source>Frank Trampe</dc:source>
        <dc:creator>
          <cc:Agent>
            <dc:title>J. P. Morgan Chase &amp; Co.</dc:title>
          </cc:Agent>
        </dc:creator>
      </cc:Work>
    </rdf:RDF>
  </metadata>
  <g
     inkscape:label="Layer 1"
     inkscape:groupmode="layer"
     id="layer1">
    <path
       style="fill:#000000;fill-opacity:1;fill-rule:nonzero;stroke:none"
       d="M 281.21875 11.625 C 279.94891 11.625 278.9025 12.053125 278.0625 12.90625 C 277.22359 13.760469 276.8125 14.723125 276.8125 15.8125 C 276.8125 17.195 277.42686 18.73125 278.65625 20.4375 C 276.61531 21.800312 275.22188 22.949063 274.5 23.84375 C 273.78032 24.740625 273.43749 25.837188 273.4375 27.15625 C 273.4375 28.310156 273.73391 29.308123 274.3125 30.1875 C 274.89 31.067968 275.6114 31.76328 276.53125 32.25 C 277.45109 32.736718 278.42796 33.000002 279.4375 33 C 281.49594 33 283.46295 31.960313 285.3125 29.90625 C 286.86781 31.960312 288.67015 33.000002 290.71875 33 C 291.66375 33 292.49908 32.716874 293.21875 32.1875 C 293.93735 31.659219 294.40297 30.953438 294.625 30.09375 L 293.875 30.09375 C 293.34016 31.037656 292.58031 31.531249 291.59375 31.53125 C 290.86859 31.53125 290.20342 31.307031 289.5625 30.875 C 288.92265 30.444062 288.02954 29.421405 286.90625 27.8125 C 287.37765 27.185781 287.90437 26.212655 288.46875 24.875 C 289.14032 23.255156 289.80313 22.147657 290.4375 21.5625 C 291.07297 20.97625 291.80532 20.573438 292.65625 20.34375 L 292.65625 19.59375 L 285.90625 19.59375 L 285.90625 20.34375 C 287.5589 20.531875 288.37501 21.204219 288.375 22.40625 C 288.375 22.907187 288.19047 23.6075 287.84375 24.5 C 287.49813 25.393593 287.03468 26.257031 286.4375 27.09375 C 284.77719 24.737812 283.02438 22.305626 281.15625 19.78125 C 284.17172 18.264219 285.65626 16.707031 285.65625 15.09375 C 285.65625 14.056875 285.2247 13.20125 284.3125 12.5625 C 283.39922 11.92375 282.35188 11.625 281.21875 11.625 z M 309.90625 11.71875 C 308.06984 11.71875 306.38047 12.138125 304.84375 13 C 303.30703 13.861875 302.10858 15.189218 301.25 16.96875 C 300.3925 18.747188 299.96875 20.641562 299.96875 22.65625 C 299.96875 25.724219 300.88842 28.197656 302.75 30.0625 C 304.61047 31.927343 307.03532 32.843749 309.96875 32.84375 C 312.74468 32.84375 315.02642 31.828282 316.8125 29.8125 C 317.285 30.434843 317.59859 31.153906 317.78125 31.96875 L 318.46875 31.96875 L 318.46875 24.8125 L 317.78125 24.8125 C 317.66094 25.994844 317.25766 27.233439 316.59375 28.5 C 315.93093 29.767656 315.04266 30.65703 313.90625 31.1875 C 312.76656 31.717968 311.65188 31.96875 310.5625 31.96875 C 308.52594 31.96875 306.80687 31.162031 305.4375 29.53125 C 304.07141 27.899375 303.40624 25.560313 303.40625 22.5 C 303.40625 19.267968 304.0289 16.767031 305.28125 15.03125 C 306.53579 13.293281 308.21532 12.4375 310.34375 12.4375 C 312.08063 12.4375 313.64657 12.981875 315.03125 14.0625 C 316.41594 15.143125 317.33172 17.042499 317.78125 19.78125 L 318.46875 19.78125 L 318.28125 12.0625 L 317.59375 12.0625 C 317.50079 12.973594 317.25329 13.868906 316.8125 14.71875 C 316.20438 13.960781 315.26282 13.279687 314.03125 12.65625 C 312.7975 12.032812 311.42218 11.71875 309.90625 11.71875 z M 189.90625 11.78125 C 188.06984 11.78125 186.38048 12.200625 184.84375 13.0625 C 183.30594 13.924375 182.1086 15.25172 181.25 17.03125 C 180.39141 18.809688 179.96876 20.702969 179.96875 22.71875 C 179.96875 25.785625 180.88844 28.259062 182.75 30.125 C 184.60938 31.989844 187.00188 32.906249 189.9375 32.90625 C 192.71125 32.90625 194.99626 31.923124 196.78125 29.90625 C 197.25594 30.530781 197.60078 31.246565 197.78125 32.0625 L 198.46875 32.0625 L 198.46875 24.875 L 197.78125 24.875 C 197.66094 26.058438 197.25875 27.295938 196.59375 28.5625 C 195.93093 29.830156 195.04484 30.719532 193.90625 31.25 C 192.76656 31.780469 191.65077 32.062502 190.5625 32.0625 C 188.52594 32.0625 186.80578 31.223437 185.4375 29.59375 C 184.06922 27.961874 183.40626 25.623906 183.40625 22.5625 C 183.40625 19.330468 184.02782 16.860781 185.28125 15.125 C 186.53469 13.388125 188.21749 12.5 190.34375 12.5 C 192.08281 12.5 193.64876 13.044375 195.03125 14.125 C 196.41485 15.205624 197.33063 17.105001 197.78125 19.84375 L 198.46875 19.84375 L 198.28125 12.15625 L 197.59375 12.15625 C 197.50188 13.067344 197.22204 13.931406 196.78125 14.78125 C 196.17313 14.023281 195.265 13.341094 194.03125 12.71875 C 192.80078 12.095313 191.42328 11.78125 189.90625 11.78125 z M 41.25 11.84375 C 40.100469 11.84375 38.491564 11.888906 36.4375 11.96875 L 33.875 12.0625 L 33.875 12.75 L 34.25 12.75 C 35.290156 12.75 35.968439 12.850782 36.28125 13.03125 C 36.595156 13.212813 36.784219 13.5275 36.875 14 C 36.965781 14.4725 37.031248 15.530938 37.03125 17.15625 L 37.03125 27.15625 C 37.03125 28.863594 36.965782 29.970469 36.875 30.4375 C 36.784218 30.904531 36.587968 31.247811 36.25 31.46875 C 35.912031 31.689687 35.284532 31.78125 34.40625 31.78125 L 33.875 31.78125 L 33.875 32.46875 L 43.28125 32.46875 L 43.28125 31.78125 L 42.59375 31.78125 C 41.675001 31.78125 41.052345 31.680312 40.71875 31.4375 C 40.385156 31.195781 40.16922 30.811249 40.09375 30.3125 C 40.017188 29.81375 40.000002 28.768439 40 27.15625 L 40 22.84375 L 42.25 22.84375 C 44.592813 22.84375 46.226564 22.62828 47.15625 22.1875 C 48.087032 21.745625 48.782499 21.103125 49.28125 20.25 C 49.778906 19.395781 50.03125 18.395782 50.03125 17.28125 C 50.03125 15.997188 49.668126 14.937031 48.9375 14.09375 C 48.206875 13.250469 47.267967 12.675157 46.125 12.34375 C 44.982031 12.012344 43.36422 11.84375 41.25 11.84375 z M 21.90625 12.0625 L 21.90625 12.75 L 22.375 12.75 C 23.410781 12.75 24.06875 12.850781 24.375 13.03125 C 24.682343 13.211718 24.904843 13.529687 25 14 C 25.095156 14.471406 25.125001 15.533126 25.125 17.15625 L 25.125 24.09375 C 25.125 26.367656 25.067032 28.013437 24.90625 29 C 24.747656 29.98875 24.248594 30.83625 23.46875 31.5625 C 22.688907 32.28875 21.733438 32.656249 20.59375 32.65625 C 20.03375 32.65625 19.568124 32.554374 19.1875 32.375 C 18.809063 32.195625 18.625 31.944374 18.625 31.625 C 18.625 31.504687 18.670782 31.333281 18.78125 31.09375 C 18.902657 30.823594 18.96875 30.562968 18.96875 30.3125 C 18.96875 29.8925 18.829844 29.539844 18.53125 29.25 C 18.23375 28.959062 17.850312 28.812501 17.40625 28.8125 C 16.972031 28.8125 16.611094 28.988749 16.3125 29.3125 C 16.015 29.63625 15.875 30.026407 15.875 30.5 C 15.875 31.285312 16.294844 31.961406 17.125 32.53125 C 17.957343 33.1 19.115156 33.375001 20.65625 33.375 C 22.027813 33.375 23.245469 33.149061 24.28125 32.6875 C 25.317031 32.224844 26.161094 31.575156 26.78125 30.71875 C 27.401406 29.861249 27.769531 28.965936 27.90625 28.0625 C 28.040781 27.160156 28.09375 25.852031 28.09375 24.125 L 28.09375 17.15625 C 28.09375 15.460938 28.149374 14.389219 28.25 13.9375 C 28.349532 13.485781 28.564373 13.164062 28.875 13 C 29.184531 12.832656 29.841874 12.75 30.84375 12.75 L 31.34375 12.75 L 31.34375 12.0625 L 21.90625 12.0625 z M 52.78125 12.0625 L 52.78125 12.75 L 53.34375 12.75 C 54.383906 12.75 55.035311 12.850781 55.34375 13.03125 C 55.652187 13.212812 55.873592 13.5275 55.96875 14 C 56.065 14.4725 56.093748 15.529843 56.09375 17.15625 L 56.09375 26.03125 C 56.09375 27.717813 56.058908 28.876563 55.9375 29.5 C 55.817187 30.122344 55.457501 30.669375 54.90625 31.09375 C 54.356094 31.520312 53.660625 31.732032 52.78125 31.78125 L 52.78125 32.46875 L 60.125 32.46875 L 60.125 31.78125 C 59.181094 31.721094 58.459217 31.477499 57.9375 31.03125 C 57.413594 30.585 57.099531 30.061562 57 29.46875 C 56.899375 28.875937 56.843748 27.76125 56.84375 26.125 L 56.84375 14.1875 L 64.96875 32.46875 L 65.6875 32.46875 L 73.71875 14.1875 L 73.71875 27.1875 C 73.71875 28.894844 73.688905 29.970469 73.59375 30.4375 C 73.498593 30.904531 73.275466 31.246718 72.9375 31.46875 C 72.598438 31.689687 71.994535 31.78125 71.125 31.78125 L 70.40625 31.78125 L 70.40625 32.46875 L 80.21875 32.46875 L 80.21875 31.78125 L 79.3125 31.78125 C 78.387187 31.78125 77.763437 31.679218 77.4375 31.4375 C 77.109375 31.196875 76.892341 30.840313 76.8125 30.34375 C 76.731562 29.847187 76.687501 28.762969 76.6875 27.15625 L 76.6875 17.15625 C 76.6875 15.459844 76.736559 14.390312 76.84375 13.9375 C 76.947656 13.485781 77.157032 13.165156 77.46875 13 C 77.780469 12.834843 78.463591 12.75 79.46875 12.75 L 80.21875 12.75 L 80.21875 12.0625 L 73.90625 12.0625 L 66.5 28.96875 L 59 12.0625 L 52.78125 12.0625 z M 281.28125 12.40625 C 282.04797 12.40625 282.65469 12.665782 283.125 13.1875 C 283.59203 13.710313 283.84374 14.372188 283.84375 15.21875 C 283.84375 16.638438 282.77983 17.965782 280.6875 19.1875 C 279.40234 17.423281 278.78124 16.02375 278.78125 15 C 278.78125 14.258437 279.00938 13.657187 279.46875 13.15625 C 279.92703 12.656406 280.5211 12.40625 281.28125 12.40625 z M 41.5625 12.5625 C 43.424062 12.5625 44.764687 12.959219 45.59375 13.75 C 46.422812 14.539687 46.843751 15.777814 46.84375 17.46875 C 46.84375 18.576719 46.607346 19.526563 46.125 20.28125 C 45.641563 21.035938 45.035469 21.511563 44.3125 21.75 C 43.588437 21.98625 42.644531 22.125001 41.46875 22.125 L 40 22.125 L 40 12.625 C 40.362031 12.584532 40.879999 12.5625 41.5625 12.5625 z M 243.625 16.4375 C 242.43062 16.4375 241.46735 16.786406 240.6875 17.53125 C 239.90875 18.276094 239.5 19.224844 239.5 20.34375 C 239.5 21.077656 239.70374 21.758751 240.0625 22.40625 C 240.42125 23.054844 240.89251 23.596406 241.53125 24 C 242.17 24.405781 243.14844 24.867032 244.40625 25.40625 C 245.81719 26.008906 246.78203 26.569844 247.3125 27.09375 C 247.84406 27.625312 248.09376 28.276095 248.09375 29.0625 C 248.09375 29.84125 247.79234 30.558593 247.1875 31.1875 C 246.58156 31.816406 245.7286 32.124999 244.625 32.125 C 242.17172 32.125 240.625 30.475313 239.96875 27.1875 L 239.375 27.1875 L 239.375 32.25 L 239.96875 32.25 C 240.09234 31.592656 240.27422 31.080783 240.53125 30.71875 C 241.68406 32.037813 243.12 32.687502 244.84375 32.6875 C 246.34328 32.6875 247.54063 32.277499 248.4375 31.4375 C 249.33438 30.595312 249.78126 29.499375 249.78125 28.15625 C 249.78125 27.3075 249.58844 26.554844 249.21875 25.90625 C 248.84579 25.25875 248.36578 24.772656 247.75 24.40625 C 247.13531 24.039844 246.13422 23.542343 244.78125 22.9375 C 243.36703 22.299844 242.4175 21.724064 241.875 21.21875 C 241.32265 20.722188 241.03126 20.124844 241.03125 19.40625 C 241.03125 18.81125 241.24892 18.252031 241.6875 17.75 C 242.12719 17.250156 242.80937 16.999999 243.75 17 C 244.73766 17 245.62687 17.352032 246.375 18.03125 C 247.1264 18.712657 247.64218 19.626875 247.9375 20.8125 L 248.4375 20.8125 L 248.4375 16.71875 L 247.9375 16.71875 C 247.89266 17.212032 247.69922 17.67047 247.34375 18.09375 C 246.72469 17.415625 246.11859 16.965468 245.53125 16.75 C 244.94172 16.533438 244.29328 16.437501 243.625 16.4375 z M 89.84375 16.46875 C 87.424375 16.46875 85.430153 17.189532 83.8125 18.65625 C 82.194844 20.121875 81.375001 22.077343 81.375 24.5 C 81.375 26.985 82.186565 28.964843 83.78125 30.46875 C 85.375937 31.974844 87.416875 32.750001 89.90625 32.75 C 92.462344 32.75 94.525314 31.974843 96.09375 30.46875 C 97.661094 28.964844 98.437501 27.024064 98.4375 24.59375 C 98.4375 22.085781 97.605 20.107658 95.96875 18.65625 C 94.331406 17.205938 92.284996 16.468749 89.84375 16.46875 z M 126.125 16.46875 C 123.68157 16.46875 121.76672 17.310156 120.34375 19 C 118.92079 20.68875 118.1875 22.661875 118.1875 24.90625 C 118.1875 27.174688 118.95 29.053594 120.4375 30.53125 C 121.9239 32.008906 123.78797 32.749998 126.03125 32.75 C 127.14797 32.75 128.34486 32.491095 129.65625 32 C 130.61875 31.639062 131.40719 31.46875 132 31.46875 C 132.14657 31.46875 132.31733 31.468282 132.5 31.5 L 132.5 29.84375 C 132.5 28.4875 132.53968 27.633437 132.625 27.28125 C 132.70922 26.930157 132.88936 26.650938 133.15625 26.5 C 133.42203 26.349062 133.93937 26.281249 134.6875 26.28125 L 134.6875 25.75 L 127.90625 25.75 L 127.90625 26.28125 L 128.28125 26.28125 C 128.90359 26.28125 129.32954 26.340158 129.5625 26.4375 C 129.79547 26.532657 129.94983 26.718905 130.0625 27 C 130.17516 27.282187 130.25 27.844219 130.25 28.6875 C 130.25 29.406093 130.11453 29.998438 129.875 30.46875 C 129.63766 30.940156 129.21546 31.328124 128.5625 31.65625 C 127.90844 31.986562 127.17344 32.15625 126.375 32.15625 C 124.81532 32.15625 123.48969 31.597968 122.4375 30.4375 C 121.38422 29.279218 120.875 27.2825 120.875 24.5 C 120.875 21.709844 121.43641 19.782344 122.53125 18.6875 C 123.6261 17.59375 124.90062 17.03125 126.375 17.03125 C 127.80125 17.03125 129.00141 17.50125 130 18.4375 C 130.99969 19.374844 131.62064 20.645468 131.84375 22.25 L 132.375 22.25 L 132.375 17 L 131.84375 17 C 131.77375 17.633282 131.60188 18.233281 131.34375 18.78125 C 129.96562 17.242344 128.22719 16.46875 126.125 16.46875 z M 330.78125 16.46875 C 328.36188 16.46875 326.36765 17.189532 324.75 18.65625 C 323.13234 20.121875 322.31252 22.077343 322.3125 24.5 C 322.3125 26.985 323.09281 28.964843 324.6875 30.46875 C 326.28219 31.974844 328.32421 32.750001 330.8125 32.75 C 333.37078 32.75 335.43156 31.974843 337 30.46875 C 338.56734 28.964844 339.37499 27.024064 339.375 24.59375 C 339.375 22.085781 338.5425 20.107658 336.90625 18.65625 C 335.26891 17.205938 333.22141 16.468749 330.78125 16.46875 z M 229.09375 16.5 L 224.53125 27.375 C 224.20312 28.157031 223.98563 28.603906 223.9375 28.71875 C 223.45297 29.949218 223.06 30.743281 222.71875 31.125 C 222.3775 31.507812 221.85515 31.766718 221.15625 31.875 L 221.15625 32.40625 L 225.875 32.40625 L 225.875 31.875 C 225.36641 31.875 224.94655 31.743907 224.625 31.5 C 224.30672 31.257187 224.15625 30.908907 224.15625 30.4375 C 224.15625 29.996719 224.46094 29.069845 225.0625 27.625 L 225.46875 26.625 L 231.40625 26.625 L 232.625 29.53125 C 232.98047 30.373438 233.15625 30.861719 233.15625 31.03125 C 233.15625 31.362656 233.01469 31.607186 232.75 31.71875 C 232.48312 31.830312 231.97235 31.874999 231.21875 31.875 L 231.21875 32.40625 L 237.375 32.40625 L 237.375 31.875 C 236.82485 31.821407 236.42968 31.682032 236.15625 31.46875 C 235.88172 31.257656 235.66187 30.963437 235.5 30.59375 L 234.78125 28.96875 L 229.5625 16.5 L 229.09375 16.5 z M 106.34375 16.5625 C 105.46547 16.5625 104.27531 16.590625 102.78125 16.65625 L 100.5625 16.75 L 100.5625 17.28125 L 100.8125 17.28125 C 101.62078 17.28125 102.16234 17.361093 102.40625 17.5 C 102.64797 17.638906 102.805 17.887969 102.875 18.25 C 102.94609 18.612031 102.96875 19.407187 102.96875 20.65625 L 102.96875 28.375 C 102.96875 29.686406 102.945 30.515157 102.875 30.875 C 102.8061 31.23375 102.63422 31.487813 102.375 31.65625 C 102.11688 31.825781 101.64141 31.906249 100.96875 31.90625 L 100.46875 31.90625 L 100.46875 32.4375 L 108 32.4375 L 108 31.90625 L 107.25 31.90625 C 106.53797 31.90625 106.03172 31.809843 105.78125 31.625 C 105.5286 31.44125 105.36938 31.161874 105.3125 30.78125 C 105.25453 30.403906 105.25 29.601094 105.25 28.375 L 105.25 24.9375 L 105.875 24.9375 C 106.2961 24.9375 106.58109 25.015155 106.78125 25.15625 C 106.97922 25.298438 107.34563 25.662813 107.875 26.3125 C 108.40329 26.958907 108.91407 27.638281 109.40625 28.34375 C 110.9386 30.550937 112.1 31.911408 112.84375 32.4375 L 117.03125 32.4375 L 117.03125 31.90625 C 116.11359 31.875625 115.33 31.618281 114.65625 31.125 C 113.98469 30.629531 113.05844 29.588125 111.875 28 C 110.4225 26.037812 109.34156 24.907657 108.6875 24.59375 C 110.14 24.416562 111.25188 23.97625 112 23.25 C 112.75032 22.52375 113.125 21.621875 113.125 20.59375 C 113.125 19.713281 112.8275 18.977031 112.25 18.34375 C 111.6725 17.708282 110.93406 17.247656 110 16.96875 C 109.06374 16.690938 107.83672 16.5625 106.34375 16.5625 z M 143.75 16.5625 L 139.15625 27.40625 C 138.82703 28.187188 138.64516 28.635157 138.59375 28.75 C 138.1125 29.980469 137.6861 30.805782 137.34375 31.1875 C 137.00141 31.570312 136.51033 31.797969 135.8125 31.90625 L 135.8125 32.4375 L 140.53125 32.4375 L 140.53125 31.90625 C 140.02047 31.90625 139.60062 31.806406 139.28125 31.5625 C 138.96078 31.318594 138.81251 30.940155 138.8125 30.46875 C 138.8125 30.027968 139.11609 29.101093 139.71875 27.65625 L 140.125 26.65625 L 146.0625 26.65625 L 147.25 29.5625 C 147.60438 30.404688 147.8125 30.924217 147.8125 31.09375 C 147.8125 31.425156 147.67311 31.638437 147.40625 31.75 C 147.14047 31.861562 146.62969 31.90625 145.875 31.90625 L 145.875 32.4375 L 152.03125 32.4375 L 152.03125 31.90625 C 151.48328 31.851563 151.08594 31.744531 150.8125 31.53125 C 150.53906 31.320156 150.31703 31.025938 150.15625 30.65625 L 149.4375 29 L 144.21875 16.5625 L 143.75 16.5625 z M 202.125 16.71875 L 202.125 17.25 L 202.4375 17.25 C 203.23812 17.25 203.7314 17.330937 203.96875 17.46875 C 204.205 17.607656 204.3664 17.855624 204.4375 18.21875 C 204.51187 18.580781 204.5625 19.377031 204.5625 20.625 L 204.5625 28.3125 C 204.5625 29.625 204.51187 30.483907 204.4375 30.84375 C 204.3664 31.2025 204.19672 31.456564 203.9375 31.625 C 203.67719 31.794531 203.20717 31.875 202.53125 31.875 L 202.125 31.875 L 202.125 32.40625 L 209.25 32.40625 L 209.25 31.875 L 208.84375 31.875 C 208.13281 31.875 207.62875 31.778595 207.375 31.59375 C 207.12125 31.407812 206.9675 31.13172 206.90625 30.75 C 206.84391 30.367188 206.8125 29.550626 206.8125 28.3125 L 206.8125 24.53125 L 215 24.53125 L 215 28.3125 C 215 29.627187 214.97625 30.452656 214.90625 30.8125 C 214.83735 31.172344 214.6611 31.454376 214.40625 31.625 C 214.14922 31.794531 213.68969 31.875 213.03125 31.875 L 212.5 31.875 L 212.5 32.40625 L 219.59375 32.40625 L 219.59375 31.875 L 219.25 31.875 C 218.55 31.875 218.06735 31.778595 217.8125 31.59375 C 217.55874 31.408906 217.40171 31.131719 217.34375 30.75 C 217.28469 30.368282 217.25 29.547344 217.25 28.3125 L 217.25 20.625 C 217.25 19.323438 217.29516 18.502969 217.375 18.15625 C 217.45703 17.809531 217.6064 17.563282 217.84375 17.4375 C 218.08328 17.309532 218.60499 17.25 219.375 17.25 L 219.59375 17.25 L 219.59375 16.71875 L 212.5 16.71875 L 212.5 17.25 L 212.90625 17.25 C 213.69484 17.25 214.20345 17.330937 214.4375 17.46875 C 214.67157 17.607656 214.83735 17.855624 214.90625 18.21875 C 214.97625 18.580781 215 19.377031 215 20.625 L 215 23.75 L 206.8125 23.75 L 206.8125 20.625 C 206.8125 19.323438 206.85547 18.502969 206.9375 18.15625 C 207.01953 17.809531 207.19468 17.563282 207.4375 17.4375 C 207.67922 17.309532 208.16422 17.25 208.9375 17.25 L 209.25 17.25 L 209.25 16.71875 L 202.125 16.71875 z M 252.75 16.71875 L 252.75 17.25 C 253.51235 17.25 254.01156 17.317814 254.25 17.46875 C 254.48735 17.6175 254.65313 17.872657 254.71875 18.25 C 254.78656 18.627344 254.8125 19.430624 254.8125 20.625 L 254.8125 28.3125 C 254.8125 29.623907 254.78001 30.460781 254.71875 30.78125 C 254.65641 31.100625 254.50767 31.353593 254.28125 31.5625 C 254.05485 31.770313 253.58469 31.875 252.8125 31.875 L 252.46875 31.875 L 252.46875 32.40625 L 265.40625 32.40625 L 265.75 27.53125 L 265.21875 27.53125 C 264.94094 28.705938 264.54266 29.622814 264.0625 30.28125 C 263.58234 30.941875 263.09077 31.371094 262.5625 31.5625 C 262.02985 31.753906 261.35484 31.84375 260.53125 31.84375 L 259.375 31.84375 C 258.32719 31.84375 257.67704 31.670781 257.4375 31.34375 C 257.19906 31.016719 257.09374 29.919687 257.09375 28.0625 L 257.09375 24.34375 L 258.78125 24.34375 C 259.44844 24.34375 259.93765 24.410313 260.21875 24.5 C 260.49875 24.588594 260.69829 24.766094 260.84375 25.0625 C 260.98922 25.361094 261.06249 25.941875 261.0625 26.8125 L 261.59375 26.8125 L 261.59375 21.46875 L 261.0625 21.46875 C 261.0625 22.237656 261.00249 22.766562 260.90625 23.03125 C 260.81 23.297031 260.61327 23.493751 260.3125 23.625 C 260.01063 23.75625 259.47671 23.8125 258.71875 23.8125 L 257.09375 23.8125 L 257.09375 17.25 L 259.25 17.25 C 260.33719 17.25 261.10267 17.318282 261.59375 17.4375 C 262.08375 17.557813 262.51843 17.824063 262.875 18.28125 C 263.22937 18.739532 263.53625 19.532343 263.78125 20.625 L 264.3125 20.625 L 263.9375 16.71875 L 252.75 16.71875 z M 154.0625 16.75 L 154.0625 17.28125 C 154.90906 17.28125 155.44251 17.352811 155.6875 17.46875 C 155.9325 17.584687 156.10609 17.842031 156.21875 18.25 C 156.3314 18.657969 156.40625 19.452031 156.40625 20.65625 L 156.40625 29 C 156.40625 29.948281 156.35344 30.526406 156.28125 30.78125 C 156.20797 31.035 155.98531 31.279064 155.59375 31.5 C 155.20329 31.720938 154.64891 31.851561 153.90625 31.90625 L 153.90625 32.4375 L 159.71875 32.4375 L 159.71875 31.90625 C 158.88969 31.90625 158.28952 31.802032 157.875 31.5625 C 157.46047 31.324062 157.18344 31.067811 157.09375 30.78125 C 157.00516 30.495781 156.96875 29.902343 156.96875 29 L 156.96875 18.09375 L 168.125 32.8125 L 168.59375 32.8125 L 168.59375 19.8125 C 168.59375 19.140937 168.6472 18.688436 168.75 18.40625 C 168.85281 18.125156 169.0925 17.856406 169.46875 17.65625 C 169.84718 17.456094 170.375 17.335939 171.03125 17.28125 L 171.03125 16.75 L 165.375 16.75 L 165.375 17.28125 C 165.99188 17.28125 166.49891 17.369375 166.9375 17.53125 C 167.37719 17.693125 167.67032 17.910782 167.8125 18.1875 C 167.95469 18.466406 168.03125 18.962812 168.03125 19.65625 L 168.03125 29.03125 L 158.75 16.75 L 154.0625 16.75 z M 89.875 17.03125 C 91.785781 17.03125 93.244846 17.699531 94.25 19 C 95.255156 20.300469 95.750001 22.153594 95.75 24.59375 C 95.75 27.102812 95.238126 28.983437 94.21875 30.25 C 93.197187 31.516562 91.820154 32.15625 90.0625 32.15625 C 88.057656 32.15625 86.564373 31.516562 85.5625 30.25 C 84.560626 28.983437 84.062502 27.118126 84.0625 24.59375 C 84.0625 22.107656 84.560624 20.207342 85.5625 18.9375 C 86.564375 17.667656 87.992658 17.031251 89.875 17.03125 z M 330.8125 17.03125 C 332.72328 17.03125 334.18233 17.699531 335.1875 19 C 336.19484 20.300469 336.68749 22.153594 336.6875 24.59375 C 336.6875 27.102812 336.17561 28.983437 335.15625 30.25 C 334.13468 31.516562 332.75658 32.15625 331 32.15625 C 328.99516 32.15625 327.47063 31.516562 326.46875 30.25 C 325.46688 28.983437 324.96875 27.118126 324.96875 24.59375 C 324.96875 22.107656 325.46688 20.207342 326.46875 18.9375 C 327.47063 17.667656 328.93017 17.031251 330.8125 17.03125 z M 106.21875 17.125 C 108.04422 17.125 109.23656 17.461094 109.78125 18.125 C 110.32485 18.788907 110.59375 19.677656 110.59375 20.78125 C 110.59375 21.415625 110.50344 21.941874 110.34375 22.375 C 110.18297 22.807031 109.96532 23.17172 109.6875 23.4375 C 109.40969 23.704375 109.04328 23.893438 108.59375 24.03125 C 108.14531 24.170156 107.60922 24.249531 107 24.28125 C 106.39078 24.311875 105.82094 24.329531 105.25 24.34375 L 105.25 17.15625 C 105.61531 17.124532 105.93656 17.125 106.21875 17.125 z M 228.4375 19.40625 L 231.1875 26.03125 L 225.71875 26.03125 L 228.4375 19.40625 z M 143.09375 19.4375 L 145.84375 26.09375 L 140.34375 26.09375 L 143.09375 19.4375 z M 279.125 21.09375 C 280.72078 23.178437 282.63655 25.887811 284.84375 29.25 C 283.60016 30.697031 282.2447 31.4375 280.78125 31.4375 C 279.46328 31.4375 278.2622 30.868282 277.21875 29.71875 C 276.17531 28.570313 275.65625 27.322968 275.65625 26.03125 C 275.65625 25.193438 275.95765 24.335469 276.5625 23.4375 C 277.16407 22.539532 278.02469 21.765313 279.125 21.09375 z M 342.40625 29.4375 C 341.93485 29.4375 341.52327 29.600624 341.1875 29.9375 C 340.84953 30.274375 340.68749 30.685938 340.6875 31.15625 C 340.6875 31.617813 340.85608 32.027188 341.1875 32.375 C 341.51781 32.722812 341.92611 32.874999 342.40625 32.875 C 342.87766 32.875 343.28265 32.710781 343.625 32.375 C 343.96734 32.037031 344.12499 31.6375 344.125 31.15625 C 344.125 30.685938 343.96077 30.274374 343.625 29.9375 C 343.28593 29.600625 342.88861 29.4375 342.40625 29.4375 z "
       id="path29" />
    <rect
       style="fill:none;fill-opacity:1;stroke:none;stroke-width:22.5;stroke-linecap:round;stroke-linejoin:round;stroke-miterlimit:4;stroke-dasharray:none;stroke-opacity:1"
       id="rect2666"
       width="360"
       height="45"
       x="0"
       y="0" />
  </g>
</svg>
