<!-- Created with Inkscape (http://www.inkscape.org/) -->
<svg xmlns:rdf="http://www.w3.org/1999/02/22-rdf-syntax-ns#" xmlns="http://www.w3.org/2000/svg" xml:space="preserve" height="39.461" width="300" version="1.1" xmlns:cc="http://creativecommons.org/ns#" xmlns:dc="http://purl.org/dc/elements/1.1/"><metadata><rdf:RDF><cc:Work rdf:about=""><dc:format>image/svg+xml</dc:format><dc:type rdf:resource="http://purl.org/dc/dcmitype/StillImage"/><dc:title/></cc:Work></rdf:RDF></metadata><g transform="matrix(1.25,0,0,-1.25,-200.25,719.48025)"><g fill-rule="nonzero" transform="matrix(0.82318642,0,0,0.82318642,28.325536,96.189241)"><path fill="#414749" d="m240.82,576.96,6.142,0-0.311-4.442-6.143,0,0.312,4.442"/><path fill="#414749" d="m407.53,555.56c3.037,0,3.23,2.821,3.392,5.112-1.369,0-2.666,0.069-3.586-0.375-0.99-0.48-1.73-1.302-1.814-2.499-0.086-1.231,0.777-2.238,2.008-2.238zm2.822-1.167-0.068,0c-1.395-1.294-2.713-2.236-5.223-2.236-4.071,0-5.782,2.316-5.782,5.352,0,3.421,3.506,5.618,9.735,5.618h2.055c0.105,1.504,0.629,3.986-1.951,3.986-1.831,0-2.276-1.739-2.313-2.577h-5.917c0.135,2.24,1.103,3.736,2.903,4.523,1.838,0.819,4.075,1.025,5.993,1.025,3.49,0,7.772-1.736,7.483-5.993l-0.486-8.257c-0.049-0.718-0.059-1.47,0.037-3.522h-6.134l-0.332,2.081"/><path fill="#414749" d="m438.21,561.87,6.152,7.65,7.384,0-6.625-7.274,6.28-9.95-8.002,0-5.189,9.574zm-7.174-9.574,1.729,24.669,6.504,0-1.729-24.669-6.504,0"/><path fill="#414749" d="m325.61,566.96,0.068,0c1.669,2.147,3.591,2.504,5.708,2.504l-0.385-5.505c-0.438,0.033-0.882,0.033-1.328,0.033-4.286,0-4.418-2.453-4.577-5.296l-0.386-6.402h-6.672l0.892,12.754c0.108,1.54,0.146,2.565,0.104,4.459h6.359l0.217-2.547"/><path fill="#414749" d="m330.9,552.3,1.728,24.669,6.294,0-1.727-24.669-6.295,0"/><path fill="#414749" d="m285.36,560.66c-0.1-2.098,0.428-5.06,2.783-5.06,2.994,0,3.731,2.98,3.842,5.366,0.098,2.109-0.319,5.237-2.86,5.229-3.244-0.009-3.656-3.256-3.765-5.535zm-5.157,16.307,6.446,0-0.691-9.834,0.125,0c1.304,1.539,3.115,2.824,5.436,2.824,5.271,0,7.301-4.636,7.014-8.821-0.291-4.25-2.513-9.088-8.4-9.088-1.984,0-3.912,1.091-4.804,2.365h-0.137l-0.386-2.097h-6.331l1.728,24.651"/><path fill="#414749" d="m311.77,563.02c0.064,0.924-0.145,1.847-0.608,2.565s-1.165,1.162-2.163,1.093c-2.266-0.102-2.87-1.709-3.176-3.658h5.947zm-6.253-3.243c-0.19-2.374,0.353-4.288,2.782-4.288,1.815,0,2.958,1.207,2.958,2.329h6.025c-0.135-2.09-1.594-3.716-3.304-4.673-1.573-0.958-3.377-1.127-5.309-1.127-7.018,0-9.731,2.909-9.297,9.432,0.361,5.438,4.744,8.653,9.912,8.571,6.914-0.11,9.137-4.176,8.478-10.244h-12.245"/><path fill="#414749" d="m215.23,576.96,7.235,0-1.733-24.662-7.235,0,1.733,24.662"/><path fill="#414749" d="m230.47,576.96-8.649-10.957,7.707-13.705,8.667,0-8.639,14.063,9.091,10.599-8.177,0"/><path fill="#414749" d="m240.22,569.51,6.142,0-1.205-17.207-6.142,0,1.205,17.207"/><path fill="#414749" d="m254.14,569.51-0.002-2.325,0.068,0c1.917,2.506,4.555,2.731,6.176,2.731,2.347,0,4.748-1.298,5.232-3.039,1.328,2.058,3.698,3.074,6.31,3.142,3.757,0,6.369-2.4,6.099-6.207l-0.817-11.511h-6.608l0.718,10.104c0.087,1.639-0.045,3.499-2.202,3.499-3.165,0-3.041-3.533-3.074-3.739l-0.678-9.868h-6.627l0.733,10.108c0.031,1.68-0.188,3.499-2.283,3.499-3.34,0-3.269-3.533-3.266-3.739l-0.686-9.874h-6.814l1.197,17.217,6.524,0.002"/><path fill="#414749" d="m347.27,544.02-5.979,0,3.854,8.001-6.313,17.489,7.33,0,2.846-10.679,4.521,10.679,6.048,0-12.307-25.49"/><path fill="#414749" d="m359.77,566.05,8.327,0-2.662-5.384-8.327,0,2.662,5.384"/><path fill="#414749" d="m381.47,577.62c5.088,0,10.288-2.221,10.062-8.396h-7.009c0,1.619-0.944,3.463-3.317,3.463-2.375,0-5.164-1.768-5.651-6.89-0.49-5.12,0.149-8.997,4.294-8.997,3.58,0,4.297,3.087,4.371,3.689h6.954c0-2.749-2.281-8.434-11.702-8.434-9.948,0-11.72,7.229-10.892,13.969,0.696,5.643,4.713,11.596,12.89,11.596"/><path fill="#414749" d="m391.66,552.3,1.729,24.669,6.295,0-1.729-24.669-6.295,0"/><path fill="#414749" d="m425.48,566.96,0.068,0c1.67,2.147,3.591,2.504,5.747,2.504l-0.386-5.505c-0.477,0.033-0.922,0.033-1.366,0.033-4.286,0-4.417-2.453-4.577-5.296l-0.387-6.402h-6.671l0.892,12.754c0.108,1.54,0.145,2.565,0.102,4.459h6.361l0.217-2.547"/><path fill="#3c93cb" d="m180.82,548.15c-10.497,0-18.967,7.274-18.967,16.283,0,9.011,8.47,16.285,18.967,16.285,10.496,0,18.967-7.274,18.967-16.285,0-9.009-8.471-16.283-18.967-16.283zm-20.62,16.28c0-9.903,9.228-17.93,20.612-17.93s20.613,8.027,20.613,17.93-9.229,17.931-20.613,17.931c-11.408,0-20.612-8.028-20.612-17.931"/><path fill="#3c93cb" d="m183.48,553.98,0,7.918c1.48-3.311,4.097-4.041,6.218-4.041h5.886v3.548h-4.12c-2.124,0-2.789,1.576-2.789,2.482,0,2.194,1.78,3.864,4.432,6.209h-4.696c-2.031-1.331-4.015-3.44-4.926-5.807v10.963h-5.333v-10.963c-0.911,2.367-2.895,4.476-4.926,5.807h-4.696c2.653-2.345,4.432-4.015,4.432-6.209,0-0.905-0.665-2.481-2.789-2.481h-4.119v-3.548h5.886c2.12,0,4.735,0.729,6.217,4.04v-7.918h5.323zm-7.034-1.705,0,4.99c-0.421-0.284-1.467-1.107-3.623-1.107h-8.469v6.958h5.226c1.308,0,1.391,0.779,1.391,1.015,0,2.01-3.454,4.791-7.287,7.676l10.272,0.019c0.628-0.462,1.616-1.162,2.496-2.152v7.308h8.733v-7.308c0.88,0.99,1.868,1.69,2.496,2.152l10.273-0.019c-3.835-2.886-7.288-5.666-7.288-7.676,0-0.236,0.083-1.015,1.391-1.015h5.226v-6.958h-8.469c-2.156,0-3.202,0.823-3.623,1.106v-4.989h-8.745"/></g></g></svg>
