<?xml version="1.0" encoding="utf-8"?>
<!-- Generator: Adobe Illustrator 12.0.0, SVG Export Plug-In . SVG Version: 6.00 Build 51448)  -->
<!DOCTYPE svg PUBLIC "-//W3C//DTD SVG 1.1//EN" "http://www.w3.org/Graphics/SVG/1.1/DTD/svg11.dtd" [
	<!ENTITY ns_svg "http://www.w3.org/2000/svg">
	<!ENTITY ns_xlink "http://www.w3.org/1999/xlink">
]>
<svg  version="1.1" id="Layer_1" xmlns="&ns_svg;" xmlns:xlink="&ns_xlink;" width="748.344" height="179.365"
	 viewBox="0 0 748.344 179.365" overflow="visible" enable-background="new 0 0 748.344 179.365" xml:space="preserve">
<g>
	<polygon fill-rule="evenodd" clip-rule="evenodd" fill="#00529F" points="0,0 748.344,0 748.344,179.365 0,179.365 0,0 	"/>
	<polygon fill-rule="evenodd" clip-rule="evenodd" fill="#FFD520" points="340.334,122.232 386.254,122.232 386.254,135.646 
		340.334,135.646 340.334,122.232 	"/>
	<polygon fill-rule="evenodd" clip-rule="evenodd" fill="#FFD520" points="398.961,122.232 444.883,122.232 444.883,135.646 
		398.961,135.646 398.961,122.232 	"/>
	<polygon fill-rule="evenodd" clip-rule="evenodd" fill="#FFD520" points="458.203,122.232 504.129,122.232 504.129,135.646 
		458.203,135.646 458.203,122.232 	"/>
	<polygon fill-rule="evenodd" clip-rule="evenodd" fill="#FFD520" points="517.215,122.232 563.137,122.232 563.137,135.646 
		517.215,135.646 517.215,122.232 	"/>
	<polygon fill-rule="evenodd" clip-rule="evenodd" fill="#FFD520" points="575.836,122.232 618.594,122.232 618.594,135.646 
		575.836,135.646 575.836,122.232 	"/>
	<path fill-rule="evenodd" clip-rule="evenodd" fill="#FFD520" d="M191.469,83.531c-0.324,6.143-2.34,7.91-5.326,7.91
		c-5.809,0-6.293-6.621-6.293-15.492c0-9.361,0.561-15.496,6.529-15.496c2.832,0,5.244,1.291,5.574,7.912h21.139
		c-0.086-17.111-12.508-23.076-27.189-23.076c-19.689,0-30.5,12.266-29.943,30.412c0,18.484,9.453,30.906,29.859,30.906
		c14.449,0,27.273-7.016,27.273-23.076H191.469L191.469,83.531z"/>
	<path fill-rule="evenodd" clip-rule="evenodd" fill="#FFD520" d="M280.732,104.389h22.361V83.883h2.629
		c3.676,0,5.117,1.115,5.59,3.98c0.805,4.955-0.049,3.611,2.029,16.525h22.369c-1.102-10.5-1.639-16.846-2.908-21.795
		c-1.121-4.395-4.162-6.869-9.748-7.35V75.09c8.627-2.08,11.422-7.107,11.422-13.738c0-10.859-7.273-14.613-19.648-14.613h-34.096
		V104.389L280.732,104.389z"/>
	<polygon fill-rule="evenodd" clip-rule="evenodd" fill="#FFD520" points="210.473,105.076 232.588,105.076 234.924,95.717 
		251.631,95.717 253.885,105.076 277.773,105.076 259.049,46.818 229.121,46.818 210.473,105.076 	"/>
	<polygon fill-rule="evenodd" clip-rule="evenodd" fill="#00529F" points="238.693,81.816 243.783,59.879 243.951,59.879 
		248.547,81.816 238.693,81.816 	"/>
	<path fill-rule="evenodd" clip-rule="evenodd" fill="#00529F" d="M301.871,69.863V58.916h2.086c4.465,0,7.418,0.889,7.418,5.117
		c0,4.316-3.189,5.83-7.582,5.83H301.871L301.871,69.863z"/>
	<path fill-rule="evenodd" clip-rule="evenodd" fill="#FFFFFF" d="M341.086,105.311h23.529V69.07c0-4.637,2.039-6.486,4.266-6.486
		c2.24,0,4.09,2.203,4.09,6.254v36.473h23.518V69.07c0-4.637,2.039-6.486,4.281-6.486c2.234,0,4.074,2.203,4.074,6.254v36.473
		h23.531V66.645c0-15.406-7.102-21.188-16.914-21.188c-5.547,0-11.383,2.186-15.367,10.529c-3-7.184-8.445-10.529-15.934-10.529
		c-5.541,0-11.373,2.186-15.355,10.529h-0.189l-0.588-8.799h-22.941V105.311L341.086,105.311z"/>
	<polygon fill-rule="evenodd" clip-rule="evenodd" fill="#FFFFFF" points="535.172,105.396 558.703,105.396 542.574,74.451 
		555.707,47.859 531.195,47.859 524.684,66.164 516.828,47.859 492.316,47.859 506.594,74.451 490.863,105.396 514.66,105.396 
		524.684,84.275 535.172,105.396 	"/>
	<path fill-rule="evenodd" clip-rule="evenodd" fill="#FFFFFF" d="M466.879,69.639h-3.227c-20.961,0-32.113,5.844-32.113,20.059
		c0,11.348,8.027,17.535,19.402,17.535c6.129,0,12.035-1.945,15.938-7.227l0.672,5.508h23.633V66.652
		c0-13.406-6.922-20.402-28.426-20.402c-14.164,0-27.977,3.322-28.871,18.801h22.289c0.34-4.813,2.125-5.957,5.473-5.957
		c3.781,0,5.23,1.721,5.23,4.58V69.639L466.879,69.639z"/>
	<path fill-rule="evenodd" clip-rule="evenodd" fill="#00529F" d="M465.059,85.525c0,4.701-1.449,7.801-6.133,7.801
		c-4.121,0-6.25-2.301-6.25-5.967c0-3.203,1.57-6.646,8.699-6.646h3.684V85.525L465.059,85.525z"/>
	<path fill-rule="evenodd" clip-rule="evenodd" fill="#D4DE28" d="M562.699,56.291h0.898v-2.955h1.125
		c1.066,0,1.313,0.256,1.41,1.25c0.125,1.023,0.191,1.289,0.32,1.705h0.93c-0.227-0.648-0.289-1.258-0.379-2.059
		c-0.098-0.809-0.328-1.088-0.996-1.25c1.215-0.359,1.215-1.385,1.215-1.576c0-1.633-1.734-1.633-2.215-1.633h-2.309V56.291
		L562.699,56.291z M563.598,50.541h1.41c0.48,0,1.285,0,1.285,1.025c0,1.002-0.832,1.002-1.285,1.002h-1.41V50.541L563.598,50.541z
		 M564.91,47.018c-3.238,0-6.059,2.658-6.059,6.063c0,3.402,2.793,6.1,6.059,6.1c3.309,0,6.07-2.697,6.07-6.1
		C570.98,49.709,568.25,47.018,564.91,47.018v0.713c3.02,0,5.344,2.475,5.344,5.35c0,2.986-2.387,5.389-5.344,5.389
		c-2.922,0-5.344-2.369-5.344-5.389c0-2.947,2.422-5.35,5.344-5.35V47.018L564.91,47.018z"/>
</g>
</svg>
