<?xml version="1.0" encoding="UTF-8" standalone="no"?>
<!-- Created with Inkscape (http://www.inkscape.org/) -->
<svg
   xmlns:svg="http://www.w3.org/2000/svg"
   xmlns="http://www.w3.org/2000/svg"
   version="1.0"
   width="270.54199"
   height="46.353001"
   viewBox="0 0 270.542 46.353"
   id="Layer_1"
   xml:space="preserve"><defs
   id="defs36" />
<g
   transform="matrix(0.9141682,0,0,0.9141682,12.432996,1.9892794)"
   id="g3">
	<path
   d="M 270.542,18.114 L 250.771,18.114 L 255.662,0 L 238.843,18.114 L 159.952,18.114 C 159.952,18.114 159.652,18.11 159.662,18.287 C 159.662,18.413 159.782,18.458 159.952,18.458 L 237.372,19.697 L 227.673,30.148 C 227.673,30.148 227.492,30.316 227.603,30.415 C 227.683,30.482 227.783,30.437 227.883,30.328 L 238.872,19.72 L 248.692,19.879 L 246.832,28.296 L 215.083,45.352 C 215.083,45.352 214.843,45.46 214.933,45.602 C 215.003,45.695 215.113,45.679 215.223,45.629 L 246.423,30.107 L 242.893,46.053 C 242.893,46.053 242.813,46.315 242.973,46.348 C 243.103,46.375 243.162,46.289 243.213,46.152 L 247.713,29.469 L 270.542,18.114 M 240.542,18.114 L 251.411,7.626 L 249.081,18.114 L 240.542,18.114 z M 250.292,19.905 L 262.092,20.094 L 248.232,27.54 L 250.292,19.905 z"
   id="path5"
   style="fill:#005daa" />
	<polyline
   points="1.847,24.06 5.289,24.06 3.939,30.413 7.104,30.413 6.607,32.749 0,32.749 1.847,24.06  "
   id="polyline7"
   style="fill:#005daa" />
	<path
   d="M 17.298,28.402 C 17.715,26.442 18.162,26.094 18.715,26.094 C 19.271,26.094 19.57,26.442 19.151,28.402 C 18.724,30.413 18.263,30.714 17.734,30.714 C 17.203,30.714 16.872,30.413 17.298,28.402 M 13.736,28.402 C 13.16,31.113 14.256,32.976 17.252,32.976 C 20.249,32.976 22.138,31.113 22.714,28.402 C 23.289,25.695 22.194,23.829 19.195,23.829 C 16.201,23.829 14.31,25.695 13.736,28.402 z"
   id="path9"
   style="fill:#005daa" />
	<path
   d="M 37.447,29.534 C 36.939,31.93 34.802,32.976 32.648,32.976 C 29.602,32.976 28.59,31.124 29.175,28.368 C 29.663,25.66 31.666,23.829 34.604,23.829 C 36.795,23.829 38.46,24.719 37.927,27.273 L 34.775,27.273 C 34.937,26.284 34.615,26.094 34.194,26.094 C 33.304,26.094 33.026,27.006 32.728,28.402 C 32.447,29.727 32.312,30.714 33.175,30.714 C 33.624,30.714 33.978,30.451 34.221,29.534 L 37.447,29.534"
   id="path11"
   style="fill:#005daa" />
	<polyline
   points="46.185,24.06 49.552,24.06 48.76,27.789 48.783,27.789 51.347,24.06 54.983,24.06 51.789,28.15    53.459,32.749 49.728,32.749 48.559,28.849 48.535,28.849 47.708,32.749 44.336,32.749 46.185,24.06  "
   id="polyline13"
   style="fill:#005daa" />
	<polyline
   points="66.033,29.548 64.564,29.548 63.882,32.749 60.441,32.749 62.287,24.06 65.728,24.06    65.105,26.994 66.573,26.994 67.197,24.06 70.637,24.06 68.794,32.749 65.351,32.749 66.033,29.548  "
   id="polyline15"
   style="fill:#005daa" />
	<polyline
   points="78.65,24.06 85.257,24.06 84.776,26.323 81.466,26.323 81.267,27.248 84.326,27.248    83.846,29.509 80.788,29.509 80.58,30.487 84,30.487 83.517,32.749 76.802,32.749 78.65,24.06  "
   id="polyline17"
   style="fill:#005daa" />
	<polyline
   points="93.479,24.06 100.09,24.06 99.607,26.323 96.297,26.323 96.1,27.248 99.157,27.248 98.677,29.509    95.621,29.509 95.413,30.487 98.83,30.487 98.351,32.749 91.634,32.749 93.479,24.06  "
   id="polyline19"
   style="fill:#005daa" />
	<path
   d="M 111.312,26.032 L 111.652,26.032 C 112.202,26.032 112.482,26.237 112.632,26.587 C 112.781,26.947 112.722,27.562 112.542,28.402 C 112.361,29.245 112.161,29.86 111.852,30.22 C 111.562,30.569 111.192,30.773 110.642,30.773 L 110.302,30.773 L 111.312,26.032 M 106.512,32.749 L 110.802,32.749 C 113.472,32.749 115.531,31.124 116.082,28.501 C 116.632,25.924 115.922,24.06 112.441,24.06 L 108.361,24.06 L 106.512,32.749 z"
   id="path21"
   style="fill:#005daa" />
	<polyline
   points="138.952,26.538 138.922,26.538 136.373,32.749 133.222,32.749 133.322,26.538 133.292,26.538    131.972,32.749 129.062,32.749 130.902,24.06 135.682,24.06 135.532,29.236 135.562,29.236 137.612,24.06 142.392,24.06    140.542,32.749 137.632,32.749 138.952,26.538  "
   id="polyline23"
   style="fill:#005daa" />
	<path
   d="M 152.462,29.236 L 153.911,25.96 L 153.932,25.96 L 153.932,29.236 L 152.462,29.236 M 147.542,32.749 L 150.842,32.749 L 151.491,31.352 L 153.981,31.352 L 154.021,32.749 L 157.582,32.749 L 156.632,24.06 L 152.172,24.06 L 147.542,32.749 z"
   id="path25"
   style="fill:#005daa" />
	<path
   d="M 169.642,27.68 L 169.992,26.032 L 170.312,26.032 C 170.982,26.032 171.392,26.165 171.262,26.803 C 171.121,27.453 170.592,27.68 169.932,27.68 L 169.642,27.68 M 165.192,32.749 L 168.572,32.749 L 169.222,29.655 L 169.621,29.655 C 170.182,29.655 170.351,29.823 170.342,30.256 C 170.292,31.003 170.172,32.098 170.241,32.749 L 173.611,32.749 C 173.491,31.437 173.771,30.211 173.741,29.463 C 173.712,28.801 173.332,28.428 172.512,28.355 L 172.512,28.332 C 173.882,28.019 174.462,27.259 174.672,26.261 C 175.022,24.626 174.052,24.06 172.182,24.06 L 167.042,24.06 L 165.192,32.749 z"
   id="path27"
   style="fill:#005daa" />
	<polyline
   points="184.502,26.393 182.362,26.393 182.862,24.06 190.582,24.06 190.092,26.393 187.942,26.393    186.592,32.749 183.152,32.749 184.502,26.393  "
   id="polyline29"
   style="fill:#005daa" />
	<polyline
   points="198.482,24.06 201.932,24.06 200.083,32.749 196.642,32.749 198.482,24.06  "
   id="polyline31"
   style="fill:#005daa" />
	<polyline
   points="210.312,24.06 214.442,24.06 215.162,29.318 215.192,29.318 216.302,24.06 219.102,24.06    217.252,32.749 213.122,32.749 212.412,27.453 212.382,27.453 211.252,32.749 208.462,32.749 210.312,24.06  "
   id="polyline33"
   style="fill:#005daa" />
</g>
</svg>