<?xml version="1.0" encoding="UTF-8" standalone="no"?>
<!-- Created with Inkscape (http://www.inkscape.org/) -->

<svg
   xmlns:dc="http://purl.org/dc/elements/1.1/"
   xmlns:cc="http://creativecommons.org/ns#"
   xmlns:rdf="http://www.w3.org/1999/02/22-rdf-syntax-ns#"
   xmlns:svg="http://www.w3.org/2000/svg"
   xmlns="http://www.w3.org/2000/svg"
   xmlns:sodipodi="http://sodipodi.sourceforge.net/DTD/sodipodi-0.dtd"
   xmlns:inkscape="http://www.inkscape.org/namespaces/inkscape"
   width="154.33298"
   height="50.060081"
   viewBox="0 0 40.833934 13.245063"
   version="1.1"
   id="svg8111"
   inkscape:version="0.92.0 r15299"
   sodipodi:docname="lincoln financial.svg">
  <defs
     id="defs8105">
    <clipPath
       id="clipPath7495"
       clipPathUnits="userSpaceOnUse">
      <path
         inkscape:connector-curvature="0"
         id="path7493"
         d="m 258,422.6 h 114.999 v 58.399 H 258 Z" />
    </clipPath>
  </defs>
  <sodipodi:namedview
     id="base"
     pagecolor="#ffffff"
     bordercolor="#666666"
     borderopacity="1.0"
     inkscape:pageopacity="0.0"
     inkscape:pageshadow="2"
     inkscape:zoom="5.2304804"
     inkscape:cx="76.666418"
     inkscape:cy="10.126602"
     inkscape:document-units="mm"
     inkscape:current-layer="layer1"
     showgrid="false"
     fit-margin-top="0"
     fit-margin-left="0"
     fit-margin-right="0"
     fit-margin-bottom="0"
     units="px"
     inkscape:window-width="1280"
     inkscape:window-height="744"
     inkscape:window-x="-4"
     inkscape:window-y="-4"
     inkscape:window-maximized="1" />
  <metadata
     id="metadata8108">
    <rdf:RDF>
      <cc:Work
         rdf:about="">
        <dc:format>image/svg+xml</dc:format>
        <dc:type
           rdf:resource="http://purl.org/dc/dcmitype/StillImage" />
        <dc:title></dc:title>
      </cc:Work>
    </rdf:RDF>
  </metadata>
  <g
     inkscape:label="Layer 1"
     inkscape:groupmode="layer"
     id="layer1"
     transform="translate(43.71918,-138.2676)">
    <g
       id="g9893"
       transform="translate(0.13229344,-0.1322876)">
      <path
         d="m -30.889494,150.71517 h 0.379589 v -1.2065 h 0.983544 v -0.33479 h -0.983544 v -0.77434 h 1.0287 v -0.33373 h -1.408289 z"
         style="fill:#231f20;fill-opacity:1;fill-rule:nonzero;stroke:none;stroke-width:0.35277778"
         id="path7483"
         inkscape:connector-curvature="0" />
      <path
         inkscape:connector-curvature="0"
         id="path7487"
         style="fill:#231f20;fill-opacity:1;fill-rule:nonzero;stroke:none;stroke-width:0.35277778"
         d="m -29.008938,148.34655 h 0.40252 v -0.40252 h -0.40252 z m 0.02258,2.36855 h 0.356658 v -1.93604 h -0.356658 z" />
      <path
         d="m -28.007014,150.71517 h 0.357717 v -0.89641 c 0,-0.4706 0.181327,-0.79622 0.587727,-0.79622 0.311856,0.0194 0.409575,0.23919 0.409575,0.69109 v 1.00154 h 0.356659 v -1.15006 c 0,-0.52034 -0.223661,-0.83114 -0.724606,-0.83114 -0.269169,0 -0.527403,0.1337 -0.634294,0.35348 h -0.0071 v -0.30832 h -0.345722 z"
         style="fill:#231f20;fill-opacity:1;fill-rule:nonzero;stroke:none;stroke-width:0.35277778"
         id="path7499"
         inkscape:connector-curvature="0" />
      <path
         inkscape:connector-curvature="0"
         id="path7503"
         style="fill:#231f20;fill-opacity:1;fill-rule:nonzero;stroke:none;stroke-width:0.35277778"
         d="m -24.56856,149.96315 c 0,0.28857 -0.185208,0.50941 -0.537633,0.50941 -0.163336,0 -0.360186,-0.11077 -0.360186,-0.31468 0,-0.34219 0.477308,-0.37324 0.670983,-0.37324 0.0762,0 0.152047,0.009 0.226836,0.009 z m -1.039636,-0.7433 c 0.144639,-0.12171 0.361244,-0.19756 0.561975,-0.19756 0.356658,0 0.477661,0.1711 0.477661,0.50553 -0.139347,-0.008 -0.238478,-0.008 -0.379589,-0.008 -0.367242,0 -0.898878,0.15275 -0.898878,0.63852 0,0.42051 0.292453,0.60219 0.709789,0.60219 0.326672,0 0.516114,-0.1785 0.599722,-0.29598 h 0.0081 v 0.25118 h 0.333023 c -0.0074,-0.0579 -0.01446,-0.16016 -0.01446,-0.37994 v -0.80151 c 0,-0.5274 -0.224014,-0.8001 -0.778228,-0.8001 -0.246945,0 -0.458964,0.0759 -0.637117,0.18309 z" />
      <path
         d="m -23.637156,150.71517 h 0.356658 v -0.89641 c 0,-0.4706 0.181328,-0.79622 0.587023,-0.79622 0.312561,0.0194 0.41028,0.23919 0.41028,0.69109 v 1.00154 h 0.357717 v -1.15006 c 0,-0.52034 -0.224367,-0.83114 -0.724606,-0.83114 -0.270228,0 -0.528814,0.1337 -0.633941,0.35348 h -0.0078 v -0.30832 h -0.345369 z"
         style="fill:#231f20;fill-opacity:1;fill-rule:nonzero;stroke:none;stroke-width:0.35277778"
         id="path7507"
         inkscape:connector-curvature="0" />
      <path
         inkscape:connector-curvature="0"
         id="path7511"
         style="fill:#231f20;fill-opacity:1;fill-rule:nonzero;stroke:none;stroke-width:0.35277778"
         d="m -20.088952,148.80943 c -0.101247,-0.0413 -0.287867,-0.0759 -0.432858,-0.0759 -0.591609,0 -0.986014,0.4251 -0.986014,1.01283 0,0.55562 0.402519,1.01353 0.986014,1.01353 0.129822,0 0.300566,-0.0113 0.44838,-0.0783 l -0.02646,-0.31997 c -0.110772,0.0727 -0.262467,0.11077 -0.384175,0.11077 -0.457906,0 -0.645231,-0.37923 -0.645231,-0.72601 0,-0.3676 0.225073,-0.7239 0.624064,-0.7239 0.113242,0 0.25012,0.0268 0.386645,0.084 z" />
      <path
         d="m -19.268038,147.94438 h -0.401814 v 0.40252 h 0.401814 z m -0.380295,2.77072 h 0.357717 v -1.93604 h -0.357717 z"
         style="fill:#231f20;fill-opacity:1;fill-rule:nonzero;stroke:none;stroke-width:0.35277778"
         id="path7515"
         inkscape:connector-curvature="0" />
      <path
         inkscape:connector-curvature="0"
         id="path7519"
         style="fill:#231f20;fill-opacity:1;fill-rule:nonzero;stroke:none;stroke-width:0.35277778"
         d="m -17.517872,149.96315 c 0,0.28857 -0.186619,0.50941 -0.538692,0.50941 -0.163336,0 -0.360891,-0.11077 -0.360891,-0.31468 0,-0.34219 0.477661,-0.37324 0.671689,-0.37324 0.07514,0 0.151341,0.009 0.227894,0.009 z m -1.040342,-0.7433 c 0.143581,-0.12171 0.360186,-0.19756 0.560917,-0.19756 0.357717,0 0.479425,0.1711 0.479425,0.50553 -0.140758,-0.008 -0.239889,-0.008 -0.379589,-0.008 -0.368653,0 -0.899583,0.15275 -0.899583,0.63852 0,0.42051 0.291041,0.60219 0.710141,0.60219 0.325262,0 0.516114,-0.1785 0.598664,-0.29598 h 0.0074 v 0.25118 h 0.335139 c -0.0081,-0.0579 -0.01658,-0.16016 -0.01658,-0.37994 v -0.80151 c 0,-0.5274 -0.224014,-0.8001 -0.777522,-0.8001 -0.246239,0 -0.458611,0.0759 -0.637822,0.18309 z" />
      <path
         d="m -16.542477,150.7151 h 0.355953 v -2.84621 h -0.355953 z"
         style="fill:#231f20;fill-opacity:1;fill-rule:nonzero;stroke:none;stroke-width:0.35277778"
         id="path7523"
         inkscape:connector-curvature="0" />
      <path
         inkscape:connector-curvature="0"
         id="path7527"
         style="fill:#231f20;fill-opacity:1;fill-rule:nonzero;stroke:none;stroke-width:0.35277778"
         d="m -12.585263,148.15326 c -0.220486,-0.0762 -0.390525,-0.13229 -0.778228,-0.13229 -0.808214,0 -1.400528,0.54186 -1.400528,1.35819 0,0.84208 0.558448,1.38077 1.397706,1.38077 0.413808,0 0.663928,-0.0681 0.808567,-0.11676 v -1.37725 h -0.936978 v 0.3108 h 0.55633 v 0.80363 c -0.0949,0.0198 -0.162983,0.0459 -0.425097,0.0459 -0.549275,0 -0.997655,-0.41346 -0.997655,-1.03541 0,-0.5916 0.406047,-1.03646 1.016705,-1.03646 0.342547,0 0.542925,0.061 0.728134,0.18239 z" />
      <path
         d="m -12.01655,150.71517 h 0.356306 v -0.88053 c 0,-0.48648 0.208491,-0.78987 0.527755,-0.78987 0.05997,0 0.13335,0.008 0.197556,0.0349 v -0.31961 c -0.07585,-0.0148 -0.12947,-0.0261 -0.235656,-0.0261 -0.205317,0 -0.410633,0.14464 -0.50553,0.34572 h -0.0063 v -0.30056 H -12.0165 Z"
         style="fill:#231f20;fill-opacity:1;fill-rule:nonzero;stroke:none;stroke-width:0.35277778"
         id="path7531"
         inkscape:connector-curvature="0" />
      <path
         inkscape:connector-curvature="0"
         id="path7535"
         style="fill:#231f20;fill-opacity:1;fill-rule:nonzero;stroke:none;stroke-width:0.35277778"
         d="m -10.386011,149.74641 c 0,-0.36724 0.223661,-0.72355 0.6074833,-0.72355 0.3795889,0 0.6025445,0.35631 0.6025445,0.72355 0,0.34713 -0.1855612,0.72602 -0.6025445,0.72602 -0.4222753,0 -0.6074833,-0.37889 -0.6074833,-0.72602 m -0.379589,0 c 0,0.55562 0.401814,1.01353 0.9870723,1.01353 0.5806722,0 0.9824861,-0.45791 0.9824861,-1.01353 0,-0.58737 -0.3944055,-1.01247 -0.9824861,-1.01247 -0.5926663,0 -0.9870723,0.4251 -0.9870723,1.01247" />
      <path
         d="m -6.7025877,148.7792 h -0.3570111 v 0.89641 c 0,0.46955 -0.1830917,0.79692 -0.5891389,0.79692 -0.3104444,-0.0201 -0.4081639,-0.23989 -0.4081639,-0.69074 v -1.00259 h -0.3577166 v 1.15041 c 0,0.51999 0.2247194,0.83044 0.7249583,0.83044 0.2695222,0 0.5274028,-0.13229 0.6339417,-0.35278 h 0.00706 v 0.30797 h 0.346075 z"
         style="fill:#231f20;fill-opacity:1;fill-rule:nonzero;stroke:none;stroke-width:0.35277778"
         id="path7539"
         inkscape:connector-curvature="0" />
      <path
         inkscape:connector-curvature="0"
         id="path7543"
         style="fill:#231f20;fill-opacity:1;fill-rule:nonzero;stroke:none;stroke-width:0.35277778"
         d="m -4.7308422,149.73925 c 0.00811,0.30374 -0.1520472,0.73342 -0.5348111,0.73342 -0.4021667,0 -0.5700889,-0.39863 -0.5700889,-0.72178 0,-0.35983 0.1866195,-0.72848 0.5743222,-0.72848 0.3862917,0 0.5386917,0.36865 0.5305778,0.71684 m -1.4605,1.77341 h 0.3556 v -1.06327 h 0.00811 c 0.1097139,0.17851 0.3030361,0.3108 0.6459361,0.3108 0.5827889,0 0.8304389,-0.51541 0.8304389,-1.04669 0,-0.52 -0.2737556,-0.97967 -0.835025,-0.97967 -0.3414889,0 -0.561975,0.17498 -0.6561667,0.31891 h -0.00706 v -0.2734 h -0.3418417 z" />
      <path
         d="m -42.642141,138.9204 h 9.363075 c 0.59443,0 1.077736,0.4826 1.077736,1.07703 v 9.66258 c 0,0.59408 -0.483306,1.07633 -1.077736,1.07633 h -2.139597 c -0.239184,-0.20708 -0.524581,-0.44979 -0.633589,-0.52282 -0.150636,-0.10019 -0.270228,-0.16933 -0.202847,-0.30409 0.117827,-0.23495 0.227188,-0.54046 0.308327,-0.51365 0.0822,0.0268 0.460728,0.0811 0.567973,0.13547 0.05433,0.0265 0.27058,0.0265 0.486833,-0.0811 0.351719,-0.16228 0.432858,-0.4318 0.487186,-0.45896 0.05362,-0.0279 0.161925,-0.18909 0.161925,-0.18909 0,0 0.08114,-0.0819 0.08114,-0.1898 0.02646,-0.13511 0.05362,-0.40569 -0.05398,-0.56726 -0.08149,-0.13582 -0.270581,-0.32597 -0.405342,-0.37959 -0.189794,-0.0811 -0.243769,-0.13512 -0.243769,-0.26988 -0.02716,-0.10795 0.216252,-0.13546 0.243769,-0.32455 0,-0.11501 -0.06421,-0.21731 -0.176742,-0.21731 v -0.0423 c 0.09666,-0.0116 0.257528,-0.0646 0.230364,-0.22719 -0.02681,-0.16227 -0.134761,-0.27022 -0.134761,-0.27022 0,0 -0.02716,-0.16193 0.05362,-0.21661 0.108303,-0.054 0.351367,0 0.540456,-0.0268 0.189794,-0.0272 0.379236,-0.054 0.379236,-0.24342 0,-0.29739 -0.189442,-0.48612 -0.379236,-0.78352 -0.189089,-0.29809 -0.378178,-0.48648 -0.405342,-0.54116 -0.02681,-0.0808 -0.03422,-0.18309 -0.03422,-0.18309 0,0 0.170392,-0.14393 0.22225,-0.19367 0.09666,-0.0938 0.216253,-0.22402 0.135819,-0.38594 -0.02752,-0.0808 -0.135466,-0.0808 -0.190147,-0.16158 -0.08114,-0.0818 -0.05398,-0.24376 -0.135114,-0.32526 -0.05433,-0.0808 -0.05433,-0.24341 -0.135114,-0.37817 -0.05433,-0.16193 -0.133702,-0.43427 -0.133702,-0.43427 0,0 0.292805,-0.18874 0.319616,-0.27023 0.135114,-0.32385 0.112889,-0.56092 0.112889,-0.56092 0,0 0.108303,-0.4325 -0.162278,-0.70308 -0.08079,-0.1076 -0.188736,-0.2159 -0.297391,-0.26953 -0.162278,-0.10865 -0.324203,-0.2159 -0.432506,-0.27058 -0.189089,-0.0815 -0.430036,-0.14252 -0.61983,-0.19614 -0.189089,-0.0815 -0.270934,-0.0815 -0.35172,-0.0815 -0.107597,0.0275 -0.2159,0.0275 -0.269875,0 -0.08149,0 -0.405694,-0.10795 -0.595489,-0.0808 -0.161219,0 -0.377825,0.1083 -0.729897,0.13476 -0.350661,0.0543 -0.648405,-0.0265 -0.837494,0.0275 -0.189442,0.0811 -0.297039,0.0536 -0.405695,0.1083 -0.108303,0.054 -0.245533,0.0878 -0.245533,0.0878 0,0 -0.189089,0.0547 -0.269875,0.0808 -0.05397,0.0543 -0.216253,0.16263 -0.216253,0.16263 l -0.16263,0.16263 c -0.05398,0 -0.2159,0.0808 -0.243064,0.13406 l -0.108303,0.10865 c 0,0 -0.08079,0.0272 -0.135114,0.0811 -0.05468,0.0536 -0.16263,0.21625 -0.216253,0.24271 -0.08149,0.0275 -0.168627,0.1083 -0.358069,0.27058 -0.189089,0.1898 -0.405342,0.46002 -0.432858,0.54081 -0.02716,0.0543 -0.161925,0.32526 -0.161925,0.37888 -0.02752,0.0815 -0.08114,0.35172 -0.135114,0.40464 -0.02752,0.0543 -0.189442,0.37924 -0.189442,0.43356 -0.02681,0.0804 -0.02681,0.35137 -0.05433,0.4318 -0.02681,0.0815 -0.135114,0.4064 -0.135114,0.64982 0,0.21625 0.135114,0.37783 0.135114,0.45967 0.02752,0.0804 0.08114,0.45861 0.08114,0.62124 0.02716,0.13582 0.155928,0.59478 0.20955,0.70344 0.02681,0.1076 0.13582,0.24342 0.13582,0.24342 0,0 0.06914,0.26246 0.231422,0.4258 0.162278,0.18979 0.324555,0.38488 0.405341,0.43921 0.162278,0.1337 0.202848,0.47237 0.202848,0.47237 0,0 -0.25012,0.0476 -0.304448,0.1016 -0.05397,0.0811 -0.276577,0.65687 -0.506588,1.04775 -0.218017,0.37112 -0.60572,0.74048 -0.630767,0.90558 -0.02293,0.15028 0.1778,0.28398 0.123472,0.3108 -0.03104,0.0162 -0.260703,0.31185 -0.448028,0.55668 h -0.159808 c -0.594078,0 -1.077031,-0.48225 -1.077031,-1.07633 v -9.66258 c 0,-0.59443 0.482953,-1.07703 1.077031,-1.07703"
         style="fill:#960a2c;fill-opacity:1;fill-rule:nonzero;stroke:none;stroke-width:0.35277778"
         id="path7547"
         inkscape:connector-curvature="0" />
      <path
         inkscape:connector-curvature="0"
         id="path7551"
         style="fill:#960a2c;fill-opacity:1;fill-rule:nonzero;stroke:none;stroke-width:0.35277778"
         d="m -29.96045,143.31372 c 0,0.39123 -0.0085,0.98319 -0.02681,1.43863 -0.0095,0.24588 -0.06456,0.40111 -0.78352,0.40111 -0.20955,0 -0.20955,0.0547 -0.20955,0.15487 0,0.0818 0,0.11818 0.07338,0.11818 0.0628,0 0.100189,-0.018 1.437922,-0.018 3.560939,0 3.280481,0.018 3.38067,0.018 0.04586,0 0.08255,-0.018 0.09031,-0.0727 0.155928,-0.91969 0.346075,-1.66722 0.346075,-1.71203 0,-0.0822 -0.01693,-0.10971 -0.190147,-0.10971 -0.08185,0 -0.06597,0.0631 -0.127353,0.2547 -0.384175,1.17581 -0.843139,1.3388 -2.105731,1.3388 -0.69215,0 -0.946502,-0.0448 -0.957086,-0.37324 -0.01729,-0.45544 -0.0261,-1.0474 -0.0261,-1.43863 v -2.23132 c 0,-0.64664 0.0088,-0.86536 0.01834,-1.28446 0.0078,-0.53658 0.163689,-0.60996 0.955675,-0.60996 0.09984,0 0.09984,-0.0734 0.09984,-0.15522 0,-0.054 -0.01799,-0.11818 -0.0822,-0.11818 -0.07161,0 -0.864658,0.0363 -1.447094,0.0363 -0.57397,0 -1.320448,-0.0363 -1.39312,-0.0363 -0.0642,0 -0.08255,0.0642 -0.08255,0.11818 0,0.0819 0,0.15522 0.100189,0.15522 0.746831,0 0.902053,0.0734 0.91052,0.60996 0.0099,0.4191 0.01834,0.63782 0.01834,1.28446 z" />
      <path
         d="m -24.629802,139.91665 c 0.273403,0 0.473781,-0.23707 0.473781,-0.4826 0,-0.24589 -0.200378,-0.48295 -0.473781,-0.48295 -0.273403,0 -0.474133,0.23706 -0.474133,0.48295 0,0.24553 0.20073,0.4826 0.474133,0.4826"
         style="fill:#960a2c;fill-opacity:1;fill-rule:nonzero;stroke:none;stroke-width:0.35277778"
         id="path7555"
         inkscape:connector-curvature="0" />
      <path
         inkscape:connector-curvature="0"
         id="path7559"
         style="fill:#960a2c;fill-opacity:1;fill-rule:nonzero;stroke:none;stroke-width:0.35277778"
         d="m -16.577332,145.02579 c -1.393472,0 -1.547989,-1.13877 -1.547989,-1.54869 0,-1.49331 0.709789,-1.9304 1.284111,-1.9304 0.473075,0 0.537634,0.29139 0.564092,0.42756 0.09984,0.50165 0.13723,0.59267 0.427567,0.59267 0.337961,0 0.482952,-0.28258 0.482952,-0.39194 0,-0.1912 -0.235302,-0.86501 -1.48343,-0.86501 -1.175809,0 -2.067984,0.81915 -2.067984,2.16712 0,1.3028 0.828675,2.05881 1.88595,2.05881 0.600075,0 1.128184,-0.24589 1.592439,-0.77435 0.05645,-0.0543 0.07302,-0.10019 0.07302,-0.13617 0,-0.0642 -0.108655,-0.12736 -0.135114,-0.12736 -0.04657,0 -0.08255,0.0815 -0.155927,0.145 -0.181328,0.15487 -0.583495,0.38276 -0.919692,0.38276" />
      <path
         d="m -10.957124,143.42266 c 0,-1.22908 -0.902758,-2.11279 -2.122664,-2.11279 -1.211791,0 -2.111728,0.91088 -2.111728,2.11279 0,1.21144 0.864659,2.11314 2.111728,2.11314 1.274233,0 2.122664,-0.8382 2.122664,-2.11314 m -0.867128,0 c 0,0.77364 -0.180975,1.87572 -1.255536,1.87572 -1.066094,0 -1.247069,-1.10208 -1.247069,-1.87572 0,-0.89217 0.299861,-1.87572 1.247069,-1.87572 0.956733,0 1.255536,0.98355 1.255536,1.87572"
         style="fill:#960a2c;fill-opacity:1;fill-rule:nonzero;stroke:none;stroke-width:0.35277778"
         id="path7563"
         inkscape:connector-curvature="0" />
      <path
         inkscape:connector-curvature="0"
         id="path7567"
         style="fill:#960a2c;fill-opacity:1;fill-rule:nonzero;stroke:none;stroke-width:0.35277778"
         d="m -24.256775,142.5943 v 1.96709 c 0,0.51893 0.01834,0.6283 0.4191,0.6283 h 0.572911 c 0.237067,0 0.318206,-0.0917 0.373592,-0.21873 0.03563,-0.0818 0.05433,-0.72848 0.05433,-1.31162 v -1.24778 c 0,-0.31785 -0.0822,-0.50094 -0.536575,-0.5461 -0.07373,-0.01 -0.08326,-0.0452 -0.08326,-0.10971 0,-0.0723 0.02787,-0.11748 0.07338,-0.12736 1.037519,-0.20955 1.16593,-0.44555 1.274233,-0.44555 0.0187,0 0.02893,0.0272 0.02893,0.0998 0,0.054 -0.0187,0.25541 -0.0187,0.65652 0.472369,-0.31997 0.938036,-0.629 1.429455,-0.629 0.309386,0 1.20262,0.0632 1.20262,1.3656 v 2.18511 c 0,0.15522 0.02752,0.32879 0.591608,0.32879 0.09137,0 0.09137,0.0547 0.09137,0.11853 0,0.0543 0,0.11747 -0.127705,0.11747 -0.27305,0 -0.437797,-0.0173 -0.919692,-0.0173 -0.738011,0 -0.884414,0.0173 -0.956028,0.0173 -0.05644,0 -0.0642,-0.0631 -0.0642,-0.10865 0,-0.0455 0.0187,-0.12735 0.127705,-0.12735 0.436739,0 0.518584,-0.0363 0.518584,-0.33691 v -1.63054 c 0,-0.84631 -0.07303,-1.41146 -1.019881,-1.41146 -0.344664,0 -0.837847,0.30974 -0.87383,0.41875 v 2.33186 c 0,0.51893 0.0187,0.6283 0.418394,0.6283 0.245886,0 0.264936,0.009 0.264936,0.11853 0,0.0543 0,0.11747 -0.09207,0.11747 -0.04516,0 -1.264355,-0.0173 -2.073275,-0.0173 -0.823736,0 -1.978378,0.0173 -2.114197,0.0173 -0.07373,0 -0.07373,-0.054 -0.07373,-0.10018 0,-0.11713 0.0092,-0.13582 0.346781,-0.13582 0.237067,0 0.318206,-0.0917 0.373239,-0.21873 0.03669,-0.0818 0.05503,-0.72848 0.05503,-1.31162 v -1.24778 c 0,-0.31785 -0.08255,-0.50094 -0.537986,-0.5461 -0.07302,-0.01 -0.08184,-0.0452 -0.08184,-0.10971 0,-0.0723 0.02752,-0.11748 0.07373,-0.12736 1.037872,-0.20955 1.16452,-0.44555 1.274234,-0.44555 0.03563,0 0.05468,0.0452 0.05468,0.0998 0,0.036 -0.04586,0.12736 -0.04586,1.31163" />
      <path
         d="m -9.6192845,139.94367 v 4.61751 c 0,0.51929 0.018697,0.62865 0.4198055,0.62865 h 0.4741334 c 0.2370666,0 0.3185583,-0.0917 0.3725333,-0.21872 0.037042,-0.0819 0.055386,-0.72849 0.055386,-1.31163 v -1.24778 c 0,-0.3182 -0.081492,-0.50094 -0.5372805,-0.54645 -0.073378,-0.01 -0.081139,-0.0455 -0.081139,-0.10936 0,-0.073 0.026811,-0.11783 0.071614,-0.12735 1.0382249,-0.20955 1.1669888,-0.44556 1.2752916,-0.44556 0.018344,0 0.027517,0.0268 0.027517,0.0998 0,0.054 -0.018344,0.25506 -0.018344,0.65582 0.4737806,-0.31927 0.9380361,-0.62865 1.4298083,-0.62865 0.3090333,0 1.2015611,0.0635 1.2015611,1.36595 v 2.18511 c 0,0.15522 0.013758,0.32879 0.5782028,0.32879 0.091017,0 0.091017,0.0543 0.091017,0.11853 0,0.0543 0,0.11748 -0.1273527,0.11748 -0.2734028,0 -0.4226278,-0.0173 -0.904875,-0.0173 -0.7376583,0 -0.8847667,0.0173 -0.9570861,0.0173 -0.055386,0 -0.0635,-0.0632 -0.0635,-0.10901 0,-0.0452 0.018697,-0.127 0.1280583,-0.127 0.4367389,0 0.5192889,-0.0363 0.5192889,-0.3369 v -1.63054 c 0,-0.84632 -0.074083,-1.41147 -1.0205861,-1.41147 -0.3464278,0 -0.8385527,0.30974 -0.8745361,0.4184 v 2.33186 c 0,0.51929 0.018344,0.62865 0.4191,0.62865 0.2458861,0 0.2645833,0.008 0.2645833,0.11853 0,0.0543 0,0.11748 -0.090311,0.11748 -0.047625,0 -1.2326055,-0.0173 -2.0196527,-0.0173 -0.7909278,0 -1.9342808,0.0173 -2.0267088,0.0173 -0.07232,0 -0.07232,-0.054 -0.07232,-0.10019 0,-0.11712 0.0095,-0.13582 0.346428,-0.13582 0.190852,0 0.27305,-0.0917 0.327377,-0.21872 0.03669,-0.0819 0.05433,-1.28482 0.05433,-1.6764 v -3.187 c 0,-0.79198 -0.02681,-0.9017 -0.527755,-0.94685 -0.05433,-0.009 -0.0822,-0.0459 -0.0822,-0.10901 0,-0.073 0.02787,-0.11889 0.07302,-0.12806 0.738012,-0.12735 1.1751034,-0.39158 1.2664728,-0.39158 0.035631,0 0.053975,0.0455 0.053975,0.0998 0,0.036 -0.045861,0.12771 -0.045861,1.31163"
         style="fill:#960a2c;fill-opacity:1;fill-rule:nonzero;stroke:none;stroke-width:0.35277778"
         id="path7571"
         inkscape:connector-curvature="0" />
      <path
         inkscape:connector-curvature="0"
         id="path7575"
         style="fill:#960a2c;fill-opacity:1;fill-rule:nonzero;stroke:none;stroke-width:0.35277778"
         d="m -30.889596,146.7467 h 26.5027826 v 0.1898 H -30.889596 Z" />
      <path
         d="m -4.1136222,149.0194 c 0,0.26635 0.2155472,0.48295 0.4822472,0.48295 0.2652889,0 0.4815417,-0.2166 0.4815417,-0.48295 0,-0.26564 -0.2162528,-0.48189 -0.4815417,-0.48189 -0.2667,0 -0.4822472,0.21625 -0.4822472,0.48189 m 0.089253,0 c 0,-0.23319 0.1672166,-0.41451 0.3944055,-0.41451 0.2236611,0 0.3926417,0.18132 0.3926417,0.41451 0,0.23389 -0.1689806,0.41451 -0.3926417,0.41451 -0.2271889,0 -0.3944055,-0.18062 -0.3944055,-0.41451 m 0.3069166,-0.19756 H -3.6155 c 0.056445,0 0.1090083,0.018 0.1090083,0.078 0,0.0684 -0.041628,0.0825 -0.1090083,0.0825 h -0.1019528 z m -0.085725,0.46073 h 0.085725 v -0.23318 h 0.072319 l 0.1481666,0.23318 h 0.090311 l -0.1502834,-0.23318 c 0.083608,0 0.1361722,-0.0596 0.1361722,-0.14605 0,-0.0995 -0.059619,-0.14852 -0.1806222,-0.14852 h -0.2017889 z"
         style="fill:#231f20;fill-opacity:1;fill-rule:nonzero;stroke:none;stroke-width:0.35277778"
         id="path7635"
         inkscape:connector-curvature="0" />
    </g>
  </g>
</svg>
