<?xml version="1.0" encoding="utf-8"?>
<!-- Generator: Adobe Illustrator 18.0.0, SVG Export Plug-In . SVG Version: 6.00 Build 0)  -->
<!DOCTYPE svg PUBLIC "-//W3C//DTD SVG 1.1//EN" "http://www.w3.org/Graphics/SVG/1.1/DTD/svg11.dtd">
<svg version="1.1" id="Layer_1" xmlns="http://www.w3.org/2000/svg" xmlns:xlink="http://www.w3.org/1999/xlink" x="0px" y="0px"
	 viewBox="0 0 358.5 69.3" enable-background="new 0 0 358.5 69.3" xml:space="preserve">
<path fill="#B41F3A" d="M344.8,0l-12.6,4.7V14h-5.3l-1.5,3.6l6.8,0l-0.1,19.7c-0.1,12.9,0.5,18.1,4.1,20h11.1
	c-1.3-1.2-2.2-2.8-2.5-5.5l0-34.1l4.2,0l1.5-4l-5.8,0L344.8,0"/>
<path fill="#B41F3A" d="M242.4,13.9c-1.8,0-3.7,0.5-5,1.6l-2,1.6c-0.5-0.9-0.6-2.1-1.5-2.8l-12,0c1,1.4,1.6,2.5,1.5,5l0.1,30.6
	c0.2,2.6,0.8,5.5,3.2,7.4h11.5c-2.1-1.9-2.8-5.5-2.7-9.5v-23c1-0.9,2.5-1.5,4.1-1.5c0.9,0,1.8,0.2,2.6,0.5c0.8,0.4,1.3,0.6,1.9,1.2
	l5.1-7.9c-0.7-1-1.8-1.7-2.9-2.3C245.3,14.2,243.8,13.9,242.4,13.9"/>
<path fill="#B41F3A" d="M261.8,14.2h-11.1c1.9,2.5,1.3,6,1.4,8.9l-0.1,18.1c0.3,6.4-1,12.6,2.9,16.3l11.9,0
	c-1.4-1.5-2.2-3.5-2.6-5.4L264,19.4c-0.3-0.9-0.2-2-0.8-2.8C262.9,15.7,262.5,14.7,261.8,14.2"/>
<path fill="#B41F3A" d="M285.3,51.3C285.2,51.3,285.2,51.3,285.3,51.3c-2.5-0.3-3.6-2.8-4.1-4.8c-0.8-5.6-1.4-10.2-0.8-15.7
	c0.1-3.5,0.3-6.6,2.1-9.3c0.8-0.8,1.8-1.7,3-1.7c0.3,0,0.6,0.1,0.9,0.2c4.6,2.6,3.6,8.5,4.4,12.8c0,5.8,0.4,11.3-2.2,16.4
	C287.7,50.1,286.6,51.3,285.3,51.3 M286.8,13.2c-3.3,0-6.6,2.3-9.6,3.4c-2.7,1.8-6.5,3.5-7.7,6.8c-0.8,1.2-0.6,2.8-0.9,4.2
	c-0.7,4.9-0.5,9.3-0.2,14.4c-0.4,7.2,6.2,12.4,11.9,15c1.5,0.7,2.9,1.1,4.3,1.1c4.6,0,8.9-3.5,12.4-6.6c3.1-2.7,4.9-6.2,5.1-10.2
	c0.1-2.3,0.1-4.4,0-6.8c0-2.2-0.4-3.8-0.4-6c-0.4-1.6-0.7-3.3-1.3-4.8c-2.4-3.9-5.9-6.8-9.7-9.3C289.3,13.6,288.1,13.2,286.8,13.2"
	/>
<path fill="#B41F3A" d="M318.9,0l-12.6,4.7V14h-5.3l-1.5,3.6l6.8,0l-0.1,19.7c-0.1,12.9,0.5,18.1,4.1,20h11.1
	c-1.3-1.2-2.2-2.8-2.5-5.5l0-34.1l4.2,0l1.5-4l-5.8,0L318.9,0"/>
<path fill="#B41F3A" d="M214,13.9c-1.8,0-3.7,0.5-5,1.6l-2,1.6c-0.5-0.9-0.6-2.1-1.5-2.8l-12,0c1,1.4,1.4,2.5,1.5,5l0.1,30.6
	c0.1,2.8,0.8,5.5,3.2,7.4h11.5c-2.1-1.9-2.8-5.5-2.7-9.5v-23c1-0.9,2.5-1.5,4.1-1.5c0.9,0,1.8,0.2,2.6,0.5c0.8,0.4,1.3,0.6,1.9,1.2
	l5.1-7.9c-0.7-1-1.8-1.7-2.9-2.3C216.9,14.2,215.4,13.9,214,13.9"/>
<path fill="#B41F3A" d="M106.9,0.2l-13.7,7l11.3,24.2l-4.4,8.9c-3,5.3-7.1,11.7-13.5,13.4c-0.9,0.3-1.7,0.4-2.5,0.4
	c-1.5,0-3-0.4-4.6-0.5l-7.7,12.6c0.6,0.6,1.4,1.1,2.2,1.4c2.9,1.1,5.4,1.7,7.7,1.7c8.5,0,14.2-8.5,24.7-32.3l12.6,26.9h16.8
	l-7.9-18.1l4.5-9.4l12.4,27.1l16.1,0.1L132.8,1.8l-13,6.4L130,31.3l-4.5,9.1L106.9,0.2"/>
<path fill="#B41F3A" d="M171.2,49.9c-0.4,0-0.8,0-1.2-0.1c-1-0.3-2-0.7-2.4-1.8c-0.8-1.6-0.7-3.1-0.7-5.2c0.1-1.9,0.4-3.8,1.6-6
	c1.4-2.5,3.8-4.8,6.7-5.3c0.9,0,2.1,0.2,2.2,1.9l0.4,6.1c0,3.4,0.6,7.2-2.8,9.1C173.9,49.4,172.6,49.9,171.2,49.9 M177,13.5
	c-4.4,0-8.9,0.8-12.7,2.6c-0.9,0.6-1.3,1.6-2,2.3c-1.4,2.8-1.8,6-2.4,9c4.1-3.5,8.6-7,13.9-7c0.8,0,1.7,0.1,2.6,0.3
	c1.1,0.4,1.7,1.3,1.6,2.5c0,1-1,1.7-1.7,2.3c-4.2,2.2-9.1,3.2-13.2,5.8c-4.2,2.3-6.6,6.5-6.9,10.9c-1,6.1,3,12.7,7.3,14.6
	c1,0.7,2.1,1,3.3,1c3.9,0,8.7-3.1,11.2-5.4c0.4,2,1.1,3.6,2.5,4.9h12c-1.3-1.8-2.3-3.8-2.4-6l0-25c-0.1-1.8-0.1-3.9-0.8-5.7
	c-1.4-3.8-5.3-6.8-9.5-7.1C178.8,13.5,177.9,13.5,177,13.5"/>
<path fill="#B41F3A" d="M353.5,57.5v-1.3h0.9c0.6,0,0.8,0.2,0.8,0.6c0,0.4-0.2,0.7-0.9,0.7H353.5 M354.3,55.5h-1.6v4.9h0.8v-2.1h0.6
	c0.3,0,0.5,0,0.7,0.2c0.2,0.2,0.2,0.6,0.3,1c0,0.3,0.1,0.6,0.2,0.9h1c-0.2-0.4-0.2-1-0.3-1.4c-0.1-0.5-0.2-0.8-0.8-1v0
	c0.7-0.1,1-0.6,1-1.1C356.1,55.7,355.2,55.5,354.3,55.5 M354.4,61.5c-1.9,0-3.5-1.5-3.5-3.5c0-1.9,1.5-3.4,3.5-3.4
	c1.9,0,3.4,1.5,3.4,3.4C357.8,59.9,356.3,61.5,354.4,61.5 M354.4,53.8c-2.3,0-4.2,1.9-4.2,4.2c0,2.3,1.9,4.2,4.2,4.2
	c2.3,0,4.2-1.9,4.2-4.2C358.5,55.7,356.7,53.8,354.4,53.8"/>
<path fill="#B41F3A" d="M12.6,10.6c-9.4,6.6-14.3,17.7-12,29.6c2.7,2.2,6,3.1,9.5,3.1c0.7,0,1.4,0,2.1-0.1c4.1-0.7,7.6-4.1,9-8.2
	c1.7-4.7-1.3-9.6-2.1-11.2L12.6,10.6"/>
<path fill="#B41F3A" d="M24.4,35.1c-0.2,8.4-9,15.8-17.4,15.8c-0.5,0-1,0-1.5-0.1c4.5,8,15.8,12.8,23.3,12.8c3.6,0,6.3-1.1,7-3.4
	L24.4,35.1"/>
<path fill="#B41F3A" d="M23.6,5.8c-0.9,0-1.9,0.2-3.2,1.2l24.2,52.3c1-0.4,2.9-1.4,3.4-3.5L25,5.9C24.5,5.9,24,5.8,23.6,5.8"/>
<path fill="#B41F3A" d="M35.3,6l19.5,42.5C64.6,33.7,56.4,9.4,35.3,6"/>
</svg>
