<!-- Created with Inkscape (http://www.inkscape.org/) -->
<svg xmlns:rdf="http://www.w3.org/1999/02/22-rdf-syntax-ns#" xmlns="http://www.w3.org/2000/svg" version="1.1" xmlns:cc="http://creativecommons.org/ns#" xmlns:dc="http://purl.org/dc/elements/1.1/" viewBox="0 0 177.449 73.7988">
 <metadata>
  <rdf:RDF>
   <cc:Work rdf:about="">
    <dc:format>image/svg+xml</dc:format>
    <dc:type rdf:resource="http://purl.org/dc/dcmitype/StillImage"/>
    <dc:title/>
   </cc:Work>
  </rdf:RDF>
 </metadata>
 <g fill-rule="nonzero" transform="translate(-276.9887,-332.60563)">
  <path fill="#355778" d="m383.438,361.312,0,1.6875,3.09375,0,0,23.9375-3.09375,0,0,1.71875,9.875,0,0-1.71875-2.96875,0,0-25.625-6.90625,0zm-14.4688,1.8125-8.25,23.4375-2.15625,0,0,2.09375,6.46875,0,0-2.09375-2.25,0,2.25-6.65625,8.3125,0,2.375,6.65625-2.375,0,0,2.09375,8.6875,0,0-2.09375-2.15625,0-8.78125-23.4375-2.125,0zm58.25,0.46875c-1.14746,0-2.125,0.94629-2.125,2.09375,0,1.14258,0.97754,2.125,2.125,2.125,1.14258,0,2.09375-0.98242,2.09375-2.125,0-1.14746-0.95117-2.09375-2.09375-2.09375zm-27.3438,2.9375-6.21875,6.4375,2.40625,0,0,10.4062c0,3.74023,1.74706,5.78125,4.90625,5.78125,3.03223,0,4.5625-2.41602,4.5625-2.875,0-0.20508-0.15724-0.53125-0.40625-0.53125-0.41505,0-1.24609,1.3125-2.90625,1.3125-1.58203,0-2.34375-1.28711-2.34375-4.03125v-10.0625h4.875v-1.6875h-4.875v-4.75zm-30.8125,2.15625,0.0937,0,3.375,9.15625-6.65625,0,3.1875-9.15625zm48.8125,2.09375c-1.12305,0-2.16993,0.83301-4.25,3.40625h-0.0625v-2.90625h-6.9375v1.6875h3.09375v13.9688h-3.09375v1.71875h10.0312v-1.71875h-3.09375v-10.5938c0.95702-1.33301,1.81445-2.09375,2.9375-2.09375,1.16211,0,1.75391,0.64258,2.75,2.46875,0.70801-1.11816,1.23047-2.53809,1.5625-4.28125-0.99609-1.16699-1.89746-1.65625-2.9375-1.65625zm22.5312,0c-2.08007,0-4.51368,1.04395-6.59375,2.875l0.40625,1.1875c2.07519-1.28418,3.57813-1.875,4.90625-1.875,2.28516,0,2.90625,1.43261,2.90625,3.46875v2.3125l-3.8125,0.96875c-3.4082,0.83008-4.8125,2.27051-4.8125,4.84375,0,2.53906,1.7461,4.59375,4.03125,4.59375,1.49414,0,2.98241-1.05567,5.0625-2.59375,0.91308,1.83105,1.82812,2.59375,3.15625,2.59375,1.20606,0,2.49218-0.51953,3.78125-1.4375v-1.15625c-0.37598,0.083-1.44922,0.25-1.78125,0.25-1.04003,0-1.78125-1.06445-1.78125-2.8125v-7.125c0-3.78418-2.10448-6.09375-5.46875-6.09375zm-17.7812,0.5,0,1.6875,3.0625,0,0,13.9688-3.0625,0,0,1.71875,9.8125,0,0-1.71875-2.9375,0,0-15.6562-6.875,0zm19.4062,9.1875,0,4.65625c-1.08399,0.87402-1.98242,1.28125-2.8125,1.28125-1.28906,0-2.25-1.01562-2.25-2.34375,0-1.7041,1.44434-2.72461,5.0625-3.59375z"/>
  <path d="m294.747,350.364-12.7588,0,0-12.7588,12.7588,0z" fill="#004c7d"/>
  <path d="m294.747,363.123-12.7588,0,0-12.7588,12.7588,0z" fill="#0082c2"/>
  <path d="m294.747,375.882-12.7588,0,0-12.7588,12.7588,0z" fill="#75cccc"/>
  <path d="m294.747,388.646-12.7588,0,0-12.7637,12.7588,0z" fill="#73bf42"/>
  <path d="m294.747,401.404-12.7588,0,0-12.7588,12.7588,0z" fill="#00a84c"/>
  <path d="m307.506,401.404-12.7588,0,0-12.7588,12.7588,0z" fill="#73bf42"/>
  <path d="m320.265,401.404-12.7588,0,0-12.7588,12.7588,0z" fill="#c2d72e"/>
  <path d="m333.029,401.404-12.7637,0,0-12.7588,12.7637,0z" fill="#d7a86e"/>
  <path d="m345.788,401.404-12.7588,0,0-12.7588,12.7588,0z" fill="#eee1c5"/>
  <path d="m307.506,388.646-12.7588,0,0-12.7637,12.7588,0z" fill="#c2d72e"/>
  <path d="m320.265,388.646-12.7588,0,0-12.7637,12.7588,0z" fill="#eee1c5"/>
  <path d="m333.029,388.646-12.7637,0,0-12.7637,12.7637,0z" fill="#e1c297"/>
  <path d="m345.788,388.646-12.7588,0,0-12.7637,12.7588,0z" fill="#d7a86e"/>
  <path d="m307.506,375.882-12.7588,0,0-12.7588,12.7588,0z" fill="#00b3c2"/>
  <path d="m320.265,375.882-12.7588,0,0-12.7588,12.7588,0z" fill="#e1c297"/>
  <path d="m333.029,375.882-12.7637,0,0-12.7588,12.7637,0z" fill="#de9c87"/>
  <path d="m345.788,375.882-12.7588,0,0-12.7588,12.7588,0z" fill="#eb1c23"/>
  <path d="m307.506,363.123-12.7588,0,0-12.7588,12.7588,0z" fill="#66c2ee"/>
  <path d="m320.265,363.123-12.7588,0,0-12.7588,12.7588,0z" fill="#f57f1e"/>
  <path d="m333.029,363.123-12.7637,0,0-12.7588,12.7637,0z" fill="#eb1c23"/>
  <path d="m345.788,363.123-12.7588,0,0-12.7588,12.7588,0z" fill="#c2262b"/>
  <path d="m307.506,350.364-12.7588,0,0-12.7588,12.7588,0z" fill="#0082c2"/>
  <path d="m320.265,350.364-12.7588,0,0-12.7588,12.7588,0z" fill="#faa619"/>
  <path d="m333.029,350.364-12.7637,0,0-12.7588,12.7637,0z" fill="#c2262b"/>
  <path d="m345.788,350.364-12.7588,0,0-12.7588,12.7588,0z" fill="#8c1719"/>
 </g>
</svg>
