<?xml version="1.0" encoding="UTF-8" standalone="no"?>
<!-- Created with Inkscape (http://www.inkscape.org/) -->

<svg
   xmlns:dc="http://purl.org/dc/elements/1.1/"
   xmlns:cc="http://creativecommons.org/ns#"
   xmlns:rdf="http://www.w3.org/1999/02/22-rdf-syntax-ns#"
   xmlns:svg="http://www.w3.org/2000/svg"
   xmlns="http://www.w3.org/2000/svg"
   xmlns:sodipodi="http://sodipodi.sourceforge.net/DTD/sodipodi-0.dtd"
   xmlns:inkscape="http://www.inkscape.org/namespaces/inkscape"
   width="360.77682"
   height="116.10198"
   id="svg2"
   version="1.1"
   inkscape:version="0.48.2 r9819"
   sodipodi:docname="New document 1">
  <defs
     id="defs4" />
  <sodipodi:namedview
     id="base"
     pagecolor="#ffffff"
     bordercolor="#666666"
     borderopacity="1.0"
     inkscape:pageopacity="0.0"
     inkscape:pageshadow="2"
     inkscape:zoom="1.0074671"
     inkscape:cx="197.93527"
     inkscape:cy="145.20256"
     inkscape:document-units="px"
     inkscape:current-layer="layer1"
     showgrid="false"
     fit-margin-top="0"
     fit-margin-left="0"
     fit-margin-right="0"
     fit-margin-bottom="0"
     inkscape:window-width="1440"
     inkscape:window-height="853"
     inkscape:window-x="-4"
     inkscape:window-y="-4"
     inkscape:window-maximized="1" />
  <metadata
     id="metadata7">
    <rdf:RDF>
      <cc:Work
         rdf:about="">
        <dc:format>image/svg+xml</dc:format>
        <dc:type
           rdf:resource="http://purl.org/dc/dcmitype/StillImage" />
        <dc:title></dc:title>
      </cc:Work>
    </rdf:RDF>
  </metadata>
  <g
     inkscape:label="Layer 1"
     inkscape:groupmode="layer"
     id="layer1"
     transform="translate(-177.06473,-757.58199)">
    <g
       id="g3082">
      <g
         id="g3589"
         transform="matrix(3.2343989,0,0,-3.2343989,201.20628,833.27469)">
        <path
           inkscape:connector-curvature="0"
           d="m 0,0 -0.104,0 -2.313,-5.952 -0.419,0 L -5.148,0 -5.244,0 -5.649,-4.235 c -0.094,-0.822 0.126,-1.339 0.951,-1.372 l 0,-0.345 -2.766,0 0,0.345 c 0.734,0.02 1.083,0.327 1.195,1.391 l 0.528,4.732 c -0.181,0.236 -0.578,0.316 -1.07,0.316 l 0,0.344 2.728,0 1.875,-5.002 1.943,5.002 2.742,0 0,-0.344 C 1.909,0.815 1.432,0.683 1.432,0.029 c 0,-0.093 0.037,-0.625 0.037,-0.7 l 0.336,-3.462 c 0.131,-1.324 0.619,-1.408 1.25,-1.474 l 0,-0.345 -3.69,0 0,0.345 c 0.697,0.043 1.027,0.186 1.027,1.026 L 0.373,-4.021 0,0 z"
           style="fill:#005837;fill-opacity:1;fill-rule:nonzero;stroke:none"
           id="path3591" />
      </g>
      <g
         id="g3593"
         transform="matrix(3.2343989,0,0,-3.2343989,261.93763,835.53458)">
        <path
           inkscape:connector-curvature="0"
           d="m 0,0 c 0,0.746 -0.02,1.429 -1.343,1.53 l 0,0.345 2.448,0 4.546,-5.248 0,3.69 c 0,1.064 -0.446,1.178 -1.194,1.213 l 0,0.345 2.925,0 0,-0.345 C 6.626,1.488 6.206,1.381 6.206,0.317 l 0,-5.728 -0.688,0 -4.949,5.77 0,-4.073 c 0,-0.671 0.254,-1.194 1.012,-1.194 l 0.285,0 0,-0.345 -3.023,0 0,0.345 C -0.434,-4.872 0,-4.67 0,-3.677 L 0,0 z"
           style="fill:#005837;fill-opacity:1;fill-rule:nonzero;stroke:none"
           id="path3595" />
      </g>
      <g
         id="g3597"
         transform="matrix(3.2343989,0,0,-3.2343989,360.5994,835.53458)">
        <path
           inkscape:connector-curvature="0"
           d="m 0,0 c 0,0.746 -0.02,1.429 -1.344,1.53 l 0,0.345 2.448,0 4.547,-5.248 0,3.69 c 0,1.064 -0.446,1.178 -1.194,1.213 l 0,0.345 2.925,0 0,-0.345 C 6.626,1.488 6.207,1.381 6.207,0.317 l 0,-5.728 -0.689,0 -4.949,5.77 0,-4.073 c 0,-0.671 0.254,-1.194 1.011,-1.194 l 0.286,0 0,-0.345 -3.023,0 0,0.345 C -0.434,-4.872 0,-4.67 0,-3.677 L 0,0 z"
           style="fill:#005837;fill-opacity:1;fill-rule:nonzero;stroke:none"
           id="path3599" />
      </g>
      <g
         id="g3601"
         transform="matrix(3.2343989,0,0,-3.2343989,234.00826,830.64772)">
        <path
           inkscape:connector-curvature="0"
           d="m 0,0 c -1.754,0 -2.661,-1.412 -2.661,-3.222 0,-1.905 1.032,-3.151 2.661,-3.151 1.195,0 2.697,0.74 2.697,3.186 C 2.697,-0.585 1.104,0 0,0 m -0.018,-6.918 c -2.728,0 -4.189,1.847 -4.189,3.731 0,1.998 1.565,3.733 4.134,3.733 2.51,0 4.32,-1.586 4.32,-3.751 0,-1.903 -1.601,-3.713 -4.265,-3.713"
           style="fill:#005837;fill-opacity:1;fill-rule:nonzero;stroke:none"
           id="path3603" />
      </g>
      <g
         id="g3605"
         transform="matrix(3.2343989,0,0,-3.2343989,438.30679,830.63736)">
        <path
           inkscape:connector-curvature="0"
           d="m 0,0 c -1.754,0 -2.661,-1.412 -2.661,-3.222 0,-1.904 1.032,-3.151 2.661,-3.151 1.194,0 2.697,0.74 2.697,3.187 C 2.697,-0.585 1.104,0 0,0 m -0.018,-6.918 c -2.728,0 -4.189,1.847 -4.189,3.731 0,1.997 1.566,3.733 4.133,3.733 2.511,0 4.321,-1.586 4.321,-3.751 0,-1.903 -1.601,-3.713 -4.265,-3.713"
           style="fill:#005837;fill-opacity:1;fill-rule:nonzero;stroke:none"
           id="path3607" />
      </g>
      <g
         id="g3609"
         transform="matrix(3.2343989,0,0,-3.2343989,406.99233,847.41613)">
        <path
           inkscape:connector-curvature="0"
           d="m 0,0 c 0,-1.083 0.411,-1.157 1.156,-1.231 l 0,-0.346 -3.782,0 0,0.346 c 0.766,0.074 1.175,0.148 1.175,1.231 l 0,5.057 -0.966,0 c -1.231,0 -1.35,-0.898 -1.4,-1.408 l -0.396,0 0.084,2.257 0.318,0 C -3.678,5.652 -3.345,5.552 -2.71,5.552 l 3.97,0 c 0.634,0 0.946,0.091 1.101,0.354 l 0.318,0 0.089,-2.257 -0.397,0 C 2.313,4.192 2.198,5.057 0.966,5.057 L 0,5.057 0,0 z"
           style="fill:#005837;fill-opacity:1;fill-rule:nonzero;stroke:none"
           id="path3611" />
      </g>
      <g
         id="g3613"
         transform="matrix(3.2343989,0,0,-3.2343989,337.61188,842.19775)">
        <path
           inkscape:connector-curvature="0"
           d="m 0,0 -1.039,3.075 -0.06,0 L -2.25,0 0,0 z m -2.847,-1.679 c -0.069,-0.182 -0.142,-0.463 -0.142,-0.575 0,-0.545 0.575,-0.566 0.893,-0.593 l 0,-0.345 -2.723,0 0,0.345 c 0.823,0.041 1.039,0.403 1.463,1.502 l 2.069,5.412 1.279,0 2.009,-5.468 c 0.418,-1.119 0.62,-1.394 1.504,-1.446 l 0,-0.345 -3.547,0 0,0.345 c 0.41,10e-4 0.856,0.067 0.856,0.458 0,0.149 -0.08,0.338 -0.133,0.504 l -0.51,1.372 -2.587,0 -0.431,-1.166 z"
           style="fill:#005837;fill-opacity:1;fill-rule:nonzero;stroke:none"
           id="path3615" />
      </g>
      <g
         id="g3617"
         transform="matrix(3.2343989,0,0,-3.2343989,312.16461,835.575)">
        <path
           inkscape:connector-curvature="0"
           d="m 0,0 -0.416,0 c -0.167,0.813 -0.732,1.59 -1.706,1.59 -0.892,0 -1.261,-0.477 -1.261,-0.936 0,-0.774 0.833,-1.098 1.825,-1.556 1.324,-0.611 1.942,-1.343 1.942,-2.477 0,-1.011 -0.765,-2.011 -2.546,-2.011 -1.008,0 -1.44,0.36 -1.823,0.36 -0.183,0 -0.282,-0.162 -0.329,-0.316 l -0.351,0 0,2.28 0.406,0 c 0.075,-0.85 0.674,-1.809 1.844,-1.809 0.941,0 1.479,0.512 1.479,1.146 0,0.571 -0.378,1.122 -1.891,1.824 -0.803,0.373 -1.804,0.865 -1.804,2.136 0,0.785 0.67,1.844 2.294,1.844 0.853,0 1.382,-0.304 1.683,-0.304 0.245,0 0.296,0.2 0.321,0.276 L 0,2.047 0,0 z"
           style="fill:#005837;fill-opacity:1;fill-rule:nonzero;stroke:none"
           id="path3619" />
      </g>
      <g
         id="g3621"
         transform="matrix(3.2343989,0,0,-3.2343989,527.52544,868.33428)">
        <path
           inkscape:connector-curvature="0"
           d="m 0,0 -0.905,-0.45 -1.164,0.151 -0.777,0.149 -0.172,-0.016 -0.568,-0.095 -0.554,-0.038 -1.971,-0.105 -1.923,-0.101 -1.798,-0.095 -1.258,-0.145 -0.865,-0.082 -0.647,-0.221 -0.624,0.144 -0.518,-0.449 -0.518,-0.301 -0.713,0.175 0.198,1.499 0.128,1.478 c 0,0 0,0.75 -0.13,1.65 -0.057,0.398 -0.053,1.894 -0.053,1.894 l 0.053,1.858 -0.264,2.076 -0.254,1.975 -0.132,1.441 -0.075,0.804 -0.18,1.958 -0.137,1.828 -0.122,1.623 -0.114,1.66 -0.114,1.642 0.054,1.674 0.053,1.602 0.053,1.64 0.05,1.523 0.048,1.515 0.35,1.376 0.298,1.175 1.423,0.6 1.681,0 2.071,-0.15 1.035,-0.15 1.681,0.45 1.334,0.232 1.254,0.218 0.905,-0.15 -0.147,0.78 0.905,0 1.054,-0.63 1.862,0.015 0.389,-1.351 -0.958,-0.315 0.068,-1.331 0.062,-1.219 0.067,-2.099 0.062,-1.953 0,-2.034 0,-1.869 0.388,-1.8 -0.026,-1.811 -0.042,-1.733 -0.042,-1.708 0.064,-1.73 L -0.11,10.951 0.031,9.491 0.234,7.606 0.4,5.89 0.13,3.899 0,2.098 -0.517,0.897 0,0 z m -1.305,2.398 0,2.251 -0.129,1.2 -0.04,0.6 -0.293,1.198 0.029,1.23 0.134,1.324 -0.04,1.369 -0.043,1.469 -0.045,1.514 0.298,1.201 -0.247,1.651 -0.242,1.399 -0.276,1.603 -0.061,1.869 -0.068,2.032 -0.081,1.503 -0.091,1.689 -0.087,1.61 -0.192,1.487 -0.196,1.515 -1.294,0 -0.906,0 -0.905,-0.3 -1.682,-0.301 -0.905,-0.15 -0.906,-0.3 -1.159,-0.202 -1.557,0.352 -1.165,0.15 -0.388,-1.651 -0.124,-1.79 -0.135,-1.961 -0.186,-1.799 -0.202,-1.953 -0.078,-1.305 -0.082,-1.396 0.365,-1.201 0.411,-1.351 c 0,0 0.044,-0.668 0.081,-1.434 0.026,-0.542 0.048,-1.131 0.048,-1.567 l 0,-1.273 0,-1.278 0.247,-1.646 0.167,-1.806 -0.285,-2.251 0.26,-2.101 0.126,-1.393 0.132,-1.458 0.678,-0.45 1.682,0.3 1.682,0.6 1.226,0.072 1.361,0.078 0.905,0.151 2.07,-0.301 2.059,-0.15 0.129,1.351 z"
           style="fill:#ca6c18;fill-opacity:1;fill-rule:nonzero;stroke:none"
           id="path3623" />
      </g>
      <g
         id="g3625"
         transform="matrix(3.2343989,0,0,-3.2343989,497.86988,784.1183)">
        <path
           inkscape:connector-curvature="0"
           d="M 0,0 C 0.71,0.098 1.274,0.423 1.674,0.968 2.715,2.385 2.312,4.85 2.308,4.874 L 2.296,4.943 2.233,4.911 C 1.057,4.317 0.276,3.627 -0.154,2.804 -0.552,2.045 -0.64,1.19 -0.424,0.19 l 0.006,-0.026 0.024,-0.01 0.368,-0.15 0.013,-0.005 L 0,0 z"
           style="fill:#005837;fill-opacity:1;fill-rule:nonzero;stroke:none"
           id="path3627" />
      </g>
      <g
         id="g3629"
         transform="matrix(3.2343989,0,0,-3.2343989,515.67688,785.08021)">
        <path
           inkscape:connector-curvature="0"
           d="M 0,0 -0.165,0.014 C -0.746,0.063 -1.47,0.124 -2.1,-0.265 -2.831,-0.72 -3.289,-1.685 -3.5,-3.218 l -0.004,-0.035 0.031,-0.017 c 0.448,-0.243 0.892,-0.275 1.32,-0.096 1.398,0.585 2.166,3.19 2.199,3.301 L 0.063,-0.005 0,0 z"
           style="fill:#005837;fill-opacity:1;fill-rule:nonzero;stroke:none"
           id="path3631" />
      </g>
      <g
         id="g3633"
         transform="matrix(3.2343989,0,0,-3.2343989,504.70158,813.09756)">
        <path
           inkscape:connector-curvature="0"
           d="M 0,0 C 0.555,-0.083 1.38,0.042 2.028,0.643 2.77,1.33 3.102,2.491 2.991,4 L 2.987,4.048 2.938,4.047 C 2.923,4.046 1.466,4.004 0.579,2.954 -0.014,2.254 -0.223,1.274 -0.044,0.044 L -0.037,0.005 0,0 z"
           style="fill:#005837;fill-opacity:1;fill-rule:nonzero;stroke:none"
           id="path3635" />
      </g>
      <g
         id="g3637"
         transform="matrix(3.2343989,0,0,-3.2343989,491.91307,796.82367)">
        <path
           inkscape:connector-curvature="0"
           d="m 0,0 c 0.004,-0.348 0.472,-1.795 1.531,-2.614 0.659,-0.51 1.406,-0.668 2.22,-0.468 l 0.023,0.006 0.012,0.021 c 0.026,0.053 0.638,1.297 10e-4,2.223 C 3.249,-0.05 1.99,0.248 0.046,0.052 L -0.001,0.047 0,0 z"
           style="fill:#005837;fill-opacity:1;fill-rule:nonzero;stroke:none"
           id="path3639" />
      </g>
      <g
         id="g3641"
         transform="matrix(3.2343989,0,0,-3.2343989,502.37118,829.20841)">
        <path
           inkscape:connector-curvature="0"
           d="M 0,0 C 1.474,-0.113 2.55,0.149 3.294,0.799 4.062,1.472 4.48,2.565 4.569,4.143 L 4.573,4.191 4.525,4.196 C 4.491,4.201 3.688,4.293 2.715,3.83 1.821,3.404 0.616,2.405 -0.046,0.065 L -0.063,0.005 0,0 z"
           style="fill:#005837;fill-opacity:1;fill-rule:nonzero;stroke:none"
           id="path3643" />
      </g>
      <g
         id="g3645"
         transform="matrix(3.2343989,0,0,-3.2343989,488.45519,809.7121)">
        <path
           inkscape:connector-curvature="0"
           d="m 0,0 c -0.262,-0.976 0.036,-2.607 0.989,-3.646 0.641,-0.699 1.456,-0.983 2.36,-0.823 l 0.024,0.003 0.013,0.022 c 0.005,0.012 0.589,1.113 0.08,2.266 -0.453,1.023 -1.598,1.769 -3.404,2.215 L 0.013,0.048 0,0 z"
           style="fill:#005837;fill-opacity:1;fill-rule:nonzero;stroke:none"
           id="path3647" />
      </g>
      <g
         id="g3649"
         transform="matrix(3.2343989,0,0,-3.2343989,487.93251,825.79288)">
        <path
           inkscape:connector-curvature="0"
           d="M 0,0 C -0.176,-0.865 0.29,-2.747 1.423,-3.728 2.1,-4.313 2.902,-4.462 3.744,-4.159 l 0.021,0.008 0.009,0.02 c 0.018,0.041 0.434,1.027 0.005,1.867 -0.257,0.504 -0.762,0.843 -1.501,1.008 L 2.285,-1.258 C 1.701,-1.047 0.174,-0.413 0.101,-0.001 L 0,0 z"
           style="fill:#005837;fill-opacity:1;fill-rule:nonzero;stroke:none"
           id="path3651" />
      </g>
      <g
         id="g3653"
         transform="matrix(3.2343989,0,0,-3.2343989,515.69659,827.91012)">
        <path
           inkscape:connector-curvature="0"
           d="m 0,0 c -3.921,-1.333 -3.859,-4.009 -3.474,-5.486 l 0.008,-0.027 0.026,-0.009 c 0.775,-0.246 1.518,-0.143 2.092,0.292 1.018,0.771 1.507,2.563 1.415,5.183 L 0.065,0.023 0,0 z"
           style="fill:#005837;fill-opacity:1;fill-rule:nonzero;stroke:none"
           id="path3655" />
      </g>
      <g
         id="g3657"
         transform="matrix(3.2343989,0,0,-3.2343989,508.00843,851.40932)">
        <path
           inkscape:connector-curvature="0"
           d="M 0,0 C -1.421,2.044 -2.759,3.025 -3.976,2.917 -5.352,2.794 -6.179,1.299 -6.47,0.662 l -0.019,-0.04 0.036,-0.023 c 2.682,-1.822 6.389,-0.689 6.427,-0.678 L 0.041,-0.057 0,0 z"
           style="fill:#005837;fill-opacity:1;fill-rule:nonzero;stroke:none"
           id="path3659" />
      </g>
      <g
         id="g3661"
         transform="matrix(3.2343989,0,0,-3.2343989,519.71726,843.53128)">
        <path
           inkscape:connector-curvature="0"
           d="M 0,0 C -2.037,-0.356 -3.446,-1.169 -4.187,-2.416 -5.218,-4.152 -4.563,-6.14 -4.556,-6.16 l 0.013,-0.039 0.041,0.004 c 1.48,0.171 4.027,1.988 4.562,6.138 L 0.068,0.012 0,0 z"
           style="fill:#005837;fill-opacity:1;fill-rule:nonzero;stroke:none"
           id="path3663" />
      </g>
      <g
         id="g3665"
         transform="matrix(3.2343989,0,0,-3.2343989,488.1932,781.97066)">
        <path
           inkscape:connector-curvature="0"
           d="m 0,0 c 0.722,-1.693 1.627,-2.384 2.259,-2.666 0.69,-0.308 1.204,-0.212 1.225,-0.208 l 0.007,0.002 0.006,0.003 c 0.264,0.134 0.914,0.143 0.921,0.143 L 4.381,-2.712 4.458,-2.787 C 4.461,-2.789 4.471,-2.683 4.471,-2.683 4.546,-1.91 4.281,-1.23 3.705,-0.718 2.851,0.042 1.377,0.359 0.037,0.07 L -0.024,0.057 0,0 z"
           style="fill:#005837;fill-opacity:1;fill-rule:nonzero;stroke:none"
           id="path3667" />
      </g>
      <g
         id="g3669"
         transform="matrix(3.2343989,0,0,-3.2343989,497.02635,783.35757)">
        <path
           inkscape:connector-curvature="0"
           d="m 0,0 c 0.82,-0.047 2.136,-2.898 2.089,-5.85 0,-0.022 -0.025,-2.215 -1.5,-6.289 -0.002,-0.005 -0.374,-0.837 -0.528,-1.871 -0.205,-1.374 0.067,-2.481 0.785,-3.199 l -0.006,0.007 c 0.017,-0.025 1.721,-2.535 2.542,-4.244 l 0.04,-0.082 0.05,0.076 0.73,1.099 0.023,0.035 -0.03,0.029 c -0.95,0.94 -1.552,1.864 -2.083,2.679 -1.654,2.54 -0.924,4.488 -0.533,5.535 l 0.068,0.18 c 1.177,3.228 1.256,5.155 1.256,5.174 L 2.908,-6.607 2.819,-6.68 2.597,-6.864 2.68,-6.914 c 0.4,1.879 0.34,5.932 -2.744,7.815 L -0.154,0.955 -0.142,0.85 -0.048,0.045 -0.043,0.002 0,0 z"
           style="fill:#005837;fill-opacity:1;fill-rule:nonzero;stroke:none"
           id="path3671" />
      </g>
      <g
         id="g3673"
         transform="matrix(3.2343989,0,0,-3.2343989,509.21162,849.36746)">
        <path
           inkscape:connector-curvature="0"
           d="M 0,0 -2.534,3.833 -2.558,3.871 -2.598,3.852 -3.157,3.588 -3.21,3.564 -3.179,3.514 C -2.928,3.117 -2.694,2.761 -2.468,2.415 -1.842,1.462 -1.251,0.56 -0.384,-1.04 l 0.059,-0.108 0.036,0.117 0.296,0.988 L 0.013,-0.02 0,0 z"
           style="fill:#005837;fill-opacity:1;fill-rule:nonzero;stroke:none"
           id="path3675" />
      </g>
      <g
         id="g3677"
         transform="matrix(3.2343989,0,0,-3.2343989,534.9791,860.09304)">
        <path
           inkscape:connector-curvature="0"
           d="m 0,0 c 0.492,0 0.885,-0.401 0.885,-0.893 0,-0.5 -0.393,-0.897 -0.889,-0.897 -0.492,0 -0.893,0.397 -0.893,0.897 0,0.492 0.401,0.893 0.893,0.893 L 0,0 z m -0.008,-0.179 c -0.373,0 -0.675,-0.321 -0.675,-0.718 0,-0.401 0.302,-0.715 0.679,-0.715 0.377,-0.004 0.683,0.314 0.683,0.715 0,0.397 -0.306,0.718 -0.683,0.718 l -0.004,0 z m -0.151,-1.234 -0.21,0 0,0.992 c 0.079,0.012 0.167,0.028 0.317,0.028 0.171,0 0.274,-0.028 0.342,-0.079 0.055,-0.044 0.087,-0.111 0.087,-0.215 0,-0.119 -0.083,-0.202 -0.19,-0.23 l 0,-0.008 c 0.087,-0.016 0.142,-0.095 0.158,-0.242 0.02,-0.155 0.04,-0.214 0.056,-0.246 l -0.218,0 c -0.024,0.036 -0.04,0.123 -0.06,0.258 -0.016,0.107 -0.079,0.151 -0.187,0.151 l -0.095,0 0,-0.409 z m 0,0.571 0.099,0 c 0.123,0 0.219,0.04 0.219,0.143 0,0.084 -0.06,0.147 -0.203,0.147 -0.051,0 -0.087,0 -0.115,-0.004 l 0,-0.286 z"
           style="fill:#005837;fill-opacity:1;fill-rule:nonzero;stroke:none"
           id="path3679" />
      </g>
    </g>
  </g>
</svg>
