<?xml version="1.0" encoding="UTF-8" standalone="no"?>
<!-- Created with Inkscape (http://www.inkscape.org/) -->
<svg
   xmlns:dc="http://purl.org/dc/elements/1.1/"
   xmlns:cc="http://creativecommons.org/ns#"
   xmlns:rdf="http://www.w3.org/1999/02/22-rdf-syntax-ns#"
   xmlns:svg="http://www.w3.org/2000/svg"
   xmlns="http://www.w3.org/2000/svg"
   xmlns:sodipodi="http://sodipodi.sourceforge.net/DTD/sodipodi-0.dtd"
   xmlns:inkscape="http://www.inkscape.org/namespaces/inkscape"
   width="360"
   height="90"
   id="svg9779"
   sodipodi:version="0.32"
   inkscape:version="0.46"
   version="1.0"
   sodipodi:docname="003.svg"
   inkscape:output_extension="org.inkscape.output.svg.inkscape">
  <defs
     id="defs9781">
    <inkscape:perspective
       sodipodi:type="inkscape:persp3d"
       inkscape:vp_x="0 : 526.18109 : 1"
       inkscape:vp_y="0 : 1000 : 0"
       inkscape:vp_z="744.09448 : 526.18109 : 1"
       inkscape:persp3d-origin="372.04724 : 350.78739 : 1"
       id="perspective9787" />
  </defs>
  <sodipodi:namedview
     id="base"
     pagecolor="#ffffff"
     bordercolor="#666666"
     borderopacity="1.0"
     gridtolerance="10000"
     guidetolerance="10"
     objecttolerance="10"
     inkscape:pageopacity="0.0"
     inkscape:pageshadow="2"
     inkscape:zoom="1.4"
     inkscape:cx="237.16946"
     inkscape:cy="106.13482"
     inkscape:document-units="pt"
     inkscape:current-layer="layer1"
     showgrid="true"
     units="pt"
     inkscape:window-width="1279"
     inkscape:window-height="949"
     inkscape:window-x="0"
     inkscape:window-y="25">
    <inkscape:grid
       type="xygrid"
       id="grid9789"
       visible="true"
       enabled="true"
       units="pt"
       spacingx="9pt"
       spacingy="9pt"
       empspacing="8" />
  </sodipodi:namedview>
  <metadata
     id="metadata9784">
    <rdf:RDF>
      <cc:Work
         rdf:about="">
        <dc:format>image/svg+xml</dc:format>
        <dc:type
           rdf:resource="http://purl.org/dc/dcmitype/StillImage" />
        <dc:title>Morgan Stanley Logo</dc:title>
        <dc:creator>
          <cc:Agent>
            <dc:title>Morgan Stanley</dc:title>
          </cc:Agent>
        </dc:creator>
        <dc:source>Frank Trampe</dc:source>
      </cc:Work>
    </rdf:RDF>
  </metadata>
  <g
     inkscape:label="Layer 1"
     inkscape:groupmode="layer"
     id="layer1">
    <path
       style="fill:#000000;fill-opacity:1;fill-rule:nonzero;stroke:none"
       d="M 280.95312,21.730469 C 280.95312,21.730469 280.95314,54.050781 280.95312,54.050781 C 280.95312,55.647691 281.78768,56.580546 282.64844,57.167969 C 283.57113,57.787521 284.92524,58.097674 286.75,58.097656 C 287.90435,58.097656 289.42967,57.714844 289.42969,57.714844 C 289.42969,57.714844 289.42967,54.816424 289.42969,54.816406 C 288.97185,54.844809 288.56652,54.871094 288.11719,54.871094 C 285.40075,54.871094 284.99996,53.809859 285,52.628906 C 285,52.628906 284.99995,21.730486 285,21.730469 L 280.95312,21.730469 z M 195.47656,22.058594 C 192.42631,22.058594 189.66875,23.015371 187.71094,24.738281 C 185.80976,26.418859 184.75781,28.738641 184.75781,31.246094 C 184.75786,34.007716 185.87542,36.165554 188.20312,37.863281 C 190.25607,39.362401 192.97144,40.330326 195.58594,41.253906 C 200.13088,42.870539 204.39062,44.345964 204.39062,48.472656 C 204.39062,50.307899 203.76631,51.881289 202.58594,52.957031 C 201.28808,54.140014 199.42084,54.707031 196.95312,54.707031 C 192.62779,54.707031 189.47888,52.312156 187.71094,47.652344 C 187.71092,47.652344 183.82812,48.691406 183.82812,48.691406 C 184.6644,50.581196 186.08694,53.308431 188.14844,55.144531 C 190.40874,57.172449 193.21448,58.152344 196.73438,58.152344 C 200.90266,58.152344 204.06687,57.077144 206.14062,54.925781 C 208.29047,52.686184 208.76562,49.820034 208.76562,47.816406 C 208.76562,44.945269 207.552,42.728229 205.10156,40.980469 C 202.96224,39.445929 200.19391,38.456881 197.5,37.535156 C 193.1106,36.034181 188.92215,34.605726 188.96875,30.917969 C 188.98427,29.198401 189.58058,27.859809 190.66406,26.925781 C 191.76828,25.976931 193.342,25.503906 195.36719,25.503906 C 197.49435,25.503924 199.3911,26.098469 200.83594,27.253906 C 202.16464,28.306234 203.1315,29.867969 203.57031,31.628906 C 203.57033,31.628906 207.34375,31.136719 207.34375,31.136719 C 205.68827,25.492881 201.64225,22.058594 195.47656,22.058594 z M 22.5,22.550781 L 22.5,57.660156 L 26.546875,57.660156 L 26.546875,25.558594 L 26.65625,25.667969 L 36.28125,57.660156 L 39.398438,57.660156 L 49.078125,25.667969 L 49.132812,25.558594 L 49.132812,57.660156 L 53.179688,57.660156 L 53.179688,22.550781 L 46.453125,22.550781 L 37.867188,50.769531 L 37.867188,50.878906 L 37.8125,50.769531 L 29.226562,22.550781 L 22.5,22.550781 z M 215.16406,23.261719 L 215.16406,31.683594 L 211.28125,31.683594 L 211.28125,34.910156 C 211.28125,34.910156 215.16406,34.910174 215.16406,34.910156 C 215.16406,34.910156 215.16406,52.956156 215.16406,54.050781 C 215.16406,55.647691 215.89096,56.580546 216.75,57.167969 C 217.67444,57.787521 219.02481,58.097674 220.85156,58.097656 C 222.00744,58.097656 223.5859,57.714844 223.58594,57.714844 C 223.58594,57.714844 223.5859,54.816424 223.58594,54.816406 C 223.13663,54.844809 222.66633,54.871094 222.21875,54.871094 C 219.49881,54.871094 219.2109,53.809859 219.21094,52.628906 C 219.21094,52.628906 219.2109,34.910174 219.21094,34.910156 L 223.58594,34.910156 L 223.58594,31.683594 L 219.21094,31.683594 L 219.21094,23.261719 L 215.16406,23.261719 z M 69.585938,31.191406 C 66.17825,31.191406 63.290103,32.564421 61.273438,35.128906 C 59.40183,37.522224 58.375,40.903189 58.375,44.644531 C 58.375017,48.389321 59.401813,51.764126 61.273438,54.160156 C 63.29012,56.731431 66.17825,58.097656 69.585938,58.097656 C 73.007625,58.097656 75.88704,56.731431 77.898438,54.160156 C 79.77029,51.764126 80.796875,48.389321 80.796875,44.644531 C 80.796858,40.903189 79.770273,37.522241 77.898438,35.128906 C 75.88704,32.564421 73.007625,31.191406 69.585938,31.191406 z M 303.04688,31.246094 C 301.31717,31.246094 299.70875,31.564034 298.34375,32.175781 C 297.00783,32.777921 295.82113,33.684456 294.89844,34.855469 C 293.06311,37.153726 292,40.565719 292,44.699219 C 291.99998,49.299654 293.32191,52.809909 295.71875,55.144531 C 298.24703,57.612381 301.46858,58.097656 303.70312,58.097656 C 309.50959,58.097656 312.35819,54.956004 313.54688,52.082031 C 313.54682,52.082031 310.32031,50.496094 310.32031,50.496094 C 309.53568,52.245901 307.73316,54.925781 303.70312,54.925781 C 301.39965,54.925781 299.51559,53.982741 298.17969,52.246094 C 296.88887,50.565534 296.16325,48.239416 296.15625,45.464844 C 296.15627,45.464861 313.875,45.464844 313.875,45.464844 C 313.87504,45.464861 313.875,43.003906 313.875,43.003906 C 313.87504,38.752929 312.74296,35.582839 310.64844,33.652344 C 308.86514,32.012489 306.36335,31.246094 303.04688,31.246094 z M 111.03906,31.300781 C 106.47337,31.300781 99.992188,34.372889 99.992188,44.699219 C 99.992188,54.725651 106.45319,58.097656 110.82031,58.097656 C 113.36917,58.097674 115.68531,56.685564 117.27344,54.652344 C 117.27342,54.652361 117.49219,54.542969 117.49219,54.542969 C 117.4922,54.542986 117.49219,59.464844 117.49219,59.464844 C 117.4922,62.916824 114.5045,65.042969 111.3125,65.042969 C 108.20914,65.042986 105.46181,64.450471 103.21875,63.402344 C 103.21872,63.402344 103.21875,66.902344 103.21875,66.902344 C 105.10763,67.711964 108.18152,68.214844 110.82031,68.214844 C 118.00404,68.214861 121.42969,64.261121 121.42969,58.535156 C 121.4297,58.535156 121.42969,31.792969 121.42969,31.792969 L 118.42188,31.792969 C 118.42188,31.792969 117.54688,34.527344 117.54688,34.527344 C 116.06219,32.592824 114.1184,31.300781 111.03906,31.300781 z M 137.17969,31.300781 C 131.43204,31.300781 128.71077,34.743766 127.55469,36.878906 C 127.55469,36.878906 130.78125,38.574219 130.78125,38.574219 C 131.23405,37.354189 132.86419,34.527344 137.23438,34.527344 C 140.6803,34.527344 142.42969,36.048164 142.42969,39.066406 C 142.42969,39.066406 142.42969,39.996094 142.42969,39.996094 C 142.42971,39.996094 142.4579,40.278684 142.375,40.378906 C 142.24701,40.540484 141.88412,40.672626 141.00781,40.761719 C 136.18308,41.300019 132.97619,42.092419 130.61719,43.605469 C 128.05629,45.251466 126.46094,47.555989 126.46094,50.714844 C 126.46094,52.958781 127.54746,54.873964 128.97656,56.238281 C 130.30546,57.494729 132.11606,58.148389 134.11719,58.207031 C 138.37688,58.343671 141.18084,56.570764 142.53906,54.488281 C 142.64446,55.919151 143.15725,56.736734 144.28906,57.332031 C 145.35201,57.899714 147.0954,57.786804 147.84375,57.605469 C 147.84375,57.605486 147.84375,54.871094 147.84375,54.871094 C 146.94162,54.826049 146.36719,54.397071 146.36719,53.285156 C 146.36714,53.285156 146.36719,40.761719 146.36719,40.761719 C 146.36714,40.761719 146.36719,39.121094 146.36719,39.121094 C 146.36717,36.536641 145.35285,34.416726 143.41406,33.050781 C 141.81549,31.916396 139.58177,31.300781 137.17969,31.300781 z M 165.01562,31.300781 C 162.38184,31.300799 159.68644,32.665151 157.41406,35.238281 L 157.41406,31.792969 L 153.36719,31.792969 L 153.36719,57.714844 L 157.41406,57.714844 C 157.4141,57.714844 157.41406,38.464844 157.41406,38.464844 C 158.79114,36.993391 161.87765,34.527344 164.6875,34.527344 C 167.50437,34.527344 168.73438,35.909039 168.73438,39.011719 C 168.73434,39.011719 168.73438,57.714844 168.73438,57.714844 L 172.78125,57.714844 C 172.78125,57.714844 172.78125,38.902344 172.78125,38.902344 C 172.78125,33.301696 168.79825,31.300781 165.01562,31.300781 z M 238.24219,31.300781 C 232.49776,31.300781 229.777,34.743766 228.61719,36.878906 C 228.61724,36.878906 231.84375,38.574219 231.84375,38.574219 C 232.29828,37.354189 233.92648,34.527344 238.29688,34.527344 C 241.7424,34.527344 243.49219,36.048164 243.49219,39.066406 C 243.49217,39.066406 243.49219,39.996094 243.49219,39.996094 C 243.49215,39.996094 243.46398,40.278684 243.38281,40.378906 C 243.25655,40.540484 242.94992,40.672626 242.07031,40.761719 C 237.24553,41.299056 234.03846,42.092419 231.67969,43.605469 C 229.12031,45.251466 227.52344,47.555989 227.52344,50.714844 C 227.52347,52.958781 228.608,54.873089 230.03906,56.238281 C 231.368,57.494729 233.18031,58.148389 235.17969,58.207031 C 239.43593,58.343671 242.24335,56.570764 243.60156,54.488281 C 243.7087,55.918521 244.21777,56.736734 245.35156,57.332031 C 246.41247,57.899714 248.15637,57.786804 248.90625,57.605469 C 248.90623,57.605486 248.90625,54.871094 248.90625,54.871094 C 248.00586,54.826049 247.42969,54.397071 247.42969,53.285156 C 247.42967,53.285156 247.42969,40.761719 247.42969,40.761719 C 247.42967,40.761719 247.42969,39.121094 247.42969,39.121094 C 247.42965,36.536641 246.36263,34.416726 244.42188,33.050781 C 242.82171,31.916396 240.64254,31.300781 238.24219,31.300781 z M 266.07812,31.300781 C 263.43738,31.300799 260.74873,32.665151 258.47656,35.238281 L 258.47656,31.792969 L 254.42969,31.792969 L 254.42969,57.714844 L 258.47656,57.714844 C 258.47654,57.714844 258.47656,38.464844 258.47656,38.464844 C 259.85555,36.992534 262.93665,34.527344 265.75,34.527344 C 268.5616,34.527344 269.79688,35.909039 269.79688,39.011719 C 269.79688,39.011719 269.79688,57.714844 269.79688,57.714844 L 273.84375,57.714844 C 273.84375,57.714844 273.84375,38.902344 273.84375,38.902344 C 273.84375,33.301696 269.86075,31.300781 266.07812,31.300781 z M 98.460938,31.410156 C 94.355,31.410156 91.921625,33.002044 89.820312,36.769531 L 89.820312,36.496094 L 89.820312,31.792969 L 85.773438,31.792969 L 85.773438,57.660156 L 89.820312,57.660156 C 89.820312,57.660174 89.820312,43.003906 89.820312,43.003906 C 90.819353,37.679654 93.638165,35.183594 98.460938,35.183594 C 98.460938,35.183594 98.460938,31.410156 98.460938,31.410156 z M 316.60938,31.738281 L 325.63281,57.441406 C 325.63279,57.441406 325.63281,57.660156 325.63281,57.660156 C 325.09358,60.123544 323.53412,63.164466 322.13281,64.113281 C 320.8953,64.953159 319.55506,65.042969 318.52344,65.042969 C 318.02554,65.042969 316.997,64.874846 316.55469,64.769531 C 316.55471,64.769531 316.55469,67.886719 316.55469,67.886719 C 317.11449,68.024094 318.40662,68.269531 319.23438,68.269531 C 321.16284,68.269549 322.78929,67.786759 324.15625,66.792969 C 325.79273,65.603301 327.60571,62.502669 328.47656,59.847656 C 328.47653,59.847656 337.5,31.738281 337.5,31.738281 L 333.5625,31.738281 L 327.65625,51.644531 L 327.60156,52.082031 L 327.49219,51.644531 L 320.54688,31.738281 L 316.60938,31.738281 z M 69.585938,34.417969 C 73.942562,34.417969 76.53125,38.241929 76.53125,44.644531 C 76.531215,51.048866 73.942562,54.871094 69.585938,54.871094 C 65.236312,54.871094 62.640625,51.048866 62.640625,44.644531 C 62.64059,38.241929 65.236312,34.417969 69.585938,34.417969 z M 111.3125,34.472656 C 113.59564,34.472656 115.6,35.459166 117.49219,37.808594 C 117.4922,37.808594 117.49219,50.167969 117.49219,50.167969 C 116.44483,53.149059 113.44509,54.871094 111.3125,54.871094 C 107.13922,54.871094 104.25781,52.272466 104.25781,44.480469 C 104.25786,37.928504 106.84367,34.472656 111.3125,34.472656 z M 303.15625,34.472656 C 307.79268,34.472656 309.86552,36.924389 309.88281,42.238281 C 309.88287,42.238281 296.26562,42.238281 296.26562,42.238281 C 296.61825,36.928694 298.84294,34.472656 303.15625,34.472656 z M 142.53906,43.605469 C 142.5391,43.605469 142.53906,50.167969 142.53906,50.167969 C 142.35251,52.433624 138.11856,55.175751 134.66406,54.980469 C 132.75812,54.875941 130.92169,53.341209 130.72656,50.824219 C 130.41025,46.618146 133.57075,44.871839 140.625,44.097656 C 141.1157,44.052734 142.06546,43.878521 142.53906,43.605469 z M 243.60156,43.605469 C 243.60158,43.605469 243.60156,50.167969 243.60156,50.167969 C 243.415,52.432626 239.18106,55.175751 235.72656,54.980469 C 233.82384,54.875066 231.97894,53.340334 231.78906,50.824219 C 231.46775,46.618146 234.63171,44.871839 241.6875,44.097656 C 242.17482,44.052734 243.13148,43.878521 243.60156,43.605469 z"
       id="path813" />
    <rect
       style="fill:none;fill-opacity:1;stroke:none;stroke-width:22.5;stroke-linecap:round;stroke-linejoin:round;stroke-miterlimit:4;stroke-dasharray:none;stroke-opacity:1"
       id="rect10562"
       width="360"
       height="90"
       x="0"
       y="0" />
  </g>
</svg>
