<?xml version="1.0" encoding="UTF-8" standalone="no"?>
<!-- Created with Inkscape (http://www.inkscape.org/) -->

<svg
   xmlns:dc="http://purl.org/dc/elements/1.1/"
   xmlns:cc="http://creativecommons.org/ns#"
   xmlns:rdf="http://www.w3.org/1999/02/22-rdf-syntax-ns#"
   xmlns:svg="http://www.w3.org/2000/svg"
   xmlns="http://www.w3.org/2000/svg"
   version="1.1"
   width="300"
   height="82.673523"
   id="svg7975">
  <defs
     id="defs7977">
    <clipPath
       id="clipPath7593">
      <path
         d="m 47.99,748.766 0,-32.215 116.734,0 0,32.215"
         id="path7595" />
    </clipPath>
    <clipPath
       id="clipPath7599">
      <path
         d="m 48,748.74 116.7,0 0,-32.16 -116.7,0 0,32.16 z"
         id="path7601"
         style="clip-rule:evenodd" />
    </clipPath>
    <clipPath
       id="clipPath7605">
      <path
         d="m 0,792.03 612,0 0,-792 -612,0 0,792 z"
         id="path7607" />
    </clipPath>
  </defs>
  <metadata
     id="metadata7980">
    <rdf:RDF>
      <cc:Work
         rdf:about="">
        <dc:format>image/svg+xml</dc:format>
        <dc:type
           rdf:resource="http://purl.org/dc/dcmitype/StillImage" />
        <dc:title></dc:title>
      </cc:Work>
    </rdf:RDF>
  </metadata>
  <g
     transform="translate(-225,-491.0254)"
     id="layer1">
    <g
       transform="matrix(2.5706941,0,0,-2.5706941,101.60668,2415.8069)"
       id="g7589">
      <g
         clip-path="url(#clipPath7593)"
         id="g7591">
        <g
           clip-path="url(#clipPath7599)"
           id="g7597">
          <g
             clip-path="url(#clipPath7605)"
             id="g7603">
            <g
               transform="translate(103.736,723.308)"
               id="g7609">
              <path
                 d="m 0,0 c -5.319,0 -10.092,3.021 -10.092,7.245 0,4.226 4.773,7.25 10.13,7.25 2.329,0 4.504,-0.588 6.869,-1.907 L 5.24,10.446 c -1.516,0.733 -3.301,1.172 -5.202,1.172 -2.252,0 -4.852,-1.261 -4.852,-4.373 0,-3.11 2.562,-4.37 4.852,-4.37 1.901,0 3.725,0.381 5.277,1.057 l 1.67,-2.26 C 5.006,0.614 2.599,0 0,0"
                 id="path7611"
                 style="fill:#104076;fill-opacity:1;fill-rule:nonzero;stroke:none" />
            </g>
            <g
               transform="translate(134.119,723.363)"
               id="g7613">
              <path
                 d="m 0,0 c 5.355,0 10.13,3.022 10.13,7.245 0,4.226 -4.775,7.25 -10.13,7.25 -5.357,0 -10.132,-3.024 -10.132,-7.25 C -10.132,3.022 -5.357,0 0,0 Z m 4.852,7.245 c 0,-3.11 -2.6,-4.37 -4.852,-4.37 -2.253,0 -4.852,1.26 -4.852,4.37 0,3.113 2.599,4.373 4.852,4.373 2.252,0 4.852,-1.26 4.852,-4.373"
                 id="path7615"
                 style="fill:#104076;fill-opacity:1;fill-rule:nonzero;stroke:none" />
            </g>
            <g
               transform="translate(146.405,723.713)"
               id="g7617">
              <path
                 d="m 0,0 5.003,0 0,8.628 c 0,1.165 0.905,2.536 2.524,2.545 C 8.658,11.164 9.743,10.39 9.743,9.408 L 9.733,0 l 5.016,0 0,9.675 c 0,2.548 -2.732,4.675 -5.991,4.675 -0.032,0 -0.063,-0.004 -0.095,-0.005 C 8.631,14.346 8.6,14.35 8.569,14.35 7.222,14.35 5.944,13.957 4.9,13.299 4.891,13.336 4.61,14.261 0,14.261 L 0,0"
                 id="path7619"
                 style="fill:#104076;fill-opacity:1;fill-rule:nonzero;stroke:none" />
            </g>
            <path
               d="m 86.338,723.713 4.9009,0 0,13.791 -4.9009,0 0,-13.791 z"
               id="path7621"
               style="fill:#104076;fill-opacity:1;fill-rule:nonzero;stroke:none" />
            <g
               transform="translate(113.058,723.713)"
               id="g7623">
              <path
                 d="m 0,0 4.903,0 0,8.363 c 0,1.321 1.551,2.378 3.221,2.378 0.816,0 1.584,-0.163 2.229,-0.449 l 0,0 0,3.627 C 9.775,14.007 9.151,14.055 8.6,14.055 7.286,14.055 5.968,13.674 4.889,13.034 4.809,13.197 4.208,13.968 0,13.968 L 0,0"
                 id="path7625"
                 style="fill:#104076;fill-opacity:1;fill-rule:nonzero;stroke:none" />
            </g>
            <g
               transform="translate(76.988,729.21)"
               id="g7627">
              <path
                 d="m 0,0 -0.001,-5.498 5.019,0 0,10.038 C 3.564,3.04 1.887,1.513 0,0"
                 id="path7629"
                 style="fill:#104076;fill-opacity:1;fill-rule:nonzero;stroke:none" />
            </g>
            <g
               transform="translate(82.006,733.75)"
               id="g7631">
              <path
                 d="m 0,0 c 5.527,5.702 7.816,11.002 6.034,13.553 -1.86,2.664 -7.639,1.585 -15.13,-2.373 -0.335,-0.164 -0.632,-0.338 -0.851,-0.489 -0.362,-0.251 -0.151,-0.434 0.116,-0.337 0.274,0.099 0.586,0.219 0.938,0.392 5.615,2.663 9.995,3.141 11.707,1.282 C 5.423,9.197 0.08,-0.081 -9.172,-6.944 c -1.235,-0.916 -3.141,-2.257 -4.382,-3.002 -0.084,-0.052 -0.167,-0.103 -0.248,-0.155 -0.328,-0.215 -0.62,-0.415 -0.85,-0.595 -0.224,-0.174 -0.181,-0.451 0.223,-0.277 0.246,0.105 0.545,0.264 0.863,0.459 0.072,0.044 0.143,0.084 0.218,0.13 1.395,0.847 3.466,2.277 4.881,3.265 1.217,0.85 2.367,1.713 3.449,2.579 C -3.131,-3.027 -1.454,-1.499 0,0"
                 id="path7633"
                 style="fill:#104076;fill-opacity:1;fill-rule:nonzero;stroke:none" />
            </g>
            <g
               transform="translate(57.369,716.551)"
               id="g7635">
              <path
                 d="m 0,0 5.019,0 0,5.201 C 6.391,6.012 7.78,6.901 9.145,7.832 9.452,8.043 9.724,8.253 9.921,8.433 10.246,8.73 10.011,8.883 9.76,8.751 9.502,8.615 9.197,8.431 8.867,8.221 1.114,3.262 -4.12,1.749 -6.053,4.373 -7.732,6.651 -4.98,11.055 0,16.029 L 0,4.484 c 1.413,0.48 3.083,1.245 5.018,2.321 L 5.017,17.516 6.121,15.167 c 1.21,-2.594 3.406,-4.145 6.198,-4.145 2.791,0 4.987,1.551 6.197,4.145 l 1.104,2.349 -0.001,-2.733 c 1.796,1.742 3.329,3.481 4.492,5.163 0.145,0.208 0.132,0.383 0.053,0.575 -0.774,1.615 -2.421,2.728 -4.335,2.728 -1.893,0 -3.537,-1.098 -4.325,-2.686 l -2.1,-4.455 c -0.217,-0.434 -0.617,-0.675 -1.085,-0.675 -0.467,0 -0.869,0.241 -1.086,0.675 l -2.1,4.455 c -0.4,0.807 -1.022,1.487 -1.785,1.961 1.536,1.219 3.029,2.308 4.499,3.2 0.334,0.203 0.608,0.406 0.839,0.583 0.227,0.173 0.185,0.45 -0.22,0.28 C 12.22,26.484 11.901,26.327 11.582,26.133 10.08,25.223 8.545,24.292 7.077,23.289 6.899,23.168 6.723,23.046 6.547,22.924 6.007,23.134 5.421,23.249 4.808,23.249 2.148,23.249 0,21.1 0,18.44 L 0,17.778 C -7.09,11.456 -10.812,5.196 -8.867,2.409 -7.439,0.365 -4.053,0.837 0,2.598 L 0,0"
                 id="path7637"
                 style="fill:#104076;fill-opacity:1;fill-rule:nonzero;stroke:none" />
            </g>
            <g
               transform="translate(163.071,736.302)"
               id="g7639">
              <path
                 d="m 0,0 0.182,0 c 0.207,0 0.382,0.075 0.382,0.269 0,0.138 -0.1,0.276 -0.382,0.276 C 0.1,0.545 0.044,0.539 0,0.533 L 0,0 Z m 0,-0.871 -0.251,0 0,1.573 C -0.119,0.72 0.006,0.739 0.195,0.739 0.433,0.739 0.589,0.689 0.683,0.62 0.777,0.551 0.827,0.445 0.827,0.295 0.827,0.088 0.689,-0.037 0.52,-0.088 l 0,-0.012 c 0.138,-0.025 0.232,-0.151 0.263,-0.382 0.038,-0.244 0.075,-0.339 0.1,-0.389 l -0.263,0 C 0.583,-0.821 0.545,-0.677 0.514,-0.47 0.477,-0.269 0.376,-0.194 0.175,-0.194 L 0,-0.194 0,-0.871 Z M 0.263,1.14 c -0.62,0 -1.127,-0.532 -1.127,-1.19 0,-0.67 0.507,-1.196 1.133,-1.196 0.627,-0.007 1.128,0.526 1.128,1.19 0,0.664 -0.501,1.196 -1.128,1.196 l -0.006,0 z m 0.006,0.22 c 0.771,0 1.385,-0.627 1.385,-1.41 0,-0.796 -0.614,-1.416 -1.391,-1.416 -0.77,0 -1.396,0.62 -1.396,1.416 0,0.783 0.626,1.41 1.396,1.41 l 0.006,0"
                 id="path7641"
                 style="fill:#104076;fill-opacity:1;fill-rule:nonzero;stroke:none" />
            </g>
          </g>
        </g>
      </g>
    </g>
  </g>
</svg>
