<?xml version="1.0" encoding="UTF-8" ?>
<!DOCTYPE svg PUBLIC "-//W3C//DTD SVG 1.1//EN" "http://www.w3.org/Graphics/SVG/1.1/DTD/svg11.dtd">
<svg width="602pt" height="157pt" viewBox="0 0 602 157" version="1.1" xmlns="http://www.w3.org/2000/svg">
<path fill="#161616" stroke="#161616" stroke-width="0.09375" opacity="1.00" d=" M 54.7 0.0 L 289.0 0.0 C 286.3 2.6 283.5 5.2 280.3 7.3 C 270.5 4.4 260.4 1.4 250.0 2.2 C 254.9 4.2 259.5 6.8 263.4 10.4 C 255.6 9.5 247.8 8.4 239.9 8.2 C 230.8 8.0 221.7 9.1 212.7 10.4 C 217.3 12.8 222.2 14.3 227.1 15.7 C 167.8 15.8 108.5 15.7 49.2 15.7 C 51.0 10.5 52.7 5.2 54.7 0.0 Z" />
<path fill="#161616" stroke="#161616" stroke-width="0.09375" opacity="1.00" d=" M 290.6 0.0 L 301.3 0.0 C 298.2 2.7 295.1 5.6 291.6 7.9 C 291.2 5.3 290.9 2.6 290.6 0.0 Z" />
<path fill="#161616" stroke="#161616" stroke-width="0.09375" opacity="1.00" d=" M 303.3 0.0 L 389.6 0.0 C 398.2 17.4 406.7 34.8 415.4 52.2 C 421.5 34.8 427.3 17.3 433.6 0.0 L 479.5 0.0 C 477.8 4.4 476.4 8.9 474.8 13.3 C 484.3 6.3 496.1 3.1 507.7 1.8 C 532.1 -0.9 557.2 -0.5 581.0 5.9 C 589.7 8.9 599.9 13.6 602.0 23.5 L 602.0 29.7 C 601.4 33.3 599.7 36.6 597.8 39.7 C 580.4 39.1 563.1 38.4 545.7 37.8 C 546.7 35.3 548.3 32.2 546.5 29.6 C 542.8 27.5 538.3 27.6 534.1 27.5 C 529.2 27.6 524.2 27.0 519.6 28.5 C 516.8 29.2 515.2 32.3 515.7 35.0 C 516.8 37.6 520.0 38.1 522.5 38.4 C 532.4 39.4 542.3 40.6 552.2 42.0 C 561.3 43.2 570.8 44.2 578.7 49.2 C 585.4 53.1 591.3 59.8 591.3 68.0 C 590.8 82.0 583.1 95.8 571.0 103.0 C 564.0 107.2 555.9 108.9 547.9 109.4 C 534.0 110.3 520.0 111.7 506.1 110.5 C 493.5 109.6 480.7 109.6 468.3 106.6 C 459.5 104.4 452.6 97.8 448.2 90.1 C 446.4 95.4 444.5 100.6 442.7 105.9 C 426.9 106.1 411.0 106.1 395.2 105.8 C 386.3 88.6 377.7 71.2 368.9 54.0 C 362.9 71.3 357.0 88.5 350.9 105.8 C 322.3 105.7 293.6 105.8 265.0 105.7 C 268.3 96.7 271.3 87.6 274.6 78.6 C 275.6 75.8 279.0 73.4 281.8 75.2 C 285.8 77.1 290.1 78.5 294.6 78.6 C 303.0 84.2 312.0 89.2 321.7 91.9 C 322.7 94.5 323.0 98.0 325.8 99.2 C 330.0 100.6 334.2 98.6 338.0 97.1 C 340.0 96.1 342.5 95.6 343.9 93.7 C 344.7 91.6 344.3 89.2 345.1 87.1 C 346.1 85.2 347.6 83.7 348.9 82.0 C 338.8 71.3 330.0 59.5 321.8 47.3 C 319.7 44.0 316.6 41.0 316.4 36.8 C 316.3 33.6 312.6 32.6 310.9 30.3 C 306.7 24.8 302.4 19.4 297.1 15.1 C 300.3 10.6 302.2 5.4 303.3 0.0 M 454.7 71.2 C 470.7 71.6 486.6 72.7 502.5 73.0 C 502.1 75.4 501.3 78.6 503.6 80.3 C 508.9 84.1 515.8 83.8 521.9 83.7 C 525.9 83.4 530.2 83.7 533.9 81.9 C 536.6 80.6 539.3 76.8 537.1 73.9 C 533.9 71.3 529.4 72.0 525.5 71.2 C 511.3 69.3 496.7 70.4 482.8 66.2 C 474.4 63.7 465.5 59.3 461.7 50.8 C 459.5 57.6 457.1 64.4 454.7 71.2 Z" />
<path fill="#161616" stroke="#161616" stroke-width="0.09375" opacity="1.00" d=" M 41.3 38.5 C 43.1 33.2 44.9 28.0 46.8 22.7 C 97.2 22.8 147.6 22.7 198.0 22.8 C 195.5 23.6 192.9 24.4 190.3 25.2 C 197.8 26.5 205.3 28.1 212.6 30.1 C 198.8 30.7 185.2 33.1 171.9 36.9 C 169.3 37.6 166.8 38.6 164.0 38.5 C 123.1 38.5 82.2 38.5 41.3 38.5 Z" />
<path fill="#161616" stroke="#161616" stroke-width="0.09375" opacity="1.00" d=" M 39.1 45.0 C 86.7 45.0 134.3 45.0 182.0 45.0 C 186.5 45.0 191.0 44.8 195.4 45.3 C 182.1 48.3 169.0 52.8 156.7 58.7 C 154.5 59.7 152.5 61.2 150.0 61.0 C 111.2 61.0 72.3 61.0 33.5 61.0 C 35.3 55.7 37.1 50.3 39.1 45.0 Z" />
<path fill="#161616" stroke="#161616" stroke-width="0.09375" opacity="1.00" d=" M 31.3 67.5 C 75.2 67.5 119.1 67.5 163.0 67.5 C 165.6 67.5 167.9 68.8 170.2 69.8 C 163.4 72.1 156.3 73.7 149.8 76.9 C 144.8 78.9 140.2 81.7 135.0 83.2 C 98.6 83.3 62.2 83.2 25.8 83.3 C 27.5 78.0 29.4 72.7 31.3 67.5 Z" />
<path fill="#161616" stroke="#161616" stroke-width="0.09375" opacity="1.00" d=" M 23.4 90.0 C 59.9 90.0 96.4 90.0 133.0 90.0 C 137.1 90.0 141.0 91.5 145.0 92.4 C 135.3 96.2 125.5 100.0 115.8 103.8 C 113.6 104.7 111.4 105.8 109.0 105.8 C 78.7 105.7 48.3 105.7 18.0 105.7 C 19.7 100.5 21.6 95.3 23.4 90.0 Z" />
<path fill="#161616" stroke="#161616" stroke-width="0.09375" opacity="1.00" d=" M 9.6 124.3 C 14.3 124.2 19.0 124.2 23.7 124.3 C 25.7 130.3 27.8 136.3 29.9 142.3 C 31.8 136.3 33.6 130.2 35.5 124.3 C 38.8 124.3 42.0 124.2 45.3 124.3 C 42.1 134.8 38.8 145.2 35.5 155.8 C 31.2 155.7 26.8 155.8 22.4 155.7 C 20.2 149.3 18.0 142.8 15.6 136.4 C 13.6 142.9 11.6 149.3 9.6 155.7 C 6.4 155.7 3.2 155.8 0.0 155.8 L 0.0 155.0 C 3.2 144.7 6.4 134.5 9.6 124.3 Z" />
<path fill="#161616" stroke="#161616" stroke-width="0.09375" opacity="1.00" d=" M 59.5 124.4 C 65.1 123.1 71.4 122.8 76.9 125.1 C 80.4 126.5 82.3 130.3 82.0 134.0 C 81.6 143.0 76.2 152.4 67.2 155.2 C 61.0 157.1 54.0 157.6 47.9 155.1 C 44.6 153.9 42.6 150.4 42.7 147.0 C 42.8 137.0 49.3 126.6 59.5 124.4 M 61.5 131.5 C 56.1 133.9 53.7 140.4 53.7 146.0 C 53.9 149.9 58.7 150.8 61.8 149.9 C 67.2 148.6 69.9 142.9 70.9 137.8 C 71.4 135.5 71.2 132.3 68.7 131.3 C 66.4 130.4 63.7 130.6 61.5 131.5 Z" />
<path fill="#161616" stroke="#161616" stroke-width="0.09375" opacity="1.00" d=" M 89.5 124.2 C 96.6 124.3 103.7 124.1 110.8 124.3 C 113.6 124.5 117.1 125.0 118.3 128.0 C 119.5 133.0 116.5 138.0 111.9 140.0 C 115.3 144.7 112.2 150.6 112.1 155.8 C 108.5 155.8 104.9 155.7 101.4 155.7 C 101.4 152.3 103.1 148.9 102.5 145.5 C 100.4 142.6 96.1 144.5 93.0 144.0 C 91.7 147.9 90.5 151.8 89.3 155.7 C 86.1 155.8 82.9 155.8 79.7 155.7 C 82.9 145.2 86.3 134.8 89.5 124.2 M 97.0 131.3 C 96.4 133.2 95.7 135.1 95.2 137.0 C 98.0 137.0 100.9 137.2 103.7 136.7 C 105.7 136.3 107.5 133.6 106.2 131.8 C 103.3 130.7 100.0 131.4 97.0 131.3 Z" />
<path fill="#161616" stroke="#161616" stroke-width="0.09375" opacity="1.00" d=" M 125.3 124.3 C 134.2 124.3 143.0 124.2 151.9 124.3 C 151.2 126.6 150.4 128.9 149.7 131.2 C 144.2 131.2 138.6 131.3 133.0 131.2 C 132.4 133.1 131.7 135.1 131.1 137.0 C 136.3 137.0 141.4 137.0 146.5 137.0 C 145.8 139.3 145.1 141.6 144.4 144.0 C 139.3 144.0 134.1 144.0 129.0 144.0 C 127.7 147.9 126.5 151.8 125.3 155.7 C 122.0 155.7 118.8 155.8 115.5 155.8 C 118.7 145.3 122.0 134.8 125.3 124.3 Z" />
<path fill="#161616" stroke="#161616" stroke-width="0.09375" opacity="1.00" d=" M 163.5 124.5 C 169.2 123.1 175.4 122.8 180.9 125.0 C 184.9 126.5 186.8 131.0 186.2 135.0 C 185.3 142.9 181.0 151.1 173.5 154.5 C 167.2 157.1 160.0 157.5 153.5 155.6 C 149.7 154.5 146.9 150.8 147.1 146.9 C 147.3 137.1 153.6 126.9 163.5 124.5 M 166.3 131.3 C 162.0 132.9 159.8 137.4 158.6 141.6 C 158.0 143.9 157.5 146.8 159.3 148.7 C 162.0 150.9 166.0 150.4 168.8 148.8 C 172.3 146.7 174.1 142.7 175.1 138.9 C 175.7 136.4 176.0 133.0 173.5 131.5 C 171.3 130.4 168.6 130.5 166.3 131.3 Z" />
<path fill="#161616" stroke="#161616" stroke-width="0.09375" opacity="1.00" d=" M 193.3 124.3 C 196.6 124.3 199.9 124.2 203.1 124.2 C 200.7 132.4 198.0 140.6 195.5 148.7 C 201.0 148.8 206.4 148.7 211.9 148.8 C 211.2 151.1 210.5 153.4 209.7 155.7 C 201.0 155.7 192.3 155.8 183.5 155.7 C 186.8 145.2 190.0 134.7 193.3 124.3 Z" />
<path fill="#161616" stroke="#161616" stroke-width="0.09375" opacity="1.00" d=" M 220.8 124.3 C 224.1 124.2 227.3 124.2 230.6 124.3 C 229.2 128.8 227.7 133.3 226.4 137.9 C 232.1 133.4 237.8 128.8 243.5 124.3 C 247.7 124.2 251.9 124.2 256.1 124.3 C 250.3 129.1 244.3 133.8 238.5 138.6 C 241.6 144.2 244.4 150.0 247.5 155.6 C 243.2 155.8 238.9 155.8 234.6 155.7 C 231.8 150.1 228.8 144.6 226.0 139.1 C 224.3 144.6 222.6 150.2 220.8 155.8 C 217.5 155.7 214.3 155.7 211.0 155.7 C 214.3 145.2 217.6 134.8 220.8 124.3 Z" />
<path fill="#161616" stroke="#161616" stroke-width="0.09375" opacity="1.00" d=" M 280.9 130.9 C 284.4 125.1 291.7 123.7 298.0 123.5 C 302.8 123.5 307.9 123.4 312.2 125.7 C 315.1 127.1 315.9 131.0 314.7 133.8 C 311.2 134.8 307.4 134.1 303.7 134.2 C 303.9 133.4 304.1 131.7 304.2 130.9 C 299.6 129.9 294.0 129.4 290.5 133.3 C 296.7 137.1 304.8 134.1 310.7 138.3 C 313.7 141.0 312.3 145.6 310.7 148.6 C 307.4 154.3 300.5 156.3 294.4 157.0 L 284.5 157.0 C 281.4 156.4 277.8 155.8 275.7 153.2 C 273.9 150.9 274.7 147.9 275.1 145.3 C 278.8 145.3 282.6 145.3 286.4 145.2 C 286.4 146.6 285.9 148.1 286.4 149.5 C 289.7 150.7 293.4 150.5 296.8 149.8 C 298.7 149.5 300.6 147.6 299.6 145.6 C 294.0 142.4 286.7 145.2 281.2 141.8 C 277.8 139.2 279.1 134.1 280.9 130.9 Z" />
<path fill="#161616" stroke="#161616" stroke-width="0.09375" opacity="1.00" d=" M 319.6 133.5 C 324.0 126.3 332.9 123.5 341.0 123.9 C 345.8 124.0 352.0 125.0 354.0 130.2 C 355.7 136.3 353.2 142.8 349.9 148.0 C 346.5 153.2 340.6 155.9 334.6 157.0 L 325.4 157.0 C 321.4 156.3 316.8 154.5 315.7 150.2 C 314.3 144.5 316.6 138.4 319.6 133.5 M 335.3 131.3 C 329.3 133.1 326.5 140.0 326.2 145.8 C 326.2 148.8 329.2 150.6 331.9 150.3 C 336.9 150.7 340.8 146.6 342.3 142.2 C 343.2 139.3 344.6 136.0 343.0 133.0 C 341.4 130.5 337.9 130.5 335.3 131.3 Z" />
<path fill="#161616" stroke="#161616" stroke-width="0.09375" opacity="1.00" d=" M 361.3 125.0 C 364.5 125.0 367.8 125.0 371.0 125.0 C 369.2 130.9 367.2 136.7 365.6 142.6 C 364.8 144.9 365.2 148.4 368.0 149.2 C 372.6 150.8 377.5 147.6 379.2 143.3 C 381.5 137.3 383.0 131.0 385.1 125.0 C 388.3 125.0 391.5 125.0 394.7 125.0 C 392.4 131.7 390.9 138.6 388.0 145.1 C 385.3 151.0 379.5 155.4 373.0 156.2 C 368.1 156.8 362.4 157.0 358.2 153.8 C 354.8 151.0 355.1 146.0 356.1 142.2 C 357.7 136.4 359.6 130.7 361.3 125.0 Z" />
<path fill="#161616" stroke="#161616" stroke-width="0.09375" opacity="1.00" d=" M 396.3 125.0 C 406.9 125.0 417.5 125.0 428.1 125.0 C 427.4 127.2 426.7 129.5 426.0 131.7 C 422.3 131.7 418.6 131.8 415.0 131.7 C 412.5 139.8 409.9 147.9 407.5 155.9 C 404.2 156.0 401.0 156.0 397.8 156.0 C 400.3 147.9 402.8 139.8 405.3 131.8 C 401.6 131.7 397.9 131.7 394.2 131.7 C 394.9 129.5 395.6 127.3 396.3 125.0 Z" />
<path fill="#161616" stroke="#161616" stroke-width="0.09375" opacity="1.00" d=" M 429.7 125.4 C 432.8 124.4 436.3 125.2 439.6 125.0 C 438.3 129.0 437.1 133.0 435.9 137.0 C 440.5 137.0 445.1 137.0 449.8 137.0 C 451.0 133.0 452.3 129.0 453.5 125.0 C 456.7 125.0 459.9 125.0 463.1 125.0 C 460.0 135.3 456.6 145.6 453.5 156.0 C 450.3 156.0 447.1 156.0 443.9 156.0 C 445.1 152.0 446.3 148.0 447.6 144.0 C 443.1 144.1 438.5 143.8 434.0 144.1 C 432.0 147.7 431.4 152.1 429.9 156.0 C 426.7 156.0 423.4 156.0 420.2 156.0 C 423.3 145.8 426.4 135.5 429.7 125.4 Z" />
<path fill="#161616" stroke="#161616" stroke-width="0.09375" opacity="1.00" d=" M 468.7 125.0 C 477.5 125.0 486.3 125.0 495.1 125.0 C 494.5 127.3 493.8 129.5 493.1 131.7 C 487.5 131.8 481.9 131.7 476.3 131.8 C 475.7 133.5 475.2 135.2 474.6 137.0 C 479.6 137.0 484.6 137.0 489.6 137.0 C 488.9 139.3 488.2 141.6 487.5 144.0 C 482.5 144.0 477.4 144.0 472.4 144.0 C 471.9 145.8 471.4 147.5 470.8 149.3 C 476.4 149.3 482.0 149.2 487.6 149.3 C 486.9 151.5 486.2 153.7 485.5 156.0 C 476.7 156.0 467.9 156.0 459.1 156.0 C 462.3 145.7 465.5 135.4 468.7 125.0 Z" />
<path fill="#161616" stroke="#161616" stroke-width="0.09375" opacity="1.00" d=" M 499.2 125.1 C 506.1 124.5 513.1 124.8 520.0 124.7 C 523.1 124.7 527.4 125.5 528.2 129.1 C 528.7 133.8 526.0 138.6 521.7 140.5 C 525.2 145.0 521.8 150.9 521.8 156.0 C 518.2 156.0 514.7 156.0 511.1 155.9 C 511.4 152.6 512.4 149.4 512.2 146.1 C 510.0 143.2 505.8 144.9 502.8 144.5 C 501.5 148.3 500.3 152.2 499.2 156.0 C 496.0 156.0 492.7 156.0 489.6 156.0 C 492.7 145.7 496.0 135.4 499.2 125.1 M 504.9 137.5 C 507.6 137.5 510.4 137.7 513.2 137.4 C 515.3 137.1 517.5 134.0 515.8 132.1 C 512.9 131.3 509.7 131.9 506.7 131.8 C 506.1 133.7 505.5 135.6 504.9 137.5 Z" />
<path fill="#161616" stroke="#161616" stroke-width="0.09375" opacity="1.00" d=" M 534.4 125.0 C 539.1 125.0 543.8 125.0 548.5 125.0 C 550.7 131.0 552.7 137.0 554.8 142.9 C 556.5 136.9 558.5 131.0 560.3 125.0 C 563.6 125.0 566.8 125.0 570.1 125.0 C 567.0 135.3 563.7 145.6 560.5 156.0 C 556.0 156.0 551.6 156.0 547.1 156.0 C 544.8 149.7 542.6 143.3 540.3 137.0 C 538.3 143.3 536.3 149.6 534.4 156.0 C 531.2 156.0 528.0 156.0 524.7 156.0 C 528.0 145.7 531.2 135.4 534.4 125.0 Z" />
</svg>
