<svg xmlns="http://www.w3.org/2000/svg" width="622" height="483" viewBox="0 0 622 483">
  <g fill="none" fill-rule="evenodd">
    <path fill="#1A1918" d="M258.646,365.957 L258.658,482.376 L291.536,482.376 L291.536,365.959 L258.646,365.957 Z M0,365.799 L0,482.376 L33.171,482.376 L33.171,393.857 L58.869,393.866 C67.381,393.866 73.444,395.984 77.546,400.361 C82.747,405.903 84.869,414.837 84.869,431.186 L84.869,482.376 L117.009,482.376 L117.009,417.968 C117.009,371.998 87.706,365.799 59.04,365.799 L0,365.799 Z M311.585,365.961 L311.585,482.376 L364.914,482.376 C393.327,482.376 402.6,477.65 412.629,467.056 C419.719,459.618 424.299,443.291 424.299,425.448 C424.299,409.085 420.422,394.486 413.658,385.395 C401.477,369.139 383.928,365.961 357.73,365.961 L311.585,365.961 Z M344.2,391.309 L358.336,391.309 C378.845,391.309 392.109,400.519 392.109,424.416 C392.109,448.318 378.845,457.528 358.336,457.528 L344.2,457.528 L344.2,391.309 Z M211.241,365.961 L183.801,458.226 L157.507,365.967 L122.015,365.961 L159.566,482.376 L206.954,482.376 L244.799,365.961 L211.241,365.961 Z M439.599,482.376 L472.483,482.376 L472.483,365.967 L439.591,365.961 L439.599,482.376 Z M531.769,366.003 L485.858,482.336 L518.278,482.336 L525.542,461.774 L579.875,461.774 L586.751,482.336 L621.951,482.336 L575.689,365.993 L531.769,366.003 Z M553.112,387.226 L573.029,441.726 L532.566,441.726 L553.112,387.226 L553.112,387.226 Z"/>
    <path fill="#7AB547" d="M215.177,93.258 L215.177,65.289 C217.891,65.097 220.634,64.952 223.43,64.864 C299.923,62.46 350.108,130.591 350.108,130.591 C350.108,130.591 295.906,205.874 237.791,205.874 C229.42,205.874 221.93,204.525 215.177,202.258 L215.177,117.448 C244.956,121.045 250.943,134.2 268.851,164.042 L308.669,130.47 C308.669,130.47 279.604,92.348 230.606,92.348 C225.274,92.348 220.179,92.724 215.177,93.258 L215.177,93.258 Z M215.177,0.869 L215.177,42.645 C217.922,42.428 220.671,42.254 223.43,42.154 C329.805,38.57 399.108,129.394 399.108,129.394 C399.108,129.394 319.504,226.191 236.576,226.191 C228.977,226.191 221.862,225.49 215.177,224.306 L215.177,250.129 C220.895,250.856 226.816,251.284 232.997,251.284 C310.172,251.284 365.983,211.875 420.027,165.227 C428.98,172.402 465.666,189.855 473.209,197.504 C421.821,240.52 302.072,275.19 234.184,275.19 C227.642,275.19 221.35,274.796 215.177,274.202 L215.177,310.494 L508.501,310.494 L508.501,0.869 L215.177,0.869 Z M215.177,202.258 L215.177,224.306 C143.798,211.58 123.987,137.382 123.987,137.382 C123.987,137.382 158.257,99.411 215.177,93.258 L215.177,117.448 C215.133,117.448 215.104,117.437 215.065,117.437 C185.198,113.849 161.86,141.758 161.86,141.758 C161.86,141.758 174.935,188.737 215.177,202.258 L215.177,202.258 Z M88.401,134.167 C88.401,134.167 130.705,71.743 215.177,65.289 L215.177,42.645 C121.616,50.154 40.595,129.394 40.595,129.394 C40.595,129.394 86.48,262.057 215.177,274.202 L215.177,250.129 C120.737,238.247 88.401,134.167 88.401,134.167 L88.401,134.167 Z"/>
  </g>
</svg>
