<svg id="e2b56a66-9afd-498d-8647-b5bed051b403" data-name="Layer 1" xmlns="http://www.w3.org/2000/svg" viewBox="0 0 159.57 38.19"><title>bkng-history-logo</title><path d="M40.86,1.28h5.26C49,1.28,51,2.56,51,5a3.49,3.49,0,0,1-1.66,3v0a3.21,3.21,0,0,1,2.24,3.22c0,3.12-2.6,4.26-5.43,4.26H40.86Zm5.3,5.53a1.2,1.2,0,0,0,1.26-1.32A1.16,1.16,0,0,0,46.1,4.28H44.36V6.81Zm.3,5.76A1.41,1.41,0,0,0,48,11.07a1.37,1.37,0,0,0-1.49-1.46H44.36v3Z" transform="translate(0 -0.41)"/><path d="M64.52,1A7.23,7.23,0,0,1,72,8.33a7.48,7.48,0,1,1-15,0A7.23,7.23,0,0,1,64.52,1Zm0,11.57a4,4,0,0,0,3.86-4.28,3.86,3.86,0,1,0-7.71,0A4,4,0,0,0,64.52,12.61Z" transform="translate(0 -0.41)"/><path d="M84.87,1a7.23,7.23,0,0,1,7.47,7.29,7.48,7.48,0,1,1-15,0A7.23,7.23,0,0,1,84.87,1Zm0,11.57a4,4,0,0,0,3.85-4.28,3.86,3.86,0,1,0-7.71,0A4,4,0,0,0,84.87,12.61Z" transform="translate(0 -0.41)"/><path d="M98.72,1.28h3.5V6.79h1.43l3-5.51h3.76l-3.86,6.83v0l4.08,7.42h-3.92l-3-5.8h-1.43v5.8h-3.5Z" transform="translate(0 -0.41)"/><path d="M116.54,1.28H120V15.57h-3.5Z" transform="translate(0 -0.41)"/><path d="M127.4,1.28h3.53l4,6.67a25.59,25.59,0,0,1,1.2,2.44h0S136,8.85,136,8V1.28h3.5V15.57H136l-4-6.66a25.59,25.59,0,0,1-1.2-2.44h0s.16,1.54.16,2.44v6.66H127.4Z" transform="translate(0 -0.41)"/><path d="M153.36,1a7.89,7.89,0,0,1,5.49,1.9l-1.68,2.62a5.68,5.68,0,0,0-3.47-1.32c-3,0-4.22,1.91-4.22,4a4.06,4.06,0,0,0,4.1,4.34,4.88,4.88,0,0,0,2.89-1v-1.1h-2v-3h5.12v8.08h-2.92v-.4c0-.3,0-.6,0-.6h0a5.91,5.91,0,0,1-3.75,1.24,7,7,0,0,1-7-7.42A7.24,7.24,0,0,1,153.36,1Z" transform="translate(0 -0.41)"/><path d="M41.05,24.7h1.28v5.93h7.56V24.7h1.28v13H49.89v-6H42.33v6H41.05Z" transform="translate(0 -0.41)" fill="#00aeef"/><path d="M64.39,24.48A6.59,6.59,0,0,1,71,31.14a6.64,6.64,0,1,1-13.28,0A6.59,6.59,0,0,1,64.39,24.48Zm0,12.29a5.43,5.43,0,0,0,5.31-5.63,5.31,5.31,0,1,0-10.61,0A5.41,5.41,0,0,0,64.39,36.77Z" transform="translate(0 -0.41)" fill="#00aeef"/><path d="M77.6,24.7h1.29V36.59h6v1.15H77.6Z" transform="translate(0 -0.41)" fill="#00aeef"/><path d="M90.9,24.7h4.21c3.91,0,6.55,2.39,6.55,6.51S99,37.74,95.11,37.74H90.9ZM95,36.59c3.21,0,5.34-1.89,5.34-5.38S98.17,25.85,95,25.85h-2.8V36.59Z" transform="translate(0 -0.41)" fill="#00aeef"/><path d="M108.31,24.7h1.28v13h-1.28Z" transform="translate(0 -0.41)" fill="#00aeef"/><path d="M117.06,24.7h1.24L125,34.08c.44.65,1.07,1.77,1.07,1.77h0s-.11-1.08-.11-1.77V24.7h1.28v13H126l-6.66-9.39c-.45-.65-1.08-1.76-1.08-1.76h0s.11,1.08.11,1.76v9.39h-1.28Z" transform="translate(0 -0.41)" fill="#00aeef"/><path d="M140.4,24.48A7.07,7.07,0,0,1,145,26l-.69,1a6.4,6.4,0,0,0-3.89-1.3,5.24,5.24,0,0,0-5.29,5.53,5.25,5.25,0,0,0,5.18,5.58,5.7,5.7,0,0,0,4.1-1.91v-2.2h-2.23V31.51h3.45v6.23h-1.19v-1c0-.28,0-.56,0-.56h0A5.82,5.82,0,0,1,140.22,38a6.46,6.46,0,0,1-6.39-6.75A6.54,6.54,0,0,1,140.4,24.48Z" transform="translate(0 -0.41)" fill="#00aeef"/><path d="M152.24,35.31a5.11,5.11,0,0,0,3.42,1.43,2.35,2.35,0,0,0,2.59-2.27c0-3.28-6.51-2.44-6.51-6.49,0-1.87,1.65-3.5,4.06-3.5a5.05,5.05,0,0,1,3.49,1.26l-.63,1.07a4.46,4.46,0,0,0-2.86-1.11A2.49,2.49,0,0,0,153.06,28c0,3.09,6.51,2.2,6.51,6.49,0,1.94-1.5,3.52-3.95,3.52a5.76,5.76,0,0,1-4.14-1.67Z" transform="translate(0 -0.41)" fill="#00aeef"/><circle cx="0.99" cy="14.57" r="0.99" fill="#002e6d"/><circle cx="0.99" cy="10.04" r="0.99" fill="#002e6d"/><circle cx="0.99" cy="5.52" r="0.99"/><circle cx="0.99" cy="0.99" r="0.99"/><circle cx="4.51" cy="14.57" r="0.99" fill="#002e6d"/><circle cx="4.51" cy="10.04" r="0.99" fill="#002e6d"/><circle cx="4.51" cy="5.52" r="0.99"/><circle cx="4.51" cy="0.99" r="0.99"/><circle cx="8.03" cy="14.57" r="0.99" fill="#002e6d"/><circle cx="8.03" cy="10.04" r="0.99" fill="#002e6d"/><circle cx="8.03" cy="5.52" r="0.99"/><circle cx="8.03" cy="0.99" r="0.99"/><circle cx="11.55" cy="14.57" r="0.99" fill="#002e6d"/><circle cx="15.07" cy="14.57" r="0.99" fill="#002e6d"/><circle cx="15.07" cy="10.04" r="0.99" fill="#002e6d"/><circle cx="15.07" cy="5.52" r="0.99"/><circle cx="15.07" cy="0.99" r="0.99"/><circle cx="18.59" cy="14.57" r="0.99" fill="#002e6d"/><circle cx="18.59" cy="10.04" r="0.99" fill="#002e6d"/><circle cx="18.59" cy="5.52" r="0.99"/><circle cx="18.59" cy="0.99" r="0.99"/><circle cx="22.11" cy="14.57" r="0.99" fill="#002e6d"/><circle cx="22.11" cy="10.04" r="0.99" fill="#002e6d"/><circle cx="22.11" cy="5.52" r="0.99"/><circle cx="22.11" cy="0.99" r="0.99"/><circle cx="25.63" cy="14.57" r="0.99" fill="#002e6d"/><circle cx="25.63" cy="10.04" r="0.99" fill="#002e6d"/><circle cx="25.63" cy="5.52" r="0.99"/><circle cx="11.55" cy="10.04" r="0.99" fill="#002e6d"/><circle cx="11.55" cy="5.52" r="0.99"/><circle cx="11.55" cy="0.99" r="0.99"/><circle cx="0.99" cy="19.09" r="0.99" fill="#076ab1"/><circle cx="0.99" cy="23.62" r="0.99" fill="#076ab1"/><circle cx="0.99" cy="28.15" r="0.99" fill="#00aeef"/><circle cx="0.99" cy="32.67" r="0.99" fill="#00aeef"/><circle cx="0.99" cy="37.2" r="0.99" fill="#00aeef"/><circle cx="4.51" cy="19.09" r="0.99" fill="#076ab1"/><circle cx="4.51" cy="23.62" r="0.99" fill="#076ab1"/><circle cx="4.51" cy="28.15" r="0.99" fill="#00aeef"/><circle cx="4.51" cy="32.67" r="0.99" fill="#00aeef"/><circle cx="4.51" cy="37.2" r="0.99" fill="#00aeef"/><circle cx="8.03" cy="19.09" r="0.99" fill="#076ab1"/><circle cx="8.03" cy="23.62" r="0.99" fill="#076ab1"/><circle cx="8.03" cy="28.15" r="0.99" fill="#00aeef"/><circle cx="8.03" cy="32.67" r="0.99" fill="#00aeef"/><circle cx="8.03" cy="37.2" r="0.99" fill="#00aeef"/><circle cx="11.55" cy="19.09" r="0.99" fill="#076ab1"/><circle cx="11.55" cy="23.62" r="0.99" fill="#076ab1"/><circle cx="15.07" cy="23.62" r="0.99" fill="#076ab1"/><circle cx="15.07" cy="28.15" r="0.99" fill="#00aeef"/><circle cx="15.07" cy="32.67" r="0.99" fill="#00aeef"/><circle cx="15.07" cy="37.2" r="0.99" fill="#00aeef"/><circle cx="18.59" cy="23.62" r="0.99" fill="#076ab1"/><circle cx="18.59" cy="28.15" r="0.99" fill="#00aeef"/><circle cx="18.59" cy="32.67" r="0.99" fill="#00aeef"/><circle cx="18.59" cy="37.2" r="0.99" fill="#00aeef"/><circle cx="22.11" cy="23.62" r="0.99" fill="#076ab1"/><circle cx="22.11" cy="28.15" r="0.99" fill="#00aeef"/><circle cx="22.11" cy="32.67" r="0.99" fill="#00aeef"/><circle cx="22.11" cy="37.2" r="0.99" fill="#00aeef"/><circle cx="25.63" cy="23.62" r="0.99" fill="#076ab1"/><circle cx="25.63" cy="28.15" r="0.99" fill="#00aeef"/><circle cx="15.07" cy="19.09" r="0.99" fill="#076ab1"/><circle cx="18.59" cy="19.09" r="0.99" fill="#076ab1"/><circle cx="22.11" cy="19.09" r="0.99" fill="#076ab1"/><circle cx="25.63" cy="32.67" r="0.99" fill="#00aeef"/><circle cx="11.55" cy="28.15" r="0.99" fill="#00aeef"/><circle cx="11.55" cy="32.67" r="0.99" fill="#00aeef"/><circle cx="11.55" cy="37.2" r="0.99" fill="#00aeef"/></svg>