<?xml version="1.0" encoding="UTF-8" standalone="no"?>
<svg xmlns:rdf="http://www.w3.org/1999/02/22-rdf-syntax-ns#" xmlns="http://www.w3.org/2000/svg" height="32.812mm" width="56.444mm" version="1.1" xmlns:cc="http://creativecommons.org/ns#" xmlns:dc="http://purl.org/dc/elements/1.1/" viewBox="0 0 200.00002 116.26312">
 <defs>
  <clipPath id="c" clipPathUnits="userSpaceOnUse">
   <path d="m363.16 486h-0.004c-5.986-0.001-12.32-0.637-18.746-1.978-26.332-5.492-45.747-20.956-45.753-35.658-0.001-1.123 0.112-2.242 0.343-3.35 1.906-9.136 11.447-15.62 24.7-18.256 2.802 10.807 9.245 35.542 9.245 35.542 1.264 4.892 1.969 6.781 3.22 8.911 1.628 2.752 4.239 5.027 7.899 5.358 1.99 0.179 4.953-0.071 6.61-1.235 1.565-1.098 1.764-2.248 1.713-3.296-0.108-2.163-1.431-3.61-3.545-3.61-2.169 0-2.845 1.591-2.855 2.64-0.013 1.428 0.834 1.648 0.824 2.706-0.006 0.541-0.498 1.386-1.853 1.174-1.673-0.263-3.066-1.59-3.972-3.904-0.213-0.538-0.474-1.258-0.8-2.488l-1.663-6.467h10.971c-1.433-5.196-3.863-14.426-4.543-16.954h-5.542l3.803 14.174h-5.432l-8.678-33.387c2.808-0.318 5.742-0.48 8.772-0.474 5.834 0.012 12.022 0.644 18.344 1.964 26.393 5.506 46.584 21.115 46.603 35.86 0.001 1.09-0.107 2.176-0.332 3.251-2.522 12.086-18.918 19.477-39.325 19.477h-0.004m-48.726-15.449h6.482c9.944 0 10.644-5.075 9.801-8.688-1.041-4.472-3.721-7.661-15.136-7.68-1.126-4.16-2.099-7.758-2.448-9.048h-5.577c1.022 3.772 6.878 25.416 6.878 25.416m50.024-19.426c0 6.137 5.523 11.369 11.427 11.369 2.936 0 5.472-1.364 5.472-3.687 0-2.409-1.918-4.887-4.818-5.827-1.804-0.604-3.628-0.961-6.689-0.961-0.073-0.644-0.044-0.893-0.044-1.241 0-1.637 1.392-3.034 3.329-3.034 2.599 0 5.051 2.384 5.338 2.673l0.966-2.582c-0.777-0.806-1.643-1.506-2.628-2.017-1.552-0.808-3.331-1.243-5.277-1.243-4.219 0-7.076 2.638-7.076 6.55m30.918 11.257c3.079 0 3.541-1.831 3.541-3.251 0-1.667-1.177-2.811-2.525-2.811-1.023 0-1.473 0.411-1.654 0.591-0.47 0.47-0.549 0.951-0.602 1.351-0.067 0.471-0.221 0.926-0.76 1.014-0.78 0.123-1.418-0.19-2.08-0.778-0.895-0.796-1.658-2.054-2.215-3.264-0.384-0.834-0.669-1.625-0.829-2.188l-2.153-7.911h-5.582l4.577 16.954h5.413l-0.971-3.398c1.272 1.541 3.652 3.691 5.84 3.691m-43.362-0.293h13.874c-1.598-5.272-9.111-9.554-11.185-13.544h8.743l-0.916-3.41h-14.198c0 5.357 8.965 11.545 10.67 14.174h-7.739l0.751 2.78zm-32.69 5.933c-0.799-2.953-1.928-7.128-3.013-11.135 4.424 0.011 7.203 0.777 8.567 5.155 1.114 3.584 0.678 5.98-4.581 5.98h-0.973zm53.788-9.151c-1.387-1.063-2.451-2.737-2.867-4.608 2.523 0.088 3.949 0.465 5.258 1.492 1.177 0.923 1.706 1.963 1.706 2.839 0 0.481-0.296 1.235-1.651 1.235-0.617 0-1.622-0.323-2.446-0.958"/>
  </clipPath>
  <clipPath id="b" clipPathUnits="userSpaceOnUse">
   <path d="m298.65 486h104.17v-60.558h-104.17v60.558z"/>
  </clipPath>
  <radialGradient id="a" gradientUnits="userSpaceOnUse" cy="0" cx="0" gradientTransform="matrix(99.925 0 0 -99.925 308.66 489.77)" r="1">
   <stop stop-color="#00b9f2" offset="0"/>
   <stop stop-color="#00b9f2" offset=".25275"/>
   <stop stop-color="#00a5e8" offset=".52747"/>
   <stop stop-color="#006cb7" offset="1"/>
  </radialGradient>
 </defs>
 <g transform="translate(200 -251.37)">
  <g transform="matrix(1.92 0 0 -1.92 -773.43 1184.5)">
   <g clip-path="url(#c)">
    <g clip-path="url(#b)">
     <path fill="url(#a)" d="m363.16 486h-0.004c-5.986-0.001-12.32-0.637-18.746-1.978-26.332-5.492-45.747-20.956-45.753-35.658-0.001-1.123 0.112-2.242 0.343-3.35 1.906-9.136 11.447-15.62 24.7-18.256 2.802 10.807 9.245 35.542 9.245 35.542 1.264 4.892 1.969 6.781 3.22 8.911 1.628 2.752 4.239 5.027 7.899 5.358 1.99 0.179 4.953-0.071 6.61-1.235 1.565-1.098 1.764-2.248 1.713-3.296-0.108-2.163-1.431-3.61-3.545-3.61-2.169 0-2.845 1.591-2.855 2.64-0.013 1.428 0.834 1.648 0.824 2.706-0.006 0.541-0.498 1.386-1.853 1.174-1.673-0.263-3.066-1.59-3.972-3.904-0.213-0.538-0.474-1.258-0.8-2.488l-1.663-6.467h10.971c-1.433-5.196-3.863-14.426-4.543-16.954h-5.542l3.803 14.174h-5.432l-8.678-33.387c2.808-0.318 5.742-0.48 8.772-0.474 5.834 0.012 12.022 0.644 18.344 1.964 26.393 5.506 46.584 21.115 46.603 35.86 0.001 1.09-0.107 2.176-0.332 3.251-2.522 12.086-18.918 19.477-39.325 19.477h-0.004m-48.726-15.449h6.482c9.944 0 10.644-5.075 9.801-8.688-1.041-4.472-3.721-7.661-15.136-7.68-1.126-4.16-2.099-7.758-2.448-9.048h-5.577c1.022 3.772 6.878 25.416 6.878 25.416m50.024-19.426c0 6.137 5.523 11.369 11.427 11.369 2.936 0 5.472-1.364 5.472-3.687 0-2.409-1.918-4.887-4.818-5.827-1.804-0.604-3.628-0.961-6.689-0.961-0.073-0.644-0.044-0.893-0.044-1.241 0-1.637 1.392-3.034 3.329-3.034 2.599 0 5.051 2.384 5.338 2.673l0.966-2.582c-0.777-0.806-1.643-1.506-2.628-2.017-1.552-0.808-3.331-1.243-5.277-1.243-4.219 0-7.076 2.638-7.076 6.55m30.918 11.257c3.079 0 3.541-1.831 3.541-3.251 0-1.667-1.177-2.811-2.525-2.811-1.023 0-1.473 0.411-1.654 0.591-0.47 0.47-0.549 0.951-0.602 1.351-0.067 0.471-0.221 0.926-0.76 1.014-0.78 0.123-1.418-0.19-2.08-0.778-0.895-0.796-1.658-2.054-2.215-3.264-0.384-0.834-0.669-1.625-0.829-2.188l-2.153-7.911h-5.582l4.577 16.954h5.413l-0.971-3.398c1.272 1.541 3.652 3.691 5.84 3.691m-43.362-0.293h13.874c-1.598-5.272-9.111-9.554-11.185-13.544h8.743l-0.916-3.41h-14.198c0 5.357 8.965 11.545 10.67 14.174h-7.739l0.751 2.78zm-32.69 5.933c-0.799-2.953-1.928-7.128-3.013-11.135 4.424 0.011 7.203 0.777 8.567 5.155 1.114 3.584 0.678 5.98-4.581 5.98h-0.973zm53.788-9.151c-1.387-1.063-2.451-2.737-2.867-4.608 2.523 0.088 3.949 0.465 5.258 1.492 1.177 0.923 1.706 1.963 1.706 2.839 0 0.481-0.296 1.235-1.651 1.235-0.617 0-1.622-0.323-2.446-0.958"/>
    </g>
   </g>
  </g>
 </g>
</svg>
