<?xml version="1.0" encoding="UTF-8" standalone="no"?>
<svg
   xmlns:dc="http://purl.org/dc/elements/1.1/"
   xmlns:cc="http://creativecommons.org/ns#"
   xmlns:rdf="http://www.w3.org/1999/02/22-rdf-syntax-ns#"
   xmlns:svg="http://www.w3.org/2000/svg"
   xmlns="http://www.w3.org/2000/svg"
   version="1.1"
   id="svg52238"
   viewBox="0 0 300 131.33025"
   height="131.33025"
   width="300">
  <defs
     id="defs52240">
    <clipPath
       id="clipPath52204"
       clipPathUnits="userSpaceOnUse">
      <path
         id="path52206"
         d="m 385.674,190.324 85.5,0 0,85.5 -85.5,0 0,-85.5 z" />
    </clipPath>
  </defs>
  <metadata
     id="metadata52243">
    <rdf:RDF>
      <cc:Work
         rdf:about="">
        <dc:format>image/svg+xml</dc:format>
        <dc:type
           rdf:resource="http://purl.org/dc/dcmitype/StillImage" />
        <dc:title></dc:title>
      </cc:Work>
    </rdf:RDF>
  </metadata>
  <g
     transform="translate(-447.88614,-495.15805)"
     id="layer1">
    <g
       id="g52200"
       transform="matrix(5.0572762,0,0,-5.0572762,-1588.5099,1740.7479)">
      <g
         clip-path="url(#clipPath52204)"
         id="g52202">
        <g
           transform="translate(418.8803,243.8706)"
           id="g52208">
          <path
             id="path52210"
             style="fill:#003cae;fill-opacity:1;fill-rule:nonzero;stroke:none"
             d="m 0,0 c 1.2,0 4.522,-0.16 2.37,-6.431 -2.232,-6.579 -7.207,-5.23 -7.207,-5.23 L -1.177,0 0,0 Z m 8.903,-6.847 c 2.798,6.9 -2.458,8.788 -5.867,8.788 l -11.291,0 c 0.936,-0.651 0.78,-1.514 0.605,-2.027 l -6.587,-21.057 c -0.26,-0.846 -1.258,-1.701 -1.779,-1.855 l 9.149,0 c -0.517,0.101 -1.228,0.819 -0.96,1.787 l 2.389,7.618 c 0,0 11.002,-1.487 14.341,6.746" />
        </g>
        <g
           transform="translate(431.4747,224.1106)"
           id="g52212">
          <path
             id="path52214"
             style="fill:#003cae;fill-opacity:1;fill-rule:nonzero;stroke:none"
             d="m 0,0 c -0.361,-0.223 -1.79,-0.949 -3.127,-1.071 -1.255,-0.11 -3.316,0.363 -3.316,2.845 0,2.145 2.327,3.675 3.559,4.229 C -2.326,3.945 -1.214,1.603 0,0 M 3.604,13.41 C 3.299,11.396 0.712,9.369 0.075,9.11 -0.041,10.236 0,12.022 0.936,13.469 c 0.647,0.961 1.466,1.379 2.128,1.146 0.54,-0.185 0.605,-0.67 0.54,-1.205 m 0,-16.648 6.175,0 C 7.808,-2.591 4.892,-0.729 3.724,0.591 4.673,1.603 5.823,2.894 6.039,5.514 l -3.197,0 c 0,0 0.635,-0.338 0.635,-1.093 C 3.477,3.72 3.194,2.768 2.654,2.09 1.725,3.476 0.712,5.059 0.357,7.385 c 1.252,0.622 3.025,1.294 4.409,2.509 1.34,1.176 1.64,2.253 1.658,2.978 l 0,0.094 c 0,0.75 -0.278,1.436 -0.836,1.979 -0.915,0.918 -2.38,1.279 -3.908,1.013 -1.246,-0.24 -2.279,-0.89 -2.786,-1.371 -1.892,-1.738 -2.127,-4.629 -2.127,-5.928 0,-0.29 0.022,-0.552 0.028,-0.69 C -3.294,7.941 -3.509,7.85 -3.509,7.85 -4.846,7.358 -8.47,6.389 -9.769,3.409 c -0.163,-0.367 -0.4,-1.197 -0.4,-2.156 0,-0.806 0.162,-1.717 0.688,-2.563 0.929,-1.423 2.464,-2.308 4.951,-2.271 2.695,0.034 5.359,1.882 5.818,2.218 0.475,-0.444 1.701,-1.573 2.316,-1.875" />
        </g>
        <g
           transform="translate(453.7923,243.8516)"
           id="g52216">
          <path
             id="path52218"
             style="fill:#003cae;fill-opacity:1;fill-rule:nonzero;stroke:none"
             d="m 0,0 c 3.667,0.875 6.688,-1.997 6.97,-2.174 l 1.027,3.309 c -1.439,0.437 -11.932,3.997 -19.351,-4.477 -4.558,-5.214 -5.702,-15.881 0.101,-18.738 6.196,-3.068 13.047,0.466 13.528,0.706 l 2.847,8.991 c 0.301,1.107 0.982,1.817 2.207,2.263 l -9.823,0 c 1.426,-0.606 1.331,-1.68 1.205,-2.121 l -2.82,-9.011 c -0.38,-0.064 -8.284,-2.036 -3.86,11.795 C -7.03,-6.5 -4.342,-1.061 0,0" />
        </g>
      </g>
    </g>
  </g>
</svg>
