<?xml version="1.0" encoding="iso-8859-1"?>
<!-- Generator: Adobe Illustrator 14.0.0, SVG Export Plug-In . SVG Version: 6.00 Build 43363)  -->
<!DOCTYPE svg PUBLIC "-//W3C//DTD SVG 1.1//EN" "http://www.w3.org/Graphics/SVG/1.1/DTD/svg11.dtd">
<svg version="1.1" id="Layer_1" xmlns="http://www.w3.org/2000/svg" xmlns:xlink="http://www.w3.org/1999/xlink" x="0px" y="0px"
	 width="250px" height="38px" viewBox="0 0 250 38" style="enable-background:new 0 0 250 38;" xml:space="preserve">
<g>
	<path style="fill:#0056B7;" d="M129.316,6.715c-0.854-1.36-2.513-1.844-3.783-1.844H112.64l-13.345,28.37h6.699l5.111-11.137
		l3.596,0.009c0.003,0,1.04,0.049,1.521,0.838c0.432,0.714,0.314,1.806-0.36,3.247c-1.619,3.471-2.904,7.072-2.904,7.072
		l6.797,0.004c0,0,0.253-1.378,0.824-2.742c0.516-1.242,2.077-5.156,2.088-5.193c1.308-3.226-0.302-4.496-1.322-5.128
		c2.576-0.27,4.417-1.482,5.46-3.636c0.85-1.754,2.164-4.597,2.175-4.625C130.281,9.258,129.884,7.616,129.316,6.715
		 M122.508,11.615l-1.17,2.458l-0.7,1.458c-0.567,1.2-1.44,1.808-2.599,1.808h-4.67l3.544-7.72h5.114c0,0,0.475,0.018,0.691,0.368
		C122.923,10.32,122.851,10.883,122.508,11.615"/>
	<g>
		<path style="fill:#0056B7;" d="M57.789,6.715c-0.853-1.36-2.513-1.844-3.783-1.844H41.109l-13.342,28.37h6.696l5.114-11.137
			l3.596,0.009c0.003,0,1.037,0.049,1.519,0.838c0.435,0.714,0.317,1.806-0.36,3.247c-1.619,3.471-2.901,7.072-2.901,7.072
			l6.797,0.004c0,0,0.25-1.378,0.821-2.742c0.519-1.242,2.078-5.156,2.092-5.193c1.308-3.226-0.302-4.496-1.322-5.128
			c2.576-0.27,4.417-1.482,5.459-3.636c0.85-1.754,2.164-4.597,2.175-4.625C58.753,9.258,58.353,7.616,57.789,6.715 M50.98,11.615
			l-1.173,2.458L49.11,15.53c-0.567,1.2-1.44,1.808-2.599,1.808h-4.673l3.647-7.72h5.013c0,0,0.476,0.018,0.691,0.368
			C51.395,10.32,51.323,10.883,50.98,11.615"/>
		<path style="fill:#0056B7;" d="M73.851,27.734c1.331-2.774,3.184-6.734,5.146-10.926l2.288-4.882
			c2.36-5.028-0.305-7.214-3.69-7.214h-8.116c-3.423,0-5.84,1.616-7.393,4.939c-0.833,1.785-2.228,4.702-3.841,8.08l-3.426,7.178
			c-3.417,7.195,1.697,8.377,4.215,8.377h5.14C69.325,33.337,71.86,31.883,73.851,27.734 M64.741,28.017h-2.95
			c-0.542,0.027-1.59-0.139-0.79-1.858c1.146-2.471,5.947-12.814,6.926-14.894c0.668-1.419,1.36-1.704,2.265-1.704h3.647
			c0.706-0.029,1.331,0.357,0.761,1.57l-6.808,14.54C66.841,27.68,66.199,28.017,64.741,28.017"/>
		<path style="fill:#0056B7;" d="M100.959,4.712h-6.94c-3.541,0-6.414,1.8-7.883,4.939c-1.256,2.692-7.235,15.258-7.235,15.258
			c-2.184,4.596-0.919,8.377,5.06,8.377H89.3c4.264,0.045,6.361-0.627,8.309-4.89l4.97-10.896l-10.127-0.014l-2.227,4.74
			l3.529,0.006l-1.982,4.292c-0.579,1.243-0.971,1.492-2.331,1.492h-3.506c-1.043,0.012-1.42-0.519-0.79-1.858
			c0.798-1.692,7.099-14.852,7.099-14.852c0.712-1.498,1.141-1.725,2.245-1.725h3.625c0.875-0.005,1.348,0.405,0.763,1.566
			c-0.132,0.258-1.59,3.416-1.59,3.416l6.391,0.047l1.452-3.123C107.252,6.912,105.365,4.772,100.959,4.712"/>
	</g>
	<polygon style="fill:#0056B7;" points="182.314,33.184 195.758,4.785 188.795,4.785 175.429,33.184 	"/>
	<polygon style="fill:#0056B7;" points="212.826,4.792 197.233,29.811 205.122,4.792 197.904,4.792 191.284,33.184 200.604,33.184 
		220.072,4.792 	"/>
	<path style="fill:#0056B7;" d="M159.493,23.335l-0.579-10.497c-0.069-1.263,0.239-2.982,2.556-2.982h4.653l2.385-5.063h-7.929
		c-6.28,0.007-8.421,3.842-8.177,8.351c0.145,2.757,0.533,11.726,0.533,11.726c0.095,2.161-0.734,3.174-2.757,3.175h-5.305
		l-2.374,5.151h8.453C156.558,33.195,159.862,29.533,159.493,23.335"/>
	<path style="fill:#0056B7;" d="M175.348,23.335l-0.579-10.497c-0.068-1.263,0.242-2.982,2.559-2.982h4.65l2.389-5.063h-7.932
		c-5.209,0.005-8.474,2.846-8.177,8.351c0.146,2.757,0.536,11.726,0.536,11.726c0.098,2.161-0.735,3.174-2.761,3.175h-5.166
		l-2.38,5.151h8.321C172.974,33.195,175.671,28.783,175.348,23.335"/>
	<path style="fill:#0056B7;" d="M136.499,4.83l-13.274,28.362h16.789l2.443-5.138h-10.199l3.593-7.562h8.62l2.21-4.75h-8.649
		l2.752-5.895l8.948,0.015c0.018,0,2.34-5.036,2.34-5.036L136.499,4.83z"/>
	<path style="fill:#0056B7;" d="M222.357,4.83l-13.271,28.362h16.786l2.443-5.138h-10.196l3.59-7.562h8.62l2.213-4.75h-8.652
		l2.755-5.895l8.942,0.015c0.018,0,2.343-5.036,2.343-5.036L222.357,4.83z"/>
	<path style="fill:#0056B7;" d="M11.883,33.276H5L18.236,4.877h12.747c2.93,0.01,5.661,2.288,3.44,7.201
		c-1.262,2.789-2.377,5.199-2.939,6.359c-1.749,3.595-3.993,4.923-8.28,4.893c-2.812-0.02-6.699,0-6.699,0L11.883,33.276z
		 M23.088,18.37c1.21,0.012,2-0.517,2.559-1.711c0.101-0.216,1.046-2.178,2.288-4.809c0.87-1.839,0.193-2.318-0.755-2.318
		l-4.328-0.006l-4.08,8.838L23.088,18.37z"/>
	<path style="fill:#0056B7;" d="M240.104,7.347c0-1.346,1.099-2.442,2.458-2.442c1.352,0,2.438,1.096,2.438,2.442
		c0,1.358-1.086,2.453-2.438,2.453C241.203,9.8,240.104,8.705,240.104,7.347 M244.709,7.347c0-1.186-0.962-2.146-2.146-2.146
		c-1.192,0-2.155,0.961-2.155,2.146c0,1.198,0.963,2.158,2.155,2.158C243.747,9.504,244.709,8.545,244.709,7.347 M243.778,8.716
		h-0.397l-0.781-1.26h-0.613v1.26h-0.334V5.981h1.189c0.23,0,0.461,0.013,0.669,0.135c0.204,0.115,0.305,0.36,0.305,0.591
		c0,0.536-0.377,0.737-0.864,0.749L243.778,8.716 M242.496,7.192c0.387,0,0.982,0.065,0.982-0.493c0-0.423-0.374-0.476-0.711-0.476
		h-0.781v0.968H242.496z"/>
</g>
</svg>
