<?xml version="1.0" encoding="UTF-8" standalone="no"?>
<!-- Created with Inkscape (http://www.inkscape.org/) -->
<svg
   xmlns:svg="http://www.w3.org/2000/svg"
   xmlns="http://www.w3.org/2000/svg"
   version="1.0"
   width="112"
   height="50"
   id="svg2">
  <defs
     id="defs4" />
  <g
     transform="translate(-257.26607,-478.41111)"
     id="layer1">
    <g
       transform="matrix(0.9832957,0,0,0.9832957,260.08126,481.2263)"
       id="g2384">
	<path
   d="M 2.817,36.278 L 6.097,36.278 C 6.895,36.278 7.722,36.394 7.722,37.744 C 7.722,39.137 6.705,39.166 5.836,39.166 L 2.817,39.166 L 2.817,36.278 M 0,44.755 L 2.817,44.755 L 2.817,41.053 L 7.185,41.053 C 9.464,41.053 10.626,39.747 10.626,37.541 C 10.626,36.148 9.914,34.391 6.967,34.391 L 0,34.391 L 0,44.755 z"
   id="path2386" />

	<path
   d="M 14.194,40.038 L 14.194,40.008 C 14.194,39.82 14.616,38.281 16.634,38.281 C 18.506,38.281 19.042,39.587 19.042,40.008 L 19.042,40.038 L 14.194,40.038 M 18.81,42.433 C 18.448,43.1 17.722,43.448 16.692,43.448 C 14.949,43.448 14.194,42.316 14.194,41.576 L 14.194,41.547 L 21.685,41.547 L 21.685,41.315 C 21.685,38.382 20.059,36.684 16.692,36.684 C 13.615,36.684 11.553,37.933 11.553,40.865 C 11.553,43.797 13.615,45.045 16.692,45.045 C 19.029,45.045 20.799,44.276 21.54,42.433 L 18.81,42.433 L 18.81,42.433 z"
   id="path2388" />

	<path
   d="M 23.223,36.975 L 25.692,36.975 L 25.692,38.498 L 25.72,38.498 C 26.648,37.308 27.376,36.771 28.826,36.771 C 29.117,36.771 29.465,36.786 29.755,36.844 L 29.755,39.239 C 29.291,39.108 28.826,39.007 28.348,39.007 C 26.607,39.007 25.778,39.892 25.778,41.402 L 25.778,44.755 L 23.223,44.755 L 23.223,36.975"
   id="path2390" />

	<polyline
   id="polyline2392"
   points="31.292,34.217 33.848,34.217 33.848,39.878 37.231,36.975 40.785,36.975 37.084,39.936 41.018,44.755    37.636,44.755 35.097,41.518 33.848,42.52 33.848,44.755 31.292,44.755 31.292,34.217  " />

	<path
   d="M 42.381,36.975 L 44.935,36.975 L 44.935,44.755 L 42.381,44.755 L 42.381,36.975 z M 42.381,34.217 L 44.935,34.217 L 44.935,36.017 L 42.381,36.017 L 42.381,34.217 z"
   id="path2394" />

	<path
   d="M 53.382,40.342 C 53.382,39.268 52.817,38.745 51.67,38.745 C 50.48,38.745 49.477,39.341 49.477,40.995 L 49.477,44.755 L 46.923,44.755 L 46.923,36.975 L 49.39,36.975 L 49.39,38.107 L 49.419,38.107 C 49.885,37.454 51.105,36.771 52.598,36.771 C 53.92,36.771 55.936,37.279 55.936,39.573 L 55.936,44.755 L 53.382,44.755 L 53.382,40.342"
   id="path2396" />

	<path
   d="M 44.916,0.027 L 44.916,0.44 C 48.051,2.673 50.099,6.099 50.099,10.24 C 50.099,14.383 48.051,17.926 44.916,20.158 L 44.916,20.447 L 62.263,11.793 L 44.916,0.027"
   id="path2398"
   style="fill:#005daa" />

	<polyline
   id="polyline2400"
   points="33.984,29.904 24.508,29.904 28.3,0 37.776,0 33.984,29.904  "
   style="fill:#005daa" />

	<polyline
   id="polyline2402"
   points="58.193,34.391 67.875,34.391 67.875,36.365 61.009,36.365 61.009,38.514 67.526,38.514    67.526,40.4 61.009,40.4 61.009,42.78 67.933,42.78 67.933,44.755 58.193,44.755 58.193,34.391  "
   style="fill:#939598" />

	<rect
   width="2.556"
   height="10.538"
   x="69.614998"
   y="34.216999"
   id="rect2404"
   style="fill:#939598" />

	<path
   d="M 86.262,40.081 C 86.262,39.036 85.434,38.745 84.694,38.745 C 83.636,38.745 82.765,39.326 82.765,40.546 L 82.765,44.755 L 80.21,44.755 L 80.21,40.081 C 80.21,39.036 79.383,38.745 78.672,38.745 C 77.584,38.745 76.711,39.326 76.711,40.546 L 76.711,44.755 L 74.159,44.755 L 74.159,36.975 L 76.624,36.975 L 76.624,38.107 L 76.653,38.107 C 77.118,37.454 78.337,36.771 79.834,36.771 C 81.314,36.771 82.126,37.352 82.518,38.238 C 83.23,37.308 84.305,36.771 85.726,36.771 C 87.294,36.771 88.818,37.439 88.818,39.486 L 88.818,44.755 L 86.262,44.755 L 86.262,40.081"
   id="path2406"
   style="fill:#939598" />

	<path
   d="M 92.837,40.038 L 92.837,40.008 C 92.837,39.82 93.258,38.281 95.277,38.281 C 97.149,38.281 97.685,39.587 97.685,40.008 L 97.685,40.038 L 92.837,40.038 M 97.453,42.433 C 97.089,43.1 96.365,43.448 95.335,43.448 C 93.594,43.448 92.837,42.316 92.837,41.576 L 92.837,41.547 L 100.328,41.547 L 100.328,41.315 C 100.328,38.382 98.702,36.684 95.335,36.684 C 92.258,36.684 90.196,37.933 90.196,40.865 C 90.196,43.797 92.258,45.045 95.335,45.045 C 97.672,45.045 99.442,44.276 100.183,42.433 L 97.453,42.433 L 97.453,42.433 z"
   id="path2408"
   style="fill:#939598" />

	<path
   d="M 101.792,36.975 L 104.259,36.975 L 104.259,38.498 L 104.288,38.498 C 105.219,37.308 105.943,36.771 107.395,36.771 C 107.684,36.771 108.034,36.786 108.325,36.844 L 108.325,39.239 C 107.858,39.108 107.395,39.007 106.915,39.007 C 105.173,39.007 104.347,39.892 104.347,41.402 L 104.347,44.755 L 101.792,44.755 L 101.792,36.975"
   id="path2410"
   style="fill:#939598" />

</g>
  </g>
</svg>
