<?xml version="1.0" encoding="UTF-8" standalone="no"?>
<!-- Created with Inkscape (http://www.inkscape.org/) -->

<svg
   xmlns:dc="http://purl.org/dc/elements/1.1/"
   xmlns:cc="http://creativecommons.org/ns#"
   xmlns:rdf="http://www.w3.org/1999/02/22-rdf-syntax-ns#"
   xmlns:svg="http://www.w3.org/2000/svg"
   xmlns="http://www.w3.org/2000/svg"
   xmlns:sodipodi="http://sodipodi.sourceforge.net/DTD/sodipodi-0.dtd"
   xmlns:inkscape="http://www.inkscape.org/namespaces/inkscape"
   version="1.1"
   id="svg620"
   xml:space="preserve"
   width="1112.4169"
   height="159.73466"
   viewBox="0 0 1112.4169 159.73466"
   sodipodi:docname="Philip Morris International.svg"
   inkscape:version="0.92.1 r15371"><metadata
     id="metadata626"><rdf:RDF><cc:Work
         rdf:about=""><dc:format>image/svg+xml</dc:format><dc:type
           rdf:resource="http://purl.org/dc/dcmitype/StillImage" /><dc:title></dc:title></cc:Work></rdf:RDF></metadata><defs
     id="defs624"><clipPath
       clipPathUnits="userSpaceOnUse"
       id="clipPath636"><path
         d="M 0,120 H 835 V 0 H 0 Z"
         id="path634"
         inkscape:connector-curvature="0" /></clipPath></defs><sodipodi:namedview
     pagecolor="#ffffff"
     bordercolor="#666666"
     borderopacity="1"
     objecttolerance="10"
     gridtolerance="10"
     guidetolerance="10"
     inkscape:pageopacity="0"
     inkscape:pageshadow="2"
     inkscape:window-width="1680"
     inkscape:window-height="987"
     id="namedview622"
     showgrid="false"
     inkscape:zoom="0.37185631"
     inkscape:cx="556.20796"
     inkscape:cy="79.867733"
     inkscape:window-x="-8"
     inkscape:window-y="-8"
     inkscape:window-maximized="1"
     inkscape:current-layer="g628" /><g
     id="g628"
     inkscape:groupmode="layer"
     inkscape:label="Philip Morris International"
     transform="matrix(1.3333333,0,0,-1.3333333,-0.45866666,159.86693)"><g
       id="g630"><g
         id="g632"
         clip-path="url(#clipPath636)"><g
           id="g638"
           transform="translate(162.979,81.0332)"><path
             d="M 0,0 C 0,-0.074 -0.037,-0.331 -0.377,-0.897 L -0.391,-0.91 -0.397,-0.929 c -0.339,-0.642 -0.52,-1.309 -0.52,-1.938 0,-0.662 0.199,-1.273 0.591,-1.739 0.081,-0.095 0.172,-0.233 0.172,-0.357 0,-0.023 -0.003,-0.038 -0.018,-0.063 -0.045,-0.149 -0.252,-0.366 -0.724,-0.533 -0.816,-0.283 -1.382,-0.037 -1.801,0.142 l -0.074,0.042 c -0.064,0.021 -0.12,0.042 -0.179,0.059 -2.318,0.882 -1.46,0.671 -1.795,-1.512 -0.045,-0.285 -0.087,-0.596 -0.127,-0.928 -0.196,-1.517 -0.771,-3.938 -1.065,-4.634 l -0.18,-0.71 c -0.009,-0.038 -0.014,-0.088 -0.029,-0.133 -0.174,0.125 -0.444,0.37 -0.891,0.838 l -0.442,0.461 c -2.035,2.123 -3.935,4.332 -3.935,6.38 0,0.781 0.278,1.542 0.934,2.271 0.46,0.349 0.708,0.728 0.708,1.128 0,0.03 0,0.057 -0.005,0.081 -0.066,0.722 -0.788,1.081 -1.317,1.334 l -0.252,0.128 c -0.451,0.256 -3.556,1.367 -6.184,0.098 -1.828,-0.883 -2.984,-2.682 -3.42,-5.341 l -0.005,-0.046 c -0.253,-1.826 -0.775,-5.586 3.521,-9.328 -0.229,-0.433 -0.383,-0.873 -0.462,-1.345 -0.03,-0.243 -0.154,-0.615 -0.272,-1.017 -0.126,-0.439 -0.267,-0.901 -0.363,-1.34 -1.257,1.913 -2.982,4.83 -3.516,5.814 -1.536,2.846 -2.188,7.466 -0.467,10.802 0.857,1.651 2.192,2.874 3.983,3.65 0.996,0.377 2.762,1.159 5.429,0.269 0.928,-0.383 1.994,-0.818 2.873,-0.924 1.011,-0.121 2.12,0.169 3.093,0.422 0.633,0.165 1.288,0.336 1.643,0.291 C -4.967,1.329 -3.991,0.935 -3.215,0.621 -2.599,0.366 -2.104,0.17 -1.777,0.105 -1.58,0.064 -1.333,0.071 -1.058,0.08 -0.781,0.093 -0.172,0.116 0,0.004 Z m -2.163,-10.685 c -0.981,-2.148 -1.443,-3.94 -1.487,-5.354 -0.009,-0.733 0.643,-1.728 1.214,-1.948 0.124,-0.066 0.107,-0.175 -0.016,-0.255 -0.094,-0.046 -0.439,-0.246 -0.439,-0.246 -0.41,-0.24 -1.247,-0.547 -1.807,-0.59 -0.463,-0.045 -0.86,0.097 -1.22,0.424 -1.01,0.919 -1.55,3.098 -1.692,5.05 0.87,-0.864 1.416,-1.136 1.933,-0.981 0.606,0.176 0.71,0.809 0.8,1.27 l 0.099,0.44 c 0.371,0.873 0.95,3.427 1.147,4.961 0.045,0.425 0.15,1.172 0.273,1.413 0.025,-0.009 0.05,-0.011 0.089,-0.033 l 0.074,-0.034 c 0.123,-0.05 0.273,-0.119 0.445,-0.174 0.28,-0.558 0.77,-1.836 0.77,-2.941 0,-0.364 -0.057,-0.714 -0.183,-1.002 m -14.793,-7.271 c 0.123,0.461 0.188,0.767 0.306,1.184 0.226,0.774 0.591,1.569 1.647,2.765 0.013,0.014 0.027,0.018 0.05,0.037 0.022,-0.095 0.079,-0.344 0.079,-0.344 l 0.144,-0.45 c 0.202,-0.706 0.52,-1.673 0.699,-2.154 0.658,-1.747 0.423,-1.959 2.372,-1.119 l 0.506,0.21 c 0.059,0.038 0.093,0.049 0.132,0.067 0.032,-0.132 0.051,-0.337 0.065,-0.414 l 0.008,-0.092 c 0.039,-0.443 0.771,-3.296 0.945,-3.977 0.63,-2.43 -0.033,-2.241 1.983,-1.43 1.413,0.57 2.207,0.414 2.271,0.311 0.49,-0.821 -1.936,-4.731 -3.038,-5.711 -0.489,-0.434 -1.463,-2.041 -1.828,-2.885 l -0.062,-0.151 c -0.368,-0.861 -0.982,-2.292 -1.814,-3.312 -3.657,-4.371 -7.815,-2.639 -9.59,-1.893 l -0.146,0.056 c 0.343,0.839 0.534,1.725 0.61,2.604 0.875,-0.773 2.172,-1.308 3.854,-1.308 3.297,0 5.76,3.29 5.76,6.225 0,2.951 -2.421,4.525 -4.68,4.732 -1.232,0.112 -2.245,-0.25 -2.838,-0.557 -0.014,0.103 -0.023,0.321 -0.023,0.605 0,0.906 0.164,2.48 1.274,2.933 0.165,0.064 0.459,0.179 0.61,0.218 1.891,0.494 1.827,0.512 0.557,1.43 -0.072,0.051 -0.126,0.068 -0.19,0.124 -0.021,0.018 -0.039,0.034 -0.051,0.048 -0.044,0.052 -0.065,0.153 -0.065,0.274 0,0.514 0.306,1.538 0.453,1.974 m -2.951,-24.311 0.333,-0.249 c 0.717,-0.538 2.186,-1.645 2.075,-2.677 -0.091,-0.788 -0.101,-4.189 -0.101,-4.226 0,-0.384 0.163,-1.199 0.399,-2.472 0.164,-0.798 0.318,-1.621 0.368,-2.022 0.08,-0.901 -0.221,-3.965 -0.685,-4.826 -0.205,-0.367 -0.607,-0.477 -0.832,-0.512 -0.443,-0.062 -0.797,0.072 -0.906,0.181 l -0.172,0.176 c -0.711,1.995 -1.005,0.927 -1.668,-0.186 l -0.259,-0.185 c -0.718,-0.45 -1.371,0.222 -1.55,0.448 -0.178,0.196 -0.242,0.35 -0.236,0.513 0.008,0.066 0,0.122 -0.006,0.175 l 0.014,-0.002 c 0.318,1.794 0.239,1.623 -1.176,0.835 -0.073,-0.037 -0.16,-0.082 -0.236,-0.137 l 0.019,0.01 c -0.154,-0.092 -0.761,-0.308 -0.891,-0.227 -0.332,0.256 -0.45,0.426 -0.458,1.068 0,0.808 1.45,2.694 3.001,3.604 0.899,0.532 1.927,1.628 1.927,3.827 0,0.201 -0.003,0.411 -0.014,0.637 -0.123,1.382 -1.129,2.722 -1.944,2.996 -0.678,0.227 -2.455,0.506 -3.55,0.592 -0.43,0.041 -2.778,0.351 -5.983,2.801 -2.71,2.074 -4.256,6.074 -4.587,7.306 -0.048,0.177 -0.066,0.408 -0.066,0.688 0,1.609 0.718,4.581 1.142,5.358 0.423,0.78 0.651,1.824 0.651,2.83 0,0.111 -0.009,0.22 -0.009,0.333 0.779,-0.59 1.567,-1.285 2.076,-1.788 2.278,-2.23 1.87,-1.208 0.694,0.437 -0.55,0.761 -1.42,1.946 -2.472,2.682 -0.95,0.665 -2.734,1.588 -4.664,1.987 -1.873,0.394 -3.359,0.98 -4.078,1.591 0.154,0.09 0.287,0.177 0.408,0.249 0.064,0.044 1.085,0.709 2.008,1.382 0.319,-0.464 0.841,-0.912 1.396,-1.05 0.792,-0.195 2.286,0.09 2.923,0.997 0.342,0.483 0.573,1.06 0.775,1.524 0,0 0.265,0.605 0.282,0.637 0.283,0.334 2.118,1.64 2.546,1.838 0.581,0.265 0.432,0.384 -0.136,0.297 -0.678,-0.092 -3.063,-0.75 -3.493,-1.5 l -0.364,-0.79 c -0.174,-0.425 -0.379,-0.92 -0.641,-1.283 -0.287,-0.42 -1.227,-0.594 -1.588,-0.506 -0.26,0.069 -0.578,0.378 -0.715,0.614 0.199,0.176 0.347,0.329 0.425,0.442 0.165,0.292 0.072,0.657 -0.218,0.84 -0.289,0.18 -0.674,0.088 -0.862,-0.197 l 0.013,0.022 c -0.205,-0.253 -1.707,-1.356 -3.035,-2.213 -0.917,-0.594 -1.109,-0.71 -2.523,-1.392 l -0.698,-0.347 -0.346,-0.145 c -0.596,-0.234 -1.501,-0.583 -1.645,-2.137 -0.119,-1.309 -0.628,-2.269 -1.016,-2.311 -0.41,-0.036 -0.975,0.281 -1.238,0.598 0,0 -0.183,0.212 -0.255,0.361 -0.391,1.086 -0.596,1.081 -1.25,0.263 -0.208,-0.251 -0.996,0.004 -1.257,0.084 -0.252,0.119 -0.613,0.328 -0.5,0.751 0.427,2.182 0.43,2.3 -1.182,1.847 -0.244,-0.039 -0.407,0.119 -0.553,0.368 -0.136,0.232 0.062,0.856 0.367,1.806 l 0.029,0.09 c 0.225,0.757 0.99,1.439 1.724,2.09 0.341,0.328 0.813,0.736 1.137,1.057 0.726,0.633 1.758,0.906 3.018,1.304 1.184,0.367 2.914,1.226 3.62,1.933 0.509,0.51 2.658,2.078 4.093,2.743 0.647,0.303 0.605,0.529 -0.453,0.229 -1.388,-0.528 -3.792,-1.339 -4.535,-2.083 -0.053,-0.069 -0.136,-0.129 -0.228,-0.204 -1.251,4.256 -0.188,5.883 0.524,6.964 l 0.056,0.078 c 0.039,0.007 0.084,0.009 0.126,0.012 l 0.336,0.023 c 0,0 0.608,0.041 1.158,0.069 -0.017,-0.511 0.219,-0.84 0.388,-1.014 0.703,-0.666 2.031,-0.525 2.563,-0.307 0.036,0.018 3.547,1.502 4.219,1.958 0.236,0.155 0.505,0.302 0.718,0.408 0.098,-0.779 0.276,-2.118 0.489,-3.087 0.262,-1.137 0.792,-1.58 1.192,-1.747 0.426,-0.187 0.923,-0.142 1.347,0.115 l 0.139,0.064 c 0.489,0.292 1.51,0.662 2.524,2.78 0.083,0.192 0.171,0.349 0.236,0.495 0.027,-0.054 0.03,-0.1 0.061,-0.16 0.037,-0.086 0.174,-0.366 0.2,-0.418 l 0.211,-0.445 c 1.42,-2.894 4.062,-8.27 4.38,-13.875 l 0.235,-2.35 c 0.502,-3.131 1.498,-4.091 2.206,-4.769 0.175,-0.176 0.312,-0.31 0.394,-0.439 0.244,-0.383 0.815,-1.83 1.069,-3.622 0,-0.025 -0.005,-0.052 -0.005,-0.074 0,-0.275 0.033,-0.559 0.103,-0.83 0.09,-1.236 0.016,-2.574 -0.415,-3.81 -0.294,0.427 -0.544,0.802 -0.724,1.077 -1.46,2.224 -4.429,4.135 -1.069,-0.673 1.058,-1.5 2.967,-4.422 5.15,-6.197 m 3.495,-17.074 c 0.151,0.298 0.3,0.73 0.405,1.212 h 0.635 14.249 c -0.84,-1.426 -3.923,-6.773 -3.923,-6.773 0,0 2.944,-5.746 3.679,-7.16 h -36.474 l 2.959,10.103 -0.523,0.214 c -1.686,0.624 -3.414,1.209 -5.162,1.768 1.116,0.888 2.248,1.791 2.335,1.848 h 11.544 c 0.145,-0.2 0.32,-0.379 0.569,-0.563 0.466,-0.359 1.251,-0.198 1.794,0 0.071,-0.315 0.199,-0.635 0.463,-0.951 0.687,-0.797 1.916,-1.466 3.167,-0.684 0,0 0.313,0.222 0.541,0.378 l 0.009,-0.002 c 0.43,-0.443 1.215,-0.646 1.977,-0.533 0.78,0.108 1.412,0.527 1.756,1.143 m -24.859,-19.974 c -12.098,4.232 -26.291,6.655 -39.193,6.655 h -0.071 c -12.925,0 -27.097,-2.435 -39.197,-6.682 l -4.844,16.628 c 13.498,4.893 29.464,7.683 44.038,7.683 h 0.074 c 14.567,0 30.581,-2.808 44.082,-7.704 z m -118.957,7.253 c 0.727,1.414 3.675,7.16 3.675,7.16 0,0 -3.084,5.347 -3.907,6.773 h 12.174 c -0.008,-0.047 -0.017,-0.103 -0.017,-0.157 0,-0.277 0.059,-0.543 0.199,-0.796 0.242,-0.432 0.692,-0.707 1.322,-0.816 0.594,-0.123 1.699,-0.159 2.127,-0.141 l 0.259,0.008 c 1.496,0.052 3.153,0.109 3.662,1.902 h 1.023 16.864 c 0.081,-0.057 1.285,-0.943 2.481,-1.822 -1.775,-0.569 -3.524,-1.158 -5.24,-1.794 l -0.52,-0.189 2.978,-10.128 z m 11.559,16.927 -1.167,0.067 c -0.152,0.023 -0.207,0.062 -0.219,0.072 -0.125,0.17 0.056,0.909 0.151,1.308 0.084,0.375 0.135,0.845 0.157,1.216 0.029,0.333 0.074,0.784 0.164,1.202 0.202,0.977 0.473,2.248 0.473,4.268 0,0.523 -0.009,1.104 -0.057,1.746 -0.041,0.54 -0.053,0.978 -0.053,1.332 0,1.159 0.148,1.483 0.233,1.572 0.04,0.052 0.186,0.066 0.417,0.074 l 0.422,0.035 0.376,0.043 c 1.278,0.122 4.276,0.41 6.014,3.175 1.227,1.976 1.528,3.914 1.792,8.755 0.255,4.536 3.738,8.302 5.139,9.104 l 0.861,0.477 c 1.131,0.627 2.502,1.513 3.651,2.206 0.335,0.247 0.973,0.42 1.322,1.311 0.205,0.648 0.515,1.297 0.858,2.063 0.453,1.018 0.962,2.183 1.393,3.767 0.778,2.899 0.337,5.778 -0.484,8.102 0.148,-0.039 0.307,-0.072 0.469,-0.084 0.785,-0.087 1.34,0.195 1.691,0.805 0.346,-0.317 0.725,-0.494 1.465,-0.774 1.46,-0.556 3.286,-1.002 4.155,-0.227 0.045,-0.054 0.084,-0.099 0.138,-0.165 0.526,-0.681 2.725,-2.157 6.282,-4.522 2.455,-1.632 4.997,-3.319 6.109,-4.256 0.619,-0.516 0.853,-0.742 0.853,-1.413 0,-0.172 -0.015,-0.375 -0.049,-0.621 -0.058,-0.524 -0.214,-1.258 -0.377,-2.036 -0.27,-1.289 -0.427,-2.804 -0.497,-4.078 -0.115,-1.993 0.134,-3.467 0.134,-4.268 l 0.057,-0.66 c 0.036,-0.291 0.053,-0.527 0.053,-0.731 0,-0.452 -0.11,-0.711 -0.424,-0.895 -0.678,-0.39 -2.328,-0.951 -3.525,-1.363 -0.829,-0.281 -1.317,-0.456 -1.556,-0.562 -0.208,-0.099 -0.597,-0.183 -0.847,-0.023 -0.267,0.176 -0.34,0.645 -0.346,1.001 l -0.048,0.902 c -0.079,1.231 -0.087,1.304 0.836,1.644 0.259,0.093 0.372,0.054 0.613,-0.023 0.318,-0.103 0.76,-0.247 1.44,0 1.185,0.436 1.505,1.025 2.037,1.992 0.453,0.848 0.205,1.868 0.31,3.741 l 0.072,1.288 c 0.082,0.941 0.6,2.265 -1.876,3.059 -4.196,1.347 -6.638,2.067 -7.487,2.208 -1.144,0.184 -2.461,0.715 -2.684,0.943 -0.242,0.248 -0.618,0.248 -0.855,0 -0.242,-0.241 -0.242,-0.639 0,-0.884 0.56,-0.588 2.307,-1.128 3.353,-1.298 0.532,-0.095 2.221,-0.581 7.313,-2.168 0.125,-0.033 0.245,-0.081 0.352,-0.15 -0.194,-0.416 -0.402,-0.833 -0.627,-1.258 -0.883,-1.696 -3.047,-4.441 -4.042,-5.301 -1.649,-1.416 -3.649,-2.693 -5.884,-2.866 -4.178,-0.331 -7.354,-2.51 -9.46,-6.483 -0.79,-1.502 -1.384,-2.976 -1.86,-4.172 -0.487,-1.227 -0.906,-2.28 -1.313,-2.77 -0.805,-0.962 -2.988,-2.11 -4.061,-1.629 -1.458,0.633 -2.263,0.677 -3.179,0.147 -0.508,-0.289 -0.328,-0.675 -1.318,-0.592 -0.348,0.031 -1.58,0.095 -1.613,-0.245 -0.032,-0.352 0.85,-0.661 1.198,-0.693 1.924,-0.162 1.698,0.071 2.348,0.44 0.355,0.198 0.632,0.356 1.702,-0.062 -0.13,-0.835 -0.901,-1.433 -1.558,-1.693 -0.916,-0.368 -2.4,-0.206 -3.381,-0.091 -1.21,0.126 -2.973,-0.215 -3.14,-1.212 l -0.115,-0.508 c -0.11,-0.508 -0.273,-1.197 -0.369,-1.972 -0.135,-1.067 0.141,-3.144 0.794,-3.787 0.262,-0.266 1.012,-0.89 1.73,-1.499 l 1.158,-0.983 0.205,-0.17 c 0.524,-0.448 1.073,-0.905 1.017,-2.751 -0.045,-1.613 -0.662,-1.708 -2.605,-1.774 l -0.265,-0.002 c -1.256,-0.045 -2.005,0.3 -2.172,0.492 -0.373,0.243 0.234,1.037 0.324,1.294 0.046,0.145 0.076,0.273 0.09,0.393 0.347,1.455 1.297,1.408 -1.344,1.435 l 0.008,-0.012 c -0.27,0.032 -0.562,0.043 -0.872,0.047 m -0.923,24.356 c -1.291,2.626 -0.159,6.629 3.012,10.711 0,-0.008 0.865,1.146 0.865,1.146 l 0.368,0.462 c 0.652,0.797 1.71,2.521 1.71,4.009 0,0.241 -0.022,0.485 -0.095,0.711 -0.191,0.692 -0.686,1.187 -1.423,1.444 -0.368,0.127 -0.536,0.233 -0.616,0.288 0.143,0.175 0.519,0.445 0.717,0.572 l 0.292,0.207 c 0.489,0.367 1.334,0.551 1.986,0.428 l 0.329,-0.092 c 0.363,-0.109 0.861,-0.26 1.364,0.04 0.54,0.313 0.898,1.03 1.204,2.388 0.383,1.729 0.076,4.338 -1.346,6.411 -1.066,1.549 -3.647,3.65 -5.857,3.274 -0.83,-0.144 -1.905,-0.628 -2.4,-2.469 -0.126,-0.453 -0.233,-0.849 -0.233,-1.333 0,-1.625 0.83,-3.363 1.648,-3.998 0.033,-0.03 0.065,-0.056 0.09,-0.08 -0.073,-0.018 -0.219,-0.046 -0.244,-0.055 -0.045,-0.004 -0.212,0.02 -0.321,0.028 -0.759,0.088 -3.201,0.619 -3.482,-1.301 v -0.134 c 0,-0.371 -0.057,-0.999 -1.075,-2.75 -0.509,-0.862 -0.827,-1.191 -0.982,-1.324 -0.089,0.182 -0.171,0.48 -0.208,0.63 l -0.091,0.302 c -0.195,0.567 -0.269,1.385 -0.269,2.068 0,0.061 0.006,0.12 0.006,0.175 0.008,0.141 0.024,0.547 0.103,0.74 0.091,0.231 0.215,0.508 0.215,0.775 0,0.209 -0.083,0.413 -0.294,0.584 -0.539,0.401 -1.02,-0.114 -2.215,-0.884 -0.994,-0.65 -1.306,-0.65 -1.891,-0.571 -0.368,0.043 -0.928,0.24 -1.24,0.352 -0.245,0.075 -0.416,0.084 -0.548,0.129 0.893,0.792 2.927,3.009 3.121,3.821 0.043,0.17 -0.028,0.52 -0.093,0.619 -0.317,0.502 -0.832,1.105 -2.334,1.798 1.055,0.329 2.616,0.859 3.321,0.951 2.167,0.283 3.579,1.194 5.089,2.063 1.343,0.766 2.731,1.561 4.771,2.029 2.522,0.58 4.751,-0.802 7.486,-4.651 1.094,-1.525 1.341,-3.452 1.341,-5.217 0,-2.445 -0.635,-4.627 -0.999,-5.351 l -0.158,-0.302 c -0.25,-0.486 -0.553,-1.069 -0.553,-1.67 0,-0.541 0.244,-1.098 0.996,-1.604 0.564,-0.399 0.852,-0.669 0.852,-1.049 0,-0.273 -0.138,-0.59 -0.419,-1.055 l -0.931,-1.458 c -0.591,-0.918 -1.151,-1.801 -1.43,-2.401 -0.054,-0.14 -0.449,-0.776 -0.495,-0.618 -0.061,0.235 -0.123,0.472 -0.123,0.472 l -0.208,0.908 c -0.332,1.946 -0.644,2.345 -1.153,2.425 -0.271,0.038 -0.631,-0.065 -0.844,-0.483 l -0.554,-0.965 -0.554,-0.891 -0.569,-0.738 -0.61,-0.841 c -1.637,-2.23 -4.126,-5.595 -1.531,-8.806 1.607,-1.982 4.345,-1.377 5.779,-0.93 -0.072,-0.914 -0.136,-1.686 -0.222,-2.357 -3.982,0.039 -6.966,1.216 -8.055,3.418 m -2.795,17.017 -0.625,-0.966 c -0.948,-1.57 -1.713,-3.1 -2.27,-4.218 l -0.239,-0.501 c -0.45,-0.969 -0.56,-1.01 -0.821,-0.951 0,0.15 0.073,0.447 0.136,0.652 0.086,0.361 0.181,0.765 0.181,1.162 0,0.064 0,0.124 -0.005,0.176 -0.076,1.015 -1.173,2.782 -2.394,4.664 l -0.172,0.273 c -0.348,0.522 -0.438,1.322 -0.438,2.104 0,0.608 0.056,1.209 0.096,1.671 v 0.021 c 0.666,-0.054 1.479,-0.204 2.829,0.718 0,-0.038 -0.006,-0.088 -0.006,-0.129 0,-0.878 0.223,-1.937 0.45,-2.608 l 0.065,-0.23 c 0.16,-0.588 0.426,-1.58 1.297,-1.698 0.757,-0.1 1.462,0.519 2.377,2.068 1.176,2 1.265,2.83 1.258,3.504 v 0.062 l 0.039,0.056 c 0.017,0.017 0.081,0.025 0.192,0.03 0.365,-1.76 -0.967,-4.402 -1.95,-5.86 m 24.458,12.231 c -0.457,0.932 -0.928,1.715 -1.357,2.29 l -0.011,0.021 -0.016,0.015 c -0.062,0.073 -0.126,0.149 -0.197,0.223 v 0.007 c -2.448,3.055 -1.874,1.873 -2.175,-0.433 -0.019,-0.169 -0.037,-0.35 -0.053,-0.536 -0.019,-0.279 -0.054,-0.561 -0.107,-0.782 -0.082,-0.323 -0.175,-0.445 -0.217,-0.472 -0.039,-0.026 -0.193,-0.044 -0.708,0.11 -2.355,0.705 -2.957,2.418 -3.283,3.338 l -0.014,0.064 c -0.081,0.254 -0.183,0.481 -0.262,0.686 -1.192,3.059 -0.84,1.827 -1.828,0.722 h 0.011 c -0.101,-0.095 -0.191,-0.201 -0.261,-0.294 l -0.085,-0.107 c -0.145,-0.167 -0.211,-0.213 -0.245,-0.225 -0.016,0.012 -0.054,0.041 -0.098,0.085 -0.383,0.382 -1.247,1.753 -1.584,2.593 -0.072,0.196 -0.107,0.464 -0.107,0.76 0,0.685 0.16,1.538 0.268,2.115 l 0.056,0.304 0.046,0.197 c 0.28,1.02 0.415,1.569 0.016,1.974 -0.396,0.388 -0.912,0.249 -1.831,-0.008 l -0.177,-0.048 c -0.225,-0.062 -0.383,-0.101 -0.516,-0.131 0.169,0.904 0.297,1.821 0.297,2.675 0,1.59 -0.432,2.948 -1.863,3.569 -0.236,0.099 -0.403,0.199 -0.545,0.302 2.688,0.517 5.386,1.894 7.49,3.786 l 0.506,0.533 c 0.658,0.692 1.48,1.552 2.2,1.701 0.428,0.088 0.962,-0.091 1.609,-0.533 0.166,-0.118 0.517,-0.429 0.746,-0.633 0.387,-0.35 0.785,-0.714 1.223,-0.307 0.042,0.045 0.417,0.421 0,0.927 -0.765,0.951 -1.233,2.059 -1.072,2.302 0.009,0 0.236,0.204 1.619,-0.058 l -0.055,0.007 c 1.116,-0.278 4.185,-1.687 2.494,-0.278 0.361,0.09 0.74,0.222 1.12,0.32 l 0.535,0.106 c 0.287,0.041 0.568,0.053 0.858,0.002 0.757,-0.122 1.308,-0.201 1.702,-0.296 l 0.107,-0.024 c 0,0 0.385,0.001 0.503,0.001 -0.022,-0.064 -0.048,-0.146 -0.093,-0.244 -0.05,-0.068 -0.084,-0.146 -0.109,-0.241 -0.105,-0.757 1.575,-2.226 1.589,-2.24 0.32,-0.277 1.542,-1.471 2.824,-2.744 1.896,-1.859 4.033,-3.973 4.855,-4.653 1.134,-0.964 0.965,-1.856 0.811,-2.119 -0.218,-0.342 -0.603,-0.661 -0.915,-0.573 l -0.354,0.152 c -0.506,0.231 -1.189,0.554 -1.686,0.097 -0.224,-0.2 -0.308,-0.468 -0.308,-0.765 0,-0.372 0.129,-0.798 0.283,-1.218 0.08,-0.21 0.119,-0.353 0.133,-0.461 -0.209,-0.367 -0.993,-0.385 -1.511,-0.097 -0.27,0.155 -1.049,0.829 -1.618,1.318 l -1.079,0.9 c -1.084,0.83 -2.813,1.349 -3.719,1.494 -0.181,0.029 -0.481,0.149 -0.751,0.255 -0.191,0.082 -0.386,0.154 -0.572,0.206 -1.206,0.672 -1.509,2.295 -1.583,2.628 -0.085,0.347 -0.312,0.501 -0.354,0.035 -0.036,-0.458 -0.299,-1.848 0.894,-3.765 0.191,-0.378 0.555,-0.841 1.095,-1.454 l 0.533,-0.682 c 0.909,-1.209 2.28,-3.031 5.148,-4.672 l 1.762,-0.915 c 3.271,-1.639 8.013,-3.427 9.924,-8.605 0.705,-1.929 0.813,-4.256 0.253,-6.962 -1.288,0.914 -2.98,2.038 -4.636,3.14 -0.962,0.639 -2.017,1.346 -2.979,1.99 l 0.633,0.325 c 1.089,0.679 1.659,1.358 1.81,2.126 0.226,1.124 -0.623,2.119 -1.407,3.364 -1.811,2.91 -6.105,3.565 -8.873,3.912 l -1.869,0.294 c -2.929,0.541 -6.426,1.946 -8.533,3.823 -2.97,2.654 -2.556,7.732 -2.259,9.249 0.065,0.345 -0.015,1.09 -0.275,0.292 -0.417,-1.669 -1.787,-7.357 1.702,-10.477 2.287,-2.043 6.198,-3.581 9.304,-4.17 l 1.772,-0.261 c 2.535,-0.313 6.538,-1.025 8.042,-3.428 0.647,-1.037 1.286,-1.778 1.16,-2.358 -0.073,-0.394 -0.49,-0.828 -1.232,-1.302 l -1.183,-0.55 c -0.921,0.65 -1.613,1.173 -1.797,1.414 -0.153,0.195 -0.371,0.473 -0.632,0.669 h 0.006 c -2.034,1.609 -1.108,0.62 -1.277,-0.348 -0.218,-0.166 -1.181,-0.192 -2.92,0.467 -1.013,0.386 -1.061,0.439 -1.488,1.03 -1.253,1.621 -1.013,0.966 -1.303,-0.4 -0.101,-0.49 -0.174,-0.643 -0.66,-0.595 -0.465,0.052 -0.898,0.259 -1.297,0.549 m -3.887,28.046 h -0.113 c -0.549,-0.032 -0.929,-0.192 -1.171,-0.548 -0.04,-0.05 -0.061,-0.098 -0.086,-0.149 -0.516,0.319 -1.297,0.864 -2.373,1.778 -0.378,0.321 -0.584,0.584 -0.703,0.782 0.467,0.082 1.34,0.039 2.993,-0.56 l 0.034,-0.011 0.049,-0.009 c 0.354,-0.084 0.689,-0.137 1.007,-0.169 z m 4.738,0.62 -0.03,-0.042 -0.023,-0.057 c -0.084,-0.2 -0.278,-0.413 -0.558,-0.613 l -0.781,2.441 c 0.209,0.203 0.408,0.424 0.616,0.669 l 0.02,0.018 0.017,0.026 c 0.987,1.44 1.671,1.994 2.09,2.205 0.009,-0.064 0.017,-0.106 0.017,-0.184 0,-0.217 -0.025,-0.507 -0.118,-0.865 -0.676,-2.68 -1.242,-3.587 -1.25,-3.598 m -9.813,-1.125 c -1.087,0.907 -1.665,1.985 -1.555,2.875 0.058,0.534 0.396,0.977 0.942,1.251 1.086,0.547 2.624,0.447 4.713,-0.289 0.175,-0.069 0.499,-0.115 0.935,-0.132 l 0.275,-0.01 c 0,0 -0.52,1.617 -0.618,1.914 0.261,0.086 1.15,0.367 1.405,0.454 0.097,-0.295 0.631,-1.937 0.631,-1.937 l 0.217,0.195 c 0.262,0.233 0.498,0.51 0.655,0.773 1.201,1.689 2.392,2.64 3.55,2.829 0.593,0.098 1.131,-0.064 1.499,-0.461 0.391,-0.433 0.605,-1.094 0.605,-1.882 0,-0.426 -0.068,-0.889 -0.188,-1.365 -0.499,-1.996 -0.971,-3.142 -1.222,-3.68 -0.103,0.018 -0.216,0.045 -0.328,0.065 -0.231,0.043 -0.434,0.048 -0.634,0.043 -0.061,0 -0.126,-0.012 -0.179,-0.015 0.143,0.248 0.707,1.289 1.342,3.846 0.101,0.394 0.145,0.774 0.145,1.114 0,0.511 -0.109,0.927 -0.32,1.157 -0.045,0.055 -0.181,0.196 -0.555,0.141 -0.894,-0.146 -1.932,-1.059 -3.082,-2.732 -0.374,-0.454 -0.692,-0.747 -1.009,-0.977 0.128,-0.374 0.798,-2.337 0.798,-2.337 0,0 0.141,-0.417 0.262,-0.769 -0.035,0 -0.079,-0.005 -0.11,0 -0.678,0.125 -1.265,0.234 -1.772,0.316 -0.051,0.148 -0.081,0.257 -0.081,0.257 l -0.654,2.153 -0.151,-0.004 c -0.434,-0.021 -0.917,0.032 -1.523,0.173 l -0.019,0.004 c -1.933,0.686 -3.345,0.821 -4.205,0.389 -0.283,-0.143 -0.439,-0.338 -0.464,-0.584 l -0.014,-0.119 c 0,-0.576 0.486,-1.347 1.264,-2.002 1.155,-0.973 2.002,-1.562 2.57,-1.914 -0.047,-0.018 -0.091,-0.032 -0.135,-0.023 -0.318,0.059 -0.634,0.068 -0.932,0.007 -0.101,-0.026 -0.207,-0.059 -0.315,-0.089 -0.553,0.393 -1.133,0.848 -1.743,1.365 m 38.252,-78.155 c -0.482,-0.027 -1.069,-0.121 -1.68,-0.219 -1.308,-0.207 -3.074,-0.494 -3.673,0.008 -0.099,0.077 -0.218,0.211 -0.23,0.59 -0.254,3.646 1.997,6.262 3.282,7.583 3.637,-4.721 8.391,-8.179 13.753,-9.757 h 0.545 c -2.391,-0.125 -4.804,-0.315 -7.221,-0.561 -0.152,0.135 -0.299,0.287 -0.318,0.308 l -0.114,0.1 c -0.597,0.566 -2.19,2.063 -4.344,1.948 m -9.802,-2.501 c 0.331,0 0.663,0.064 0.95,0.256 0.394,0.254 0.638,0.677 0.74,1.255 0.278,1.665 -1.112,4.77 -2.107,5.33 1.058,4.063 3.411,6.323 5.063,7.88 l 0.048,0.055 c 0.627,-1.148 1.314,-2.243 2.056,-3.285 -1.384,-1.405 -4.084,-4.367 -3.785,-8.685 0.027,-0.626 0.252,-1.13 0.685,-1.49 1.035,-0.856 2.965,-0.55 4.664,-0.281 0.583,0.099 1.142,0.184 1.566,0.215 0.894,0.046 2.119,-0.73 2.926,-1.309 -3.664,-0.434 -7.344,-1.017 -10.965,-1.742 -0.46,0.254 -1.021,0.637 -1.358,1.042 -0.185,0.217 -0.34,0.473 -0.483,0.759 m -9.719,24.205 c 0.767,0.173 1.803,0.162 2.365,-0.848 l 0.602,-1.051 c 0.51,-0.894 1.097,-1.906 1.159,-2.29 0.146,-0.925 -2.464,-3.691 -4.053,-4.55 -0.378,-0.247 -2.743,-1.563 -3.004,-1.93 -0.161,-0.227 -0.515,-0.777 -0.515,-1.421 0,-0.146 0.023,-0.3 0.067,-0.465 0.169,-0.604 0.69,-1.107 1.52,-1.482 2.21,-0.995 3.718,-1.509 4.877,-1.673 1.094,-0.156 2.261,-0.72 3.302,-1.584 0.717,-0.599 1.317,-0.878 1.778,-1.031 l 0.638,-0.158 c 0.403,-0.383 1.451,-2.435 1.451,-3.71 0,-0.108 -0.003,-0.209 -0.018,-0.293 -0.017,-0.157 -0.073,-0.35 -0.184,-0.417 -0.217,-0.135 -0.773,-0.013 -1.221,0.102 l -0.472,0.107 -0.385,0.08 -0.544,0.085 c -1.124,0.139 -1.929,0.298 -2.01,0.926 -0.048,0.331 -0.085,0.613 -0.147,0.855 -0.535,2.182 -0.473,1.232 -1.412,0.892 -0.072,-0.021 -0.142,-0.033 -0.202,-0.049 -0.493,-0.124 -0.941,-0.041 -2.453,0.761 -0.693,0.363 -1.193,0.798 -1.674,1.22 -0.525,0.455 -1.074,0.925 -1.803,1.243 l -1.682,0.636 c -0.976,0.352 -1.988,0.719 -2.787,1.148 l -0.138,0.07 c -0.785,0.411 -1.839,0.972 -2.003,1.709 -0.076,0.396 0.095,0.882 0.531,1.442 1.491,1.945 1.764,1.92 1.91,2.088 0.238,0.104 1.066,0.809 0.87,1.408 -0.163,0.494 -0.664,1.051 -2.389,0.753 -1.802,-0.297 -3.001,0.235 -4.258,0.798 l -0.163,0.072 c 0.45,1.118 0.958,2.362 1.642,3.645 0.422,0.796 0.892,1.499 1.401,2.136 l 0.359,0.393 c 2.353,-0.575 7.044,-0.067 9.045,0.383 m 8.54,7.459 c -0.492,-0.901 -0.628,-1.149 -1.384,-1.422 -0.295,-0.108 -0.426,-0.075 -0.678,0.008 -0.31,0.107 -0.729,0.246 -1.37,0.013 -1.792,-0.651 -1.736,-1.599 -1.64,-2.91 l 0.04,-0.853 c 0.016,-0.604 0.152,-1.051 0.32,-1.373 0.09,-0.14 0.298,-0.427 0.61,-0.664 0.653,-0.417 1.455,-0.302 1.974,-0.053 0.195,0.09 0.795,0.303 1.439,0.52 0.861,0.294 1.853,0.632 2.651,0.956 0.663,-3.56 1.782,-6.928 3.299,-9.953 l -0.31,-0.289 c -1.753,-1.666 -4.266,-4.052 -5.396,-8.412 -0.278,0.141 -0.596,0.333 -0.979,0.646 -1.223,1.021 -2.587,1.663 -3.921,1.858 -1.336,0.194 -3.122,0.937 -4.535,1.574 -0.474,0.216 -0.77,0.462 -0.835,0.692 -0.07,0.255 0.093,0.566 0.293,0.826 0.216,0.302 1.288,0.832 2.56,1.512 1.297,0.692 5.026,3.887 4.709,5.879 -0.099,0.595 -0.557,1.416 -1.311,2.727 l -0.588,1.026 c -0.734,1.322 -2.11,1.858 -3.779,1.483 -1.574,-0.359 -5.343,-0.792 -7.636,-0.533 1.55,1.284 3.403,2.017 5.566,2.191 2.543,0.195 4.783,1.605 6.611,3.181 1.094,0.935 3.367,3.798 4.331,5.649 0.045,0.093 0.084,0.179 0.136,0.27 -0.005,-0.151 -0.017,-0.295 -0.026,-0.464 l -0.026,-0.361 c -0.054,-0.913 0.26,-3.011 -0.125,-3.724 m -32.419,-30.317 -0.181,0.154 -1.186,1.006 c -0.669,0.555 -1.42,1.189 -1.642,1.414 -0.185,0.21 -0.471,1.333 -0.471,2.289 0,0.157 0.012,0.316 0.032,0.464 0.088,0.714 0.235,1.366 0.343,1.846 0,0 0.073,0.308 0.102,0.461 0.17,0.136 0.876,0.382 1.791,0.284 1.462,-0.16 2.868,-0.272 3.983,0.178 1.21,0.487 2.078,1.441 2.314,2.515 1.756,-0.135 3.859,1.217 4.664,2.182 0.434,0.514 0.799,1.326 1.21,2.341 l 0.124,-0.051 c 1.377,-0.616 2.801,-1.24 4.977,-0.882 0.187,0.032 0.339,0.043 0.477,0.051 -0.388,-0.243 -0.886,-0.763 -2.079,-2.304 -0.529,-0.7 -0.805,-1.369 -0.805,-2.004 0,-0.165 0.024,-0.319 0.062,-0.471 0.279,-1.306 1.632,-2.02 2.625,-2.545 l 0.136,-0.08 c 0.885,-0.471 1.938,-0.85 2.96,-1.216 l 1.602,-0.612 c 0.563,-0.235 0.982,-0.606 1.477,-1.034 0.514,-0.451 1.097,-0.949 1.918,-1.383 1.505,-0.797 2.346,-1.109 3.339,-0.87 0,0 0.056,0.019 0.112,0.03 0.046,-0.222 0.088,-0.547 0.104,-0.679 0.208,-1.634 1.947,-1.852 3.098,-2.005 l 0.488,-0.062 0.563,-0.127 c 0.245,-0.679 0.554,-1.313 0.976,-1.802 0,-0.01 0.411,-0.328 0.72,-0.568 -3.642,-0.774 -7.226,-1.692 -10.693,-2.737 l -3.525,2.644 h -18.152 v 0.093 c 0,2.247 -0.847,2.95 -1.463,3.48 m 103.801,18.158 c 0.022,-0.08 0.044,-0.166 0.07,-0.266 -0.228,-0.171 -0.442,-0.357 -0.616,-0.533 -1.012,-0.461 -2.523,0.604 -3.265,1.13 l -0.093,0.071 c -1.609,1.246 -3.083,1.505 -0.72,-0.71 l 0.087,-0.067 c 0.633,-0.452 1.826,-1.422 3.057,-1.681 -0.883,-1.785 0.048,-3.381 0.417,-4.021 l 0.129,-0.227 c 0.144,-0.298 0.377,-0.524 0.571,-0.723 0.433,-0.431 0.649,-0.647 0.363,-1.346 -0.405,-0.995 -2.892,-0.973 -3.831,-0.971 l -0.288,0.007 c -1.234,0 -3.914,-0.827 -5.29,-1.42 -1.176,-0.498 -2.22,-1.987 -3.066,-3.24 -0.203,-0.32 -0.923,-1.318 -1.117,-1.463 -0.115,-0.076 -0.245,-0.112 -0.393,-0.087 -0.223,0.046 -0.392,0.232 -0.43,0.387 l -0.313,1.029 c -0.228,1.034 -0.032,1.578 -1.269,0.699 l 0.006,-0.008 c -0.349,-0.136 -0.54,-0.062 -0.651,0.008 -0.297,0.194 -0.634,0.517 -0.485,0.799 0.025,0.039 0.27,0.532 0.27,0.532 0.77,1.404 0.227,1.353 -0.979,1.225 -0.125,-0.007 -0.222,-0.027 -0.287,-0.041 -0.156,-0.027 -0.636,0.27 -0.847,0.847 -0.242,0.671 0.076,1.268 0.912,1.729 0.514,0.28 1.079,0.478 1.683,0.618 0.424,0.142 1.037,0.187 1.389,0.234 1.322,0.136 2.666,0.097 3.715,0.059 l 1.043,-0.033 c 0.931,0 2.612,0.151 3.364,1.139 0.247,0.321 0.481,0.861 0.274,1.628 -0.282,1.024 -1.052,1.832 -1.86,2.692 -0.528,0.563 -1.083,1.15 -1.563,1.846 -1.151,1.656 -1.199,4.127 -0.139,6.624 0.34,0.8 0.71,1.296 1.073,1.435 0.303,0.128 0.641,-0.01 1.119,-0.221 l 0.337,-0.142 c 3.162,-1.085 7.278,-0.307 9.091,0.138 -0.078,-0.256 -0.168,-0.503 -0.282,-0.704 -0.644,-1.179 -1.61,-5.371 -1.186,-6.972 m -24.335,-18.255 c 0.426,-0.031 0.982,-0.116 1.565,-0.215 1.702,-0.269 3.628,-0.575 4.671,0.281 0.434,0.36 0.66,0.864 0.679,1.49 0.056,0.855 0,1.651 -0.147,2.402 0.491,-0.427 1.083,-0.564 1.719,-0.408 0.051,-0.169 0.119,-0.408 0.174,-0.589 l 0.045,-0.183 c 0.159,-0.64 0.737,-1.165 1.398,-1.3 0.178,-0.038 0.361,-0.046 0.524,-0.024 -0.163,-1.224 -0.537,-2.652 -1.221,-3.463 -0.178,-0.206 -0.906,-0.718 -1.393,-1.006 -3.597,0.715 -7.234,1.286 -10.876,1.714 0.734,0.557 1.897,1.353 2.862,1.301 m 3.087,10.288 c 0.748,1.038 1.42,2.135 2.062,3.283 l 0.086,-0.1 c 0.568,-0.532 1.215,-1.15 1.869,-1.883 -0.507,-0.151 -0.99,-0.331 -1.43,-0.579 -0.932,-0.507 -1.394,-1.172 -1.563,-1.829 -0.367,0.441 -0.731,0.808 -1.024,1.108 m 2.575,-8.658 c -0.013,-0.379 -0.133,-0.513 -0.224,-0.59 -0.608,-0.502 -2.376,-0.215 -3.673,-0.008 -0.62,0.098 -1.195,0.192 -1.691,0.219 -2.149,0.115 -3.744,-1.382 -4.34,-1.948 -0.141,-0.121 -0.296,-0.273 -0.416,-0.404 -2.406,0.254 -4.8,0.437 -7.177,0.56 h 0.426 c 5.375,1.584 10.137,5.058 13.772,9.803 1.279,-1.321 3.581,-3.947 3.323,-7.632 m 29.812,-5.106 h -11.558 l -3.357,-2.669 c -3.511,1.057 -7.135,1.98 -10.826,2.77 0.225,0.166 0.488,0.387 0.631,0.56 1.099,1.296 1.521,3.539 1.615,5.067 0.015,0.02 0.029,0.022 0.052,0.051 l 0.751,1.078 c 0.74,1.084 1.741,2.587 2.633,2.972 1.387,0.59 3.873,1.306 4.801,1.306 h 0.271 c 1.403,-0.014 4.292,-0.035 5.019,1.758 0.582,1.463 -0.178,2.234 -0.642,2.695 -0.146,0.146 -0.278,0.29 -0.34,0.402 l -0.161,0.294 c -0.484,0.825 -1.244,2.129 0.189,3.65 0.044,0.011 0.073,0.029 0.118,0.054 0.078,0.059 0.15,0.137 0.182,0.214 0.777,-1.904 2.263,-4.724 4.516,-6.45 3.386,-2.598 5.947,-2.998 6.653,-3.055 1.158,-0.097 2.78,-0.379 3.257,-0.534 0.283,-0.09 1.001,-0.987 1.073,-1.904 0.132,-1.598 -0.3,-2.696 -1.297,-3.278 -1.712,-1.012 -3.611,-3.232 -3.606,-4.699 0,-0.107 0.009,-0.189 0.026,-0.282 m -17.806,35.546 c 0.003,-0.004 0.012,-0.01 0.012,-0.018 1.094,-1.213 3.578,-1.884 4.968,-2.175 1.203,-0.255 2.345,-0.727 3.206,-1.191 0.127,-0.414 0.175,-0.906 0.156,-1.406 -1.28,-0.352 -5.698,-1.4 -8.871,-0.308 l -0.258,0.113 c -0.543,0.237 -1.274,0.563 -2.092,0.243 -0.696,-0.274 -1.272,-0.97 -1.753,-2.119 -1.24,-2.892 -1.142,-5.819 0.255,-7.828 0.536,-0.775 1.146,-1.423 1.682,-1.99 0.732,-0.776 1.365,-1.441 1.564,-2.163 0.082,-0.293 0.012,-0.436 -0.068,-0.536 -0.292,-0.389 -1.216,-0.643 -2.362,-0.643 l -0.998,0.03 c -1.28,0.046 -2.982,0.107 -4.628,-0.162 -0.824,0.997 -1.673,1.796 -2.381,2.477 l -0.347,0.336 c 1.904,3.823 3.19,8.173 3.696,12.801 0.182,0.021 0.363,0.058 0.527,0.125 0.073,-0.092 0.146,-0.192 0.146,-0.192 0.486,-0.589 1.439,-1.137 2.314,-1.046 1.137,0.111 2.001,1.877 2.15,3.444 0.07,0.779 0.31,0.876 0.849,1.081 l 0.442,0.194 0.7,0.344 c 1.009,0.486 -0.154,-0.053 1.091,0.589 m -60.878,0.642 c 0.061,1.177 0.21,2.64 0.473,3.889 0.167,0.806 0.331,1.558 0.404,2.146 0.166,1.422 -0.073,2.072 -0.866,2.827 1.221,4.525 3.261,8.808 5.999,12.386 4.999,6.531 11.808,10.12 19.173,10.12 7.348,0 14.16,-3.589 19.167,-10.12 3.547,-4.645 5.937,-10.47 6.871,-16.495 l -0.649,-0.605 c -0.821,-0.729 -1.742,-1.561 -2.076,-2.64 l -0.039,-0.095 c -0.27,-0.866 -0.467,-1.48 -0.467,-2 0,-0.291 0.062,-0.548 0.216,-0.801 0.389,-0.702 0.943,-0.893 1.378,-0.977 0.108,-0.012 0.189,-0.345 0.189,-0.593 0,-0.031 0,-0.068 -0.003,-0.105 -0.019,-0.053 -0.019,-0.122 -0.019,-0.187 0,-0.492 0.227,-1.219 1.427,-1.704 0.072,-0.027 0.154,-0.041 0.235,-0.068 -1.721,-15.719 -12.823,-27.935 -26.23,-27.935 -12.7,0 -23.323,10.953 -25.879,25.447 1.131,0.729 0.979,2.025 0.884,2.811 l -0.045,0.504 c 0,0.783 -0.254,2.231 -0.143,4.195 m 11.957,37.035 c -0.161,0.231 -0.299,0.414 -0.405,0.531 0.036,0.167 0.064,0.338 0.064,0.523 0,1.259 -1.032,2.285 -2.298,2.285 -0.149,0 -0.304,-0.019 -0.462,-0.048 0.198,0.359 0.305,0.769 0.305,1.199 0,1.471 -1.199,2.672 -2.672,2.672 -0.082,0 -0.164,-0.01 -0.242,-0.014 0.354,0.513 0.562,1.131 0.562,1.808 0,1.438 -0.96,2.657 -2.274,3.056 1.034,0.531 1.74,1.604 1.74,2.845 0,0.338 -0.046,0.66 -0.146,0.961 0.495,-0.267 1.047,-0.414 1.644,-0.414 1.723,0 3.152,1.264 3.416,2.915 0.482,-0.689 1.28,-1.136 2.183,-1.136 0.874,0 1.64,0.421 2.129,1.066 0.188,-1.075 1.128,-1.902 2.253,-1.902 0.987,0 1.821,0.62 2.147,1.484 l 0.008,-0.009 0.892,-4.789 c -1.891,1.158 -5.095,2.789 -8.326,2.371 -1.765,-0.235 -3.117,-1.072 -3.821,-2.371 -0.956,-1.774 -0.538,-4.114 1.149,-6.414 2.165,-2.964 3.88,-4.694 4.961,-5.485 l 0.054,-0.046 c -0.972,-0.317 -1.928,-0.68 -2.861,-1.088 m -2.639,0.006 c -0.564,0 -1.036,0.469 -1.036,1.048 0,0.563 0.472,1.032 1.036,1.032 0.577,0 1.041,-0.469 1.041,-1.032 0,-0.579 -0.464,-1.048 -1.041,-1.048 m -2.829,3.064 c -0.782,0 -1.42,0.639 -1.42,1.42 0,0.782 0.638,1.416 1.42,1.416 0.779,0 1.414,-0.634 1.414,-1.416 0,-0.781 -0.635,-1.42 -1.414,-1.42 m -2.878,3.933 c -1.074,0 -1.947,0.878 -1.947,1.953 0,1.07 0.873,1.943 1.947,1.943 1.069,0 1.946,-0.873 1.946,-1.943 0,-1.075 -0.877,-1.953 -1.946,-1.953 m -2.473,7.854 c 0,1.073 0.864,1.945 1.941,1.945 1.074,0 1.953,-0.872 1.953,-1.945 0,-1.079 -0.879,-1.952 -1.953,-1.952 -1.077,0 -1.941,0.873 -1.941,1.952 m 6.635,6.224 c 1.216,0 2.212,-0.997 2.212,-2.216 0,-1.219 -0.996,-2.211 -2.212,-2.211 -1.222,0 -2.212,0.992 -2.212,2.211 0,1.219 0.99,2.216 2.212,2.216 m 5.599,0.188 c 0.785,0 1.411,-0.637 1.411,-1.42 0,-0.782 -0.626,-1.421 -1.411,-1.421 -0.786,0 -1.415,0.639 -1.415,1.421 0,0.783 0.629,1.42 1.415,1.42 m 4.382,-1.591 c 0.577,0 1.049,-0.467 1.049,-1.037 0,-0.571 -0.472,-1.043 -1.049,-1.043 -0.57,0 -1.033,0.472 -1.033,1.043 0,0.57 0.463,1.037 1.033,1.037 m 5.466,1.197 c 0,0.311 0.379,0.358 0.612,0.358 h 2.763 c 0.228,0 0.616,-0.047 0.616,-0.358 0,-0.896 0.692,-2.112 2.225,-2.366 l -2.936,-15.77 0.021,-0.016 c -0.429,0.021 -0.86,0.035 -1.298,0.035 -0.412,0 -0.824,-0.014 -1.238,-0.035 v 0.016 l -2.931,15.78 c 1.485,0.272 2.166,1.472 2.166,2.356 m 4.528,-18.216 0.018,0.009 1.636,8.845 c 1.414,0.93 5.007,3.269 8.428,2.826 1.325,-0.178 2.349,-0.794 2.861,-1.754 0.773,-1.444 0.391,-3.408 -1.073,-5.396 -2.648,-3.638 -4.646,-5.247 -5.318,-5.64 l -0.035,-0.041 c -2.121,0.602 -4.306,0.982 -6.517,1.151 m -11.551,-1.107 c -0.673,0.39 -2.679,2.006 -5.332,5.637 -1.459,1.988 -1.846,3.952 -1.071,5.396 0.517,0.96 1.531,1.576 2.869,1.754 3.418,0.443 7.009,-1.898 8.422,-2.826 l 1.645,-8.845 V 19.01 c -2.207,-0.16 -4.377,-0.544 -6.497,-1.14 z m 21.092,-5.185 c -3.808,1.761 -7.887,2.662 -12.106,2.662 -4.163,0 -8.174,-0.872 -11.946,-2.584 -0.118,0.907 -0.38,1.74 -0.737,2.431 4.031,1.744 8.306,2.628 12.723,2.628 4.472,0 8.807,-0.907 12.889,-2.69 -0.397,-0.699 -0.67,-1.538 -0.823,-2.447 m 0.21,-4.254 c -3.765,2.277 -7.945,3.474 -12.316,3.474 -4.335,0 -8.489,-1.18 -12.225,-3.411 0.259,0.972 0.383,1.977 0.371,2.932 3.725,1.775 7.714,2.669 11.854,2.669 4.185,0 8.219,-0.926 11.985,-2.733 -0.018,-0.967 0.076,-1.964 0.331,-2.931 m -6.918,25.709 0.019,0.032 c 0.324,-0.876 1.168,-1.507 2.156,-1.507 1.131,0 2.07,0.827 2.255,1.902 0.484,-0.645 1.263,-1.066 2.133,-1.066 0.899,0 1.702,0.447 2.181,1.136 0.272,-1.651 1.7,-2.915 3.422,-2.915 0.589,0 1.153,0.147 1.631,0.414 -0.09,-0.301 -0.146,-0.623 -0.146,-0.961 0,-1.241 0.708,-2.314 1.738,-2.845 -1.311,-0.399 -2.261,-1.618 -2.261,-3.056 0,-0.677 0.207,-1.295 0.559,-1.808 -0.076,0.004 -0.163,0.014 -0.238,0.014 -1.472,0 -2.672,-1.201 -2.672,-2.672 0,-0.43 0.106,-0.84 0.286,-1.199 -0.147,0.029 -0.298,0.048 -0.454,0.048 -1.265,0 -2.288,-1.026 -2.288,-2.285 0,-0.214 0.034,-0.416 0.08,-0.601 -0.119,-0.121 -0.319,-0.327 -0.451,-0.462 -0.943,0.406 -1.885,0.767 -2.85,1.087 l 0.045,0.056 c 1.08,0.791 2.802,2.521 4.965,5.485 1.677,2.3 2.092,4.64 1.141,6.414 -0.697,1.299 -2.049,2.136 -3.82,2.371 -3.231,0.418 -6.435,-1.213 -8.326,-2.371 z m 2.175,1.856 c 0.572,0 1.038,-0.467 1.038,-1.037 0,-0.571 -0.466,-1.043 -1.038,-1.043 -0.575,0 -1.041,0.472 -1.041,1.043 0,0.57 0.466,1.037 1.041,1.037 m 4.388,1.591 c 0.779,0 1.411,-0.637 1.411,-1.42 0,-0.782 -0.632,-1.421 -1.411,-1.421 -0.783,0 -1.424,0.639 -1.424,1.421 0,0.783 0.641,1.42 1.424,1.42 m 5.603,-0.188 c 1.22,0 2.21,-0.997 2.21,-2.216 0,-1.219 -0.99,-2.211 -2.21,-2.211 -1.226,0 -2.212,0.992 -2.212,2.211 0,1.219 0.986,2.216 2.212,2.216 m 4.683,-4.279 c 1.077,0 1.961,-0.872 1.961,-1.945 0,-1.079 -0.884,-1.952 -1.961,-1.952 -1.063,0 -1.94,0.873 -1.94,1.952 0,1.073 0.877,1.945 1.94,1.945 m 1.421,-7.846 c 0,-1.075 -0.878,-1.953 -1.941,-1.953 -1.084,0 -1.953,0.878 -1.953,1.953 0,1.07 0.869,1.943 1.953,1.943 1.063,0 1.941,-0.873 1.941,-1.943 m -4.821,-5.886 c -0.786,0 -1.424,0.639 -1.424,1.42 0,0.782 0.638,1.416 1.424,1.416 0.775,0 1.418,-0.634 1.418,-1.416 0,-0.781 -0.643,-1.42 -1.418,-1.42 m -2.84,-3.064 c -0.575,0 -1.037,0.469 -1.037,1.048 0,0.563 0.462,1.032 1.037,1.032 0.571,0 1.045,-0.469 1.045,-1.032 0,-0.579 -0.474,-1.048 -1.045,-1.048 m 9.616,-25.159 h 0.008 -0.005 l 5.42,-0.344 c 0.026,-1.073 0.225,-2.389 0.729,-4.023 -0.577,-0.295 -1.217,-0.58 -1.761,-0.747 -0.672,-0.212 -1.86,-0.488 -2.853,-1.087 -0.377,2.108 -0.921,4.182 -1.615,6.198 l 0.08,0.003 z m -2.338,7.811 c 0.371,-1.845 1.868,-3.654 3.786,-3.7 1.078,-0.032 2.017,0.592 2.841,1.447 0.081,-0.682 0.335,-1.229 0.754,-1.605 0.397,-0.347 0.855,-0.513 1.311,-0.587 -0.346,-0.598 -0.697,-1.37 -0.85,-2.456 l -6.065,0.378 c -0.887,2.307 -1.99,4.501 -3.291,6.54 0.476,-0.051 0.988,-0.059 1.514,-0.017 m 8.692,5.843 2.633,0.163 c 3.276,0.239 7.521,1.598 9.217,6.688 l 0.042,0.128 c 0.343,0.977 0.147,2.709 0.13,2.903 l -0.099,0.81 -0.759,-0.3 c -0.79,-0.314 -3.358,-0.973 -4.158,-1.029 -0.624,-0.046 -2.528,-0.185 -4.237,-1.463 l -0.086,-0.066 -0.061,-0.091 c -0.035,-0.056 -0.13,-0.133 -0.197,-0.137 -0.079,0 -0.262,0.111 -0.487,0.426 -0.579,0.811 -1.086,1.387 -1.359,1.698 0,0 -0.062,0.079 -0.112,0.142 0.006,0.151 0.201,0.459 1.018,0.668 l 0.903,0.192 c 1.05,0.212 2.129,0.421 2.192,2.103 v 0.068 c 0,0.511 -0.237,0.962 -0.663,1.308 -1.104,0.874 -3.357,0.855 -4.308,0.592 l -0.031,-0.004 -0.028,-0.009 c -0.094,-0.039 -0.147,-0.039 -0.164,-0.039 -0.002,0.005 -0.112,0.094 -0.238,0.533 -0.094,0.305 -0.136,0.526 -0.136,0.676 0,0.27 0.102,0.347 0.147,0.384 0.391,0.333 0.523,0.724 0.523,1.122 0,0.56 -0.268,1.118 -0.425,1.452 l -0.137,0.282 c -0.066,0.18 -0.201,0.496 -0.201,0.729 0,0.071 0.014,0.129 0.04,0.176 0.062,0.118 0.262,0.223 0.569,0.279 0.818,0.173 1.614,0.127 2.318,0.088 0.562,-0.036 1.088,-0.064 1.569,0.016 0.532,0.093 1.085,0.372 1.617,0.647 0.543,0.276 1.1,0.558 1.522,0.576 0.631,0.041 2.017,0 3.133,-0.023 l 1.601,-0.025 c 1.099,0 4.678,1.15 5.903,2.376 0.152,0.162 0.353,0.296 0.446,0.31 0.008,-0.015 0.033,-0.035 0.033,-0.035 0.188,-0.307 0.318,-0.986 0.45,-1.638 0.153,-0.875 0.349,-1.868 0.771,-2.581 0.448,-0.772 1.131,-1.426 1.775,-2.062 0.416,-0.401 0.813,-0.788 1.111,-1.17 0.294,-0.376 0.656,-1.229 1.002,-2.056 0.54,-1.273 1.085,-2.588 1.781,-3.258 0.832,-0.781 2.872,-2.709 4.973,-2.28 -0.032,-0.038 -0.045,-0.074 -0.066,-0.111 l -0.601,-0.555 c -0.768,-0.647 -1.553,-1.305 -1.553,-2.079 v -0.088 c 0.073,-0.83 0.334,-1.347 0.525,-1.666 l 0.043,-0.074 c 0.065,-0.104 0.138,-0.217 0.138,-0.374 0,-0.188 -0.107,-0.449 -0.47,-0.83 -0.796,-0.841 -1.063,-1.365 -1.063,-1.888 0,-0.267 0.073,-0.53 0.175,-0.832 l 0.019,-0.094 c 0.079,-0.209 0.205,-0.567 0.205,-0.742 0,-0.028 -0.008,-0.044 -0.008,-0.062 -0.009,0 -0.037,-0.019 -0.037,-0.019 L -21.982,4.598 C -22.407,4.366 -22.514,4.306 -22.807,4.234 L -22.919,4.212 C -24.334,3.9 -25.06,3.116 -25.06,1.875 c 0,-0.072 0,-0.141 0.003,-0.222 l 0.037,-0.445 c 0.017,-0.279 0.042,-0.562 0.042,-0.745 0,-0.077 -0.009,-0.121 -0.017,-0.161 -0.033,-0.019 -0.09,-0.05 -0.261,-0.097 L -25.614,0.11 c -0.841,-0.192 -2.107,-0.493 -2.222,-2.828 l -0.039,-0.927 c -0.051,-1.794 -0.141,-2.647 -0.695,-2.716 -1.044,-0.122 -1.811,0.774 -1.927,1.028 -0.1,0.234 -0.301,1.026 -0.329,1.127 -0.79,2.415 -0.535,1.84 -1.665,-0.287 -0.166,-0.29 -0.33,-0.677 -0.583,-1.147 -0.905,-1.673 -1.466,-1.902 -1.856,-2.18 l -0.265,-0.144 c -0.076,-0.038 -0.21,-0.038 -0.272,-0.024 -0.138,0.065 -0.317,0.322 -0.455,0.877 -0.212,0.938 -0.407,2.172 -0.499,3.339 -0.07,1.687 1.718,3.453 -1.898,0.562 0,0 -0.465,-0.299 -0.723,-0.457 -0.468,-0.295 -3.224,-1.517 -4.006,-1.841 -0.271,-0.113 -1.196,-0.183 -1.204,0.053 0,0.034 0,0.134 0.048,0.307 0.006,0.034 0.008,0.059 0.014,0.09 0.439,1.529 1.142,1.204 -1.361,0.959 l -1.196,-0.059 -0.365,-0.029 c -0.645,-0.055 -1.528,-0.133 -1.977,0.269 -0.231,0.21 -0.361,0.57 -0.375,1.074 -0.045,2.297 1.665,3.472 2.822,3.711 1.532,0.307 7.441,0.941 10.058,1.172 2.146,0.178 6.047,1.007 8.092,4.478 0.743,1.263 1.66,6.414 0.99,9.406 -0.21,0.954 -1.195,2.444 -0.593,-0.282 0.603,-2.611 -0.843,-7.415 -1.483,-8.485 -1.756,-2.985 -5.214,-3.704 -7.116,-3.872 -2.58,-0.225 -8.564,-0.865 -10.197,-1.184 -1.406,-0.284 -2.809,-1.324 -3.445,-2.92 -0.58,-0.812 -1.887,-2.653 -3.159,-2.618 -1.499,0.04 -2.661,1.826 -2.661,3.334 -0.124,4.542 2.111,4.664 7.533,4.956 M 0.343,-2.876 c 0,0.453 0.152,0.948 0.36,1.353 0.259,0.425 0.555,0.988 0.555,1.523 0,0.223 -0.053,0.443 -0.167,0.646 -0.439,0.755 -1.457,0.715 -2.188,0.689 L -1.539,1.333 c -0.204,0.05 -0.714,0.25 -1.211,0.449 -0.896,0.361 -1.891,0.77 -2.6,0.855 -0.574,0.077 -1.285,-0.111 -2.105,-0.323 -0.859,-0.225 -1.844,-0.482 -2.624,-0.388 -0.711,0.086 -1.695,0.484 -2.556,0.838 -2.386,0.919 -4.583,0.417 -6.107,-0.159 -2.205,-0.893 -3.856,-2.361 -4.886,-4.344 -2.011,-3.901 -1.164,-8.939 0.467,-11.973 0.685,-1.245 3.076,-5.282 4.338,-7.009 0.03,-0.049 0.081,-0.088 0.129,-0.131 -0.026,-0.007 -0.048,-0.009 -0.048,-0.009 -1.797,-0.73 -2.061,-2.865 -2.061,-4.075 0,-0.414 0.027,-0.727 0.038,-0.83 0.073,-0.666 0.304,-1.088 0.676,-1.237 0.242,-0.105 0.515,-0.066 0.731,0.089 0.012,0.01 1.08,0.8 2.557,0.661 1.233,-0.116 3.547,-0.993 3.547,-3.484 0,-2.349 -1.929,-4.962 -4.509,-4.962 -2.225,0 -3.53,1.064 -3.856,2.271 -0.2,2.376 -0.976,4.398 -1.333,4.967 -0.17,0.257 -0.371,0.452 -0.591,0.659 -0.711,0.692 -1.797,1.733 -2.056,6.299 -0.283,5.033 -2.327,9.822 -3.83,12.956 0.317,-0.075 0.655,-0.099 1.007,-0.059 1.689,0.203 1.751,2.098 1.8,3.921 l 0.043,0.899 c 0.066,1.4 0.507,1.506 1.25,1.676 l 0.449,0.117 c 0.963,0.299 1.151,0.737 1.151,1.494 0,0.229 -0.018,0.495 -0.043,0.791 l -0.025,0.444 V 1.87 c 0,0.722 0.405,0.953 1.148,1.114 l 0.144,0.037 c 0.446,0.107 0.677,0.236 1.128,0.472 l 0.202,0.114 c 0.526,0.289 0.67,0.722 0.67,1.164 0,0.424 -0.141,0.854 -0.237,1.162 l -0.034,0.089 c -0.062,0.164 -0.09,0.283 -0.09,0.405 0,0.247 0.155,0.48 0.703,1.048 0.628,0.668 0.82,1.25 0.82,1.708 0,0.505 -0.231,0.864 -0.339,1.037 l -0.033,0.043 c -0.129,0.228 -0.293,0.559 -0.335,1.1 0.054,0.253 0.756,0.849 1.1,1.142 l 0.725,0.657 c 0.329,0.374 0.49,0.862 0.49,1.294 0,0.325 -0.087,0.632 -0.253,0.827 -0.245,0.301 -0.642,0.377 -0.979,0.181 l 0.055,0.028 c -1.385,-0.673 -3.006,0.62 -4.28,1.815 -0.503,0.488 -1.031,1.736 -1.497,2.838 -0.415,0.988 -0.77,1.843 -1.172,2.349 -0.349,0.445 -0.791,0.878 -1.223,1.292 -0.595,0.577 -1.196,1.169 -1.568,1.797 -0.317,0.533 -0.48,1.406 -0.632,2.176 -0.147,0.81 -0.301,1.566 -0.616,2.07 -0.292,0.482 -0.686,0.607 -0.955,0.635 -0.756,0.061 -1.363,-0.584 -1.484,-0.713 -0.912,-0.91 -4.124,-1.982 -4.996,-1.982 l -1.575,0.029 c -1.196,0.029 -2.546,0.057 -3.232,0.02 -0.678,-0.035 -1.357,-0.381 -2.018,-0.712 -0.446,-0.231 -0.916,-0.468 -1.256,-0.523 -0.343,-0.059 -0.782,-0.038 -1.289,-10e-4 -0.742,0.037 -1.665,0.086 -2.644,-0.112 -0.693,-0.147 -1.167,-0.454 -1.42,-0.916 -0.391,-0.736 -0.065,-1.561 0.099,-1.954 0,-0.01 0.165,-0.374 0.165,-0.374 0.273,-0.568 0.403,-0.928 0.228,-1.071 -0.883,-0.756 -0.526,-1.97 -0.411,-2.368 0.13,-0.439 0.36,-1.037 0.889,-1.304 0.335,-0.175 0.726,-0.18 1.165,-0.019 l -0.045,-0.018 c 0.798,0.218 2.545,0.144 3.195,-0.368 0.174,-0.137 0.185,-0.241 0.185,-0.345 -0.027,-0.669 -0.103,-0.704 -1.181,-0.911 l -0.976,-0.216 c -1.223,-0.319 -1.693,-0.923 -1.864,-1.375 -0.155,-0.407 -0.144,-0.852 0.061,-1.137 l 0.275,-0.339 c 0.277,-0.31 0.733,-0.841 1.284,-1.604 0.562,-0.791 1.142,-0.95 1.523,-0.945 0.488,0.009 0.878,0.278 1.115,0.561 1.254,0.928 2.617,1.13 3.545,1.194 0.771,0.059 2.565,0.494 3.723,0.844 v -0.378 c 0,-0.455 -0.022,-0.905 -0.12,-1.181 l -0.047,-0.149 C -39.155,8.539 -41.885,6.58 -46.077,6.263 l -2.625,-0.156 c -5.22,-0.284 -8.711,-0.474 -8.711,-5.843 V 0.261 c -0.842,-0.067 -1.623,0.022 -2.318,0.202 l -0.048,-0.04 c -0.213,0.301 -0.433,0.607 -0.653,0.9 -1.839,2.384 -3.904,4.398 -6.123,6.009 -1.44,3.122 -0.802,6.93 0.735,8.138 0.36,-0.226 0.776,-0.362 1.227,-0.362 1.267,0 2.282,1.026 2.282,2.297 0,0.306 -0.052,0.598 -0.171,0.865 0.236,-0.061 0.479,-0.103 0.729,-0.103 1.468,0 2.666,1.203 2.666,2.674 0,0.478 -0.127,0.929 -0.348,1.318 0.176,-0.031 0.365,-0.051 0.556,-0.051 1.767,0 3.202,1.435 3.202,3.199 0,1.233 -0.715,2.311 -1.744,2.837 1.319,0.399 2.27,1.624 2.27,3.064 0,1.759 -1.432,3.196 -3.202,3.196 -0.509,0 -0.998,-0.122 -1.426,-0.345 0.129,0.366 0.199,0.748 0.199,1.157 0,1.912 -1.551,3.465 -3.456,3.465 -1.306,0 -2.433,-0.725 -3.03,-1.787 -0.306,1.136 -1.348,1.973 -2.573,1.973 -1.376,0 -2.509,-1.047 -2.656,-2.382 -0.415,0.484 -1.038,0.794 -1.732,0.794 -0.954,0 -1.762,-0.577 -2.111,-1.402 h -0.608 c -1.304,0 -1.575,1.062 -1.575,1.349 0,0.84 -0.761,1.427 -1.867,1.427 h -2.763 c -1.102,0 -1.87,-0.587 -1.87,-1.427 0,-0.287 -0.265,-1.349 -1.578,-1.349 h -0.515 c -0.346,0.825 -1.158,1.402 -2.115,1.402 -0.684,0 -1.304,-0.31 -1.73,-0.794 -0.137,1.335 -1.283,2.382 -2.652,2.382 -1.233,0 -2.27,-0.837 -2.581,-1.973 -0.586,1.062 -1.715,1.787 -3.018,1.787 -1.915,0 -3.461,-1.553 -3.461,-3.465 0,-0.409 0.069,-0.791 0.202,-1.157 -0.433,0.223 -0.917,0.345 -1.435,0.345 -1.76,0 -3.195,-1.437 -3.195,-3.196 0,-1.44 0.957,-2.665 2.267,-3.064 -1.037,-0.526 -1.738,-1.604 -1.738,-2.837 0,-1.764 1.432,-3.199 3.198,-3.199 0.194,0 0.374,0.02 0.554,0.051 -0.225,-0.389 -0.346,-0.84 -0.346,-1.318 0,-1.471 1.195,-2.674 2.67,-2.674 0.247,0 0.483,0.042 0.714,0.103 -0.108,-0.267 -0.169,-0.559 -0.169,-0.865 0,-1.271 1.024,-2.297 2.282,-2.297 0.509,0 0.968,0.162 1.347,0.436 1.612,-1.219 1.904,-5.171 0.579,-8.146 -2.278,-1.621 -4.366,-3.656 -6.222,-6.075 -2.3,-3.003 -4.131,-6.479 -5.408,-10.184 0.272,2.283 0.058,4.302 -0.674,6.025 -2.317,5.517 -7.233,7.596 -10.515,9.238 l -1.692,0.883 c -2.644,1.514 -3.924,3.211 -4.77,4.333 l -0.592,0.75 c -0.027,0.036 -0.047,0.063 -0.072,0.09 0.065,-0.012 0.129,-0.04 0.197,-0.054 0.952,-0.149 2.393,-0.656 3.154,-1.24 l 1.022,-0.86 c 0.875,-0.756 1.471,-1.261 1.789,-1.447 0.914,-0.507 2.439,-0.403 3.073,0.135 0.277,0.235 0.362,0.562 0.362,0.883 0,0.429 -0.155,0.855 -0.219,1.047 -0.062,0.154 -0.099,0.271 -0.127,0.375 0.042,-0.02 0.085,-0.04 0.118,-0.054 l 0.549,-0.227 c 0.965,-0.275 1.86,0.374 2.32,1.129 0.546,0.895 0.442,2.446 -1.068,3.731 -0.774,0.652 -3.002,2.835 -4.779,4.593 -1.413,1.391 -2.535,2.496 -2.886,2.796 -0.331,0.278 -0.853,0.883 -1.081,1.195 0.182,0.491 0.321,1.068 0.003,1.492 -0.346,0.445 -0.908,0.371 -1.213,0.336 0,0 -0.154,-0.018 -0.168,-0.018 -0.038,0.008 -0.071,0.018 -0.071,0.018 -0.053,0.011 -0.114,0.021 -0.168,0.03 l -0.048,-0.013 c -0.023,0.001 -0.053,0.004 -0.095,0.01 0.358,0.812 0.764,2.002 1.172,3.613 0.447,1.79 0.194,3.379 -0.704,4.358 -0.634,0.7 -1.576,1.008 -2.581,0.845 -1.612,-0.261 -2.9,-1.506 -3.747,-2.546 l -0.326,1.009 -0.644,-0.209 -3.066,-0.987 0.351,-1.094 c -1.305,0.372 -3.161,0.678 -4.672,-0.079 -0.914,-0.457 -1.502,-1.258 -1.608,-2.203 -0.159,-1.315 0.559,-2.747 1.974,-3.942 0.523,-0.435 0.985,-0.799 1.398,-1.095 -0.088,-0.06 -0.169,-0.115 -0.228,-0.163 -0.431,-0.366 -0.832,-0.783 -1.192,-1.161 l -0.474,-0.502 c -2.131,-1.9 -4.902,-3.242 -7.566,-3.583 -0.351,-0.029 -0.641,-0.291 -0.702,-0.654 -0.111,-0.65 0.584,-1.416 1.709,-1.901 1.136,-0.483 1.373,-1.974 0.808,-4.99 l -0.024,-0.12 c -0.052,-0.268 -0.148,-0.714 0.203,-1.042 0.38,-0.359 0.948,-0.285 1.927,-0.013 l 0.184,0.048 c 0.125,0.037 0.266,0.079 0.387,0.106 -0.036,-0.157 -0.087,-0.375 -0.129,-0.539 l -0.063,-0.29 -0.053,-0.303 c -0.134,-0.686 -0.292,-1.541 -0.292,-2.322 0,-0.457 0.056,-0.881 0.2,-1.248 0.384,-0.957 1.322,-2.476 1.855,-3.012 0.336,-0.33 0.682,-0.488 1.041,-0.472 0.536,0.029 0.915,0.406 1.146,0.692 0,0 0.017,0.02 0.028,0.03 0.071,-0.143 0.143,-0.338 0.264,-0.643 l 0.014,-0.068 c 0.362,-1.049 1.131,-3.239 4.098,-4.127 0.535,-0.159 1.151,-0.302 1.695,0 0.39,0.227 0.652,0.634 0.815,1.264 0.073,0.312 0.1,0.645 0.135,0.972 0.011,0.077 0.017,0.166 0.022,0.252 0.063,-0.049 0.113,-0.116 0.185,-0.199 1.069,-1.456 2.682,-4.68 2.682,-8.237 0,-0.915 -0.107,-1.851 -0.354,-2.781 -0.408,-1.484 -0.895,-2.601 -1.329,-3.586 -0.321,-0.708 -0.548,-1.395 -0.802,-2.054 -0.899,-0.94 -3.059,-2.136 -4.494,-2.931 l -0.869,-0.486 c -1.379,-0.783 -5.471,-4.809 -5.766,-10.122 -0.011,-0.099 -0.011,-0.193 -0.02,-0.285 -2.42,-0.827 -4.018,-0.701 -4.88,0.365 -1.843,2.274 -0.452,4.543 1.566,7.27 l 0.625,0.865 0.627,0.848 c 0,0 0.547,0.685 0.593,0.753 0.031,-0.14 0.056,-0.281 0.089,-0.448 l 0.247,-1.081 0.21,-0.854 c 0.163,-0.74 0.652,-0.89 0.849,-0.918 0.287,-0.041 0.76,-0.527 2,1.801 0.268,0.498 0.774,1.352 1.342,2.232 l 0.948,1.485 c 0.988,1.62 0.756,2.72 -0.802,3.787 -0.615,0.418 -0.568,0.636 -0.04,1.671 l 0.173,0.314 c 0.483,0.978 2.494,7.328 -0.425,11.83 -2.034,3.147 -4.906,6.064 -8.805,5.175 -2.218,-0.511 -3.689,-1.352 -5.116,-2.168 -1.395,-0.805 -2.717,-1.574 -4.645,-1.854 -1.22,-0.173 -4.201,-1.166 -4.325,-1.2 -0.399,-0.135 -0.937,-0.317 -0.973,-0.889 v -0.05 c 0,-0.616 0.68,-0.93 1.53,-1.316 0.998,-0.447 1.418,-0.807 1.631,-1.059 -0.468,-0.748 -2.343,-2.801 -2.74,-3.081 -0.36,-0.215 -0.579,-0.567 -0.579,-0.943 0,-0.059 0,-0.122 0.014,-0.183 0.126,-0.625 0.773,-1.043 1.938,-1.239 0.006,0 0.011,-10e-4 0.017,-10e-4 l -0.017,-0.201 c -0.127,-1.304 -0.315,-3.268 0.529,-4.581 l 0.177,-0.276 c 0.694,-1.065 2.144,-3.293 2.196,-4.071 0.025,-0.263 -0.067,-0.602 -0.149,-0.935 -0.143,-0.57 -0.292,-1.155 0.009,-1.648 0.11,-0.19 0.336,-0.431 0.786,-0.532 1.341,-0.31 1.842,0.767 2.254,1.639 l 0.226,0.471 c 0.544,1.099 1.298,2.606 2.214,4.128 l 0.596,0.919 c 1.064,1.581 2.498,4.325 2.183,6.554 0.223,-0.008 0.393,-0.016 0.447,-0.023 0.256,-0.035 0.534,-0.07 0.791,-0.003 l 0.258,0.055 c 0.456,0.086 1.097,0.206 1.239,0.808 0.149,0.59 -0.358,1.08 -0.873,1.478 -0.644,0.502 -1.367,2.597 -0.998,3.942 0.263,0.985 0.736,1.515 1.422,1.629 1.405,0.239 3.597,-1.255 4.619,-2.754 0.892,-1.293 1.269,-2.858 1.269,-4.168 0,-0.459 -0.034,-0.885 -0.121,-1.249 -0.318,-1.438 -0.6,-1.579 -0.607,-1.579 -0.048,-0.016 -0.244,0.047 -0.369,0.082 l -0.463,0.119 c -1,0.185 -2.198,-0.079 -2.963,-0.655 l -0.251,-0.175 c -0.599,-0.402 -1.411,-0.947 -1.302,-1.773 0.099,-0.748 0.9,-1.105 1.491,-1.31 0.462,-0.156 0.582,-0.415 0.641,-0.601 0.267,-0.956 -0.67,-2.706 -1.383,-3.588 l -0.363,-0.445 -0.884,-1.173 c -3.541,-4.54 -4.691,-8.931 -3.159,-12.046 0.924,-1.876 3.236,-4.105 8.988,-4.114 -0.239,-1.262 -0.572,-2.082 -1.089,-2.902 -1.409,-2.253 -3.792,-2.48 -5.069,-2.602 l -0.415,-0.041 -0.325,-0.024 c -0.379,-0.021 -0.898,-0.057 -1.295,-0.498 -0.498,-0.562 -0.637,-1.631 -0.496,-3.824 0.196,-2.912 -0.138,-4.51 -0.393,-5.671 -0.091,-0.457 -0.197,-0.953 -0.235,-1.351 -0.013,-0.256 -0.103,-0.67 -0.183,-1.019 -0.106,-0.448 -0.222,-0.927 -0.222,-1.383 0,-0.361 0.08,-0.706 0.279,-1.005 0.247,-0.36 0.643,-0.576 1.167,-0.649 l 1.314,-0.076 c 0.27,-0.008 0.624,-0.014 0.843,-0.045 -0.011,-0.014 -0.016,-0.051 -0.016,-0.051 -0.045,-0.092 -0.076,-0.189 -0.11,-0.282 h -14.658 c 0,0 4.343,-7.521 4.659,-8.069 -0.296,-0.57 -4.316,-8.378 -4.316,-8.378 h 39.51 l 2.24,-7.615 c 12.224,4.468 26.783,7.029 40.007,7.029 h 0.071 c 13.22,0 27.811,-2.551 40.034,-7.019 l 2.22,7.605 H 0.689 c 0,0 -4.019,7.808 -4.304,8.378 0.307,0.548 4.657,8.069 4.657,8.069 h -16.823 c 0.184,1.239 0.246,2.533 0.184,3.08 -0.04,0.458 -0.203,1.283 -0.369,2.142 -0.166,0.861 -0.371,1.931 -0.371,2.231 0,0.848 0.012,3.501 0.085,4.081 0.21,1.756 -1.663,3.156 -2.571,3.822 l -0.304,0.232 c -0.81,0.661 -1.604,1.512 -2.317,2.376 2.253,-0.779 6.381,-1.545 9.918,2.686 0.95,1.16 1.605,2.7 1.996,3.622 l 0.068,0.153 c 0.346,0.829 1.243,2.193 1.513,2.432 0.842,0.751 4.403,5.412 3.269,7.298 -0.768,1.279 -2.807,0.536 -3.477,0.291 -0.379,-0.138 -0.568,0.124 -0.824,1.103 -0.212,0.813 -0.694,2.895 -0.723,3.2 l -0.002,0.07 c -0.043,0.375 -0.125,1.162 -0.746,1.479 -0.391,0.195 -0.844,0.131 -1.351,-0.184 -0.252,-0.149 -0.464,-0.206 -0.629,-0.149 -0.203,0.062 -0.36,0.287 -0.443,0.479 -0.181,0.417 -0.475,1.425 -0.658,2.024 l -0.147,0.465 -0.074,0.317 c -0.097,0.425 -0.223,1.005 -0.785,1.15 -0.552,0.145 -1.01,-0.277 -1.395,-0.703 -0.298,-0.338 -0.571,-0.664 -0.819,-0.987 -3.629,3.239 -3.207,6.26 -2.962,8.09 0.369,2.237 1.28,3.717 2.711,4.42 2.11,1.04 4.734,0.12 5.054,-0.06 l 0.311,-0.153 c 0.134,-0.073 0.399,-0.2 0.545,-0.302 -0.042,-0.044 -0.089,-0.099 -0.194,-0.159 l -0.058,-0.047 -0.044,-0.05 c -0.922,-1.002 -1.276,-2.051 -1.276,-3.09 0,-2.537 2.154,-5.038 3.769,-6.755 v -0.028 c 0,-2.311 0.56,-5.852 2.141,-7.287 0.619,-0.562 1.412,-0.819 2.214,-0.738 1.372,0.133 3.291,1.3 3.625,1.448 0.33,0.153 1.305,1.119 -0.262,1.535 -1.571,0.405 -1.158,1.819 -1.085,2.528 0.101,0.925 0.542,2.094 1.235,3.601 0.217,0.471 0.306,0.993 0.306,1.526 0,0.995 -0.292,2.012 -0.579,2.757 0.259,0.028 0.531,0.086 0.821,0.184 0.818,0.289 1.359,0.782 1.523,1.385 0.033,0.13 0.052,0.259 0.052,0.394 0,0.393 -0.155,0.797 -0.461,1.156 -0.205,0.252 -0.29,0.578 -0.29,0.931"
             style="fill:#4fa1d9;fill-opacity:1;fill-rule:nonzero;stroke:none"
             id="path640"
             inkscape:connector-curvature="0" /></g><g
           id="g642"
           transform="translate(121.7261,105.8193)"><path
             d="M 0,0 C 0.489,0.161 2.046,0.136 2.759,-0.496 3.032,-0.722 3.412,-0.921 3.546,-1.021 3.685,-1.116 3.783,-1.386 3.257,-1.513 2.733,-1.649 2.434,-1.74 2.036,-1.908 1.648,-2.073 0.921,-2.039 0.531,-1.771 0.134,-1.513 -0.56,-0.89 -0.56,-0.558 -0.56,-0.232 -0.163,0 0,0"
             style="fill:#4fa1d9;fill-opacity:1;fill-rule:nonzero;stroke:none"
             id="path644"
             inkscape:connector-curvature="0" /></g><g
           id="g646"
           transform="translate(37.5527,101.1172)"><path
             d="M 0,0 C 0.304,-0.115 0.682,-0.504 1.574,-0.858 2.465,-1.222 2.58,-0.843 2.841,0.029 3.105,0.894 2.58,0.894 2.245,0.894 1.916,0.894 1.021,0.844 0.397,0.771 -0.905,0.628 -0.275,0.119 0,0"
             style="fill:#4fa1d9;fill-opacity:1;fill-rule:nonzero;stroke:none"
             id="path648"
             inkscape:connector-curvature="0" /></g><g
           id="g650"
           transform="translate(84.5728,112.4668)"><path
             d="m 0,0 c 0,1.259 -1.029,2.287 -2.284,2.287 -1.274,0 -2.298,-1.028 -2.298,-2.287 0,-1.263 1.024,-2.293 2.298,-2.293 C -1.029,-2.293 0,-1.263 0,0 m -2.284,1.042 c 0.568,0 1.027,-0.47 1.027,-1.042 0,-0.57 -0.459,-1.04 -1.027,-1.04 -0.58,0 -1.046,0.47 -1.046,1.04 0,0.572 0.466,1.042 1.046,1.042"
             style="fill:#4fa1d9;fill-opacity:1;fill-rule:nonzero;stroke:none"
             id="path652"
             inkscape:connector-curvature="0" /></g><g
           id="g654"
           transform="translate(73.9507,76.2231)"><path
             d="M 0,0 H -0.005 L -0.01,-0.004 c -0.94,-0.068 -1.019,-1.114 -1.019,-2.084 0,-1.187 -0.118,-11.192 -0.23,-13.517 -0.068,-1.133 0.068,-1.734 0.405,-1.954 0.368,-0.236 0.939,0.026 1.533,0.345 1.257,0.653 1.504,1.772 1.93,8.506 C 2.964,-3.211 1.655,-1.193 1.08,-0.582 0.732,-0.207 0.347,0 0,0"
             style="fill:#4fa1d9;fill-opacity:1;fill-rule:nonzero;stroke:none"
             id="path656"
             inkscape:connector-curvature="0" /></g><g
           id="g658"
           transform="translate(96.5605,45.1416)"><path
             d="m 0,0 c -0.112,-0.07 -0.258,0.085 -0.421,0.249 0,0 -0.042,0.039 -0.028,0.035 -3.997,2.654 -6.042,11.076 -6.087,11.738 -0.04,0.298 -0.102,0.367 -0.118,0.374 -0.006,-0.007 -0.023,-0.05 -0.023,-0.05 C -7.009,11.264 -7.926,7.011 -8.541,4.199 -8.829,2.881 -9.028,1.94 -9.083,1.765 L -9.146,1.494 C -9.191,1.309 -9.203,1.22 -9.292,1.218 c -0.099,0 -0.127,0.071 -0.279,0.547 -0.145,0.455 -0.949,3.579 -1.593,6.094 -0.452,1.761 -0.843,3.28 -0.905,3.472 -0.073,0.231 -0.119,0.315 -0.144,0.353 -0.011,-0.038 -0.045,-0.109 -0.045,-0.109 l -0.49,-1.558 c -0.953,-3.096 -2.131,-6.94 -5.068,-8.919 -0.7,-0.533 -0.821,-0.513 -0.896,-0.449 -0.1,0.098 0.013,0.279 0.253,0.644 4.056,8.161 5.858,22.241 4.661,28.464 -0.066,0.344 -0.063,0.456 0.027,0.492 0.102,0.04 0.197,-0.09 0.395,-0.421 l 0.075,-0.144 c 1.919,-2.816 4.672,-12.14 4.7,-12.226 0.035,-0.167 0.062,-0.212 0.081,-0.234 0.035,0.052 0.077,0.17 0.1,0.234 0.978,3.512 3.9,11.019 5.028,12.615 0.389,0.552 0.513,0.635 0.621,0.585 0.117,-0.051 0.088,-0.232 0.018,-0.526 L -2.781,29.955 C -3.228,26.771 -3.67,11.94 -0.039,0.61 0.102,0.173 0.08,0.049 0,0 m -22.711,12.219 -0.131,-0.043 c -0.554,-0.214 -0.606,-0.697 -0.645,-1.123 l -0.016,-0.122 C -24.364,3.323 -27.342,0.875 -28.237,0.313 -28.482,0.149 -28.655,0.114 -28.758,0.21 c -0.068,0.047 -0.096,0.131 -0.096,0.219 0,0.144 0.071,0.308 0.096,0.381 1.069,3.129 1.446,12.669 1.446,19.525 0,2.963 -0.076,5.432 -0.184,6.66 -0.025,0.276 -0.038,0.517 -0.038,0.71 0,0.952 0.298,1.113 0.897,1.346 l 0.056,0.018 c 0.581,0.187 1.187,0.393 1.463,0.943 0.529,1.584 2.059,2.174 2.903,2.174 1.22,0 5.791,-1.65 5.791,-9.729 0,-5.181 -2.227,-8.809 -6.287,-10.238 m 8.597,27.029 h -0.005 C -25.47,39.235 -34.687,28.045 -34.687,14.293 c 0,-13.743 9.217,-24.934 20.568,-24.943 11.352,0.009 20.573,11.2 20.573,24.943 0,13.752 -9.221,24.942 -20.568,24.955"
             style="fill:#4fa1d9;fill-opacity:1;fill-rule:nonzero;stroke:none"
             id="path660"
             inkscape:connector-curvature="0" /></g><g
           id="g662"
           transform="translate(48.1069,6.001)"><path
             d="M 0,0 -1.078,-0.326 -2.604,4.842 -1.53,5.153 Z"
             style="fill:#4fa1d9;fill-opacity:1;fill-rule:nonzero;stroke:none"
             id="path664"
             inkscape:connector-curvature="0" /></g><g
           id="g666"
           transform="translate(48.8833,11.8203)"><path
             d="M 0,0 1.134,0.292 4.087,-2.806 3.168,0.806 4.186,1.067 5.507,-4.153 4.427,-4.432 1.412,-1.274 2.337,-4.959 1.323,-5.218 Z"
             style="fill:#4fa1d9;fill-opacity:1;fill-rule:nonzero;stroke:none"
             id="path668"
             inkscape:connector-curvature="0" /></g><g
           id="g670"
           transform="translate(59.3354,14.1895)"><path
             d="M 0,0 0.181,-0.916 -1.4,-1.229 -0.522,-5.595 -1.626,-5.816 -2.508,-1.457 -4.089,-1.771 -4.267,-0.85 Z"
             style="fill:#4fa1d9;fill-opacity:1;fill-rule:nonzero;stroke:none"
             id="path672"
             inkscape:connector-curvature="0" /></g><g
           id="g674"
           transform="translate(65.4004,14.1758)"><path
             d="m 0,0 -2.764,-0.418 0.162,-1.113 2.543,0.383 0.132,-0.927 -2.537,-0.386 0.214,-1.369 2.896,0.428 0.146,-0.952 -3.99,-0.6 -0.796,5.325 3.848,0.58 z"
             style="fill:#4fa1d9;fill-opacity:1;fill-rule:nonzero;stroke:none"
             id="path676"
             inkscape:connector-curvature="0" /></g><g
           id="g678"
           transform="translate(68.8301,14.6016)"><path
             d="m 0,0 0.137,-1.441 1.21,0.121 c 0.236,0.023 0.41,0.068 0.523,0.141 0.203,0.117 0.284,0.335 0.256,0.637 C 2.093,-0.22 1.974,-0.012 1.757,0.072 1.634,0.129 1.459,0.146 1.237,0.121 L 0,0 M 2.227,1.021 C 2.436,0.958 2.618,0.845 2.77,0.694 2.897,0.57 2.995,0.426 3.085,0.27 3.166,0.117 3.211,-0.074 3.237,-0.28 3.26,-0.536 3.215,-0.798 3.119,-1.05 3.012,-1.311 2.821,-1.506 2.529,-1.638 2.795,-1.706 2.969,-1.832 3.102,-2.011 3.215,-2.183 3.295,-2.456 3.33,-2.838 l 0.048,-0.355 c 0.017,-0.241 0.045,-0.41 0.068,-0.492 0.047,-0.133 0.129,-0.228 0.235,-0.281 l 0.011,-0.14 -1.228,-0.121 c -0.049,0.121 -0.076,0.216 -0.099,0.281 -0.04,0.152 -0.073,0.3 -0.096,0.453 L 2.215,-2.99 C 2.18,-2.653 2.093,-2.43 1.974,-2.336 1.844,-2.224 1.629,-2.196 1.313,-2.22 L 0.227,-2.336 0.436,-4.43 -0.662,-4.528 -1.185,0.821 1.364,1.077 C 1.738,1.11 2.019,1.087 2.227,1.021"
             style="fill:#4fa1d9;fill-opacity:1;fill-rule:nonzero;stroke:none"
             id="path680"
             inkscape:connector-curvature="0" /></g><g
           id="g682"
           transform="translate(74.3145,16.0215)"><path
             d="M 0,0 1.176,0.049 3.445,-3.577 3.271,0.146 4.321,0.195 4.571,-5.179 3.445,-5.231 1.118,-1.538 1.292,-5.329 0.25,-5.376 Z"
             style="fill:#4fa1d9;fill-opacity:1;fill-rule:nonzero;stroke:none"
             id="path684"
             inkscape:connector-curvature="0" /></g><g
           id="g686"
           transform="translate(82.5049,12.9072)"><path
             d="M 0,0 1.368,-0.006 0.71,2.112 0,0 m 0.076,3.347 1.287,-0.012 1.864,-5.39 -1.216,0.01 -0.348,1.098 -1.979,0.017 -0.369,-1.103 -1.193,0.006 z"
             style="fill:#4fa1d9;fill-opacity:1;fill-rule:nonzero;stroke:none"
             id="path688"
             inkscape:connector-curvature="0" /></g><g
           id="g690"
           transform="translate(91.1333,15.9756)"><path
             d="m 0,0 -0.051,-0.933 -1.612,0.084 -0.228,-4.444 -1.125,0.057 0.228,4.44 -1.61,0.085 0.048,0.933 z"
             style="fill:#4fa1d9;fill-opacity:1;fill-rule:nonzero;stroke:none"
             id="path692"
             inkscape:connector-curvature="0" /></g><g
           id="g694"
           transform="translate(93.6426,10.3574)"><path
             d="m 0,0 -1.125,0.103 0.458,5.363 1.127,-0.1 z"
             style="fill:#4fa1d9;fill-opacity:1;fill-rule:nonzero;stroke:none"
             id="path696"
             inkscape:connector-curvature="0" /></g><g
           id="g698"
           transform="translate(99.3511,11.0342)"><path
             d="M 0,0 C 0.302,0.29 0.493,0.729 0.558,1.33 0.645,1.926 0.568,2.4 0.355,2.758 0.132,3.108 -0.187,3.322 -0.624,3.377 -1.065,3.434 -1.434,3.318 -1.735,3.025 -2.036,2.742 -2.23,2.3 -2.305,1.698 -2.378,1.102 -2.314,0.624 -2.089,0.271 -1.873,-0.086 -1.543,-0.295 -1.107,-0.352 -0.666,-0.404 -0.298,-0.289 0,0 m 0.601,-0.907 c -0.46,-0.362 -1.07,-0.495 -1.83,-0.397 -0.761,0.092 -1.321,0.373 -1.667,0.843 -0.479,0.579 -0.65,1.346 -0.533,2.302 0.128,0.977 0.502,1.672 1.098,2.096 0.453,0.362 1.06,0.495 1.82,0.397 C 0.257,4.238 0.811,3.956 1.16,3.485 1.627,2.93 1.812,2.159 1.686,1.187 1.554,0.226 1.2,-0.469 0.601,-0.907"
             style="fill:#4fa1d9;fill-opacity:1;fill-rule:nonzero;stroke:none"
             id="path700"
             inkscape:connector-curvature="0" /></g><g
           id="g702"
           transform="translate(103.5908,14.5195)"><path
             d="M 0,0 1.145,-0.214 2.535,-4.27 3.221,-0.597 4.245,-0.789 3.266,-6.08 2.164,-5.876 0.734,-1.75 0.039,-5.485 -0.986,-5.298 Z"
             style="fill:#4fa1d9;fill-opacity:1;fill-rule:nonzero;stroke:none"
             id="path704"
             inkscape:connector-curvature="0" /></g><g
           id="g706"
           transform="translate(110.8965,9.6182)"><path
             d="M 0,0 1.338,-0.317 1.167,1.903 0,0 m 0.838,3.241 1.245,-0.298 0.595,-5.684 -1.19,0.294 -0.085,1.155 -1.933,0.455 -0.61,-0.976 -1.148,0.274 z"
             style="fill:#4fa1d9;fill-opacity:1;fill-rule:nonzero;stroke:none"
             id="path708"
             inkscape:connector-curvature="0" /></g><g
           id="g710"
           transform="translate(116.7808,11.5723)"><path
             d="M 0,0 1.088,-0.318 -0.16,-4.566 2.416,-5.313 2.145,-6.242 -1.52,-5.166 Z"
             style="fill:#4fa1d9;fill-opacity:1;fill-rule:nonzero;stroke:none"
             id="path712"
             inkscape:connector-curvature="0" /></g><g
           id="g714"
           transform="translate(46.5513,17.3018)"><path
             d="m 0,0 c -0.172,0.078 -0.374,0.08 -0.609,0.014 l -0.957,-0.282 0.443,-1.525 0.951,0.285 c 0.251,0.067 0.422,0.186 0.507,0.347 0.101,0.166 0.116,0.381 0.037,0.649 C 0.295,-0.241 0.169,-0.072 0,0 M 1.384,-1.621 C 1.155,-1.957 0.773,-2.212 0.209,-2.377 l -1.066,-0.311 0.545,-1.844 -1.086,-0.32 -1.51,5.167 2.202,0.65 C -0.192,1.107 0.253,1.092 0.633,0.921 1.016,0.741 1.286,0.368 1.454,-0.187 1.629,-0.802 1.609,-1.278 1.384,-1.621"
             style="fill:#4fa1d9;fill-opacity:1;fill-rule:nonzero;stroke:none"
             id="path716"
             inkscape:connector-curvature="0" /></g><g
           id="g718"
           transform="translate(51.6543,14.2754)"><path
             d="m 0,0 -1.224,5.24 1.097,0.261 0.464,-2 L 2.354,3.963 1.881,5.96 2.987,6.222 4.205,0.982 3.108,0.725 2.563,3.058 0.547,2.587 1.096,0.252 Z"
             style="fill:#4fa1d9;fill-opacity:1;fill-rule:nonzero;stroke:none"
             id="path720"
             inkscape:connector-curvature="0" /></g><g
           id="g722"
           transform="translate(59.7773,16.0156)"><path
             d="m 0,0 -1.108,-0.212 -0.984,5.298 1.106,0.209 z"
             style="fill:#4fa1d9;fill-opacity:1;fill-rule:nonzero;stroke:none"
             id="path724"
             inkscape:connector-curvature="0" /></g><g
           id="g726"
           transform="translate(61.8843,21.833)"><path
             d="m 0,0 1.119,0.163 0.637,-4.371 2.647,0.383 0.143,-0.96 -3.783,-0.544 z"
             style="fill:#4fa1d9;fill-opacity:1;fill-rule:nonzero;stroke:none"
             id="path728"
             inkscape:connector-curvature="0" /></g><g
           id="g730"
           transform="translate(70.0864,17.4502)"><path
             d="m 0,0 -1.123,-0.117 -0.548,5.353 1.129,0.115 z"
             style="fill:#4fa1d9;fill-opacity:1;fill-rule:nonzero;stroke:none"
             id="path732"
             inkscape:connector-curvature="0" /></g><g
           id="g734"
           transform="translate(75.4907,22.1338)"><path
             d="m 0,0 c -0.143,0.109 -0.343,0.16 -0.598,0.143 l -0.992,-0.055 0.096,-1.582 0.989,0.055 c 0.255,0.011 0.446,0.087 0.578,0.227 0.129,0.135 0.188,0.35 0.171,0.621 C 0.228,-0.311 0.148,-0.107 0,0 M 0.981,-1.9 C 0.689,-2.181 0.247,-2.338 -0.334,-2.365 L -1.44,-2.433 -1.33,-4.357 -2.45,-4.423 -2.768,0.95 -0.465,1.086 C 0.059,1.113 0.489,0.996 0.818,0.741 1.161,0.483 1.341,0.062 1.375,-0.519 1.406,-1.157 1.28,-1.606 0.981,-1.9"
             style="fill:#4fa1d9;fill-opacity:1;fill-rule:nonzero;stroke:none"
             id="path736"
             inkscape:connector-curvature="0" /></g><g
           id="g738"
           transform="translate(87.3857,23.335)"><path
             d="m 0,0 1.612,-0.045 -0.154,-5.386 -1.049,0.03 0.117,3.638 c 0,0.105 0,0.251 0.003,0.445 0.005,0.187 0.023,0.334 0.023,0.434 l -1.155,-4.49 -1.085,0.035 -0.879,4.553 v -0.443 c -0.004,-0.183 -0.004,-0.337 -0.012,-0.443 l -0.11,-3.63 -1.046,0.028 0.162,5.375 L -1.938,0.05 -1.097,-4.2 0,0"
             style="fill:#4fa1d9;fill-opacity:1;fill-rule:nonzero;stroke:none"
             id="path740"
             inkscape:connector-curvature="0" /></g><g
           id="g742"
           transform="translate(95.2339,18.7139)"><path
             d="M 0,0 C 0.281,0.308 0.453,0.757 0.51,1.353 0.566,1.945 0.481,2.421 0.256,2.776 0.023,3.119 -0.309,3.314 -0.751,3.357 -1.187,3.393 -1.558,3.265 -1.852,2.963 -2.138,2.661 -2.318,2.216 -2.376,1.619 -2.422,1.021 -2.343,0.543 -2.098,0.197 -1.87,-0.149 -1.535,-0.342 -1.092,-0.381 -0.653,-0.424 -0.287,-0.293 0,0 m 0.625,-0.885 c -0.442,-0.373 -1.05,-0.531 -1.812,-0.461 -0.765,0.069 -1.328,0.335 -1.694,0.79 -0.491,0.554 -0.695,1.315 -0.62,2.279 0.104,0.975 0.441,1.695 1.022,2.13 0.447,0.375 1.05,0.535 1.804,0.46 C 0.093,4.251 0.661,3.986 1.026,3.529 1.525,2.992 1.724,2.228 1.637,1.255 1.55,0.289 1.206,-0.424 0.625,-0.885"
             style="fill:#4fa1d9;fill-opacity:1;fill-rule:nonzero;stroke:none"
             id="path744"
             inkscape:connector-curvature="0" /></g><g
           id="g746"
           transform="translate(101.0674,21.1641)"><path
             d="m 0,0 -0.218,-1.432 1.197,-0.177 c 0.23,-0.045 0.414,-0.039 0.541,0.005 0.224,0.059 0.364,0.248 0.407,0.545 0.054,0.318 -0.016,0.552 -0.208,0.697 -0.101,0.083 -0.273,0.139 -0.504,0.175 L 0,0 M 2.417,0.436 C 2.597,0.326 2.741,0.174 2.853,-0.014 2.948,-0.162 3.014,-0.323 3.05,-0.505 3.095,-0.669 3.104,-0.86 3.061,-1.068 3.03,-1.327 2.923,-1.568 2.763,-1.798 2.605,-2.018 2.361,-2.161 2.048,-2.218 2.278,-2.353 2.434,-2.519 2.507,-2.712 2.58,-2.905 2.597,-3.203 2.54,-3.566 L 2.481,-3.927 C 2.442,-4.165 2.426,-4.337 2.437,-4.424 2.442,-4.568 2.496,-4.678 2.597,-4.76 L 2.563,-4.895 1.349,-4.703 c -0.018,0.115 -0.021,0.217 -0.033,0.295 -0.004,0.153 0,0.304 0.033,0.456 l 0.064,0.507 c 0.042,0.334 0.025,0.565 -0.073,0.702 -0.102,0.126 -0.302,0.217 -0.603,0.262 l -1.085,0.158 -0.322,-2.073 -1.085,0.155 0.81,5.328 L 1.593,0.7 C 1.953,0.644 2.234,0.552 2.417,0.436"
             style="fill:#4fa1d9;fill-opacity:1;fill-rule:nonzero;stroke:none"
             id="path748"
             inkscape:connector-curvature="0" /></g><g
           id="g750"
           transform="translate(108.4434,19.8848)"><path
             d="m 0,0 -0.304,-1.418 1.19,-0.244 c 0.222,-0.055 0.417,-0.063 0.543,-0.035 0.225,0.062 0.375,0.237 0.434,0.534 0.066,0.315 0.006,0.549 -0.168,0.704 -0.101,0.084 -0.26,0.154 -0.483,0.199 L 0,0 M 2.428,0.302 C 2.598,0.176 2.751,0.012 2.852,-0.176 2.935,-0.33 2.996,-0.496 3.023,-0.675 3.049,-0.848 3.043,-1.044 3.005,-1.243 2.942,-1.497 2.835,-1.727 2.652,-1.945 2.48,-2.158 2.233,-2.287 1.92,-2.33 2.143,-2.478 2.289,-2.655 2.352,-2.858 2.41,-3.054 2.402,-3.34 2.326,-3.707 L 2.247,-4.062 C 2.2,-4.3 2.184,-4.468 2.184,-4.552 c 0,-0.151 0.035,-0.262 0.129,-0.343 L 2.289,-5.031 1.078,-4.773 c -0.014,0.123 -0.014,0.221 -0.014,0.294 0,0.154 0.021,0.312 0.044,0.468 l 0.104,0.484 c 0.065,0.336 0.054,0.573 -0.026,0.707 -0.09,0.135 -0.297,0.233 -0.604,0.303 l -1.069,0.23 -0.43,-2.064 -1.081,0.235 1.111,5.255 2.515,-0.527 c 0.357,-0.084 0.628,-0.187 0.8,-0.31"
             style="fill:#4fa1d9;fill-opacity:1;fill-rule:nonzero;stroke:none"
             id="path752"
             inkscape:connector-curvature="0" /></g><g
           id="g754"
           transform="translate(114.4819,13.9053)"><path
             d="m 0,0 -1.085,0.284 1.341,5.211 1.1,-0.281 z"
             style="fill:#4fa1d9;fill-opacity:1;fill-rule:nonzero;stroke:none"
             id="path756"
             inkscape:connector-curvature="0" /></g><g
           id="g758"
           transform="translate(118.5581,14.5088)"><path
             d="m 0,0 c -0.049,-0.245 -0.027,-0.443 0.025,-0.59 0.116,-0.261 0.386,-0.459 0.805,-0.585 0.256,-0.08 0.473,-0.111 0.65,-0.109 0.329,0.017 0.54,0.171 0.627,0.453 0.048,0.175 0.019,0.333 -0.101,0.465 C 1.882,-0.227 1.677,-0.072 1.38,0.093 L 0.868,0.383 C 0.368,0.667 0.033,0.908 -0.129,1.113 -0.41,1.459 -0.472,1.888 -0.318,2.391 -0.174,2.854 0.116,3.187 0.544,3.386 0.968,3.595 1.508,3.595 2.16,3.396 2.706,3.228 3.139,2.941 3.437,2.537 3.738,2.132 3.808,1.657 3.657,1.098 l -1.04,0.31 C 2.695,1.733 2.633,1.991 2.407,2.202 2.268,2.338 2.064,2.443 1.821,2.518 1.539,2.606 1.3,2.616 1.102,2.556 0.895,2.494 0.765,2.365 0.703,2.165 0.647,1.985 0.687,1.819 0.824,1.679 0.92,1.591 1.114,1.447 1.445,1.26 L 2.262,0.773 C 2.633,0.562 2.886,0.345 3.029,0.132 3.266,-0.205 3.32,-0.604 3.168,-1.062 c -0.139,-0.475 -0.434,-0.813 -0.9,-1.01 -0.447,-0.199 -1.008,-0.199 -1.671,0 -0.67,0.208 -1.16,0.523 -1.45,0.944 -0.296,0.423 -0.353,0.905 -0.199,1.445 L 0,0"
             style="fill:#4fa1d9;fill-opacity:1;fill-rule:nonzero;stroke:none"
             id="path760"
             inkscape:connector-curvature="0" /></g><path
           d="m 200.939,15.942 h -1.081 v 88.117 h 1.081 z"
           style="fill:#50a1d9;fill-opacity:1;fill-rule:nonzero;stroke:none"
           id="path762"
           inkscape:connector-curvature="0" /><g
           id="g764"
           transform="translate(239.0615,60.4595)"><path
             d="m 0,0 h 4.074 c 2.673,0 4.396,0.456 5.164,1.365 0.765,0.91 1.15,2.974 1.15,6.188 0,2.912 -0.407,4.814 -1.222,5.709 -0.819,0.896 -2.319,1.343 -4.499,1.343 H 0 Z m 0,-15.475 h 4.2 v -0.853 H -7.831 v 0.853 h 4.206 v 30.08 h -4.206 v 0.852 H 4.94 c 2.798,0 5.077,-0.806 6.826,-2.423 1.756,-1.615 2.629,-3.698 2.629,-6.243 0,-2.519 -0.826,-4.422 -2.469,-5.709 -1.644,-1.288 -4.08,-1.933 -7.301,-1.933 H 0 Z"
             style="fill:#4fa1d9;fill-opacity:1;fill-rule:nonzero;stroke:none"
             id="path766"
             inkscape:connector-curvature="0" /></g><g
           id="g768"
           transform="translate(274.9424,62.4248)"><path
             d="m 0,0 v 12.64 h -4.199 v 0.852 H 7.831 V 12.64 H 3.588 v -30.08 h 4.243 v -0.853 h -12.03 v 0.853 H 0 V -0.852 H -11.584 V -17.44 h 4.199 v -0.853 h -12.032 v 0.853 h 4.201 v 30.08 h -4.201 v 0.852 H -7.385 V 12.64 h -4.199 V 0 Z"
             style="fill:#4fa1d9;fill-opacity:1;fill-rule:nonzero;stroke:none"
             id="path770"
             inkscape:connector-curvature="0" /></g><g
           id="g772"
           transform="translate(293.1787,44.9844)"><path
             d="M 0,0 H 4.199 V -0.853 H -7.831 V 0 h 4.2 v 30.081 h -4.2 v 0.851 H 4.199 V 30.081 H 0 Z"
             style="fill:#4fa1d9;fill-opacity:1;fill-rule:nonzero;stroke:none"
             id="path774"
             inkscape:connector-curvature="0" /></g><g
           id="g776"
           transform="translate(311.9824,75.9165)"><path
             d="m 0,0 v -0.852 h -4.202 v -30.08 h 3.8 c 2.855,0 5.077,1.073 6.659,3.228 1.587,2.155 2.65,5.543 3.195,10.174 h 0.489 v -14.255 h -21.968 v 0.853 h 4.196 v 30.08 h -4.196 V 0 Z"
             style="fill:#4fa1d9;fill-opacity:1;fill-rule:nonzero;stroke:none"
             id="path778"
             inkscape:connector-curvature="0" /></g><g
           id="g780"
           transform="translate(332.813,44.9844)"><path
             d="M 0,0 H 4.199 V -0.853 H -7.826 V 0 h 4.194 v 30.081 h -4.194 v 0.851 H 4.199 V 30.081 H 0 Z"
             style="fill:#4fa1d9;fill-opacity:1;fill-rule:nonzero;stroke:none"
             id="path782"
             inkscape:connector-curvature="0" /></g><g
           id="g784"
           transform="translate(347.4204,60.4595)"><path
             d="m 0,0 h 4.072 c 2.673,0 4.394,0.456 5.161,1.365 0.769,0.91 1.151,2.974 1.151,6.188 0,2.912 -0.407,4.814 -1.225,5.709 -0.817,0.896 -2.319,1.343 -4.496,1.343 H 0 Z m 0,-15.475 h 4.196 v -0.853 H -7.832 v 0.853 h 4.203 v 30.08 h -4.203 v 0.852 H 4.936 c 2.799,0 5.078,-0.806 6.827,-2.423 C 13.518,11.419 14.39,9.336 14.39,6.791 14.39,4.272 13.569,2.369 11.923,1.082 10.277,-0.206 7.842,-0.851 4.622,-0.851 H 0 Z"
             style="fill:#4fa1d9;fill-opacity:1;fill-rule:nonzero;stroke:none"
             id="path786"
             inkscape:connector-curvature="0" /></g><g
           id="g788"
           transform="translate(387.9204,44.1318)"><path
             d="M 0,0 -7.831,31.262 V 5.543 c 0,-1.672 0.249,-2.874 0.753,-3.602 0.495,-0.727 1.3,-1.088 2.414,-1.088 h 1.372 V 0 h -9.856 v 0.853 h 0.74 c 1.262,0 2.207,0.361 2.826,1.088 0.623,0.728 0.929,1.827 0.929,3.297 v 22.748 c 0,1.061 -0.26,1.819 -0.782,2.27 -0.521,0.452 -1.39,0.677 -2.619,0.677 h -1.094 v 0.852 h 8.61 L 1.689,6.963 8.252,31.785 h 8.124 V 30.933 H 12.198 V 0.853 h 4.178 V 0 H 4.579 V 0.853 H 8.778 L 8.95,31.262 0.693,0 Z"
             style="fill:#4fa1d9;fill-opacity:1;fill-rule:nonzero;stroke:none"
             id="path790"
             inkscape:connector-curvature="0" /></g><g
           id="g792"
           transform="translate(418.4795,44.4355)"><path
             d="m 0,0 c 1.113,0 2.126,0.339 3.04,1.02 0.913,0.676 1.701,1.666 2.362,2.978 0.441,0.856 0.747,2 0.931,3.436 0.185,1.435 0.274,4.145 0.274,8.132 0,4.41 -0.138,7.409 -0.419,8.995 -0.285,1.587 -0.76,2.867 -1.439,3.842 -0.603,0.873 -1.328,1.553 -2.163,2.04 -0.839,0.489 -1.699,0.734 -2.586,0.734 -0.915,0 -1.792,-0.245 -2.636,-0.734 -0.847,-0.487 -1.565,-1.167 -2.156,-2.04 -0.686,-1.004 -1.172,-2.294 -1.445,-3.865 -0.273,-1.57 -0.409,-4.562 -0.409,-8.972 v -1.025 c 0,-3.437 0.091,-5.838 0.271,-7.207 0.183,-1.367 0.499,-2.48 0.931,-3.336 C -4.783,2.686 -3.992,1.696 -3.07,1.02 -2.147,0.339 -1.126,0 0,0 m 0,31.985 c 1.197,0 2.357,-0.3 3.483,-0.896 1.129,-0.598 2.142,-1.449 3.042,-2.555 1.375,-1.719 2.419,-3.716 3.127,-5.993 0.716,-2.276 1.071,-4.762 1.071,-7.456 0,-2.356 -0.285,-4.509 -0.843,-6.451 C 9.314,6.69 8.47,4.935 7.345,3.363 6.389,2.038 5.264,1.004 3.969,0.261 2.676,-0.48 1.355,-0.854 0,-0.854 c -1.362,0 -2.697,0.374 -4,1.115 -1.297,0.743 -2.428,1.777 -3.388,3.102 -1.124,1.572 -1.966,3.327 -2.529,5.271 -0.565,1.942 -0.846,4.095 -0.846,6.451 0,1.805 0.17,3.541 0.507,5.207 0.339,1.667 0.829,3.221 1.479,4.662 1.038,2.255 2.321,3.993 3.837,5.205 1.519,1.216 3.167,1.826 4.94,1.826"
             style="fill:#4fa1d9;fill-opacity:1;fill-rule:nonzero;stroke:none"
             id="path794"
             inkscape:connector-curvature="0" /></g><g
           id="g796"
           transform="translate(444.7139,75.0649)"><path
             d="m 0,0 h -4.577 v -14.43 h 3.988 c 2.445,0 4.078,0.508 4.894,1.529 0.817,1.018 1.224,3.042 1.224,6.067 0,2.606 -0.399,4.395 -1.191,5.372 C 3.542,-0.488 2.093,0 0,0 m -12.408,-30.933 v 0.852 h 4.199 V 0 h -4.199 V 0.852 H 1.437 c 2.575,0 4.566,-0.662 5.968,-1.987 1.408,-1.323 2.116,-3.196 2.116,-5.611 0,-2.344 -0.713,-4.222 -2.137,-5.632 -1.418,-1.412 -3.419,-2.233 -5.991,-2.468 1.983,-0.131 3.53,-0.592 4.643,-1.384 1.112,-0.794 1.863,-1.97 2.261,-3.528 0.139,-0.511 0.238,-1.062 0.303,-1.657 0.062,-0.6 0.095,-1.343 0.095,-2.227 v -1.267 c 0,-0.786 0.016,-1.359 0.056,-1.713 0.029,-0.356 0.082,-0.672 0.156,-0.95 0.254,-1.062 0.607,-1.814 1.052,-2.264 0.452,-0.443 1.08,-0.662 1.88,-0.662 0.269,0 0.556,0.034 0.878,0.098 0.315,0.065 0.63,0.156 0.939,0.273 v -0.806 c -0.366,-0.177 -0.758,-0.31 -1.179,-0.405 -0.425,-0.093 -0.874,-0.145 -1.352,-0.145 -2.325,0 -3.947,0.661 -4.88,1.988 -0.925,1.327 -1.389,3.816 -1.389,7.466 0,2.752 -0.354,4.572 -1.068,5.458 -0.71,0.889 -1.971,1.333 -3.788,1.333 h -4.577 v -14.843 h 4.197 v -0.852 z"
             style="fill:#4fa1d9;fill-opacity:1;fill-rule:nonzero;stroke:none"
             id="path798"
             inkscape:connector-curvature="0" /></g><g
           id="g800"
           transform="translate(471.6445,75.0649)"><path
             d="m 0,0 h -4.581 v -14.43 h 3.986 c 2.456,0 4.082,0.508 4.902,1.529 0.815,1.018 1.223,3.042 1.223,6.067 0,2.606 -0.396,4.395 -1.194,5.372 C 3.54,-0.488 2.097,0 0,0 m -12.41,-30.933 v 0.852 h 4.199 V 0 H -12.41 V 0.852 H 1.436 c 2.577,0 4.568,-0.662 5.976,-1.987 1.401,-1.323 2.11,-3.196 2.11,-5.611 0,-2.344 -0.717,-4.222 -2.135,-5.632 -1.42,-1.412 -3.419,-2.233 -5.992,-2.468 1.984,-0.131 3.53,-0.592 4.644,-1.384 1.107,-0.794 1.862,-1.97 2.255,-3.528 0.142,-0.511 0.243,-1.062 0.308,-1.657 0.06,-0.6 0.091,-1.343 0.091,-2.227 v -1.267 c 0,-0.786 0.018,-1.359 0.055,-1.713 0.033,-0.356 0.088,-0.672 0.158,-0.95 0.253,-1.062 0.607,-1.814 1.053,-2.264 0.455,-0.443 1.079,-0.662 1.881,-0.662 0.268,0 0.559,0.034 0.877,0.098 0.314,0.065 0.626,0.156 0.936,0.273 v -0.806 c -0.361,-0.177 -0.758,-0.31 -1.179,-0.405 -0.422,-0.093 -0.87,-0.145 -1.349,-0.145 -2.324,0 -3.947,0.661 -4.877,1.988 -0.927,1.327 -1.393,3.816 -1.393,7.466 0,2.752 -0.357,4.572 -1.065,5.458 -0.714,0.889 -1.976,1.333 -3.79,1.333 h -4.581 v -14.843 h 4.201 v -0.852 z"
             style="fill:#4fa1d9;fill-opacity:1;fill-rule:nonzero;stroke:none"
             id="path802"
             inkscape:connector-curvature="0" /></g><g
           id="g804"
           transform="translate(493.9941,44.9844)"><path
             d="M 0,0 H 4.201 V -0.853 H -7.83 V 0 h 4.201 V 30.081 H -7.83 v 0.851 H 4.201 V 30.081 H 0 Z"
             style="fill:#4fa1d9;fill-opacity:1;fill-rule:nonzero;stroke:none"
             id="path806"
             inkscape:connector-curvature="0" /></g><g
           id="g808"
           transform="translate(501.5098,43.9082)"><path
             d="M 0,0 V 13.54 H 0.653 C 1.215,9.406 2.354,6.205 4.061,3.933 c 1.71,-2.271 3.83,-3.406 6.37,-3.406 1.694,0 3.116,0.589 4.252,1.769 1.13,1.179 1.696,2.663 1.696,4.452 0,1.471 -0.419,2.771 -1.25,3.899 -0.827,1.128 -2.357,2.373 -4.579,3.745 -0.687,0.435 -1.694,1.009 -3.016,1.723 -2.337,1.281 -3.923,2.328 -4.772,3.144 -0.63,0.656 -1.126,1.427 -1.487,2.314 -0.355,0.889 -0.534,1.821 -0.534,2.795 0,2.388 0.673,4.34 2.021,5.863 1.355,1.519 3.083,2.281 5.195,2.281 1.379,0 2.625,-0.337 3.739,-1.006 1.108,-0.67 2.199,-1.738 3.267,-3.208 l 2.388,4.214 h 0.251 V 20.308 H 16.95 c -0.68,3.666 -1.778,6.476 -3.305,8.428 -1.53,1.948 -3.38,2.923 -5.561,2.923 -1.664,0 -3.043,-0.489 -4.137,-1.474 -1.103,-0.982 -1.646,-2.206 -1.646,-3.677 0,-1.892 2.198,-4.07 6.604,-6.528 0.855,-0.48 1.526,-0.851 1.984,-1.115 2.828,-1.614 4.811,-3.174 5.955,-4.681 1.136,-1.508 1.704,-3.259 1.704,-5.251 0,-2.662 -0.786,-4.87 -2.362,-6.627 C 14.61,0.551 12.648,-0.326 10.3,-0.326 8.862,-0.326 7.515,0.07 6.247,0.866 4.981,1.658 3.82,2.824 2.762,4.369 L 0.481,0 Z"
             style="fill:#4fa1d9;fill-opacity:1;fill-rule:nonzero;stroke:none"
             id="path810"
             inkscape:connector-curvature="0" /></g><g
           id="g812"
           transform="translate(542.0977,44.9844)"><path
             d="M 0,0 H 4.197 V -0.853 H -7.835 V 0 h 4.201 v 30.081 h -4.201 v 0.851 H 4.197 V 30.081 H 0 Z"
             style="fill:#4fa1d9;fill-opacity:1;fill-rule:nonzero;stroke:none"
             id="path814"
             inkscape:connector-curvature="0" /></g><g
           id="g816"
           transform="translate(553.8916,72.3804)"><path
             d="m 0,0 v -21.375 c 0,-2.022 0.317,-3.532 0.951,-4.53 0.632,-0.993 1.596,-1.491 2.891,-1.491 h 0.694 v -0.853 h -9.851 v 0.853 h 0.735 c 1.297,0 2.245,0.473 2.851,1.429 0.603,0.952 0.906,2.454 0.906,4.506 V 0.764 C -1.106,1.476 -1.486,1.978 -1.974,2.259 -2.46,2.544 -3.215,2.685 -4.242,2.685 h -1.073 v 0.851 h 7.507 l 12.116,-24.1 v 17.18 c 0,2.023 -0.32,3.54 -0.961,4.552 -0.657,1.011 -1.623,1.517 -2.918,1.517 H 9.732 v 0.851 h 9.896 V 2.685 h -0.781 c -1.28,0 -2.224,-0.484 -2.834,-1.452 C 15.4,0.265 15.094,-1.231 15.094,-3.253 v -25.545 h -0.618 z"
             style="fill:#4fa1d9;fill-opacity:1;fill-rule:nonzero;stroke:none"
             id="path818"
             inkscape:connector-curvature="0" /></g><g
           id="g820"
           transform="translate(580.1885,44.1318)"><path
             d="m 0,0 v 0.853 h 4.184 v 30.08 c -0.073,0 -0.18,0.008 -0.322,0.023 -0.138,0.014 -0.252,0.023 -0.338,0.023 -2.403,0 -4.228,-0.981 -5.478,-2.939 -1.236,-1.958 -2.005,-5.074 -2.29,-9.354 H -4.726 V 31.785 H 16.967 V 18.686 h -0.504 c -0.403,4.671 -1.234,7.88 -2.467,9.626 -1.238,1.748 -3.274,2.621 -6.1,2.621 H 7.81 V 0.853 h 4.203 V 0 Z"
             style="fill:#4fa1d9;fill-opacity:1;fill-rule:nonzero;stroke:none"
             id="path822"
             inkscape:connector-curvature="0" /></g><g
           id="g824"
           transform="translate(599.626,44.1318)"><path
             d="m 0,0 v 0.853 h 4.201 v 30.08 H 0 v 0.852 H 21.401 V 20.979 h -0.464 c -0.518,3.681 -1.355,6.261 -2.507,7.738 -1.158,1.478 -2.903,2.216 -5.238,2.216 H 7.831 V 17.485 h 1.647 c 1.575,0 2.814,0.621 3.726,1.867 0.909,1.244 1.397,2.987 1.463,5.23 h 0.424 v -14.52 h -0.424 c -0.137,2.373 -0.591,4.067 -1.359,5.087 -0.767,1.019 -1.954,1.528 -3.578,1.528 H 7.831 V 0.853 h 5.277 c 2.376,0 4.237,0.949 5.584,2.856 1.344,1.907 2.23,4.854 2.67,8.843 h 0.485 V 0 Z"
             style="fill:#4fa1d9;fill-opacity:1;fill-rule:nonzero;stroke:none"
             id="path826"
             inkscape:connector-curvature="0" /></g><g
           id="g828"
           transform="translate(638.5244,75.0649)"><path
             d="m 0,0 h -4.577 v -14.43 h 3.988 c 2.448,0 4.082,0.508 4.898,1.529 0.815,1.018 1.223,3.042 1.223,6.067 0,2.606 -0.4,4.395 -1.196,5.372 C 3.544,-0.488 2.101,0 0,0 m -12.41,-30.933 v 0.852 h 4.203 V 0 H -12.41 V 0.852 H 1.439 c 2.57,0 4.563,-0.662 5.971,-1.987 1.408,-1.323 2.107,-3.196 2.107,-5.611 0,-2.344 -0.708,-4.222 -2.126,-5.632 -1.424,-1.412 -3.421,-2.233 -5.998,-2.468 1.984,-0.131 3.532,-0.592 4.644,-1.384 1.109,-0.794 1.864,-1.97 2.259,-3.528 0.142,-0.511 0.247,-1.062 0.306,-1.657 0.064,-0.6 0.093,-1.343 0.093,-2.227 v -1.267 c 0,-0.786 0.02,-1.359 0.057,-1.713 0.029,-0.356 0.086,-0.672 0.156,-0.95 0.251,-1.062 0.605,-1.814 1.053,-2.264 0.448,-0.443 1.083,-0.662 1.882,-0.662 0.263,0 0.556,0.034 0.876,0.098 0.316,0.065 0.626,0.156 0.938,0.273 v -0.806 c -0.367,-0.177 -0.757,-0.31 -1.181,-0.405 -0.426,-0.093 -0.876,-0.145 -1.354,-0.145 -2.323,0 -3.948,0.661 -4.877,1.988 -0.922,1.327 -1.391,3.816 -1.391,7.466 0,2.752 -0.354,4.572 -1.062,5.458 -0.712,0.889 -1.98,1.333 -3.792,1.333 h -4.577 v -14.843 h 4.195 v -0.852 z"
             style="fill:#4fa1d9;fill-opacity:1;fill-rule:nonzero;stroke:none"
             id="path830"
             inkscape:connector-curvature="0" /></g><g
           id="g832"
           transform="translate(658.0693,72.3804)"><path
             d="m 0,0 v -21.375 c 0,-2.022 0.312,-3.532 0.952,-4.53 0.63,-0.993 1.592,-1.491 2.889,-1.491 h 0.698 v -0.853 h -9.855 v 0.853 h 0.735 c 1.297,0 2.245,0.473 2.852,1.429 0.604,0.952 0.907,2.454 0.907,4.506 V 0.764 c -0.283,0.712 -0.669,1.214 -1.154,1.495 -0.485,0.285 -1.236,0.426 -2.269,0.426 h -1.071 v 0.851 h 7.512 l 12.111,-24.1 v 17.18 c 0,2.023 -0.323,3.54 -0.966,4.552 -0.65,1.011 -1.618,1.517 -2.916,1.517 H 9.733 v 0.851 h 9.898 V 2.685 H 18.845 C 17.567,2.685 16.624,2.201 16.009,1.233 15.4,0.265 15.093,-1.231 15.093,-3.253 v -25.545 h -0.616 z"
             style="fill:#4fa1d9;fill-opacity:1;fill-rule:nonzero;stroke:none"
             id="path834"
             inkscape:connector-curvature="0" /></g><g
           id="g836"
           transform="translate(683.6279,55.0898)"><path
             d="M 0,0 H 8.825 L 4.452,15.413 Z m -1.305,-4.434 c -0.113,-0.38 -0.199,-0.762 -0.254,-1.155 -0.062,-0.394 -0.091,-0.78 -0.091,-1.157 0,-1.08 0.281,-1.909 0.827,-2.492 0.546,-0.576 1.31,-0.867 2.282,-0.867 h 0.862 v -0.853 h -9.329 v 0.853 c 1.223,0.157 2.202,0.678 2.934,1.555 0.733,0.886 1.443,2.481 2.132,4.795 l 7.26,25.086 h 0.953 l 9.157,-31.436 h 2.765 v -0.853 H 8.08 v 0.853 h 3.632 L 9.079,-0.81 h -9.356 z"
             style="fill:#4fa1d9;fill-opacity:1;fill-rule:nonzero;stroke:none"
             id="path838"
             inkscape:connector-curvature="0" /></g><g
           id="g840"
           transform="translate(704.8184,44.1318)"><path
             d="m 0,0 v 0.853 h 4.178 v 30.08 c -0.074,0 -0.175,0.008 -0.312,0.023 -0.146,0.014 -0.256,0.023 -0.345,0.023 -2.407,0 -4.228,-0.981 -5.475,-2.939 -1.242,-1.958 -2.007,-5.074 -2.29,-9.354 H -4.728 V 31.785 H 16.969 V 18.686 H 16.46 c -0.407,4.671 -1.231,7.88 -2.47,9.626 -1.234,1.748 -3.266,2.621 -6.102,2.621 H 7.808 V 0.853 h 4.199 V 0 Z"
             style="fill:#4fa1d9;fill-opacity:1;fill-rule:nonzero;stroke:none"
             id="path842"
             inkscape:connector-curvature="0" /></g><g
           id="g844"
           transform="translate(732.085,44.9844)"><path
             d="M 0,0 H 4.201 V -0.853 H -7.828 V 0 h 4.199 v 30.081 h -4.199 v 0.851 H 4.201 V 30.081 H 0 Z"
             style="fill:#4fa1d9;fill-opacity:1;fill-rule:nonzero;stroke:none"
             id="path846"
             inkscape:connector-curvature="0" /></g><g
           id="g848"
           transform="translate(750.1562,44.4355)"><path
             d="m 0,0 c 1.105,0 2.121,0.339 3.034,1.02 0.915,0.676 1.703,1.666 2.364,2.978 0.433,0.856 0.746,2 0.93,3.436 0.184,1.435 0.276,4.145 0.276,8.132 0,4.41 -0.141,7.409 -0.423,8.995 -0.282,1.587 -0.765,2.867 -1.434,3.842 -0.606,0.873 -1.328,1.553 -2.165,2.04 -0.837,0.489 -1.703,0.734 -2.582,0.734 -0.921,0 -1.797,-0.245 -2.642,-0.734 -0.844,-0.487 -1.561,-1.167 -2.155,-2.04 -0.688,-1.004 -1.172,-2.294 -1.441,-3.865 -0.277,-1.57 -0.415,-4.562 -0.415,-8.972 v -1.025 c 0,-3.437 0.09,-5.838 0.277,-7.207 0.181,-1.367 0.491,-2.48 0.928,-3.336 C -4.787,2.686 -3.995,1.696 -3.072,1.02 -2.151,0.339 -1.128,0 0,0 m 0,31.985 c 1.191,0 2.355,-0.3 3.479,-0.896 1.124,-0.598 2.142,-1.449 3.041,-2.555 1.376,-1.719 2.424,-3.716 3.134,-5.993 0.712,-2.276 1.065,-4.762 1.065,-7.456 0,-2.356 -0.282,-4.509 -0.843,-6.451 C 9.311,6.69 8.466,4.935 7.341,3.363 6.387,2.038 5.26,1.004 3.965,0.261 2.666,-0.48 1.346,-0.854 0,-0.854 c -1.365,0 -2.706,0.374 -4.007,1.115 -1.299,0.743 -2.426,1.777 -3.384,3.102 -1.121,1.572 -1.971,3.327 -2.527,5.271 -0.568,1.942 -0.851,4.095 -0.851,6.451 0,1.805 0.17,3.541 0.505,5.207 0.346,1.667 0.833,3.221 1.483,4.662 1.04,2.255 2.319,3.993 3.839,5.205 1.52,1.216 3.165,1.826 4.942,1.826"
             style="fill:#4fa1d9;fill-opacity:1;fill-rule:nonzero;stroke:none"
             id="path850"
             inkscape:connector-curvature="0" /></g><g
           id="g852"
           transform="translate(769.002,72.3804)"><path
             d="m 0,0 v -21.375 c 0,-2.022 0.314,-3.532 0.944,-4.53 0.636,-0.993 1.604,-1.491 2.897,-1.491 h 0.696 v -0.853 H -5.32 v 0.853 h 0.743 c 1.289,0 2.243,0.473 2.844,1.429 0.604,0.952 0.909,2.454 0.909,4.506 V 0.764 C -1.109,1.476 -1.489,1.978 -1.976,2.259 -2.459,2.544 -3.218,2.685 -4.243,2.685 H -5.32 v 0.851 h 7.514 l 12.111,-24.1 v 17.18 c 0,2.023 -0.323,3.54 -0.971,4.552 -0.643,1.011 -1.615,1.517 -2.91,1.517 H 9.728 v 0.851 h 9.901 V 2.685 h -0.783 c -1.283,0 -2.23,-0.484 -2.838,-1.452 -0.615,-0.968 -0.917,-2.464 -0.917,-4.486 v -25.545 h -0.612 z"
             style="fill:#4fa1d9;fill-opacity:1;fill-rule:nonzero;stroke:none"
             id="path854"
             inkscape:connector-curvature="0" /></g><g
           id="g856"
           transform="translate(794.5605,55.0898)"><path
             d="M 0,0 H 8.821 L 4.447,15.413 Z m -1.311,-4.434 c -0.117,-0.38 -0.197,-0.762 -0.251,-1.155 -0.057,-0.394 -0.084,-0.78 -0.084,-1.157 0,-1.08 0.269,-1.909 0.823,-2.492 0.546,-0.576 1.306,-0.867 2.28,-0.867 h 0.864 v -0.853 h -9.327 v 0.853 c 1.219,0.157 2.202,0.678 2.934,1.555 0.729,0.886 1.439,2.481 2.128,4.795 l 7.26,25.086 h 0.949 l 9.163,-31.436 h 2.761 v -0.853 H 8.086 v 0.853 h 3.626 L 9.075,-0.81 h -9.352 z"
             style="fill:#4fa1d9;fill-opacity:1;fill-rule:nonzero;stroke:none"
             id="path858"
             inkscape:connector-curvature="0" /></g><g
           id="g860"
           transform="translate(824.7197,75.9165)"><path
             d="m 0,0 v -0.852 h -4.201 v -30.08 h 3.797 c 2.855,0 5.079,1.073 6.659,3.228 1.582,2.155 2.65,5.543 3.194,10.174 h 0.488 v -14.255 h -21.965 v 0.853 h 4.197 v 30.08 h -4.197 V 0 Z"
             style="fill:#4fa1d9;fill-opacity:1;fill-rule:nonzero;stroke:none"
             id="path862"
             inkscape:connector-curvature="0" /></g></g></g></g></svg>