<?xml version="1.0" encoding="UTF-8" standalone="no"?>
<!-- Created with Inkscape (http://www.inkscape.org/) -->

<svg
   xmlns:dc="http://purl.org/dc/elements/1.1/"
   xmlns:cc="http://creativecommons.org/ns#"
   xmlns:rdf="http://www.w3.org/1999/02/22-rdf-syntax-ns#"
   xmlns:svg="http://www.w3.org/2000/svg"
   xmlns="http://www.w3.org/2000/svg"
   xmlns:sodipodi="http://sodipodi.sourceforge.net/DTD/sodipodi-0.dtd"
   xmlns:inkscape="http://www.inkscape.org/namespaces/inkscape"
   id="svg2985"
   version="1.1"
   inkscape:version="0.48.0 r9654"
   width="300"
   height="295"
   sodipodi:docname="Phillips66-Logo.svg">
  <metadata
     id="metadata2991">
    <rdf:RDF>
      <cc:Work
         rdf:about="">
        <dc:format>image/svg+xml</dc:format>
        <dc:type
           rdf:resource="http://purl.org/dc/dcmitype/StillImage" />
        <dc:title />
      </cc:Work>
    </rdf:RDF>
  </metadata>
  <defs
     id="defs2989" />
  <sodipodi:namedview
     pagecolor="#ffffff"
     bordercolor="#666666"
     borderopacity="1"
     objecttolerance="10"
     gridtolerance="10"
     guidetolerance="10"
     inkscape:pageopacity="0"
     inkscape:pageshadow="2"
     inkscape:window-width="1440"
     inkscape:window-height="850"
     id="namedview2987"
     showgrid="false"
     inkscape:zoom="0.37177947"
     inkscape:cx="146.33363"
     inkscape:cy="277.34414"
     inkscape:window-x="-8"
     inkscape:window-y="-8"
     inkscape:window-maximized="1"
     inkscape:current-layer="svg2985" />
  <path
     style="fill:#ffffff;stroke:#000000;stroke-width:8.80000019000000040;stroke-linecap:butt;stroke-linejoin:miter;stroke-miterlimit:4;stroke-opacity:1;stroke-dasharray:none"
     d="M 151.26852,7.085695 C 117.58663,40.388821 82.66686,21.381967 66.4984,10.193932 L 13.09323,63.033971 C 62.17014,107.27673 1.79982,170.20172 18.74457,216.75044 c 18.54208,59.36293 128.02927,33.72884 130.54598,70.92434"
     id="path2995"
     inkscape:connector-curvature="0"
     sodipodi:nodetypes="ccccc" />
  <path
     style="fill:#ffffff;stroke:#000000;stroke-width:8.80000019000000040;stroke-linecap:butt;stroke-linejoin:miter;stroke-miterlimit:4;stroke-opacity:1;stroke-dasharray:none"
     d="m 146.32359,7.2269788 c 33.68189,33.3031252 68.60166,14.2962722 84.77012,3.1082382 l 53.40517,52.840037 C 235.42197,107.41801 295.79229,170.343 278.84754,216.89172 260.30546,276.25465 150.81827,250.62056 148.30156,287.81606"
     id="path2995-7"
     inkscape:connector-curvature="0"
     sodipodi:nodetypes="ccccc" />
  <path
     style="fill:#cd2729;fill-opacity:1;stroke:none"
     d="m 146.53035,261.69036 c -6.64849,-5.76602 -15.24248,-8.39046 -45.79604,-13.98529 -30.54771,-5.59373 -44.52354,-10.75718 -54.93098,-20.29454 -8.55624,-7.84094 -13.12349,-19.10837 -13.12349,-32.37571 0,-9.10653 1.43638,-16.58679 7.16269,-37.30102 5.76808,-20.86533 7.36615,-28.76902 7.98041,-39.46855 l 0.3525,-6.14051 12.08009,-0.0107 c 25.85591,-0.023 173.20025,1.05928 180.99539,1.32946 l 8.24534,0.28579 0.34821,5.5889 c 0.61633,9.89167 2.3677,18.58076 7.28977,36.16614 6.03583,21.56457 7.83704,30.73135 7.84638,39.93188 0.0123,12.14445 -3.95328,22.57746 -11.60009,30.51839 -9.62522,9.99543 -24.53117,15.96362 -53.12297,21.26988 -27.46288,5.09676 -33.2747,6.44925 -40.34341,9.38848 -3.91179,1.62657 -8.27062,4.25404 -9.79544,5.90466 -0.51298,0.55528 -1.06971,1.00021 -1.23716,0.98873 -0.16746,-0.0114 -1.22551,-0.81965 -2.3512,-1.79593 z"
     id="path3799"
     inkscape:connector-curvature="0" />
  <path
     style="fill:#000000;stroke:#000000;stroke-width:0;stroke-linecap:butt;stroke-linejoin:miter;stroke-miterlimit:4;stroke-opacity:1;stroke-dasharray:none"
     d="m 146.6768,287.95735 1.76604,3.92061 1.83669,-3.92061 -3.00228,-0.28257 z"
     id="path3839"
     inkscape:connector-curvature="0"
     sodipodi:nodetypes="ccccc" />
  <g
     id="g3097"
     transform="translate(-1.3448817,3.3622119)">
    <text
       transform="scale(1.0193211,0.98104517)"
       style="font-size:11.05841732px;font-style:normal;font-weight:normal;text-align:start;text-anchor:start;fill:#000000;font-family:Calibri"
       y="59.400131"
       x="54.857693"
       xml:space="preserve"
       id="2"> </text>
    <path
       d="m 55.856341,48.75546 c 4.632886,0 9.273429,0 13.906314,0 3.024776,0 5.322074,1.272599 6.807661,3.854579 1.477929,2.58198 2.25901,6.23059 2.25901,10.98261 0,4.877073 -0.842343,8.687516 -2.458109,11.438686 -1.615767,2.751169 -4.150452,4.126754 -7.535139,4.126754 -1.523875,0 -3.04775,0 -4.579282,0 0,5.973126 0,11.953609 0,17.934093 -2.795046,0 -5.597751,0 -8.400455,0 0,-16.109789 0,-32.226933 0,-48.336722 z m 8.400455,20.604346 c 0.689189,0 1.370722,0 2.052253,0 1.608109,0 2.764416,-0.4855 3.400002,-1.51535 0.635586,-0.993069 0.980181,-2.273025 0.980181,-3.825155 0,-1.51535 -0.290991,-2.795306 -0.857658,-3.85458 -0.559009,-1.059273 -1.623425,-1.588911 -3.185587,-1.588911 -0.796398,0 -1.592794,0 -2.389191,0 0,3.597117 0,7.194235 0,10.783996 z"
       style="fill:#000000;fill-opacity:1;fill-rule:evenodd;stroke:none"
       id="3"
       inkscape:connector-curvature="0" />
    <path
       d="m 83.240139,48.75546 c 2.787389,0 5.574778,0 8.362167,0 0,5.634748 0,11.276851 0,16.911599 3.047749,0 6.095499,0 9.143244,0 0,-5.634748 0,-11.276851 0,-16.911599 2.79505,0 5.59775,0 8.40046,0 0,16.109789 0,32.226933 0,48.336722 -2.80271,0 -5.60541,0 -8.40046,0 0,-6.517476 0,-13.034952 0,-19.552428 -3.047745,0 -6.095495,0 -9.143244,0 0,6.517476 0,13.034952 0,19.552428 -2.787389,0 -5.574778,0 -8.362167,0 0,-16.109789 0,-32.226933 0,-48.336722"
       style="fill:#000000;fill-opacity:1;fill-rule:evenodd;stroke:none"
       id="4"
       inkscape:connector-curvature="0" />
    <path
       d="m 115.03475,48.75546 c 2.79505,0 5.59009,0 8.38514,0 0,16.109789 0,32.226933 0,48.336722 -2.79505,0 -5.59009,0 -8.38514,0 0,-16.109789 0,-32.226933 0,-48.336722"
       style="fill:#000000;fill-opacity:1;fill-rule:evenodd;stroke:none"
       id="5"
       inkscape:connector-curvature="0" />
    <path
       d="m 129.41584,48.75546 c 2.78739,0 5.57478,0 8.36982,0 0,12.144867 0,24.289736 0,36.434604 4.34955,0 8.6991,0 13.04866,0 0,3.964921 0,7.937197 0,11.902118 -7.13694,0 -14.27388,0 -21.41848,0 0,-16.109789 0,-32.226933 0,-48.336722"
       style="fill:#000000;fill-opacity:1;fill-rule:evenodd;stroke:none"
       id="6"
       inkscape:connector-curvature="0" />
    <path
       d="m 154.64018,48.75546 c 2.78738,0 5.57477,0 8.36216,0 0,12.144867 0,24.289736 0,36.434604 4.35721,0 8.70676,0 13.05632,0 0,3.964921 0,7.937197 0,11.902118 -7.13694,0 -14.28154,0 -21.41848,0 0,-16.109789 0,-32.226933 0,-48.336722"
       style="fill:#000000;fill-opacity:1;fill-rule:evenodd;stroke:none"
       id="7"
       inkscape:connector-curvature="0" />
    <path
       d="m 180.19379,48.75546 c 2.79505,0 5.5901,0 8.38514,0 0,16.109789 0,32.226933 0,48.336722 -2.79504,0 -5.59009,0 -8.38514,0 0,-16.109789 0,-32.226933 0,-48.336722"
       style="fill:#000000;fill-opacity:1;fill-rule:evenodd;stroke:none"
       id="8"
       inkscape:connector-curvature="0" />
    <path
       d="m 194.54425,48.75546 c 4.63289,0 9.26577,0 13.89866,0 3.03243,0 5.32207,1.272599 6.81532,3.854579 1.47026,2.58198 2.25135,6.23059 2.25135,10.98261 0,4.877073 -0.83469,8.687516 -2.45811,11.438686 -1.61577,2.751169 -4.15045,4.126754 -7.52748,4.126754 -1.53153,0 -3.05541,0 -4.57929,0 0,5.973126 0,11.953609 0,17.934093 -2.8027,0 -5.60541,0 -8.40045,0 0,-16.109789 0,-32.226933 0,-48.336722 z m 8.40045,20.604346 c 0.68154,0 1.36307,0 2.0446,0 1.60811,0 2.76442,-0.4855 3.4,-1.51535 0.63559,-0.993069 0.98019,-2.273025 0.98019,-3.825155 0,-1.51535 -0.291,-2.795306 -0.85001,-3.85458 -0.56666,-1.059273 -1.62342,-1.588911 -3.19324,-1.588911 -0.7964,0 -1.5928,0 -2.38154,0 0,3.597117 0,7.194235 0,10.783996 z"
       style="fill:#000000;fill-opacity:1;fill-rule:evenodd;stroke:none"
       id="9"
       inkscape:connector-curvature="0" />
    <path
       d="m 220.42715,81.10009 c 2.64955,-0.301598 5.30675,-0.588485 7.95631,-0.890084 0.16081,2.309805 0.52838,4.053193 1.05676,5.274301 0.84999,1.956714 2.08288,2.935071 3.69099,2.935071 1.20226,0 2.12883,-0.4855 2.77207,-1.51535 0.63559,-0.993069 0.95721,-2.140616 0.95721,-3.464708 0,-1.250532 -0.32162,-2.368654 -0.92658,-3.361724 -0.5973,-0.993069 -2.05225,-1.897865 -4.28063,-2.802661 -3.66036,-1.507994 -6.30226,-3.413216 -7.8491,-5.870142 -1.54685,-2.449571 -2.35857,-5.539119 -2.35857,-9.327494 0,-2.471639 0.42118,-4.847649 1.21757,-7.054469 0.78109,-2.221533 2.02163,-3.913429 3.63739,-5.215453 1.5928,-1.265243 3.82117,-1.875797 6.64686,-1.875797 3.4536,0 6.1108,1.132835 7.91802,3.427928 1.78423,2.324517 2.88693,5.965771 3.23153,10.982609 -2.62658,0.279531 -5.25315,0.536993 -7.88739,0.816523 -0.1991,-2.170039 -0.6509,-3.744238 -1.30947,-4.744663 -0.6662,-0.993069 -1.6081,-1.485926 -2.78738,-1.485926 -0.97253,0 -1.7,0.360447 -2.19775,1.088698 -0.49009,0.765031 -0.73513,1.655115 -0.73513,2.707033 0,0.757675 0.20676,1.449145 0.60495,2.074411 0.38288,0.632622 1.34009,1.213752 2.81036,1.780169 3.64505,1.441789 6.2946,2.82473 7.86442,4.259163 1.55451,1.463857 2.7491,3.221957 3.4536,5.369929 0.70451,2.147972 1.07208,4.516626 1.07208,7.157455 0,3.096904 -0.49775,5.965771 -1.43964,8.577175 -0.94189,2.604048 -2.32027,4.560762 -4.02794,5.936346 -1.69999,1.360873 -3.89009,2.037631 -6.51666,2.037631 -4.5946,0 -7.81848,-1.566842 -9.56442,-4.744663 -1.74595,-3.185178 -2.77208,-7.186879 -3.00946,-12.071308"
       style="fill:#000000;fill-opacity:1;fill-rule:evenodd;stroke:none"
       id="10"
       inkscape:connector-curvature="0" />
  </g>
  <text
     id="2-6"
     xml:space="preserve"
     x="482.40826"
     y="139.55385"
     style="font-size:19.61331749px;font-style:normal;font-weight:normal;text-align:start;text-anchor:start;fill:#ffffff;font-family:Calibri"
     transform="matrix(0.97286324,0.02519206,-0.02385769,1.0272759,0,0)"> </text>
  <path
     sodipodi:nodetypes="cccscccsccsssccccscccccssccsccc"
     inkscape:connector-curvature="0"
     id="3-6"
     style="fill:#ffffff;fill-opacity:1;fill-rule:evenodd;stroke:none"
     d="m 147.01258,154.33313 c -8.69238,-0.38158 -15.68513,-0.61803 -24.36454,-0.79946 0.56059,-3.47415 0.46987,-4.7364 0.15482,-6.42762 -0.52431,-3.00611 -3.72071,-4.96908 -6.46276,-4.42218 -3.94684,0.7872 -6.54888,3.49952 -9.99019,8.14046 -1.96212,3.09967 -3.39255,5.76395 -7.570358,15.31457 4.011148,-2.93332 5.727308,-2.63695 9.352898,-4.04798 3.61104,-1.343 7.12971,-1.95296 11.21296,-1.84722 7.98501,0.20677 14.07687,4.19911 16.8829,10.63274 2.81931,6.3204 1.23534,17.52743 0.52467,21.17786 -0.62175,3.90999 -4.65146,12.55543 -9.16077,17.39119 -4.50929,4.83577 -9.31314,8.68507 -15.14091,11.09251 -5.82778,2.40745 -12.11988,3.47914 -19.547514,3.2868 -8.94425,-0.23161 -15.772262,-4.49194 -20.003797,-7.70711 -4.283388,-3.21651 -6.892817,-7.74124 -7.630378,-14.51877 -0.803961,-6.71084 -0.345203,-17.93089 3.555474,-28.95256 5.770351,-16.13101 11.641511,-27.49312 21.061418,-34.89689 9.419589,-7.3901 17.240087,-10.14972 29.230557,-9.83923 7.12948,0.18462 15.86351,3.78542 18.88479,5.71483 2.31771,1.64368 5.01861,4.59399 6.56464,7.83539 1.53276,3.25473 2.74007,8.03719 2.44619,12.87267 z m -57.319812,36.48961 c -1.733051,4.81189 -2.73658,10.78042 -1.310326,13.5946 1.4392,2.81452 2.944421,4.96898 6.461368,4.56571 3.627311,-0.41593 6.43703,-2.61259 9.12423,-5.50004 2.47994,-2.66474 3.98942,-5.43971 5.72533,-10.37466 1.09099,-5.8422 1.67439,-9.27962 1.0483,-12.36767 -0.46178,-2.67443 -1.95798,-5.9816 -5.32577,-6.36092 -3.73823,-0.42105 -6.122356,2.08103 -8.78506,4.89566 -2.663021,2.82831 -5.271406,6.80212 -6.938072,11.54732 z" />
  <text
     id="2-6-3"
     xml:space="preserve"
     x="573.07574"
     y="138.09305"
     style="font-size:19.61331749px;font-style:normal;font-weight:normal;text-align:start;text-anchor:start;fill:#ffffff;font-family:Calibri"
     transform="matrix(0.97286324,0.02519206,-0.02385769,1.0272759,0,0)"> </text>
  <path
     sodipodi:nodetypes="cccscccsccsssccccscccccssccsccc"
     inkscape:connector-curvature="0"
     id="3-6-8"
     style="fill:#ffffff;fill-opacity:1;fill-rule:evenodd;stroke:none"
     d="m 235.25452,155.11659 c -8.69238,-0.38158 -15.68513,-0.61803 -24.36454,-0.79946 0.56059,-3.47415 0.46987,-4.7364 0.15482,-6.42762 -0.52431,-3.00611 -3.72071,-4.96908 -6.46276,-4.42218 -3.94684,0.7872 -6.54888,3.49952 -9.99019,8.14046 -1.96212,3.09967 -3.39255,5.76395 -7.57036,15.31457 4.01115,-2.93332 5.72731,-2.63695 9.3529,-4.04798 3.61104,-1.343 7.12971,-1.95296 11.21296,-1.84722 7.98501,0.20677 14.07687,4.19911 16.8829,10.63274 2.81931,6.3204 1.23534,17.52743 0.52467,21.17786 -0.62175,3.90999 -4.65146,12.55543 -9.16077,17.39119 -4.50929,4.83577 -9.31314,8.68507 -15.14091,11.09251 -5.82778,2.40745 -12.11988,3.47914 -19.54751,3.2868 -8.94425,-0.23161 -15.77227,-4.49194 -20.0038,-7.70711 -4.28339,-3.21651 -6.89282,-7.74124 -7.63038,-14.51877 -0.80396,-6.71084 -0.3452,-17.93089 3.55548,-28.95256 5.77035,-16.13101 11.64151,-27.49312 21.06141,-34.89689 9.41959,-7.3901 17.24009,-10.14972 29.23056,-9.83923 7.12948,0.18462 15.86351,3.78542 18.88479,5.71483 2.31771,1.64368 5.01861,4.59399 6.56464,7.83539 1.53276,3.25473 2.74007,8.03719 2.44619,12.87267 z m -57.31981,36.48961 c -1.73305,4.81189 -2.73658,10.78042 -1.31033,13.5946 1.4392,2.81452 2.94442,4.96898 6.46137,4.56571 3.62731,-0.41593 6.43703,-2.61259 9.12423,-5.50004 2.47994,-2.66474 3.98942,-5.43971 5.72533,-10.37466 1.09099,-5.8422 1.67439,-9.27962 1.0483,-12.36767 -0.46178,-2.67443 -1.95798,-5.9816 -5.32577,-6.36092 -3.73823,-0.42105 -6.12236,2.08103 -8.78506,4.89566 -2.66302,2.82831 -5.27141,6.80212 -6.93807,11.54732 z" />
  <path
     sodipodi:type="arc"
     style="fill:#ffffff;fill-opacity:1;stroke:none"
     id="path3801-6-1"
     sodipodi:cx="-267.63892"
     sodipodi:cy="279.41519"
     sodipodi:rx="16.084309"
     sodipodi:ry="15.784601"
     d="m -251.55461,279.41519 a 16.084309,15.784601 0 1 1 -32.16861,0 16.084309,15.784601 0 1 1 32.16861,0 z"
     transform="matrix(1.3975156,0,0,1.5253165,500.47241,-127.83032)" />
  <path
     sodipodi:type="arc"
     style="fill:#ffffff;fill-opacity:1;stroke:none"
     id="path3801-6"
     sodipodi:cx="-267.63892"
     sodipodi:cy="279.41519"
     sodipodi:rx="16.084309"
     sodipodi:ry="15.784601"
     d="m -251.55461,279.41519 a 16.084309,15.784601 0 1 1 -32.16861,0 16.084309,15.784601 0 1 1 32.16861,0 z"
     transform="matrix(1.3975156,0,0,1.5253165,544.22971,-127.03109)" />
  <path
     style="fill:#000000;stroke:#000000;stroke-width:0;stroke-linecap:butt;stroke-linejoin:miter;stroke-miterlimit:4;stroke-opacity:1;stroke-dasharray:none"
     d="m 146.3329,17.185233 2.69698,-2.08907 -2.26949,-3.908567 -1.42894,0.378248 -0.21014,3.110043 0.82314,2.608698"
     id="path3108"
     inkscape:connector-curvature="0"
     sodipodi:nodetypes="cccccc" />
</svg>
