<?xml version="1.0" encoding="utf-8"?>
<!-- Generator: Adobe Illustrator 12.0.0, SVG Export Plug-In  -->
<!DOCTYPE svg PUBLIC "-//W3C//DTD SVG 1.1//EN" "http://www.w3.org/Graphics/SVG/1.1/DTD/svg11.dtd" [
	<!ENTITY ns_flows "http://ns.adobe.com/Flows/1.0/">
	<!ENTITY ns_svg "http://www.w3.org/2000/svg">
	<!ENTITY ns_xlink "http://www.w3.org/1999/xlink">
]>
<svg  version="1.1" xmlns="&ns_svg;" xmlns:xlink="&ns_xlink;" xmlns:a="http://ns.adobe.com/AdobeSVGViewerExtensions/3.0/"
	 width="501" height="133" viewBox="-0.3779297 -0.0512695 501 133" enable-background="new -0.3779297 -0.0512695 501 133"
	 xml:space="preserve">
<defs>
</defs>
<polygon opacity="0" fill-rule="evenodd" clip-rule="evenodd" fill="#FFFFFF" points="0,0 500,0 500,132.652832 0,132.652832 0,0 
	"/>
<path fill-rule="evenodd" clip-rule="evenodd" fill="#474747" d="M444.671875,83.2641602h17.5234375v6.6914063h0.1494141
	c2.2177734-5.3857422,7.3291016-7.5234375,12.5585938-7.5332031c9.8681641,0,13.4775391,5.1621094,13.4775391,12.5263672v26.7451172
	h-18.5576172V99.5327148c0-2.2177734,0-5.2470703-3.2607422-5.2470703c-3.3330078,0-3.3330078,3.0292969-3.3330078,5.2470703
	v22.1611328H444.671875V83.2641602L444.671875,83.2641602z M11.3686523,121.6938477h19.6708984l3.1674805-11.1152344h16.6503906
	l3.3930664,11.1152344h20.7021484L56.6069336,70.2602539H29.4204102L11.3686523,121.6938477L11.3686523,121.6938477z
	 M42.6459961,81.2866211h0.1484375l5.6049805,16.9550781H36.9711914L42.6459961,81.2866211L42.6459961,81.2866211z
	 M119.4433594,121.6938477h-17.5273438v-6.5966797h-0.1455078c-2.2172852,5.3818359-7.3330078,7.5234375-12.5595703,7.4345703
	c-9.8676758,0-13.4750977-5.1572266-13.4750977-12.5214844V83.2641602h18.5585938v22.1621094
	c0,2.2177734,0,5.2519531,3.2548828,5.2519531c3.3369141,0,3.3369141-3.0341797,3.3369141-5.2519531V83.2641602h18.5571289
	V121.6938477L119.4433594,121.6938477z M158.6889648,101.7797852L158.6889648,101.7797852
	c0,13.2675781,8.2597656,20.7617188,23.7885742,20.7617188c15.449707,0,23.8583984-7.4941406,23.8583984-20.7617188
	c0-12.9003906-8.4086914-19.3671875-23.8583984-19.3671875C166.9487305,82.4125977,158.6889648,88.8793945,158.6889648,101.7797852
	L158.6889648,101.7797852z M178.4506836,101.7797852c0-4.5791016,0.4418945-8.3457031,4.0268555-8.3457031
	c3.5810547,0,4.0932617,3.7666016,4.0932617,8.3457031c0,5.6103516-0.512207,9.7402344-4.0932617,9.7402344
	C178.8925781,111.5200195,178.4506836,107.3901367,178.4506836,101.7797852L178.4506836,101.7797852z M210.9638672,83.2641602
	h17.5229492v6.6914063h0.1494141c2.2172852-5.3857422,7.3271484-7.5234375,13.1474609-7.5332031
	c5.1557617,0,10.5297852,1.9931641,12.0053711,6.5673828h0.1416016c1.2587891-4.4248047,7.7753906-6.5673828,12.3398438-6.5673828
	c13.5517578,0,13.5517578,8.7744141,13.5517578,16.2226563v23.0488281h-18.5595703V99.5327148
	c0-2.2177734,0-5.2470703-3.3310547-5.2470703c-3.2607422,0-3.2607422,3.0292969-3.2607422,5.2470703v22.1611328h-18.5571289
	V99.5327148c0-2.2177734,0-5.2470703-3.262207-5.2470703c-3.3320313,0-3.3320313,3.0292969-3.3320313,5.2470703v22.1611328
	h-18.5556641V83.2641602L210.9638672,83.2641602z M310.671875,116.1391602
	c-2.5810547,4.3496094-7.2998047,6.4072266-12.5117188,6.4023438c-7.1523438,0-14.0830078-3.2333984-14.0830078-11.2402344
	c0-11.7539063,10.6152344-14.1005859,19.8232422-14.1005859c2.578125,0,5.5175781,0.3730469,7.2119141,0.5175781
	c-0.0742188-5.0019531-5.1494141-5.5996094-9.7851563-5.5996094c-4.421875,0-9.140625,1.4199219-12.828125,3.2880859V84.6196289
	c5.5283203-1.5439453,8.8447266-2.2070313,16.0634766-2.2070313c10.6035156,0,23.5029297,1.9082031,23.5029297,15.96875v23.3076172
	h-17.25v-5.5498047H310.671875L310.671875,116.1391602z M311.1123047,106.0092773
	c0,3.3085938-1.9130859,6.8359375-5.7392578,6.8359375c-2.8681641,0-4.3427734-1.0263672-4.3427734-3.6767578
	c0-3.9658203,4.4169922-4.3349609,8.2412109-4.3349609h1.8408203V106.0092773L311.1123047,106.0092773z M369.6464844,121.6938477
	V83.3442383h18.5595703v38.3496094H369.6464844L369.6464844,121.6938477z M369.6464844,78.7905273v-8.4951172h18.5595703v8.4951172
	H369.6464844L369.6464844,78.7905273z M392.2070313,101.7797852c0,13.2675781,8.2636719,20.7617188,23.7910156,20.7617188
	c15.4511719,0,23.8564453-7.4941406,23.8564453-20.7617188c0-12.9003906-8.4052734-19.3671875-23.8564453-19.3671875
	C400.4707031,82.4125977,392.2070313,88.8793945,392.2070313,101.7797852L392.2070313,101.7797852z M411.9746094,101.7797852
	c0-4.5791016,0.4365234-8.3457031,4.0234375-8.3457031c3.5830078,0,4.0927734,3.7666016,4.0927734,8.3457031
	c0,5.6103516-0.5097656,9.7402344-4.0927734,9.7402344C412.4111328,111.5200195,411.9746094,107.3901367,411.9746094,101.7797852
	L411.9746094,101.7797852z M365.2373047,83.2143555H357.25V70.2749023h-18.5898438v12.9394531h-7.9023438v10.7919922h7.9023438
	v27.6875H357.25v-27.6875h7.9873047V83.2143555L365.2373047,83.2143555z M150.015625,70.2749023h-18.5893555v13.0195313h-7.9008789
	v10.7119141h7.9008789v27.6875h18.5893555v-27.6875h7.9868164V83.2944336h-7.9868164V70.2749023L150.015625,70.2749023z"/>
<path fill-rule="evenodd" clip-rule="evenodd" fill="#C1131E" d="M470.8076172,60.7348633v-50.581543h17.8222656v50.581543
	H470.8076172L470.8076172,60.7348633z M173.9365234,37.184082v-0.1455078
	c7.2617188-1.7412109,12.1220703-5.6650391,12.1220703-13.4375c0-9.7211914-7.4760742-13.4916992-19.5981445-13.4916992h-31.3759766
	v50.6254883h19.4526367V43.4907227h4.3359375c2.3857422,0,4.3374023,0.2915039,5.4946289,2.6196289
	c1.5893555,3.0532227,1.8046875,10.9848633,2.6767578,14.6245117h20.2490234
	c-2.0332031-4.9287109-1.8164063-12.7524414-4.7885742-18.1186523
	C180.6865234,39.9384766,178.1503906,37.9091797,173.9365234,37.184082L173.9365234,37.184082z M173.9365234,37.184082v-0.1455078
	V37.184082L173.9365234,37.184082z M153.6665039,21.4223633h5.3500977c3.9047852,0,7.5893555,0.6523438,7.5893555,5.2290039
	c0,5.0883789-3.9023438,5.5268555-7.8745117,5.5268555h-5.0649414V21.4223633L153.6665039,21.4223633z M187.8066406,41.1303711
	c0,13.0615234,8.1274414,20.4355469,23.409668,20.4355469c15.206543,0,23.4838867-7.3740234,23.4838867-20.4355469
	c0-12.6938477-8.2773438-19.0605469-23.4838867-19.0605469C195.934082,22.0698242,187.8066406,28.4365234,187.8066406,41.1303711
	L187.8066406,41.1303711z M207.2578125,41.1303711c0-4.5029297,0.4311523-8.2099609,3.9584961-8.2099609
	c3.5253906,0,4.0307617,3.7070313,4.0307617,8.2099609c0,5.5195313-0.5053711,9.5898438-4.0307617,9.5898438
	C207.6889648,50.7202148,207.2578125,46.6499023,207.2578125,41.1303711L207.2578125,41.1303711z M274.5107422,59.6865234
	c-4.0625,1.300293-8.1230469,1.8793945-13.5644531,1.8793945c-15.3144531,0-23.4448242-7.3740234-23.4448242-20.4355469
	c0-12.6938477,8.1303711-19.0605469,23.4448242-19.0605469c5.4414063,0,9.5019531,0.5073242,13.2783203,1.578125V34.809082
	c-2.2490234-1.0214844-4.9375-1.8886719-8.2011719-1.8886719c-5.4404297,0-9.0703125,2.831543-9.0703125,8.4975586
	c0,5.8867188,3.6298828,9.3022461,9.0703125,9.3022461c3.2636719,0,5.9521484-0.7260742,8.4873047-2.2529297V59.6865234
	L274.5107422,59.6865234z M297.4355469,39.5957031h0.1445313l8.9638672-16.690918h19.9365234l-10.5449219,16.690918
	l12.5380859,21.1391602h-20.5947266l-10.2988281-21.1391602H297.4355469v21.1391602h-18.265625V10.1494141h18.265625V39.5957031
	L297.4355469,39.5957031z M348.1865234,47.6699219h0.1445313L352.25,22.9047852h21.9824219l4.2080078,24.7651367h0.1464844
	l3.3212891-24.7651367h16.6865234l-8.4726563,37.8300781h-22.7802734l-4.4990234-25.6855469h-0.1445313l-4.6708984,25.6855469
	h-22.9248047l-8.4746094-37.8300781h17.9189453L348.1865234,47.6699219L348.1865234,47.6699219z M439.8916016,59.3984375
	c-4.8681641,1.5185547-10.6748047,2.1674805-17.0898438,2.1674805c-15.3232422,0-23.4345703-7.3740234-23.4345703-20.4643555
	c0-12.6401367,8.1113281-19.0268555,23.4345703-19.0268555c14.6933594,0,19.8496094,9.1416016,19.8496094,21.8569336v2.2446289
	h-25.3183594c0.2890625,4.7485352,4.7412109,5.8447266,10.1347656,5.8447266c5.0146484,0,9.5185547-0.878418,12.4238281-2.4130859
	V59.3984375L439.8916016,59.3984375z M417.2587891,38.2045898c-0.2167969-2.9560547,0.7294922-7.4213867,4.9599609-7.4213867
	c4.1601563,0,4.5966797,4.5390625,4.5966797,7.4213867H417.2587891L417.2587891,38.2045898z M447.390625,60.7348633v-50.581543
	h17.8242188v50.581543H447.390625L447.390625,60.7348633z"/>
</svg>
