<?xml version="1.0" encoding="UTF-8" standalone="no"?>
<!-- Created with Inkscape (http://www.inkscape.org/) -->

<svg
   xmlns:dc="http://purl.org/dc/elements/1.1/"
   xmlns:cc="http://creativecommons.org/ns#"
   xmlns:rdf="http://www.w3.org/1999/02/22-rdf-syntax-ns#"
   xmlns:svg="http://www.w3.org/2000/svg"
   xmlns="http://www.w3.org/2000/svg"
   xmlns:sodipodi="http://sodipodi.sourceforge.net/DTD/sodipodi-0.dtd"
   xmlns:inkscape="http://www.inkscape.org/namespaces/inkscape"
   id="svg2"
   version="1.1"
   inkscape:version="0.48.0 r9654"
   width="119.7663"
   height="169.91875"
   xml:space="preserve"
   sodipodi:docname="CorporateSustainability_English.pdf"><metadata
     id="metadata8"><rdf:RDF><cc:Work
         rdf:about=""><dc:format>image/svg+xml</dc:format><dc:type
           rdf:resource="http://purl.org/dc/dcmitype/StillImage" /><dc:title></dc:title></cc:Work></rdf:RDF></metadata><defs
     id="defs6"><clipPath
       clipPathUnits="userSpaceOnUse"
       id="clipPath16"><path
         d="M 0,0 792,0 792,450 0,450 0,0 z"
         id="path18"
         inkscape:connector-curvature="0" /></clipPath><clipPath
       clipPathUnits="userSpaceOnUse"
       id="clipPath30"><path
         d="M 0,0 792,0 792,612 0,612 0,0 z"
         id="path32"
         inkscape:connector-curvature="0" /></clipPath><clipPath
       clipPathUnits="userSpaceOnUse"
       id="clipPath58"><path
         d="m 662.5,468.615 93,0 0,114.415 -93,0 0,-114.415 z"
         id="path60"
         inkscape:connector-curvature="0" /></clipPath><clipPath
       clipPathUnits="userSpaceOnUse"
       id="clipPath68"><path
         d="m 662.5,468 93.5,0 0,115.03 -93.5,0 0,-115.03 z"
         id="path70"
         inkscape:connector-curvature="0" /></clipPath><clipPath
       clipPathUnits="userSpaceOnUse"
       id="clipPath80"><path
         d="m 662.5,468.615 93,0 0,114.415 -93,0 0,-114.415 z"
         id="path82"
         inkscape:connector-curvature="0" /></clipPath><clipPath
       clipPathUnits="userSpaceOnUse"
       id="clipPath92"><path
         d="m 662.5,468 93.5,0 0,115.03 -93.5,0 0,-115.03 z"
         id="path94"
         inkscape:connector-curvature="0" /></clipPath><clipPath
       clipPathUnits="userSpaceOnUse"
       id="clipPath104"><path
         d="m 662.5,468.615 93,0 0,114.415 -93,0 0,-114.415 z"
         id="path106"
         inkscape:connector-curvature="0" /></clipPath><clipPath
       clipPathUnits="userSpaceOnUse"
       id="clipPath116"><path
         d="m 662.5,468 93.5,0 0,115.03 -93.5,0 0,-115.03 z"
         id="path118"
         inkscape:connector-curvature="0" /></clipPath><clipPath
       clipPathUnits="userSpaceOnUse"
       id="clipPath238"><path
         d="m 354.073,385.109 90.094,0 0,130.291 -90.094,0 0,-130.291 z"
         id="path240"
         inkscape:connector-curvature="0" /></clipPath><clipPath
       clipPathUnits="userSpaceOnUse"
       id="clipPath250"><path
         d="m 351.094,379.465 95.813,0 0,135.935 -95.813,0 0,-135.935 z"
         id="path252"
         inkscape:connector-curvature="0" /></clipPath><clipPath
       clipPathUnits="userSpaceOnUse"
       id="clipPath262"><path
         d="m 354.073,385.109 90.094,0 0,130.291 -90.094,0 0,-130.291 z"
         id="path264"
         inkscape:connector-curvature="0" /></clipPath><clipPath
       clipPathUnits="userSpaceOnUse"
       id="clipPath274"><path
         d="m 351.094,379.465 95.813,0 0,135.935 -95.813,0 0,-135.935 z"
         id="path276"
         inkscape:connector-curvature="0" /></clipPath><clipPath
       clipPathUnits="userSpaceOnUse"
       id="clipPath286"><path
         d="m 354.073,385.109 90.094,0 0,130.291 -90.094,0 0,-130.291 z"
         id="path288"
         inkscape:connector-curvature="0" /></clipPath><clipPath
       clipPathUnits="userSpaceOnUse"
       id="clipPath298"><path
         d="m 351.094,379.465 95.813,0 0,135.935 -95.813,0 0,-135.935 z"
         id="path300"
         inkscape:connector-curvature="0" /></clipPath><clipPath
       clipPathUnits="userSpaceOnUse"
       id="clipPath310"><path
         d="m 354.073,385.109 90.094,0 0,130.291 -90.094,0 0,-130.291 z"
         id="path312"
         inkscape:connector-curvature="0" /></clipPath><clipPath
       clipPathUnits="userSpaceOnUse"
       id="clipPath322"><path
         d="m 351.094,379.465 95.813,0 0,135.935 -95.813,0 0,-135.935 z"
         id="path324"
         inkscape:connector-curvature="0" /></clipPath><clipPath
       clipPathUnits="userSpaceOnUse"
       id="clipPath334"><path
         d="m 354.073,385.109 90.094,0 0,130.291 -90.094,0 0,-130.291 z"
         id="path336"
         inkscape:connector-curvature="0" /></clipPath><clipPath
       clipPathUnits="userSpaceOnUse"
       id="clipPath346"><path
         d="m 351.094,379.465 95.813,0 0,135.935 -95.813,0 0,-135.935 z"
         id="path348"
         inkscape:connector-curvature="0" /></clipPath><clipPath
       clipPathUnits="userSpaceOnUse"
       id="clipPath358"><path
         d="m 354.073,385.109 90.094,0 0,130.291 -90.094,0 0,-130.291 z"
         id="path360"
         inkscape:connector-curvature="0" /></clipPath><clipPath
       clipPathUnits="userSpaceOnUse"
       id="clipPath370"><path
         d="m 351.094,379.465 95.813,0 0,135.935 -95.813,0 0,-135.935 z"
         id="path372"
         inkscape:connector-curvature="0" /></clipPath><clipPath
       clipPathUnits="userSpaceOnUse"
       id="clipPath382"><path
         d="m 354.073,385.109 90.094,0 0,130.291 -90.094,0 0,-130.291 z"
         id="path384"
         inkscape:connector-curvature="0" /></clipPath></defs><sodipodi:namedview
     pagecolor="#ffffff"
     bordercolor="#666666"
     borderopacity="1"
     objecttolerance="10"
     gridtolerance="10"
     guidetolerance="10"
     inkscape:pageopacity="0"
     inkscape:pageshadow="2"
     inkscape:window-width="1440"
     inkscape:window-height="844"
     id="namedview4"
     showgrid="false"
     fit-margin-top="0"
     fit-margin-left="0"
     fit-margin-right="0"
     fit-margin-bottom="0"
     inkscape:zoom="1"
     inkscape:cx="59.883148"
     inkscape:cy="84.959373"
     inkscape:window-x="-4"
     inkscape:window-y="-4"
     inkscape:window-maximized="1"
     inkscape:current-layer="g10" /><g
     id="g10"
     inkscape:groupmode="layer"
     inkscape:label="CorporateSustainability_English"
     transform="matrix(1.25,0,0,-1.25,-1161.6907,676.2462)"><path
       id="path172"
       style="fill:#0067b1;fill-opacity:1;fill-rule:nonzero;stroke:none"
       d="m 941.83606,448.58646 c -2.91,0 -6.309,-1.311 -6.309,-5.005 0,-2.406 1.681,-3.33 3.307,-4.224 1.332,-0.731 2.589,-1.422 2.589,-2.886 0,-1.926 -1.721,-2.788 -3.428,-2.788 -1.512,0 -2.928,0.568 -4.153,1.12 -0.075,-0.244 -0.739,-2.4 -0.808,-2.626 1.696,-0.595 3.301,-0.907 4.763,-0.907 2.098,0 6.978,0.54 6.978,5.541 0,2.608 -1.85,3.68 -3.482,4.627 -1.242,0.72 -2.415,1.4 -2.415,2.655 0,1.437 1.523,2.081 3.032,2.081 1.146,0 2.409,-0.313 3.504,-0.837 0.069,0.234 0.675,2.313 0.741,2.536 -1.225,0.467 -2.671,0.713 -4.319,0.713"
       inkscape:connector-curvature="0" /><path
       id="path176"
       style="fill:#0067b1;fill-opacity:1;fill-rule:nonzero;stroke:none"
       d="m 948.10026,445.01236 2.715,0 -1.144,-5.375 5.468,0 1.144,5.375 2.715,0 -2.831,-13.303 -2.715,0 1.241,5.832 -5.468,0 -1.241,-5.832 -2.715,0 2.831,13.303 z"
       inkscape:connector-curvature="0" /><path
       id="path184"
       style="fill:#0067b1;fill-opacity:1;fill-rule:nonzero;stroke:none"
       d="m 961.31196,445.01236 7.969,0 -0.407,-2.096 -5.294,0 -0.698,-3.279 4.732,0 -0.427,-2.096 -4.751,0 -0.794,-3.735 5.351,0 -0.465,-2.097 -8.067,0 2.851,13.303 z"
       inkscape:connector-curvature="0" /><path
       id="path192"
       style="fill:#0067b1;fill-opacity:1;fill-rule:nonzero;stroke:none"
       d="m 973.16456,439.33346 0.989,0 c 1.454,0 3.219,0.438 3.219,2.191 0,1.392 -1.222,1.392 -2.328,1.392 l -1.125,0 -0.755,-3.583 z m -1.551,5.679 3.199,0 c 2.502,0 5.391,0.037 5.391,-3.145 0,-2.286 -1.746,-3.506 -3.955,-3.544 l 0,-0.039 c 0.736,-0.037 1.201,-0.495 1.377,-1.22 l 1.298,-5.355 -2.851,0 -0.659,3.126 c -0.31,1.41 -0.233,2.401 -1.706,2.401 l -1.029,0 -1.182,-5.527 -2.714,0 2.831,13.303 z"
       inkscape:connector-curvature="0" /><path
       id="path200"
       style="fill:#0067b1;fill-opacity:1;fill-rule:nonzero;stroke:none"
       d="m 981.76476,445.01236 2.715,0 0.407,-10.196 0.039,0 4.499,10.196 3.645,0 0.058,-10.196 0.04,0 4.788,10.196 2.81304,0 -6.45904,-13.303 -3.394,0 -0.135,10.635 -0.038,0 -4.77,-10.635 -3.355,0 -0.853,13.303 z"
       inkscape:connector-curvature="0" /><path
       id="path208"
       style="fill:#0067b1;fill-opacity:1;fill-rule:nonzero;stroke:none"
       d="m 1002.2597,445.01236 2.832,0 -2.85,-13.303 -2.832,0 2.85,13.303 z"
       inkscape:connector-curvature="0" /><path
       id="path216"
       style="fill:#0067b1;fill-opacity:1;fill-rule:nonzero;stroke:none"
       d="m 1007.5942,445.01236 3.433,0 2.888,-10.101 0.04,0 2.211,10.101 2.56,0 -2.929,-13.303 -3.49,0 -2.831,10.196 -0.04,0 -2.151,-10.196 -2.599,0 2.908,13.303 z"
       inkscape:connector-curvature="0" /><path
       id="path224"
       style="fill:#0067b1;fill-opacity:1;fill-rule:nonzero;stroke:none"
       d="m 1020.6033,412.94796 c 0.215,0 0.36,0.036 0.36,0.276 0,0.213 -0.228,0.239 -0.405,0.239 l -0.317,0 0,-0.515 0.362,0 z m -0.81,0.859 0.785,0 c 0.532,0 0.834,-0.156 0.834,-0.624 0,-0.38 -0.231,-0.532 -0.553,-0.557 l 0.553,-0.906 -0.46,0 -0.497,0.885 -0.214,0 0,-0.885 -0.448,0 0,2.087 z m 0.754,-2.513 c 0.743,0 1.337,0.594 1.337,1.462 0,0.864 -0.594,1.462 -1.337,1.462 -0.754,0 -1.337,-0.598 -1.337,-1.462 0,-0.868 0.583,-1.462 1.337,-1.462 m 0,3.339 c 1.035,0 1.878,-0.842 1.878,-1.877 0,-1.036 -0.843,-1.878 -1.878,-1.878 -1.036,0 -1.877,0.842 -1.877,1.878 0,1.035 0.841,1.877 1.877,1.877"
       inkscape:connector-curvature="0" /><path
       id="path228"
       style="fill:#0067b1;fill-opacity:1;fill-rule:nonzero;stroke:none"
       d="m 945.88206,414.77656 -0.25,0.042 c 0,0 -0.067,12.715 -0.068,12.923 l -4.16,0 c -0.054,-0.13 -5.326,-12.963 -5.326,-12.963 l -0.251,0.036 c 0,0 -0.473,12.726 -0.481,12.927 l -3.014,0 c 0.013,-0.22 0.991,-16.589 1.003,-16.786 l 3.82,0 c 0.054,0.13 5.648,13.524 5.648,13.524 l 0.251,-0.04 c 0,0 0.157,-13.276 0.16,-13.484 l 3.863,0 c 0.056,0.123 7.454,16.493 7.586,16.786 l -3.11,0 c -0.056,-0.126 -5.671,-12.965 -5.671,-12.965"
       inkscape:connector-curvature="0" /><path
       id="path232"
       style="fill:#0067b1;fill-opacity:1;fill-rule:nonzero;stroke:none"
       d="m 954.64576,424.35746 2.637,0 -2.655,-13.304 -2.636,0 2.654,13.304 z"
       inkscape:connector-curvature="0" /><path
       id="path256"
       style="fill:#0067b1;fill-opacity:1;fill-rule:nonzero;stroke:none"
       d="m 959.62626,424.35746 2.528,0 -2.257,-11.208 4.946,0 -0.432,-2.096 -7.458,0 2.673,13.304 z"
       inkscape:connector-curvature="0" /><path
       id="path280"
       style="fill:#0067b1;fill-opacity:1;fill-rule:nonzero;stroke:none"
       d="m 968.65356,424.35746 2.528,0 -2.257,-11.208 4.947,0 -0.433,-2.096 -7.457,0 2.672,13.304 z"
       inkscape:connector-curvature="0" /><path
       id="path304"
       style="fill:#0067b1;fill-opacity:1;fill-rule:nonzero;stroke:none"
       d="m 977.55456,424.35746 2.636,0 -2.654,-13.304 -2.635,0 2.653,13.304 z"
       inkscape:connector-curvature="0" /><path
       id="path328"
       style="fill:#0067b1;fill-opacity:1;fill-rule:nonzero;stroke:none"
       d="m 984.37916,416.19996 3.9,0 -0.794,5.793 -0.073,0 -3.033,-5.793 z m 2.114,8.157 2.798,0 2.292,-13.304 -2.526,0 -0.435,3.051 -5.363,0 -1.606,-3.051 -2.799,0 7.639,13.304 z"
       inkscape:connector-curvature="0" /><path
       id="path352"
       style="fill:#0067b1;fill-opacity:1;fill-rule:nonzero;stroke:none"
       d="m 995.61616,424.35746 4.171,0 0.84804,-9.587 0.037,0 4.965,9.587 4.208,0 -2.691,-13.304 -2.673,0 2.383,11.016 -0.036,0 -5.705,-11.016 -2.42004,0 -1.011,11.016 -0.036,0 -2.31,-11.016 -2.403,0 2.673,13.304 z"
       inkscape:connector-curvature="0" /><path
       id="path376"
       style="fill:#0067b1;fill-opacity:1;fill-rule:nonzero;stroke:none"
       d="m 1018.227,421.80276 c -0.742,0.4 -1.697,0.686 -2.619,0.686 -0.901,0 -2.112,-0.381 -2.112,-1.524 0,-2.136 4.297,-2.001 4.297,-5.7 0,-3.258 -2.419,-4.439 -5.183,-4.439 -1.208,0 -2.454,0.304 -3.591,0.742 l 0.65,2.269 c 0.974,-0.476 2.003,-0.915 3.086,-0.915 1.211,0 2.402,0.648 2.402,2.077 0,2.402 -4.296,2.02 -4.296,5.566 0,2.801 2.274,4.02 4.693,4.02 1.103,0 2.239,-0.151 3.268,-0.59 l -0.595,-2.192 z"
       inkscape:connector-curvature="0" /><path
       id="path400"
       style="fill:#0067b1;fill-opacity:1;fill-rule:nonzero;stroke:none"
       d="m 969.00786,453.58876 -0.394,0.059 -0.381,0.126 -0.289,0.163 -0.322,0.276 -0.277,0.373 -0.188,0.39 -0.126,0.439 -0.054,0.315 0,0.519 0.096,0.947 0.285,1.741 0.486,2.359 0.36,1.868 0.121,0.858 -0.042,0.113 -0.242,0.113 -0.989,0.406 -1.394,0.666 -1.542,0.917 -0.942,0.628 -1.235,0.943 -0.737,0.666 -0.796,0.787 -0.612,0.666 -0.929,1.085 -0.201,0.263 -0.39,0.498 -0.942,1.324 -0.168,0.272 -0.339,0.516 -0.088,0.066 -0.029,-0.046 0.012,-0.326 0.097,-0.905 0.188,-1.24 0.494,-2.19 0.126,-0.854 0.021,-0.859 -0.029,-0.448 -0.088,-0.444 -0.151,-0.444 -0.151,-0.259 -0.213,-0.302 -0.302,-0.289 -0.322,-0.213 -0.306,-0.126 -0.306,-0.059 -0.377,0.008 -0.301,0.089 -0.268,0.138 -0.289,0.226 -0.214,0.222 -0.251,0.431 -0.189,0.524 -0.083,0.624 0,0.816 0.075,0.716 0.335,1.684 0.398,1.587 0.121,0.662 0.055,0.523 0.033,0.13 0.088,0.855 0.025,1.52 -0.05,1.017 -0.033,0.286 -0.034,0.502 -0.159,0.909 -0.059,0.331 -0.347,1.373 -0.323,1.349 -0.251,1.884 -0.088,1.37 0.012,1.043 0.013,0.15 0.004,0.604 0.03,0.716 0.029,0.188 0.038,0.578 0.184,1.37 0.239,1.273 0.264,1.114 0.389,1.302 0.314,0.93 0.578,1.424 0.565,1.202 0.679,1.231 0.414,0.687 0.754,1.131 0.867,1.143 0.691,0.829 0.159,0.164 0.227,0.251 0.871,0.879 0.197,0.176 0.795,0.717 1.127,0.879 0.502,0.356 0.578,0.402 0.046,0.08 -0.021,0.109 -0.209,0.381 -0.113,0.368 -0.084,0.574 0.013,0.427 0.134,0.574 0.201,0.461 0.326,0.54 0.31,0.394 0.633,0.586 0.322,0.23 0.055,0.088 -0.03,0.084 -0.247,0.205 -0.251,0.348 -0.126,0.272 -0.046,0.213 -0.012,0.403 0.071,0.364 0.176,0.431 0.188,0.302 0.289,0.326 0.251,0.227 0.465,0.301 0.444,0.189 0.657,0.188 0.675,0.109 0.49,0.012 0.498,0.021 0.038,0.046 -0.029,0.088 -0.147,0.214 -0.163,0.339 -0.075,0.314 -0.005,0.306 0.042,0.243 0.113,0.268 0.176,0.264 0.226,0.226 0.348,0.214 0.289,0.1 0.221,0.046 0.504,0 0.355,-0.071 0.57,-0.201 0.49,-0.264 0.322,-0.214 0.507,-0.427 0.36,-0.377 0.591,-0.774 0.339,-0.545 0.23,-0.427 0.071,-0.075 0.03,0.079 -0.026,0.411 -0.167,0.917 -0.176,1.315 -0.151,0.921 -0.213,0.834 -0.125,0.335 -0.147,0.218 -0.163,0.133 -0.202,0.168 -0.125,0.23 -0.063,0.306 -0.042,0.285 -0.113,0.167 -0.226,0.277 -0.352,0.389 -0.155,0.101 -0.151,0.012 -0.238,-0.067 -0.164,0.021 -0.167,0.113 -0.255,0.272 -0.101,0.042 -0.109,-0.029 -0.276,-0.226 -0.109,-0.042 -0.134,0.021 -0.172,0.113 -0.515,0.528 -0.779,1.026 -0.704,1.118 -0.327,0.616 -0.363,0.837 -0.432,1.177 -0.164,0.26 -0.515,0.603 -0.925,0.959 -1.047,1.089 -0.235,0.163 -0.188,0.063 -0.323,0.054 -0.155,0.088 -0.138,0.218 -0.1,0.352 -0.059,0.465 0.013,0.314 0.134,0.708 0.15,0.456 0.277,0.649 0.427,0.821 0.54,0.942 0.515,0.763 0.553,0.716 0.742,0.879 0.096,0.101 0.557,0.565 0.954,0.842 0.487,0.381 0.556,0.411 0.541,0.351 1.001,0.616 1.139,0.528 0.913,0.289 0.72,0.146 0.566,0.025 0.498,-0.071 0.344,-0.113 0.18,-0.126 0.087,-0.133 0.042,-0.269 -0.046,-0.305 0.033,-0.134 0.152,-0.197 0.901,-1.022 0.438,-0.465 0.972,-1.076 0.44,-0.453 0.235,-0.15 0.682,-0.256 0.653,-0.314 0.511,-0.301 0.829,-0.578 0.768,-0.616 0.995,-0.963 0.349,-0.44 0.071,-0.134 -0.009,-0.138 -0.075,-0.143 -0.209,-0.251 0.012,-0.121 0.125,-0.168 0.26,-0.356 0.071,-0.193 -0.02,-0.154 -0.122,-0.235 -0.013,-0.1 0.113,-0.181 0.415,-0.439 0.235,-0.201 0.247,-0.139 0.327,-0.054 0.166,-0.101 0.176,-0.267 0.077,-0.193 0.041,-0.26 -0.029,-0.306 -0.089,-0.322 -0.188,-0.499 -0.389,-0.766 -0.515,-0.875 -0.528,-0.767 -0.691,-0.917 -0.652,-0.754 -0.655,-0.716 -0.905,-0.867 -0.209,-0.167 -0.201,-0.184 -1.08,-0.855 -0.943,-0.67 -0.104,-0.146 -0.042,-0.172 -0.051,-3.644 -0.012,-0.766 -0.084,-2.103 0.017,-0.05 0.059,0 0.137,0.235 0.168,0.318 0.198,0.323 0.229,0.351 0.378,0.478 0.452,0.49 0.121,0.1 0.352,0.277 0.478,0.301 0.372,0.176 0.499,0.151 0.382,0.071 0.526,-0.033 0.286,-0.076 0.35,-0.163 0.273,-0.189 0.289,-0.314 0.151,-0.293 0.113,-0.343 0.021,-0.361 -0.071,-0.301 -0.101,-0.247 -0.171,-0.285 0,-0.042 0.066,-0.029 0.603,0 0.504,-0.096 0.51,-0.201 0.285,-0.176 0.305,-0.297 0.172,-0.26 0.163,-0.365 0.068,-0.31 0.012,-0.31 -0.067,-0.335 -0.124,-0.268 -0.198,-0.268 -0.29,-0.234 -0.276,-0.155 -0.029,-0.054 0.051,-0.055 0.352,-0.143 0.246,-0.133 0.437,-0.256 0.787,-0.59 0.615,-0.641 0.289,-0.427 0.201,-0.436 0.113,-0.41 0.042,-0.314 -0.013,-0.407 -0.078,-0.402 -0.165,-0.393 -0.21,-0.323 -0.028,-0.104 0.042,-0.084 2.018,-1.386 0.88,-0.679 0.519,-0.448 0.347,-0.281 0.943,-0.904 0.795,-0.888 0.538,-0.628 0.602,-0.754 0.552,-0.771 0.729,-1.13 1.005,-1.768 0.705,-1.558 0.355,-0.951 0.084,-0.242 0.168,-0.478 0.037,-0.167 0.31,-1.018 0.055,-0.23 0.222,-0.976 0.255,-1.642 0.138,-1.256 0.092,-1.466 -0.013,-1.583 -0.113,-2.148 -0.13,-1.215 -0.079,-0.524 -0.13,-0.762 -0.071,-0.482 -0.162,-1.009 -0.064,-0.846 0.003,-0.26 -0.008,-0.142 0.005,-1.675 0.058,-0.775 0.034,-0.368 -0.008,-0.109 0.033,-0.494 -0.02,-0.449 0.029,-0.138 -0.042,-0.126 -0.147,-1.302 -0.126,-0.729 -0.184,-0.854 -0.058,-0.193 -0.259,-0.917 -0.299,-0.896 -0.141,-0.432 -0.072,-0.071 -0.118,0 -0.082,0.084 -0.102,0.319 -0.18,1.038 -0.313,1.219 -0.701,2.467 -0.066,0.611 -0.03,0.05 -0.033,0 -0.084,-0.096 -0.292,-0.502 -0.801,-1.123 -0.808,-1.001 -0.423,-0.477 -1.136,-1.156 -0.335,-0.306 -0.803,-0.716 -0.654,-0.536 -0.942,-0.704 -1.194,-0.791 -1.055,-0.628 -1.092,-0.553 -1.253,-0.541 -1.182,-0.414 -1.176,-0.34 -0.939,-0.238 -1.402,-0.277 -1.507,-0.196 -1.233,-0.101 -1.933,0.013 -0.642,0.05 -0.351,0.012 -1.646,0.201 -1.688,0.349 -1.077,0.28 -0.054,-0.042 -0.021,-0.059 0.017,-0.334 0.042,-0.261 0.125,-0.808 0.779,-3.866 0.113,-0.733 0.101,-0.661 0.025,-0.997 -0.029,-0.469 -0.113,-0.499 -0.214,-0.472 -0.263,-0.327 -0.277,-0.251 -0.26,-0.151 -0.373,-0.113 -0.389,-0.034 z"
       inkscape:connector-curvature="0" /><path
       id="path404"
       style="fill:#ef4135;fill-opacity:1;fill-rule:nonzero;stroke:none"
       d="m 969.12116,454.59436 -0.289,0.009 -0.322,0.1 -0.235,0.15 -0.214,0.261 -0.163,0.347 -0.109,0.49 -0.025,0.389 0.087,0.98 0.147,0.879 0.143,0.73 0.02,0.188 0.223,1.11 0.247,1.441 0.034,0.238 0.096,0.432 0.193,1.088 0.033,0.042 0.037,-0.067 0.105,-0.695 0.164,-1.185 0.523,-2.702 0.067,-0.435 0.143,-0.888 0.07,-0.766 0.017,-0.616 -0.071,-0.548 -0.126,-0.377 -0.175,-0.26 -0.197,-0.176 -0.285,-0.126 -0.138,-0.033 z"
       inkscape:connector-curvature="0" /><path
       id="path408"
       style="fill:#0067b1;fill-opacity:1;fill-rule:nonzero;stroke:none"
       d="m 996.69946,456.08966 -0.448,0.059 -0.328,0.1 -0.283,0.175 -0.291,0.265 -0.225,0.347 -0.139,0.31 -0.086,0.361 -0.035,0.519 0.013,0.15 -0.013,0.113 0.076,0.717 0.246,1.21 0.29,1.08 0.158,0.524 0.219,0.779 0.461,1.575 0.363,1.65 0.181,1.063 0.05,0.093 0.076,0.037 0.071,-0.016 0.049,-0.08 0.047,-0.264 0.037,-0.528 0.063,-0.816 0.096,-0.721 0.039,-0.36 0.183,-1.097 0.067,-0.419 0.264,-1.239 0.373,-1.843 0.093,-0.884 0.016,-0.674 -0.041,-0.544 -0.106,-0.373 -0.175,-0.381 -0.189,-0.265 -0.213,-0.242 -0.222,-0.159 -0.285,-0.138 -0.289,-0.072 -0.163,-0.012 z"
       inkscape:connector-curvature="0" /><path
       id="path412"
       style="fill:#0067b1;fill-opacity:1;fill-rule:nonzero;stroke:none"
       d="m 959.25816,456.75566 -0.477,0.012 -0.403,0.097 -0.385,0.188 -0.251,0.201 -0.222,0.234 -0.226,0.365 -0.126,0.339 -0.105,0.402 -0.054,0.599 0.008,0.49 0.126,0.968 0.289,1.432 0.302,1.306 0.234,0.926 0.155,0.733 0.109,0.469 0.117,0.586 0.386,1.827 0.259,1.641 0.029,0.343 0.068,0.114 0.062,0.016 0.071,-0.029 0.038,-0.134 0.13,-1.047 0.264,-1.609 0.54,-2.567 0.251,-1.034 0.025,-0.134 0.109,-0.481 0.18,-0.939 0.118,-0.578 0.163,-1.168 0.038,-0.767 -0.025,-0.64 -0.097,-0.516 -0.163,-0.473 -0.138,-0.263 -0.226,-0.298 -0.147,-0.151 -0.075,-0.075 -0.415,-0.239 -0.331,-0.113 -0.205,-0.033 z"
       inkscape:connector-curvature="0" /><path
       id="path416"
       style="fill:#ef4135;fill-opacity:1;fill-rule:nonzero;stroke:none"
       d="m 996.68716,457.04416 -0.299,0.021 -0.184,0.075 -0.225,0.201 -0.126,0.193 -0.126,0.348 -0.054,0.31 -0.004,0.611 0.075,0.541 0.067,0.317 0.067,0.436 0.338,1.415 0.298,1.073 0.281,1.328 0.045,0.053 0.068,-0.246 0.114,-0.939 0.2,-1.52 0.113,-0.666 0.218,-1.642 0.012,-0.426 -0.012,-0.101 0,-0.176 -0.058,-0.331 -0.114,-0.318 -0.175,-0.272 -0.235,-0.176 -0.284,-0.109 z"
       inkscape:connector-curvature="0" /><path
       id="path420"
       style="fill:#ef4135;fill-opacity:1;fill-rule:nonzero;stroke:none"
       d="m 959.17006,457.74786 -0.276,0.008 -0.235,0.063 -0.234,0.138 -0.226,0.222 -0.164,0.264 -0.138,0.381 -0.059,0.256 -0.021,0.444 0.093,0.888 0.251,1.394 0.423,1.897 0.481,2.605 0.026,0.042 0.045,-0.113 0.143,-1.031 0.197,-0.937 0.054,-0.327 0.356,-1.596 0.122,-0.728 0.079,-0.427 0.113,-0.867 0.026,-0.804 -0.097,-0.687 -0.1,-0.302 -0.164,-0.31 -0.213,-0.239 -0.247,-0.163 -0.235,-0.071 z"
       inkscape:connector-curvature="0" /><path
       id="path424"
       style="fill:#ffffff;fill-opacity:1;fill-rule:nonzero;stroke:none"
       d="m 977.46356,463.42676 -0.231,0.033 -0.468,0.151 -0.147,0.101 -0.101,0.155 -0.067,0.222 -0.108,0.276 -0.113,0.096 -0.164,0.092 -0.1,0.13 -0.047,0.578 -0.024,0.553 -0.059,0.557 0.029,0.088 0.192,0.059 0.227,0.025 0.314,0 0.058,-0.033 -0.091,-0.252 0.013,-0.414 0.041,-0.114 0.213,-0.276 0.155,-0.084 0.177,-0.021 0.13,0.046 0.213,0.227 0.105,0.046 0.242,0.058 0.043,-0.021 0.008,-0.142 -0.004,-0.122 0.088,-0.226 0.092,-0.192 -0.021,-0.181 -0.016,-0.134 0.057,-0.209 0.147,-0.205 0.009,-0.138 -0.084,-0.235 -0.139,-0.222 -0.096,-0.113 -0.117,-0.063 -0.243,-0.067 -0.113,-0.029 z"
       inkscape:connector-curvature="0" /><path
       id="path428"
       style="fill:#ffffff;fill-opacity:1;fill-rule:nonzero;stroke:none"
       d="m 973.53056,463.43906 -0.18,0.009 -0.196,0.042 -0.202,0.02 -0.046,0.038 0.134,0.071 0.666,0.243 0.231,0.113 0.125,0.147 0.13,0.239 0.117,0.075 0.251,0.034 0.198,-0.009 0.025,-0.037 -0.017,-0.059 -0.08,-0.05 -0.272,-0.092 -0.071,-0.084 -0.08,-0.277 -0.096,-0.125 -0.637,-0.298 z"
       inkscape:connector-curvature="0" /><path
       id="path432"
       style="fill:#ffffff;fill-opacity:1;fill-rule:nonzero;stroke:none"
       d="m 975.05136,464.67086 -0.13,0.008 -0.034,0.143 -0.012,0.314 0.038,0.464 -0.017,0.256 0.012,0.151 0.059,0.276 0.042,0.138 0.067,0.034 0.326,0 0.08,-0.046 0.047,-0.155 0.087,-0.729 0.013,-0.603 -0.047,-0.096 -0.078,-0.046 -0.453,-0.109 z"
       inkscape:connector-curvature="0" /><path
       id="path436"
       style="fill:#ef4135;fill-opacity:1;fill-rule:nonzero;stroke:none"
       d="m 980.76826,465.51246 -0.227,0.021 -0.23,0.1 -0.226,0.214 -0.126,0.205 -0.176,0.452 -0.083,0.566 -0.008,0.498 0.071,0.934 0.171,0.88 0.08,0.276 0.02,0.13 0.067,0.297 0.172,0.708 0.063,0.277 0.293,1.377 0.096,0.587 0.034,0.008 0.046,-0.167 0.097,-0.616 0.163,-0.834 0.2,-0.841 0.135,-0.465 0.175,-0.687 0.168,-0.934 0.055,-0.662 -0.016,-0.85 -0.093,-0.469 -0.163,-0.41 -0.163,-0.26 -0.203,-0.176 -0.229,-0.113 -0.163,-0.046 z"
       inkscape:connector-curvature="0" /><path
       id="path440"
       style="fill:#ef4135;fill-opacity:1;fill-rule:nonzero;stroke:none"
       d="m 955.84066,466.04006 -0.222,0.009 -0.184,0.075 -0.264,0.201 -0.201,0.285 -0.126,0.289 -0.096,0.436 -0.038,0.477 0.013,0.615 0.134,0.971 0.364,1.722 0.205,0.963 0.034,0.222 0.105,0.696 0.046,0.406 0.042,0.209 0.075,0.88 0,1.495 -0.1,0.993 -0.235,1.461 -0.314,1.78 -0.151,0.842 -0.368,2.563 -0.076,1.131 0.055,2.446 0.318,2.437 0.251,1.239 0.252,0.989 0.389,1.244 0.452,1.239 0.704,1.592 0.716,1.336 0.942,1.503 0.616,0.854 0.804,0.993 0.88,0.968 0.942,0.942 1.005,0.854 0.787,0.591 0.829,0.565 0.327,0.205 0.076,0.101 0.104,0.012 0.13,0.046 0.168,-0.012 0.36,-0.08 0.402,0.013 0.326,0.071 0.361,0.151 0.36,0.226 0.339,0.276 0.155,0.147 0.097,-0.009 0.074,-0.108 0.155,-0.218 0.159,-0.151 0.26,-0.151 0.306,-0.113 0.134,-0.021 0.452,0.013 0.314,0.096 0.269,0.151 0.314,0.239 0.565,0.603 0.871,1.064 0.285,0.238 0.289,0.176 0.297,0.113 0.256,0.08 0.059,0.08 -0.022,0.092 -0.18,0.062 -0.176,0.009 -0.368,-0.059 -0.331,-0.126 -0.327,-0.188 -0.31,-0.251 -0.758,-0.788 -0.225,-0.251 -0.336,-0.264 -0.226,-0.088 -0.285,-0.021 -0.284,0.071 -0.159,0.101 -0.126,0.159 -0.092,0.281 -0.004,0.243 0.096,0.402 0.226,0.46 0.302,0.373 0.314,0.289 0.389,0.276 0.423,0.214 0.62,0.226 0.486,0.101 0.749,0.046 0.738,-0.084 0.506,-0.126 0.838,-0.339 0.377,-0.214 0.523,-0.414 0.139,-0.184 0.141,-0.214 0.068,-0.033 0.092,0.02 0.051,0.089 0.045,0.255 0,1.985 -0.074,1.646 -0.076,1.131 -0.046,0.406 -0.068,1.001 -0.058,0.519 -0.18,1.856 -0.159,1.055 -0.126,0.553 -0.188,0.586 -0.176,0.314 -0.272,0.323 -0.101,0.218 -0.021,0.079 0.008,0.293 0.164,0.637 0.326,0.774 0.427,0.755 0.616,0.925 0.615,0.804 0.754,0.842 1.005,1.018 0.378,0.339 0.478,0.439 0.837,0.679 1.009,0.741 1.101,0.691 0.712,0.377 0.478,0.214 0.43,0.125 0.362,0.021 0.192,-0.071 0.138,-0.168 0.033,-0.213 -0.083,-0.44 -0.276,-0.624 -0.83,-1.277 -0.401,-0.528 -0.211,-0.255 -0.456,-0.574 -0.888,-0.98 -0.909,-0.917 -1.444,-1.231 -0.863,-0.646 -0.415,-0.376 -0.162,-0.268 -0.089,-0.218 -0.021,-0.222 0.029,-2.949 0.043,-0.887 -0.01,-0.134 0.014,-0.226 -0.004,-2.007 -0.051,-2.588 -0.021,-0.293 -0.074,-1.709 -0.085,-1.478 0.041,-0.126 0.056,-0.046 0.108,0 0.65,0.461 0.314,0.163 0.498,0.201 0.406,0.101 0.222,0.033 0.553,-0.012 0.339,-0.084 0.272,-0.113 0.335,-0.214 0.226,-0.226 0.226,-0.36 0.093,-0.281 0.016,-0.293 -0.058,-0.356 -0.126,-0.289 -0.213,-0.251 -0.386,-0.251 -0.301,-0.118 -0.08,-0.083 0.042,-0.088 0.092,-0.063 0.227,-0.021 0.364,0.059 0.348,0.138 0.271,0.188 0.277,0.31 0.163,0.323 0.114,0.364 0.029,0.298 -0.042,0.364 -0.075,0.226 -0.151,0.297 -0.051,0.088 0.102,-0.012 0.414,-0.277 0.213,-0.159 0.477,-0.381 0.24,-0.222 0.703,-0.67 0.352,-0.339 0.57,-0.473 0.477,-0.315 0.355,-0.176 0.264,-0.071 0.391,-0.025 0.376,0.038 0.155,-0.059 0.766,-0.44 0.842,-0.54 1.232,-0.879 1.105,-0.93 0.213,-0.197 0.717,-0.683 0.125,-0.133 0.478,-0.495 0.716,-0.829 0.131,-0.184 0.208,-0.252 0.591,-0.779 0.117,-0.175 0.938,-1.395 0.352,-0.586 0.515,-0.997 0.356,-0.779 0.05,-0.142 0.311,-0.75 0.439,-1.24 0.389,-1.323 0.151,-0.59 0.198,-1.039 0.209,-1.412 0.1,-0.917 0.008,-0.171 0.03,-0.52 0.012,-0.373 -0.037,-0.125 0.062,-0.272 0.013,-1.705 -0.008,-0.599 -0.017,-0.775 -0.071,-0.594 -0.026,-0.503 -0.025,-0.1 -0.033,-0.44 -0.075,-0.624 -0.264,-1.629 -0.134,-1.412 -0.055,-0.385 0.008,-1.805 0.059,-1.843 -0.033,-0.82 -0.059,-0.528 -0.226,-1.193 -0.101,-0.269 -0.049,0.008 -0.06,0.122 -0.293,0.892 -0.31,0.846 -0.168,0.741 -0.099,0.993 0.033,1.893 -0.051,0.842 -0.196,1.415 -0.209,1.006 -0.076,0.289 -0.079,0.707 0.021,0.967 0.058,0.646 0.068,0.41 0.012,0.615 -0.059,0.428 -0.176,0.565 -0.15,0.323 -0.189,0.288 -0.264,0.273 -0.217,0.138 -0.252,0.088 -0.251,0.008 -0.26,-0.083 -0.247,-0.189 -0.227,-0.26 -0.15,-0.276 -0.214,-0.603 -0.1,-0.503 -0.13,-0.955 -0.189,-0.644 -0.146,-0.436 -0.188,-0.959 -0.042,-0.565 0.009,-0.444 0.049,-0.314 0.033,-0.339 0.122,-0.52 0.093,-0.385 0.07,-0.243 0.286,-1.303 0.059,-0.704 -0.022,-0.313 -0.109,-0.373 -0.159,-0.289 -0.164,-0.185 -0.196,-0.125 -0.113,-0.034 -0.192,0.009 -0.156,0.063 -0.171,0.125 -0.164,0.193 -0.138,0.251 -0.088,0.365 -0.021,0.44 0.033,0.435 0.088,0.62 0.39,1.725 0.184,0.729 0.096,0.649 0.022,0.545 -0.067,0.402 -0.139,0.444 -0.213,0.452 -0.365,0.573 -0.477,0.591 -0.502,0.452 -0.655,0.478 -0.874,0.532 -0.508,0.439 -0.284,0.314 -0.264,0.386 -0.393,0.628 -0.528,0.754 -0.452,0.452 -0.399,0.264 -0.31,0.126 -0.368,0.1 -0.284,0.033 -0.428,-0.02 -0.49,-0.113 -0.305,-0.139 -0.339,-0.251 -0.252,-0.251 -0.252,-0.36 -0.13,-0.293 -0.146,-0.294 -0.176,-0.615 -0.142,-0.984 -0.062,-1.32 0.008,-0.171 -0.037,-1.043 -0.097,-0.913 -0.164,-0.704 -0.251,-0.758 -0.277,-0.683 -0.246,-0.565 -0.276,-0.875 -0.151,-0.654 -0.055,-0.242 -0.033,0.008 -0.231,0.85 -0.352,0.855 -0.351,0.749 -0.44,0.825 -0.26,0.452 -0.376,0.704 -0.227,0.553 -0.226,0.699 -0.252,1.123 -0.293,1.687 -0.225,0.83 -0.214,0.515 -0.189,0.335 -0.2,0.264 -0.059,0.05 -0.139,0.126 -0.176,0.113 -0.221,0.058 -0.276,0 -0.248,-0.096 -0.209,-0.163 -0.189,-0.272 -0.225,-0.503 -0.269,-0.683 -0.213,-0.372 -0.289,-0.377 -0.838,-0.808 -0.252,-0.349 -0.163,-0.322 -0.121,-0.427 -0.051,-0.314 -0.037,-1.017 0.075,-1.169 0.402,-2.312 0.034,-0.817 -0.021,-0.314 -0.071,-0.297 -0.147,-0.226 -0.163,-0.122 -0.172,-0.071 -0.176,0.008 -0.13,0.076 -0.138,0.146 -0.1,0.185 -0.076,0.238 -0.046,0.289 0.033,0.692 0.126,0.657 0.293,1.328 0.139,0.779 0.037,0.615 -0.071,0.637 -0.15,0.624 -0.248,0.724 -0.151,0.557 -0.109,0.75 -0.066,0.587 -0.093,0.439 -0.176,0.452 -0.251,0.428 -0.263,0.322 -0.311,0.239 -0.238,0.125 -0.297,0.076 -0.126,0.021 -0.377,-0.021 -0.327,-0.088 -0.347,-0.164 -0.398,-0.301 -0.62,-0.549 -0.473,-0.314 -0.39,-0.189 -0.619,-0.2 -1.01,-0.231 -0.448,-0.176 -0.339,-0.234 -0.411,-0.419 -0.276,-0.402 -0.188,-0.348 -0.139,-0.419 -0.109,-0.506 -0.025,-0.741 0.013,-0.566 -0.005,-1.001 -0.104,-0.854 -0.113,-0.402 -0.687,-1.566 -0.23,-0.771 -0.038,-0.037 -0.042,0.209 -0.071,0.419 -0.314,0.946 -0.197,0.456 -0.226,0.662 -0.151,0.691 -0.083,0.657 -0.089,1.433 -0.071,0.44 -0.088,0.205 -0.159,0.151 -0.134,0.046 -0.163,-0.021 -0.143,-0.075 -0.125,-0.134 -0.138,-0.289 -0.126,-0.474 -0.205,-1.344 -0.164,-0.574 -0.238,-0.553 -0.109,-0.238 -0.239,-0.637 -0.1,-0.423 -0.042,-0.134 -0.063,-0.084 -0.117,-0.012 -0.093,0.083 -0.075,0.214 -0.138,0.519 -0.402,1.023 -0.097,0.376 -0.113,0.855 -0.016,0.774 -0.055,0.176 -0.088,0.109 -0.134,0.054 -0.15,-0.042 -0.114,-0.146 -0.088,-0.184 -0.138,-0.478 -0.084,-0.728 -0.046,-0.465 -0.054,-0.428 -0.41,-1.662 -0.348,-1.306 -0.226,-1.152 -0.122,-0.867 -0.025,-0.779 0.038,-0.779 0.096,-0.842 0.021,-0.097 0.029,-0.272 0.314,-1.746 0.256,-1.39 0.096,-0.972 -0.02,-0.523 -0.08,-0.461 -0.155,-0.44 -0.163,-0.247 -0.072,-0.062 -0.213,-0.164 -0.26,-0.084 z"
       inkscape:connector-curvature="0" /><path
       id="path444"
       style="fill:#ffffff;fill-opacity:1;fill-rule:nonzero;stroke:none"
       d="m 977.30076,466.53026 -0.122,0.008 0,0.034 0.11,0.008 0.033,-0.021 -0.021,-0.029 z"
       inkscape:connector-curvature="0" /><path
       id="path448"
       style="fill:#ffffff;fill-opacity:1;fill-rule:nonzero;stroke:none"
       d="m 975.00046,466.70596 -0.351,0 -0.08,0.046 -0.176,0.28 -0.071,0.214 -0.071,0.561 0.02,0.394 -0.045,0.092 -0.08,0.05 -0.323,0.068 -0.108,0.083 -0.189,0.314 -0.071,0.235 0.017,0.151 0.067,0.092 0.134,0.105 0.021,0.117 -0.109,0.301 0.029,0.068 0.193,0.058 0.507,0.071 0.1,0.05 0.042,0.101 -0.03,0.084 -0.079,0.045 -0.327,-0.012 -0.364,-0.046 -0.117,0.03 -0.059,0.116 0.009,0.181 0.037,0.063 0.068,0.017 0.213,-0.022 0.167,0.072 0.189,0.146 0.251,0.331 0.033,0.092 -0.021,0.18 -0.125,0.419 -0.264,0.548 -0.159,0.26 -0.125,0.222 -0.189,0.281 -0.046,0.126 0.021,0.251 0.03,0.138 -0.018,0.151 -0.092,0.167 -0.175,0.227 -0.403,0.401 -0.184,0.189 -0.268,0.276 -0.092,0.034 -0.272,-0.017 -0.117,0.072 -0.126,0.012 -0.201,-0.029 -0.21,0.071 -0.306,0.146 -0.423,0.142 -0.058,0.051 0,0.071 0.105,0.063 0.749,0.205 0.109,0.084 0,0.117 -0.058,0.072 -0.13,0.012 -0.901,-0.247 -0.134,-0.008 -0.096,0.046 -0.126,0.121 -0.117,0.046 -0.193,-0.021 -0.293,-0.084 -0.305,-0.02 -0.402,0.024 -0.273,-0.071 -0.355,-0.172 -0.432,-0.104 -0.301,-0.113 -0.064,-0.084 -0.054,-0.213 -0.105,-0.063 -0.322,-0.067 -0.046,-0.034 -0.042,-0.205 -0.121,-0.122 -0.009,-0.146 0.004,-0.096 -0.075,-0.097 -0.352,-0.155 -0.121,-0.125 -0.218,-0.323 -0.234,-0.201 -0.553,-0.406 -0.202,-0.222 -0.15,-0.259 -0.164,-0.369 -0.079,-0.213 -0.176,-0.269 -0.029,-0.079 0.021,-0.151 0.121,-0.251 0.055,-0.181 0.146,-0.171 0.071,-0.163 -0.021,-0.08 -0.063,-0.03 -0.268,0.055 -0.431,0.121 -0.184,0.009 -0.092,-0.046 -0.042,-0.075 0.029,-0.085 0.226,-0.087 0.742,-0.23 0.071,-0.059 0.021,-0.11 -0.013,-0.162 0.034,-0.08 0.121,-0.159 -0.012,-0.096 -0.097,-0.097 -0.393,-0.192 -0.122,-0.122 -0.088,-0.239 -0.042,-0.192 -0.067,-0.055 -0.121,0.021 -0.377,0.176 -1.277,0.716 -1.32,0.855 -0.741,0.527 -0.582,0.486 -0.059,0.118 0.013,0.171 0.088,0.239 0.067,0.046 0.121,-0.021 0.85,-0.386 0.13,0 0.055,0.08 -0.009,0.134 -0.071,0.084 -0.946,0.456 -0.101,0.106 -0.017,0.05 0.026,0.778 -0.046,0.578 0.029,0.105 0.092,0.033 0.264,0.013 0.301,0 0.716,0.05 0.08,0.034 0.063,0.092 -0.008,0.084 -0.072,0.058 -0.176,0.009 -1.256,-0.038 -0.084,0.034 -0.059,0.092 -0.167,0.586 -0.188,0.452 -0.017,0.08 0.033,0.08 0.285,0.188 1.872,1.059 0.163,0.147 0.013,0.084 -0.046,0.067 -0.109,0 -0.305,-0.151 -1.508,-0.888 -0.415,-0.226 -0.122,-0.021 -0.092,0.059 -0.18,0.285 -0.439,0.54 -0.511,0.478 -0.402,0.305 -0.034,0.067 0.046,0.373 0.13,0.796 0.046,0.355 0.05,0.105 0.034,-0.033 0.255,-1.068 0.201,-0.561 0.327,-0.604 0.314,-0.398 0.252,-0.263 0.066,-0.047 0.067,0.009 0.093,0.352 0.184,0.347 0.201,0.566 0.205,0.695 0.201,0.44 0.147,0.285 0.289,0.728 0.117,0.52 0.075,0.523 0.038,0.067 0.046,-0.038 0.084,-0.41 0.037,-0.402 0.172,-0.842 0.327,-0.95 0.172,-0.423 0.138,-0.482 0.084,-0.595 0.02,-0.624 -0.033,-0.406 -0.147,-0.804 -0.435,-1.554 -0.168,-1.077 -0.004,-0.347 0.05,-0.376 0.109,-0.357 0.151,-0.314 0.184,-0.239 0.227,-0.188 0.247,-0.126 0.201,-0.046 0.351,0.013 0.273,0.096 0.259,0.163 0.227,0.239 0.163,0.247 0.151,0.394 0.083,0.419 0,0.515 -0.079,0.724 -0.398,2.216 -0.025,0.251 0.012,0.616 0.147,0.653 0.289,0.712 0.373,0.762 0.314,0.854 0.146,0.625 0.101,0.754 0.012,0.791 -0.025,0.239 0.013,0.628 0.071,0.402 0.088,0.335 0.125,0.247 0.227,0.289 0.238,0.214 0.398,0.239 0.662,0.251 0.737,0.23 0.628,0.302 0.474,0.301 0.858,0.649 0.448,0.277 0.31,0.125 0.227,0.046 0.229,-0.021 0.281,-0.1 0.109,-0.084 0.176,-0.251 0.113,-0.306 0.23,-1.416 0.214,-0.649 0.335,-0.708 0.101,-0.317 0.079,-0.599 0.004,-0.486 -0.083,-0.675 -0.227,-1.046 -0.121,-0.407 -0.176,-0.758 -0.067,-0.548 -0.004,-0.713 0.083,-0.456 0.164,-0.419 0.176,-0.297 0.226,-0.252 0.297,-0.213 0.256,-0.101 0.192,-0.033 0.335,0.021 0.34,0.1 0.209,0.126 0.239,0.213 0.188,0.26 0.151,0.335 0.109,0.415 0.038,0.314 -0.025,0.553 -0.134,0.896 -0.52,2.408 -0.025,0.227 0.012,0.741 0.072,0.431 0.1,0.255 0.164,0.26 0.213,0.226 0.649,0.507 0.301,0.302 0.253,0.372 0.15,0.298 0.18,0.549 0.151,0.247 0.109,0.1 0.134,0.029 0.142,-0.054 0.176,-0.172 0.201,-0.318 0.201,-0.473 0.226,-0.838 0.176,-0.871 0.105,-0.565 0.201,-0.658 0.239,-0.628 0.264,-0.54 0.096,-0.168 0.205,-0.41 0.611,-1.114 0.666,-1.453 0.264,-0.754 0.227,-0.993 0.091,-0.649 0.012,-0.612 -0.066,-0.301 -0.059,-0.05 -0.125,0 -0.214,0.1 -0.151,0.147 -0.054,0.142 -0.064,0.272 -0.108,0.138 -0.133,0.072 -0.135,-0.021 -0.386,-0.239 -0.225,-0.222 -0.264,-0.163 -0.578,-0.193 -0.314,-0.21 -0.209,-0.045 -0.235,0.008 -0.122,0.05 -0.087,0.097 -0.113,0.297 -0.013,0.314 0.062,0.327 -0.029,0.142 -0.235,0.201 -0.154,0.063 -0.143,0.017 -0.327,-0.021 -0.326,0.063 -0.204,-0.022 -0.676,-0.234 -0.263,0.008 -0.092,-0.063 -0.055,-0.083 -0.058,0 -0.114,0.255 -0.117,0.285 -0.058,0.071 -0.109,0.013 -0.092,-0.059 -0.029,-0.117 0.301,-0.901 0.029,-0.184 -0.029,-0.146 -0.201,-0.264 -0.038,-0.122 0.042,-0.087 0.222,-0.164 0.176,-0.092 0.113,-0.134 0.163,-0.553 0.264,-1.06 0.235,-1.134 -0.013,-0.365 0.046,-0.117 0.084,-0.113 0.138,-0.641 0.281,-1.809 0.067,-0.637 -0.046,-0.092 -0.219,-0.059 -0.188,-0.012 z"
       inkscape:connector-curvature="0" /><path
       id="path452"
       style="fill:#ffffff;fill-opacity:1;fill-rule:nonzero;stroke:none"
       d="m 975.89306,466.79376 -0.097,0.046 -0.029,0.092 -0.05,0.629 0.029,0.017 0.163,-0.147 0.147,-0.047 0.403,-0.025 0.213,0.038 0.042,-0.021 -0.008,-0.096 -0.105,-0.21 0.013,-0.158 -0.098,-0.047 -0.46,-0.058 -0.163,-0.013 z"
       inkscape:connector-curvature="0" /><path
       id="path456"
       style="fill:#ffffff;fill-opacity:1;fill-rule:nonzero;stroke:none"
       d="m 977.13596,466.93226 -0.142,0.021 -0.021,0.079 0.06,0.134 0.384,0.599 0.101,0.168 0.252,0.276 0.225,0.159 0.285,0.151 0.093,-0.008 0.087,-0.063 0.034,-0.084 -0.021,-0.163 -0.1,-0.18 -0.26,-0.365 -0.227,-0.393 -0.238,-0.235 -0.424,-0.084 -0.088,-0.012 z"
       inkscape:connector-curvature="0" /><path
       id="path460"
       style="fill:#ffffff;fill-opacity:1;fill-rule:nonzero;stroke:none"
       d="m 975.72926,467.72376 -0.037,0 -0.085,0.444 -0.25,1.625 -0.08,0.333 0.679,0.165 0.376,0.08 0.855,0.205 0.159,-0.021 0.134,-0.134 0.034,-0.134 -0.047,-0.251 0.054,-0.155 0.122,-0.113 0.139,-0.105 0.041,-0.088 -0.067,-0.172 -0.913,-0.958 -0.205,-0.365 -0.151,-0.146 -0.217,-0.072 -0.365,-0.013 -0.118,-0.046 -0.058,-0.079 z"
       inkscape:connector-curvature="0" /><path
       id="path464"
       style="fill:#ffffff;fill-opacity:1;fill-rule:nonzero;stroke:none"
       d="m 963.74356,468.60316 -0.302,0.021 -0.247,0.063 -0.197,0.125 -0.414,0.298 -0.176,0.117 -0.641,0.536 -0.121,0.046 -0.39,-0.063 -0.155,0.059 -0.301,0.251 -0.817,0.766 -0.364,0.398 -0.067,0.118 0.054,0.008 0.775,-0.54 0.302,-0.222 1.373,-0.942 0.616,-0.344 0.8,-0.448 0.301,-0.155 0.03,-0.046 -0.059,-0.046 z"
       inkscape:connector-curvature="0" /><path
       id="path468"
       style="fill:#0067b1;fill-opacity:1;fill-rule:nonzero;stroke:none"
       d="m 975.85506,469.20636 -0.134,0.034 -0.147,0.134 -0.041,0.121 0.016,0.109 0.109,0.122 0.168,0.075 0.389,0.075 0.231,0.009 0.13,-0.047 0.054,-0.104 -0.042,-0.226 -0.063,-0.168 -0.091,-0.046 -0.257,0.041 -0.322,-0.129 z"
       inkscape:connector-curvature="0" /><path
       id="path472"
       style="fill:#ffffff;fill-opacity:1;fill-rule:nonzero;stroke:none"
       d="m 975.40286,470.48766 -0.159,0.008 -0.072,0.084 -0.238,1.072 -0.21,0.959 0.009,0.118 0.121,-0.013 0.223,-0.042 0.184,0.017 0.083,0.042 0.113,0.083 0.13,0 0.297,-0.07 0.114,-0.067 0.101,-0.122 0.18,-0.382 0.184,-0.208 0.008,-0.134 -0.012,-0.189 0.058,-0.13 0.146,-0.138 0.093,-0.289 0.134,-0.151 0,-0.063 -0.138,-0.062 -0.696,-0.176 -0.653,-0.147 z"
       inkscape:connector-curvature="0" /><path
       id="path476"
       style="fill:#ef4135;fill-opacity:1;fill-rule:nonzero;stroke:none"
       d="m 962.49976,471.46766 -0.188,0.021 -0.181,0.101 -0.113,0.121 -0.1,0.235 -0.034,0.239 0.025,0.514 0.134,0.913 0.453,2.279 0.025,0.033 0.033,-0.063 0.356,-2.626 0.03,-0.561 -0.013,-0.578 -0.071,-0.314 -0.113,-0.184 -0.13,-0.096 -0.113,-0.034 z"
       inkscape:connector-curvature="0" /><path
       id="path480"
       style="fill:#ffffff;fill-opacity:1;fill-rule:nonzero;stroke:none"
       d="m 959.19536,471.80676 -0.104,0.034 -0.189,0.197 -0.515,0.678 -0.465,0.699 -0.193,0.298 -0.36,0.561 -0.427,0.775 -0.138,0.377 -0.021,0.175 0.071,0.331 0.251,0.759 0.184,0.494 0.08,0.222 0.08,0.037 0.108,-0.029 0.398,-0.302 0.252,-0.272 0.427,-0.54 0.238,-0.39 0.239,-0.498 0.189,-0.523 0.1,-0.415 0.092,-0.616 0.017,-0.682 -0.054,-0.558 -0.143,-0.648 -0.075,-0.143 -0.042,-0.021 z"
       inkscape:connector-curvature="0" /><path
       id="path484"
       style="fill:#ffffff;fill-opacity:1;fill-rule:nonzero;stroke:none"
       d="m 985.74296,473.67896 -0.193,0.021 -0.171,0.042 -0.197,0.021 -0.108,0.096 -0.064,0.109 -0.012,0.088 0.059,0.092 0.087,0.038 0.18,0.042 0.159,0.184 0.163,0.163 0.671,0.502 0.072,0.013 0.024,-0.008 -0.012,-0.092 -0.176,-0.272 -0.247,-0.256 -0.059,-0.142 0.02,-0.118 0.097,-0.075 0.159,-0.021 0.423,0.122 0.159,0.113 0.579,0.674 0.033,0.097 0.034,0.15 0.125,0.231 0.134,0.1 0.146,0.033 0.172,0.017 0.072,0.042 0.042,0.113 0,0.298 0.1,0.175 0.285,0.193 0.139,0.109 0.313,0.105 0.276,0.188 0.096,0.059 0.139,0.033 0.352,0.021 0.243,0.076 0.084,0.046 0.116,-0.013 0.076,-0.117 0.013,-0.159 -0.097,-0.122 -0.276,-0.15 -0.251,-0.105 -0.256,-0.189 -0.489,-0.712 -0.24,-0.213 -0.15,-0.076 -0.205,-0.008 -0.097,0.004 -0.159,-0.062 -0.239,-0.227 -0.163,-0.222 -0.301,-0.464 -0.143,-0.264 -0.108,-0.126 -0.168,-0.063 -0.26,-0.055 -0.126,0.042 -0.171,0.11 -0.134,0 -0.172,-0.114 -0.088,-0.058 -0.222,-0.046 -0.088,-0.013 z"
       inkscape:connector-curvature="0" /><path
       id="path488"
       style="fill:#ffffff;fill-opacity:1;fill-rule:nonzero;stroke:none"
       d="m 994.95236,473.99306 -0.079,0.029 -0.03,0.113 0.013,0.206 0.021,0.242 -0.034,0.147 -0.159,0.172 -0.1,0.1 -0.034,0.084 0.008,0.138 0.113,0.243 0.11,0.176 0.041,0.214 -0.029,0.192 -0.125,0.247 -0.151,0.143 0.008,0.23 0.205,0.553 0.047,0.239 -0.047,0.104 -0.108,0.101 -0.269,0.201 -0.108,0.138 0,0.109 0.1,0.18 0.247,0.431 0.176,0.394 -0.012,0.168 -0.072,0.054 -0.075,-0.029 -0.176,-0.298 -0.168,-0.326 -0.263,-0.364 -0.105,-0.076 -0.093,0.008 -0.233,0.138 -0.24,0.03 -0.104,0.063 -0.063,0.151 -0.138,0.636 -0.046,0.361 -0.013,0.665 0.076,0.603 0.196,0.695 0.285,0.838 0.071,0.314 0.038,0.666 0.058,0.235 0.177,0.297 0.184,0.151 0.146,0.046 0.16,-0.021 0.159,-0.088 0.125,-0.155 0.139,-0.255 0.138,-0.453 0.046,-0.322 0,-0.779 -0.062,-0.829 -0.06,-0.415 -0.017,-0.427 0.118,-1.114 0.092,-0.444 0.16,-0.553 0.175,-0.921 0.079,-0.842 0.012,-0.934 -0.045,-0.796 -0.046,-0.159 -0.339,-0.574 -0.08,-0.071 z"
       inkscape:connector-curvature="0" /><path
       id="path492"
       style="fill:#ffffff;fill-opacity:1;fill-rule:nonzero;stroke:none"
       d="m 982.62726,474.01806 -0.118,0.034 -0.275,0.188 -0.19,0.147 -0.107,0.021 -0.277,-0.088 -0.264,0.008 -0.067,0.05 -0.046,0.18 -0.009,0.457 0.055,0.163 0.079,0.046 0.314,-0.025 0.164,0.012 0.222,-0.045 0.108,-0.089 0.264,-0.468 0.118,-0.231 0.096,-0.197 0,-0.109 -0.067,-0.054 z"
       inkscape:connector-curvature="0" /><path
       id="path496"
       style="fill:#ffffff;fill-opacity:1;fill-rule:nonzero;stroke:none"
       d="m 983.19286,474.19426 -0.122,0.008 -0.096,0.118 -0.503,0.888 -0.054,0.162 0.03,0.177 0.1,0.172 0.146,0.112 0.16,0.03 0.272,-0.013 0.134,0.063 0.306,0.473 0.184,0.176 0.058,0.021 0.314,-0.009 0.068,0.043 0.025,0.104 -0.088,0.13 -0.193,0.113 -0.163,0.046 -0.197,-0.021 -0.206,-0.042 -0.268,0.009 -0.255,0.109 -0.129,-0.013 -0.168,-0.113 -0.227,-0.209 -0.184,-0.126 -0.339,-0.021 -0.055,0.029 -0.041,0.164 -0.084,0.075 -0.021,0.046 0.021,0.134 0.641,1.365 0.384,0.955 0.24,0.809 0.113,0.549 0.13,0.879 0.091,1.692 0.047,1.332 0.1,0.519 0.113,0.402 0.213,0.456 0.24,0.31 0.252,0.214 0.293,0.138 0.326,0.084 0.339,0 0.306,-0.059 0.342,-0.126 0.399,-0.263 0.289,-0.302 0.326,-0.498 0.533,-0.997 0.276,-0.41 0.251,-0.289 0.486,-0.428 0.532,-0.389 0.956,-0.544 0.71,-0.465 0.341,-0.327 0.275,-0.39 0.214,-0.469 0.059,-0.314 0.038,-0.653 -0.072,-0.695 -0.062,-0.314 -0.047,-0.051 -0.071,-0.008 -0.188,0.012 -0.126,-0.012 -0.189,0.012 -0.502,-0.121 -0.083,0.017 -0.009,0.092 0.151,0.205 0.661,0.855 0.302,0.439 0.046,0.134 -0.021,0.168 -0.075,0.042 -0.084,-0.055 -0.389,-0.489 -0.708,-0.926 -0.193,-0.176 -0.109,0 -0.184,0.147 -1.307,1.336 -1.47,1.62 -0.167,0.21 -0.825,1.017 -0.106,0.21 0.018,0.092 0.16,0.155 0.476,0.41 0.546,0.494 0.062,0.126 -0.042,0.121 -0.08,0.022 -0.079,-0.047 -0.784,-0.674 -0.397,-0.301 -0.135,-0.034 -0.08,0.042 -0.426,0.528 -0.343,0.464 -0.209,0.294 -0.257,0.385 -0.07,0.109 -0.068,0.092 -0.075,0.013 -0.071,-0.063 -0.033,-0.08 0.02,-0.126 0.135,-0.234 1.034,-1.403 0.134,-0.163 0.041,-0.109 -0.105,-0.13 -0.929,-0.767 -0.637,-0.494 -0.088,-0.13 0,-0.134 0.033,-0.033 0.102,0.008 0.201,0.13 0.795,0.624 0.436,0.352 0.289,0.205 0.109,0.038 0.08,-0.03 0.2,-0.234 0.809,-0.993 0.222,-0.251 0.607,-0.703 1.783,-1.935 0.085,-0.076 0.313,-0.318 0.03,-0.088 -0.025,-0.046 -0.717,-0.176 -0.171,-0.008 -0.2,0.05 -0.297,0.008 -0.161,0.076 -0.172,0.122 -0.112,0.033 -0.202,-0.021 -0.436,-0.164 -0.208,-0.113 -0.101,-0.109 -0.402,-0.519 -0.152,-0.109 -0.187,-0.105 -0.189,-0.209 -0.074,-0.167 -0.047,-0.18 0.021,-0.21 0.075,-0.146 0.123,-0.101 0.108,-0.033 0.577,0.037 0.068,-0.033 0.03,-0.088 -0.164,-0.524 -0.016,-0.297 -0.085,-0.104 -0.528,-0.415 -0.084,-0.034 -0.133,0.021 -0.311,0.122 -0.309,0.071 -0.223,-0.009 -0.159,-0.075 -0.125,-0.172 -0.292,-0.569 -0.098,-0.097 -0.121,-0.02 -0.238,0.087 -0.134,-0.02 -0.281,-0.147 -0.113,-0.046 z"
       inkscape:connector-curvature="0" /><path
       id="path500"
       style="fill:#0067b1;fill-opacity:1;fill-rule:nonzero;stroke:none"
       d="m 964.01986,474.47056 -0.193,0.008 -0.088,0.051 -0.029,0.087 0.042,0.084 0.205,0.059 1.169,0.121 1.277,0.214 0.071,0.05 0.013,0.113 -0.151,0.457 -0.427,1.093 -0.44,0.934 -0.272,0.54 -0.293,0.657 -0.08,0.076 -0.079,0.008 -0.159,-0.042 -0.068,0.034 -0.012,0.088 0.075,0.122 0.084,0.1 0.008,0.109 -0.012,0.138 0.046,0.084 0.084,0.008 0.171,-0.155 0.134,0.021 0.838,0.486 0.67,0.356 1.956,1.139 1.532,0.897 0.202,0.15 0.029,0.096 -0.067,0.205 -0.302,0.541 -0.535,0.838 -0.176,0.28 -0.302,0.473 -0.042,0.122 0.017,0.092 0.067,0.042 0.079,-0.017 0.176,-0.209 0.578,-0.83 0.565,-0.942 0.18,-0.331 0.109,-0.109 0.118,0.013 0.51,0.284 0.143,0.013 0.072,-0.079 -0.009,-0.113 -0.08,-0.093 -0.435,-0.268 -0.088,-0.096 -0.021,-0.134 0.096,-0.218 0.649,-1.206 0.152,-0.335 0.025,-0.159 -0.051,-0.109 -0.058,-0.029 -0.076,0.042 -0.163,0.259 -0.721,1.424 -0.163,0.235 -0.096,0.013 -0.331,-0.152 -0.448,-0.272 -0.327,-0.18 -0.159,-0.109 -0.143,-0.054 -1.645,-0.951 -2.216,-1.247 -0.071,-0.076 0.013,-0.134 0.561,-1.118 0.343,-0.759 0.272,-0.653 0.44,-1.273 0,-0.109 -0.121,-0.146 -0.055,-0.176 -0.142,-0.05 -1.495,-0.222 -0.93,-0.101 z"
       inkscape:connector-curvature="0" /><path
       id="path504"
       style="fill:#ffffff;fill-opacity:1;fill-rule:nonzero;stroke:none"
       d="m 967.11036,474.64626 -0.104,0.021 -0.034,0.067 0.017,0.084 0.071,0.046 0.138,0.034 0.147,-0.009 0.037,-0.046 -0.016,-0.076 -0.168,-0.087 -0.088,-0.034 z"
       inkscape:connector-curvature="0" /><path
       id="path508"
       style="fill:#0067b1;fill-opacity:1;fill-rule:nonzero;stroke:none"
       d="m 974.62436,477.07146 -0.08,0.034 -0.021,0.117 0.046,0.092 0.264,0.113 0.502,0.192 1.319,0.578 1.32,0.641 0.524,0.285 0.1,0 0.063,-0.071 0.013,-0.088 -0.051,-0.076 -0.335,-0.201 -1.596,-0.779 -1.13,-0.502 -0.838,-0.314 -0.1,-0.021 z"
       inkscape:connector-curvature="0" /><path
       id="path512"
       style="fill:#ffffff;fill-opacity:1;fill-rule:nonzero;stroke:none"
       d="m 966.53276,489.09506 -0.105,0.054 -0.033,0.084 -0.016,3.694 0.038,0.092 0.121,0.046 2.445,0 0.105,-0.046 0.046,-0.155 -0.007,-0.527 -0.042,-0.105 -0.08,-0.046 -1.494,0 -0.155,-0.046 -0.046,-0.13 0.006,-0.314 0.042,-0.092 0.155,-0.046 1.156,0 0.092,-0.046 0.038,-0.105 0.004,-0.612 -0.034,-0.105 -0.079,-0.05 -1.202,-0.012 -0.13,-0.046 -0.046,-0.117 0.013,-0.377 0.045,-0.08 0.106,-0.033 1.499,0 0.142,-0.046 0.038,-0.055 0.004,-0.653 -0.046,-0.08 -0.08,-0.034 -2.5,-0.012 z"
       inkscape:connector-curvature="0" /><path
       id="path516"
       style="fill:#ffffff;fill-opacity:1;fill-rule:nonzero;stroke:none"
       d="m 980.40276,489.14546 -0.71,0.013 -0.093,0.041 -0.041,0.105 -0.01,2.793 -0.042,0.097 -0.096,0.042 -0.821,0.016 -0.088,0.059 -0.033,0.121 0,0.558 0.033,0.066 0.143,0.047 2.84,0.012 0.171,-0.046 0.046,-0.059 -0.004,-0.636 -0.064,-0.105 -0.129,-0.034 -0.825,-0.012 -0.091,-0.046 -0.035,-0.092 -0.012,-2.802 -0.042,-0.092 -0.097,-0.046 z"
       inkscape:connector-curvature="0" /><path
       id="path520"
       style="fill:#ffffff;fill-opacity:1;fill-rule:nonzero;stroke:none"
       d="m 983.15486,489.15796 -0.541,0.003 -0.105,0.046 -0.041,0.113 -0.016,3.631 0.021,0.109 0.067,0.046 0.663,-0.003 0.116,-0.046 0.047,-0.117 0.002,-1.106 0.035,-0.167 0.087,-0.051 1.361,-0.008 0.143,0.046 0.041,0.113 0.008,1.244 0.043,0.063 0.117,0.042 0.618,0 0.108,-0.046 0.047,-0.088 0.014,-3.631 -0.038,-0.126 -0.079,-0.046 -0.708,0.012 -0.067,0.047 -0.033,0.134 -0.004,1.143 -0.034,0.134 -0.091,0.046 -1.47,-0.003 -0.054,-0.055 -0.029,-0.146 0.01,-1.182 -0.033,-0.08 -0.105,-0.059 -0.1,-0.012 z"
       inkscape:connector-curvature="0" /><path
       id="path524"
       style="fill:#ffffff;fill-opacity:1;fill-rule:nonzero;stroke:none"
       d="m 972.24656,490.91686 0.065,0.046 -0.02,0.096 -0.415,1.119 -0.046,0 -0.36,-1.098 -0.038,-0.107 0.066,-0.05 0.748,-0.006 z m -2.183,-1.797 -0.08,0.034 -0.021,0.042 1.215,3.749 0.083,0.122 0.085,0.033 0.966,-0.01 0.13,-0.046 0.076,-0.108 1.495,-3.666 -0.013,-0.096 -0.092,-0.046 -0.691,-0.008 -0.205,0.046 -0.076,0.097 -0.207,0.613 -0.099,0.066 -1.365,-0.001 -0.125,-0.062 -0.193,-0.608 -0.063,-0.093 -0.166,-0.058 -0.654,0 z"
       inkscape:connector-curvature="0" /><path
       id="path528"
       style="fill:#ffffff;fill-opacity:1;fill-rule:nonzero;stroke:none"
       d="m 976.45866,491.34416 0.159,0.058 0.134,0.114 0.066,0.125 0.025,0.21 -0.066,0.188 -0.171,0.138 -0.248,0.059 -0.64,0.009 -0.097,-0.046 -0.034,-0.096 0.005,-0.646 0.033,-0.079 0.118,-0.047 0.64,0 0.076,0.013 z m 0.677,-2.199 -0.116,0.046 -0.795,1.139 -0.118,0.088 -0.462,-0.008 -0.033,-0.038 -0.02,-0.096 0.008,-0.959 -0.029,-0.105 -0.117,-0.054 -0.666,0 -0.093,0.046 -0.041,0.1 -0.014,3.646 0.05,0.118 0.105,0.033 1.877,0.002 0.357,-0.059 0.254,-0.1 0.235,-0.164 0.201,-0.234 0.138,-0.302 0.047,-0.234 -0.03,-0.373 -0.055,-0.218 -0.125,-0.243 -0.213,-0.264 -0.235,-0.188 -0.017,-0.071 0.871,-1.395 -0.016,-0.067 -0.092,-0.033 -0.856,-0.013 z"
       inkscape:connector-curvature="0" /><path
       id="path532"
       style="fill:#ffffff;fill-opacity:1;fill-rule:nonzero;stroke:none"
       d="m 974.41016,494.15846 -0.104,0.046 -0.034,0.105 -0.015,3.611 0.046,0.105 0.08,0.033 0.63,0.007 0.133,-0.046 0.042,-0.079 0.005,-1.165 0.043,-0.134 0.091,-0.046 1.32,0 0.104,0.034 0.051,0.088 -0.002,1.151 0.013,0.118 0.059,0.058 0.096,0.021 0.641,0 0.13,-0.046 0.042,-0.151 0.009,-3.534 -0.047,-0.13 -0.129,-0.046 -0.681,0.005 -0.092,0.042 -0.034,0.097 -0.005,1.226 -0.051,0.079 -0.155,0.034 -1.243,0 -0.092,-0.034 -0.046,-0.105 0,-1.168 -0.047,-0.13 -0.155,-0.046 -0.603,0 z"
       inkscape:connector-curvature="0" /><path
       id="path536"
       style="fill:#ffffff;fill-opacity:1;fill-rule:nonzero;stroke:none"
       d="m 972.33696,494.14596 -0.69,0 -0.105,0.046 -0.034,0.08 -0.009,2.784 -0.043,0.109 -0.142,0.046 -0.873,-0.004 -0.081,0.059 -0.033,0.159 0,0.465 0.046,0.105 0.105,0.046 3.048,0.012 0.114,-0.033 0.05,-0.109 -0.005,-0.641 -0.103,-0.075 -0.164,-0.021 -0.826,0.012 -0.079,-0.034 -0.038,-0.063 -0.004,-2.809 -0.029,-0.076 -0.105,-0.058 z"
       inkscape:connector-curvature="0" /><path
       id="path540"
       style="fill:#ffffff;fill-opacity:1;fill-rule:nonzero;stroke:none"
       d="m 981.57086,494.18046 -2.362,-0.01 -0.129,0.047 -0.042,0.125 -0.011,3.595 0.039,0.091 0.116,0.046 2.365,0.004 0.142,-0.046 0.046,-0.092 -0.009,-0.596 -0.039,-0.089 -0.1,-0.05 -1.422,-0.006 -0.13,-0.047 -0.033,-0.067 -0.008,-0.272 0.037,-0.138 0.063,-0.046 0.133,-0.021 1.08,0.012 0.118,-0.046 0.042,-0.1 0,-0.652 -0.055,-0.088 -0.117,-0.041 -1.143,-0.002 -0.105,-0.046 -0.033,-0.105 0.009,-0.331 0.058,-0.075 0.071,-0.021 1.508,0 0.116,-0.046 0.035,-0.092 0.003,-0.703 -0.08,-0.071 -0.163,-0.021 z"
       inkscape:connector-curvature="0" /><path
       id="path544"
       style="fill:#ffffff;fill-opacity:1;fill-rule:nonzero;stroke:none"
       d="m 967.90206,498.79446 -0.427,0.021 -0.402,0.088 -0.285,0.113 -0.398,0.251 -0.264,0.252 -0.213,0.322 -0.163,0.415 -0.08,0.385 -0.017,0.364 0.059,0.394 0.125,0.381 0.164,0.31 0.201,0.264 0.301,0.264 0.298,0.176 0.414,0.138 0.323,0.059 0.326,0.012 0.549,-0.058 0.469,-0.139 0.171,-0.1 0.06,-0.084 0.025,-0.098 0,-0.698 -0.05,-0.084 -0.072,-0.016 -0.485,0.238 -0.428,0.097 -0.314,0.012 -0.314,-0.046 -0.272,-0.126 -0.197,-0.138 -0.176,-0.209 -0.113,-0.247 -0.071,-0.302 0.008,-0.293 0.076,-0.289 0.163,-0.268 0.209,-0.197 0.239,-0.138 0.327,-0.1 0.372,-0.021 0.352,0.058 0.285,0.126 0.277,0.176 0.091,0.058 0.055,-0.012 0.038,-0.074 0.008,-0.659 -0.046,-0.147 -0.134,-0.134 -0.285,-0.138 -0.452,-0.121 -0.327,-0.038 z"
       inkscape:connector-curvature="0" /><path
       id="path548"
       style="fill:#ffffff;fill-opacity:1;fill-rule:nonzero;stroke:none"
       d="m 976.57196,499.09596 -1.018,0.004 -0.079,0.034 -0.063,0.104 -1.157,3.489 -0.021,0.176 0.042,0.054 0.198,0.049 0.539,-0.015 0.117,-0.034 0.076,-0.142 0.783,-2.576 0.059,-0.067 0.076,0 0.028,0.059 0.792,2.529 0.096,0.185 0.143,0.078 0.556,-0.007 0.168,-0.046 0.03,-0.067 -0.041,-0.201 -1.182,-3.535 -0.067,-0.05 -0.075,-0.021 z"
       inkscape:connector-curvature="0" /><path
       id="path552"
       style="fill:#ffffff;fill-opacity:1;fill-rule:nonzero;stroke:none"
       d="m 978.85826,499.12126 -0.093,0.033 -0.086,0.112 0.003,3.624 0.033,0.08 0.068,0.05 0.112,0.021 2.363,0.012 0.129,-0.046 0.033,-0.079 -0.002,-0.577 -0.042,-0.142 -0.122,-0.051 -1.478,-0.005 -0.068,-0.046 -0.029,-0.096 0,-0.344 0.029,-0.1 0.13,-0.046 1.168,-0.009 0.142,-0.047 0.046,-0.104 0.005,-0.636 -0.067,-0.05 -0.113,-0.021 -1.21,0 -0.092,-0.034 -0.051,-0.075 0.008,-0.381 0.047,-0.117 0.091,-0.034 1.551,-0.01 0.086,-0.05 0.035,-0.105 0,-0.589 -0.046,-0.092 -0.093,-0.034 -2.487,-0.012 z"
       inkscape:connector-curvature="0" /><path
       id="path556"
       style="fill:#ffffff;fill-opacity:1;fill-rule:nonzero;stroke:none"
       d="m 971.99806,499.82476 0.31,0.096 0.188,0.126 0.198,0.226 0.125,0.26 0.071,0.322 -0.004,0.335 -0.08,0.327 -0.176,0.285 -0.238,0.226 -0.256,0.138 -0.314,0.059 -0.251,-0.013 -0.289,-0.084 -0.247,-0.151 -0.197,-0.213 -0.151,-0.268 -0.071,-0.327 0.013,-0.389 0.083,-0.272 0.164,-0.285 0.213,-0.188 0.218,-0.126 0.327,-0.088 0.302,-0.009 0.062,0.013 z m -0.138,-0.892 -0.44,0.012 -0.327,0.059 -0.347,0.151 -0.272,0.176 -0.302,0.276 -0.251,0.373 -0.164,0.39 -0.071,0.385 0,0.553 0.096,0.401 0.139,0.331 0.276,0.39 0.302,0.276 0.268,0.164 0.314,0.125 0.515,0.097 0.49,-0.013 0.402,-0.096 0.435,-0.189 0.374,-0.301 0.225,-0.285 0.114,-0.21 0.138,-0.376 0.07,-0.402 0,-0.403 -0.07,-0.431 -0.138,-0.356 -0.227,-0.36 -0.213,-0.226 -0.273,-0.189 -0.339,-0.163 -0.389,-0.113 -0.335,-0.046 z"
       inkscape:connector-curvature="0" /><path
       id="path560"
       style="fill:#ffffff;fill-opacity:1;fill-rule:nonzero;stroke:none"
       d="m 984.27256,501.24456 0.211,0.059 0.158,0.121 0.088,0.147 0.034,0.238 -0.06,0.172 -0.099,0.109 -0.156,0.075 -0.874,0.002 -0.092,-0.046 -0.033,-0.079 0.007,-0.635 0.033,-0.117 0.093,-0.046 0.69,0 z m 1.458,-2.086 -0.801,0.008 -0.131,0.051 -0.559,0.951 -0.109,0.138 -0.147,0.046 -0.363,0 -0.106,-0.042 -0.042,-0.092 -0.003,-0.934 -0.046,-0.08 -0.08,-0.033 -0.616,0 -0.129,0.046 -0.038,0.084 0.002,3.685 0.067,0.059 0.138,0.021 1.681,0 0.449,-0.055 0.214,-0.066 0.246,-0.152 0.189,-0.196 0.13,-0.231 0.096,-0.335 0.029,-0.255 -0.017,-0.293 -0.1,-0.285 -0.125,-0.21 -0.172,-0.175 -0.252,-0.189 -0.016,-0.079 0.704,-1.182 0.037,-0.129 -0.046,-0.055 -0.084,-0.021 z"
       inkscape:connector-curvature="0" /><path
       id="path564"
       style="fill:#ef4135;fill-opacity:1;fill-rule:nonzero;stroke:none"
       d="m 965.91696,505.78026 -0.322,0.021 -0.31,0.1 -0.252,0.197 -0.113,0.163 -0.1,0.218 -0.084,0.381 0.008,0.377 0.101,0.478 0.126,0.305 0.351,0.578 0.377,0.415 0.235,0.214 0.682,0.49 0.8,0.427 0.809,0.326 1.138,0.277 0.6,0.084 0.829,0.025 0.678,-0.071 0.553,-0.113 0.561,-0.164 0.628,-0.276 0.436,-0.252 0.578,-0.439 0.452,-0.453 0.239,-0.335 0.009,-0.058 -0.118,0.058 -0.427,0.298 -0.653,0.326 -0.612,0.214 -0.565,0.121 -0.704,0.088 -0.678,-0.012 -0.67,-0.122 -0.582,-0.175 -0.579,-0.277 -0.51,-0.314 -0.314,-0.277 -0.402,-0.447 -0.516,-0.779 -0.482,-0.855 -0.326,-0.364 -0.272,-0.201 -0.322,-0.138 -0.277,-0.059 z"
       inkscape:connector-curvature="0" /><path
       id="path568"
       style="fill:#ef4135;fill-opacity:1;fill-rule:nonzero;stroke:none"
       d="m 986.24656,506.10676 -0.315,0.008 -0.273,0.076 -0.372,0.239 -0.929,0.829 -0.657,0.574 -0.337,0.268 -0.301,0.247 -0.721,0.49 -0.448,0.238 -0.724,0.302 -0.62,0.138 -0.611,0.071 -0.401,-0.012 -0.495,-0.096 -0.62,-0.202 -0.134,-0.05 -0.042,0.017 0.113,0.121 0.277,0.189 0.641,0.339 0.573,0.239 0.884,0.238 0.535,0.097 0.554,0.062 0.967,-0.025 0.704,-0.083 0.732,-0.163 0.533,-0.202 0.477,-0.226 0.448,-0.289 0.603,-0.502 0.364,-0.398 0.265,-0.44 0.142,-0.343 0.082,-0.331 0.009,-0.365 -0.058,-0.305 -0.1,-0.243 -0.185,-0.247 -0.251,-0.164 -0.309,-0.096 z"
       inkscape:connector-curvature="0" /><path
       id="path572"
       style="fill:#0067b1;fill-opacity:1;fill-rule:nonzero;stroke:none"
       d="m 979.44836,506.38336 -0.093,0.021 -0.099,0.134 -0.155,0.289 -0.202,0.276 -0.221,0.189 -0.335,0.175 -0.277,0.072 -0.251,0.012 -0.301,-0.046 -0.067,0.017 -0.022,0.092 0.047,0.092 0.184,0.151 0.284,0.138 0.226,0.059 0.289,0.013 0.323,-0.072 0.239,-0.146 0.172,-0.176 0.125,-0.197 0.08,-0.268 0.075,-0.767 -0.021,-0.058 z"
       inkscape:connector-curvature="0" /><path
       id="path576"
       style="fill:#ef4135;fill-opacity:1;fill-rule:nonzero;stroke:none"
       d="m 974.93826,509.52426 -0.13,0.096 -0.382,0.373 -0.565,0.465 -0.573,0.402 -0.637,0.314 -0.603,0.214 -0.771,0.188 -0.548,0.071 -0.289,0.025 -0.729,-0.012 -0.708,-0.109 -0.888,-0.239 -0.846,-0.322 -0.335,-0.071 -0.28,0.021 -0.243,0.087 -0.172,0.138 -0.088,0.143 -0.054,0.239 0.042,0.335 0.126,0.314 0.188,0.272 0.247,0.214 0.352,0.239 0.385,0.188 0.511,0.163 0.62,0.134 0.352,0.038 0.74,-0.013 0.759,-0.134 0.658,-0.226 0.912,-0.452 0.717,-0.465 0.615,-0.465 0.691,-0.678 0.39,-0.465 0.414,-0.649 0.13,-0.281 0.009,-0.058 -0.017,-0.034 z"
       inkscape:connector-curvature="0" /><path
       id="path580"
       style="fill:#ef4135;fill-opacity:1;fill-rule:nonzero;stroke:none"
       d="m 977.87786,509.75036 -0.033,0.021 0.117,0.272 0.44,0.616 0.838,0.908 0.615,0.486 0.745,0.49 0.812,0.428 0.805,0.289 0.612,0.121 0.302,0.038 0.628,-0.013 0.368,-0.071 0.264,-0.113 0.251,-0.159 0.176,-0.18 0.125,-0.222 0.047,-0.197 -0.009,-0.235 -0.114,-0.259 -0.175,-0.227 -0.293,-0.163 -0.465,-0.138 -0.477,-0.046 -1.923,-0.113 -0.708,-0.109 -0.485,-0.126 -0.641,-0.213 -0.473,-0.201 -0.691,-0.39 -0.599,-0.46 -0.059,-0.034 z"
       inkscape:connector-curvature="0" /><path
       id="path584"
       style="fill:#ef4135;fill-opacity:1;fill-rule:nonzero;stroke:none"
       d="m 977.57636,510.42886 -0.029,0.017 0.012,0.18 0.19,0.77 0.25,0.8 0.403,0.905 0.452,0.829 0.301,0.423 0.541,0.603 0.233,0.226 0.391,0.302 0.401,0.251 0.499,0.201 0.302,0.072 0.452,-0.013 0.26,-0.084 0.221,-0.172 0.126,-0.159 0.08,-0.243 0.017,-0.259 -0.072,-0.222 -0.164,-0.247 -0.288,-0.277 -0.452,-0.289 -0.666,-0.339 -0.591,-0.293 -0.44,-0.289 -0.875,-0.653 -0.54,-0.528 -0.352,-0.436 -0.39,-0.62 -0.217,-0.398 -0.055,-0.058 z"
       inkscape:connector-curvature="0" /><path
       id="path588"
       style="fill:#ef4135;fill-opacity:1;fill-rule:nonzero;stroke:none"
       d="m 975.02536,510.45376 -0.079,0.08 -0.406,0.641 -0.314,0.414 -0.591,0.616 -0.766,0.628 -0.851,0.54 -1.406,0.758 -0.34,0.252 -0.213,0.234 -0.151,0.285 -0.059,0.214 0.009,0.28 0.113,0.256 0.159,0.159 0.197,0.113 0.213,0.058 0.301,0.013 0.403,-0.084 0.523,-0.251 0.499,-0.314 0.682,-0.599 0.511,-0.557 0.566,-0.767 0.339,-0.586 0.264,-0.603 0.226,-0.712 0.176,-0.729 0.021,-0.276 -0.026,-0.063 z"
       inkscape:connector-curvature="0" /><path
       id="path592"
       style="fill:#ffffff;fill-opacity:1;fill-rule:nonzero;stroke:none"
       d="m 973.37976,520.90726 -0.104,0.021 -0.164,0.159 -0.126,0.176 -0.033,0.121 0.008,0.222 0.063,0.289 0.39,0.905 0.502,0.863 0.843,1.219 0.979,1.155 0.428,0.457 0.603,0.599 0.954,0.829 1.327,1.005 0.956,0.591 0.992,0.552 0.792,0.34 0.523,0.108 0.196,-0.033 0.211,-0.176 0.074,-0.13 -0.012,-0.084 -0.095,-0.083 -0.911,-0.407 -0.911,-0.515 -0.491,-0.322 -0.238,-0.155 -0.956,-0.691 -0.264,-0.222 -0.791,-0.645 -1.055,-0.942 -0.879,-0.968 -0.231,-0.272 -0.41,-0.482 -0.766,-1.03 -0.541,-0.829 -0.616,-1.114 -0.179,-0.431 -0.068,-0.08 z"
       inkscape:connector-curvature="0" /><path
       id="path596"
       style="fill:#ffffff;fill-opacity:1;fill-rule:nonzero;stroke:none"
       d="m 972.04796,521.57316 -0.163,0.008 -0.13,0.101 -0.772,0.865 0.106,0.45 -0.012,0.184 -0.067,0.13 -0.402,0.465 -0.741,0.829 -1.747,1.885 -1.86,2.01 -0.703,0.792 -0.235,0.242 -0.138,0.21 -0.029,0.18 0.054,0.364 0.202,0.695 0.326,0.813 0.402,0.804 0.39,0.687 0.402,0.603 0.867,1.143 0.54,0.591 0.666,0.64 0.473,0.402 0.704,0.541 1.009,0.641 1.064,0.552 0.85,0.352 0.666,0.226 0.389,0.084 0.377,0.013 0.209,-0.059 0.147,-0.113 0.716,-0.779 0.214,-0.247 0.719,-0.804 0.411,-0.457 1.738,-1.893 0.36,-0.368 0.206,-0.247 1.621,-1.734 0.142,-0.088 0.139,-0.017 0.313,0.059 0.189,-0.009 0.13,-0.088 0.263,-0.285 0.156,-0.2 0.172,-0.201 0.02,-0.109 -0.071,-0.185 -0.126,-0.309 -0.109,-0.051 -0.499,-0.155 -1.088,-0.49 -0.665,-0.364 -1.592,-1.055 -0.792,-0.629 -1.034,-0.929 -0.887,-0.892 -0.646,-0.763 -0.41,-0.515 -0.641,-0.884 -0.641,-1.03 -0.326,-0.607 -0.202,-0.457 -0.129,-0.393 -0.047,-0.046 -0.146,-0.034 -0.168,-0.021 -0.134,-0.054 z"
       inkscape:connector-curvature="0" /><path
       id="path600"
       style="fill:#ffffff;fill-opacity:1;fill-rule:nonzero;stroke:none"
       d="m 970.40206,521.76136 -0.079,0.046 -0.277,0.289 -0.142,0.197 -0.611,0.867 -0.428,0.682 -0.314,0.574 -0.092,0.243 -0.004,0.042 0.105,-0.033 0.553,-0.54 0.904,-1.031 0.176,-0.285 0.029,-0.155 -0.066,-0.372 0.054,-0.176 0.196,-0.289 -0.004,-0.059 z"
       inkscape:connector-curvature="0" /><path
       id="path604"
       style="fill:#ef4135;fill-opacity:1;fill-rule:nonzero;stroke:none"
       d="m 971.54576,524.68886 -0.289,0.008 -0.322,0.088 -0.352,0.189 -0.348,0.276 -0.452,0.478 -0.527,0.686 -0.365,0.608 -0.193,0.477 -0.109,0.411 -0.033,0.385 0.041,0.348 0.105,0.406 0.247,0.511 -0.012,0.125 -0.214,0.335 -0.485,0.629 -0.244,0.351 -0.473,0.62 -0.092,0.189 0.03,0.155 0.201,0.347 0.175,0.247 0.105,0.021 0.079,-0.046 0.591,-0.724 2.739,-3.556 0.783,-1.043 0.424,-0.54 0.314,-0.415 0.033,-0.096 -0.008,-0.121 -0.364,-0.612 -0.277,-0.339 -0.222,-0.188 -0.247,-0.139 -0.239,-0.071 z"
       inkscape:connector-curvature="0" /><path
       id="path608"
       style="fill:#ffffff;fill-opacity:1;fill-rule:nonzero;stroke:none"
       d="m 971.40746,525.95786 -0.217,0.008 -0.264,0.114 -0.252,0.201 -0.314,0.339 -0.477,0.666 -0.188,0.356 -0.114,0.343 -0.021,0.122 0.009,0.234 0.062,0.188 0.051,0.059 0.096,0 0.138,-0.146 1.608,-2.061 0.101,-0.188 -0.013,-0.08 -0.083,-0.096 -0.122,-0.059 z"
       inkscape:connector-curvature="0" /><path
       id="path612"
       style="fill:#ef4135;fill-opacity:1;fill-rule:nonzero;stroke:none"
       d="m 973.15416,526.46056 -0.093,0.046 -0.921,1.646 -1.013,1.755 -1.244,2.261 -0.929,1.755 -0.022,0.126 0.084,0.167 0.264,0.314 0.122,0.113 0.125,0.113 0.105,0.03 0.109,-0.055 0.326,-0.314 0.201,-0.213 2.455,-2.564 0.414,-0.41 0.046,-0.008 -0.025,0.084 -0.666,1.063 -1.805,2.752 -0.188,0.335 0,0.134 0.138,0.172 0.452,0.339 0.193,0.079 0.092,-0.016 0.414,-0.34 0.239,-0.234 3.657,-3.497 1.495,-1.42 0.083,-0.13 -0.021,-0.105 -0.234,-0.188 -0.427,-0.276 -0.117,-0.03 -0.122,0.055 -0.226,0.222 -0.758,0.779 -0.361,0.356 -0.301,0.326 -0.226,0.235 -1.206,1.261 -0.666,0.724 -0.139,0.075 0.038,-0.113 0.189,-0.322 0.711,-1.118 0.859,-1.383 0.398,-0.603 0.356,-0.565 0.46,-0.716 0.035,-0.134 -0.059,-0.117 -0.553,-0.516 -0.092,-0.046 -0.097,0.022 -0.188,0.171 -1.026,1.085 -0.603,0.666 -1.889,1.956 -0.1,0.066 -0.009,-0.046 0.113,-0.243 1.253,-2.102 1.444,-2.567 0.055,-0.18 -0.064,-0.13 -0.418,-0.511 -0.117,-0.071 z"
       inkscape:connector-curvature="0" /><path
       id="path616"
       style="fill:#ffffff;fill-opacity:1;fill-rule:nonzero;stroke:none"
       d="m 964.71096,530.29246 -0.092,0.034 -0.201,0.234 -0.059,0.147 0.013,0.276 0.058,0.302 0.252,0.728 0.314,0.712 0.477,0.85 0.775,1.144 0.18,0.268 0.385,0.448 0.293,0.364 0.122,0.126 0.683,0.729 0.326,0.314 0.273,0.23 0.355,0.31 0.901,0.666 0.929,0.565 0.909,0.49 0.863,0.377 0.72,0.226 0.469,0.084 0.21,-0.008 0.121,-0.051 0.239,-0.234 0.042,-0.092 -0.038,-0.046 -0.724,-0.143 -0.842,-0.289 -1.102,-0.515 -0.778,-0.427 -1.089,-0.729 -0.796,-0.64 -0.561,-0.503 -0.591,-0.628 -0.816,-1.001 -0.541,-0.758 -0.64,-1.039 -0.478,-0.942 -0.264,-0.678 -0.243,-0.842 -0.054,-0.059 z"
       inkscape:connector-curvature="0" /><path
       id="path620"
       style="fill:#ef4135;fill-opacity:1;fill-rule:nonzero;stroke:none"
       d="m 977.88976,531.07146 -0.38,0.059 -0.335,0.125 -0.332,0.201 -0.69,0.603 -0.239,0.273 -0.03,0.079 0.043,0.084 0.184,0.126 0.448,0.238 0.113,0.009 0.104,-0.059 0.227,-0.222 0.217,-0.201 0.273,-0.176 0.264,-0.067 0.143,0.029 0.107,0.084 0.043,0.155 -0.067,0.189 -0.213,0.247 -0.236,0.201 -0.501,0.314 -0.65,0.314 -1.139,0.482 -1.043,0.515 -0.611,0.414 -0.327,0.323 -0.251,0.339 -0.138,0.339 -0.059,0.31 0.021,0.289 0.075,0.255 0.163,0.252 0.223,0.201 0.268,0.126 0.381,0.083 0.402,0 0.314,-0.071 0.435,-0.176 0.574,-0.377 0.428,-0.389 0.092,-0.151 -0.042,-0.096 -0.285,-0.164 -0.36,-0.15 -0.125,-0.009 -0.156,0.096 -0.305,0.273 -0.306,0.176 -0.277,0.071 -0.184,-0.033 -0.109,-0.097 -0.05,-0.134 0.012,-0.151 0.088,-0.167 0.222,-0.226 0.427,-0.289 0.495,-0.264 0.234,-0.088 0.113,-0.042 0.122,-0.071 1.152,-0.482 0.603,-0.301 0.598,-0.365 0.377,-0.301 0.277,-0.289 0.238,-0.339 0.13,-0.277 0.084,-0.339 0.008,-0.268 -0.045,-0.235 -0.126,-0.234 -0.185,-0.218 -0.251,-0.172 -0.298,-0.125 -0.225,-0.046 -0.152,-0.013 z"
       inkscape:connector-curvature="0" /><path
       id="path624"
       style="fill:#ffffff;fill-opacity:1;fill-rule:nonzero;stroke:none"
       d="m 982.33826,533.04406 -0.117,0.084 -0.239,0.209 -0.159,0.071 -0.18,-0.021 -0.134,-0.041 -0.146,0.021 -0.248,0.226 -0.531,0.573 -0.951,1.01 -0.047,0.104 0.135,-0.021 0.636,-0.389 0.842,-0.616 0.678,-0.603 0.44,-0.49 0.037,-0.096 -0.016,-0.021 z"
       inkscape:connector-curvature="0" /><path
       id="path628"
       style="fill:#0067b1;fill-opacity:1;fill-rule:nonzero;stroke:none"
       d="m 990.49726,458.06726 c 0.215,0 0.36,0.036 0.36,0.275 0,0.214 -0.229,0.24 -0.405,0.24 l -0.318,0 0,-0.515 0.363,0 z m -0.81,0.859 0.785,0 c 0.532,0 0.834,-0.156 0.834,-0.624 0,-0.381 -0.231,-0.532 -0.552,-0.558 l 0.552,-0.905 -0.459,0 -0.499,0.885 -0.214,0 0,-0.885 -0.447,0 0,2.087 z m 0.754,-2.513 c 0.743,0 1.337,0.594 1.337,1.462 0,0.864 -0.594,1.462 -1.337,1.462 -0.754,0 -1.337,-0.598 -1.337,-1.462 0,-0.868 0.583,-1.462 1.337,-1.462 m 0,3.339 c 1.034,0 1.878,-0.842 1.878,-1.877 0,-1.036 -0.844,-1.878 -1.878,-1.878 -1.036,0 -1.878,0.842 -1.878,1.878 0,1.035 0.842,1.877 1.878,1.877"
       inkscape:connector-curvature="0" /></g></svg>