<?xml version="1.0" encoding="UTF-8" standalone="no"?>
<!-- Created with Inkscape (http://www.inkscape.org/) -->

<svg
   xmlns:svg="http://www.w3.org/2000/svg"
   xmlns="http://www.w3.org/2000/svg"
   version="1.1"
   width="250"
   height="50"
   id="svg2">
  <defs
     id="defs4">
    <marker
       markerUnits="strokeWidth"
       refX="0"
       refY="5"
       markerWidth="4"
       markerHeight="3"
       orient="auto"
       viewBox="0 0 10 10"
       id="ArrowEnd">
      <path
         d="M 0,0 10,5 0,10 z"
         id="path7" />
    </marker>
    <marker
       markerUnits="strokeWidth"
       refX="10"
       refY="5"
       markerWidth="4"
       markerHeight="3"
       orient="auto"
       viewBox="0 0 10 10"
       id="ArrowStart">
      <path
         d="M 10,0 0,5 10,10 z"
         id="path10" />
    </marker>
  </defs>
  <g
     transform="matrix(0.33068776,0,0,0.33068776,5.0000011,-16.609773)"
     id="g2862">
    <path
       d="m 324.281,193.061 52.681,-87.212 c 1.585,-2.622 2.885,-5.401 3.883,-8.2826 0.584,-1.6876 0.849,-3.5051 0.803,-5.4783 l 32.33,0 c 6.701,0 2.373,2.6835 4.779,3.8657 4.968,-3.8189 8.633,-3.8657 16.187,-3.8657 l 26.618,0 c 21.121,0 14.698,14.4759 6.606,27.8339 l -18.34,30.274 c -13.523,22.323 -36.431,17.964 -58.626,17.964 -3.643,0 -6.583,0.156 -7.649,-1.295 -2.538,-3.457 -6.063,-0.201 -7.546,3.021 -3.183,6.922 -10.273,16.429 -11.701,20.554 -0.584,1.688 -0.858,3.531 -0.857,5.557 l -38.279,0 c -1.668,-0.113 -1.968,-1.15 -0.889,-2.936 z m 104.141,-85.281 -8.536,0 c -2.993,0 -5.227,0.441 -6.695,1.298 -1.468,0.857 -3.033,2.674 -4.733,5.479 l -17.5,28.976 c -1.514,2.492 -2.562,4.543 -3.119,6.153 -1.106,3.194 0.679,4.804 5.363,4.804 l 8.848,0 c 3.097,0 5.376,-0.572 6.865,-1.714 1.488,-1.142 3.569,-3.921 6.216,-8.335 l 16.136,-26.613 c 0.505,-0.857 1.044,-1.74 1.601,-2.596 0.849,-1.325 1.426,-2.389 1.704,-3.194 0.54,-1.558 0.354,-2.674 -0.576,-3.297 -0.92,-0.649 -2.764,-0.961 -5.574,-0.961 z m -123.036,25.107 -10.967,0.289 c -3.044,0.08 -5.175,0.364 -6.38,1.065 -1.206,0.701 -2.682,2.385 -4.286,5.089 l -2.722,4.586 c -0.967,1.629 -1.534,2.7 -1.704,3.194 -0.602,1.739 -0.479,2.897 0.365,3.531 0.85,0.638 2.686,0.96 5.47,0.96 l 9.213,0 c 3.305,0 5.493,-0.272 6.559,-0.83 1.063,-0.558 2.415,-2.061 3.873,-4.648 l 4.699,-8.34 c 2.344,-4.073 0.412,-5.015 -4.12,-4.896 z m -26.668,-40.5101 69.924,0 c 3.305,0 5.8,0.3115 7.545,0.9086 1.709,0.6233 3.232,1.7137 4.566,3.2715 1.505,1.8176 2.431,4.102 2.754,6.855 0.331,2.726 0.012,5.452 -0.914,8.126 -0.953,2.753 -2.704,6.232 -5.297,10.49 l -19.969,32.948 c -1.522,2.519 -2.822,5.297 -3.856,8.283 -0.566,1.636 -0.857,3.453 -0.907,5.478 l -36.979,0 c 0.048,-1.869 0.392,-3.764 1.066,-5.712 0.099,-0.285 0.315,-0.909 0.63,-1.817 -2.437,2.752 -4.975,4.673 -7.661,5.816 -2.686,1.142 -5.954,1.713 -9.805,1.713 l -22.12,0 c -7,0 -11.891,-1.583 -14.655,-4.725 -3.303,-3.687 -3.984,-8.334 -2.052,-13.917 0.719,-2.077 1.902,-4.44 3.512,-7.062 l 4.462,-7.4 c 4.089,-6.776 8.37,-11.476 12.887,-14.072 4.481,-2.571 10.577,-3.869 18.254,-3.869 l 35.756,0 c 2.784,0 4.697,-0.338 5.676,-0.987 1.836,-1.168 3.15,-2.934 3.977,-5.322 0.557,-1.61 0.371,-2.727 -0.602,-3.298 -0.965,-0.597 -3,-0.883 -6.096,-0.883 l -37.213,0 c -7.243,-0.052 -12.997,0.935 -17.264,2.96 l 14.381,-17.7851 z m -83.986,0 c 4.895,0.0236 2.082,3.6287 9.055,1.2982 1.918,-0.6408 4.692,-1.2982 8.569,-1.2982 l 25.165,0 c 7.052,0 11.763,2.0252 14.135,6.0756 2.173,3.8685 2.344,8.4125 0.537,13.6315 -1.159,3.349 -3.16,7.399 -6.028,12.151 l -18.685,30.819 c -1.522,2.519 -2.814,5.271 -3.829,8.205 -0.585,1.688 -0.875,3.505 -0.908,5.478 l -44.083,0 c 3.071,-2.934 5.462,-5.556 7.216,-7.841 1.754,-2.285 3.937,-5.582 6.548,-9.892 l 20.482,-33.831 c 2.054,-3.454 3.189,-5.453 3.387,-6.024 0.665,-1.921 -0.023,-3.168 -2.072,-3.713 -0.493,-0.156 -1.793,-0.234 -3.875,-0.234 l -9.004,0 c -2.992,0 -5.271,0.494 -6.801,1.454 -1.529,0.961 -3.166,2.908 -4.937,5.842 l -24.579,40.556 c -1.523,2.519 -2.823,5.297 -3.857,8.283 -0.557,1.61 -0.848,3.427 -0.881,5.4 l -44.057,0 c 2.994,-2.934 5.385,-5.556 7.165,-7.841 1.78,-2.285 3.988,-5.582 6.599,-9.892 l 27.191,-44.866 c 1.559,-2.622 2.85,-5.375 3.83,-8.2049 0.584,-1.6876 0.858,-3.531 0.856,-5.5562 l 32.861,0 z m 472.331,-0.7797 c 4.896,0.0236 2.082,3.6288 9.056,1.2982 1.917,-0.6407 4.691,-1.2982 8.568,-1.2982 l 25.165,0 c 7.052,0 11.764,2.0252 14.135,6.0756 2.174,3.8682 2.344,8.4122 0.537,13.6312 -1.159,3.349 -3.16,7.4 -6.028,12.151 l -18.685,30.82 c -1.522,2.518 -2.813,5.27 -3.829,8.204 -0.584,1.688 -0.875,3.506 -0.908,5.479 l -44.083,0 c 3.072,-2.934 5.463,-5.557 7.217,-7.841 1.753,-2.285 3.936,-5.583 6.547,-9.893 l 20.482,-33.831 c 2.055,-3.453 3.189,-5.453 3.387,-6.024 0.665,-1.921 -0.023,-3.167 -2.072,-3.713 -0.492,-0.155 -1.793,-0.233 -3.874,-0.233 l -9.004,0 c -2.993,0 -5.272,0.493 -6.801,1.454 -1.53,0.96 -3.167,2.908 -4.937,5.842 l -24.58,40.556 c -1.523,2.518 -2.823,5.296 -3.856,8.282 -0.558,1.61 -0.849,3.428 -0.881,5.401 l -44.058,0 c 2.994,-2.934 5.385,-5.557 7.165,-7.841 1.78,-2.285 3.989,-5.583 6.6,-9.893 l 27.191,-44.866 c 1.558,-2.622 2.849,-5.3743 3.829,-8.2046 0.584,-1.6876 0.858,-3.531 0.857,-5.5562 l 32.86,0 z M 173.916,55.6789 157.983,85.3868 C 155.084,82.65 143.958,81.8212 138.984,81.8212 l -49.0326,0 c -2.7307,0 -4.7698,0.2154 -6.0646,0.6504 -1.3126,0.441 -2.6117,1.276 -3.8077,2.5726 -0.7078,0.7675 -2.3326,4.0737 -3.8463,6.4546 -2.4809,3.9028 1.0785,5.4955 5.6352,5.4955 l 34.96,0 c 6.125,0 14.659,0.6026 17.032,2.3216 3.619,2.6221 6.928,9.4081 5.32,13.9871 -5.051,14.381 -14.367,31.845 -24.901,43.334 -5.432,5.925 -13.217,9.769 -21.1115,11.139 -3.3443,0.581 -9.4893,1.031 -18.4503,0.961 L 0,168.159 17.5712,138.383 c 9.6935,7.132 36.7807,3.056 48.6224,3.056 6.5693,0 7.6786,8.217 21.6725,9.808 6.9511,0.789 9.6646,-1.199 9.8691,-3.089 0.3672,-3.392 -9.5665,-2.346 -10.6516,-4.393 -3.9178,-7.391 -1.1368,-14.792 2.3828,-17.06 4.5255,-2.916 14.2646,1.732 15.1796,0.759 3.407,-3.624 -15.7891,-13.932 -21.1007,-9.56 l -7.313,6.019 c -2.7138,2.234 -18.9799,2.207 -27.1703,2.444 -14.368,0.416 -19.7349,-5.202 -16.0909,-15.578 4.4421,-12.6464 14.2713,-25.3231 21.3184,-36.9579 6.7593,-11.1596 12.9465,-14.7252 26.2971,-17.571 3.6022,-0.7677 7.7097,-0.5812 12.3673,-0.5812 l 80.9621,0 z m 378.184,37.0422 46.226,0 c 3.549,0 6.127,0.1814 7.733,0.544 1.64,0.3369 3.193,1.0625 4.735,2.1768 2.322,1.6842 3.779,4.042 4.346,7.0741 0.593,3.031 0.219,6.374 -1.096,10.027 -0.905,2.514 -2.39,5.416 -4.43,8.707 l -17.231,27.854 c -2.545,4.12 -4.831,7.23 -6.813,9.354 -2.009,2.125 -4.531,4.094 -7.568,5.908 -2.924,1.788 -5.996,2.98 -9.226,3.602 -3.239,0.648 -7.911,0.959 -13.974,0.959 l -45.993,0 c -5.934,0 -9.85,-0.208 -11.738,-0.648 -1.898,-0.415 -3.597,-1.451 -5.083,-3.084 -3.394,-3.886 -3.966,-8.991 -1.69,-15.313 0.662,-1.84 1.773,-3.991 3.307,-6.452 l 0.12,-0.194 c 11.455,0.148 21.73,0.259 34.431,0.099 4.715,0.054 2.332,4.692 1.744,6.325 -0.549,1.528 -0.364,2.606 0.526,3.29 0.896,0.689 2.607,0.994 5.12,1.037 l 8.491,0.144 c 3.342,0.057 5.741,-0.381 7.182,-1.166 1.46,-0.795 3.023,-2.565 4.702,-5.286 l 18.303,-29.539 c 1.436,-2.332 2.39,-4.12 2.847,-5.389 0.672,-1.866 0.561,-3.213 -0.368,-4.017 -0.928,-0.803 -2.748,-1.218 -5.495,-1.218 l -9.406,0 c -3.55,0 -6.144,0.441 -7.799,1.296 -1.63,0.855 -3.345,2.669 -5.104,5.467 -1.37,2.794 -2.928,2.324 -9.231,2.874 l -29.968,0.18 4.505,-7.303 c 4.087,-6.53 8.871,-11.0384 14.362,-13.5518 5.517,-2.5134 13.35,-3.7571 23.533,-3.7571 z m -83.248,42.9939 c 1.636,-2.406 3.273,-4.813 4.909,-7.22 4.91,-5.198 10.975,-7.316 18.195,-6.354 15.981,-0.096 31.962,-0.192 47.942,-0.288 5.99,-0.587 4.537,2.208 2.022,5.487 -1.348,2.696 -2.696,5.391 -4.043,8.087 -2.311,2.31 -5.392,3.465 -9.242,3.465 -18.773,-0.192 -37.545,-0.385 -56.318,-0.577 -3.08,-0.097 -4.236,-0.963 -3.465,-2.6 z"
       id="path18"
       style="fill:#ff0000;stroke:none" />
  </g>
  <g
     transform="translate(0,-145.997)"
     id="g24" />
  <g
     transform="translate(0,-145.997)"
     id="g26" />
</svg>
