<?xml version="1.0" encoding="UTF-8" standalone="no"?>
<!-- Created with Inkscape (http://www.inkscape.org/) -->

<svg
   xmlns:dc="http://purl.org/dc/elements/1.1/"
   xmlns:cc="http://creativecommons.org/ns#"
   xmlns:rdf="http://www.w3.org/1999/02/22-rdf-syntax-ns#"
   xmlns:svg="http://www.w3.org/2000/svg"
   xmlns="http://www.w3.org/2000/svg"
   xmlns:sodipodi="http://sodipodi.sourceforge.net/DTD/sodipodi-0.dtd"
   xmlns:inkscape="http://www.inkscape.org/namespaces/inkscape"
   width="249.38986"
   height="36.221882"
   viewBox="0 0 65.984401 9.5837067"
   version="1.1"
   id="svg6480"
   inkscape:version="0.92.0 r15299"
   sodipodi:docname="southern company.svg">
  <defs
     id="defs6474">
    <clipPath
       id="clipPath1318"
       clipPathUnits="userSpaceOnUse">
      <path
         inkscape:connector-curvature="0"
         id="path1316"
         d="M 230.051,292.118 H 364.5 V 309.83 H 230.051 Z" />
    </clipPath>
    <clipPath
       id="clipPath52"
       clipPathUnits="userSpaceOnUse">
      <path
         inkscape:connector-curvature="0"
         id="path50"
         d="m 203.854,340.474 h 186.293 v 26.417 H 203.854 Z" />
    </clipPath>
  </defs>
  <sodipodi:namedview
     id="base"
     pagecolor="#ffffff"
     bordercolor="#666666"
     borderopacity="1.0"
     inkscape:pageopacity="0.0"
     inkscape:pageshadow="2"
     inkscape:zoom="3.2287953"
     inkscape:cx="124.19493"
     inkscape:cy="17.61096"
     inkscape:document-units="mm"
     inkscape:current-layer="layer1"
     showgrid="false"
     fit-margin-top="0"
     fit-margin-left="0"
     fit-margin-right="0"
     fit-margin-bottom="0"
     units="px"
     inkscape:window-width="1280"
     inkscape:window-height="744"
     inkscape:window-x="-4"
     inkscape:window-y="-4"
     inkscape:window-maximized="1" />
  <metadata
     id="metadata6477">
    <rdf:RDF>
      <cc:Work
         rdf:about="">
        <dc:format>image/svg+xml</dc:format>
        <dc:type
           rdf:resource="http://purl.org/dc/dcmitype/StillImage" />
        <dc:title></dc:title>
      </cc:Work>
    </rdf:RDF>
  </metadata>
  <g
     inkscape:label="Layer 1"
     inkscape:groupmode="layer"
     id="layer1"
     transform="translate(-115.30676,-180.73687)">
    <g
       id="g6556"
       transform="translate(0.13229257,-0.13228666)">
      <path
         inkscape:connector-curvature="0"
         id="path32"
         style="fill:#0a7abc;fill-opacity:1;fill-rule:nonzero;stroke:none;stroke-width:0.35277778"
         d="m 115.30676,188.96435 h 9.19551 l -10e-4,-0.002 -6.13798,-1.52964 z" />
      <path
         inkscape:connector-curvature="0"
         id="path36"
         style="fill:#a6d71c;fill-opacity:1;fill-rule:nonzero;stroke:none;stroke-width:0.35277778"
         d="m 115.30676,188.96435 3.05647,-1.53176 -1.8983,-0.47343 z" />
      <path
         inkscape:connector-curvature="0"
         id="path40"
         style="fill:#40c1f3;fill-opacity:1;fill-rule:nonzero;stroke:none;stroke-width:0.35277778"
         d="m 118.36351,187.43238 6.13727,1.53 -2.06269,-3.57294 z" />
      <path
         inkscape:connector-curvature="0"
         id="path44"
         style="fill:#ed1c24;fill-opacity:1;fill-rule:nonzero;stroke:none;stroke-width:0.35277778"
         d="m 119.90461,181.00145 -3.19581,5.53544 5.48357,-1.57233 -2.28741,-3.96311 z" />
      <g
         transform="matrix(0.35277777,0,0,-0.35277777,43.39174,310.43223)"
         clip-path="url(#clipPath52)"
         id="g48">
        <g
           transform="translate(383.017,354.2574)"
           id="g54">
          <path
             inkscape:connector-curvature="0"
             id="path56"
             style="fill:#5a5758;fill-opacity:1;fill-rule:nonzero;stroke:none"
             d="M 0,0 2.543,-7.399 5.043,0 h 2.086 c 0,0 -2.871,-7.75 -3.967,-10.746 -0.993,-2.707 -2.645,-2.851 -3.493,-2.851 -0.371,0 -0.744,0.061 -0.806,0.081 l -0.268,1.778 c 0.062,-0.02 0.559,-0.187 1.095,-0.187 1.012,0 1.363,0.704 1.53,1.159 0.164,0.454 0.31,0.887 0.31,0.887 L -2.108,0 Z M -3.032,-2.811 V -9.94 h -2.025 v 6.447 c 0,1.137 -0.372,1.902 -1.591,1.902 -1.033,0 -2.087,-0.992 -2.5,-1.508 V -9.94 h -2.026 V 0 h 1.737 l 0.165,-1.281 c 0.434,0.392 1.694,1.468 3.285,1.468 1.985,0 2.955,-1.2 2.955,-2.998 m -12.103,-2.212 c -2.273,-0.227 -4.152,-0.702 -4.152,-2.086 0,-0.889 0.619,-1.323 1.528,-1.323 1.364,0 2.397,1.075 2.624,1.303 z m 0.249,-4.917 -0.083,1.22 c -0.186,-0.29 -1.179,-1.427 -2.955,-1.427 -1.86,0 -3.348,0.972 -3.348,3.101 0,2.975 4.03,3.389 6.137,3.616 v 0.309 c 0,0.724 -0.288,1.591 -1.942,1.591 -1.488,0 -3.016,-0.785 -3.265,-0.909 l -0.268,1.777 c 0.288,0.145 1.901,0.849 3.677,0.849 2.956,0 3.823,-1.344 3.823,-3.513 V -9.94 Z m -14.102,7.068 v -5.209 c 0.165,-0.061 0.971,-0.351 1.902,-0.351 1.942,0 2.912,1.488 2.912,3.452 0,2.086 -0.887,3.45 -2.458,3.45 -1.178,0 -2.149,-1.094 -2.356,-1.342 m -0.186,1.591 c 0.227,0.248 1.281,1.468 3.101,1.468 2.354,0 3.925,-1.654 3.925,-5.167 0,-3.659 -2.438,-5.167 -4.794,-5.167 -0.972,0 -1.901,0.351 -2.046,0.414 v -3.472 l -2.025,-0.579 V 0 h 1.652 z m -3.704,-1.53 V -9.94 h -2.005 v 6.447 c 0,1.137 -0.331,1.902 -1.551,1.902 -1.033,0 -2.025,-0.972 -2.437,-1.508 V -9.94 h -2.025 v 6.447 c 0,1.137 -0.331,1.902 -1.551,1.902 -1.033,0 -2.025,-0.992 -2.439,-1.508 V -9.94 h -2.025 V 0 h 1.737 l 0.164,-1.281 c 0.434,0.392 1.674,1.468 3.266,1.468 1.384,0 2.232,-0.58 2.624,-1.551 0.641,0.619 1.84,1.551 3.389,1.551 1.984,0 2.853,-1.2 2.853,-2.998 M -52.75,-8.432 c 1.55,0 2.563,1.467 2.563,3.452 0,2.005 -0.993,3.45 -2.563,3.45 -1.736,0 -2.562,-1.652 -2.562,-3.45 0,-1.922 0.93,-3.452 2.562,-3.452 m 0,-1.715 c -2.562,0 -4.609,1.654 -4.609,5.167 0,3.472 2.088,5.167 4.609,5.167 2.646,0 4.588,-1.819 4.588,-5.167 0,-3.432 -2.066,-5.167 -4.588,-5.167 M -58.237,3.369 -58.546,1.26 c -0.269,0.228 -1.716,1.384 -3.823,1.384 -2.977,0 -4.444,-2.396 -4.444,-5.455 0,-3.245 1.591,-5.434 4.444,-5.434 1.983,0 3.554,1.136 4.029,1.508 l 0.29,-2.107 c -0.187,-0.228 -1.591,-1.303 -4.339,-1.303 -3.866,0 -6.614,2.79 -6.614,7.336 0,4.526 2.748,7.337 6.614,7.337 2.561,0 3.864,-0.95 4.152,-1.157 m -16.707,-6.18 V -9.94 h -2.025 v 6.447 c 0,1.137 -0.372,1.902 -1.592,1.902 -1.033,0 -2.086,-0.992 -2.5,-1.508 V -9.94 h -2.025 V 0 h 1.737 l 0.164,-1.281 c 0.435,0.392 1.695,1.468 3.286,1.468 1.985,0 2.955,-1.2 2.955,-2.998 m -12.897,1.033 c 0.599,0.869 1.736,1.965 3.43,1.965 l 0.29,-1.819 c -1.57,0 -2.666,-0.641 -3.616,-2.171 V -9.94 h -2.025 V 0 h 1.674 z m -5.669,-1.921 c -0.124,0.661 -0.394,2.272 -2.192,2.272 -1.445,0 -2.086,-1.28 -2.253,-2.272 z m -4.548,-1.571 c 0.022,-1.054 0.414,-3.142 2.79,-3.142 1.839,0 3.225,1.138 3.513,1.407 l 0.29,-1.778 c -0.414,-0.351 -1.654,-1.364 -4.03,-1.364 -2.728,0 -4.587,1.839 -4.587,5.187 0,3.472 2.087,5.167 4.402,5.167 2.955,0 4.236,-2.419 4.236,-4.98 V -5.27 Z m -3.458,2.459 V -9.94 h -2.005 v 6.447 c 0,1.137 -0.392,1.902 -1.611,1.902 -1.033,0 -2.066,-0.992 -2.501,-1.508 V -9.94 h -2.005 V 4.422 l 2.005,0.579 v -6.178 c 0.435,0.371 1.612,1.364 3.162,1.364 1.983,0 2.955,-1.2 2.955,-2.998 m -9.766,-7.149 c -0.083,-0.021 -0.765,-0.187 -1.55,-0.187 -1.9,0 -2.893,0.952 -2.893,2.935 v 5.497 h -1.426 V 0 h 1.426 v 2.687 l 2.004,0.578 V 0 h 2.088 l 0.29,-1.715 h -2.378 v -5.29 c 0,-0.93 0.517,-1.24 1.262,-1.24 0.412,0 0.805,0.061 0.909,0.103 z m -15.564,2.831 V 0 h 2.025 v -6.447 c 0,-1.157 0.371,-1.902 1.591,-1.902 1.033,0 2.086,0.972 2.5,1.488 V 0 h 2.026 v -9.94 h -1.736 l -0.166,1.26 c -0.434,-0.371 -1.674,-1.467 -3.286,-1.467 -1.983,0 -2.954,1.22 -2.954,3.018 m -5.918,-1.303 c 1.549,0 2.561,1.467 2.561,3.452 0,2.005 -0.99,3.45 -2.561,3.45 -1.737,0 -2.563,-1.652 -2.563,-3.45 0,-1.922 0.93,-3.452 2.563,-3.452 m 0,-1.715 c -2.563,0 -4.609,1.654 -4.609,5.167 0,3.472 2.087,5.167 4.609,5.167 2.644,0 4.587,-1.819 4.587,-5.167 0,-3.432 -2.066,-5.167 -4.587,-5.167 m -15.121,0.992 0.331,2.066 c 0.309,-0.207 1.715,-1.156 4.051,-1.156 1.798,0 2.954,0.765 2.954,2.004 0,0.93 -0.578,1.529 -2.066,2.273 -0.33,0.165 -1.777,0.786 -2.274,1.013 -1.715,0.785 -2.831,1.942 -2.831,3.823 0,2.15 1.777,3.658 4.775,3.658 2.086,0 3.367,-0.703 3.697,-0.889 l -0.351,-1.983 c -0.351,0.205 -1.652,0.99 -3.45,0.99 -1.694,0 -2.563,-0.785 -2.563,-1.818 0,-0.867 0.599,-1.384 1.695,-1.901 0.392,-0.185 2.169,-0.93 2.5,-1.074 2.066,-0.95 2.997,-2.17 2.997,-3.927 0,-2.417 -2.005,-4.071 -5.002,-4.071 -2.685,0 -4.091,0.765 -4.463,0.992" />
        </g>
      </g>
    </g>
  </g>
</svg>
