<svg version="1.0" id="Layer_1" xmlns="http://www.w3.org/2000/svg" xmlns:xlink="http://www.w3.org/1999/xlink" x="0px" y="0px"
	 width="52px" height="30px" viewBox="0 0 52 30" enable-background="new 0 0 52 30" xml:space="preserve">
<g>
	<path fill="#00447C" d="M39.67,27.08c0,0.988-0.12,2.628-2.436,2.628c-0.488,0-1.526-0.003-2.147-0.632
		c-0.395-0.398-0.578-1.037-0.578-1.999v-3.47c0-0.324-0.204-0.414-0.703-0.414V22.75h3.055v0.443c-0.496,0-0.699,0.09-0.699,0.414
		v3.695c0,0.837,0.064,1.779,1.324,1.814c1.412,0.046,1.521-1.121,1.521-1.925v-3.562c0-0.324-0.055-0.438-0.554-0.438h-0.174V22.75
		h2.106v0.443h-0.169c-0.487,0-0.547,0.113-0.547,0.438V27.08z"/>
	<path fill="#00447C" d="M50.414,29.522h-3.389v-0.434h0.221c0.516,0,0.646-0.21,0.646-0.531v-5.219h-0.663
		c-0.352,0-0.489,0.079-0.604,0.248c-0.127,0.182-0.127,0.65-0.135,0.974h-0.588V22.75h5.644v1.811h-0.591
		c-0.008-0.323-0.008-0.792-0.137-0.974c-0.114-0.169-0.254-0.248-0.601-0.248h-0.671v5.219c0,0.321,0.13,0.531,0.645,0.531h0.224
		V29.522z"/>
	<g>
		<path fill="#00447C" d="M45.78,27.633c-0.099,1.112-0.969,2.075-2.729,2.075c-0.97,0-1.997-0.311-2.391-0.593v-1.673h0.608
			c0.008,0.191,0.008,0.359,0.046,0.591c0.034,0.18,0.085,0.342,0.213,0.491c0.239,0.284,0.693,0.598,1.535,0.612
			c1.068,0.019,1.559-0.57,1.551-1.11c-0.013-0.774-0.424-0.904-1.905-1.241c-1.475-0.344-2.071-0.899-2.064-2.105
			c0.006-1.126,0.842-2.148,2.623-2.131c1.061,0.012,1.617,0.189,2.113,0.425v1.587h-0.598c-0.007-0.16-0.018-0.364-0.039-0.564
			c-0.013-0.188-0.071-0.364-0.229-0.496c-0.457-0.38-1.055-0.399-1.464-0.382c-0.553,0.021-1.284,0.315-1.284,0.947
			c-0.005,0.61,0.243,0.819,1.515,1.08c1.149,0.232,1.625,0.387,2.011,0.78C45.697,26.35,45.846,26.941,45.78,27.633"/>
		<path fill="#00447C" d="M7.13,27.151c-0.144,1.337-1.182,2.554-3.502,2.554c-1.271,0-2.587-0.4-3.102-0.783v-2.247h0.708
			c0.013,0.256,0.021,0.477,0.061,0.721c0.037,0.229,0.115,0.476,0.263,0.674c0.408,0.513,1.021,0.885,2.064,0.9
			c1.552,0.019,2.066-0.878,2.058-1.639c-0.012-0.947-0.667-1.207-2.427-1.646c-1.684-0.42-2.79-1.046-2.799-2.691
			c-0.007-1.563,1.117-2.802,3.404-2.802c1.373,0,2.107,0.273,2.716,0.567v1.99H5.911c-0.01-0.204-0.019-0.486-0.069-0.72
			c-0.057-0.283-0.214-0.53-0.386-0.649c-0.57-0.392-1.106-0.488-1.793-0.458c-0.961,0.037-1.74,0.516-1.753,1.32
			c-0.015,0.806,0.298,1.18,1.986,1.548c1.41,0.312,2.163,0.594,2.623,1.047C7.135,25.461,7.23,26.226,7.13,27.151"/>
	</g>
	<path fill="#00447C" d="M14.264,23.193c0.498,0,0.536,0.09,0.536,0.414v5.039c0,0.318-0.058,0.442-0.557,0.442h-0.177v0.434h2.122
		v-0.434h-0.175c-0.497,0-0.557-0.124-0.557-0.442v-4.24l2.855,5.116h1.604v-5.871c0-0.322,0.063-0.458,0.564-0.458h0.478v-0.752
		c0-0.644,0.053-1.397,1.002-1.397h1.063v7.254c0,0.61-0.143,0.791-0.842,0.791h-0.236v0.434h4.054v-0.434h-0.228
		c-0.705,0-0.865-0.181-0.865-0.791v-7.254h1.056c0.935,0,0.99,0.754,0.99,1.397v0.752h0.658c0.507,0,0.545,0.113,0.545,0.438v5.024
		c0,0.322-0.215,0.434-0.729,0.434v0.434h3.133v-0.434c-0.509,0-0.73-0.111-0.73-0.434v-5.377h0.831
		c0.651,0,1.134,0.237,1.134,1.233c0,0.626-0.253,1.338-1.155,1.338h-0.495c0,0,1.239,2.507,1.465,2.969
		c0.29,0.58,0.655,0.704,1.369,0.704h1.228v-0.434c-0.173,0-0.512-0.024-0.702-0.326l-1.465-2.554
		c0.822-0.172,1.414-0.805,1.414-1.709c0-1.662-1.664-1.75-2.748-1.75h-3.086v-2.391h-7.332v2.391h-1.762v0.443h0.179
		c0.497,0,0.553,0.132,0.553,0.458v4.189l-2.835-5.091h-4.462v0.443h0.175c0.501,0,0.559,0.09,0.559,0.414v3.585
		c0,0.804-0.112,1.971-1.524,1.925c-1.26-0.035-1.326-0.978-1.326-1.814v-3.695c0-0.324,0.203-0.414,0.702-0.414V22.75h-3.06v0.443
		c0.498,0,0.699,0.09,0.699,0.414v3.47c0,0.962,0.189,1.601,0.566,1.999c0.635,0.629,1.679,0.632,2.162,0.632
		c2.302,0,2.423-1.64,2.423-3.044v-3.48c0,0.1,0.039,0.01,0.535,0.01H14.264z"/>
	<g>
		<linearGradient id="SVGID_1_" gradientUnits="userSpaceOnUse" x1="6.355" y1="15.5039" x2="19.3742" y2="-0.0118">
			<stop  offset="0.3427" style="stop-color:#FDB913"/>
			<stop  offset="0.3656" style="stop-color:#FBB415"/>
			<stop  offset="0.5519" style="stop-color:#EF941B"/>
			<stop  offset="0.7247" style="stop-color:#E8801D"/>
			<stop  offset="0.8776" style="stop-color:#E4741E"/>
			<stop  offset="0.9944" style="stop-color:#E36F1E"/>
		</linearGradient>
		<path fill="url(#SVGID_1_)" d="M6.818,11.481l-0.146,0.405c-0.125,0.339-0.142,0.945-0.049,1.268l0.749,3.872
			c0.059,0.336,0.165,0.476,0.277,0.456c0.122-0.031,0.109-0.286,0.038-0.87l-0.565-5.132C7.082,11.157,6.94,11.151,6.818,11.481"/>
		<linearGradient id="SVGID_2_" gradientUnits="userSpaceOnUse" x1="6.7905" y1="15.9121" x2="19.7617" y2="0.4537">
			<stop  offset="0.3427" style="stop-color:#FDB913"/>
			<stop  offset="0.3656" style="stop-color:#FBB415"/>
			<stop  offset="0.5519" style="stop-color:#EF941B"/>
			<stop  offset="0.7247" style="stop-color:#E8801D"/>
			<stop  offset="0.8776" style="stop-color:#E4741E"/>
			<stop  offset="0.9944" style="stop-color:#E36F1E"/>
		</linearGradient>
		<path fill="url(#SVGID_2_)" d="M8.405,15.549c0.014,0.334,0.05,0.734-0.064,0.763c-0.106,0.022-0.171-0.108-0.226-0.539
			l-0.243-2.286c-0.043-0.328,0.013-1.022,0.135-1.265c0.124-0.243,0.238-0.181,0.251,0.145L8.405,15.549z"/>
		<linearGradient id="SVGID_3_" gradientUnits="userSpaceOnUse" x1="5.9561" y1="15.2412" x2="18.8799" y2="-0.1608">
			<stop  offset="0.3427" style="stop-color:#FDB913"/>
			<stop  offset="0.3656" style="stop-color:#FBB415"/>
			<stop  offset="0.5519" style="stop-color:#EF941B"/>
			<stop  offset="0.7247" style="stop-color:#E8801D"/>
			<stop  offset="0.8776" style="stop-color:#E4741E"/>
			<stop  offset="0.9944" style="stop-color:#E36F1E"/>
		</linearGradient>
		<path fill="url(#SVGID_3_)" d="M9.423,7.856l-0.292,6.661c-0.005,0.303-0.025,0.689-0.138,0.663
			c-0.063-0.015-0.139-0.191-0.145-0.495L8.72,9.217C8.712,8.945,8.816,8.496,8.962,8.224l0.201-0.378
			C9.309,7.581,9.446,7.585,9.423,7.856"/>
		<linearGradient id="SVGID_4_" gradientUnits="userSpaceOnUse" x1="6.7451" y1="15.9326" x2="19.6373" y2="0.5683">
			<stop  offset="0.3427" style="stop-color:#FDB913"/>
			<stop  offset="0.3656" style="stop-color:#FBB415"/>
			<stop  offset="0.5519" style="stop-color:#EF941B"/>
			<stop  offset="0.7247" style="stop-color:#E8801D"/>
			<stop  offset="0.8776" style="stop-color:#E4741E"/>
			<stop  offset="0.9944" style="stop-color:#E36F1E"/>
		</linearGradient>
		<path fill="url(#SVGID_4_)" d="M10.423,9.218l-0.453,5.08c-0.046,0.359-0.099,0.728-0.205,0.723
			c-0.072-0.002-0.135-0.226-0.099-0.562l0.188-4.361c0.032-0.315,0.244-0.788,0.379-1.03C10.37,8.832,10.473,8.94,10.423,9.218"/>
		<linearGradient id="SVGID_5_" gradientUnits="userSpaceOnUse" x1="6.2295" y1="15.5225" x2="19.0933" y2="0.1919">
			<stop  offset="0.3427" style="stop-color:#FDB913"/>
			<stop  offset="0.3656" style="stop-color:#FBB415"/>
			<stop  offset="0.5519" style="stop-color:#EF941B"/>
			<stop  offset="0.7247" style="stop-color:#E8801D"/>
			<stop  offset="0.8776" style="stop-color:#E4741E"/>
			<stop  offset="0.9944" style="stop-color:#E36F1E"/>
		</linearGradient>
		<path fill="url(#SVGID_5_)" d="M10.595,13.938c-0.087-0.011-0.091-0.371-0.067-0.616l0.712-7.031
			c0.039-0.26,0.228-0.66,0.416-0.891l0.068-0.084c0.195-0.235,0.338-0.213,0.285,0.04l-1.2,7.974
			C10.747,13.674,10.702,13.938,10.595,13.938"/>
		<linearGradient id="SVGID_6_" gradientUnits="userSpaceOnUse" x1="7.1191" y1="16.2891" x2="19.9502" y2="0.9976">
			<stop  offset="0.3427" style="stop-color:#FDB913"/>
			<stop  offset="0.3656" style="stop-color:#FBB415"/>
			<stop  offset="0.5519" style="stop-color:#EF941B"/>
			<stop  offset="0.7247" style="stop-color:#E8801D"/>
			<stop  offset="0.8776" style="stop-color:#E4741E"/>
			<stop  offset="0.9944" style="stop-color:#E36F1E"/>
		</linearGradient>
		<path fill="url(#SVGID_6_)" d="M12.717,6.52c0.157-0.178,0.417-0.077,0.361,0.175l-1.557,7.103
			c-0.056,0.254-0.167,0.646-0.283,0.633c-0.096-0.007-0.089-0.38-0.02-0.682l1.12-6.423C12.393,7.067,12.557,6.694,12.717,6.52"/>
		<linearGradient id="SVGID_7_" gradientUnits="userSpaceOnUse" x1="7.9619" y1="17.001" x2="20.7021" y2="1.8178">
			<stop  offset="0.3427" style="stop-color:#FDB913"/>
			<stop  offset="0.3656" style="stop-color:#FBB415"/>
			<stop  offset="0.5519" style="stop-color:#EF941B"/>
			<stop  offset="0.7247" style="stop-color:#E8801D"/>
			<stop  offset="0.8776" style="stop-color:#E4741E"/>
			<stop  offset="0.9944" style="stop-color:#E36F1E"/>
		</linearGradient>
		<path fill="url(#SVGID_7_)" d="M12.876,13.716c-0.113,0.245-0.252,0.597-0.41,0.53c-0.114-0.045,0.115-0.6,0.115-0.6l3.861-9.417
			c0.124-0.274,0.4-0.625,0.701-0.478c0.269,0.13-0.02,0.66-0.126,0.899C14.676,9.913,14.009,11.272,12.876,13.716"/>
		<linearGradient id="SVGID_8_" gradientUnits="userSpaceOnUse" x1="8.4399" y1="17.4053" x2="21.1378" y2="2.2726">
			<stop  offset="0.3427" style="stop-color:#FDB913"/>
			<stop  offset="0.3656" style="stop-color:#FBB415"/>
			<stop  offset="0.5519" style="stop-color:#EF941B"/>
			<stop  offset="0.7247" style="stop-color:#E8801D"/>
			<stop  offset="0.8776" style="stop-color:#E4741E"/>
			<stop  offset="0.9944" style="stop-color:#E36F1E"/>
		</linearGradient>
		<path fill="url(#SVGID_8_)" d="M13.744,13.252c0.092,0.07,0.309-0.188,0.478-0.481L21.29,0.998
			c0.125-0.212,0.197-0.553-0.057-0.68c-0.198-0.099-0.54,0.094-0.702,0.381l-6.569,11.859
			C13.769,12.915,13.655,13.181,13.744,13.252"/>
		<linearGradient id="SVGID_9_" gradientUnits="userSpaceOnUse" x1="9.6948" y1="18.4668" x2="22.3543" y2="3.3799">
			<stop  offset="0.3427" style="stop-color:#FDB913"/>
			<stop  offset="0.3656" style="stop-color:#FBB415"/>
			<stop  offset="0.5519" style="stop-color:#EF941B"/>
			<stop  offset="0.7247" style="stop-color:#E8801D"/>
			<stop  offset="0.8776" style="stop-color:#E4741E"/>
			<stop  offset="0.9944" style="stop-color:#E36F1E"/>
		</linearGradient>
		<path fill="url(#SVGID_9_)" d="M13.907,14.521c-0.092-0.091,0.065-0.382,0.254-0.675l7.548-10.955
			c0.204-0.31,0.654-0.653,0.93-0.493c0.25,0.145,0.254,0.457,0.043,0.75l-8.239,10.906C14.239,14.348,14.003,14.618,13.907,14.521"
			/>
		<linearGradient id="SVGID_10_" gradientUnits="userSpaceOnUse" x1="11.2842" y1="19.8027" x2="23.9045" y2="4.7624">
			<stop  offset="0.3427" style="stop-color:#FDB913"/>
			<stop  offset="0.3656" style="stop-color:#FBB415"/>
			<stop  offset="0.5519" style="stop-color:#EF941B"/>
			<stop  offset="0.7247" style="stop-color:#E8801D"/>
			<stop  offset="0.8776" style="stop-color:#E4741E"/>
			<stop  offset="0.9944" style="stop-color:#E36F1E"/>
		</linearGradient>
		<path fill="url(#SVGID_10_)" d="M16.14,13.251c0,0-0.499,0.522-0.603,0.405c-0.108-0.113,0.095-0.332,0.315-0.613l0.247-0.298
			L26.647,0.647c0.17-0.208,0.402-0.218,0.625-0.053l0.319,0.393c0.174,0.198,0.162,0.541-0.03,0.733L16.14,13.251z"/>
		<linearGradient id="SVGID_11_" gradientUnits="userSpaceOnUse" x1="12.5693" y1="20.8867" x2="25.1478" y2="5.8963">
			<stop  offset="0.3427" style="stop-color:#FDB913"/>
			<stop  offset="0.3656" style="stop-color:#FBB415"/>
			<stop  offset="0.5519" style="stop-color:#EF941B"/>
			<stop  offset="0.7247" style="stop-color:#E8801D"/>
			<stop  offset="0.8776" style="stop-color:#E4741E"/>
			<stop  offset="0.9944" style="stop-color:#E36F1E"/>
		</linearGradient>
		<path fill="url(#SVGID_11_)" d="M15.285,15.191c-0.082-0.082,0.101-0.326,0.436-0.621L26.92,4.279
			c0.201-0.207,0.482-0.2,0.663-0.026c0.235,0.224,0.315,0.432,0.353,0.63c0.063,0.325-0.118,0.469-0.348,0.675l-11.664,9.287
			C15.636,15.099,15.38,15.279,15.285,15.191"/>
		<linearGradient id="SVGID_12_" gradientUnits="userSpaceOnUse" x1="14.3745" y1="22.4063" x2="26.9106" y2="7.4663">
			<stop  offset="0.3427" style="stop-color:#FDB913"/>
			<stop  offset="0.3656" style="stop-color:#FBB415"/>
			<stop  offset="0.5519" style="stop-color:#EF941B"/>
			<stop  offset="0.7247" style="stop-color:#E8801D"/>
			<stop  offset="0.8776" style="stop-color:#E4741E"/>
			<stop  offset="0.9944" style="stop-color:#E36F1E"/>
		</linearGradient>
		<path fill="url(#SVGID_12_)" d="M17.606,14.27l13.03-9.312c0.249-0.196,0.476-0.151,0.539,0.095l0.302,1.043
			c0.069,0.258-0.113,0.603-0.379,0.79l-13.268,7.688c-0.326,0.208-0.665,0.391-0.749,0.276
			C16.978,14.707,17.306,14.514,17.606,14.27"/>
		<linearGradient id="SVGID_13_" gradientUnits="userSpaceOnUse" x1="15.0503" y1="22.959" x2="27.5221" y2="8.0957">
			<stop  offset="0.3427" style="stop-color:#FDB913"/>
			<stop  offset="0.3656" style="stop-color:#FBB415"/>
			<stop  offset="0.5519" style="stop-color:#EF941B"/>
			<stop  offset="0.7247" style="stop-color:#E8801D"/>
			<stop  offset="0.8776" style="stop-color:#E4741E"/>
			<stop  offset="0.9944" style="stop-color:#E36F1E"/>
		</linearGradient>
		<path fill="url(#SVGID_13_)" d="M16.219,16.225c-0.039-0.152,0.305-0.294,0.669-0.481l11.66-5.879
			c0.316-0.173,0.565-0.085,0.563,0.188l0.053,1.295c-0.005,0.283-0.303,0.631-0.665,0.776l-11.493,3.999
			C16.603,16.279,16.253,16.37,16.219,16.225"/>
		<linearGradient id="SVGID_14_" gradientUnits="userSpaceOnUse" x1="16.853" y1="24.4658" x2="29.244" y2="9.6988">
			<stop  offset="0.3427" style="stop-color:#FDB913"/>
			<stop  offset="0.3656" style="stop-color:#FBB415"/>
			<stop  offset="0.5519" style="stop-color:#EF941B"/>
			<stop  offset="0.7247" style="stop-color:#E8801D"/>
			<stop  offset="0.8776" style="stop-color:#E4741E"/>
			<stop  offset="0.9944" style="stop-color:#E36F1E"/>
		</linearGradient>
		<path fill="url(#SVGID_14_)" d="M29.883,15.11l-11.259,1.611c-0.441,0.068-0.765,0.139-0.799,0.01
			c-0.038-0.156,0.338-0.251,0.75-0.39l11.681-3.547c0.376-0.125,0.671,0.012,0.636,0.303l-0.166,1.337
			C30.69,14.742,30.315,15.048,29.883,15.11"/>
		<linearGradient id="SVGID_15_" gradientUnits="userSpaceOnUse" x1="16.9727" y1="24.5488" x2="29.2618" y2="9.9032">
			<stop  offset="0.3427" style="stop-color:#FDB913"/>
			<stop  offset="0.3656" style="stop-color:#FBB415"/>
			<stop  offset="0.5519" style="stop-color:#EF941B"/>
			<stop  offset="0.7247" style="stop-color:#E8801D"/>
			<stop  offset="0.8776" style="stop-color:#E4741E"/>
			<stop  offset="0.9944" style="stop-color:#E36F1E"/>
		</linearGradient>
		<path fill="url(#SVGID_15_)" d="M17.073,17.814c-0.031-0.166,0.529-0.26,0.962-0.305l9.958-1.168
			c0.445-0.045,0.81,0.192,0.665,0.578l-0.202,0.525c-0.119,0.336-0.485,0.57-0.947,0.539l-9.545,0.004
			C17.546,17.993,17.105,17.98,17.073,17.814"/>
		<linearGradient id="SVGID_16_" gradientUnits="userSpaceOnUse" x1="6.8682" y1="16.082" x2="19.6549" y2="0.8433">
			<stop  offset="0.3427" style="stop-color:#FDB913"/>
			<stop  offset="0.3656" style="stop-color:#FBB415"/>
			<stop  offset="0.5519" style="stop-color:#EF941B"/>
			<stop  offset="0.7247" style="stop-color:#E8801D"/>
			<stop  offset="0.8776" style="stop-color:#E4741E"/>
			<stop  offset="0.9944" style="stop-color:#E36F1E"/>
		</linearGradient>
		<path fill="url(#SVGID_16_)" d="M15.695,3.047c0,0-2.884,8.861-3.05,9.338c-0.177,0.511-0.349,0.966-0.5,0.927
			c-0.097-0.029-0.021-0.354,0.087-0.746l2.73-9.614c0.13-0.388,0.536-0.723,0.695-0.691C15.944,2.316,15.779,2.802,15.695,3.047"/>
	</g>
</g>
</svg>
