<?xml version="1.0" encoding="utf-8"?>
<!-- Generator: Adobe Illustrator 15.1.0, SVG Export Plug-In . SVG Version: 6.00 Build 0)  -->
<!DOCTYPE svg PUBLIC "-//W3C//DTD SVG 1.0//EN" "http://www.w3.org/TR/2001/REC-SVG-20010904/DTD/svg10.dtd">
<svg version="1.0" id="Layer_1" xmlns="http://www.w3.org/2000/svg" xmlns:xlink="http://www.w3.org/1999/xlink" x="0px" y="0px"
	 width="532.217px" height="120px" viewBox="0 0 532.217 120" enable-background="new 0 0 532.217 120" xml:space="preserve">
<g>
	<rect fill="#FFFFFF" width="100.378" height="120"/>
	<path fill="#0067B1" d="M532.217,98.877c0,2.498-1.936,4.439-4.44,4.439c-2.496,0-4.44-1.941-4.44-4.439
		c0-2.522,1.944-4.445,4.44-4.445C530.281,94.432,532.217,96.354,532.217,98.877 M524.017,98.877c0,2.088,1.61,3.75,3.76,3.75
		c2.15,0,3.756-1.662,3.756-3.75c0-2.151-1.605-3.813-3.756-3.813C525.627,95.063,524.017,96.726,524.017,98.877 M526.793,101.447
		h-0.626V96.29h1.951c1.164,0,1.67,0.486,1.67,1.403c0,0.95-0.594,1.371-1.285,1.447l1.537,2.307h-0.743l-1.449-2.307h-1.055
		V101.447z M527.627,98.643c0.753,0,1.547-0.046,1.547-0.95c0-0.686-0.594-0.869-1.226-0.869h-1.155v1.818H527.627"/>
	<path fill="#0067B1" d="M525.676,68.415c-0.885-3.964-2.771-5.751-9.106-5.751h-2.943v32.534c0,5.003,1.37,6.521,5.987,6.521v1.316
		h-19.181v-1.316c4.498,0,5.894-1.518,5.894-6.521V62.664h-2.946c-6.308,0-8.155,1.787-9.018,5.751h-1.292v-8.43h33.818v8.43
		 M459.347,103.035v-1.316c4.486,0,5.978-1.518,5.978-6.521v-27.38c0-5.042-1.491-6.541-5.978-6.541v-1.292h30.874v8.43h-1.231
		c-0.876-3.964-2.685-5.751-9.003-5.751h-3.662c-3.184,0-3.878,1.67-3.878,5.31v10.94h7.441c3.472,0,4.584-1.824,5.027-4.424h1.208
		v12.297h-1.208c-0.443-2.529-1.556-4.583-5.027-4.583h-7.441v13.411c0,4.359,0.495,4.713,3.878,4.713h5.914
		c5.116,0,7.815-2.517,8.309-5.899h1.206v8.606H459.347z M414.775,103.035L401.67,80.4c5.914-0.283,11.285-3.057,11.285-9.06
		c0-6.323-3.993-8.677-9.191-8.677c-3.655,0-4.513,0.521-4.513,4.304v28.093c0,4.986,1.47,6.658,5.979,6.658v1.316H386.07v-1.316
		c4.506,0,5.987-1.672,5.987-6.658V67.734c0-3.4-0.087-6.457-4.678-6.457v-1.292h16.384c8.416,0,16.557,2.089,16.557,10.67
		c0,7.467-6.4,10.301-10.242,11.049l8.591,14.041c2.423,3.909,3.383,5.974,6.765,5.974c3.983,0,4.951-2.126,4.951-6.606V67.817
		c0-5.042-1.489-6.541-6.004-6.541v-1.292h30.979v8.43h-1.325c-0.847-3.964-2.584-5.751-8.987-5.751h-3.657
		c-3.234,0-3.9,1.67-3.9,5.31v10.94h7.435c3.488,0,4.613-1.824,5.144-4.424h1.119v12.297h-1.119
		c-0.428-2.529-1.655-4.583-5.144-4.583h-7.435v13.411c0,4.359,0.526,4.713,3.9,4.713h5.896c5.1,0,7.776-2.517,8.416-5.899h1.213
		v8.606H414.775z M384.611,68.415c-0.898-3.964-2.708-5.751-9.029-5.751h-2.953v32.534c0,5.003,1.394,6.521,5.888,6.521v1.316
		h-19.14v-1.316c4.58,0,5.989-1.518,5.989-6.521V62.664h-2.974c-6.317,0-8.241,1.787-9.097,5.751h-1.23v-8.43h33.814v8.43H384.611z
		 M332.677,104.364c-6.273,0-11.561-1.805-14.351-2.833V91.372h1.345c1.259,4.792,4.049,9.328,13.441,9.328
		c6.827,0,11.599-3.686,11.435-9.328c-0.191-5.998-4.415-9.095-13.266-13.334c-9.731-4.678-12.84-9.286-12.766-14.981
		c0-9.188,7.376-13.841,18.2-13.841c5.303,0,9.979,1.085,12.491,1.881v8.888h-1.217c-0.692-4.308-4.333-7.262-11.274-7.179
		c-6.321,0.075-10.493,2.968-10.731,7.977c-0.272,4.636,2.779,7.191,8.236,9.794c12.655,5.974,17.247,9.824,17.782,17.589
		C352.602,97.889,345.475,104.364,332.677,104.364 M268.482,103.035v-1.316c4.513,0,6.081-1.518,6.081-6.521v-27.38
		c0-5.042-1.568-6.541-6.081-6.541v-1.292h30.95v8.43h-1.28c-0.816-3.964-2.619-5.751-8.932-5.751h-3.74
		c-3.104,0-3.904,1.67-3.904,5.31v10.94h7.448c3.466,0,4.693-1.824,5.146-4.424h1.203v12.297h-1.203
		c-0.452-2.529-1.563-4.583-5.146-4.583h-7.448v13.411c0,4.359,0.513,4.713,3.904,4.713h5.989c5.099,0,7.802-2.517,8.329-5.899
		h1.229v8.606H268.482z M265.622,68.415c-0.768-3.964-2.672-5.751-9.021-5.751h-2.918v32.534c0,5.003,1.357,6.521,5.87,6.521v1.316
		h-19.159v-1.316c4.598,0,5.976-1.518,5.976-6.521V62.664h-2.954c-6.322,0-8.216,1.787-9.111,5.751h-1.167v-8.43h33.794v8.43
		H265.622z M220.795,103.035v-1.316c2.5,0,4.42-0.624,4.42-2.579c0-0.793-0.166-1.757-0.62-2.832l-2.261-6.544h-16.203l-2.074,5.787
		c-0.34,0.948-0.794,2.26-0.794,3.274c0,1.875,0.794,2.894,4.087,2.894v1.316h-13.365v-1.316c3.401,0,4.507-2.359,6.326-7.29
		l12.688-34.444h5.972l12.929,35.467c1.725,4.596,2.405,6.08,6.497,6.268v1.316H220.795z M197.837,68.415
		c-0.903-3.964-2.71-5.751-9.037-5.751h-2.964v32.534c0,5.003,1.401,6.521,5.93,6.521v1.316h-19.178v-1.316
		c4.501,0,5.896-1.518,5.896-6.521V62.664h-2.863c-6.432,0-8.247,1.787-9.109,5.751h-1.303v-8.43h33.901v8.43H197.837z
		 M145.862,104.364c-6.238,0-11.529-1.805-14.305-2.833V91.372h1.331c1.273,4.792,4.052,9.328,13.44,9.328
		c6.833,0,11.597-3.686,11.427-9.328c-0.174-5.998-4.421-9.095-13.266-13.334c-9.729-4.678-12.824-9.286-12.756-14.981
		c0-9.188,7.384-13.841,18.224-13.841c5.305,0,9.969,1.085,12.494,1.881v8.888h-1.236c-0.676-4.308-4.32-7.262-11.258-7.179
		c-6.328,0.075-10.493,2.968-10.749,7.977c-0.299,4.636,2.751,7.191,8.243,9.794c12.66,5.974,17.26,9.824,17.756,17.589
		C165.827,97.889,158.719,104.364,145.862,104.364 M214.391,67.107l-6.945,19.091h13.607L214.391,67.107z"/>
	<path fill="#0067B1" d="M9.744,116.61c-2.119-0.681-5.907-1.354-8.625-1.792v2.824c1.552-0.243,3.298-0.395,4.401-0.294
		c-0.838,0.149-2.674,0.444-4.401,0.732v0.817h18.359c-2.69-0.595-4.795-1.028-5.915-1.199
		C8.792,116.903,9.282,116.882,9.744,116.61"/>
	<path fill="#0067B1" d="M1.972,79.667c0,0-0.339-0.029-0.851-0.059v0.855c0.611,0,0.952,0.043,0.952,0.043"/>
	<path fill="#0067B1" d="M1.362,74.968c-0.094,0-0.157,0-0.243-0.023v1.097c0.313,0,0.487,0.027,0.487,0.027"/>
	<path fill="#0067B1" d="M1.79,77.237c-0.183-0.03-0.397-0.03-0.668-0.054v0.93c0.485,0.034,0.767,0.056,0.767,0.056"/>
	<path fill="#0067B1" d="M13.658,52.72l0.508-1.622c0,0-2.191,0-4.628,0.078c-2.354,0.192-6.423,0.699-8.417,0.286v1.207
		c0.157-0.019,0.369-0.052,0.511-0.098C5.862,51.85,13.658,52.72,13.658,52.72"/>
	<path fill="#0067B1" d="M14.357,50.476l0.433-1.613c0,0-0.958,0-3.994,0.102c-2.756,0.105-7.949,0.434-9.674,0.237v1.158
		c2.233-0.219,4.425-0.296,6.202-0.296C11.323,50.063,14.357,50.476,14.357,50.476"/>
	<path fill="#0067B1" d="M14.79,48.203c0.237-0.304,0.086-1.606,0.086-1.606c-1.044-0.187-3.329-0.107-6.209,0.351
		c-2.426,0.36-5.364,0.533-7.545,0.293v1.148C4.646,47.98,12.116,47.898,14.79,48.203"/>
	<path fill="#0067B1" d="M15.108,45.742c0,0,0.417-1.186-0.837-1.724c0,0-1.565,0.169-6.947,0.538
		c-3.318,0.27-5.096,0.467-6.202,0.488v0.858C5.179,45.365,12.552,45.023,15.108,45.742"/>
	<path fill="#0067B1" d="M5.742,63.864l0.462-1.483c0,0-0.342-0.377-3.906,0.392c-0.396,0.084-0.8,0.131-1.176,0.177v0.935
		C3.652,63.791,5.742,63.864,5.742,63.864"/>
	<path fill="#0067B1" d="M5.036,65.87l0.41-1.18c-1.101,0-2.643,0.181-4.324,0.346v0.834C2.912,65.776,5.036,65.87,5.036,65.87"/>
	<path fill="#0067B1" d="M11.323,72.185c0,0-5.581-2.355-7.67-2.129c0,0,3.671-0.323,7.67,1.693l-0.527-1.837l-6.39-1.255
		c0,0,0.279,1.255-1.198,0.638c-0.354,0.415-1.106,0.415-2.087,0.415v1.033c4.157,0.173,8.738,1.124,10.425,2.401"/>
	<path fill="#0067B1" d="M3.73,68.842l0.955-2.104c-0.289,0.268-1.72,0.565-3.564,0.804v1.086C3.115,68.628,3.73,68.842,3.73,68.842
		"/>
	<path fill="#0067B1" d="M6.387,61.467l0.204-1.632c-0.804-0.046-3.21,0.239-5.469,0.649v1.033
		C4.307,61.178,6.387,61.467,6.387,61.467"/>
	<path fill="#0067B1" d="M1.892,84.949c-0.154-0.059-0.428-0.093-0.771-0.194v1.084c0.323,0.042,0.514,0.07,0.514,0.07"/>
	<path fill="#0067B1" d="M1.542,87.389c0,0-0.149,0-0.42-0.051v0.986h0.144"/>
	<path fill="#0067B1" d="M6.591,59.578c0,0,0.325-1.651-0.523-1.819c0,0-2.89,0.117-4.946,0.276v1.114
		C3.777,58.939,6.05,58.987,6.591,59.578"/>
	<path fill="#0067B1" d="M1.996,82.291c0,0-0.198,0-0.874-0.051v1.008c0.488,0.082,0.783,0.173,0.783,0.173"/>
	<path fill="#0067B1" d="M11.766,75.902l-0.125-1.604c0,0-4.842-1.378-8.813-2.204c-0.688-0.149-1.222-0.243-1.707-0.348V72.5
		l0.499,1.191C2.272,73.563,11.766,75.902,11.766,75.902"/>
	<path fill="#0067B1" d="M11.111,13.112c5.769,0.059,14.104,0,18.81-0.14c4.728-0.09,8.973,0.487,8.973,0.487l1.323-1.784
		c-0.731-0.115-3.527,0.166-6.285,0.464c-2.729,0.31-6.112,0.063-6.39-0.58c-4.051,0.219-21.062,0.384-26.42,0.304v1.248
		C5.108,13.021,8.871,13.047,11.111,13.112"/>
	<path fill="#0067B1" d="M15.692,14.867c4.54-0.25,11.192,0.372,15.078,0.372c3.879,0,6.84,0.688,6.84,0.688
		c0.044-0.227,0.114-0.424,0.206-0.661l14.949,7.591c-6.41-6.054-12.847-8.341-14.415-8.81c-1.588-0.194-5.146,0.097-7.057,0.199
		c-1.876,0.094-3.668,0.27-5.049-0.393c-3.141,0.126-15.557,0-19.329,0c-1.187,0-3.282,0.054-5.797,0.074v1.311
		C5.358,15.239,11.184,15.033,15.692,14.867"/>
	<path fill="#0067B1" d="M11.448,17.541c5.126-0.27,14.406-0.174,18.92-0.174c4.492,0,6.717,0.572,6.717,0.572
		c0.23-0.572,0.431-1.305,0.431-1.305c-1.601-0.462-3.475-0.559-5.784-0.219c-2.316,0.349-3.801,0.219-5.191-0.425
		c-1.129,0-5.86-0.21-10.19,0c-4.29,0.183-10.083,0.397-13.353,0.248c-0.485,0-1.1,0-1.875-0.019v1.199
		C4.748,17.541,8.437,17.64,11.448,17.541"/>
	<path fill="#0067B1" d="M17.838,19.395c2.407,0,6.099,0.091,8.411,0.211c2.292,0.129,4.764-0.211,9.791,0.575
		c0,0,0.649-0.864,0.725-1.409c0,0-2.53-0.758-4.946-0.416c-2.403,0.318-3.361,0.494-4.603,0.318
		c-1.263-0.219-1.181-0.465-2.74-0.465c-1.599,0-10.428,0.364-13.874,0.246c-1.936-0.075-5.755-0.075-9.481,0v1.13
		c0.496,0,0.952,0,1.375,0.021C5.546,19.796,15.427,19.395,17.838,19.395"/>
	<path fill="#0067B1" d="M12.705,21.773h15.226c4.333,0,6.929,0.495,6.929,0.495l0.869-1.35c-2.217-0.668-5.363-0.323-7.565-0.106
		c-2.209,0.242-3.817,0.318-4.443-0.438c-2.29,0-9.447-0.123-12.397,0c-1.91,0.046-6.147,0.013-10.201,0.121v1.253
		C5.358,21.747,9.677,21.773,12.705,21.773"/>
	<path fill="#0067B1" d="M17.74,40.958l0.527-1.213c0,0-6.434-0.349-13.861,0.433L2.05,39.744c0,0-0.362,0-0.929,0.076v1.52
		c0.668-0.07,1.255-0.102,1.79-0.174C8.252,40.603,16.259,40.386,17.74,40.958"/>
	<path fill="#0067B1" d="M18.471,31.943c4.95-0.127,8.743,0.518,8.743,0.518c0.188-0.302,0.415-0.956,0.415-0.956
		s-8.738-0.978-11.975-0.545c-3.297,0.475-5.685,0.545-6.637,0c0,0-3.181,0.177-6.217,0.341c-0.457,0-1.005,0.056-1.678,0.076v1.017
		c0.613,0,1.222-0.056,1.79-0.056C8.252,32.339,13.53,32.045,18.471,31.943"/>
	<path fill="#0067B1" d="M13.859,43.234l0.091,0.71l1.074,0.074c0,0,21.106,10.203,21.665,9.642
		c-2.341-5.68-13.585-12.221-18.523-10.154l-0.637-0.053l2.117-1.869l-1.378-0.418l-0.949,2.262l-0.454-0.072l0.541-1.771
		c0,0-1.751,0-4.198,0.222C9.703,42.1,3.845,42.432,2.828,41.857c-0.53,0.131-1.096,0.216-1.707,0.268v1.463
		c2.844-0.326,5.276-0.606,6.527-0.635C9.703,42.846,12.063,42.982,13.859,43.234 M19.656,44.261
		c0.331-0.069,3.499,0.275,4.944,1.064c2.333,1.274,9.771,6.246,9.771,6.246s0,0.193-0.136,0.334l-0.18,0.207l-0.199-0.151
		c-0.026-0.056-1.771-1.254-5.03-2.83L24.6,47.134l-5.364-2.674C19.236,44.46,19.339,44.317,19.656,44.261"/>
	<path fill="#0067B1" d="M24.991,23.689c4,0,8.419,0.76,8.419,0.76l1.035-1.399c-1.377-0.418-4.949-0.189-7.229-0.125
		c-2.338,0.125-3.553,0.225-4.628-0.545c-2.677,0.13-5.489,0.252-8.638,0.252c-2.969,0-8.956,0.064-12.829,0.168v1.106
		c3.042-0.041,6.418-0.065,9.484-0.065C15.327,23.841,21.018,23.689,24.991,23.689"/>
	<path fill="#0067B1" d="M20.595,30.103c4.816,0.244,7.568,0.569,7.568,0.569c0.639-0.325,0.824-1.305,0.824-1.305
		c-1.915,0-6.399-0.252-8.21-0.41c-1.771-0.234-5.901-0.095-8.519,0.333c-2.613,0.369-3.242,0.077-3.466-0.568
		c-0.956,0.274-3.943,0.139-7.671,0.392v1.363c2.408-0.056,4.699-0.105,6.319-0.131C11.111,30.177,15.768,29.897,20.595,30.103"/>
	<path fill="#0067B1" d="M24.167,36.896c-2.528-0.565-3.151-0.446-3.151-0.446l2.486,1.144"/>
	<polyline fill="#0067B1" points="19.744,38.268 19.553,38.654 21.641,39.395 22.588,38.487 	"/>
	<polyline fill="#0067B1" points="18.599,40.603 19.819,41.238 21.015,40.108 19.006,39.747 	"/>
	<polyline fill="#0067B1" points="47.803,12.137 45.703,12.203 47.391,12.88 	"/>
	<polyline fill="#0067B1" points="47.075,13.605 43.29,13.168 46.546,14.709 	"/>
	<path fill="#0067B1" d="M54.002,20.469c0,0-2.504-2.752-3.882-3.1c-1.37-0.343-2.667-1.297-4.075-1.965l0.177-0.4
		c0,0-4.081-1.023-5.891-0.858c0,0,3.371,1.438,5.575,2.615c2.22,1.178,5.789,3.708,7.17,5.432
		C53.076,22.193,53.715,21.423,54.002,20.469"/>
	<path fill="#0067B1" d="M54.213,19.731c0,0,0.535-0.664,0.535-1.792c-1.597-1.527-4.012-2.359-7.159-2.828
		C47.589,15.111,51.698,17.125,54.213,19.731"/>
	<path fill="#0067B1" d="M52.538,23.611c0,0-2.818-0.977-4.636-1.101l4.03,2.237"/>
	<path fill="#0067B1" d="M51.695,25.213c-1.891-0.691-5.147-0.887-5.147-0.887l3.989,2.136"/>
	<polyline fill="#0067B1" points="43.18,22.861 42.226,22.861 43.073,23.149 	"/>
	<polyline fill="#0067B1" points="42.765,24.25 40.222,23.988 42.442,24.75 	"/>
	<path fill="#0067B1" d="M42.142,25.852c-2.22-0.812-4.219-0.636-4.219-0.636c1.172,0.064,3.785,1.355,3.785,1.355"/>
	<path fill="#0067B1" d="M48.938,28.377c-1.667-0.588-4.837-1.646-6.598-1.376c2.836,0.625,6.312,4.435,6.312,4.435l0.832-2.821
		h-0.034l0.775-1.511c-3.357-1.617-5.455-1.254-5.455-1.254C47.271,26.687,48.433,27.789,48.938,28.377"/>
	<path fill="#0067B1" d="M47.271,34.284l1.075-1.747c-1.798-3.422-9.061-6.684-14.111-6.075
		C40.467,27.549,44.851,31.059,47.271,34.284"/>
	<path fill="#0067B1" d="M63.141,25.66c-2.288-1.211-6.39-0.788-6.39-0.788c1.248,0.098,5.985,2.036,5.985,2.036"/>
	<path fill="#0067B1" d="M63.676,23.906c-1.986-0.686-4.088-0.295-4.088-0.295c0.619,0,3.695,1.358,3.695,1.358"/>
	<path fill="#0067B1" d="M63.884,22.382c-0.6-0.289-2.309,0-2.309,0l2.1,0.668"/>
	<path fill="#0067B1" d="M72.301,26.687c-0.733-0.225-1.889-0.319-1.889-0.319l1.769,0.962"/>
	<path fill="#0067B1" d="M72.009,28.408c-1.412-0.62-3.9-1.305-3.9-1.305l3.458,2.393"/>
	<polyline fill="#0067B1" points="57.579,35.828 56.011,36.331 57.177,36.579 	"/>
	<path fill="#0067B1" d="M56.856,37.376c-1.164-0.215-3.264,0.221-3.264,0.221l2.602,0.771"/>
	<path fill="#0067B1" d="M55.891,39.095c-1.349-0.334-5.053-0.216-5.053-0.216l4.333,1.228"/>
	<path fill="#0067B1" d="M47.453,40.383l6.262,1.742l0.824-1.171C52.121,40.177,47.453,40.383,47.453,40.383"/>
	<path fill="#0067B1" d="M65.68,38.58c-0.647-0.093-1.686,0.183-1.686,0.183l1.281,0.466"/>
	<path fill="#0067B1" d="M65.033,40.177c-1.039-0.148-3.514,0-3.514,0l2.796,0.989"/>
	<path fill="#0067B1" d="M63.994,41.857c-1.67-0.273-4.931-0.425-4.931-0.425l4.297,1.628"/>
	<path fill="#0067B1" d="M70.597,42.953c-0.814-0.211-2.074,0-2.074,0l2.001,0.991"/>
	<polyline fill="#0067B1" points="77.264,67.568 83.558,71.477 82.614,69.729 79.334,67.691 	"/>
	<path fill="#0067B1" d="M77.756,70.593c2.564,0.636,7.282,4.172,7.282,4.172l0.294-0.21l-0.64-0.548l-0.734-1.723
		C82.087,70.686,79.154,70.146,77.756,70.593"/>
	<path fill="#0067B1" d="M71.156,58.298l-1.91-0.738c0,0-2.207-0.363-3.251,0.076c0,0,5.036,1.945,5.873,2.708"/>
	<path fill="#0067B1" d="M45.516,37.064l0.709-0.958c-1.89-0.668-4.287-0.762-4.287-0.762"/>
	<path fill="#0067B1" d="M44.438,38.657l0.634-1.06c-1.06-0.433-3.993-0.606-3.993-0.606"/>
	<path fill="#0067B1" d="M42.878,40.383l0.918-0.988c-1.988-0.634-3.78-0.634-3.78-0.634"/>
	<path fill="#0067B1" d="M41.508,41.857l0.932-0.691c-1.487-0.678-3.792-0.989-3.792-0.989"/>
	<path fill="#0067B1" d="M40.331,43.503l0.746-1.074c-1.795-0.626-4.106-0.842-4.106-0.842"/>
	<path fill="#0067B1" d="M32.99,40.106c0,0,1.051,0.068,1.453,0.493l0.417-0.493C34.86,40.106,33.603,39.741,32.99,40.106"/>
	<path fill="#0067B1" d="M29.844,40.818l3.851,1.608l0.461-1.063C34.155,41.363,31.087,40.177,29.844,40.818"/>
	<path fill="#0067B1" d="M37.923,48.735c0,0,0.538-1.785,0.312-3.146c0,0-4.193-2.162-5.169-2.33l0.237-0.31
		c0,0-3.806-1.516-6.521-1.516C26.781,41.435,36.259,45.94,37.923,48.735"/>
	<path fill="#0067B1" d="M37.706,49.397c0,0-2.186-2.622-4.103-3.089c-0.402-0.072-1.338-1.461-1.338-1.461
		s-4.102-2.417-10.524-2.345c0,0,10.587,1.958,15.229,10.074C36.969,52.576,38.025,50.708,37.706,49.397"/>
	<polyline fill="#0067B1" points="10.605,58.803 7.857,59.148 9.729,59.954 	"/>
	<polyline fill="#0067B1" points="9.118,60.933 7.117,60.737 6.919,61.178 8.594,61.817 	"/>
	<path fill="#0067B1" d="M21.528,53.892c-0.513-0.235-1.284,0.252-1.284,0.252s0.858,0.155,1.183,0.398
		C21.427,54.542,22.059,54.144,21.528,53.892"/>
	<polyline fill="#0067B1" points="21.291,55.495 18.471,55.694 21.206,56.324 	"/>
	<path fill="#0067B1" d="M20.777,57.561c-1.969,0.073-4.605,0-4.605,0l4.072,1.243"/>
	<path fill="#0067B1" d="M35.309,55.696l0.606-0.988c0,0-10.702-5.745-12.414-6.097l0.159,1.503
		C23.66,50.115,33.83,54.539,35.309,55.696"/>
	<polyline fill="#0067B1" points="31.015,55.769 31.502,54.711 29.079,54.967 	"/>
	<polyline fill="#0067B1" points="30.368,57.633 30.561,56.589 27.545,56.676 	"/>
	<path fill="#0067B1" d="M29.321,59.428l0.402-1.297c-0.921-0.205-4.101-0.205-4.101-0.205"/>
	<path fill="#0067B1" d="M35.408,56.586c-1.06-0.474-3.024-0.474-3.024-0.474l1.771,0.981l0.702,0.346"/>
	<path fill="#0067B1" d="M31.09,58.129c0.729,0.571,2.844,1.101,2.844,1.101l0.415-0.932C33.206,57.563,30.368,57.633,31.09,58.129"
		/>
	<path fill="#0067B1" d="M33.305,59.835c-2.1-1.035-3.984-0.409-3.984-0.409l3.462,1.38"/>
	<path fill="#0067B1" d="M31.294,62.904l1.169-1.437c0,0-0.199-0.389-1.449-0.659c-1.291-0.19-1.168-0.69-2.351-1.019
		c-1.122-0.36-7.025-0.778-5.888-0.211C23.937,60.117,31.294,62.904,31.294,62.904"/>
	<path fill="#0067B1" d="M30.853,63.408c0,0-5.1-2.602-7.892-2.671c-2.716-0.12-3.22-1.589-3.22-1.589s-4.868-0.532-5.791-0.346
		c0,0,13.869,5.058,16.707,6.032l-0.524-0.681"/>
	<path fill="#0067B1" d="M10.075,67.908c-0.723-0.438-3.812-0.977-4.719-1.167l-0.438,1.274c0,0,3.676,0.229,5.685,1.493
		C10.603,69.508,10.796,68.352,10.075,67.908"/>
	<path fill="#0067B1" d="M1.818,74.968c0,0,0.177,1.176,0.318,1.194c1.218,0.149,5.906,1.154,9.658,2.436l-0.05-1.691
		C11.745,76.908,0.952,74.2,1.818,74.968"/>
	<path fill="#0067B1" d="M9.22,63.607l0.318-0.414c0,0,3.165,0.735,5.787,1.209c2.625,0.433,8.096,2.399,11.364,3.842
		c3.232,1.407,7.96,2.441,9.038,3.305v-0.957c0,0-5.478-3.422-11.15-5.156c-5.686-1.683-11.782-4.039-15.458-3.056l-1.346,1.917
		c-0.146-0.166-0.281-0.39-0.451-0.544l0.832-1.299l-1.354-0.32l-0.533,1.793l1.382,0.569l0.428,0.619l-1.873-0.619l-0.655,1.478
		l4.624,1.594c0,0-1.227-1.795-2.317-3.166l0.65-0.245l0.288,0.727l27.036,8.036v-0.738c0,0-9.974-3.528-11.795-4.399
		C22.271,66.931,10.603,64.298,9.22,63.607"/>
	<path fill="#0067B1" d="M50.95,66.738c10.305,1.617,17.573,5.995,17.573,5.995l0.097-2.348c0,0-2.063-2.368-11.312-4.815
		c-9.241-2.506-19.602-3.566-25.486-1.963C33.603,63.545,40.658,65.113,50.95,66.738"/>
	<path fill="#0067B1" d="M46.042,54.222c-0.652,0.188-2.03,0.636-2.03,0.636l1.688,0.166"/>
	<path fill="#0067B1" d="M45.516,56.112c-1.371-0.099-3.292,0.563-3.292,0.563l2.762,0.521"/>
	<path fill="#0067B1" d="M44.649,58.483c-2.082-0.187-5.365,0.747-5.365,0.747l4.621,0.605"/>
	<polyline fill="#0067B1" points="53.151,53.554 52.424,53.994 53.264,54.219 	"/>
	<polyline fill="#0067B1" points="53.151,55.196 50.95,55.696 53.076,56.238 	"/>
	<path fill="#0067B1" d="M52.849,57.313c-2.116-0.116-4.626,0.32-4.626,0.32l4.201,1.069"/>
	<path fill="#0067B1" d="M51.37,61.397l0.856-1.972c-4.005-0.504-7.153,0.688-7.153,0.688"/>
	<path fill="#0067B1" d="M60.941,57.838c0,0-0.193-0.205-1.351,0l1.266,0.46"/>
	<polyline fill="#0067B1" points="60.511,59.789 57.811,59.837 60.206,60.56 	"/>
	<path fill="#0067B1" d="M68.212,64.028l-2.751-1.255l-5.349,0.42l-0.842-0.289l0.842-1.504c-0.842,0.417-5.703,0.604-5.703,0.604
		c2.854,0.377,14.111,4.632,14.111,4.632"/>
	<polyline fill="#0067B1" points="67.983,61.277 67.172,60.81 62.63,61.181 68.212,63.408 	"/>
	<path fill="#0067B1" d="M68.52,67.37c-0.631-0.568-5.163-2.489-5.979-2.489c-4.866,0-3.897-1.129-3.897-1.129l-2.821-0.79
		l-5.087,0.228l0.334-1.189c0,0-0.765-0.534-2.943-0.534c-4.542,0-4.608-1.049-4.608-1.049c-1.919-0.193-7.479,0.979-7.479,0.979
		c9.034,0.526,25.65,3.609,32.577,8.107C68.617,69.505,69.155,67.908,68.52,67.37"/>
	<path fill="#0067B1" d="M46.225,72.5c1.787-0.216,19.238,5.271,21.242,6.23l0.299-2.028c0,0-29.53-7.53-31.936-8.794l0.209,0.55
		l5.235,2.769C42.442,71.227,44.985,71.746,46.225,72.5"/>
	<path fill="#0067B1" d="M71.868,60.737l-3.759-1.589l-3.684,0.28c1.915,0.152,8.307,3.537,8.307,3.537"/>
	<path fill="#0067B1" d="M19.646,68.656c0,0,1.785,1.638,2.187,2.259c0,0,12.819,3.58,13.896,4.371l-0.125-1.793
		C35.604,73.494,21.934,68.842,19.646,68.656"/>
	<polyline fill="#0067B1" points="22.877,73.494 20.882,73.494 21.018,73.929 23.104,74.127 	"/>
	<path fill="#0067B1" d="M31.205,75.284c0,0-3.576-0.166-4.427-0.126l4.237,1.355"/>
	<polyline fill="#0067B1" points="32.384,76.62 35.408,77.64 35.604,76.145 32.466,76.24 	"/>
	<polyline fill="#0067B1" points="23.501,76.62 23.102,75.361 19.413,75.538 	"/>
	<polyline fill="#0067B1" points="30.853,77.589 26.249,77.314 34.86,80.227 35.408,78.733 31.203,78.377 	"/>
	<polyline fill="#0067B1" points="23.217,78.729 23.217,77.589 18.072,77.423 	"/>
	<path fill="#0067B1" d="M24.48,79.042l10.041,3.425l0.298-1.262C30.451,78.919,24.48,79.042,24.48,79.042"/>
	<path fill="#0067B1" d="M23.217,79.611l-6.729-0.344c2.32,0.102,17.209,5.458,17.209,5.458l0.538-1.392
		c-1.03-0.865-6.071-2.22-8.609-2.341C23.104,80.84,23.217,79.611,23.217,79.611"/>
	<path fill="#0067B1" d="M22.271,81.479c-1.59-0.273-7.48,0-7.48,0c3.477,0.472,18.2,5.481,18.2,5.481l0.613-1.487l-7.253-2.661
		C21.931,82.813,22.271,81.479,22.271,81.479"/>
	<polyline fill="#0067B1" points="44.851,75.158 44.229,76.042 44.985,76.042 	"/>
	<polyline fill="#0067B1" points="44.769,77.106 41.602,78.089 44.338,78.329 	"/>
	<path fill="#0067B1" d="M43.905,81.113l0.107-1.745c-0.494,0.507-4.73,1.472-4.73,1.472"/>
	<path fill="#0067B1" d="M56.616,83.421c-2.207,0-4.075-0.731-4.075-0.731c-1.703-0.446-9.249,0.342-9.249,0.342l0.321-1.313
		l-5.907,1.091c0,0,4.337,0.395,15.445,2.044c11.164,1.565,14.832,6.189,14.832,6.189l2.327-1.061
		C68.109,86.961,58.839,83.421,56.616,83.421"/>
	<path fill="#0067B1" d="M52.849,82.16l0.305-2.057c-2.314-0.395-7.109,1.208-7.109,1.208"/>
	<polyline fill="#0067B1" points="53.264,77.897 50.037,78.919 53.264,79.462 	"/>
	<polyline fill="#0067B1" points="53.264,76.513 52.228,77.106 53.365,77.235 	"/>
	<polyline fill="#0067B1" points="60.663,77.106 57.581,77.637 60.514,78.489 	"/>
	<polyline fill="#0067B1" points="60.208,80.84 60.422,79.177 56.538,79.799 	"/>
	<path fill="#0067B1" d="M66.53,80.406l0.705-1.363c-2.387-0.709-5.453-0.413-5.453-0.413"/>
	<path fill="#0067B1" d="M65.296,81.8l0.855-0.935c0,0-3.008-1.254-5.489-0.1c0,0,9.025,2.567,10.579,5.657h-0.718
		c-1.563-1.473-6.958-4.467-9.861-4.704c-4.125-1.738-6.348,0.311-6.348,0.311l2.865,0.845c8.633,1.416,13.635,6.893,13.635,6.893
		l1.919-0.745c-0.962-0.185-0.633-1.072-0.633-1.072l1.458,0.69l1.257-0.351c-0.929-0.144-4.078-1.518-3.044-2.036
		c1.046-0.598,3.796,1.566,3.796,1.566l1.349-0.431l-4.183-1.801l-1.035-1.626c-1.805-0.8-5.701-1.799-5.701-1.799"/>
	<path fill="#0067B1" d="M2.343,77.352l0.214,1.402c0,0,7.615,1.473,8.891,2.236l0.294-1.619c0,0-2.729-0.772-5.244-1.309
		C4.415,77.589,2.437,77.421,2.343,77.352"/>
	<path fill="#0067B1" d="M2.698,79.875l0.057,1.333c0,0,6.262,1.282,8.357,2.124l0.436-1.614
		C11.547,81.719,2.074,79.265,2.698,79.875"/>
	<path fill="#0067B1" d="M2.794,82.029l-0.136,1.784c0,0,5.688,1.385,7.888,2.065c0,0,0.083-0.609,0.263-1.94
		C10.809,83.939,4.08,82.07,2.794,82.029"/>
	<path fill="#0067B1" d="M13.316,83.421l16.008,5.015l3.142-0.387C19.741,82.872,13.316,83.421,13.316,83.421"/>
	<path fill="#0067B1" d="M69.246,63.864c0,0,3.884,2.003,4.534,2.666l-0.814-2.602c0,0-3.482-2.327-4.446-2.53"/>
	<path fill="#0067B1" d="M70.31,67.691l4.329,3.145c0,0-0.139-2.481-0.645-3.366c-0.529-0.834-4.511-2.779-4.511-2.779"/>
	<path fill="#0067B1" d="M78.625,85.474l-2.53-1.512h-4.396c4.618,0.893,6.181,3.002,6.181,3.002l1.458-0.455l-1.271-0.853"/>
	<path fill="#0067B1" d="M75.241,78.922h-2.426v0.446l3.781,1.943l0.14,0.545c-0.646-0.375-1.066-0.545-1.066-0.545l-3.66,0.545
		c4.089,0.957,8.168,4.2,8.168,4.2l1.25-0.294c-1.151-0.229-3.361-1.575-3.361-1.575l-0.31-1.028c0.634,0,4.333,2.203,4.333,2.203
		l1.553-0.505c-1.478-0.356-4.357-1.698-6.214-2.635l-0.059-0.911c3.548,0.267,7.55,2.976,7.55,2.976l1.574-0.47
		c-2.21-1.127-9.898-4.106-9.898-4.106"/>
	<path fill="#0067B1" d="M74.639,71.356c0,0-2.943-2.292-4.042-2.826l0.746,2.506c0,0,2.439,1.467,3.154,3.729l-0.612,0.126
		c0,0-1.704-2.71-2.189-3.027l0.401,2.628c0,0,1.597,0.626,1.985,1.489l-1.782-0.441L72.815,77l2.105,1.169
		c0,0,1.284,0.208,1.495,1.007c0,0,5.453,0.699,11.245,4.03l1.132-0.333c0,0-4.511-3.063-13.848-5.285
		C74.944,76.232,74.944,72.826,74.639,71.356"/>
	<path fill="#0067B1" d="M23.449,25.066c-0.405,0-0.702,0-0.984-0.026c-0.174,0.301-0.328,0.644-0.48,0.882
		c0.33,0,0.668,0.08,0.954,0.08C23.109,25.685,23.279,25.367,23.449,25.066"/>
	<path fill="#0067B1" d="M21.528,25.922c0.152-0.364,0.342-0.711,0.53-1.035c-0.139-0.062-0.274-0.158-0.318-0.366
		c-1.834-0.07-6.416,0.225-8.424,0.519c-1.996,0.352-2.826,0.24-2.826,0.24l0.306-0.609c-1.899-0.128-4.963-0.149-9.674,0v1.251
		c4.391-0.023,9.103-0.163,10.939-0.188C14.075,25.682,18.109,25.802,21.528,25.922"/>
	<path fill="#0067B1" d="M29.606,27.843c2.598,0.642,13.099,5.781,17.025,7.741l0.324-0.739c-3.663-5.885-12.163-7.742-15.536-8.277
		l-0.112,0.164c-0.023-0.044-0.104-0.138-0.169-0.164h0.281l1.365-1.354c-1.365-0.341-3.462-0.341-6.243-0.243
		c-0.968,0.023-1.834,0.07-2.573,0.096c-0.146,0.301-0.364,0.618-0.545,0.969c1.156,0.047,2.149,0.058,2.826,0.157
		c1.04,0.037,1.996,0.072,2.793,0.151l0.104,0.492c-0.902,0-1.858,0.131-4.156,0.268c-2.932,0.229-4.213-0.416-6.389-0.536
		c-2.251-0.103-4.651,0.693-7.279,0.851c-0.255,0.033-0.438,0.033-0.639,0.033c-0.052,0.1-0.109,0.289-0.163,0.391
		c4.068,0,8.639,0.165,11.308,0.248c3.255,0.103,7.37,0.634,7.37,0.634C29.355,28.436,29.476,28.107,29.606,27.843 M44.145,32.66
		c0.504,0,0.504,0.545,0.504,0.545c-0.139,0-0.378-0.05-0.66-0.168L44.145,32.66z M33.603,28.003
		c1.708,0.408,6.864,2.343,9.162,3.943l-0.159,0.513c-2.46-1.099-6.347-3.12-8.038-3.734c-0.391-0.11-0.738-0.313-1.078-0.464
		L33.603,28.003z"/>
	<path fill="#0067B1" d="M9.017,27.872c0.065-0.321,0.266-0.565,0.357-0.833c-0.092-0.234,0.068-0.471,0.068-0.471
		c-1.558,0-5.182,0.167-8.32,0.337v1.205c2.844-0.102,5.281-0.168,6.736-0.237"/>
	<path fill="#0067B1" d="M9.41,27.843c0.334,0,0.412-0.054,0.804-0.054c0.028-0.163,0.097-0.293,0.113-0.392
		c-0.523-0.023-0.518-0.023-0.676-0.169C9.559,27.396,9.463,27.574,9.41,27.843"/>
	<path fill="#0067B1" d="M35.515,69.912c0.4,0.558-0.529-2.851-0.529-2.851c0.529,0.508,5.481,1.4,5.481,1.4l-2.949-2.047
		l0.097-0.367l2.252,1.395l1.839,1.401c1.271,0.594,26.277,7.299,26.277,7.299v-0.417l-11.602-3.54l0.331-0.405
		c1.923-0.12,11.502,3.189,11.502,3.189l0.125-0.988l-0.292,0.249l-0.081,0.095l-0.134-0.026c-0.101-0.045-10.07-3.285-12.272-4.102
		l-0.183-0.021l0.06-0.198l0.123-0.325l0.065-0.216l0.193,0.026c0.415,0.173,10.485,3.638,12.494,4.186l0.084,0.046l0.021-0.201
		c-2.526-2.46-7.323-3.582-11.934-4.987c-3.916-1.204-6.723-1.523-8.685-1.869c-12.679-2.142-17.144-1.803-17.144-1.803l0.199,0.602
		c-0.607,0.217-9.512-2.949-12.385-4.037c-4.425-1.721-8.768-0.324-7.458-0.324C15.528,61.076,33.029,67.005,35.515,69.912
		 M48.4,68.017l0.251-0.109l1.45,0.152h0.092l0.034,0.023c0.699,0.346,3.598,0.938,3.616,0.938l0.16,0.043l0.021,0.11v0.461
		l0.013,0.093l-0.167,0.074c-0.338,0.082-5.562-1.375-4.928-1.175l-0.052-0.023l-0.04-0.075l-0.496-0.101L48.4,68.017z
		 M48.44,69.804l0.605-0.167l0.089-0.128l0.052,0.023l3.053,0.665l0.146,0.098l0.021,0.122l0.196,0.422l0.052,0.254l-0.268-0.059
		c-0.546-0.102-2.991-0.648-3.985-0.94l-0.177-0.181L48.44,69.804z M45.531,66.74c0.344,0.168,2.136,1.276,2.136,1.276l0.047,0.228
		l-2.177-1.239l-0.314-0.265H45.531z M42.069,66.34l0.245,0.074l0.104-0.031l0.071,0.077l3.53,2.383l0.206,0.222l0.498,0.739
		l-4.704-3.151l-0.324-0.193L42.069,66.34z"/>
	<path fill="#0067B1" d="M3.465,36.592c0.168-0.338,0.31-0.639,0.443-0.909c-0.071-0.043-0.102-0.095-0.178-0.245
		c-0.525,0.058-1.433,0.099-2.609,0.179v1.152c0.611-0.046,1.176-0.076,1.573-0.13C2.966,36.639,3.206,36.592,3.465,36.592"/>
	<path fill="#0067B1" d="M3.037,37.848c-0.097-0.176-0.026-0.345-0.026-0.345c-0.374,0.072-1.065,0.149-1.89,0.219v1.504
		c0.566-0.083,1.174-0.132,1.723-0.222C2.912,38.577,2.966,38.217,3.037,37.848"/>
	<path fill="#0067B1" d="M4.848,34.455c1.012-0.908,1.888-0.722,1.92-0.722l0.028,0.056c0.047,0,0.078,0.078,0.078,0.121
		c0,0.037-0.031,0.037-0.078,0.037c-0.028,0-0.595,0.018-1.388,0.533c0.428-0.024,0.793-0.024,1.183-0.097
		c3.378-0.201,5.58-0.277,9.668-0.277c3.542,0,3.799,0.449,3.799,0.545l0.107-0.74c2.106,0,4.711,2.089,4.711,2.089l0.652-1.05
		l-0.538-0.566l1.166-0.201l0.532-0.98c0,0-2.525,0.124-4.758-0.196c-2.189-0.351-4.907,0-8.803,0.196
		c-3.908,0.247-4.208-0.08-4.208-0.08c-1.383,0.08-4.475,0.299-7.798,0.4v1.227c1.148-0.098,2.247-0.141,3.405-0.219"/>
	<path fill="#0067B1" d="M3.201,39.008c0.326-0.025,0.326-0.128,0.605-0.154c0.023-0.245,0.092-0.446,0.183-0.637
		c-0.462,0-0.438-0.107-0.605-0.168C3.305,38.34,3.269,38.658,3.201,39.008"/>
	<path fill="#0067B1" d="M5.085,36.002c-0.541,0-0.524,0-0.804-0.145c-0.117,0.219-0.279,0.42-0.385,0.724
		c0.409,0,0.409-0.11,0.85-0.11C4.873,36.277,4.991,36.106,5.085,36.002"/>
	<path fill="#0067B1" d="M5.209,38.15c-0.333,0.067-0.636,0.067-0.865,0.067c-0.084,0.191-0.162,0.395-0.183,0.637
		c1.57-0.199,3.188-0.341,5.059-0.367c3.908-0.118,9.253,0.393,9.253,0.393l0.628-1.503C16.788,37.276,7.857,37.799,5.209,38.15"/>
	<path fill="#0067B1" d="M19.413,36.637l0.409-1.597c-1.656-0.091-8.275,0.214-10.386,0.398c-1.183,0.146-2.596,0.5-3.78,0.565
		c-0.094,0.103-0.211,0.253-0.298,0.447c3.434-0.228,7.318-0.228,9.666-0.228C17.95,36.223,19.413,36.637,19.413,36.637"/>
	<path fill="#0067B1" d="M4.304,102.747c2.542,0.067,5.156,0.372,7.668,0.657c1.322,0.125,2.572,0.318,3.801,0.423
		c4.025,0.341,6.642,0.392,8.803,0.125c0.475-0.101,0.949-0.168,1.346-0.168c-1.221-0.255-2.687-0.323-4.203-0.495
		c-1.124-0.074-2.353-0.224-3.454-0.347c-2.048-0.225-3.91-0.351-5.815-0.415l-1.833-0.023c-1.088-0.033-1.952-0.147-2.734-0.25
		c-1.229-0.173-2.39-0.364-4.279-0.247c-0.864,0.028-1.701,0.028-2.484,0.028v0.556c0.67,0.126,1.375,0.126,2.236,0.155"/>
	<path fill="#0067B1" d="M6.202,8.815c3.336-0.095,13.705,0,17.219-0.095c1.901-0.086,4.137-0.025,6.211,0
		c0.228-0.428,0.444-0.722,0.658-0.987c-0.18-0.096-0.371-0.275-0.446-0.441C27.216,7.507,9.729,7.687,2.591,7.507H1.122v1.234
		C3.011,8.792,4.918,8.84,6.202,8.815"/>
	<path fill="#0067B1" d="M13.95,10.923h11.672c3.261,0,6.843-0.065,9.981-0.065c3.185,0,5.267,0.203,5.267,0.203l1.175-1.705
		c-1.305,0.204-8.537,0.642-10.444,0.847c-0.245,0.009-0.512,0.009-0.75,0.009c0,0.131-0.062,0.235-0.085,0.294
		c-0.016,0.018-0.049,0.054-0.11,0.085c-0.036,0.054-0.109,0.054-0.148,0.019c-0.058-0.019-0.128-0.05-0.133-0.086
		c-0.007-0.018-0.026-0.077-0.007-0.136c0.007-0.045,0.013-0.176,0.06-0.243c-0.342-0.021-0.604-0.103-0.903-0.176
		c-0.049,0.131-0.085,0.243-0.109,0.419c-0.034,0.078-0.061,0.118-0.107,0.136h-0.183c-0.045,0-0.112-0.059-0.112-0.077
		c-0.028-0.06-0.044-0.104-0.028-0.235c0.057-0.139,0.096-0.243,0.162-0.382c-0.428-0.18-0.687-0.346-0.687-0.346
		c-0.918,0-8.084,0.346-11.734,0.346c-3.723,0-10.866-0.027-15.184-0.27h-0.42v1.364C4.185,11.06,9.972,10.923,13.95,10.923"/>
	<path fill="#0067B1" d="M30.853,6.679h0.371c0.529-0.521,0.903-0.711,0.903-0.711c0.078-0.079,0.19-0.079,0.273,0h0.026v0.076
		h0.023c0.038,0.062,0.014,0.186-0.065,0.288c-0.06,0-0.248,0.094-0.5,0.347h0.714c0.704-0.617,1.255-0.711,1.362-0.79h-0.895
		c-1.463-0.1-1.646-0.808-2.614-0.708C29.496,5.3,17.054,5.231,13.125,5.3c-1.69,0.025-6.704,0.056-12.003,0.069v1.284
		c6.06-0.073,12.003-0.129,14.206-0.129C20.458,6.524,28.246,6.679,30.853,6.679"/>
	<path fill="#0067B1" d="M43.18,7.071c-1.373,0-6.632,0.783-8.735,0.911c-0.902,0.016-1.776,0.068-2.501,0.045
		c-0.186,0.225-0.297,0.443-0.454,0.739c1.065,0,2.053,0,2.859-0.048c2.739-0.083,7.991,0,7.991,0"/>
	<path fill="#0067B1" d="M30.133,8.739c0.29,0,0.585,0,0.887,0.027c0.107-0.316,0.24-0.565,0.399-0.77
		c-0.281-0.013-0.505-0.041-0.732-0.112C30.509,8.109,30.349,8.394,30.133,8.739"/>
	<path fill="#0067B1" d="M12.705,55.023l0.608-1.544c-1.671-0.219-9.326,0-12.191,0.515v0.717c1.469-0.125,3.162-0.222,4.946-0.301
		C10.49,54.299,12.705,55.023,12.705,55.023"/>
	<path fill="#0067B1" d="M11.015,58.058l1.341-2.49C7.23,54.858,3.73,55.495,3.73,55.495c-0.902,0.351-1.797,0.617-2.609,0.808
		v0.893c2.766-0.102,5.265-0.102,5.265-0.102C6.068,55.281,11.015,58.058,11.015,58.058"/>
	<path fill="#0067B1" d="M60.422,2.406c0.302-0.57,0.689-0.99,0.903-1.285h-0.848c-0.102,0.153-0.606,0.663-0.981,1.285"/>
	<path fill="#0067B1" d="M36.765,2.421c0.141-0.369,0.331-0.879,0.446-1.106c0.06-0.07,0.067-0.088,0.115-0.196h-0.898
		c-0.067,0.152-0.158,0.27-0.169,0.369c-0.097,0.15-0.303,0.641-0.391,0.933"/>
	<path fill="#0067B1" d="M9.353,2.519c5.438,0,17.864-0.116,20.063-0.116c0.959,0,3.355,0,5.992,0.018
		c0.135-0.42,0.318-0.876,0.459-1.108c0.023-0.068,0.042-0.083,0.078-0.193H1.122v1.4"/>
	<path fill="#0067B1" d="M10.175,90.674l3.715,1.271c0,0,0.875-0.431,1.32-0.529c0.443-0.222,1.963-0.641,1.963-0.641
		s-2.034-0.854-3.352-1.127c-1.563-0.285-3.131-0.529-3.131-0.529"/>
	<polyline fill="#0067B1" points="9.677,92.695 10.688,93.202 12.768,92.154 10.078,91.193 	"/>
	<polyline fill="#0067B1" points="10.186,93.568 9.518,93.308 8.961,94.903 12.408,96.032 12.314,95.27 9.859,94.339 	"/>
	<path fill="#0067B1" d="M99.225,1.122h-37.24c-0.297,0.398-0.749,0.982-0.957,1.285c5.632,0,30.167-0.104,38.197-0.104"/>
	<path fill="#0067B1" d="M99.225,3.187c-3.715,0.101-7.927,0.219-9.697,0.273c-3.16,0.114-8.956,0.114-10.374,0
		c-1.398-0.108-4.654-0.575-6.091-0.345c-1.496,0.237-3.071,0.459-3.712,0.145c-0.608-0.375-0.731-0.249-1.458-0.145
		c-0.718,0.145-4.213,0.459-6.817,0.536c-0.144,0.042-0.269,0.042-0.405,0.042c-0.094,0.284-0.149,0.647-0.17,0.842h0.663
		c5.557-0.195,25.033-0.122,28.166-0.122c2.014,0,6.317-0.074,9.896-0.127"/>
	<path fill="#0067B1" d="M99.225,57.519c-2.101-0.794-3.871-1.407-4.928-1.572c-4.214-0.936-10.827-2.313-13.726-3.745l-0.686-1.475
		c3.036,2.163,6.902,2.056,13.667,3.919c1.827,0.51,3.738,1.103,5.672,1.808v-1.431c-2.333-0.724-4.404-1.272-5.889-1.544
		c-4.21-0.905-8.212-1.741-11.148-2.682c-1.74-0.596-2.557-1.126-2.997-1.512l-0.481-0.951c5.481,2.841,9.458,2.223,17.683,4.688
		c0.784,0.237,1.764,0.558,2.832,0.957v-1.428c-4.985-1.552-9.418-2.329-12.735-2.857c-6.088-1.01-7.865-2.161-9.102-3.364
		l0.01-0.218c0.715-0.348,1.407,0.168,2.703,0.688c2.972,1.403,12.62,2.995,18.056,4.376c0.345,0.194,0.75,0.246,1.068,0.36v-1.472
		c-2.782-0.779-5.771-1.549-8.936-1.967c-7.959-1.106-9.058-1.604-11.255-2.556c-0.603-0.251-1.078-0.694-1.39-0.887l0.227-0.66
		c0.48,0.396,1.079,0.715,1.706,0.853c2.077,0.694,9.46,2.224,13.225,2.738c1.542,0.216,3.757,0.719,6.423,1.47v-1.523
		c-1.5-0.398-3.019-0.757-4.417-0.936c-5.379-0.763-13.664-1.229-16.896-3.169l1.326-0.475c2.105,0.475,7.688,1.701,11.573,2.3
		c3.308,0.406,5.559,0.511,8.414,1.271v-1.271c-2.993-0.716-6.047-1.039-7.684-1.234c-2.212-0.191-8.739-0.958-10.31-1.378
		c-1.552-0.436-0.632-0.781-2.521-1.204c-1.766-0.343-2.22-0.711-3.41-1.69c0-0.026,0.016-0.071,0.042-0.071
		c4.69,1.941,13.728,3.216,21.889,4.266c0.707,0.077,1.349,0.2,1.994,0.317v-1.573c-2.549-0.513-5.249-0.826-8.414-1.098
		c-8.288-0.788-12.87-1.77-15.066-3.317c0.073-0.196,0.12-0.377,0.16-0.596c3.357,1.891,11.054,2.749,18.778,3.489
		c1.664,0.176,3.129,0.325,4.542,0.563v-1.568c-4.719-0.912-8.748-0.93-12.521-1.149c-6.888-0.428-9.082-0.935-10.482-2.679
		c0.097-0.306,0.141-0.6,0.201-0.834c1.928,1.78,8.701,2.555,12.905,2.653c3.398,0.121,6.698,0.461,9.896,1.176v-1.351
		c-3.409-0.561-6.94-0.742-10.74-0.911c-8.668-0.295-10.614-1.41-11.806-2.778c0.008-0.146,0.075-0.316,0.089-0.419
		c2.656,1.629,9.575,2.158,14.477,2.359c2.995,0.105,5.629,0.366,7.98,0.732v-1.461c-3.068-0.402-6.076-0.504-8.936-0.547
		c-6.966-0.051-11.38-0.684-13.35-2.017c0.071-0.42,0.131-0.813,0.175-1.13c3.715,1.744,8.122,1.933,16.969,2.484
		c1.944,0.096,3.613,0.249,5.142,0.412v-1.443c-4.046-0.534-7.595-0.596-9.697-0.596c-4.195,0-9.632-0.201-12.314-1.699
		c0.05-0.374,0.05-0.614,0.05-0.934c1.087,0.398,4.852,1.5,11.773,1.677c4.049,0.116,7.47,0.417,10.188,0.746v-1.392
		c-3.05-0.256-6.608-0.579-9.697-0.606c-5.785-0.104-10.039-0.348-12.291-1.336c0-0.314,0.026-0.678,0.081-0.975
		c3.282,1.196,6.4,1.081,14.765,1.359c2.587,0.046,5.042,0.311,7.143,0.577v-1.298c-2.713-0.272-5.766-0.449-8.51-0.464
		c-8.121-0.206-12.236-0.305-12.933-1.267c0.449-0.062,1.57-0.211,3.965-0.043c3.287,0.257,8.967,0,15.046,0.415
		c0.889,0.033,1.665,0.13,2.432,0.208v-1.234c-4.804-0.39-11.438-0.026-15.265-0.127c-3.9-0.072-6.642-0.58-9.256-0.734
		c-0.498-0.265-1.009-0.559-1.435-0.757c1.746,0,14.087,0.198,18.143,0.44c2.375,0.067,5.198,0.179,7.813,0.348v-1.237
		c-5.889-0.232-16.32-0.232-19.241-0.232c-3.566,0-3.249-0.625-3.249-0.625c-1.53,0.272-4.721,0.272-5.647,0.25
		c-0.327-0.25-0.66-0.495-0.989-0.719c1.531-0.047,6.402-0.215,13.154-0.071c5.517,0.173,11.619,0.295,15.972,0.44v-1.098
		c-5.268-0.113-14.018-0.177-17.571-0.177c-4.524,0-3.981-0.668-3.981-0.668c-4.691,0.636-8.516,0.516-9.836,0.469
		c-0.418-0.147-0.827-0.369-1.257-0.613l0.07-0.225c2.115-0.089,8.223-0.17,10.804-0.243c3.146-0.101,11.484,0.243,14.925,0.423
		c1.832,0.114,4.376,0.114,6.846,0.138v-1.306c-1.931-0.014-4.772-0.273-8.079-0.273c-2.109,0-8.122,0.203-10.34,0.203
		c-2.181,0-2.601-0.603-2.601-0.603c-1.352-0.08-3.827,0.34-6.437,0.673c-1.341,0.152-3.149,0.087-4.918-0.07l0.168-1.06
		c1.035,0,2.048,0.029,2.872,0.029c3.172,0,10.916-0.395,15.442-0.195c3.561,0.166,9.612,0.283,13.893,0.34v-1.151
		c-1.529-0.146-2.615-0.245-4.745-0.245c-3.068,0-9.558,0.222-13.335,0.222c-3.775,0-3.775-0.569-3.775-0.569
		c-0.952-0.099-4.401,0.273-8.408,0.569c-0.561,0.022-1.125,0.075-1.764,0.075l0.221-1.23c3.16-0.074,6.484-0.175,8.052-0.15
		c3.039,0.13,16.908,0.393,21.035,0.393h2.719v-1.25H83.767c-6.094,0-7.031-0.441-7.881-0.537c-0.838-0.126-6.843,0.69-10.61,0.835
		h-5.481c-1.21,0-2.643-0.74-3.256-1.09l0.102-0.163h5.787c2.94,0,8.528-0.478,11.461-0.301c2.966,0.082,14.911,0.191,18.915,0.191
		c2.377-0.025,4.492,0,6.423,0.028v-1.048c-4.542-0.056-10.678,0.016-14.941,0.016c-5.896,0-6.83-0.098-8.291-0.214
		c-1.493-0.103-7.031,0.214-9.995,0.487c-2.614,0.165-7.459-0.273-8.591-0.345l0.047-0.176l-1.946-0.879
		c1.669,0.072,6.029,0.263,7.537,0.191c3.893-0.239,11.456-0.634,14.219-0.436c2.72,0.197,14.505,0.436,18.804,0.436
		c0.923,0,2.006,0.023,3.157,0.023v-1.362c-2.782,0-5.725,0-8.621,0.061c-4.027,0.067-10.203,0.348-11.57-0.061
		c-1.362-0.51-2.019,0.052-3.042,0.052c-1.072,0-8.223-0.234-12.948,0.076c-2.99,0.219-9.021-0.31-10.415-0.478l-0.84-0.618
		c0,0,8.87,0.329,10.425,0.179c4.636-0.302,9.353-0.572,13.133-0.441c3.804,0.14,18.096,0.321,22.094,0.321h1.783v-1.33
		c-0.999,0-1.931,0-2.619,0.041c-4.227,0.122-9.765,0.326-13.804,0.25c-3.997-0.128-3.859-0.589-3.859-0.589
		c-1.489-0.173-9.981,0.339-16.517,0.589c-1.68,0.055-10.308-0.291-12.379-0.366l0.193-0.825c2.937,0.101,7.97,0.178,9.35,0.178
		c4.508,0,10.72-0.362,14.401-0.362c3.681,0,7.352,0,10.705,0.285c3.193,0.176,10.046,0.077,14.529,0V7.168
		c-2.47,0-5.223,0-7.457,0.124c-3.811,0.214-10.624,0.214-11.667,0C79.035,7.073,78.711,7,78.205,7
		c-0.532,0-3.068,0.073-5.599,0.194c-2.507,0.098-11.667,0.313-15.99,0.313c-0.793,0-3.522-0.066-6.162-0.214l0.201-0.808
		c4.229,0.04,9.604,0.04,11.331,0.04c3.584,0,12.215-0.294,15.384-0.166c3.123,0.068,16.405,0.068,20.167,0.068
		c0.402,0,0.961,0,1.689-0.025V5.231C98.181,5.242,97.536,5.3,97.536,5.3c-3.357,0-14.734,0.326-16.618,0.326
		c-1.883,0-2.293-0.253-2.613-0.44c-0.348-0.263-2.54-0.105-5.242,0.114c-2.753,0.146-3.582,0-4.324-0.114
		c-0.756-0.105-4.424,0.188-9.056,0.44c-1.57,0.064-3.579-0.253-5.552-0.253c-0.823,0-2.014,0.056-3.294,0.072l0.235-0.908
		c2.104,0,4.818,0.068,7.138,0.068h0.459c0.457,0,0.879,0,1.307-0.068c0.036-0.196,0.073-0.562,0.135-0.885
		c-0.457-0.025-0.827-0.025-1.158-0.104l-0.475-0.085c-0.509-0.107-0.879-0.2-1.213-0.2c-0.525,0-3.209,0.028-5.925,0.069
		l0.188-0.911c2.653-0.015,5.444-0.015,7.455-0.015c0.473-0.792,0.932-1.177,0.932-1.231c0.037,0,0.061,0,0.097-0.054H37.816
		c-0.092,0.155-0.162,0.271-0.193,0.367c-0.091,0.152-0.297,0.644-0.407,0.933c2.883,0.098,5.742,0.098,7.122,0.098
		c1.281,0,3.929,0,6.799-0.098l-0.258,0.911c-0.918,0.023-1.834,0.023-2.656,0.023c-3.454,0-11.054,0.454-14.068,0.454
		c-3.068,0-3.068-0.546-3.068-0.546H19.744c-1.926,0-10.462,0.028-18.623,0.028v1.338h2.612c5.384,0,17.282-0.214,20.107-0.214
		c2.852,0,8.424,0.214,11.763,0.214c3.378,0,11.471-0.091,14.62-0.091h0.316l-0.3,0.984c-1.642,0.104-3.329,0.168-4.198,0.168
		c-1.704,0-1.602-0.317-2.638-0.317c-0.913,0-6.712,0.492-9.324,0.516c0,0,0.054,0.085,0.075,0.085
		c0.042,0.019,0.079,0.07,0.079,0.091c0.031,0.096,0,0.152-0.024,0.165c-0.032,0.036-0.076,0.105-0.156,0.128h0.026
		c-0.026,0-0.284,0.043-0.673,0.297c3.864-0.073,10.123-0.229,12.202-0.229c0.793,0,2.458,0,4.396,0.059l-0.242,0.808
		c-2.729-0.098-5.213-0.219-5.213-0.219l12.385,6.84l-0.263,0.318c-0.691-0.251-2.489-0.919-4.248-0.919l3.551,2.115l-0.123,0.348
		c-0.302-0.124-0.482-0.193-0.482-0.193s-2.004-1.063-4.952-1.239c0,0,3.585,1.92,4.417,2.781l0.238-0.686l9.243,4.691
		c2.027,0.74,9.885,5.063,11.352,5.672c0.751,0.302,0.994,0.694,1.068,1.202l-1.264-0.377l1.15,1.796l-0.025,0.077
		c0,0.16-0.023,0.513-0.082,0.752l-1.275-1.137H74.5l1.892,2.338v0.074l-0.824-0.469l-2.836-0.606c0,0,2.395,2.133,3.405,3.566
		c-0.039,0.271-0.063,0.591-0.12,0.977c-0.384-0.536-1.226-1.767-1.722-2.083c-0.6-0.452-2.11-1.091-2.285-1.611
		c-0.24-0.498-0.521-1.489-1.412-1.8c-0.814-0.385-5.027-1.873-7.313-2.396c3.923,1.854,10.32,4.998,12.22,10.227
		c-0.126,0.085-0.162,0.248-0.294,0.345c-1.371-2.921-3.77-5.774-8.036-7.865c-2.327-0.696-3.814-1.325-4.748-2.018
		c-0.908-0.789-2.004-1.6-9.455-1.757c4.704,0.874,17.339,4.848,20.916,12.844c-0.277,0.215-0.54,0.215-0.804,0.202
		c-1.516-4.527-9.348-10.888-21.904-12.173l-1.377,1.504l22.299,10.913l2.82,1.162c1.072,0.574,1.933,1.372,1.933,1.372h-1.187
		c0,0,0.824,1.032,1.956,1.968l-0.224,0.363c-0.777-0.655-0.884-0.687-0.884-0.687l-2.432-0.076
		c0.642,0.831,2.596,2.317,3.047,2.684l-0.07,0.413l-2.244-1.738c-1.122-0.227-3.047-0.227-3.047-0.227
		c1.049,0.341,3.437,2.432,4.91,3.775l-0.165,0.734c-0.305-0.334-0.605-0.676-0.947-1.088c-0.843-0.91-2.836-1.67-5.358-2.439
		l0.101-0.982c-1.267-0.541-4.847-0.541-4.847-0.541c4.32,1.571,8.619,4.791,9.584,5.555c0.331,0.301,0.749,0.737,1.161,0.985
		l-0.073,0.522c-0.958-0.721-2.531-1.876-4.895-3.423c-3.258-2.116-4.067-2.068-5.672-2.335c-1.576-0.317-2.525-0.536-2.285-1.614
		c-2.209-0.281-8.114-1.209-8.114-1.209c8.623,2.506,16.131,6.31,19.468,9.978c0.472,0.49,0.74,1.032,0.929,1.275l-0.086,0.472
		c-4.24-5.338-12.575-8.634-16.943-9.833c-2.528,0-4.407-0.449-5.771-0.963l0.204-0.787c-2.431-0.781-7.983-0.834-10.83-0.316
		c24.509,5.087,28.946,9.684,32.583,15.388v0.125c-0.446-0.077-0.733-0.077-0.733-0.077c-3.893-8.476-21.874-12.509-26.828-13.571
		c-4.938-1.13-5.354-0.931-6.42-0.564l3.404,2.46l-0.449,0.15L39.4,43.428l-4.329-0.929l-0.422,0.454l3.496,2.052l-0.12-0.615
		l35.757,14.534c0.134,0.063,0.3,0.086,0.423,0.106l-0.214,0.397l-1.691-0.625l0.232,0.778c1.459,0.097,2.388,0.979,2.388,0.979
		c-1.138-0.443-2.189-0.723-2.189-0.723l1.26,2.3c2.426,0.828,5.043,3.113,5.043,3.113l-1.975-0.949l-1.923-0.437l1.459,1.913
		c2.439,0.637,5.917,3.66,5.917,3.66l-0.645-1.299l-2.189-1.724l0.083-0.367l1.469,0.694l-0.087-0.87
		c-0.97-1.18-5.673-4.05-5.673-4.05l0.196-0.42c1.703,0.067,5.564,3.435,5.564,3.435l-0.087-1.287c0,0-2.11-1.411-3.265-2.271
		c-1.144-0.857-2.212-1.323-2.212-1.323l0.15-0.317c2.758,1.08,5.208,2.572,5.208,2.572l-0.107-1.132
		c-0.816-0.658-4.322-2.709-5.251-3.02c-0.217-0.077-0.457-0.179-0.619-0.179l0.225-1.203c1.091,0.298,5.45,3.161,5.45,3.161
		c-0.123-0.826-0.548-1.351-0.548-1.351s-3.044-1.899-3.968-2.539c-0.363-0.278-0.54-0.523-0.624-0.748l0.097-0.534
		c0.893,0.534,4.495,2.778,4.495,2.778l-0.412-1.43c-0.611-0.314-1.883-1.043-2.703-1.714c-0.569-0.407-0.911-0.879-1.067-1.135
		l0.08-0.38c0.781-0.112,3.504,2.074,3.504,2.074l-0.771-2.074c-1.049-0.061-1.257-0.375-1.887-1.046
		c-0.135-0.118-0.323-0.272-0.555-0.522l0.127-0.488c0.58,0.353,1.25,0.738,2.134,1.181l-0.553-1.796
		c-0.548-0.237-0.958-0.495-1.305-0.826l0.151-0.788c0.629,0.613,1.039,0.979,1.039,0.979l-0.693-2.485l0.106-0.542
		c0.413,1.263,0.854,1.964,1.169,2.359l1.863,4.355c0.624,0.315,1.686,0.833,4.088,1.378c2.437,0.481,7.353,1.471,11.476,2.901
		c0.908,0.27,2.021,0.69,3.259,1.206 M58.113,16.954c-0.393-0.244-0.816-0.441-1.21-0.714c0.837,0.339,2.107,0.66,3.417,0.714
		c1.088,0.059,3.783-0.023,6.69-0.147l-0.342,1.207c-2.784,0.021-5.862-0.198-7.211-0.272
		C58.928,17.421,58.453,17.125,58.113,16.954 M66.184,19.904c-1.302-0.168-2.597-0.319-3.606-0.449
		c-0.498-0.237-1.033-0.517-1.565-0.781c0.507,0.037,2.972,0.098,5.43,0.176L66.184,19.904z M63.994,32.339
		c0.939,0.201,4.858,2.503,4.858,2.503l-0.744,0.198l-4.225-2.26L63.994,32.339z M53.796,28.485c0,0,1.375,0.24,2.627,1.542
		C55.369,29.499,53.796,28.485,53.796,28.485 M62.538,33.328c0,0-4.539-2.161-5.155-2.367l0.07-0.436c0,0,3.486,1.179,5.176,2.386
		L62.538,33.328z M62.538,32.239l-5.272-2.137v-0.537l5.473,2.253L62.538,32.239z M69.992,36.988l-6.53-3.078l0.217-0.462
		c0,0,4.304,1.702,6.631,3.272L69.992,36.988z M48.012,46.948l-1.905-1.865c1.284,0.24,2.244,1.616,2.244,1.616L48.012,46.948z
		 M49.163,45.589c0.561-0.507,2.423,1.807,2.337,2.314C51.179,47.265,49.163,45.589,49.163,45.589 M56.935,50.222l-3.858-1.255
		l0.075-0.469c1.594,0,4.115,1.119,4.115,1.119L56.935,50.222z M58.752,48.967l-5.387-1.31l-0.102-0.523
		c2.559-0.186,5.69,1.28,5.69,1.28L58.752,48.967z M68.215,54.858c-1.365-0.211-8.721-3.682-8.721-3.682l0.3-0.471
		c2.191,0.665,8.625,3.707,8.625,3.707L68.215,54.858z M69.157,54.542c-2.625-2.634-9.145-4.925-9.145-4.925l0.196-0.749
		c6.209,1.69,9.682,5.674,9.682,5.674H69.157z"/>
	<path fill="#0067B1" d="M99.225,60.074c-2.546-1.153-4.107-2.04-7.143-2.631c-3.687-0.767-7.699-1.496-8.827-2.091
		c-1.168-0.494-1.508-1.459-2.656-1.691l0.632,1.691c1.795,0.596,2.024,0.975,3.056,1.237c1.045,0.168,6.524,1.247,10.013,2.56
		c1.164,0.429,2.88,1.172,4.925,2.049"/>
	<path fill="#0067B1" d="M99.225,62.084c-1.326-0.617-2.719-1.184-4.193-1.524c-4.61-1.33-7.164-1.735-9.293-2.502
		c-3.451-1.298-3.227-1.945-4.085-2.044l0.634,1.623c1.672,0.85,3.17,1.375,5.376,1.945c2.208,0.536,5.672,1.351,8.203,2.342
		c0.745,0.261,1.909,0.742,3.357,1.439"/>
	<path fill="#0067B1" d="M99.225,64.445c-0.115-0.04-0.188-0.118-0.311-0.147c-3.934-1.477-6.413-2.375-9.586-3.021
		c-3.132-0.66-4.632-1.921-6.712-2.909l0.723,1.856c4.326,1.374,7.681,2.334,11.344,3.529c1.385,0.4,2.946,1.13,4.542,1.971"/>
	<path fill="#0067B1" d="M99.225,66.882c-2.234-1.106-4.985-2.011-6.178-2.266c-1.635-0.318-4.761-1.208-6.118-2.055
		c-1.383-0.815-1.891-1.285-3.162-1.483l0.521,1.587c0.635,0,1.452,0.398,2.642,0.941c1.146,0.547,6.408,2.169,8.939,2.924
		c1,0.271,2.155,0.869,3.357,1.529"/>
	<path fill="#0067B1" d="M99.225,69.332c-2.087-1.088-3.974-1.638-6.559-2.324c-4.899-1.28-7.12-3.596-8.176-3.596l0.723,1.704
		c1.189,0.24,3.073,1.52,3.073,1.52c2.734,0.581,6.909,2.106,10.939,4.129"/>
	<path fill="#0067B1" d="M99.225,71.864c-2.855-1.747-5.562-2.72-8.617-3.62c-1.081-0.333-1.67-0.333-2.534-1.313
		c-0.828-0.957-2.108-0.957-2.419-0.629l0.413,1.267l3.162,1.604c2.34,0.203,5.996,1.666,9.995,3.833"/>
	<path fill="#0067B1" d="M99.225,74.626c-2.244-1.452-4.046-2.528-8.325-4.033c-2.102-0.761-2.614-1.599-2.614-1.599h-1.792
		l0.347,1.391c0,0,2.488,0.844,5.001,1.557c0.975,0.304,3.917,1.92,7.383,4.04"/>
	<path fill="#0067B1" d="M87.526,74.298c0,0,5.782,2.322,11.694,6.211v-1.087c-0.963-0.666-1.814-1.21-2.618-1.522
		c-2.181-0.92-4.672-2.539-4.763-3.375c2.238,0.986,4.913,2.266,7.38,3.713v-0.965c-2.618-1.714-6.424-4.079-10.286-5.917
		l-1.911,0.392l0.331,0.887c0,0,0.674,0.263,1.809,0.687l-1.637,0.372"/>
	<path fill="#0067B1" d="M83.384,117.099c1.683,0.66,3.475,1.231,5.306,1.797h10.53v-0.138c-2.714-0.647-5.907-1.357-7.357-1.758
		c-11.545-3.289-20.731-4.808-26.502-4.431c-5.774,0.4-9.432-0.04-9.432-0.04l-0.259-0.439c3.52,0.765,7.916,0.136,9.442,0.103
		c7.493-0.35,13.968,1.279,13.968,1.279l-0.279-0.433c0,0,4.581,1.402,6.583,1.976c4.324,1.233,9.952,2.387,13.834,3.247v-2.633
		c-1.714-0.32-4.984-0.842-8.688-1.331c3.948,0.144,7.057,0.572,8.688,0.903v-1.638c-4.081-0.625-10.673-1.204-18.519-0.941
		c7.812-0.636,14.414-0.069,18.519,0.504v-2.146h-0.206c-0.104,0-0.217-0.148-0.217-0.214c0-0.11,0.13-0.207,0.26-0.207l0.163,0.076
		v-1.55c-1.452-0.15-2.403-0.243-2.403-0.243c-0.088,0-0.131-0.102-0.141-0.129c-0.027-0.018-0.066-0.065-0.066-0.114
		c0.039-0.105,0.1-0.176,0.256-0.176c0,0,0.916,0.071,2.354,0.254v-1.483c-0.459-0.023-0.823-0.023-1.042-0.023l-1.701-0.195
		l-2.242-0.147c-1.33,0.124-2.875,0.388-4.226,0.594c-1.876,0.293-7.225,0.78-11.806,0.091c-3.687-0.537-7.527-0.091-10.981,0.229
		l-2.226,0.289c-0.117,0-0.208-0.099-0.208-0.289c-0.049-0.08,0.058-0.158,0.141-0.158l2.251-0.194
		c3.473-0.415,7.381-0.783,11.049-0.219c4.568,0.643,9.841,0.176,11.74-0.094c0.562-0.15,1.3-0.249,2.045-0.395
		c-1.916-0.074-3.247-0.074-4.131,0c-2.206,0.19-9.105,0.245-11.817-1.184l0.082-0.152c2.001,0.668,5.505,0.641,8.917,0.585
		l1.957-0.021c3.963,0,7.07,0,11.265,0.496c0.264,0,0.613,0.08,0.932,0.107v-0.987c-2.535-0.181-5.127-0.504-6.663-0.662h-0.055
		c-2.792-0.324-8.88-0.179-11.756,0l-1.626,0.12c-1.635,0.07-3.033,0.178-4.1,0c-1.415-0.227-2.904-0.35-6.166-0.12
		c-0.039,0-0.089-0.032-0.162-0.032c-0.019-0.021-0.034-0.147-0.034-0.198c0-0.021,0-0.063,0.021-0.094
		c0.063-0.023,0.091-0.047,0.17-0.078c3.267-0.186,4.761-0.122,6.256,0.128c0.989,0.166,2.379,0.043,4.015-0.051l1.599-0.078
		c2.88-0.122,9.051-0.291,11.812,0.031h0.073c1.513,0.12,4.093,0.416,6.616,0.668v-1.042c-1.452-0.1-2.61-0.166-3.358-0.332
		c-3.228-0.55-7.317-0.645-8.927-0.645l-0.011-0.166c3.608-0.579,6.736-0.031,8.454,0.237c0.56,0.076,2.019,0.17,3.842,0.188v-1.005
		c-1.065,0-2.051-0.025-2.936-0.094c-4.683-0.416-6.144-0.178-8.171,0.094l-1.079,0.107c-0.877,0.072-1.821,0.289-2.68,0.441
		c-1.74,0.291-3.407,0.536-4.907,0.438H79.35v-0.567h0.128c1.57,0,3.485-0.312,5.358-0.582c1.565-0.227,3.027-0.518,4.12-0.532
		h0.647c2.259-0.189,5.075-0.304,6.908,0.073c0.385,0.113,1.366,0.085,2.708,0v-1.25c-1.086,0-2.231-0.019-3.463-0.066
		c-5.299-0.174-19.19,1.717-19.334,1.744l-0.094,0.033v-0.532h0.088c4.652-0.88,15.278-1.877,19.767-1.953
		c1.242-0.031,2.212-0.031,3.035-0.031v-0.874c-5.367,0.316-12.818,0.63-17.321,1.172c-5.69,0.686-7.693,1.496-10.813,0.981
		l0.709-0.474l-0.952-1.05c0,0,0.15-0.179,0.357-0.465l1.727,1.624l1.065-0.27c-1.21-0.688-1.886-1.675-2.254-2.42
		c0.086-0.14,0.157-0.289,0.271-0.505c1.367,0.904,3.264,2.701,3.264,2.701l0.937-0.123l-3.874-3.473
		c0.13-0.283,0.225-0.636,0.315-0.993c2.114,0.892,5.463,4.254,5.463,4.254l0.903-0.129c-0.512-0.666-3.906-3.346-6.194-5.096
		c0.091-0.467,0.104-0.959,0.05-1.381c3.029,1.972,8.393,6.172,8.393,6.172l0.936-0.1c-0.972-0.637-7.437-5.725-9.47-7.35
		c0.25-0.088,0.538-0.254,0.801-0.361c3.319,1.501,10.658,7.4,10.658,7.4h0.845c-1.023-0.829-7.448-5.899-10.27-7.918
		c0.372-0.173,0.8-0.372,1.228-0.54c3.767,1.942,11.031,8.312,11.031,8.312l1.049-0.102c-1.378-1.275-8.323-6.693-11.221-8.632
		c0.464-0.188,0.902-0.434,1.38-0.637c4.278,1.969,12.188,9.189,12.188,9.189l1.238-0.071c-0.846-1.231-9.372-7.348-12.751-9.447
		c0.444-0.163,0.908-0.406,1.341-0.625c0.749,0.357,1.621,0.866,2.615,1.512l0.136,0.667l0.15-0.507
		c4.427,2.995,10.056,8.229,10.056,8.229l2.021-0.099c-2.079-1.64-8.372-6.292-11.842-8.904l0.381-1.176
		c1.549,0.903,3.689,2.29,5.192,3.572c2.613,2.233,6.8,4.96,7.435,6.479l1.583-0.071c-1.181-0.862-2.945-3.855-5.175-4.936
		c-1.813-0.907-6.238-4.239-8.801-5.872l0.266-0.876c0.139-0.087,0.268-0.163,0.372-0.183c4.798,1.959,13.519,10.444,14.584,11.55
		V96.53c-0.903-1.063-1.663-2.417-3.763-4.013c-2.854-2.169-8.451-5.894-9.802-6.761c0.345-0.172,0.788-0.398,1.268-0.556
		c1.738,1.193,6.327,4.376,9.974,7.563c0.908,0.734,1.683,1.395,2.323,1.923v-2.169c-2.852-2.457-7.75-6.19-11.054-7.812
		c0.269-0.173,0.559-0.24,0.84-0.395c2.83,1.204,6.83,4.221,10.214,7.12V89.39c-3.463-2.449-7.384-4.811-8.771-5.624
		c0.412-0.217,0.822-0.393,1.247-0.561c1.964,0.801,4.747,2.746,7.524,4.969v-1.282c-2.795-1.923-5.31-3.519-6.346-4.112
		c0.33-0.222,0.721-0.362,1.044-0.434c1.062,0.608,3.006,1.838,5.301,3.491v-1.875c-1.323-0.933-2.571-1.743-3.616-2.279
		c0.602-0.281,1.045-0.417,1.213-0.477c0.381,0.252,0.745,0.543,1.158,0.823c0.41,0.316,0.808,0.658,1.246,0.924v-1.474
		c-4.044-2.646-8.605-5.087-13.128-6.24l-0.298,0.483L83.786,74.2c0,0-3.686-0.417-4.634-0.636c0,0,5.038,3.118,6.642,3.751
		l-0.115,0.428l-1.385-0.636c0,0-2.606,0.098-3.789,0c0,0,2.297,0.208,3.15,2.159c0,0,4.111,1.452,6.426,3.081l1.179-0.42
		c0,0-4.419-2.129-4.419-2.661c0-0.534-0.139-0.633-0.139-0.633s3.47,1.234,5.912,2.758l1.563-0.553c0,0-7.27-2.748-8.21-4.6
		c1.281,0.155,4.894,1.021,9.901,4.27L68.659,91.316l-0.232,0.705c-8.635-6.738-12.867-5.864-19.027-7.143
		c-5.575-1.112-8.08-0.939-8.08-0.939l-5.594,1.591c0,0,13.673,0.227,19.267,1.974c5.528,1.677,9.337,4.058,9.987,5.087l3.439-0.495
		l-0.104,0.319l2.022,0.122c-0.778,0.156-1.735,0.332-3.068,0.526c-4.29,0.612-10.556,1.748-18.506,2.797
		c-7.252,1.035-14.197,2.085-24.062,2.335c0.005-0.061,0.032-0.493,0.079-1.084c0.023-0.339,0.096-0.77,0.167-1.202l3.214,1.128
		l2.348-0.265c-0.26,0-0.611-0.024-1.069-0.112h0.299l0.337-1.488l3.342,1.6l1.704-0.145l-4.911-2.208l0.337-1.599l6.645,3.441
		l2.291-0.183l-0.697-0.384c0.06-0.182,0.193-0.631,0.407-1.154c0.764,0.461,1.349,0.804,1.686,1.154l2.22-0.069
		c0,0-0.684-0.377-1.779-0.967c0.091-0.152,0.19-0.428,0.323-0.775l1.648,0.863L43.1,95.625l3.662-0.562
		c0,0-1.706-1.756-4.167-3.502c0.11-0.246,0.196-0.467,0.337-0.666c1.453,0.938,2.94,2.071,4.049,3.443l0.444-2.582
		c-2.546-1.622-6.545-4.152-6.882-4.254c1.477,0.102,4.889,2.5,6.91,3.984l0.418-2.167c-0.976-0.732-2.2-1.611-2.355-1.611
		c0.357-0.104,1.515,0.465,2.412,1.219l0.196-1.108l1.172,0.288l-0.407,1.683c0.135,0.191,0.237,0.346,0.271,0.498
		c0,0-0.126-0.1-0.311-0.227l-0.542,2.035c0.678,0.495,0.974,0.773,0.561,0.539c-0.167-0.117-0.381-0.219-0.6-0.397l-0.649,2.765
		l6.094-0.844l-3.036-0.66l0.201-1.083c0.978,0.278,3.399,1.019,3.981,1.468l2.739-0.385l-0.791-0.211
		c0.027-0.299,0.047-0.75,0.097-1.21c0.991,0.369,1.849,0.744,2.277,1.182l1.782-0.099c0,0-1.898-0.808-4.059-1.646
		c0-0.521-0.05-1.108-0.162-1.532c2.09,0.691,4.331,1.677,5.701,2.84h1.465c0,0-7.886-5.215-18.298-6.102
		c-10.41-0.839-11.853,0.668-11.853,0.668l-1.362,1.705l7.245,3.778c-0.128,0.291-0.234,0.565-0.332,0.785
		c-2.415-1.18-5.552-2.709-8.168-3.734l0.151-0.738l1.103-0.09l-0.132-0.559l-2.207,0.197l-0.193,0.716
		c-0.783-0.328-1.427-0.491-2.014-0.596l-1.547,0.17c0.052-0.17,0.106-0.387,0.135-0.527l1.19-0.148
		c-8.213-3.075-14.161-3.002-15.863-2.874l11.15,3.531l0.856-0.152c-0.052,0.242-0.112,0.541-0.214,0.984l-0.279-0.179l-1.485,0.35
		c0.037-0.11,0.118-0.262,0.139-0.492l0.983-0.191c-2.956-1.374-11.37-2.191-11.37-2.191l-0.435,0.978c1.686,0,7.25,2.47,7.25,2.47
		l3.122-0.923l-0.054,0.088c0,0-0.029,0.152-0.087,0.34l-0.158,0.053h0.109c-0.08,0.296-0.165,0.761-0.328,1.279
		c-1.072-0.371-1.832-0.611-1.832-0.611l-1.999,0.32l3.593,1.075c-0.084,0.495-0.191,0.961-0.35,1.456
		c-2.64-1.063-4.722-1.867-4.722-1.867l-1.469,0.502l-0.297,1.21c-0.861-0.339-1.407-0.531-1.407-0.531l-1.372,0.415
		c0.294,0.166,1.299,0.501,2.559,1.038l-0.665,2.676c-0.715-0.222-1.6-0.469-2.486-0.754c-0.871-0.235-2.891-0.676-5.001-1.093
		c0.141-0.59,0.32-1.064,0.521-1.627c1.531,0.364,2.559,0.609,2.559,0.609l0.193-0.732c0,0-0.584-0.211-2.416-0.663
		c0.193-0.42,0.364-0.833,0.589-1.274c0.874,0.106,1.701,0.361,2.343,0.727l0.232-0.972c0,0-1.179-0.193-2.188-0.446
		c0.276-0.522,0.503-0.81,0.785-1.293c0.634,0.077,1.218,0.317,1.743,0.483l0.279-0.88c0,0-0.804-0.136-1.367-0.451
		c0.328-0.342,0.621-0.641,0.934-0.91c0.245,0.099,0.449,0.127,0.587,0.127l0.306-1.437L2.64,84.533l-0.297,1.794
		c0,0,4.978,1.122,7.117,1.492c-0.298,0.186-0.562,0.354-0.848,0.617c-0.016-0.033-0.016-0.062-0.016-0.092L2.137,86.94L1.79,88.711
		l3.587,0.678l-0.15,0.259l-3.593-0.558l-0.514,1.581v2.021c1.01,0.176,2.056,0.37,2.961,0.533c-0.172,0.449-0.35,1.035-0.482,1.603
		c-0.926-0.17-1.756-0.288-2.479-0.372v0.737c0.809,0.076,1.62,0.15,2.32,0.273c-0.084,0.227-0.162,0.611-0.233,0.874
		c-0.735-0.011-1.411-0.08-2.086-0.133v0.828c0.676,0,1.302,0.059,1.921,0.074C3.011,97.363,2.964,97.685,2.935,98
		c-0.637-0.056-1.247-0.081-1.816-0.196v2.001l1.111,0.02c3.068,0.191,8.08,0.482,12.08,0.681l5.139,0.316
		c2.559,0.154,6.209,0.577,9.731,0.953c1.834,0.233,3.512,0.4,4.973,0.583l0.472,0.015c1.902,0.153,6.316,0.604,11.304,1.03
		c3.454,0.237,4.535,0.104,4.897,0.059c-1.502-0.225-1.722-1.335-1.722-1.335l-0.004-0.067l-0.747,0.067h-0.052l-0.034-0.046
		c-0.018-0.043-0.044-0.125-0.07-0.191l-0.034-0.135h0.104l1.766-0.264h0.063l0.023,0.077l0.081,0.187l0.021,0.135h-0.125
		l-0.836,0.147l0.02,0.023c0.589,0.533,2.51,0.533,3.021,0.533l-0.065-0.158l-0.013-0.077h0.104
		c0.613-0.123,1.422-0.655,1.446-0.655c1.759-0.727,3.676-0.633,5.773,0.306l0.563-0.12h0.1l0.023,0.12l0.023,0.167l0.037,0.08
		l-0.125,0.023c0.493,0.227,0.929,0.515,1.375,0.838l0.049,0.026l-0.018,0.072l-0.058,0.247c1.096,0.637,1.438,1.7,1.438,1.72
		l-0.178,0.07c0,0-1.973-2.83-5.682-2.726c1.041,0.291,3.073,0.787,3.915,1.547c0.063,0.026,2.424,2.238,3.669,2.439
		c0.063-0.123,0.17-0.232,0.333-0.422c0.233-0.275,0.45-0.521,0.647-0.746c0.703-0.828,1.245-1.493,2.217-2.054
		c1.083-0.698,1.767-1.8,2.054-2.236c0.042-0.078,0.057-0.214,0.111-0.214l0.188,0.136c-0.188,0.777-0.801,1.499-1.258,2.06
		c-0.097,0.081-0.156,0.179-0.229,0.254l0.107,0.24l0.005,0.087l-0.039,0.023l-0.85,1.044l-0.131-0.072l0.053-0.15
		c-0.626,0.719-1.764,1.942-2.69,2.313c-0.083,0.051-0.315,0.175-0.469,0.175l-0.05,0.125l-0.063-0.101
		c-0.063-0.023-1.808-0.489-2.99-1.405c-1.205-0.884-4.69-2.623-6.556-2.623l-0.324,0.089c2.508,0.471,6.653,2.018,8.07,3.487
		l0.062,0.031l-0.029,0.052l-0.112,0.469l-0.044,0.118l-0.104-0.104c-2.776-1.979-5.439-3.261-9.496-3.1l-0.464,0.129l1.721,0.452
		l0.11,0.021l-0.05,0.094c0,0-0.013,0.147-0.227,0.299c-0.386,0.268-1.38,0.457-3.797-0.09l-0.426,0.161l-0.04,0.056l-0.05-0.056
		c-1.706-0.713-4.051-1.064-7.821-1.064c-1.331,0-3.261-0.203-6.321-0.528l-3.324-0.345c-3.415-0.398-8.077-0.941-11.387-1.228
		c-2.491-0.304-5.69-0.375-8.761-0.472c-2.554-0.072-4.951-0.107-6.708-0.278L2.64,100.84c-0.503-0.018-1.015-0.053-1.521-0.137
		v0.864h2.432c1.97-0.077,3.188,0.136,4.394,0.27c0.825,0.171,1.615,0.243,2.685,0.289l1.82,0.05
		c1.934,0.08,3.781,0.128,5.874,0.329c1.09,0.214,2.295,0.289,3.415,0.382h0.003c1.641,0.181,3.148,0.35,4.479,0.516
		c1.458,0.214,6.042,0.55,10.117,0.884c1.918,0.176,3.759,0.304,4.983,0.347c3.188,0.35,7.801,0.71,11.651,0.806
		c0.044,0,0.105,0.041,0.136,0.057c0.044,0.029,0.07,0.072,0.07,0.121c0,0.034-0.042,0.077-0.07,0.13
		c-0.031,0.067-0.091,0.067-0.138,0.067c-3.864-0.163-8.476-0.47-11.696-0.761c-1.206-0.07-3.039-0.222-4.962-0.42
		c-3.212-0.171-6.846-0.489-8.909-0.681c-1.952,0.681-3.632,1.101-10.614,0.587c-2.491-0.199-4.97-0.421-7.352-0.638
		c-2.915-0.286-5.706-0.589-8.317-0.688v0.884c1.351,0.263,3.223,0.492,6.121,0.535c4.735,0.198,13.107,0.647,16.037,1.878
		l-0.057,0.168c-1.145,0-3.022-0.291-5.041-0.622c-1.8-0.311-3.679-0.578-4.972-0.657c-0.386,0-0.95-0.025-1.663-0.025
		c-2.627-0.031-7.147-0.031-10.425-0.763v0.639c2.656,0.657,5.497,0.913,7.404,1.06c0.46,0.046,0.887,0.078,1.221,0.094
		c2.567,0.201,10.154,1.148,12.715,1.998v-0.302h0.188c3.332,1.333,11.585,2.641,14.044,2.878c3.303,0.461,9.142,0.104,13.467-0.237
		h0.353h-0.026c0.796-0.086,1.649,0,2.406-0.086c-3.47,0.574-9.314,1.28-13.799,1.083c-4.166,0-13.621-1.815-16.263-2.896
		l-1.886-0.39c-2.309-0.422-4.326-0.898-9.776-1.282c-4.706-0.463-7.894-0.737-10.046-1.355v1.355
		c1.046,0.154,2.182,0.251,3.141,0.251c0.274,0,0.571-0.032,0.788-0.075c0,0-0.308,0.043-0.788,0.075
		c-0.733,0.035-1.917,0.091-3.141,0.035v1.012c2.186,0.245,5.283,0.375,9.066-0.617c0,0-4.12,1.68-9.066,1.21v0.755
		c4.621,0.37,11.33-1.242,12.254-1.414c-0.517-0.947,0.381-0.552,0.381-0.552c3.329,3.618,15.721,3.233,15.721,3.233
		c-12.158,0.71-14.18-1.553-15.721-2.437c-6.006,1.867-10.105,1.988-12.635,1.648v1.499c6.184,1.061,11.505,2.399,11.505,2.399
		s0.096,0.079-0.076-0.41c7.258,3.123,16.512,4.328,20.48,3.914c9.45-1.163,15.056-0.201,15.056-0.201
		c-5.841-0.397-11.563,0.201-14.751,0.452c-3.208,0.353-6.533,0.553-14.818-1.739c-5.56-1.573-13.139-3.085-17.396-3.959v2.19
		c1.018,0.173,2.082,0.344,2.769,0.524c2.337,0.612,9.11,2.218,16.866,3.932h44.279c-7.962-2.193-13.929-3.083-17.59-3.697
		c6.513,0.641,12.977,2.047,19.025,3.697h9.439c-13.254-5.335-35.717-6.042-43.262-5.96c-8.105,0.102-15.381-0.408-18.348-2.156
		c3.946,1.606,13.827,1.993,18.348,1.924c10.979-0.248,21.704,0.956,22.794,1.175c1.096,0.313,1.313,0.313,1.177-0.096
		c10.399,1.661,16.366,3.535,20.235,5.113h10.843c-1.558-0.49-3.079-1.007-4.55-1.552c-6.017-2.088-12.166-3.561-19.58-3.151
		C67.172,113.631,74.79,113.879,83.384,117.099 M75.176,105.747h0.404c0.049,0,0.1,0,0.123,0.067
		c0.042,0.03,0.062,0.076,0.062,0.094c0,0.077-0.021,0.104-0.062,0.149c-0.023,0.032-0.074,0.106-0.123,0.106h-0.404
		c-0.052,0-0.117-0.075-0.156-0.106c-0.063-0.046-0.063-0.073-0.063-0.149C74.957,105.844,75.059,105.747,75.176,105.747
		 M73.269,105.747h0.835c0.067,0,0.102,0,0.148,0.067c0.042,0.03,0.055,0.076,0.055,0.094c0,0.077-0.014,0.104-0.055,0.149
		c-0.047,0.032-0.081,0.106-0.148,0.106h-0.835c-0.058,0-0.121-0.075-0.162-0.106c-0.023-0.046-0.049-0.073-0.049-0.149
		C73.058,105.844,73.13,105.747,73.269,105.747 M71.239,105.796c0.023-0.049,0.102-0.049,0.143-0.049l1.083,0.097
		c0.054,0,0.08,0.046,0.11,0.064c0.031,0.021,0.031,0.104,0.031,0.149c0,0.032-0.013,0.152-0.047,0.152
		c-0.029,0.07-0.094,0.07-0.144,0.07l-1.075-0.116c-0.039,0-0.102-0.075-0.109-0.106c-0.032-0.046-0.053-0.073-0.032-0.149
		C71.2,105.87,71.224,105.814,71.239,105.796 M69.351,105.844l1.062-0.097c0.109-0.053,0.185,0.067,0.185,0.161
		c0.058,0.077,0,0.104-0.031,0.149c-0.013,0.032-0.061,0.106-0.142,0.106l-0.997,0.116c-0.156,0-0.235-0.07-0.266-0.222
		C69.162,105.929,69.238,105.844,69.351,105.844 M82.407,87.503c0.183,0.102,0.379,0.206,0.574,0.316l-0.195,1.2
		c-0.6-0.463-1.07-0.805-1.396-0.994C81.748,87.819,82.092,87.629,82.407,87.503 M55.254,92.907c0.014-0.39,0.05-0.831,0.074-1.346
		c0.343,0.096,0.694,0.225,1.043,0.341c0,0.449,0.055,0.966,0.195,1.323L55.254,92.907z M56.462,89.919
		c-0.044,0.291-0.091,0.857-0.091,1.397c-0.362-0.126-0.7-0.254-1.043-0.372c0-0.54-0.06-1.025-0.144-1.499
		C55.627,89.577,56.021,89.742,56.462,89.919 M51.586,88.556c0,0,1.49,0.293,3.431,0.89c-0.023,0.316-0.029,0.765-0.114,1.331
		c-1.377-0.566-2.667-0.986-3.504-1.303L51.586,88.556z M51.236,90.504c0.702,0.167,2.168,0.488,3.661,0.927
		c-0.016,0.492,0,0.984,0.096,1.39l-4.043-0.986L51.236,90.504z M41.359,90.004c0.365,0.184,0.751,0.4,1.129,0.62
		c-0.073,0.272-0.178,0.471-0.266,0.692c-0.392-0.221-0.739-0.446-1.146-0.739C41.185,90.348,41.265,90.164,41.359,90.004
		 M36.128,88.286l0.563-0.339c0,0,1.936,0.609,4.307,1.886c-0.075,0.171-0.177,0.331-0.264,0.515
		C39.308,89.445,37.725,88.711,36.128,88.286 M39.908,93.063l1.331,0.658c-0.098,0.316-0.208,0.593-0.297,0.82
		c-0.42-0.227-0.897-0.428-1.403-0.751C39.64,93.547,39.752,93.287,39.908,93.063 M30.934,90.896
		c2.747,1.026,5.959,2.33,8.046,3.523c-0.29,0.645-0.454,1.094-0.517,1.206l-7.801-3.473L30.934,90.896z M29.551,90.348
		l-1.824,5.913c-0.832-0.229-1.748-0.567-2.739-0.917c0.063-0.516,0.162-1.084,0.245-1.723l1.98,0.609l0.188-0.732
		c-0.417-0.19-1.125-0.436-2.009-0.705c0.099-0.441,0.183-0.891,0.266-1.306l2.272,0.608l0.105-0.682l-2.169-0.791
		c0.112-0.488,0.235-0.975,0.378-1.443C26.804,89.39,28.036,89.833,29.551,90.348 M24.315,88.836l1.841-0.281
		c-0.054,0.156-0.098,0.372-0.138,0.535c-0.12,0.354-0.24,0.913-0.36,1.44l-1.699-0.55C24.106,89.512,24.203,89.181,24.315,88.836
		 M23.718,90.896l1.753,0.518c-0.112,0.42-0.193,0.784-0.313,1.279c-0.559-0.175-1.149-0.341-1.738-0.565
		C23.491,91.757,23.611,91.289,23.718,90.896 M21.717,90.322l1.604,0.454c-0.083,0.391-0.17,0.808-0.305,1.272
		c-0.557-0.201-1.106-0.38-1.639-0.536C21.479,91.095,21.603,90.671,21.717,90.322 M21.132,92.415l1.706,0.492
		c-0.091,0.553-0.201,1.078-0.349,1.599c-0.569-0.246-1.149-0.47-1.735-0.717C20.866,93.381,21.015,92.869,21.132,92.415
		 M9.856,96.945c-0.574-0.072-2.506-0.286-4.68-0.415c0.034-0.269,0.123-0.498,0.183-0.793C8.153,96.293,9.856,96.945,9.856,96.945
		 M6.34,89.648c0,0,0.887-0.176,1.409-0.137c-0.261,0.469-0.509,0.775-0.751,1.264c-0.478-0.199-1.033-0.612-1.033-0.612
		L6.34,89.648z M5.376,91.431c0.405,0,0.828,0.057,1.276,0.113c-0.232,0.379-0.413,0.808-0.587,1.25
		c-0.37-0.1-0.79-0.203-1.32-0.299C4.931,92.128,5.129,91.786,5.376,91.431 M4.08,92.288c-0.37-0.09-0.808-0.16-1.382-0.211
		l0.735-0.788l0.216,0.125c0,0,0.533-0.098,1.271,0c-0.174,0.244-0.335,0.588-0.475,1.001C4.304,92.397,4.183,92.352,4.08,92.288
		 M4.415,93.308c0.505,0.126,0.944,0.19,1.367,0.26c-0.235,0.59-0.423,1.09-0.605,1.626c-0.436-0.069-0.872-0.168-1.288-0.263
		C4.002,94.457,4.183,93.858,4.415,93.308 M4.304,98.133c-0.313-0.035-0.63-0.087-0.929-0.087c0-0.045,0-0.391,0.09-0.912
		c0.346,0.083,0.717,0.083,1.082,0.107C4.445,97.61,4.342,97.944,4.304,98.133 M3.551,96.378c0.08-0.273,0.118-0.545,0.159-0.866
		c0.473,0.051,0.875,0.112,1.323,0.182c-0.102,0.318-0.185,0.567-0.287,0.805C4.347,96.442,3.987,96.402,3.551,96.378
		 M19.366,98.343c-4.792,0.022-10.146,0.022-14.435-0.209c0.029-0.329,0.082-0.553,0.107-0.862c3.193,0.168,9.535,0.309,9.535,0.309
		l0.266-0.833l1.333,0.692l3.319-0.076C19.413,97.748,19.366,98.133,19.366,98.343 M19.549,97.271l-4.508-1.166l0.338-1.079
		c1.449,0.524,3.027,1.052,4.311,1.473C19.643,96.747,19.577,97.036,19.549,97.271 M15.669,94.184l0.396-1.217l4.132,1.373
		c-0.101,0.471-0.24,0.931-0.32,1.355C18.406,95.224,16.913,94.658,15.669,94.184 M20.375,98.294l0.305-0.714l-0.771-0.248
		c0,0,0.096-0.237,0.201-0.679c0.756,0.219,1.37,0.441,1.758,0.563c-0.104,0.468-0.206,0.829-0.229,0.978l0.313,0.071
		C21.443,98.265,20.915,98.294,20.375,98.294 M20.261,95.859c0.115-0.392,0.219-0.857,0.357-1.354l1.756,0.558
		c-0.104,0.5-0.211,0.969-0.299,1.338C21.481,96.261,20.882,96.079,20.261,95.859 M23.428,98.238c-0.412,0-0.781,0-1.219,0.027
		c0.007-0.071,0.079-0.461,0.149-0.933l1.957-0.116c-0.071,0.363-0.113,0.661-0.149,0.978h0.216
		C24.106,98.238,23.77,98.238,23.428,98.238 M24.326,97.036c-0.503-0.091-1.111-0.29-1.841-0.492c0.101-0.359,0.189-0.85,0.281-1.32
		l1.774,0.61C24.509,96.208,24.383,96.654,24.326,97.036 M22.875,94.604c0.084-0.492,0.229-1.037,0.345-1.542l1.766,0.484
		c-0.115,0.566-0.227,1.111-0.313,1.701C24.058,95.063,23.467,94.829,22.875,94.604 M34.347,99.596l-0.666,0.122h-0.015
		c-0.065,0-0.088,0-0.157-0.042c-0.019-0.033-0.039-0.051-0.078-0.156c0-0.045,0-0.066,0.039-0.112
		c0.021-0.036,0.067-0.082,0.123-0.082l0.667-0.083l0.086-0.062v0.114l0.054,0.158l0.042,0.142H34.347z M75.377,103.529
		l-1.461,0.125c-0.105,0.065-0.222-0.039-0.222-0.173c0-0.021,0-0.08,0.07-0.098c0.037-0.071,0.058-0.094,0.121-0.094l1.481-0.076
		c0.1,0,0.199,0.049,0.199,0.17C75.58,103.461,75.502,103.529,75.377,103.529 M77.738,103.142c0.015-0.026,0.085-0.075,0.138-0.075
		l0.914-0.091c0.15,0,0.242,0.059,0.242,0.166c0.013,0.094-0.066,0.242-0.173,0.242l-0.949,0.077
		c-0.11,0.021-0.203-0.059-0.203-0.171C77.704,103.236,77.707,103.214,77.738,103.142 M77.127,102.977c0.077,0,0.137,0,0.146,0.059
		c0.042,0.032,0.096,0.081,0.102,0.107c0,0.072-0.005,0.094-0.06,0.147c-0.042,0.023-0.078,0.094-0.125,0.094l-1.177,0.077
		c-0.106,0-0.198-0.059-0.198-0.171c-0.018-0.076,0.071-0.173,0.178-0.222L77.127,102.977z M74.354,102.202
		c0.018-0.076,0.081-0.076,0.141-0.076l1.25-0.237h0.157c0.028,0.12,0.091,0.147,0.091,0.191c0,0.046,0,0.096-0.063,0.155
		l-0.028,0.021l-0.087,0.023l-1.252,0.227h-0.118v-0.03h-0.028c-0.05-0.053-0.078-0.077-0.078-0.117
		C74.339,102.278,74.339,102.255,74.354,102.202 M72.635,102.234h1.166c0.031,0,0.083,0.021,0.136,0.021
		c0.055,0.103,0.055,0.118,0.055,0.166c0,0.053,0,0.083-0.055,0.104c-0.052,0.051-0.105,0.051-0.136,0.051h-1.166
		c-0.042,0-0.09,0-0.116-0.051c-0.054-0.021-0.075-0.051-0.075-0.104C72.444,102.304,72.53,102.234,72.635,102.234 M73.083,103.402
		c0.081,0,0.186,0.08,0.186,0.214c0,0.132-0.139,0.17-0.232,0.17l-0.966-0.132c-0.091-0.015-0.176-0.125-0.156-0.194
		c0.044-0.077,0.138-0.171,0.201-0.171L73.083,103.402z M71.098,102.125l0.866,0.232c0.088,0.015,0.152,0.117,0.136,0.168
		c-0.03,0.193-0.121,0.219-0.238,0.219l-0.834-0.24c-0.115-0.03-0.185-0.132-0.156-0.25
		C70.913,102.125,70.993,102.079,71.098,102.125 M71.542,103.29c0.049,0.023,0.088,0.023,0.106,0.113
		c0.047,0.059,0.047,0.08,0.035,0.104c-0.035,0.08-0.066,0.134-0.116,0.134c-0.025,0.015-0.08,0.08-0.141,0l-0.735-0.179
		c-0.112,0-0.17-0.148-0.138-0.225c0.013-0.053,0.044-0.094,0.125-0.12c0.026-0.049,0.076-0.049,0.118-0.049L71.542,103.29z
		 M59.634,95.125c0.509-0.062,0.876-0.099,1.132-0.062c0.086,0,0.173,0.107,0.173,0.185c0,0.096-0.086,0.219-0.183,0.219
		c-0.235,0-0.589,0-1.073,0.045h-0.083l-0.013-0.128l-0.042-0.062l-0.01-0.075L59.5,95.125H59.634z M57.419,95.344l1.248-0.121
		l0.085-0.029v0.076c0,0.074,0,0.115,0.018,0.243c0,0,0.035,0.083,0,0.083l-0.075,0.029l-1.224,0.069l-0.068,0.042l-0.015-0.072
		l-0.042-0.152l-0.028-0.168H57.419z M54.776,95.694l1.84-0.182l0.135-0.045v0.392h-0.08l-1.813,0.246l-0.082,0.08l-0.031-0.106
		l-0.023-0.219l-0.018-0.165H54.776z M54.313,97.363l0.016,0.076l0.021,0.216l0.021,0.029l0.027,0.063l-0.097,0.056l-1.625,0.294
		h-0.076L52.588,98L52.5,97.804v-0.056l-0.008-0.063h0.106l1.657-0.299L54.313,97.363z M52.205,96.185L54,95.859l0.13-0.026
		l0.013,0.099v0.329h-0.107l-1.761,0.283h-0.07l-0.047-0.102l-0.039-0.181l-0.055-0.076H52.205z M49.583,96.598l1.682-0.305
		l0.105-0.032v0.08c0,0.102,0,0.189,0.029,0.286v0.033h-0.104l-1.628,0.286l-0.083,0.028l-0.023-0.08l-0.052-0.235l-0.029-0.033
		L49.583,96.598z M49.28,98.194v0.1l0.018,0.155l0.026,0.029l0.021,0.107l-0.084,0.05l-1.818,0.209l-0.052,0.089l-0.023-0.118
		l-0.029-0.126l-0.016-0.054l-0.032-0.071h0.115l1.754-0.326L49.28,98.194z M47.041,96.99l1.874-0.331h0.07l0.016,0.087v0.024
		c0,0.102,0,0.174,0.022,0.203l0.011,0.093l-0.099,0.028l-1.823,0.268h-0.082l-0.01-0.074l-0.065-0.179l-0.034-0.074L47.041,96.99z
		 M44.352,97.409l1.732-0.275h0.088v0.107c0.008,0.048,0.053,0.122,0.053,0.168v0.123l-0.076,0.048l-1.685,0.224h-0.112
		l-0.016-0.075l-0.031-0.149l-0.039-0.141L44.352,97.409z M42.149,97.804l1.114-0.194h0.141v0.309L43.441,98l-0.127,0.045
		l-1.041,0.148H42.2l-0.05-0.061l-0.06-0.189l-0.021-0.14H42.149z M35.654,99.372l-0.023-0.1l-0.04-0.241v-0.069h0.081l0.75-0.146
		l0.1-0.055l0.005,0.083c0.016,0.118,0.016,0.187,0.047,0.24l0.021,0.097l-0.073,0.062l-0.767,0.083L35.654,99.372z M36.038,100.759
		c-0.04,0-0.084-0.056-0.092-0.125c0-0.109,0-0.128,0.052-0.176c0.014-0.028,0.073-0.07,0.107-0.07l0.769-0.104h0.079l0.011,0.08
		l0.091,0.142l0.034,0.128l-0.125,0.018l-0.783,0.135C36.128,100.787,36.071,100.787,36.038,100.759 M37.613,102.175
		c-0.235,0.059-0.42,0.08-0.559,0.103c-0.083,0.026-0.146,0-0.161-0.023c-0.022,0-0.071-0.053-0.082-0.129
		c-0.018-0.046,0-0.067,0.011-0.09c0.052-0.082,0.081-0.147,0.13-0.147c0.141-0.028,0.328-0.052,0.509-0.113l0.107-0.022
		l0.034,0.083l0.052,0.222l0.049,0.067L37.613,102.175z M37.845,98.962l-0.013-0.118h-0.016l-0.034-0.155l-0.053-0.104h0.116
		l0.681-0.136h0.102v0.115c0.021,0.071,0.021,0.099,0.058,0.15l0.005,0.102h-0.086l-0.637,0.146H37.845z M38.289,100.43
		l-0.007-0.065l-0.1-0.203l-0.019-0.145h0.125l0.645-0.077l0.07-0.05l0.008,0.068l0.08,0.248c0,0,0.038,0.078,0.038,0.102h-0.125
		l-0.616,0.081L38.289,100.43z M39.569,101.775l-0.618,0.113h-0.06l-0.021-0.028c-0.023-0.085-0.073-0.158-0.073-0.158l-0.091-0.189
		h0.164l0.595-0.096l0.073-0.018l0.031,0.059l0.083,0.245l0.05,0.051L39.569,101.775z M39.768,98.635l-0.016-0.071l-0.008-0.221
		l-0.016-0.105h0.097l0.879-0.139h0.057l0.06,0.096v0.171l0.053,0.083h-0.134l-0.866,0.186H39.768z M40.183,100.14l-0.04-0.123
		l-0.067-0.191l-0.031-0.107l0.138-0.019l0.908-0.18h0.094l0.034,0.105l0.047,0.125l0.008,0.056l0.047,0.084l-0.102,0.05l-0.962,0.2
		H40.183z M40.717,101.566l-0.033-0.054c-0.026-0.055-0.053-0.096-0.087-0.168l-0.054-0.106l0.115-0.016l1.048-0.169h0.061
		l0.044,0.085l0.021,0.03l0.104,0.14l0.013,0.089l-0.117,0.018l-1.072,0.15H40.717z M42.58,102.977l-0.537,0.059h-0.087v0.032
		h-0.008l0.008-0.032c-0.021,0.032-0.12,0-0.125-0.059c-0.08,0-0.094-0.031-0.107-0.16c0,0,0.013-0.023,0.027-0.072
		c0.06-0.026,0.085-0.153,0.185-0.153l0.536-0.066h0.039l0.058,0.066l0.091,0.225l0.047,0.129L42.58,102.977z M42.659,99.676
		l-0.027-0.051l-0.028-0.105l-0.036-0.112l-0.058-0.112h0.149l0.918-0.166h0.083v0.113l0.039,0.053l0.011,0.112l0.05,0.067h-0.118
		l-0.882,0.201H42.659z M43.178,101.223l-0.029-0.084l-0.018-0.07l-0.031-0.093l-0.047-0.154h0.097l0.864-0.119l0.083-0.051
		l0.031,0.107l0.018,0.063l0.023,0.154l0.04,0.093h-0.107l-0.838,0.154H43.178z M44.646,102.592l-0.665,0.153l-0.079,0.048
		l-0.023-0.075c-0.023-0.126-0.083-0.193-0.098-0.214l-0.071-0.107h0.146l0.047-0.025l0.661-0.118h0.065l0.018,0.103l0.065,0.147
		l0.054,0.087H44.646z M44.811,99.326l-0.023-0.054l-0.021-0.188l-0.036-0.053l-0.018-0.069l0.099-0.029l1.589-0.271h0.115v0.072
		l0.044,0.199l0.013,0.098h-0.109l-1.583,0.264L44.811,99.326z M45.331,100.84l-0.014-0.018l-0.053-0.188h-0.018l-0.005-0.152
		l0.076-0.023l1.502-0.174h0.076l0.026,0.08v0.024l0.06,0.118l0.04,0.128l-0.125,0.018l-1.474,0.188H45.331z M47.391,102.255
		l-1.294,0.219h-0.054l-0.023-0.077c-0.063-0.04-0.11-0.143-0.146-0.163l-0.039-0.155h0.151l1.307-0.191h0.1l0.015,0.12l0.019,0.051
		l0.018,0.067l0.01,0.129H47.391z M49.658,100.284l-1.769,0.197l-0.088,0.024l-0.016-0.076l-0.031-0.042l-0.04-0.182v-0.045
		l0.087-0.021l1.758-0.314h0.099l0.008,0.115l0.074,0.221l0.002,0.045L49.658,100.284z M50.097,98.449l-0.063,0.029l-0.044-0.085
		l-0.031-0.127l-0.022-0.071l-0.018-0.061l0.115-0.035l1.493-0.294h0.086l0.067,0.115l0.013,0.214l0.016,0.061l-0.096,0.043
		L50.097,98.449z M50.511,100.161l-0.026-0.122l-0.031-0.1l-0.037-0.115l-0.015-0.076h0.109l1.523-0.274h0.07l0.013,0.121
		l0.086,0.153l0.018,0.141h-0.104l-1.526,0.25L50.511,100.161z M52.674,101.513l-1.516,0.24h-0.097l-0.039-0.051l-0.073-0.213
		l-0.023-0.091h0.12l1.542-0.229h0.081l0.039,0.054l0.058,0.176v0.018l0.036,0.096H52.674z M53.076,99.749l-0.031-0.073
		l-0.029-0.033l-0.044-0.168l-0.002-0.103h0.107l1.544-0.211h0.083l0.018,0.083l0.023,0.053l0.031,0.112l0.029,0.112h-0.102
		l-1.552,0.229H53.076z M55.14,101.223l-1.467,0.194h-0.081l-0.062-0.072l-0.035-0.176l-0.055-0.115h0.125l1.474-0.232h0.099
		l0.013,0.018l0.031,0.229l0.07,0.154H55.14z M55.152,97.685V97.61l-0.083-0.247l-0.029-0.074l0.13-0.018l1.662-0.235h0.07
		l0.031,0.074v0.179l0.036,0.074l-0.117,0.022l-1.6,0.299H55.152z M55.578,99.408l-0.019-0.082l-0.036-0.196l-0.018-0.098h0.122
		l1.55-0.216l0.076-0.055l0.011,0.083l0.055,0.24v0.097l-0.092,0.062l-1.555,0.165H55.578z M57.597,100.84l-1.526,0.229h-0.065
		l-0.029-0.015l-0.063-0.232l-0.023-0.119h0.118l1.531-0.245h0.083l0.008,0.066l0.044,0.263l0.066,0.053H57.597z M57.759,97.271
		l-0.018-0.054l-0.021-0.181l-0.045-0.142h0.084l1.148-0.199h0.073l0.019,0.076l0.021,0.219l0.045,0.105l-0.112,0.015l-1.109,0.161
		H57.759z M58.184,99.084V99.01l-0.071-0.249l-0.013-0.072h0.11l1.072-0.125h0.102l0.018,0.071l0.029,0.1l0.026,0.026l0.01,0.083
		l-0.091,0.089l-1.104,0.098L58.184,99.084z M59.781,100.634l-1.114,0.125h-0.083l-0.017-0.107l-0.068-0.194l-0.01-0.094h0.1
		l1.095-0.158h0.108v0.078l0.073,0.174l0.021,0.066L59.781,100.634z M59.998,96.945l-0.083,0.028l-0.03-0.08v-0.123l-0.021-0.112
		l-0.052-0.062h0.133l1.57-0.268h0.076l0.011,0.072c0,0.097,0.023,0.142,0.023,0.252l0.06,0.042H61.57L59.998,96.945z
		 M60.292,98.761l-0.037-0.072v-0.054l-0.013-0.071l-0.034-0.171h0.107l1.563-0.198h0.094l0.011,0.071l0.065,0.184l0.002,0.136
		h-0.083l-1.575,0.176H60.292z M60.66,100.458l-0.023-0.07l-0.063-0.081v-0.102l-0.021-0.066h0.115l1.591-0.25h0.12l0.013,0.068
		v0.182l0.031,0.021l0.019,0.123h-0.089l-1.607,0.174H60.66z M64.511,98.238l-1.633,0.211h-0.102l-0.013-0.083l-0.047-0.171
		l-0.023-0.096h0.115l1.625-0.221l0.12-0.073v0.14l0.016,0.189l0.029,0.104H64.511z M64.699,99.596h0.13l0.019,0.08v0.214
		l0.034,0.068H64.79l-1.635,0.225l-0.06,0.023l-0.023-0.066l-0.031-0.25l-0.026-0.141h0.081L64.699,99.596z M64.185,96.341
		l-1.646,0.286h-0.096l-0.019-0.096l-0.031-0.2l-0.013-0.122h0.091l1.666-0.196h0.083l0.047,0.066l0.028,0.183v0.08H64.185z
		 M61.072,102.125l-0.087,0.05v-0.096l-0.023-0.043l-0.022-0.147l-0.008-0.113l0.078-0.022c0.616-0.051,1.159-0.168,1.645-0.24
		h0.109l0.013,0.072l0.04,0.252l0.033,0.052l-0.112,0.065C62.246,102.036,61.688,102.079,61.072,102.125 M63.071,103.313
		l-0.295,0.071c-0.06,0-0.122,0-0.148-0.071c-0.04-0.023-0.056-0.076-0.079-0.099c0-0.072,0.023-0.146,0.023-0.146
		c0.056-0.091,0.115-0.091,0.165-0.091l0.255-0.031h0.103v0.089l0.023,0.081l0.023,0.12l0.044,0.076H63.071z M63.384,101.888
		l-0.029-0.113l-0.023-0.208l-0.01-0.077l0.112-0.032c0.67-0.059,1.208-0.059,1.547-0.059c0.047,0,0.092,0,0.133,0.018
		c0,0.041,0.044,0.073,0.044,0.126c0,0.042-0.044,0.16-0.044,0.16c-0.042,0.051-0.086,0.051-0.133,0.051
		c-0.326,0-0.826,0.022-1.507,0.107L63.384,101.888z M66.441,98l-1.088,0.133h-0.109v-0.087l-0.055-0.168l-0.021-0.148h0.125
		l1.106-0.119h0.083l0.021,0.074l0.026,0.193L66.553,98H66.441z M66.751,99.408c0.014,0,0.1,0.046,0.152,0.067
		c0.023,0.029,0.031,0.121,0.031,0.168c0,0.033-0.008,0.106-0.031,0.106c-0.052,0.056-0.138,0.056-0.152,0.056
		c-0.203,0-0.599,0.02-1.134,0.084h-0.078l-0.019-0.084l-0.06-0.163v-0.168h0.109C66.124,99.454,66.53,99.408,66.751,99.408
		 M66.181,96.185l-1.148,0.108h-0.102v-0.085l-0.049-0.196v-0.104h0.117l1.154-0.171l0.055-0.042l0.022,0.139l0.055,0.199
		l0.018,0.153H66.181z M63.733,103.29h-0.107l-0.005-0.076l-0.029-0.179l-0.005-0.148h0.086c0.306-0.07,0.512-0.07,0.657-0.07
		c0.058,0,0.103,0.07,0.155,0.129c0.026,0.031,0.067,0.089,0.067,0.122c0,0.049-0.042,0.075-0.067,0.146
		c-0.052,0.022-0.097,0.049-0.155,0.049C64.219,103.263,64.013,103.29,63.733,103.29 M67.269,102.887
		c-0.6,0.403-1.145,0.729-1.376,1.065c-0.735,1.069-1.277,1.544-1.277,1.544l-0.227,0.121l0.044-0.217
		c0.357-1.411,2.15-3.097,2.236-3.146l0.037-0.021h0.015c1.19-0.346,2.57-1.259,2.766-2.294h0.198
		C69.825,101.345,68.474,102.175,67.269,102.887 M67.195,97.439h0.074l0.619-0.076c0.052,0,0.078,0.022,0.156,0.046
		c0.044,0.03,0.063,0.123,0.063,0.171c0.014,0.03,0,0.104-0.057,0.122c-0.005,0.028-0.083,0.046-0.127,0.046l-0.595,0.129
		l-0.103,0.029l-0.019-0.159l-0.01-0.138V97.439z M68.233,97.439l0.154-0.053l0.619-0.412l0.037-0.028l0.06,0.028l0.326,0.122
		l0.091,0.015l-0.039,0.131l-0.454,0.636l-0.047,0.067l-0.052-0.025l-0.54-0.339L68.233,97.439z M68.398,96.079h-0.084v-0.066
		c-0.271,0-0.718,0.02-1.205,0.066h-0.07v-0.066l-0.032-0.275v-0.072l0.086-0.027c0.494-0.013,0.89-0.013,1.221-0.074v-0.096h1.484
		l0.1-0.927c-0.872,0.146-5.633,1.293-7.789,1.01h-0.062v-0.038l-0.106-0.582l-0.051-0.103l0.092-0.018l8.538-1.189h0.076
		l0.058,0.053l0.081,0.484l0.497,0.382l0.013,0.04v0.024c0,0-0.159,0.908-0.908,1.328C69.825,96.261,69.162,96.293,68.398,96.079
		 M67.568,106.058l0.83-0.129c0.075,0,0.122,0,0.165,0.083c0.054,0,0.054,0.046,0.054,0.152c0.042,0.045,0,0.116-0.016,0.146
		c-0.039,0.046-0.082,0.078-0.128,0.078l-0.877,0.096c-0.028,0-0.088,0-0.129-0.053c-0.048-0.027-0.069-0.075-0.069-0.121
		C67.388,106.209,67.451,106.058,67.568,106.058 M66.441,106.209h0.542c0.032,0,0.094,0,0.109,0.07
		c0.016,0.031,0.079,0.077,0.079,0.109c0,0.043-0.063,0.123-0.079,0.134c-0.015,0.031-0.078,0.031-0.109,0.031h-0.542
		c-0.055,0-0.081,0-0.139-0.031c-0.068-0.011-0.096-0.091-0.096-0.134C66.207,106.311,66.342,106.209,66.441,106.209
		 M27.375,114.296c8.351-0.317,12.327,0.668,12.327,0.668c-10.89-1.085-8.974,0.393-17.965-0.614
		c-10.582-1.16-12.061-3.03-12.061-3.03C11.795,112.089,20.232,114.563,27.375,114.296 M94.942,108.223l1.072,0.107
		c0.101,0.025,0.171,0.092,0.161,0.214c-0.02,0.103-0.107,0.168-0.213,0.15l-1.049-0.096c-0.06,0-0.107-0.023-0.115-0.105
		c-0.058,0-0.094-0.071-0.063-0.09C94.74,108.33,94.853,108.2,94.942,108.223 M92.721,108.101h1.372c0.023,0,0.083,0.022,0.143,0.1
		c0,0,0.061,0.081,0.061,0.13c0,0.025-0.061,0.072-0.061,0.092c-0.06,0.045-0.12,0.071-0.143,0.071h-1.372
		c-0.055,0-0.107-0.026-0.141-0.071c-0.042-0.02-0.049-0.067-0.049-0.092C92.531,108.2,92.614,108.101,92.721,108.101
		 M90.373,108.101c0.076-0.072,0.104-0.072,0.16-0.072l1.164,0.072c0.094,0.022,0.167,0.123,0.141,0.229
		c0,0.072,0,0.092-0.047,0.121c-0.023,0.016-0.055,0.042-0.143,0.042l-1.145-0.09c-0.045,0-0.082-0.047-0.155-0.072
		c-0.004,0-0.015-0.107-0.015-0.13C90.332,108.123,90.342,108.101,90.373,108.101 M87.934,108.33
		c0.02-0.049,0.085-0.107,0.136-0.107l1.158-0.123c0.099,0,0.207,0.1,0.207,0.229c0.026,0.072-0.091,0.137-0.175,0.163l-1.146,0.105
		c-0.067,0-0.132,0-0.159-0.023c-0.028-0.082-0.063-0.107-0.063-0.152C87.885,108.402,87.892,108.33,87.934,108.33 M85.539,108.402
		c0.034-0.047,0.087-0.072,0.117-0.072l1.268-0.107c0.1,0,0.198,0.107,0.2,0.179c0,0.09-0.077,0.195-0.189,0.195l-1.242,0.096
		c-0.049,0.018-0.12-0.018-0.149-0.047c-0.047,0-0.07-0.049-0.07-0.154C85.473,108.467,85.494,108.422,85.539,108.402
		 M83.655,108.223h1.059c0.068,0,0.123,0,0.138,0.058c0.032,0.049,0.068,0.074,0.068,0.122c0,0.049-0.036,0.09-0.068,0.172
		c-0.015,0.023-0.07,0.023-0.138,0.023h-1.059c-0.025,0-0.084,0-0.11-0.023c-0.062-0.082-0.075-0.123-0.075-0.172
		C83.47,108.33,83.558,108.223,83.655,108.223 M81.688,108.059c0.034-0.03,0.06-0.03,0.135-0.03l1.065,0.194
		c0.031,0,0.076,0.058,0.11,0.107c0.026,0.025,0.026,0.072,0.026,0.092c-0.026,0.071-0.042,0.122-0.097,0.152
		c-0.034,0.023-0.109,0.023-0.109,0.023l-1.07-0.195c-0.127-0.047-0.157-0.122-0.157-0.202
		C81.609,108.101,81.62,108.101,81.688,108.059 M64.245,107.93c0.049,0,0.101,0.027,0.13,0.099c0.047,0,0.047,0.072,0.047,0.072
		c0,0.1-0.034,0.123-0.076,0.18c-0.031,0-0.08,0.049-0.161,0.049c-2.075-0.229-7.19-2.241-7.378-2.318
		c-0.132-0.027-0.19-0.168-0.132-0.265c0.054-0.096,0.175-0.179,0.261-0.13C56.971,105.651,62.215,107.66,64.245,107.93
		 M62.849,108.2c0,0.023-0.033,0.13-0.042,0.13c-0.032,0.025-0.091,0.072-0.154,0.072c-1.645,0.09-3.527,0.195-6.94,0.09
		c-0.135,0-0.19-0.09-0.19-0.163c0-0.049,0.008-0.13,0.036-0.13c0.067-0.077,0.111-0.1,0.154-0.1c3.405,0.123,5.272,0,6.914-0.072
		c0.065,0,0.109,0,0.148,0.072C62.815,108.101,62.849,108.123,62.849,108.2 M55.304,104.462c0.107,0.031,2.64,0.431,3.501,0.882
		l-0.053,0.181c-0.085,0-2.141-0.029-3.499-0.913L55.304,104.462z M50.303,106.629c0.083-0.023,0.1-0.023,0.151-0.023h0.101
		c0.864,0.023,7.717,0.345,9.492,0.659c0.062,0,0.096,0.059,0.12,0.08c0.042,0.043,0.065,0.075,0.065,0.11
		c-0.023,0.056-0.065,0.127-0.096,0.127c-0.027,0.062-0.027,0-0.081,0.062h-0.057c-1.874-0.299-9.486-0.67-9.543-0.67
		c-0.065,0-0.133-0.023-0.151-0.049c-0.014-0.026-0.065-0.08-0.065-0.149S50.289,106.68,50.303,106.629 M54.328,108.33
		c0,0.025-0.029,0.072-0.052,0.092c-0.021,0.045-0.094,0.071-0.133,0.071h-1.066c-0.061,0-0.105-0.026-0.136-0.071
		c-0.049-0.02-0.065-0.067-0.065-0.092c0-0.13,0.094-0.229,0.201-0.229h1.066c0.04,0,0.112,0.022,0.133,0.1
		C54.276,108.2,54.328,108.281,54.328,108.33 M52.424,108.223c0,0.058-0.018,0.107-0.061,0.132
		c-0.037,0.047-0.088,0.047-0.141,0.047l-1.043-0.072c-0.118-0.049-0.217-0.13-0.217-0.229c0.034-0.072,0.06-0.072,0.099-0.144
		c0.042-0.027,0.097-0.027,0.151-0.027l1.062,0.099c0.026,0,0.088,0.03,0.131,0.072C52.424,108.101,52.453,108.2,52.424,108.223
		 M48.889,107.388c0.047,0,0.096-0.043,0.146,0l1.063,0.271c0.104,0.054,0.141,0.152,0.125,0.297
		c-0.021,0.102-0.125,0.144-0.263,0.144l-1.023-0.387c-0.047,0-0.086-0.054-0.115-0.07c-0.058-0.062-0.058-0.091-0.034-0.133
		C48.82,107.455,48.849,107.42,48.889,107.388 M46.603,106.925l1.06,0.244c0.092,0.023,0.162,0.096,0.139,0.219
		c-0.016,0.067-0.136,0.165-0.219,0.123l-1.034-0.166c-0.085,0-0.119-0.021-0.148-0.106c-0.04-0.024-0.04-0.069-0.04-0.149
		C46.378,106.95,46.515,106.899,46.603,106.925 M44.192,106.311l1.24,0.295c0.133,0.023,0.186,0.1,0.165,0.264
		c-0.032,0.081-0.116,0.205-0.243,0.104l-1.253-0.345c-0.112,0-0.159-0.106-0.13-0.197
		C43.981,106.357,44.096,106.311,44.192,106.311 M41.751,105.844l0.955,0.214c0.114,0.032,0.206,0.152,0.143,0.299
		c0,0.032-0.029,0.047-0.058,0.075c-0.08,0.053-0.117,0.053-0.159,0.053l-0.937-0.205c-0.065,0-0.111-0.07-0.125-0.116
		c-0.028-0.075-0.06-0.106-0.028-0.152C41.57,105.89,41.667,105.844,41.751,105.844 M39.958,105.617l0.759,0.13
		c0.023,0,0.044,0.049,0.104,0.067c0.053,0.056,0.058,0.094,0.053,0.171c0,0.027-0.053,0.073-0.113,0.104
		c-0.026,0.075-0.057,0.075-0.104,0.075l-0.747-0.152c-0.049,0-0.081-0.027-0.143-0.104c-0.016-0.018-0.024-0.064-0.024-0.094
		C39.752,105.651,39.862,105.617,39.958,105.617 M38.387,105.344l0.971,0.096c0.093,0.041,0.125,0.11,0.125,0.178
		c0,0.13-0.083,0.227-0.201,0.197l-0.932-0.12c-0.116-0.043-0.19-0.126-0.188-0.198C38.163,105.4,38.255,105.344,38.387,105.344
		 M22.732,106.164l-0.084-0.235c3.473-1.939,16.449,0.351,20.802,1.526l-0.045,0.188c-0.472,0-3.329-0.405-6.316-0.868l-4.304-0.611
		C29.369,105.651,25.899,105.651,22.732,106.164 M35.408,109.482c-1.808-0.296-5.546-0.771-8.006-0.771v-0.219
		c1.497-0.392,6.068,0.154,8.229,0.471l0.753,0.121c0.047,0,6.877,0.866,8.701,0.705l0.05,0.224
		C43.263,110.385,39.911,110.186,35.408,109.482 M53.431,110.465l-0.253-0.17l-0.208-0.203l0.295,0.023
		c1.036,0.27,2.105,0.443,3.271,0.562h0.082c5.995,0.763,11.602-0.212,14.92-0.727l1.429-0.23c0.95-0.141,1.799-0.322,2.442-0.462
		c0.66-0.128,1.01-0.197,1.185-0.273c-0.243-0.09-0.506-0.273-0.728-0.368c-3.047,0.816-15.012,2.265-23.747,1.172
		c-16.024-1.978-25.766-2.576-28.967-1.761l-0.106-0.289c1.92-1.034,10.363-0.766,15.119-0.08c4.597,0.67,16.58,1.598,19.961,1.738
		c5.463,0.181,11.2-0.268,17.081-1.197l-0.068-0.077l-0.026-0.022c0-0.042-0.005-0.072-0.034-0.072
		c-0.018-0.072,0.029-0.099,0.047-0.179c0.013-0.038,0.082-0.11,0.116-0.11c0.062,0,0.127,0.072,0.138,0.11
		c1.474,1.28,5.025,1.779,7.771,1.966c2.746,0.198,11.358,0.543,15.141,0.649c0.109,0,0.193,0.093,0.193,0.212
		c0,0.103-0.084,0.154-0.221,0.154c-3.781-0.089-12.07,0-14.812-0.272c-4.483-0.467-4.827-0.979-6.074-1.321
		C67.983,111.083,63.822,112.551,53.431,110.465"/>
</g>
</svg>
