<?xml version="1.0" encoding="UTF-8" standalone="no"?>
<!-- Created with Inkscape (http://www.inkscape.org/) -->

<svg
   xmlns:dc="http://purl.org/dc/elements/1.1/"
   xmlns:cc="http://creativecommons.org/ns#"
   xmlns:rdf="http://www.w3.org/1999/02/22-rdf-syntax-ns#"
   xmlns:svg="http://www.w3.org/2000/svg"
   xmlns="http://www.w3.org/2000/svg"
   version="1.1"
   width="133.6875"
   height="69.5625"
   id="svg3343">
  <defs
     id="defs3345">
    <clipPath
       id="clipPath3179">
      <path
         d="M 0,0 612,0 612,792 0,792 0,0 z"
         id="path3181" />
    </clipPath>
    <clipPath
       id="clipPath3155">
      <path
         d="M 0,0 612,0 612,792 0,792 0,0 z"
         id="path3157" />
    </clipPath>
    <clipPath
       id="clipPath3083">
      <path
         d="M 0,0 612,0 612,792 0,792 0,0 z"
         id="path3085" />
    </clipPath>
    <clipPath
       id="clipPath3055">
      <path
         d="M 0,0 612,0 612,792 0,792 0,0 z"
         id="path3057" />
    </clipPath>
  </defs>
  <metadata
     id="metadata3348">
    <rdf:RDF>
      <cc:Work
         rdf:about="">
        <dc:format>image/svg+xml</dc:format>
        <dc:type
           rdf:resource="http://purl.org/dc/dcmitype/StillImage" />
        <dc:title></dc:title>
      </cc:Work>
    </rdf:RDF>
  </metadata>
  <g
     transform="translate(-273.15625,-640.4375)"
     id="layer1">
    <path
       d="m 288.5625,657.1875 c -7.255,0 -14.40625,3.31625 -14.40625,12.375 0,13.415 18.0625,10.215 18.0625,17.9375 0,3.65875 -4.18625,5.21875 -7.3125,5.21875 -3.245,0 -7.2625,-0.99 -10.09375,-2.5 l 0,7.3125 c 4.07,0.98625 6.07875,1.5625 10.5625,1.5625 8.315,0 15.4375,-3.36625 15.4375,-12.25 0,-13.59 -18.03125,-10.59875 -18.03125,-17.625 0,-4.41375 3.67,-5.65625 6.5,-5.65625 2.89125,0 6.4675,0.8025 9.0625,1.90625 l 0.0625,-6.84375 c -3.00875,-0.9875 -6.305,-1.4375 -9.84375,-1.4375 z m 48.8125,11.625 c -6.015,0 -11.5625,2.7725 -11.5625,9.03125 0,10.48625 13.34375,6.5875 13.34375,12.28125 0,2.81875 -3.115,3.5625 -5.0625,3.5625 -2.63375,0 -5.12625,-0.7225 -7.53125,-1.90625 l -0.46875,6.1875 c 2.805,0.73125 5.76625,1.25 8.6875,1.25 6.2425,0 12.375,-2.70375 12.375,-9.46875 0,-10.48625 -13.34375,-7.565 -13.34375,-12.1875 0,-2.48125 2.47,-3.21875 4.53125,-3.21875 2.80625,0 4.93375,0.46125 7.28125,1.25 l 0.0937,-5.6875 c -2.40375,-0.5075 -4.7375,-1.09375 -8.34375,-1.09375 z m 26.5,0 c -9.21875,0 -14.28125,6.66125 -14.28125,15.0625 0,8.85125 4.885,15.34375 14.5625,15.34375 3.14875,0 5.42375,-0.2925 7.65625,-0.96875 L 371.46875,692 c -1.31625,0.56375 -3.6975,1.34375 -5.875,1.34375 -5.38125,0 -7.96875,-4.1125 -7.96875,-9.46875 0,-5.46875 3.02625,-9.1875 7.78125,-9.1875 2.34625,0 3.845,0.4425 5.21875,1.0625 l 0.6875,-5.96875 c -2.12,-0.62 -4.345,-0.96875 -7.4375,-0.96875 z m 24.21875,0 c -8.70375,0 -15.40625,5.82125 -15.40625,15.40625 0,8.345 5.6725,15 15.40625,15 9.7925,0 15.46875,-6.655 15.46875,-15 0,-9.585 -6.7075,-15.40625 -15.46875,-15.40625 z m 15.375,0 c -1.315,0 -2.34375,1.02 -2.34375,2.28125 0,1.275 1.02875,2.3125 2.34375,2.3125 1.31375,0 2.375,-1.0375 2.375,-2.3125 0,-1.26125 -1.0425,-2.28125 -2.34375,-2.28125 l -0.0312,0 z M 318.875,669.09375 304.21875,709 l 7.03125,0 15.40625,-39.90625 -7.78125,0 z m 84.59375,0.28125 c 0.97,0 1.65625,0.7625 1.65625,1.71875 0,0.9575 -0.7,1.7625 -1.65625,1.75 -0.9575,0 -1.65625,-0.775 -1.65625,-1.71875 0,-0.97 0.72625,-1.75 1.65625,-1.75 z m 0,0.625 c -0.43875,0 -0.79,0.0675 -0.9375,0.0937 l 0,2.09375 0.65625,0 0,-0.78125 0.21875,0 c 0.2125,0 0.30375,0.13125 0.34375,0.34375 0.04,0.18625 0.0901,0.3587 0.15625,0.4375 l 0.71875,0 c -0.04,-0.0788 -0.0588,-0.195 -0.125,-0.5 -0.0663,-0.30625 -0.19875,-0.46505 -0.4375,-0.53125 l 0,-0.0312 c 0.29125,-0.08 0.46875,-0.28875 0.46875,-0.5 0,-0.2125 -0.0863,-0.345 -0.21875,-0.4375 -0.16,-0.1062 -0.365,-0.1875 -0.84375,-0.1875 z m -0.25,0.46875 c 0.0525,0 0.13875,0 0.21875,0 0.22625,0 0.375,0.0762 0.375,0.25 0,0.14625 -0.1675,0.25 -0.40625,0.25 l -0.1875,0 0,-0.5 z m -15.125,4.21875 c 5.03875,0 7.4375,4.17125 7.4375,8.625 0,4.85 -1.54,10.03125 -7.4375,10.03125 -5.84,0 -7.375,-5.2375 -7.375,-10.03125 0,-4.34125 2.3925,-8.625 7.375,-8.625 z"
       id="path3061"
       style="fill:#0d8ad5;fill-opacity:1;fill-rule:nonzero;stroke:none" />
    <path
       d="m 294.83168,668.38426 c 3.25375,3.29375 6.495,7.30875 8.84375,12.01625 2.1025,4.215 3.165,8.32125 3.92625,12.45625 0.03,0.145 0.12875,0.135 0.1825,0.0213 2.7975,-4.8875 4.50875,-11.54125 2.00625,-16.55625 -2.62375,-5.26 -8.93125,-7.6825 -14.8525,-8.16875 -0.2075,-0.009 -0.24375,0.1 -0.10625,0.23125"
       id="path3089"
       style="fill:#50b737;fill-opacity:1;fill-rule:nonzero;stroke:none" />
    <path
       d="m 305.90625,641.4375 0,4.34375 -0.0312,0 c -0.33,-0.58625 -1.07625,-1.09375 -2.1875,-1.09375 -1.77125,-10e-4 -3.2638,1.48875 -3.25,3.90625 -0.002,2.20875 1.3375,3.6865 3.09375,3.6875 1.1875,10e-4 2.09375,-0.6275 2.5,-1.4375 l 0.0312,0 0.0312,1.28125 1.1875,0 c -0.0437,-0.49625 -0.0312,-1.23 -0.0312,-1.875 l 0,-8.8125 -1.34375,0 z m 11,0.0312 0,10.65625 1.3125,0 0.0312,-4.375 c 0,-0.255 -0.0112,-0.47625 0.0625,-0.65625 0.24125,-0.72125 0.925,-1.3135 1.78125,-1.3125 1.24625,10e-4 1.6885,0.98375 1.6875,2.15625 l 0,4.1875 1.3125,0 0,-4.3125 c 10e-4,-2.50875 -1.555,-3.124 -2.53125,-3.125 -0.49625,0 -0.9525,0.15 -1.34375,0.375 -0.405,0.225 -0.7275,0.56125 -0.9375,0.9375 l -0.0312,0 0,-4.53125 -1.34375,0 z m -36.625,0.40625 c -3.395,-0.003 -5.45125,2.20125 -5.46875,5.21875 0,1.5775 0.53625,2.90875 1.40625,3.75 0.99125,0.9475 2.25,1.34275 3.78125,1.34375 1.3675,0 2.54,-0.32125 3.125,-0.53125 l 0,-4.875 -3.34375,0 0,1.03125 2.0625,0.0312 0,3 c -0.3,0.15 -0.89375,0.28225 -1.75,0.28125 -2.35875,-10e-4 -3.90725,-1.52625 -3.90625,-4.09375 0.002,-2.53875 1.6,-4.0645 4.0625,-4.0625 1.02125,0 1.71,0.19625 2.25,0.4375 l 0.3125,-1.0625 c -0.435,-0.21125 -1.36,-0.46875 -2.53125,-0.46875 z m 44.75,0.25 0,1.3125 1.3125,0 0,-1.3125 -1.3125,0 z m -12.5625,1.375 0,1.34375 -1.125,0 0,1 1.125,0 0,3.96875 c 0,0.85625 0.125,1.51375 0.5,1.90625 0.315,0.36 0.82125,0.5625 1.4375,0.5625 0.51,10e-4 0.90125,-0.0825 1.15625,-0.1875 l -0.0625,-1 c -0.195,0.06 -0.39,0.0937 -0.75,0.0937 -0.73625,0 -1.001,-0.505 -1,-1.40625 l 0,-3.9375 1.90625,0 0,-1 -1.90625,0 0,-1.3125 -1.28125,-0.0312 z M 288,644.65625 c -2.01125,-10e-4 -3.59275,1.44125 -3.59375,3.875 -10e-4,2.2975 1.50125,3.71775 3.46875,3.71875 1.7575,0.003 3.624,-1.15625 3.625,-3.84375 10e-4,-2.2225 -1.41125,-3.749 -3.5,-3.75 z m 8.03125,0 c -2.0125,-10e-4 -3.622,1.44125 -3.625,3.875 -10e-4,2.2975 1.5325,3.748 3.5,3.75 1.75625,10e-4 3.623,-1.1875 3.625,-3.875 10e-4,-2.2225 -1.41375,-3.749 -3.5,-3.75 z m 35.90625,0.0312 c -1.2025,-10e-4 -2.045,0.68375 -2.40625,1.375 l -0.0312,0 -0.0625,-1.1875 -1.1875,-0.0312 c 0.0438,0.60125 0.0635,1.2175 0.0625,1.96875 l 0,5.3125 1.3125,0 0,-4.375 c 0,-0.22625 0.0337,-0.42875 0.0937,-0.59375 0.225,-0.7375 0.91,-1.376 1.78125,-1.375 1.24625,10e-4 1.6885,0.98375 1.6875,2.15625 l 0,4.1875 1.3125,0 0,-4.34375 c 0.002,-2.49375 -1.5575,-3.09275 -2.5625,-3.09375 z m 7.25,0 c -1.6675,0 -3.27925,1.4125 -3.28125,3.875 0,2.0125 1.2925,3.53025 3.09375,3.53125 1.12625,0 1.905,-0.5425 2.3125,-1.21875 l 0.0312,0 0,0.8125 c -0.001,1.8325 -0.9925,2.5645 -2.34375,2.5625 -0.90125,0 -1.675,-0.2925 -2.15625,-0.59375 l -0.3125,1 c 0.585,0.39125 1.535,0.624 2.40625,0.625 0.915,10e-4 1.95,-0.215 2.65625,-0.875 0.7075,-0.63125 1.03025,-1.64625 1.03125,-3.3125 l 0,-4.21875 c 0,-0.88625 0.0325,-1.475 0.0625,-2 l -1.15625,0 -0.0625,1.09375 -0.0312,0 c -0.31375,-0.60125 -0.98875,-1.28025 -2.25,-1.28125 z m 7.625,0.0312 c -1.5625,-10e-4 -2.499,0.95375 -2.5,2.125 0,0.87 0.59875,1.59625 1.90625,2.0625 0.975,0.36125 1.34375,0.7125 1.34375,1.34375 0,0.60125 -0.445,1.0625 -1.40625,1.0625 -0.65875,-10e-4 -1.36,-0.275 -1.75,-0.53125 l -0.3125,1 c 0.51,0.3 1.23375,0.53025 2.03125,0.53125 1.72625,0 2.71775,-0.91125 2.71875,-2.1875 0,-1.08125 -0.645,-1.73625 -1.90625,-2.21875 -0.94625,-0.36125 -1.375,-0.6175 -1.375,-1.21875 10e-4,-0.54 0.4375,-1.001 1.21875,-1 0.67625,10e-4 1.18375,0.2575 1.46875,0.4375 l 0.34375,-0.96875 c -0.405,-0.24125 -1.045,-0.4365 -1.78125,-0.4375 z m -21.78125,0.125 0,7.28125 1.3125,0 0,-7.28125 -1.3125,0 z m -37.0625,0.8125 c 1.5625,10e-4 2.1885,1.55 2.1875,2.78125 -0.002,1.6375 -0.9575,2.84475 -2.21875,2.84375 -1.29125,0 -2.21875,-1.22125 -2.21875,-2.8125 0.002,-1.3825 0.68875,-2.8135 2.25,-2.8125 z m 8.03125,0 c 1.5625,10e-4 2.15625,1.58125 2.15625,2.8125 -0.002,1.63625 -0.92625,2.8135 -2.1875,2.8125 -1.2925,0 -2.21975,-1.22 -2.21875,-2.8125 10e-4,-1.38125 0.68875,-2.8135 2.25,-2.8125 z m 7.9375,0.0625 c 0.99125,0 1.71125,0.69 1.90625,1.53125 0.045,0.165 0.0625,0.3975 0.0625,0.5625 l 0,1.25 c 0,0.21 -0.0162,0.3825 -0.0625,0.5625 -0.24,0.99125 -1.05,1.59475 -1.9375,1.59375 -1.425,-10e-4 -2.126,-1.21625 -2.125,-2.6875 10e-4,-1.6075 0.79,-2.8135 2.15625,-2.8125 z m 35.46875,0.0312 c 0.96,10e-4 1.60375,0.60875 1.84375,1.375 0.0612,0.18 0.0625,0.4 0.0625,0.625 l 0,1.28125 c 0,0.225 -0.0201,0.49375 -0.0937,0.71875 -0.2875,0.84125 -1.0325,1.34375 -1.84375,1.34375 -1.42625,-0.001 -2.127,-1.1675 -2.125,-2.59375 0,-1.6825 0.89375,-2.75 2.15625,-2.75 z m 6.03125,8.5 c -0.61625,-0.001 -1.28625,0.17625 -1.78125,0.65625 -0.6175,0.58625 -0.84275,1.54125 -0.84375,2.5625 l 0,0.34375 -1.03125,0 0,1 1.03125,0 0,6.25 1.3125,0 0,-6.25 1.75,0 0,-1 -1.75,0 0,-0.40625 c 0,-1.11125 0.28,-2.09475 1.40625,-2.09375 0.37625,0 0.64875,0.0649 0.84375,0.15625 l 0.1875,-1 c -0.25375,-0.10625 -0.66,-0.21875 -1.125,-0.21875 z m -36.375,3.375 c -2.3725,-0.001 -3.90525,1.60625 -3.90625,3.84375 -10e-4,2.22375 1.43125,3.749 3.625,3.75 0.975,10e-4 1.74875,-0.2575 2.09375,-0.4375 l -0.25,-1 c -0.37625,0.165 -0.875,0.376 -1.625,0.375 -1.4425,0 -2.501,-1.0375 -2.5,-2.71875 10e-4,-1.5175 0.895,-2.751 2.5625,-2.75 0.72,0 1.21625,0.1625 1.53125,0.34375 L 310.90625,658 c -0.36,-0.18 -1.0625,-0.374 -1.84375,-0.375 z m 6.125,0 c -2.01125,-0.003 -3.624,1.41 -3.625,3.84375 -10e-4,2.2975 1.5325,3.749 3.5,3.75 1.75875,10e-4 3.623,-1.1875 3.625,-3.875 0.002,-2.2225 -1.4125,-3.71875 -3.5,-3.71875 z m 8.40625,0 c -1.20125,0 -1.875,0.6525 -2.28125,1.34375 l -0.0312,0 -0.0625,-1.1875 -1.15625,0 c 0.045,0.60125 0.0635,1.2175 0.0625,1.96875 l 0,5.3125 1.28125,0 0,-4.40625 c 0,-0.225 0.0188,-0.43125 0.0937,-0.625 0.21,-0.66125 0.82875,-1.3135 1.65625,-1.3125 1.005,0 1.502,0.81375 1.5,1.96875 l 0,4.375 1.3125,0 0,-4.5 c 0,-0.24 0.0337,-0.475 0.0937,-0.65625 0.225,-0.645 0.81125,-1.1885 1.5625,-1.1875 1.06625,10e-4 1.59475,0.82125 1.59375,2.21875 l -0.0312,4.125 1.3125,0 0,-4.28125 c 10e-4,-2.5225 -1.41375,-3.15625 -2.375,-3.15625 -0.69125,-0.001 -1.18875,0.17 -1.625,0.5 -0.30125,0.225 -0.5875,0.56375 -0.8125,0.96875 l -0.0312,0 c -0.3163,-0.8561 -1.0713,-1.4676 -2.06255,-1.4686 z m 11.71875,0 c -2.11875,-0.001 -3.40525,1.745 -3.40625,3.9375 -10e-4,2.19375 1.325,3.65325 3.5625,3.65625 1.1575,0 1.93875,-0.2275 2.40625,-0.4375 l -0.21875,-0.96875 c -0.49625,0.21 -1.0525,0.376 -2,0.375 -1.32125,0 -2.4712,-0.745 -2.5,-2.53125 l 5.09375,0.0312 c 0.015,-0.135 0.0625,-0.355 0.0625,-0.625 10e-4,-1.3375 -0.6275,-3.4365 -3,-3.4375 z m 14.8125,0.0312 c -0.75065,0.13022 -1.36641,0.70828 -1.65625,1.5625 l -0.0625,0 -0.0625,-1.40625 -1.15625,0 c 0.0462,0.67625 0.0635,1.39375 0.0625,2.25 l 0,5 1.3125,0 0,-3.875 c 0,-0.22625 0.0325,-0.41375 0.0625,-0.59375 0.18125,-0.99125 0.85,-1.71875 1.78125,-1.71875 0.17875,0 0.30375,0.0338 0.4375,0.0625 l 0,-1.25 c -0.12,-0.0301 -0.22375,-0.0312 -0.375,-0.0312 -0.11078,-1.6e-4 -0.23651,-0.0186 -0.34375,0 z m 4.75,0 c -2.0125,-0.001 -3.623,1.41125 -3.625,3.84375 -10e-4,2.29875 1.53375,3.749 3.5,3.75 1.7575,10e-4 3.623,-1.18625 3.625,-3.875 10e-4,-2.2225 -1.41375,-3.71775 -3.5,-3.71875 z m 8.40625,0 C 362.08,657.655 361.40625,658.30875 361,659 l -0.0312,0 -0.0625,-1.1875 -1.15625,0 c 0.045,0.60125 0.0635,1.2175 0.0625,1.96875 l 0,5.3125 1.28125,0 0,-4.40625 c 0,-0.22375 0.05,-0.43 0.125,-0.625 0.21125,-0.66 0.79875,-1.34375 1.625,-1.34375 1.00625,10e-4 1.53225,0.84375 1.53125,2 l -0.0312,4.375 1.3125,0 0,-4.5 c 0,-0.24 0.0351,-0.475 0.0937,-0.65625 0.225,-0.645 0.81,-1.1875 1.5625,-1.1875 1.06625,10e-4 1.59475,0.8225 1.59375,2.21875 l 0,4.125 1.28125,0 0,-4.28125 c 0.002,-2.5225 -1.41375,-3.15625 -2.375,-3.15625 -0.69125,-10e-4 -1.19,0.17 -1.625,0.5 -0.3025,0.225 -0.5875,0.5325 -0.8125,0.9375 l -0.0312,0 c -0.315,-0.855 -1.07125,-1.4365 -2.0625,-1.4375 z m -28.09375,0.90625 c 1.48625,10e-4 1.85875,1.315 1.84375,2.15625 l -3.84375,0 c 0.10625,-0.91625 0.66375,-2.15725 2,-2.15625 z m -20.03125,0.0312 c 1.56125,0.001 2.15725,1.58125 2.15625,2.8125 -10e-4,1.6375 -0.925,2.8155 -2.1875,2.8125 -1.29,0 -2.21975,-1.19 -2.21875,-2.78125 10e-4,-1.3825 0.6875,-2.84475 2.25,-2.84375 z m 39.6875,0.0312 c 1.5625,0.001 2.15825,1.58125 2.15625,2.8125 -10e-4,1.63625 -0.92625,2.8135 -2.1875,2.8125 -1.29125,-10e-4 -2.21875,-1.19 -2.21875,-2.78125 10e-4,-1.3825 0.6875,-2.84475 2.25,-2.84375 z"
       id="path3093"
       style="fill:#0d8ad5;fill-opacity:1;fill-rule:nonzero;stroke:none" />
  </g>
</svg>
