<?xml version="1.0" encoding="UTF-8" standalone="no"?>
<!-- Created with Inkscape (http://www.inkscape.org/) -->

<svg
   xmlns:dc="http://purl.org/dc/elements/1.1/"
   xmlns:cc="http://creativecommons.org/ns#"
   xmlns:rdf="http://www.w3.org/1999/02/22-rdf-syntax-ns#"
   xmlns:svg="http://www.w3.org/2000/svg"
   xmlns="http://www.w3.org/2000/svg"
   xmlns:xlink="http://www.w3.org/1999/xlink"
   version="1.1"
   width="197"
   height="59"
   id="svg4852">
  <defs
     id="defs4854">
    <linearGradient
       x1="0"
       y1="0"
       x2="1"
       y2="0"
       id="linearGradient4730"
       xlink:href="#linearGradient712"
       gradientUnits="userSpaceOnUse"
       gradientTransform="matrix(0,-10.795548,10.795548,0,200.32259,155.21504)"
       spreadMethod="pad" />
    <linearGradient
       x1="0"
       y1="0"
       x2="1"
       y2="0"
       id="linearGradient712"
       gradientUnits="userSpaceOnUse"
       gradientTransform="matrix(0,-10.795548,10.795548,0,200.32259,155.21504)"
       spreadMethod="pad">
      <stop
         id="stop714"
         style="stop-color:#f1cb00;stop-opacity:1"
         offset="0" />
      <stop
         id="stop716"
         style="stop-color:#ffffff;stop-opacity:1"
         offset="1" />
    </linearGradient>
    <linearGradient
       x1="0"
       y1="0"
       x2="1"
       y2="0"
       id="linearGradient4735"
       xlink:href="#linearGradient732"
       gradientUnits="userSpaceOnUse"
       gradientTransform="matrix(0,10.795609,10.795609,0,200.32259,131.46536)"
       spreadMethod="pad" />
    <linearGradient
       x1="0"
       y1="0"
       x2="1"
       y2="0"
       id="linearGradient732"
       gradientUnits="userSpaceOnUse"
       gradientTransform="matrix(0,10.795609,10.795609,0,200.32259,131.46536)"
       spreadMethod="pad">
      <stop
         id="stop734"
         style="stop-color:#f1cb00;stop-opacity:1"
         offset="0" />
      <stop
         id="stop736"
         style="stop-color:#ffffff;stop-opacity:1"
         offset="1" />
    </linearGradient>
  </defs>
  <metadata
     id="metadata4857">
    <rdf:RDF>
      <cc:Work
         rdf:about="">
        <dc:format>image/svg+xml</dc:format>
        <dc:type
           rdf:resource="http://purl.org/dc/dcmitype/StillImage" />
        <dc:title></dc:title>
      </cc:Work>
    </rdf:RDF>
  </metadata>
  <g
     transform="translate(-328.41599,-488.01658)"
     id="layer1">
    <g
       transform="matrix(2.3326965,0,0,-2.3326965,-40.611989,852.03909)"
       id="g4737">
      <path
         d="m 186.692,143.32 0.145,0 c 0,1.749 0.453,3.408 1.262,4.896 l 0,0 2.267,0 c -0.641,-1.491 -0.999,-3.15 -0.999,-4.896 l 0,0 0.144,0 c 0,1.749 0.364,3.408 1.012,4.896 l 0,0 3.625,0 c -0.397,-1.491 -0.619,-3.15 -0.619,-4.896 l 0,0 0.145,0 c 0,1.749 0.223,3.408 0.622,4.896 l 0,0 3.159,0 c -0.179,-1.483 -0.277,-3.139 -0.277,-4.896 l 0,0 0.144,0 c 0,1.72 0.098,3.382 0.283,4.896 l 0,0 2.646,0 0,-4.896 0.144,0 0,4.896 2.645,0 c 0.185,-1.514 0.283,-3.176 0.283,-4.896 l 0,0 0.144,0 c 0,1.757 -0.099,3.413 -0.276,4.896 l 0,0 3.158,0 c 0.399,-1.488 0.623,-3.147 0.623,-4.896 l 0,0 0.144,0 c 0,1.746 -0.222,3.405 -0.619,4.896 l 0,0 3.625,0 c 0.649,-1.488 1.012,-3.147 1.012,-4.896 l 0,0 0.144,0 c 0,1.746 -0.359,3.405 -0.998,4.896 l 0,0 2.266,0 c 0.809,-1.488 1.263,-3.147 1.263,-4.896 l 0,0 0.143,0 c 0,6.475 -6.114,11.744 -13.629,11.744 l 0,0 c -7.516,0 -13.631,-5.269 -13.631,-11.744 m 13.703,11.596 c 0.625,-0.061 1.239,-0.916 1.742,-2.398 l 0,0 -1.742,0 0,2.398 z m -0.144,0 0,-2.398 -1.743,0 c 0.504,1.482 1.118,2.337 1.743,2.398 m 0.646,-0.04 c 1.299,-0.195 2.493,-1.045 3.472,-2.358 l 0,0 -2.07,0 c -0.397,1.182 -0.875,2.007 -1.402,2.358 m -1.149,0 c -0.528,-0.351 -1.006,-1.176 -1.402,-2.358 l 0,0 -2.069,0 c 0.978,1.313 2.172,2.163 3.471,2.358 m -0.781,-0.047 c -1.066,-0.376 -2.042,-1.183 -2.863,-2.311 l 0,0 -2.36,0 c 1.485,1.225 3.273,2.047 5.223,2.311 m 2.711,-0.001 c 1.95,-0.263 3.738,-1.085 5.224,-2.31 l 0,0 -2.361,0 c -0.822,1.128 -1.797,1.935 -2.863,2.31 m 1.513,-0.174 c 1.974,-0.369 3.788,-1.111 5.337,-2.136 l 0,0 -1.402,0 c -1.147,0.977 -2.482,1.713 -3.935,2.136 m -5.736,0 c -1.454,-0.423 -2.789,-1.159 -3.936,-2.136 l 0,0 -1.402,0 c 1.549,1.025 3.363,1.767 5.338,2.136 m 9.837,-2.28 1.45,0 c 1.564,-1.078 2.843,-2.448 3.725,-4.014 l 0,0 -2.25,0 c -0.693,1.557 -1.697,2.926 -2.925,4.014 m -2.647,0 2.428,0 c 1.253,-1.078 2.279,-2.448 2.985,-4.014 l 0,0 -3.601,0 c -0.429,1.557 -1.051,2.926 -1.812,4.014 m -2.298,0 2.127,0 c 0.771,-1.078 1.402,-2.448 1.837,-4.014 l 0,0 -3.138,0 c -0.194,1.564 -0.477,2.93 -0.826,4.014 m -1.952,0 1.79,0 c 0.084,-0.256 0.164,-0.529 0.24,-0.819 l 0,0 c 0.25,-0.945 0.449,-2.024 0.597,-3.195 l 0,0 -2.627,0 0,4.014 z m -2.175,-0.819 c 0.076,0.29 0.156,0.563 0.24,0.819 l 0,0 1.791,0 0,-4.014 -2.628,0 c 0.147,1.171 0.348,2.25 0.597,3.195 m -2.049,0.819 2.128,0 c -0.349,-1.084 -0.633,-2.45 -0.827,-4.014 l 0,0 -3.138,0 c 0.435,1.566 1.067,2.936 1.837,4.014 m -2.599,0 2.428,0 c -0.76,-1.088 -1.383,-2.457 -1.812,-4.014 l 0,0 -3.601,0 c 0.706,1.566 1.732,2.936 2.985,4.014 m -1.67,0 1.45,0 c -1.227,-1.088 -2.23,-2.457 -2.923,-4.014 l 0,0 -2.251,0 c 0.882,1.566 2.162,2.936 3.724,4.014"
         id="path718"
         style="fill:url(#linearGradient4730);stroke:none" />
      <path
         d="m 213.809,143.36 c 0,-1.749 -0.454,-3.408 -1.263,-4.897 l 0,0 -2.266,0 c 0.639,1.491 0.998,3.15 0.998,4.897 l 0,0 -0.144,0 c 0,-1.749 -0.363,-3.408 -1.012,-4.897 l 0,0 -3.625,0 c 0.397,1.491 0.619,3.15 0.619,4.897 l 0,0 -0.144,0 c 0,-1.749 -0.224,-3.408 -0.623,-4.897 l 0,0 -3.158,0 c 0.177,1.484 0.276,3.139 0.276,4.897 l 0,0 -0.144,0 c 0,-1.72 -0.098,-3.382 -0.283,-4.897 l 0,0 -2.645,0 0,4.897 -0.144,0 0,-4.897 -2.646,0 c -0.185,1.515 -0.283,3.177 -0.283,4.897 l 0,0 -0.144,0 c 0,-1.758 0.098,-3.413 0.277,-4.897 l 0,0 -3.159,0 c -0.399,1.489 -0.622,3.148 -0.622,4.897 l 0,0 -0.145,0 c 0,-1.747 0.222,-3.406 0.619,-4.897 l 0,0 -3.625,0 c -0.648,1.489 -1.012,3.148 -1.012,4.897 l 0,0 -0.144,0 c 0,-1.747 0.358,-3.406 0.999,-4.897 l 0,0 -2.267,0 c -0.809,1.489 -1.262,3.148 -1.262,4.897 l 0,0 -0.145,0 c 0,-6.475 6.115,-11.743 13.631,-11.743 l 0,0 c 7.515,0 13.629,5.268 13.629,11.743 l 0,0 -0.143,0 z m -3.592,-5.041 2.25,0 c -0.882,-1.565 -2.161,-2.935 -3.725,-4.013 l 0,0 -1.45,0 c 1.228,1.088 2.232,2.457 2.925,4.013 m -3.76,0 3.601,0 c -0.706,-1.565 -1.732,-2.935 -2.985,-4.013 l 0,0 -2.428,0 c 0.761,1.088 1.383,2.457 1.812,4.013 m -3.284,0 3.138,0 c -0.435,-1.565 -1.066,-2.935 -1.837,-4.013 l 0,0 -2.127,0 c 0.349,1.085 0.632,2.45 0.826,4.013 m -2.778,0 2.627,0 c -0.148,-1.169 -0.347,-2.249 -0.597,-3.193 l 0,0 c -0.076,-0.291 -0.156,-0.563 -0.24,-0.82 l 0,0 -1.79,0 0,4.013 z m -2.175,-3.193 c -0.249,0.944 -0.45,2.024 -0.597,3.193 l 0,0 2.628,0 0,-4.013 -1.791,0 c -0.084,0.257 -0.164,0.529 -0.24,0.82 m -3.886,3.193 3.138,0 c 0.194,-1.563 0.478,-2.928 0.827,-4.013 l 0,0 -2.128,0 c -0.77,1.078 -1.402,2.448 -1.837,4.013 m -3.747,0 3.601,0 c 0.429,-1.556 1.052,-2.925 1.812,-4.013 l 0,0 -2.428,0 c -1.253,1.078 -2.279,2.448 -2.985,4.013 m -2.409,0 2.251,0 c 0.693,-1.556 1.696,-2.925 2.923,-4.013 l 0,0 -1.45,0 c -1.562,1.078 -2.842,2.448 -3.724,4.013 m 18.948,-4.157 1.402,0 c -1.549,-1.025 -3.363,-1.767 -5.337,-2.137 l 0,0 c 1.453,0.424 2.788,1.16 3.935,2.137 m -2.585,0 2.361,0 c -1.486,-1.225 -3.274,-2.047 -5.224,-2.31 l 0,0 c 1.066,0.374 2.041,1.181 2.863,2.31 m -2.242,0 2.07,0 c -0.979,-1.313 -2.173,-2.163 -3.472,-2.357 l 0,0 c 0.527,0.349 1.005,1.175 1.402,2.357 m -1.904,0 1.742,0 c -0.503,-1.481 -1.117,-2.336 -1.742,-2.398 l 0,0 0,2.398 z m -1.887,0 1.743,0 0,-2.398 c -0.625,0.062 -1.239,0.917 -1.743,2.398 m -2.231,0 2.069,0 c 0.396,-1.182 0.874,-2.008 1.402,-2.357 l 0,0 c -1.299,0.194 -2.493,1.044 -3.471,2.357 m -2.533,0 2.36,0 c 0.821,-1.129 1.797,-1.936 2.863,-2.31 l 0,0 c -1.95,0.263 -3.738,1.085 -5.223,2.31 m -1.627,0 1.402,0 c 1.147,-0.977 2.482,-1.713 3.936,-2.137 l 0,0 c -1.975,0.37 -3.789,1.112 -5.338,2.137"
         id="path738"
         style="fill:url(#linearGradient4735);stroke:none" />
      <path
         d="m 213.9063,146.5031 c -0.107,0.137 -0.179,0.307 -0.198,0.492 -0.055,0.538 0.18,1.063 0.607,1.392 -0.155,-0.016 -0.295,-0.049 -0.422,-0.092 -0.258,-0.315 -0.391,-0.722 -0.349,-1.137 0.027,-0.266 0.166,-0.501 0.362,-0.655"
         id="path750"
         style="fill:#f1cb00;fill-opacity:1;fill-rule:nonzero;stroke:none" />
      <path
         d="m 225.012,141.2176 c -0.055,0.068 -0.106,0.143 -0.145,0.228 -0.395,0.877 -0.169,1.903 0.216,2.752 0.235,0.522 0.538,0.984 0.921,1.412 0.226,0.253 0.474,0.47 0.777,0.603 0.022,0.052 0.042,0.106 0.073,0.158 0.014,0.024 0.193,0.147 -0.052,0.078 -0.392,-0.112 -0.691,-0.372 -0.961,-0.676 -0.382,-0.43 -0.684,-0.889 -0.921,-1.412 -0.385,-0.849 -0.61,-1.874 -0.214,-2.752 0.071,-0.161 0.179,-0.29 0.306,-0.391"
         id="path754"
         style="fill:#f1cb00;fill-opacity:1;fill-rule:nonzero;stroke:none" />
      <path
         d="m 227.6862,146.3387 c -0.333,-0.035 -0.511,-0.583 -0.407,-0.928 0.068,-0.223 0.194,-0.424 0.372,-0.563 -0.093,0.117 -0.164,0.252 -0.208,0.4 -0.106,0.344 0.074,0.892 0.406,0.928 0.193,0.022 0.367,-0.044 0.516,-0.162 -0.177,0.219 -0.409,0.355 -0.679,0.325"
         id="path758"
         style="fill:#f1cb00;fill-opacity:1;fill-rule:nonzero;stroke:none" />
      <path
         d="m 221.5997,146.3071 c 0.238,-0.307 0.571,-0.774 0.485,-2.093 0.061,0.009 0.117,0.022 0.173,0.032 0.042,1.17 -0.27,1.606 -0.494,1.897 -0.076,0.098 -0.16,0.184 -0.249,0.262 0.029,-0.032 0.058,-0.064 0.085,-0.098"
         id="path762"
         style="fill:#f1cb00;fill-opacity:1;fill-rule:nonzero;stroke:none" />
      <path
         d="m 214.6197,150.3536 c -2.335,-0.047 -4.198,-3.95 -4.077,-3.932 0.073,0.012 0.15,0.026 0.226,0.043 0.351,0.8 2.006,3.685 4.013,3.725 0.507,0.011 0.899,-0.148 1.175,-0.382 -0.274,0.321 -0.721,0.558 -1.337,0.546"
         id="path766"
         style="fill:#f1cb00;fill-opacity:1;fill-rule:nonzero;stroke:none" />
      <path
         d="m 229.3019,144.985 c 0.014,-0.125 0.033,-0.102 0.096,-0.053 0.015,0.013 0.029,0.024 0.044,0.036 -0.089,0.573 -0.329,1.121 -0.752,1.481 0.354,-0.387 0.553,-0.92 0.612,-1.464"
         id="path770"
         style="fill:#f1cb00;fill-opacity:1;fill-rule:nonzero;stroke:none" />
      <path
         d="m 236.9672,141.2761 c -0.101,0.126 -0.175,0.276 -0.215,0.44 -0.097,0.394 0.012,0.8 0.281,1.101 -0.112,0 -0.216,-0.017 -0.313,-0.048 -0.155,-0.267 -0.207,-0.582 -0.132,-0.889 0.062,-0.245 0.195,-0.453 0.379,-0.604"
         id="path774"
         style="fill:#f1cb00;fill-opacity:1;fill-rule:nonzero;stroke:none" />
      <path
         d="m 227.6171,144.1766 c -0.167,0.078 -0.324,0.178 -0.462,0.295 0.17,-0.193 0.387,-0.347 0.625,-0.459 0.217,-0.101 0.481,-0.135 0.712,-0.143 0.018,0.056 0.038,0.111 0.055,0.165 -0.267,-0.011 -0.64,0.006 -0.93,0.142"
         id="path778"
         style="fill:#f1cb00;fill-opacity:1;fill-rule:nonzero;stroke:none" />
      <path
         d="m 239.9086,148.0644 c -0.308,-0.204 -0.632,-0.418 -0.769,-0.78 -0.154,-0.41 -0.116,-0.824 -0.034,-1.259 0.306,-1.601 1.161,-2.978 0.91,-4.635 0,-0.005 0.063,-0.034 0.081,-0.023 0.036,0.023 0.071,0.046 0.105,0.068 0.154,1.566 -0.641,2.893 -0.933,4.427 -0.083,0.436 -0.121,0.848 0.033,1.259 0.136,0.362 0.462,0.576 0.769,0.78"
         id="path782"
         style="fill:#f1cb00;fill-opacity:1;fill-rule:nonzero;stroke:none" />
      <path
         d="m 232.4104,147.6112 c 0.632,-0.872 1.438,-1.865 1.054,-3.007 -0.361,-1.078 -1.046,-1.972 -1.39,-3.057 -0.064,-0.203 0.036,-0.361 0.189,-0.451 -0.044,0.081 -0.06,0.177 -0.026,0.289 0.343,1.085 1.028,1.979 1.389,3.055 0.384,1.142 -0.42,2.136 -1.053,3.007 0.203,0.489 0.67,1.014 0.403,1.546 -0.042,0.084 -0.098,0.135 -0.162,0.163 0.265,-0.53 -0.201,-1.057 -0.404,-1.545"
         id="path786"
         style="fill:#f1cb00;fill-opacity:1;fill-rule:nonzero;stroke:none" />
      <path
         d="m 210.4528,141.4733 c -0.025,0.028 -0.051,0.055 -0.075,0.085 -0.945,1.216 -0.498,2.773 0.042,4.056 0.616,0.05 1.503,0.371 2.106,0.648 -0.016,0.076 -0.026,0.152 -0.027,0.227 -0.599,-0.289 -1.579,-0.658 -2.242,-0.711 -0.54,-1.284 -0.987,-2.841 -0.04,-4.058 0.072,-0.092 0.151,-0.174 0.236,-0.247"
         id="path790"
         style="fill:#f1cb00;fill-opacity:1;fill-rule:nonzero;stroke:none" />
      <path
         d="m 232.194,146.8595 c 0.009,0.013 0.014,0.02 0.021,0.027 -0.033,0.045 -0.064,0.092 -0.101,0.136 -0.039,0.045 -0.029,0.077 -0.083,0 -0.801,-1.139 -1.57,-2.16 -2.747,-2.816 -0.18,-1.564 -0.963,-3.037 -2.118,-4.132 -0.637,-0.604 -1.478,-0.95 -2.349,-0.876 -0.421,0.035 -0.802,0.207 -1.108,0.482 0.327,-0.371 0.772,-0.603 1.27,-0.645 0.873,-0.074 1.713,0.273 2.351,0.876 1.155,1.093 1.937,2.567 2.117,4.132 1.178,0.656 1.946,1.676 2.747,2.816"
         id="path794"
         style="fill:#f1cb00;fill-opacity:1;fill-rule:nonzero;stroke:none" />
      <path
         d="m 223.3246,143.8884 c 0.077,0.21 0.05,0.175 -0.03,0.135 -0.399,-0.199 -0.884,-0.372 -1.314,-0.449 -0.608,-1.903 -1.74,-4.096 -3.953,-4.367 -0.668,-0.079 -1.163,0.107 -1.525,0.426 0.372,-0.415 0.914,-0.682 1.688,-0.588 2.213,0.269 3.345,2.462 3.953,4.366 0.372,0.067 0.781,0.206 1.142,0.372 0.013,0.035 0.026,0.07 0.039,0.105"
         id="path798"
         style="fill:#f1cb00;fill-opacity:1;fill-rule:nonzero;stroke:none" />
      <path
         d="m 238.4521,146.4083 c -0.005,0.066 -0.007,0.132 -0.009,0.198 -0.002,0.087 0.036,0.19 -0.076,0.056 -0.258,-0.307 -0.502,-0.581 -0.754,-0.898 -1.53,-1.922 -2.628,-4.181 -4.273,-5.756 -0.609,-0.582 -1.433,-0.983 -2.284,-0.775 -0.209,0.052 -0.387,0.151 -0.537,0.281 0.176,-0.209 0.408,-0.373 0.699,-0.445 0.852,-0.207 1.676,0.194 2.284,0.776 1.646,1.575 2.744,3.834 4.274,5.756 0.227,0.285 0.446,0.536 0.676,0.807"
         id="path802"
         style="fill:#f1cb00;fill-opacity:1;fill-rule:nonzero;stroke:none" />
      <path
         d="m 241.3568,141.6888 c -0.09,-0.203 -0.223,-0.385 -0.318,-0.588 -0.434,-0.042 -0.842,-0.202 -1.177,-0.476 -0.579,-0.475 -0.735,-1.197 -1.829,-1.429 -0.751,-0.159 -1.296,0.044 -1.679,0.385 0.385,-0.436 0.977,-0.731 1.841,-0.547 1.094,0.232 1.251,0.952 1.831,1.427 0.333,0.275 0.743,0.434 1.176,0.478 0.124,0.26 0.31,0.491 0.388,0.776 -0.079,-0.003 -0.156,-0.013 -0.233,-0.026"
         id="path806"
         style="fill:#f1cb00;fill-opacity:1;fill-rule:nonzero;stroke:none" />
      <path
         d="m 215.616,142.2058 c -0.089,-0.008 -2.395,-3.397 -5.633,-2.983 -0.53,0.069 -0.978,0.301 -1.352,0.647 0.403,-0.438 0.905,-0.73 1.516,-0.81 2.769,-0.354 4.857,2.076 5.457,2.788 -0.005,0.142 0,0.265 0.012,0.358"
         id="path810"
         style="fill:#f1cb00;fill-opacity:1;fill-rule:nonzero;stroke:none" />
      <path
         d="m 220.6198,146.0149 c 0.143,0.099 0.377,0.02 0.566,-0.129 -0.191,0.244 -0.54,0.422 -0.729,0.291 -0.641,-0.442 -0.321,-1.311 0.094,-1.643 10e-4,-0.002 0.003,-0.003 0.004,-0.004 -0.324,0.398 -0.491,1.1 0.065,1.485"
         id="path814"
         style="fill:#f1cb00;fill-opacity:1;fill-rule:nonzero;stroke:none" />
      <path
         d="m 217.8193,141.2637 c -0.161,0.198 -0.268,0.449 -0.31,0.71 -0.156,0.965 0.124,1.882 0.593,2.718 0.384,0.684 0.947,1.412 1.713,1.648 0.034,0.041 0.072,0.078 0.115,0.113 0.166,0.139 0.038,0.119 0.032,0.119 -0.927,-0.113 -1.588,-0.943 -2.023,-1.717 -0.469,-0.836 -0.748,-1.753 -0.592,-2.718 0.055,-0.339 0.219,-0.664 0.472,-0.873"
         id="path818"
         style="fill:#f1cb00;fill-opacity:1;fill-rule:nonzero;stroke:none" />
      <path
         d="m 221.0981,143.6185 c -0.419,0.076 -0.753,0.294 -1.048,0.565 0.018,-0.022 0.036,-0.044 0.057,-0.063 0.293,-0.29 0.623,-0.533 1.037,-0.639 0.01,0.034 0.02,0.07 0.028,0.104 0.003,0.018 -0.046,0.028 -0.074,0.033"
         id="path822"
         style="fill:#f1cb00;fill-opacity:1;fill-rule:nonzero;stroke:none" />
      <path
         d="m 208.258,145.6557 c -0.369,0.061 -0.81,0.061 -1.184,0.238 -0.077,0.036 -0.273,0.121 -0.454,0.271 0.206,-0.254 0.515,-0.387 0.617,-0.434 0.302,-0.144 0.65,-0.171 0.968,-0.208 0.019,0.044 0.036,0.089 0.053,0.133"
         id="path826"
         style="fill:#f1cb00;fill-opacity:1;fill-rule:nonzero;stroke:none" />
      <path
         d="m 207.3118,146.9622 c -0.009,-0.22 0.095,-0.377 0.252,-0.487 -0.059,0.088 -0.094,0.196 -0.089,0.324 0.01,0.262 0.289,0.402 0.538,0.389 -0.041,0.064 -0.102,0.118 -0.173,0.163 -0.247,0.008 -0.517,-0.13 -0.528,-0.389"
         id="path830"
         style="fill:#f1cb00;fill-opacity:1;fill-rule:nonzero;stroke:none" />
      <path
         d="m 215.056,145.4164 c -0.869,-0.515 -1.587,-0.369 -2.039,0.019 0.429,-0.501 1.219,-0.765 2.203,-0.181 1.516,0.899 2.581,3.405 1.242,4.831 -0.046,0.049 -0.093,0.093 -0.141,0.135 1.3,-1.431 0.243,-3.909 -1.265,-4.804"
         id="path834"
         style="fill:#f1cb00;fill-opacity:1;fill-rule:nonzero;stroke:none" />
      <path
         d="m 225.6421,145.9714 c 0.27,0.305 0.57,0.566 0.961,0.677 0.244,0.07 0.065,-0.055 0.052,-0.078 -0.201,-0.348 -0.251,-0.721 -0.176,-1.106 0.099,-0.513 0.484,-0.875 0.939,-1.089 0.29,-0.136 0.663,-0.152 0.93,-0.141 -0.413,-1.295 -1.266,-2.925 -2.751,-3.047 -0.444,-0.035 -0.893,0.183 -1.091,0.621 -0.396,0.879 -0.17,1.903 0.215,2.752 0.236,0.522 0.538,0.981 0.921,1.411 m 1.439,-0.36 c -0.105,0.344 0.074,0.892 0.406,0.927 0.69,0.076 1.157,-0.933 0.975,-1.675 -0.204,-0.064 -0.401,-0.041 -0.613,10e-4 -0.397,0.081 -0.658,0.383 -0.768,0.747 m -6.822,0.766 c 0.221,0.153 0.665,-0.118 0.812,-0.425 0.224,-0.464 0.218,-0.969 0.112,-1.476 -0.013,-0.06 -0.026,-0.061 -0.088,-0.058 -0.279,0.008 -0.519,0.133 -0.744,0.315 -0.415,0.332 -0.734,1.2 -0.092,1.644 m -2.519,-1.323 c 0.434,0.774 1.096,1.605 2.022,1.717 0.007,0 0.136,0.02 -0.032,-0.119 -0.324,-0.267 -0.39,-0.67 -0.401,-1.044 -0.01,-0.415 0.106,-0.822 0.416,-1.126 0.321,-0.316 0.684,-0.58 1.153,-0.664 0.028,-0.006 0.077,-0.016 0.074,-0.034 -0.116,-0.593 -0.526,-1.145 -0.919,-1.637 -0.481,-0.601 -1.147,-1.01 -1.931,-0.907 -0.543,0.07 -0.888,0.568 -0.973,1.096 -0.157,0.965 0.122,1.882 0.591,2.718 m -4.394,2.304 c -0.055,0.537 0.181,1.062 0.607,1.392 -1.329,-0.143 -1.609,-1.377 -1.64,-1.394 -0.552,-0.314 -1.326,-0.638 -1.97,-0.736 -0.12,-0.017 1.741,3.886 4.077,3.933 1.028,0.02 1.589,-0.651 1.657,-1.254 0.125,-1.094 -0.442,-2.285 -1.477,-2.723 -0.58,-0.247 -1.193,0.185 -1.254,0.782 m -3.329,-5.437 c -0.946,1.215 -0.5,2.772 0.04,4.056 0.664,0.053 1.644,0.422 2.244,0.712 0.005,-0.887 1.06,-1.963 2.557,-1.073 1.516,0.9 2.58,3.406 1.241,4.832 -0.796,0.849 -2.055,0.791 -3.078,0.455 -2.18,-0.715 -3.654,-2.546 -4.756,-4.453 -0.463,-0.005 -1.175,0.146 -1.152,0.711 0.01,0.263 0.287,0.402 0.538,0.39 -0.276,0.422 -1.34,0.485 -1.543,-0.196 -0.246,-0.826 0.587,-1.178 0.766,-1.262 0.375,-0.177 0.816,-0.178 1.184,-0.238 -0.691,-1.694 -1.207,-3.854 0.061,-5.45 0.427,-0.534 0.978,-0.894 1.665,-0.982 3.237,-0.414 5.544,2.974 5.634,2.982 -0.097,-0.748 0.265,-3.258 2.411,-2.998 2.212,0.27 3.344,2.463 3.953,4.367 0.429,0.077 0.915,0.249 1.313,0.449 0.08,0.04 0.108,0.074 0.03,-0.135 -0.443,-1.193 -0.706,-2.554 -0.019,-3.722 0.331,-0.56 0.879,-0.915 1.511,-0.969 0.873,-0.074 1.713,0.273 2.35,0.877 1.156,1.094 1.938,2.567 2.118,4.132 1.177,0.656 1.946,1.676 2.746,2.815 0.054,0.078 0.044,0.046 0.083,0 0.229,-0.261 0.345,-0.56 0.415,-0.903 0.086,-0.412 -0.039,-0.775 -0.256,-1.125 -0.607,-0.988 -1.234,-1.81 -1.861,-2.794 -0.284,-0.447 -0.448,-0.914 -0.445,-1.423 0.003,-0.675 0.383,-1.37 1.09,-1.545 0.851,-0.206 1.676,0.195 2.284,0.776 1.644,1.576 2.743,3.834 4.273,5.757 0.252,0.316 0.495,0.59 0.754,0.898 0.111,0.134 0.074,0.031 0.076,-0.056 0.015,-0.879 0.235,-1.716 0.348,-2.593 0.072,-0.554 0.159,-1.091 0.111,-1.649 -0.063,-0.706 -0.596,-1.443 -1.387,-1.331 -0.464,0.066 -0.815,0.397 -0.927,0.847 -0.097,0.392 0.014,0.798 0.282,1.1 -0.841,0.008 -1.258,-0.967 -1.277,-1.685 -0.019,-0.719 0.598,-2.49 2.439,-2.1 1.095,0.233 1.251,0.954 1.83,1.429 0.334,0.274 0.744,0.434 1.177,0.476 0.124,0.262 0.31,0.492 0.387,0.777 -0.476,-0.015 -0.915,-0.233 -1.33,-0.509 -0.018,-0.012 -0.081,0.016 -0.08,0.022 0.25,1.658 -0.605,3.032 -0.911,4.634 -0.082,0.437 -0.12,0.85 0.034,1.259 0.137,0.363 0.463,0.578 0.769,0.78 -0.086,0.128 -0.284,0.388 -0.314,0.374 -1.918,-0.967 -3.346,-3.758 -4.771,-5.514 -0.621,-0.765 -1.14,-1.678 -2.159,-1.896 -0.311,-0.067 -0.703,0.159 -0.59,0.52 0.344,1.085 1.028,1.978 1.391,3.056 0.384,1.142 -0.423,2.135 -1.055,3.007 0.203,0.488 0.671,1.014 0.403,1.546 -0.174,0.346 -0.593,0.159 -0.788,-0.091 -0.286,-0.37 -0.324,-0.826 -0.228,-1.261 -0.325,-0.659 -0.77,-1.215 -1.237,-1.806 -0.339,-0.429 -0.732,-0.732 -1.163,-1.066 -0.063,-0.05 -0.082,-0.072 -0.095,0.052 -0.09,0.827 -0.497,1.637 -1.291,1.933 -1.683,0.626 -3.326,-0.601 -4.164,-1.996 -0.553,-0.328 -0.988,-0.585 -1.762,-0.708 0.085,1.319 -0.248,1.786 -0.485,2.093 -0.684,0.887 -1.975,0.952 -2.886,0.545 -1.536,-0.684 -2.484,-2.239 -2.85,-3.515 -0.853,-0.946 -1.909,-1.724 -3.135,-2.136 -0.863,-0.29 -1.906,-0.259 -2.513,0.521"
         id="path838"
         style="fill:#ed1c24;fill-opacity:1;fill-rule:nonzero;stroke:none" />
      <path
         d="m 180.0153,140.8343 0.262,0 c 0,1.198 -0.002,6.463 -0.002,6.463 l -0.262,0.002 c 0.001,-1.166 0.002,-6.261 0.002,-6.465"
         id="path842"
         style="fill:#f1cb00;fill-opacity:1;fill-rule:nonzero;stroke:none" />
      <path
         d="m 183.0179,140.5824 0,-1.279 -4.419,0 0,-0.228 4.679,0 0,1.507 -0.26,0 z"
         id="path846"
         style="fill:#f1cb00;fill-opacity:1;fill-rule:nonzero;stroke:none" />
      <path
         d="m 184.0228,143.5253 c 0.146,-0.152 0.313,-0.288 0.499,-0.396 0.606,-0.377 1.307,-0.531 1.924,-0.666 0.52,-0.114 0.927,-0.214 1.207,-0.374 -0.243,0.325 -0.748,0.457 -1.484,0.619 -0.619,0.136 -1.32,0.288 -1.925,0.665 -0.078,0.047 -0.15,0.1 -0.221,0.152"
         id="path850"
         style="fill:#f1cb00;fill-opacity:1;fill-rule:nonzero;stroke:none" />
      <path
         d="m 187.1775,139.3033 -3.467,0 0,-0.228 3.728,0 c 1.292,0 2.344,1.049 2.344,2.342 0,0.743 -0.356,1.423 -0.921,1.862 0.41,-0.43 0.659,-1.007 0.659,-1.626 0,-1.295 -1.052,-2.35 -2.343,-2.35"
         id="path854"
         style="fill:#f1cb00;fill-opacity:1;fill-rule:nonzero;stroke:none" />
      <path
         d="m 189.4529,147.2957 -0.261,0 0,-1.284 -3.452,-0.002 c -0.393,0 -0.713,-0.321 -0.714,-0.731 -0.033,-0.22 0.111,-0.4 0.345,-0.553 -0.07,0.094 -0.103,0.2 -0.083,0.314 0,0.413 0.32,0.736 0.713,0.736 l 3.452,0 0,1.52 z"
         id="path858"
         style="fill:#f1cb00;fill-opacity:1;fill-rule:nonzero;stroke:none" />
      <path
         d="m 203.0148,143.0161 c -0.82,1.396 -2.515,4.281 -2.515,4.281 l -0.199,-0.001 c 0.506,-0.86 2.27,-3.86 2.714,-4.613 l 0,0.333 z"
         id="path862"
         style="fill:#f1cb00;fill-opacity:1;fill-rule:nonzero;stroke:none" />
      <path
         d="m 204.7223,147.2982 0,-7.995 -1.52,0 c 0.088,-0.145 0.138,-0.228 0.138,-0.228 l 1.645,0 0,8.223 -0.263,0 z"
         id="path866"
         style="fill:#f1cb00;fill-opacity:1;fill-rule:nonzero;stroke:none" />
      <path
         d="m 200.2071,144.3704 c -0.001,-0.907 -0.004,-5.067 -0.004,-5.067 l -1.417,0 0,-0.228 1.68,0 c 0,0 0.002,3.651 0.002,4.847 l -0.261,0.448 z"
         id="path870"
         style="fill:#f1cb00;fill-opacity:1;fill-rule:nonzero;stroke:none" />
      <path
         d="m 164.4363,142.7139 c -0.356,1.191 -0.405,1.347 -1.372,4.584 l -0.242,0 c 0.272,-0.905 1.248,-4.171 1.493,-4.989 l 0.121,0.405 z"
         id="path874"
         style="fill:#f1cb00;fill-opacity:1;fill-rule:nonzero;stroke:none" />
      <path
         d="m 161.8257,144.4237 c -0.154,-0.77 -1.025,-5.12 -1.025,-5.12 l -1.431,0 -0.051,-0.229 1.742,0 c 0,0 0.694,3.456 0.953,4.745 -0.084,0.269 -0.15,0.482 -0.188,0.604"
         id="path878"
         style="fill:#f1cb00;fill-opacity:1;fill-rule:nonzero;stroke:none" />
      <path
         d="m 168.2168,147.2976 -0.261,0 1.678,-7.994 -1.524,0 c 0.03,-0.14 0.049,-0.228 0.049,-0.228 l 1.789,0 -1.731,8.222 z"
         id="path882"
         style="fill:#f1cb00;fill-opacity:1;fill-rule:nonzero;stroke:none" />
      <path
         d="m 166.8786,144.385 c -0.234,-0.752 -1.579,-5.082 -1.579,-5.082 l -1.717,0 c 0.023,-0.068 0.079,-0.228 0.079,-0.228 l 1.899,0 c 0,0 1.038,3.331 1.448,4.654 -0.057,0.293 -0.105,0.526 -0.13,0.656"
         id="path886"
         style="fill:#f1cb00;fill-opacity:1;fill-rule:nonzero;stroke:none" />
      <path
         d="m 176.8266,146.2621 c -0.111,0.111 -0.228,0.213 -0.349,0.31 0.826,-0.785 1.347,-1.904 1.347,-3.146 0,-2.369 -1.885,-4.295 -4.201,-4.295 -0.987,0 -1.894,0.351 -2.611,0.936 0.752,-0.723 1.76,-1.17 2.872,-1.172 1.106,0 2.15,0.435 2.939,1.226 0.814,0.815 1.262,1.905 1.262,3.07 0,1.164 -0.445,2.254 -1.259,3.071"
         id="path890"
         style="fill:#f1cb00;fill-opacity:1;fill-rule:nonzero;stroke:none" />
      <path
         d="m 173.8866,145.9471 c 0.526,0 1.031,-0.183 1.455,-0.512 -0.01,0.008 -0.018,0.017 -0.027,0.027 -0.463,0.464 -1.062,0.72 -1.69,0.72 -0.627,0 -1.229,-0.255 -1.692,-0.72 -0.518,-0.519 -0.816,-1.261 -0.816,-2.032 0,-0.922 0.414,-1.737 1.048,-2.238 -0.499,0.52 -0.786,1.246 -0.785,2.001 0,1.519 1.124,2.754 2.507,2.754"
         id="path894"
         style="fill:#f1cb00;fill-opacity:1;fill-rule:nonzero;stroke:none" />
      <path
         d="m 197.0737,146.2621 c -0.111,0.111 -0.228,0.213 -0.348,0.31 0.826,-0.785 1.347,-1.904 1.347,-3.146 0,-2.369 -1.885,-4.295 -4.201,-4.295 -0.986,0 -1.895,0.351 -2.61,0.936 0.75,-0.723 1.76,-1.17 2.871,-1.172 1.105,0 2.147,0.435 2.938,1.226 0.816,0.815 1.264,1.905 1.264,3.07 0,1.164 -0.446,2.254 -1.261,3.071"
         id="path898"
         style="fill:#f1cb00;fill-opacity:1;fill-rule:nonzero;stroke:none" />
      <path
         d="m 194.1357,145.9471 c 0.523,0 1.029,-0.183 1.453,-0.512 -0.01,0.008 -0.017,0.017 -0.027,0.027 -0.462,0.464 -1.062,0.72 -1.689,0.72 -0.627,0 -1.229,-0.255 -1.692,-0.72 -0.519,-0.519 -0.817,-1.261 -0.817,-2.032 -0.002,-0.922 0.414,-1.737 1.049,-2.238 -0.5,0.52 -0.787,1.246 -0.786,2.001 0,1.519 1.124,2.754 2.509,2.754"
         id="path902"
         style="fill:#f1cb00;fill-opacity:1;fill-rule:nonzero;stroke:none" />
      <path
         d="m 178.3067,139.5653 0.002,7.978 1.436,0.003 0.002,-6.712 3,-0.001 0,-1.269 -4.44,0.001 z"
         id="path906"
         style="fill:#0067ac;fill-opacity:1;fill-rule:nonzero;stroke:none" />
      <path
         d="m 187.0269,139.5653 -3.609,-0.001 0,1.269 3.391,0.002 c 0.521,0 0.945,0.421 0.945,0.945 -0.034,1.36 -2.032,0.934 -3.447,1.834 -0.617,0.366 -1.03,1.045 -1.03,1.817 0,1.167 0.943,2.115 2.106,2.115 l 3.539,0 0,-1.281 -3.333,-0.001 c -0.459,0 -0.832,-0.376 -0.832,-0.834 -0.149,-0.999 2.426,-1.257 2.885,-1.497 0.93,-0.269 1.612,-1.127 1.61,-2.144 0,-1.231 -0.998,-2.224 -2.225,-2.224"
         id="path910"
         style="fill:#0067ac;fill-opacity:1;fill-rule:nonzero;stroke:none" />
      <path
         d="m 204.4526,139.5653 0,7.981 -1.442,0 0.004,-5.258 -3.092,5.258 -1.425,0 -0.005,-7.981 1.441,0 0.005,5.268 3.06,-5.268 1.454,0 z"
         id="path914"
         style="fill:#0067ac;fill-opacity:1;fill-rule:nonzero;stroke:none" />
      <path
         d="m 159.0554,139.5643 1.496,0 1.094,5.439 1.692,-5.439 1.724,0 1.693,5.437 1.089,-5.436 1.496,0 -1.682,7.981 -1.772,0 -1.687,-5.626 -1.68,5.623 -1.777,0 -1.686,-7.979 z"
         id="path918"
         style="fill:#0067ac;fill-opacity:1;fill-rule:nonzero;stroke:none" />
      <path
         d="m 193.728,140.6843 c 1.452,-0.003 2.628,1.284 2.629,2.87 0.001,1.587 -1.175,2.874 -2.627,2.874 -1.452,0 -2.629,-1.286 -2.629,-2.872 0,-1.588 1.176,-2.872 2.627,-2.872 m -4.079,2.872 c 0.002,2.307 1.826,4.178 4.082,4.175 2.253,0 4.081,-1.871 4.078,-4.177 0,-2.307 -1.827,-4.178 -4.081,-4.177 -2.254,0.002 -4.081,1.873 -4.079,4.179"
         id="path922"
         style="fill:#0067ac;fill-opacity:1;fill-rule:nonzero;stroke:none" />
      <path
         d="m 173.4738,140.6901 c 1.45,-0.002 2.628,1.285 2.628,2.872 0.002,1.588 -1.175,2.873 -2.628,2.876 -1.451,0 -2.626,-1.287 -2.626,-2.874 -0.001,-1.586 1.175,-2.874 2.626,-2.874 m -4.081,2.874 c 0.001,2.308 1.83,4.177 4.084,4.177 2.253,0 4.08,-1.872 4.08,-4.181 -0.001,-2.306 -1.829,-4.176 -4.083,-4.175 -2.255,0.001 -4.081,1.873 -4.081,4.179"
         id="path926"
         style="fill:#0067ac;fill-opacity:1;fill-rule:nonzero;stroke:none" />
    </g>
  </g>
</svg>
