<svg version="1.1" baseProfile="full" xmlns="http://www.w3.org/2000/svg" width="119.87879" height="14.64">
    <g fill="#000000">
        <path d="M 11.70379,0.23875 11.72499,3.965 11.5,3.9987 C 10.59125,1.74495 9.90625,0.60495 7.13999,0.60495 l -0.31375,0 0,11.995 c 0,0.595 0.0663,1.0075 0.36875,1.2875 0.21001,0.19125 0.97751,0.2825 1.59875,0.2825 l 0,0.26875 -5.86124,0 0,-0.26875 c 0.62125,0 1.38874,-0.0913 1.5975,-0.2825 0.3025,-0.28 0.37,-0.6925 0.37,-1.2875 l 0,-11.995 -0.315,0 c -2.76626,0 -3.45001,1.14 -4.35876,3.39375 L 0,3.965 0.0213,0.23875 l 11.6825,0" />
        <path d="m 15.20629,12.7375 c 0,0.54625 -0.0675,0.97875 -0.3425,1.20875 C 14.63378,14.1375 14.16753,14.19 13.48378,14.19 l 0,0.24875 5.29251,0 0,-0.24875 c -0.685,0 -1.15125,-0.0525 -1.38125,-0.24375 -0.275,-0.23 -0.3425,-0.6625 -0.3425,-1.20875 l 0,-7.76 c 0,-0.5475 0.0675,-0.98 0.3425,-1.21 0.23,-0.19125 0.69625,-0.2425 1.38125,-0.2425 l 0,-0.25 -5.29251,0 0,0.25 c 0.68375,0 1.15,0.0512 1.38001,0.2425 0.27499,0.23 0.3425,0.6625 0.3425,1.21 l 0,7.76" />
        <path d="m 29.12754,3.275 -8.17751,0 0,0.25 c 0.62125,0 1.06,0.0512 1.26876,0.2425 0.25125,0.23 0.31125,0.6625 0.31125,1.21 l 0,7.76 c 0,0.54625 -0.06,0.97875 -0.31125,1.20875 C 22.01003,14.1375 21.57128,14.19 20.95003,14.19 l 0,0.24875 5.19501,0 0,-0.24875 c -0.685,0 -1.19626,-0.0525 -1.425,-0.24375 -0.27626,-0.23 -0.3425,-0.6625 -0.3425,-1.20875 l 0,-3.755 0.81374,0 c 0.86,0 1.2925,0.1425 1.65501,0.41875 0.30125,0.23 0.53999,0.72875 0.53999,1.18125 l 0.2175,0 0,-3.5475 -0.2175,0 c 0,0.4525 -0.23874,0.97 -0.53999,1.20125 -0.36251,0.275 -0.79501,0.425 -1.65501,0.425 l -0.81374,0 0,-5.045 1.01875,0 c 2.53,0 3.2225,1.20625 3.6025,2.605 l 0.17375,-0.0325 -0.045,-2.91375" />
        <path d="m 38.97627,3.275 -8.17875,0 0,0.25 c 0.6225,0 1.06125,0.0512 1.27,0.2425 0.25125,0.23 0.31125,0.6625 0.31125,1.21 l 0,7.76 c 0,0.54625 -0.06,0.97875 -0.31125,1.20875 -0.20875,0.19125 -0.6475,0.24375 -1.27,0.24375 l 0,0.24875 5.19625,0 0,-0.24875 c -0.68375,0 -1.19625,-0.0525 -1.42625,-0.24375 -0.275,-0.23 -0.3425,-0.6625 -0.3425,-1.20875 l 0,-3.755 0.815,0 c 0.86,0 1.2925,0.1425 1.655,0.41875 0.30125,0.23 0.54,0.72875 0.54,1.18125 l 0.2175,0 0,-3.5475 -0.2175,0 c 0,0.4525 -0.23875,0.97 -0.54,1.20125 -0.3625,0.275 -0.795,0.425 -1.655,0.425 l -0.815,0 0,-5.045 1.02,0 c 2.53,0 3.22125,1.20625 3.6025,2.605 l 0.17375,-0.0325 -0.045,-2.91375" />
        <path d="m 50.01253,14.195 c -0.88999,-0.1025 -1.16125,-0.40625 -1.565,-1.4575 l -3.64999,-9.74375 -0.38626,0 -3.57249,9.535 c -0.48125,1.25875 -0.855,1.445 -1.93375,1.66625 l 0,0.24375 3.36125,0 0,-0.24375 c -0.96875,-0.0588 -1.42875,-0.44125 -0.95875,-1.66625 l 0.7825,-2.12875 3.62625,0 0.83375,2.18375 c 0.40125,1.04625 0.008,1.54375 -1.01501,1.61125 l 0,0.24375 4.4775,0 0,-0.24375 z m -7.80249,-4.13625 1.66874,-4.54125 1.70751,4.54125 -3.37625,0" />
        <path d="m 61.87129,3.275 -3.83125,0 0,0.25 c 0.84375,0.075 1.24624,0.15 1.46625,0.5275 0.25124,0.43 0.3575,1.1625 0.3575,2.13125 l 0,5.36 -6.31375,-8.26875 -3.14625,0 0,0.25 c 1.17249,0 1.73874,0.65625 1.73874,1.61375 l 0,6.41875 c 0,0.9675 -0.0612,1.675 -0.31124,2.105 -0.2175,0.37125 -0.4425,0.4575 -1.23126,0.5275 l 0,0.24875 3.7925,0 0,-0.24875 c -0.84375,-0.0738 -1.24624,-0.15125 -1.46625,-0.5275 -0.25124,-0.43 -0.3575,-1.1375 -0.3575,-2.105 l 0,-6.54125 7.40625,9.52 0.315,0 0,-8.3525 c 0,-0.96875 0.06,-1.70125 0.31125,-2.13125 C 60.82253,3.675 61.02754,3.6 61.87129,3.525 l 0,-0.25" />
        <path d="m 73.13505,3.275 -3.27375,0 -0.002,0.25 c 1.0175,0.0312 1.37875,0.40875 1.015,1.1525 L 68.63805,8.9075 66.2018,4.60875 C 65.83805,3.90375 66.2393,3.525 67.2593,3.525 l -0.002,-0.25 -4.615,0 0.002,0.25 c 0.9,0.0637 1.13875,0.28 1.50125,0.98125 l 2.8525,5.10375 0,3.1275 c 0,0.54625 -0.065,0.97875 -0.31375,1.20875 -0.21125,0.19125 -0.67,0.24375 -1.29125,0.24375 l 0,0.24875 5.05375,0 0,-0.24875 c -0.62125,0 -1.08,-0.0525 -1.28875,-0.24375 -0.25,-0.23 -0.315,-0.6625 -0.315,-1.20875 l 0,-3.45875 2.5425,-4.6325 c 0.4325,-0.82375 0.85,-1.05 1.7475,-1.12125 l 0.002,-0.25" />
        <path d="m 88.5988,7.65875 -4.4675,0 L 84.1293,7.9 c 1.11,0.015 1.68625,0.4375 1.2675,1.32125 -0.3125,0.66 -0.67375,1.2775 -1.0975,1.8575 l -3.26,-4.1775 c 1.92375,-0.92625 2.935,-1.87 2.935,-3.36625 0,-1.07375 -1.12875,-2.2525 -2.755,-2.2525 -1.68,0 -3.145,1.3775 -3.145,2.895 0,0.9875 0.2775,1.6875 1.23125,3.05625 -1.90375,0.67125 -3.54375,2.20875 -3.54375,3.9825 0,1.99875 1.58875,3.42375 3.70875,3.42375 1.56125,0 2.87125,-0.82875 3.945,-1.98375 l 1.33125,1.7825 3.365,0 -0.002,-0.2475 c -0.60375,-0.009 -0.8,-0.0637 -1.175,-0.25 -0.455,-0.22875 -0.85125,-0.635 -1.33125,-1.20625 L 84.5373,11.3675 c 0.61875,-0.815 1.15875,-1.685 1.715,-2.46375 0.42625,-0.59875 0.88625,-0.8775 2.345,-0.99 l 0.002,-0.255 z M 81.29005,1.685 c 1.03375,0 1.645,0.78125 1.645,2.03125 0,1.1275 -0.89875,2.38125 -2.155,2.86125 C 79.83505,5.27 79.6238,4.43625 79.6238,3.665 c 0,-1.41 0.66625,-1.98 1.66625,-1.98 m -3.64875,8.8325 c 0,-1.40875 0.65375,-2.40375 1.8825,-2.9825 l 3.63375,4.80625 c -0.8525,0.80375 -1.82125,1.3025 -2.71875,1.3025 -1.5675,0 -2.7975,-1.23875 -2.7975,-3.12625" />
        <path d="m 104.06378,10.22375 -0.22624,0.0175 c -0.5225,2.4975 -2.36126,4.00375 -4.0475,4.00375 -3.22125,0 -5.28625,-2.86125 -5.28625,-6.8675 0,-4.005 1.79875,-6.94625 4.985,-6.94625 1.84624,0 3.725,1.45875 4.25875,3.825 l 0.225,-0.0325 -0.115,-4.22375 -0.2425,0 c -0.0737,0.62125 -0.46501,0.9725 -1.09001,0.7325 -0.91875,-0.35125 -1.9475,-0.6925 -3.02375,-0.6925 -4.02874,0 -7.45374,3.29375 -7.45374,7.3375 0,4.045 3.3925,7.26125 7.45374,7.26125 1.74251,0 3.175,-0.37375 4.36376,-1.20375 l 0.19874,-3.21125" />
        <path d="m 105.81627,8.8575 c 0,3.16125 2.47251,5.73875 5.58626,5.73875 3.1125,0 5.58625,-2.5775 5.58625,-5.73875 0,-3.1625 -2.47375,-5.73875 -5.58625,-5.73875 -3.11375,0 -5.58626,2.57625 -5.58626,5.73875 z m 9.00125,0 c 0,3.14875 -1.16374,5.41875 -3.41499,5.41875 -2.2525,0 -3.41625,-2.27 -3.41625,-5.41875 0,-3.14875 1.16374,-5.41875 3.41625,-5.41875 2.25124,0 3.41499,2.27 3.41499,5.41875" />
        <path d="m 118.74754,12.28625 c 0.63125,0 1.13125,0.51 1.13125,1.155 0,0.645 -0.5,1.155 -1.13125,1.155 -0.63126,0 -1.13,-0.51 -1.13,-1.155 0,-0.645 0.49874,-1.155 1.13,-1.155" />
    </g>
</svg>
