<?xml version="1.0" encoding="UTF-8" standalone="no"?>
<svg
   xmlns:dc="http://purl.org/dc/elements/1.1/"
   xmlns:cc="http://creativecommons.org/ns#"
   xmlns:rdf="http://www.w3.org/1999/02/22-rdf-syntax-ns#"
   xmlns:svg="http://www.w3.org/2000/svg"
   xmlns="http://www.w3.org/2000/svg"
   xmlns:sodipodi="http://sodipodi.sourceforge.net/DTD/sodipodi-0.dtd"
   xmlns:inkscape="http://www.inkscape.org/namespaces/inkscape"
   id="svg2"
   version="1.1"
   inkscape:version="0.47 r22583"
   width="698"
   height="99.000122"
   xml:space="preserve"><g
     id="g12"
     inkscape:groupmode="layer"
     inkscape:label="TW_logo_guidelines"
     transform="matrix(1.25,0,0,-1.25,-101.71977,633.7871)"><path
       d="m 419.58112,437.83948 c 0.314,-4.5395 2.8904,-9.8565 10.5935,-9.8565 5.455,0 8.1412,3.0788 9.2014,4.4252 -0.244,0.237 -1.6027,1.4343 -1.8851,1.6831 -0.447,-0.62 -1.8604,-2.2573 -3.3836,-2.2573 -1.3986,0 -2.6449,0.752 -2.6449,3.6334 l 0,28.5516 c 0,12.0055 -10.4747,15.0777 -19.158,15.0777 -11.8995,0 -18.4379,-6.4944 -18.4379,-12.4473 0,-3.3673 2.3787,-6.1423 5.7242,-6.1423 3.1607,0 5.6163,2.1254 5.6163,4.9651 0,3.3582 -2.8713,3.8928 -2.8713,6.249 0,2.5114 3.0086,4.5921 7.5436,4.5921 6.9707,0 9.2009,-4.4824 9.2009,-8.3325 0,-0.07 0,-10.2978 0,-11.2185 -17.37,0 -28.4366,-5.5539 -28.4366,-16.098 0,-6.7215 4.8382,-12.6813 14.1312,-12.6813 10.0023,0 13.6209,7.2558 14.7086,9.8565 l 0.1,0 m -18.2401,4.537 c 0,8.6086 8.4799,11.6176 17.7364,11.6176 0,-0.789 0,-7.3793 0,-7.3793 0,-7.0232 -4.0095,-12.3317 -9.7614,-12.3317 -4.1224,0 -7.975,2.526 -7.975,8.0934 m -257.9633,35.3639 0,-2.9106 7.812,0 0,-42.5304 -7.92585,0 0,-2.9106 27.77172,0 0,2.9106 -7.46678,0 0,45.441 -20.19109,0 m -19.00837,-45.4311 c 0.9193,0 11.1448,0 11.1448,0 l 0,-2.9205 -36.97353,0 0,2.9205 c 0,0 10.6821,0 11.6028,0 0,0.99 0,71.8047 0,71.8047 l -8.72784,0 c -10.57232,0 -15.54597,-5.544 -17.58864,-20.2059 l -2.45342,-0.009 0,23.1306 71.77286,0 0,-23.1306 -2.4584,0.009 c -2.03752,14.6619 -7.01227,20.2059 -17.58856,20.2059 l -8.7251,0 c 0,0 -0.005,-70.8147 -0.005,-71.8047 m 383.05005,40.2237 c 0,1.8266 0,5.2074 0,5.2074 l -19.5093,0 0,-2.9106 c 0,0 6.5828,0 7.4613,0 0,-0.975 0,-41.5522 0,-42.5304 -0.877,0 -7.4613,0 -7.4613,0 l 0,-2.9106 27.5381,0 0,2.9106 c 0,0 -6.8192,0 -7.7052,0 0,0.959 0,31.3137 0,31.3137 0,7.0488 3.865,10.7266 9.5095,10.7266 6.1348,0 9.7062,-3.9253 9.7062,-10.7266 0,0 0,-30.3336 0,-31.3137 -0.87,0 -7.2323,0 -7.2323,0 l 0,-2.9106 27.1996,0 0,2.9106 c 0,0 -6.6972,0 -7.5735,0 0,0.978 0,30.1455 0,30.1455 0,10.1998 -7.6131,16.6756 -18.1863,16.6756 -9.2665,0 -12.9888,-5.622 -13.7468,-6.5875 m 83.0566,-26.8884 c -0.246,-4.6394 -4.8398,-14.587 -14.8969,-14.587 -8.0513,0 -12.9616,5.6671 -12.9616,14.4385 0,0 0,10.0584 0,10.8702 0.98,0 32.1354,0.002 32.1354,0.002 0,9.7694 -6.544,22.7497 -22.4928,22.7497 -13.8897,0 -22.7997,-10.3905 -22.7997,-25.5533 0,-15.3252 8.91,-25.5583 23.2551,-25.5583 16.3477,0 20.5227,13.4011 20.9583,17.6383 l -3.1978,0 m -18.177,30.8484 c 6.5056,0 9.6531,-4.8015 9.6531,-10.7811 l 0,-6.4449 -19.3347,0 c 0,0 0,6.4548 0,6.4449 0,6.6915 3.7509,10.7811 9.6816,10.7811 m -264.1495,-30.8484 c -0.241,-4.642 -4.8329,-14.5896 -14.8978,-14.5896 -8.0486,0 -12.9526,5.6694 -12.9526,14.4411 0,0 0,10.0558 0,10.8696 0.98,0 32.1255,6e-4 32.1255,6e-4 0,9.7713 -6.5439,22.7502 -22.4879,22.7502 -13.8946,0 -22.79703,-10.3917 -22.79703,-25.5519 0,-15.3252 8.90243,-25.5609 23.24753,-25.5609 16.3536,0 20.5227,13.4037 20.9583,17.6404 l -3.196,0 m -18.1781,30.8489 c 6.5043,0 9.6591,-4.8015 9.6591,-10.7811 l 0.003,-6.4449 -19.3347,0 c 0,0 0,6.4548 0,6.4449 0,6.6889 3.7423,10.7811 9.6723,10.7811 m -54.24423,-2.2133 c -4.91446,0 -8.84936,-4.0293 -8.84936,-9.6614 l 0,-32.319 6.52415,0 0,-2.9119 -25.6608,0 0,2.9119 6.75185,0 c 0,0 0,26.7102 0,32.3136 0,5.66 -3.9205,9.6624 -8.87795,9.6624 -4.91161,0 -8.84538,-4.0298 -8.84538,-9.6624 0,-5.5469 0,-32.3136 0,-32.3136 l 6.52638,0 0,-2.9119 -26.72955,0 0,2.9119 7.81305,0 c 0,0 0,41.5503 0,42.5279 -0.8854,0 -7.92945,0 -7.92945,0 l 0,2.9094 19.99344,0 c 0,0 0,-3.9266 0,-5.1939 1.16986,1.3288 5.11011,6.5737 13.73301,6.5737 10.77383,0 14.56635,-7.1676 15.1573,-8.0994 1.2074,2.001 5.48885,8.0994 14.52295,8.0994 10.13745,0 17.12794,-7.1874 17.12794,-17.7407 l 0,-29.0764 7.69754,0 0,-2.9119 -26.83523,0 0,2.9119 6.75387,0 0.002,32.319 c 0,5.6595 -3.9222,9.6614 -8.87598,9.6614 m 227.18483,-4.6714 c 0,3.0736 0,8.1308 0,8.1308 l -19.9947,0 0,-2.9094 c 0,0 7.0471,0 7.9342,0 0,-0.978 0,-41.5573 0,-42.5304 -0.885,0 -7.8221,0 -7.8221,0 l 0,-2.9119 27.66,0 0,2.9119 c 0,0 -6.5877,0 -7.4663,0 0,0.941 0,21.3785 0,21.3785 0,13.2616 3.3139,19.375 7.0955,19.375 1.4859,0 1.9505,-1.0644 2.0297,-2.2128 0.153,-2.3265 1.3365,-5.6367 5.9119,-5.6367 3.3175,0 5.9955,2.6455 5.9955,6.304 0,4.0749 -3.6212,7.2627 -8.2444,7.2627 -8.9496,0 -12.2706,-7.0065 -13.0779,-9.1617 l -0.05,0 m 155.5438,0 c 0,3.0736 0,8.1308 0,8.1308 l -19.9943,0 0,-2.9094 c 0,0 7.0497,0 7.9362,0 0,-0.978 0,-41.5573 0,-42.5303 -0.883,0 -7.8229,0 -7.8229,0 l 0,-2.912 27.6716,0 0,2.912 c 0,0 -6.5973,0 -7.4769,0 0,0.94 0,21.3784 0,21.3784 0,13.2617 3.3121,19.375 7.0933,19.375 1.4973,0 1.9628,-1.0643 2.0411,-2.2127 0.147,-2.3265 1.3376,-5.6368 5.9129,-5.6368 3.3073,0 5.9802,2.6455 5.9802,6.304 0,4.0749 -3.622,7.2627 -8.2333,7.2627 -8.9573,0 -12.2776,-7.0065 -13.0835,-9.1617 l -0.05,0 m -266.4525,4.8034 -13.6765,-46.5822 -5.0802,0 -22.3578,76.2053 -7.896,0 0,2.9898 28.5389,0 0,-2.9898 -7.5027,0 16.4312,-56.4795 0.1,0 9.6692,33.1405 -6.8657,23.339 -6.5024,0 0,2.9898 29.6408,0 0,-2.9898 -9.9674,0 16.4772,-56.5889 0.1,0 16.4101,56.5889 -9.5264,0 0,2.9898 21.4929,0 0,-2.9898 -8.3042,0 -22.1595,-76.2053 -5.2792,0 -13.6415,46.5822 -0.1,0"
       style="fill:#005cab;fill-opacity:1;fill-rule:nonzero;stroke:none"
       id="path76" /></g></svg>