<?xml version="1.0" encoding="UTF-8" standalone="no"?>
<!-- Created with Inkscape (http://www.inkscape.org/) -->

<svg
   xmlns:dc="http://purl.org/dc/elements/1.1/"
   xmlns:cc="http://creativecommons.org/ns#"
   xmlns:rdf="http://www.w3.org/1999/02/22-rdf-syntax-ns#"
   xmlns:svg="http://www.w3.org/2000/svg"
   xmlns="http://www.w3.org/2000/svg"
   xmlns:sodipodi="http://sodipodi.sourceforge.net/DTD/sodipodi-0.dtd"
   xmlns:inkscape="http://www.inkscape.org/namespaces/inkscape"
   version="1.0"
   width="200.33501"
   height="23.772028"
   viewBox="0 0 200.33501 23.772028"
   id="Layer_1"
   xml:space="preserve"
   inkscape:version="0.47 r22583"
   sodipodi:docname="Texas_Instruments_Logo.svg"><metadata
   id="metadata26"><rdf:RDF><cc:Work
       rdf:about=""><dc:format>image/svg+xml</dc:format><dc:type
         rdf:resource="http://purl.org/dc/dcmitype/StillImage" /></cc:Work></rdf:RDF></metadata><sodipodi:namedview
   pagecolor="#ffffff"
   bordercolor="#666666"
   borderopacity="1"
   objecttolerance="10"
   gridtolerance="10"
   guidetolerance="10"
   inkscape:pageopacity="0"
   inkscape:pageshadow="2"
   inkscape:window-width="1280"
   inkscape:window-height="710"
   id="namedview24"
   showgrid="false"
   inkscape:zoom="0.61433447"
   inkscape:cx="422.17"
   inkscape:cy="50.094055"
   inkscape:window-x="-4"
   inkscape:window-y="-4"
   inkscape:window-maximized="1"
   inkscape:current-layer="Layer_1" /><defs
   id="defs44"><inkscape:perspective
     sodipodi:type="inkscape:persp3d"
     inkscape:vp_x="0 : 68 : 1"
     inkscape:vp_y="0 : 1000 : 0"
     inkscape:vp_z="879 : 68 : 1"
     inkscape:persp3d-origin="439.5 : 45.333333 : 1"
     id="perspective28" /></defs>
<path
   d="m 18.695656,4.652554 0,0 0.71774,0 0.71774,0.02657 0.717978,0.05386 0.665067,0.07949 0.611206,0.05291 0.292316,0.02681 0.266217,0.05291 0.239167,0.05386 0.213543,0.05291 0.371801,0.106296 -0.07925,1.223363 -0.05433,1.03711 0,0.21259 0,0.21283 0.02729,0.21283 0.02705,0.21236 0.07925,0.31984 0.07972,0.2916 0.07925,0.2667 0.07996,0.10606 0.05386,0.13287 0.10606,0.18649 0.132871,0.15921 0.133108,0.10629 0.106059,0.13359 0.133583,0.0795 0.07901,0.0531 0.186494,0.08 0.05362,0.0259 0,0.15992 0.05267,0.45175 0.02705,0.34571 0.0261,0.3196 0,0.39885 -0.0261,0.45223 -0.05386,0.58487 -0.02586,0.53149 -0.07996,0.452 -0.07996,0.37156 -0.07996,0.32031 -0.02586,0.2126 -0.05315,0.18554 -0.665304,0.23964 -0.451761,0.16016 -0.531721,0.21165 -0.292791,0.13334 -0.26503,0.13335 -0.638967,0.3196 -0.638255,0.37156 -0.319365,0.2126 -0.372038,0.23916 -0.265742,0.18674 -0.239642,0.21259 -0.238931,0.21259 -0.240117,0.23893 -0.238456,0.21378 -0.213305,0.2648 -0.211882,0.23964 -0.187443,0.23917 -0.186019,0.26598 -0.158971,0.26669 -0.106771,0.26503 -0.07996,0.15992 -0.05267,0.13334 -0.07948,0.29184 -0.08043,0.29232 -0.05244,0.29184 0,0.16016 0,0.15921 0,0.31936 0.02634,0.34594 0.05267,0.3196 0.05386,0.29161 0.05267,0.2935 0.07948,0.2394 0.07996,0.26598 0.106771,0.21307 -0.106771,0.0517 -0.159445,0.0809 -0.212356,0.079 -0.106772,0.0536 -0.159207,0 -0.292554,0.08 -0.186019,0 -0.212594,0.0259 -0.186494,0 -0.213068,0 -0.132871,-0.0259 -0.159208,0 -0.266691,-0.08 -0.291841,-0.0536 -0.319602,-0.13215 -0.133108,-0.0529 -0.133346,-0.0534 -0.291841,-0.16087 -0.292554,-0.21212 -0.292553,-0.18649 -0.265979,-0.23846 -0.26598,-0.24012 -0.265742,-0.26597 -0.239405,-0.26693 -0.239167,-0.29161 -0.239643,-0.31865 -0.106534,-0.15992 -0.105584,-0.15921 -0.213543,-0.34641 -0.239168,-0.45153 -0.238693,-0.47952 -0.426373,-0.90447 -0.398613,-0.904 -0.185545,-0.42471 -0.212831,-0.37275 -0.212593,-0.37061 -0.07996,-0.18602 -0.133583,-0.15992 -0.212119,-0.26622 -0.07996,-0.13263 -0.133108,-0.13335 -0.106771,-0.10558 -0.132871,-0.10677 -0.106297,-0.0536 -0.159208,-0.079 -0.106297,-0.0802 -0.133108,-0.0266 -0.160157,0 -0.132634,-0.0256 -0.133108,0.0256 -0.132871,0 -0.106771,0 -0.132397,0.0266 -0.07996,0.0532 -0.10606,0.0536 -0.107483,0.0527 -0.07901,0.0273 -0.159208,0.15873 -0.159445,0.13334 -0.107483,0.15992 -0.158259,0.13264 -0.107008,0.15944 -0.133109,0.1343 -0.132396,0.13144 -0.133345,0.13335 -0.07925,0.0543 -0.07996,0.052 -0.186257,0.0797 -0.07925,0.0268 -0.106771,0.0263 -0.106534,0 -0.106297,0 -0.132871,0 -0.133346,-0.0263 -0.106534,0 -0.131921,-0.0534 -0.106772,-0.0534 -0.106534,-0.0795 -0.212593,-0.15992 -0.106772,-0.0792 -0.106059,-0.10654 -0.106534,-0.0802 -0.07996,-0.10654 -0.159208,-0.23869 -0.07996,-0.13264 -0.07996,-0.1331 -0.132871,-0.26646 -0.159919,-0.2655 -0.238693,-0.53172 -0.425662,-0.93081 -0.05339,-0.13335 L 2.898958,13.375353 2.739987,13.108903 2.526919,12.869733 2.3148,12.630803 1.835515,12.178333 1.569299,11.965733 1.330131,11.726803 1.090726,11.487643 0.877421,11.221183 0.665539,10.982253 0.478808,10.688753 0.3196,10.370333 0.23964,10.184313 0.15968,10.025113 0.10701,9.837903 0.0802,9.624833 0.02705,9.412243 0,9.173073 l 6.515185,0 0,-9.173073 6.117047,0 0,3.854919 0.105585,0.07996 0.106534,0.07996 0.133345,0.07996 0.186257,0.07972 0.185782,0.05267 0.239405,0.07996 0.212356,0.05315 0.266691,0.05267 -0.691878,3.084504 -1.941577,0 -0.664829,2.73975 1.9952,0 -0.717978,3.3512 -0.106059,0.50515 -0.02729,0.29255 -0.05267,0.31865 0,0.34594 0,0.29256 0.0261,0.29279 0.02658,0.1331 0.02729,0.13264 0.07972,0.21259 0.07901,0.18721 0.107246,0.18483 0.106296,0.15992 0.13216,0.18578 0.106534,0.13287 0.160394,0.13335 0.159208,0.10653 0.106534,0.10583 0.212593,0.0536 0.159445,0.08 0.186732,0.0793 0.18507,0.0266 0.186731,0.0266 0.212594,0.0263 0.212593,0 0.292316,0 0.319365,-0.0263 0.292553,-0.0266 0.319365,-0.0529 0.557821,-0.10654 0.266691,-0.08 0.212356,-0.0524 0.239405,-0.08 0.212594,-0.0543 0.292553,-0.10582 0.292791,-0.13287 0.611443,-2.33971 -0.07949,0.0268 -0.133108,0.0263 -0.292079,0 -0.293028,0.0259 -0.265504,0.0266 -0.133346,0 -0.106534,-0.0266 -0.07901,-0.0259 -0.02681,0 -0.02657,-0.0263 -0.02657,-0.0268 -0.05339,-0.0266 -0.02657,-0.08 -0.05267,-0.0529 -0.02681,-0.13311 -0.02681,-0.10582 0.02681,-0.0802 0.02681,-0.26693 0.8238,-3.56284 1.941577,0 0.63778,-2.73951 -1.994013,0 0.638018,-2.845102 z m -3.750046,1.091199 0,0 2.393101,0 -1.967202,8.7218 -2.313853,0 1.887954,-8.7218 z m 1.648786,-3.351192 0,0 0.160157,0 0.10606,0.02634 0.132396,0.0261 0.107009,0.02752 0.106534,0.05244 0.106059,0.07996 0.106297,0.05291 0.07948,0.07949 0.159208,0.186731 0.08044,0.106297 0.05267,0.107009 0.02705,0.105822 0.02657,0.159682 0.02586,0.106534 0,0.132634 0,0.133345 -0.02586,0.133109 -0.02657,0.106296 -0.02705,0.132634 -0.05267,0.106534 -0.08044,0.07901 -0.05244,0.133583 -0.07996,0.05362 -0.07996,0.106296 -0.106297,0.05267 -0.106297,0.05386 -0.106534,0.05267 -0.106059,0.02705 -0.132871,0.02563 -0.132634,0.02705 -0.160157,0 -0.132633,0 -0.106534,-0.02705 -0.133109,-0.02563 -0.106771,-0.02705 -0.132634,-0.05267 -0.106534,-0.05386 -0.07972,-0.05267 -0.106534,-0.07925 -0.07972,-0.08067 -0.07925,-0.10606 -0.05339,-0.106534 -0.05315,-0.07925 -0.02681,-0.15992 -0.05267,-0.106296 -0.02634,-0.133109 0,-0.133345 0,-0.132634 0.02634,-0.106534 0.05267,-0.132633 0.02681,-0.106535 0.05315,-0.107008 0.05339,-0.132397 0.106534,-0.07996 0.05244,-0.07901 0.106534,-0.107246 0.106059,-0.05291 0.106772,-0.07996 0.105822,-0.05244 0.133582,-0.02752 0.106297,-0.0261 0.132634,-0.02634 0.106771,0 0,-2.38e-4 z"
   style="fill-rule:evenodd"
   id="path3" />
<g
   id="g5"
   transform="matrix(0.23726957,0,0,0.23726957,-4.111882,-4.248139)">
	<path
   d="m 565.45,75.783 0,0 0.671,-0.225 0.675,-0.334 1.232,-0.672 0.56,-0.228 0.225,-0.221 0.221,-0.114 0.562,-0.561 0.338,-0.336 0.558,-0.556 0.338,-0.562 0.225,-0.448 0.338,-0.674 0.111,-0.561 0.112,-0.561 0.109,-0.669 -0.109,-0.788 -0.112,-0.674 -0.225,-0.669 -0.337,-0.564 -0.225,-0.784 -0.446,-0.449 -0.454,-0.447 -0.554,-0.558 -0.562,-0.337 -0.56,-0.335 -0.674,-0.337 -0.671,-0.224 -0.562,-0.225 -0.783,-0.225 -0.669,-0.113 -0.564,0 -0.671,0 -1.122,0 -2.128,0 -2.021,0 -1.117,0 -0.45,0.113 -0.337,0.225 -0.45,0.225 -0.449,0.224 -0.106,0.337 -0.228,0.448 -0.109,0.559 -0.112,0.449 0,0.786 0,0.448 0,9.637 0.112,5.604 0,11.541 0,0.785 0.109,0.675 0.112,0.674 0.115,0.334 0.106,0.562 0.228,0.442 0.449,0.787 0.222,0.226 0.337,0.337 0.671,0.338 0.45,0.111 0.337,0.222 0.783,0.112 0,1.233 -17.487,0 0,-1.233 0.454,0 0.337,-0.112 0.442,-0.222 0.338,-0.111 0.671,-0.338 0.229,-0.337 0.333,-0.226 0.338,-0.445 0.112,-0.342 0.225,-0.442 0.112,-0.562 0.221,-0.334 0.116,-0.674 0,-0.675 0,-0.785 0,-29.023 0,-0.671 -0.116,-0.563 -0.112,-0.675 -0.108,-0.559 -0.226,-0.449 -0.224,-0.447 -0.115,-0.337 -0.335,-0.449 -0.221,-0.334 -0.338,-0.113 -0.675,-0.45 -0.334,-0.225 -0.334,-0.112 -0.791,-0.107 0,-1.233 23.875,0 1.684,0 1.68,0.11 1.57,0.223 1.454,0.226 1.459,0.443 0.671,0.23 0.562,0.107 0.782,0.337 0.563,0.226 1.12,0.671 0.446,0.337 0.562,0.337 0.445,0.452 0.447,0.331 0.337,0.448 0.454,0.448 0.333,0.562 0.337,0.449 0.226,0.563 0.333,0.447 0.113,0.558 0.224,0.784 0.112,0.562 0.114,0.675 0.108,0.67 0,0.786 -0.108,0.785 0,0.783 -0.114,0.672 -0.225,0.559 -0.225,0.674 -0.111,0.675 -0.222,0.447 -0.338,0.67 -0.675,0.786 -0.337,0.447 -0.337,0.445 -0.781,0.675 -0.562,0.229 -0.334,0.446 -1.012,0.446 -0.896,0.561 -1.008,0.335 -1.008,0.338 -1.01,0.338 -0.896,0.223 -1.57,0.335 1.009,0.446 0.898,0.453 0.894,0.558 0.899,0.673 0.783,0.561 0.671,0.675 0.672,0.668 0.674,0.788 0.675,0.783 0.559,0.67 1.232,1.567 1.006,1.574 0.899,1.684 0.896,1.454 0.899,1.459 0.333,0.667 0.448,0.675 0.897,1.008 0.45,0.562 0.559,0.442 0.45,0.454 0.558,0.333 0.45,0.226 0.562,0.225 0.671,0.112 0.672,0.112 0,1.009 -0.894,0.45 -1.348,0.445 -0.784,0.112 -0.896,0.226 -1.009,0.112 -0.899,0 -1.567,0 -0.671,-0.112 -0.562,-0.112 -1.346,-0.226 -1.121,-0.333 -1.009,-0.45 -0.899,-0.562 -0.893,-0.446 -0.787,-0.787 -0.671,-0.671 -0.562,-0.671 -0.672,-0.672 -0.445,-0.896 -0.562,-0.786 -0.338,-0.9 -0.783,-1.788 -1.567,-3.475 -0.786,-1.57 -0.334,-0.896 -0.562,-0.562 -0.449,-0.558 -0.559,-0.676 -0.56,-0.442 -0.562,-0.449 -0.783,-0.337 -0.342,-0.226 -0.446,-0.116 -0.334,-0.109 -0.448,0 -1.006,0 -5.941,0 0,0.109 0,-0.109 -0.112,-1.683 0,-1.788 0,-1.796 1.455,0 3.362,0 1.795,-0.108 1.676,0 1.35,0 0.902,-0.229 z"
   style="fill-rule:evenodd"
   id="path7" />
	<path
   d="m 395.542,49.781 0,0 0,-0.785 0,-0.671 -0.113,-0.558 -0.226,-0.675 -0.221,-0.449 -0.114,-0.446 -0.221,-0.334 -0.336,-0.341 -0.112,-0.334 -0.337,-0.225 -0.674,-0.45 -0.337,-0.225 -0.333,-0.112 -0.788,-0.11 0,-1.231 18.27,0 0,1.231 -0.336,0.11 -0.337,0 -0.785,0.337 -0.334,0.226 -0.227,0.224 -0.221,0.225 -0.337,0.334 -0.226,0.341 -0.337,0.334 -0.109,0.446 -0.224,0.449 -0.113,0.675 -0.112,0.558 -0.112,0.671 0,0.785 0,43.147 0,0.904 0.11,0.668 0.112,0.562 0.113,0.56 0.224,0.445 0.225,0.45 0.222,0.338 0.226,0.452 0.337,0.219 0.221,0.225 0.227,0.225 0.446,0.225 0.673,0.334 0.674,0 0,1.346 -18.271,0 0,-1.346 0.788,0 0.333,-0.112 0.337,-0.222 0.674,-0.449 0.337,-0.225 0.112,-0.338 0.557,-0.671 0.114,-0.559 0.221,-0.449 0.339,-1.009 0,-0.668 0,-0.904 0,-43.148 10e-4,0 z"
   style="fill-rule:evenodd"
   id="path9" />
	<path
   d="m 455.39,100.444 0,0 -1.57,0 -29.14,-30.822 0,23.306 0,0.904 0.115,0.556 0.112,0.674 0.11,0.447 0.226,0.449 0.111,0.559 0.224,0.226 0.335,0.445 0.225,0.226 0.338,0.337 0.56,0.449 0.446,0 0.451,0.222 0.673,0.112 0,1.346 -13.563,0 0,-1.346 0.451,-0.112 0.444,-0.109 0.453,-0.112 0.333,-0.111 0.337,-0.226 0.222,-0.225 0.337,-0.225 0.337,-0.226 0.222,-0.445 0.225,-0.342 0.112,-0.442 0.225,-0.449 0.113,-0.447 0.111,-0.674 0.114,-0.556 0,-0.904 0,-29.137 0,-0.672 -0.114,-0.674 -0.111,-0.56 -0.113,-0.557 -0.11,-0.448 -0.227,-0.452 -0.225,-0.337 -0.112,-0.337 -0.336,-0.334 -0.335,-0.113 -0.673,-0.45 -0.787,-0.337 -0.895,-0.107 0,-1.233 12.439,0 22.305,24.205 0,-17.481 0,-0.671 -0.112,-0.563 -0.112,-0.675 -0.109,-0.559 -0.228,-0.449 0,-0.447 -0.335,-0.337 -0.224,-0.333 -0.339,-0.337 -0.224,-0.225 -0.671,-0.45 -0.784,-0.337 -0.787,-0.107 0,-1.233 13.562,0 0,1.233 -0.449,0.107 -0.338,0 -0.445,0.112 -0.226,0.225 -0.783,0.45 -0.225,0.113 -0.335,0.334 -0.337,0.449 -0.112,0.337 -0.225,0.447 -0.226,0.449 -0.222,1.233 -0.112,0.563 0,0.671 0,36.539 0.003,0 z"
   style="fill-rule:evenodd"
   id="path11" />
	<path
   d="m 626.983,85.536 0,0 -0.117,1.227 0,1.013 0,1.008 -0.224,0.896 -0.334,1.008 -0.337,0.79 -0.334,0.894 -0.45,0.783 -0.448,0.787 -0.561,0.559 -0.562,0.674 -0.442,0.56 -0.787,0.45 -0.562,0.559 -0.671,0.564 -0.676,0.331 -0.782,0.45 -0.672,0.333 -0.785,0.342 -0.673,0.333 -1.57,0.562 -0.784,0.221 -0.896,0.226 -1.566,0.221 -1.462,0.225 -1.454,0.117 -1.459,0 -1.457,0 -1.571,-0.117 -1.564,-0.225 -1.569,-0.221 -1.57,-0.446 -1.68,-0.45 -0.896,-0.337 -0.675,-0.45 -0.782,-0.222 -0.783,-0.562 -0.676,-0.331 -0.67,-0.564 -0.784,-0.45 -0.559,-0.559 -0.566,-0.445 -0.671,-0.676 -0.449,-0.671 -0.559,-0.787 -0.337,-0.783 -0.446,-0.784 -0.226,-0.783 -0.337,-1.014 -0.112,-0.336 -0.108,-0.559 -0.229,-1.12 0,-0.9 0,-1.227 0,-21.745 -0.108,-0.671 0,-0.338 0,-0.225 -0.116,-0.562 -0.222,-0.671 -0.225,-0.449 -0.228,-0.559 -0.447,-0.674 -0.336,-0.334 -0.222,-0.225 -0.337,-0.221 -0.338,-0.226 -0.337,-0.115 -0.334,-0.112 -0.787,-0.107 0,-1.233 17.483,0 0,1.233 -0.783,0.107 -0.338,0.112 -0.333,0.115 -0.675,0.447 -0.338,0.225 -0.221,0.334 -0.56,0.674 -0.229,0.559 -0.108,0.449 -0.225,1.233 -0.112,0.563 0,0.671 0,21.631 0.112,1.339 0,0.566 0.112,0.562 0.221,1.117 0.338,1.013 0.225,0.334 0.226,0.559 0.559,0.786 0.559,0.672 0.675,0.671 0.896,0.559 0.899,0.45 0.896,0.449 0.897,0.338 1.119,0.224 1.12,0.222 1.233,0 1.121,0 1.233,0 1.117,0 1.124,-0.222 1.008,-0.224 1.01,-0.338 0.896,-0.449 0.895,-0.45 0.784,-0.559 0.454,-0.333 0.441,-0.338 0.229,-0.338 0.337,-0.334 0.335,-0.449 0.224,-0.337 0.559,-0.893 0.338,-1.013 0.338,-1.117 0.108,-0.562 0.112,-0.566 0,-0.667 0.116,-0.672 0,-21.631 -0.116,-0.671 0,-0.563 -0.112,-0.562 -0.225,-0.671 -0.112,-0.449 -0.222,-0.447 -0.226,-0.337 -0.224,-0.449 -0.335,-0.334 -0.224,-0.113 -0.788,-0.45 -0.333,-0.225 -0.336,-0.112 -0.785,-0.107 0,-1.233 13.449,0 0,1.233 -0.446,0.107 -0.337,0 -0.334,0.112 -0.335,0.225 -0.678,0.45 -0.337,0.113 -0.222,0.334 -0.337,0.449 -0.112,0.337 -0.221,0.447 -0.226,0.449 -0.226,1.233 -0.107,0.563 0,0.671 0,21.631 10e-4,0 z"
   style="fill-rule:evenodd"
   id="path13" />
	<path
   d="m 514.899,65.583 0,0 0,-1.005 -0.111,-0.674 -0.222,-0.56 -0.226,-0.337 -0.336,-0.337 -0.446,-0.225 -0.447,-0.113 -0.786,0 -2.467,0 -1.121,0.113 -0.896,0 -0.899,0.111 -0.78,0.114 -0.787,0.225 -0.675,0.112 -0.559,0.337 -0.671,0.222 -0.562,0.338 -0.559,0.559 -0.674,0.564 -0.672,0.671 -1.342,1.681 -1.013,-0.447 3.25,-9.75 35.534,0 3.358,9.75 -1.121,0.447 -1.342,-1.681 -0.559,-0.671 -0.675,-0.564 -0.563,-0.559 -0.559,-0.338 -0.673,-0.222 -0.562,-0.337 -0.673,-0.112 -0.783,-0.225 -0.784,-0.114 -0.787,-0.111 -1.008,0 -1.008,-0.113 -2.467,0 -0.671,0 -0.555,0.114 -0.562,0.225 0,0.112 -0.226,0.225 -0.221,0.112 -0.112,0.225 -0.225,0.56 -0.112,0.674 0,1.005 0,27.462 0,0.786 0,0.556 0.221,1.121 0.337,0.892 0.338,0.342 0.112,0.445 0.337,0.338 0.337,0.112 0.559,0.45 0.447,0.224 0.337,0.109 0.899,0.112 0,1.346 -17.486,0 0,-1.346 0.899,-0.112 0.779,-0.333 0.453,-0.226 0.222,-0.225 0.334,-0.225 0.228,-0.338 0.222,-0.333 0.225,-0.342 0.113,-0.442 0.222,-0.449 0.112,-0.559 0,-0.562 0.111,-0.556 0,-0.786 0,-27.462 -10e-4,0 z"
   style="fill-rule:evenodd"
   id="path15" />
	<path
   d="m 480.829,56.396 0,0 1.795,0.112 0.784,0 0.896,0.109 1.571,0.227 1.232,0.11 1.23,0.337 1.012,0.337 1.232,0.338 0.449,0.108 0.223,-0.108 0.111,-0.113 0.114,-0.113 0.108,-0.56 0.112,-0.227 0.116,-0.11 1.009,-0.336 3.25,10.201 -1.233,0.447 -0.9,-0.897 -0.446,-0.56 -0.67,-0.449 -0.562,-0.445 -0.675,-0.562 -0.784,-0.336 -0.783,-0.448 -0.783,-0.449 -0.899,-0.225 -1.004,-0.45 -1.014,-0.225 -1.229,-0.222 -1.008,-0.111 -1.35,-0.115 -1.229,-0.108 -0.675,0 -0.671,0.108 -1.343,0.115 -1.569,0.333 -0.671,0.114 -0.676,0.334 -0.558,0.339 -0.338,0.112 -0.337,0.112 -0.45,0.447 -0.221,0.226 -0.338,0.224 -0.221,0.562 -0.338,0.67 -0.226,0.672 0,0.336 0,0.337 0,0.784 0.335,0.786 0.337,0.559 0.112,0.226 0.338,0.222 0.333,0.337 0.225,0.224 0.788,0.447 0.783,0.45 0.896,0.334 1.009,0.337 1.012,0.45 2.129,0.563 2.351,0.671 2.466,0.671 2.464,0.787 1.346,0.449 1.235,0.442 1.006,0.562 1.125,0.563 1.116,0.67 0.896,0.9 1.012,0.78 0.784,0.896 0.674,0.898 0.335,0.675 0.221,0.446 0.562,1.23 0.112,0.671 0.112,0.566 0.225,0.671 0.108,0.786 0,0.668 0,0.784 0,1.458 -0.108,0.787 -0.225,0.671 -0.112,0.671 -0.226,0.562 -0.559,1.343 -0.674,1.24 -0.335,0.556 -0.448,0.448 -0.447,0.56 -0.562,0.338 -0.45,0.559 -0.67,0.45 -1.122,0.783 -0.671,0.449 -0.787,0.337 -1.566,0.672 -0.788,0.225 -0.783,0.226 -1.9,0.559 -0.9,0 -1.007,0.225 -2.018,0.228 -2.133,0 -1.788,0 -1.57,-0.119 -1.571,-0.221 -1.457,-0.112 -1.456,-0.226 -1.346,-0.333 -2.466,-0.671 -0.45,0 -0.222,0 -0.222,0.108 -0.115,0.112 -0.112,0.112 -0.111,0.226 -0.222,0.445 -0.113,0.226 -0.111,0 -0.451,0.225 -0.558,0.108 -4.6,-12.438 1.349,-0.446 0.784,0.783 0.67,0.784 0.676,0.671 0.783,0.787 0.896,0.674 0.897,0.671 1.008,0.56 1.012,0.557 1.121,0.564 1.005,0.449 1.237,0.446 1.229,0.337 1.346,0.226 1.347,0.224 1.454,0.222 1.458,0 1.346,0 1.12,-0.107 1.122,-0.227 1.008,-0.226 0.896,-0.224 0.784,-0.334 0.562,-0.337 0.56,-0.337 0.336,-0.226 0.225,-0.333 0.335,-0.338 0.337,-0.562 0.338,-0.447 0.225,-0.558 0,-0.453 0.112,-0.555 0,-0.562 0,-0.451 -0.112,-0.446 0,-0.337 -0.112,-0.449 -0.45,-0.671 -0.337,-0.675 -0.335,-0.334 -0.333,-0.337 -0.675,-0.45 -0.787,-0.447 -0.893,-0.336 -0.896,-0.446 -1.011,-0.337 -2.126,-0.563 -2.354,-0.784 -2.357,-0.557 -2.354,-0.787 -1.229,-0.446 -1.233,-0.45 -1.012,-0.562 -1.118,-0.446 -1.012,-0.672 -0.893,-0.67 -0.896,-0.788 -0.787,-0.895 -0.337,-0.45 -0.337,-0.45 -0.559,-1.117 -0.56,-1.122 -0.225,-0.556 -0.112,-0.675 0,-0.785 -0.112,-0.675 -0.112,-0.783 0,-0.784 0,-0.673 0.112,-0.786 0.112,-0.67 0.112,-0.675 0.225,-0.673 0.222,-0.557 0.338,-0.674 0.333,-0.563 0.337,-0.559 0.338,-0.451 0.562,-0.561 0.449,-0.559 0.56,-0.449 0.446,-0.447 1.232,-0.896 0.562,-0.337 0.56,-0.333 0.787,-0.341 0.671,-0.333 1.346,-0.559 1.454,-0.449 0.788,-0.222 0.783,-0.226 1.566,-0.227 1.571,-0.109 1.564,-0.113 z"
   style="fill-rule:evenodd"
   id="path17" />
	<path
   d="m 686.045,93.046 0,0 0,0.786 0,0.668 0.112,0.562 0.112,0.447 0.225,0.449 0.338,0.559 0.108,0.338 0.333,0.333 0.342,0.338 0.222,0.225 0.446,0.225 0.337,0.225 0.785,0.222 0.673,0.112 0,1.346 -17.708,0 0,-1.346 0.672,-0.112 0.337,0 0.45,-0.222 0.562,-0.449 0.335,-0.225 0.337,-0.338 0.446,-0.671 0.225,-0.559 0.225,-0.449 0.114,-1.009 0.111,-0.668 0,-0.786 0,-20.4 -15.584,28.021 -0.895,0 -16.25,-28.804 0,21.183 0,0.786 0,0.667 0.224,0.562 0.113,0.447 0.221,0.449 0.337,0.559 0.112,0.338 0.338,0.333 0.337,0.338 0.226,0.225 0.446,0.225 0.337,0.225 0.783,0.222 0.671,0.112 0,1.346 -13.671,0 0,-1.346 0.676,-0.112 0.441,0 0.337,-0.222 0.675,-0.449 0.226,-0.225 0.338,-0.338 0.449,-0.671 0.222,-0.559 0.221,-0.449 0.229,-1.009 0.108,-0.668 0,-0.786 0,-29.142 0,-0.671 0,-0.338 -0.108,-0.339 -0.116,-0.67 0,-0.334 -0.112,-0.34 -0.221,-0.446 -0.222,-0.448 -0.116,-0.337 -0.333,-0.337 -0.338,-0.224 -0.226,-0.225 -0.337,-0.221 -0.338,-0.226 -0.337,-0.115 -0.441,-0.112 -0.676,0 0,-1.34 13.896,0 14.458,28.018 15.808,-28.018 11.768,0 0,1.34 -0.786,0 -0.339,0.112 -0.334,0.115 -0.336,0.226 -0.226,0.221 -0.671,0.449 -0.226,0.337 -0.221,0.337 -0.226,0.448 -0.225,0.446 -0.112,0.674 -0.112,0.67 0,0.677 0,0.671 0,29.141 -0.001,0 z"
   style="fill-rule:evenodd"
   id="path19" />
	<path
   d="m 776.941,100.444 0,0 -1.684,0 -29.028,-30.822 0,23.306 0,0.904 0,0.668 0.225,0.562 0.113,0.447 0.221,0.449 0.116,0.559 0.335,0.338 0.336,0.333 0.225,0.226 0.333,0.337 0.338,0.225 0.338,0.225 0.334,0.112 0.336,0.109 0.784,0.112 0,1.346 -13.56,0 0,-1.346 0.672,-0.112 0.337,-0.109 0.334,-0.112 0.787,-0.449 0.226,-0.337 0.225,-0.226 0.559,-0.671 0.112,-0.559 0.225,-0.449 0.333,-1.009 0,-0.668 0,-0.904 0,-29.137 0,-0.672 0,-0.674 -0.111,-0.56 -0.112,-0.557 -0.222,-0.448 -0.112,-0.452 -0.112,-0.337 -0.337,-0.337 -0.222,-0.334 -0.338,-0.225 -0.337,-0.221 -0.334,-0.116 -0.785,-0.337 -0.786,-0.107 0,-1.233 12.218,0 22.416,24.205 0,-17.482 -0.111,-0.671 0,-0.563 -0.11,-0.675 -0.224,-0.559 -0.117,-0.449 -0.112,-0.447 -0.333,-0.337 -0.225,-0.449 -0.229,-0.334 -0.334,-0.113 -0.675,-0.45 -0.334,-0.225 -0.446,-0.112 -0.783,-0.107 0,-1.233 13.559,0 0,1.233 -0.334,0.107 -0.337,0 -0.45,0.112 -0.225,0.225 -0.783,0.45 -0.226,0.113 -0.337,0.334 -0.338,0.449 -0.107,0.337 -0.335,0.447 -0.229,0.449 -0.108,0.559 -0.112,0.675 0,0.563 0,0.671 0,36.539 -0.003,0 z"
   style="fill-rule:evenodd"
   id="path21" />
	<path
   d="m 695.572,99.879 0,0 0,-1.346 0.448,0 0.449,-0.112 0.781,-0.333 0.675,-0.45 0.333,-0.225 0.341,-0.338 0.105,-0.333 0.232,-0.342 0.221,-0.555 0.112,-0.45 0.226,-1.008 0,-0.675 0,-0.785 0,-29.022 0,-0.56 0,-0.674 -0.113,-0.562 -0.225,-0.556 -0.112,-0.449 -0.224,-0.562 -0.223,-0.337 -0.226,-0.333 -0.34,-0.337 -0.334,-0.225 -0.222,-0.224 -0.446,-0.226 -0.678,-0.337 -0.334,0 -0.448,0 0,-1.34 33.507,0 3.254,9.186 -1.121,0.341 -0.562,-0.562 -0.559,-0.562 -0.559,-0.556 -0.562,-0.449 -1.234,-0.786 -0.561,-0.335 -0.671,-0.223 -0.668,-0.226 -0.679,-0.112 -0.669,-0.225 -0.673,-0.114 -0.787,-0.111 -0.893,0 -1.684,-0.113 -8.183,0 -0.896,0.113 -0.449,0 -0.223,0.111 -0.562,0.226 -0.454,0.225 -0.104,0.226 -0.229,0.223 -0.108,0.448 -0.113,0.783 0,0.896 0,9.08 11.096,0 1.455,0 1.236,-0.11 0.896,-0.337 0.338,-0.111 0.335,-0.225 0.561,-0.338 0.221,-0.337 0.229,-0.221 0.221,-0.671 0.221,-0.563 1.121,0 0,11.652 -1.121,0 -0.221,-0.896 -0.116,-0.224 -0.1,-0.336 -0.229,-0.338 -0.221,-0.116 -0.225,-0.333 -0.229,-0.226 -0.442,-0.109 -0.229,-0.111 -0.558,-0.114 -0.447,-0.112 -1.236,-0.111 -1.455,-0.112 -11.096,0 0,11.211 0,0.894 0.113,0.783 0,0.338 0.108,0.221 0.229,0.34 0.104,0.11 0.229,0.115 0.225,0.222 0.562,0.225 0.672,0.111 0.896,0 10.088,0 1.566,0 1.458,-0.111 1.458,-0.337 0.788,-0.109 0.671,-0.226 0.779,-0.221 0.787,-0.34 0.672,-0.338 0.562,-0.446 0.675,-0.45 0.779,-0.671 0.563,-0.562 0.559,-0.668 1.124,0.33 -3.25,9.191 -35.978,0 0,-10e-4 z"
   style="fill-rule:evenodd"
   id="path23" />
	<path
   d="m 797.899,65.583 0,0 -0.112,-1.005 -0.115,-0.674 -0.113,-0.56 -0.334,-0.337 -0.225,-0.336 -0.446,-0.225 -0.558,-0.113 -0.562,0 -2.579,0 -1.009,0.113 -1.008,0 -0.896,0.111 -0.783,0.114 -0.784,0.225 -0.675,0.112 -0.558,0.337 -0.675,0.222 -0.675,0.338 -0.559,0.559 -0.559,0.564 -0.671,0.671 -1.348,1.681 -1.122,-0.447 3.362,-9.75 35.642,0 3.25,9.75 -1.009,0.447 -1.346,-1.681 -0.784,-0.671 -0.562,-0.564 -0.444,-0.559 -0.676,-0.338 -0.561,-0.222 -0.561,-0.337 -0.783,-0.112 -0.671,-0.225 -0.783,-0.114 -0.896,-0.111 -0.899,0 -1.117,-0.113 -2.467,0 -0.671,0 -0.449,0.113 -0.451,0.225 -0.224,0.112 -0.225,0.225 -0.113,0.112 -0.112,0.225 -0.108,0.56 -0.229,0.674 0,1.005 0,27.462 0,0.786 0.115,0.556 0.222,1.121 0.112,0.449 0.113,0.442 0.225,0.342 0.333,0.445 0.225,0.338 0.226,0.112 0.674,0.45 0.446,0.224 0.447,0.109 0.788,0.112 0,1.346 -17.706,0 0,-1.346 0.896,-0.112 0.896,-0.333 0.338,-0.226 0.333,-0.225 0.225,-0.225 0.338,-0.338 0.225,-0.333 0.108,-0.342 0.226,-0.442 0.108,-0.449 0.113,-0.559 0.115,-0.562 0,-0.556 0.112,-0.786 0,-27.461 0,0 z"
   style="fill-rule:evenodd"
   id="path25" />
	<path
   d="m 843.175,56.396 0,0 1.791,0.112 0.788,0 0.783,0.109 1.57,0.227 1.345,0.11 1.12,0.337 1.01,0.337 1.234,0.338 0.448,0.108 0.224,-0.108 0.111,-0.113 0.111,0 0.113,-0.113 0.108,-0.56 0,-0.227 0.116,-0.11 1.122,-0.336 3.137,10.201 -1.233,0.447 -0.899,-0.897 -0.447,-0.56 -0.557,-0.449 -0.672,-0.445 -0.675,-0.562 -0.669,-0.336 -0.786,-0.448 -0.899,-0.449 -0.897,-0.225 -1.007,-0.45 -1.009,-0.225 -1.12,-0.222 -1.124,-0.111 -1.114,-0.115 -1.345,-0.108 -0.679,0 -0.672,0.108 -1.454,0.115 -1.458,0.333 -0.783,0.114 -0.56,0.334 -0.674,0.339 -0.336,0.112 -0.335,0.112 -0.451,0.447 -0.224,0.226 -0.225,0.224 -0.334,0.562 -0.338,0.67 -0.225,0.672 0,0.336 0,0.337 0.108,0.784 0.229,0.786 0.338,0.559 0.222,0.226 0.225,0.222 0.337,0.337 0.338,0.224 0.783,0.447 0.783,0.45 0.896,0.334 0.896,0.337 1.008,0.45 2.354,0.563 2.242,0.671 2.47,0.671 2.459,0.787 1.237,0.449 1.232,0.442 1.005,0.562 1.237,0.563 1.009,0.67 1.008,0.9 0.896,0.78 0.784,0.896 0.671,0.898 0.336,0.675 0.226,0.446 0.562,1.23 0.221,0.671 0.112,0.566 0.112,0.671 0.113,0.786 0,0.668 0.111,0.784 -0.111,1.458 -0.113,0.787 -0.112,0.671 -0.112,0.671 -0.217,0.563 -0.671,1.343 -0.566,1.24 -0.334,0.556 -0.562,0.448 -0.334,0.56 -0.562,0.338 -0.562,0.559 -0.554,0.45 -1.238,0.783 -0.671,0.449 -0.675,0.337 -1.566,0.672 -0.893,0.225 -0.787,0.226 -1.792,0.559 -1.012,0 -0.897,0.225 -1.903,0.228 -2.244,0 -1.789,0 -1.682,-0.119 -1.572,-0.221 -1.457,-0.112 -1.459,-0.226 -1.228,-0.333 -2.581,-0.671 -0.335,0 -0.339,0 -0.109,0.108 -0.225,0.112 -0.108,0.112 -0.113,0.226 -0.115,0.445 -0.109,0.226 -0.113,0 -0.559,0.225 -0.562,0.108 -4.487,-12.438 1.346,-0.446 0.675,0.783 0.671,0.784 0.675,0.671 0.896,0.787 0.786,0.674 0.896,0.671 1.005,0.56 1.012,0.557 1.118,0.564 1.124,0.449 1.233,0.446 1.233,0.337 1.229,0.226 1.346,0.224 1.571,0.222 1.454,0 1.351,0 1.112,-0.107 1.125,-0.227 0.897,-0.226 0.894,-0.224 0.788,-0.334 0.671,-0.337 0.559,-0.337 0.225,-0.226 0.225,-0.333 0.446,-0.338 0.337,-0.562 0.226,-0.447 0.225,-0.558 0.112,-0.453 0,-0.555 0,-0.562 0,-0.452 0,-0.446 0,-0.337 -0.225,-0.449 -0.338,-0.671 -0.445,-0.675 -0.338,-0.334 -0.334,-0.337 -0.674,-0.45 -0.784,-0.447 -0.787,-0.336 -1.008,-0.446 -1.008,-0.337 -2.015,-0.563 -2.47,-0.784 -2.35,-0.557 -2.354,-0.787 -1.233,-0.446 -1.125,-0.45 -1.117,-0.562 -1.008,-0.446 -1.121,-0.672 -0.898,-0.67 -0.894,-0.788 -0.787,-0.895 -0.221,-0.45 -0.453,-0.45 -0.559,-1.117 -0.45,-1.122 -0.222,-0.556 -0.112,-0.675 -0.112,-0.784 -0.108,-0.675 -0.116,-0.783 0,-0.784 0,-0.673 0.116,-0.786 0.108,-0.67 0.112,-0.675 0.226,-0.673 0.333,-0.557 0.337,-0.674 0.228,-0.563 0.448,-0.559 0.337,-0.451 0.446,-0.561 0.449,-0.559 0.56,-0.449 0.449,-0.447 1.229,-0.896 0.562,-0.337 0.562,-0.333 0.78,-0.341 0.676,-0.333 1.344,-0.559 1.571,-0.449 0.783,-0.222 0.671,-0.226 1.567,-0.227 1.57,-0.109 1.679,-0.114 z"
   style="fill-rule:evenodd"
   id="path27" />
</g>
<g
   id="g29"
   transform="matrix(0.23726957,0,0,0.23726957,-4.111882,-4.248139)">
	<path
   d="m 322.294,98.538 -0.782,-0.446 -0.897,-0.446 -0.674,-0.783 -0.784,-0.676 -0.562,-0.67 -0.333,-0.45 -0.114,-0.337 -0.444,-0.783 -15.695,-36.871 -8.181,0 -10.199,24.878 -6.387,14.68 -1.796,1.796 0.675,1.458 10.646,0 0,-1.233 -0.449,0 -0.336,-0.116 -0.227,0 -0.444,-0.108 -0.336,-0.109 -0.224,-0.229 -0.339,-0.225 -0.333,-0.222 -0.111,-0.451 -0.226,-0.444 -0.111,-0.335 0,-0.562 0,-0.562 0.225,-0.674 0.112,-0.671 2.575,-6.055 17.933,0 2.354,5.721 0.337,0.783 0.11,0.671 0.115,0.786 0,0.447 0,0.334 -0.115,0.116 -0.11,0.444 -0.224,0.451 -0.335,0.222 -0.449,0.453 -0.674,0.218 -0.671,0.116 -0.447,0 0,1.233 18.827,0 0,-1.233 -0.9,-0.116 z m -33.398,-16.584 6.838,-17.595 6.949,17.595 -13.787,0 z"
   style="fill-rule:evenodd"
   id="path31" />
	<path
   d="m 341.574,56.513 0,0 1.906,0 0.782,0.113 0.9,0.111 1.567,0.226 1.233,0.113 1.233,0.333 1.008,0.227 1.233,0.444 0.447,0 0.227,0 0.108,-0.107 0,-0.114 0.114,-0.113 0.112,-0.558 0.11,-0.226 0.111,0 1.012,-0.337 3.249,10.312 -1.232,0.336 -0.9,-0.896 -0.446,-0.448 -0.671,-0.56 -0.56,-0.337 -0.674,-0.563 -0.787,-0.448 -0.784,-0.447 -0.787,-0.334 -0.892,-0.449 -1.012,-0.337 -1.007,-0.225 -1.233,-0.222 -1.008,-0.227 -1.345,-0.11 -1.233,0 -0.674,0 -0.67,0 -1.459,0.225 -1.567,0.334 -0.675,0.112 -0.67,0.225 -0.563,0.449 -0.333,0.11 -0.34,0.116 -0.444,0.447 -0.227,0.334 -0.222,0.111 -0.337,0.678 -0.337,0.559 -0.222,0.67 0,0.448 0,0.337 0,0.786 0.333,0.56 0.337,0.563 0.225,0.333 0.222,0.338 0.336,0.223 0.334,0.224 0.673,0.449 0.787,0.337 0.897,0.447 1.011,0.335 1.006,0.336 2.241,0.674 2.355,0.671 2.465,0.671 2.467,0.898 1.343,0.339 1.233,0.558 1.008,0.559 1.124,0.671 1.122,0.675 1.004,0.562 0.9,0.896 0.783,0.895 0.674,1.009 0.335,0.45 0.222,0.671 0.561,1.119 0.115,0.676 0.11,0.668 0.226,0.675 0.112,0.674 0,0.896 0,0.785 0,1.346 -0.112,0.673 -0.226,0.78 -0.11,0.562 -0.115,0.677 -0.671,1.345 -0.674,1.118 -0.334,0.558 -0.447,0.562 -0.449,0.562 -0.562,0.449 -0.448,0.556 -0.671,0.342 -1.122,0.892 -0.671,0.453 -0.784,0.218 -1.567,0.678 -0.786,0.109 -0.785,0.34 -1.794,0.447 -1.009,0.113 -1.008,0.107 -2.016,0.229 -2.243,0.104 -1.794,0 -1.57,-0.104 -1.567,-0.229 -1.458,-0.107 -1.456,-0.338 -1.345,-0.223 -2.466,-0.675 -0.338,0 -0.333,0 -0.112,0 -0.226,0.226 -0.112,0.109 -0.112,0.228 -0.224,0.446 -0.11,0.113 0,0.113 -0.561,0.107 -0.56,0.229 -4.482,-12.333 1.345,-0.559 0.784,0.783 0.67,0.787 0.671,0.667 0.788,0.674 0.784,0.677 0.895,0.783 1.011,0.561 1.006,0.561 1.124,0.558 1.006,0.45 1.235,0.446 1.34,0.225 1.236,0.338 1.345,0.225 1.457,0.112 1.457,0.112 1.458,-0.112 1.122,-0.112 1.12,-0.113 1.009,-0.225 0.897,-0.225 0.782,-0.338 0.561,-0.445 0.562,-0.338 0.333,-0.221 0.226,-0.223 0.337,-0.34 0.336,-0.559 0.337,-0.446 0.222,-0.565 0,-0.561 0.111,-0.449 0,-0.558 0,-0.447 -0.111,-0.448 0,-0.45 -0.116,-0.225 -0.333,-0.783 -0.447,-0.676 -0.337,-0.218 -0.333,-0.341 -0.675,-0.446 -0.785,-0.562 -0.898,-0.337 -0.892,-0.45 -1.012,-0.446 -2.129,-0.671 -2.467,-0.562 -2.351,-0.559 -2.358,-0.896 -1.233,-0.337 -1.118,-0.562 -1.124,-0.443 -1.118,-0.565 -1.008,-0.671 -0.451,-0.333 -0.449,-0.338 -0.896,-0.675 -0.671,-0.896 -0.337,-0.56 -0.337,-0.449 -0.563,-1.009 -0.556,-1.233 -0.225,-0.674 -0.112,-0.556 0,-0.674 -0.112,-0.787 -0.114,-0.784 0,-0.781 0,-0.786 0.114,-0.675 0.112,-0.67 0.112,-0.563 0.225,-0.67 0.222,-0.559 0.333,-0.784 0.337,-0.449 0.341,-0.559 0.334,-0.675 0.449,-0.449 0.447,-0.562 0.56,-0.444 0.449,-0.561 1.233,-0.784 0.562,-0.337 0.559,-0.45 0.786,-0.225 0.67,-0.334 1.344,-0.562 1.567,-0.56 0.673,-0.224 0.787,-0.113 1.571,-0.226 1.57,-0.224 1.572,0 0,0.002 z"
   style="fill-rule:evenodd"
   id="path33" />
	<path
   d="m 191.278,99.888 0,0 0,-1.233 0.447,-0.116 0.45,0 0.784,-0.334 0.561,-0.445 0.336,-0.226 0.336,-0.339 0.112,-0.444 0.222,-0.335 0.227,-0.449 0.11,-0.449 0.226,-1.233 0.111,-0.562 0,-0.783 0,-29.028 0,-0.786 -0.111,-0.56 -0.226,-1.232 -0.337,-0.896 -0.222,-0.337 -0.222,-0.333 -0.227,-0.337 -0.336,-0.226 -0.224,-0.224 -0.45,-0.225 -0.333,-0.111 -0.45,-0.223 -0.784,0 0,-1.345 33.397,0 3.254,9.187 -1.125,0.451 -0.445,-0.561 -0.673,-0.561 -0.561,-0.559 -0.45,-0.451 -1.23,-0.783 -0.67,-0.337 -0.678,-0.337 -0.671,-0.221 -0.671,-0.112 -0.674,-0.226 -0.67,-0.111 -0.784,-0.113 -0.787,-0.112 -1.569,0 -8.294,0 -0.893,0 -0.341,0.112 -0.336,0 -0.559,0.225 -0.334,0.338 -0.225,0.221 -0.112,0.226 -0.225,0.561 -0.112,0.785 -0.11,0.786 0,9.188 11.319,0 1.345,-0.111 0.447,0 0.674,-0.113 0.897,-0.225 0.335,-0.108 0.451,-0.226 0.221,-0.227 0.226,-0.11 0.224,-0.337 0.225,-0.337 0.222,-0.559 0.227,-0.786 1.233,0 0,11.766 -1.233,0 -0.227,-0.783 0,-0.338 -0.222,-0.334 -0.114,-0.226 -0.335,-0.336 -0.226,-0.226 -0.221,-0.225 -0.34,-0.112 -0.335,-0.112 -0.558,-0.112 -0.45,-0.112 -1.121,-0.113 -1.345,-0.108 -11.319,0 0,11.205 0.11,1.012 0.112,0.784 0.115,0.221 0.11,0.337 0.112,0.226 0.225,0.112 0.112,0.225 0.222,0.221 0.559,0.113 0.678,0.225 0.893,0 9.977,0 1.567,0 1.572,-0.225 1.457,-0.222 0.669,-0.225 0.671,-0.112 0.899,-0.226 0.671,-0.333 0.674,-0.337 0.671,-0.451 0.562,-0.446 0.787,-0.67 0.559,-0.566 0.67,-0.672 1.011,0.225 -3.251,9.306 -35.866,0 0,-0.002 z"
   style="fill-rule:evenodd"
   id="path35" />
	<path
   d="m 179.621,93.05 0,0 0,0.783 0,0.671 0.112,0.562 0.225,0.562 0.226,0.449 0.222,0.556 0.111,0.342 0.34,0.337 0.223,0.333 0.334,0.222 0.225,0.225 0.446,0.229 0.787,0.218 0.338,0.116 0.445,0 0,1.233 -18.718,0 0,-1.233 0.787,-0.116 0.335,-0.108 0.337,-0.109 0.449,-0.229 0.222,-0.225 0.337,-0.222 0.337,-0.333 0.333,-0.679 0.226,-0.556 0.223,-0.449 0.115,-0.562 0,-0.562 0.111,-0.671 0,-0.784 0,-41.355 -0.111,-0.896 0,-0.561 -0.226,-0.222 -0.112,-0.226 -0.226,0 -0.333,-0.115 -0.113,-0.11 -0.334,-0.112 -0.675,-0.111 -1.906,0 -3.247,0 -1.458,0 -1.345,0.111 -2.352,0.222 -1.123,0.115 -1.009,0.112 -0.895,0.221 -0.785,0.337 -0.784,0.338 -0.674,0.337 -0.672,0.447 -0.337,0.224 -0.336,0.335 -0.337,0.223 -0.333,0.338 -0.561,0.674 -1.122,-0.564 3.365,-9.86 46.846,0 3.362,9.86 -1.119,0.564 -0.226,-0.337 -0.336,-0.337 -0.559,-0.561 -0.784,-0.559 -0.224,-0.223 -0.45,-0.225 -0.338,-0.227 -0.334,-0.11 -0.782,-0.338 -0.788,-0.337 -0.892,-0.221 -2.02,-0.227 -2.465,-0.222 -1.23,-0.111 -1.571,0 -3.14,0 -1.905,0 -0.67,0.111 -0.562,0.222 -0.111,0.115 -0.222,0 -0.226,0.226 -0.111,0.222 -0.226,0.561 0,0.445 0,0.451 0,41.356 -0.004,0 z"
   style="fill-rule:evenodd"
   id="path37" />
	<path
   d="m 259.196,77.358 0,0 -9.526,2.24 -12.442,-15.798 -0.783,-1.118 -0.785,-0.901 -0.674,-0.785 -0.783,-0.559 -0.675,-0.562 -0.337,-0.109 -0.336,-0.226 -0.896,-0.337 -0.561,-0.111 -0.448,0 0,-1.233 20.061,0 0,1.233 -0.447,0 -0.224,0 -0.447,0.225 -0.337,0.113 -0.226,0.225 -0.224,0.222 -0.335,0.224 -0.111,0.337 -0.114,0.336 0,0.337 -0.112,0.444 0.112,0.453 0,0.447 0.225,0.561 0.335,0.447 0.337,0.56 5.938,8.294 6.949,-9.075 0.561,-0.787 0.225,-0.784 0.111,-0.337 0.111,-0.337 -0.111,-0.337 0,-0.222 -0.111,-0.337 -0.111,-0.224 -0.226,-0.222 -0.337,-0.225 -0.337,-0.113 -0.224,-0.225 -0.447,0 -0.334,0 0,-1.233 15.915,0 0,1.233 -0.894,0.111 -0.897,0.226 -0.898,0.446 -0.894,0.335 -0.899,0.562 -1.008,0.673 -0.337,0.561 -0.559,0.447 -0.336,0.561 -0.56,0.56 -10.537,13.784 0,0 z"
   style="fill-rule:evenodd"
   id="path39" />
	<path
   d="m 260.208,76.796 0,0 2.8,4.487 1.23,2.24 1.345,1.901 1.233,2.021 1.459,2.019 1.566,2.239 1.683,2.354 0.896,1.232 0.449,0.449 0.226,0.446 1.343,1.126 2.465,2.24 0,0.112 -0.224,0.11 -0.226,0.112 -18.265,0 0,-1.233 0.561,0 0.67,-0.116 0.337,-0.218 0.335,-0.229 0.227,-0.225 0.337,-0.108 0.222,-0.446 0.112,-0.337 0.11,-0.342 0,-0.447 -0.11,-0.558 -0.227,-0.562 -0.333,-0.562 -0.447,-0.783 -6.613,-9.075 -7.512,9.858 -0.224,0.562 -0.336,0.45 -0.223,0.449 -0.114,0.334 0,0.45 0,0.226 0.114,0.445 0.111,0.225 0.111,0.222 0.222,0.225 0.45,0.338 0.337,0.225 0.337,0 0.672,0 0,1.233 -16.253,0 0,-1.233 0.449,0 0.449,-0.116 0.896,-0.334 1.012,-0.445 1.006,-0.671 1.012,-0.673 1.007,-0.898 1.007,-1.013 0.897,-1.004 10.871,-14.233 10.541,-2.469 z"
   style="fill-rule:evenodd"
   id="path41" />
</g>
</svg>