<?xml version="1.0" encoding="UTF-8" standalone="no"?>
<svg xmlns:rdf="http://www.w3.org/1999/02/22-rdf-syntax-ns#" xmlns="http://www.w3.org/2000/svg" height="34.02106" width="59.55907" version="1.1" xmlns:cc="http://creativecommons.org/ns#" xmlns:dc="http://purl.org/dc/elements/1.1/" viewBox="0 0 59.55907 34.02106"><path d="M29.1401,14.446h-.004l-.088-.001a12.66848,12.66848,0,0,1-6.754-1.733,12.654,12.654,0,0,1,6.759-1.737l.088-.001h.004l.088.001a12.66825,12.66825,0,0,1,6.754,1.733,12.65542,12.65542,0,0,1-6.76,1.737m13.50305-1.736c4.727-2.079,7.813-5.202,7.981-8.666a22.57411,22.57411,0,0,0-5.276-2.443,29.39489,29.39489,0,0,0-6.237-1.6l.012,7.719a5.2923,5.2923,0,0,1-1.337,3.373,37.35953,37.35953,0,0,0-8.729-1.009h-.002a37.38719,37.38719,0,0,0-8.738,1.011,5.29452,5.29452,0,0,1-1.339-3.375L19.07812,0a29.39475,29.39475,0,0,0-6.238,1.6,22.54421,22.54421,0,0,0-5.275,2.443c.167,3.466,3.256,6.589,7.986,8.669-4.727,2.079-7.813,5.201-7.981,8.665a22.5779,22.5779,0,0,0,5.275,2.443,29.45507,29.45507,0,0,0,6.238,1.601l-.012-7.72a5.29168,5.29168,0,0,1,1.337-3.37195,37.36194,37.36194,0,0,0,8.728,1.008h.00305a37.38814,37.38814,0,0,0,8.738-1.01,5.29192,5.29192,0,0,1,1.339,3.374l-.013,7.72a29.45554,29.45554,0,0,0,6.238-1.601,22.54672,22.54672,0,0,0,5.275-2.443c-.167-3.465-3.256-6.589-7.986-8.668"/><path d="M1.37909,33.972A1.24682,1.24682,0,0,1,.00006,32.54V30.659c0-.114-.01-.266.232-.266h.701c.228,0,.214.161.214.266V32.54a.45221.45221,0,0,0,.516.494h1.176a.45407.45407,0,0,0,.512-.494V30.659c0-.105-.015-.266.213-.266h.706c.256,0,.233.161.233.266V32.54a1.24913,1.24913,0,0,1-1.385,1.43195"/><path d="M7.8721,33.745c-.479-.645-1.161-1.455-1.858-2.313v2.289c0,.099.024.251-.213.251h-.654c-.238,0-.209-.152-.209-.251V30.659c0-.10394-.009-.265.209-.265h1.274c.361,0,.873.725,1.209,1.204.261.364.74.914,1.062,1.327V30.659c0-.10394-.014-.265.223-.265h.711c.227,0,.213.161.213.265v3.313h-1.308a.71637.71637,0,0,1-.659-.22705"/><path d="M10.27008,33.972V30.399h3.157a1.31734,1.31734,0,0,1,1.488,1.336c0,1.389.152,2.237-1.46,2.237h-1.701l-.37-.749v.749m1.877-.94305c.574,0,.531-.55.531-.801,0-.844-.237-.877-.616-.877h-1.801v1.678Z"/><path d="M16.15109,30.422h2.91c.247,0,.213.161.213.46,0,.279.038.436-.213.436h-2.299c-.061,0-.27-.034-.27.184s-.043.304.19.304h2.033s.294.559.327.654c.048.085.043.166-.137.166h-2.105l-.327-.635v.938c0,.218.195.176.251.176h2.389c.237,0,.218.165.218.436,0,.289.019.45-.218.45h-3.024c-.251,0-.744-.076-.744-.863V31.156a.72587.72587,0,0,1,.806-.734"/><path d="M20.06106,30.398h3.185c.427,0,1.048-.005,1.048,1.147,0,.754-.161.792-.503,1.024.574.099.498.834.498,1.213,0,.194-.071.19-.128.19h-.934c-.194,0-.147-.308-.147-.47,0-.44-.246-.422-.341-.422H21.365c-.133-.227-.389-.739-.389-.739v1.484c0,.12805-.128.147-.175.147h-.939c.052,0-.094.009-.094-.119v-3.147a.28337.28337,0,0,1,.293-.308m2.536.943H21.18c-.237,0-.228.08105-.228.152v.64h1.46c.707,0,.707-.176.707-.36,0-.37-.029-.432-.522-.432"/><path d="M29.77707,30.422c.232,0,.46.104.706.582.166.342,1.323,2.432,1.565,2.868v.119h-1.204l-.346-.626H29.033s-.246-.564-.317-.72095c-.091.147-.574,1.067-.74005,1.347H26.76809v-.076c.246-.465,1.929-3.493,1.929-3.493m.701.99c-.052.09-.55.99005-.588,1.071-.023.038,0,.053.052.053h1.095c.062,0,.076-.015.057-.053-.038-.081-.512-.981-.559-1.076a.03045.03045,0,0,0-.05695.00494"/><path d="M32.66909,30.398h3.185c.427,0,1.048-.005,1.048,1.147,0,.754-.161.792-.503,1.024.574.099.498.834.498,1.213,0,.194-.071.19-.128.19h-.934c-.194,0-.147-.308-.147-.47,0-.44-.246-.422-.341-.422H33.973c-.133-.227-.389-.739-.389-.739v1.484c0,.12805-.128.147-.175.147h-.939c.052,0-.094.009-.094-.119v-3.147a.28337.28337,0,0,1,.293-.308m2.536.943H33.78805c-.237,0-.228.08105-.228.152v.64h1.46c.70605,0,.70605-.176.70605-.36,0-.37-.028-.432-.521-.432"/><path d="M39.68411,33.972c-.23706-.446-.89606-1.673-1.341-2.47894v2.228c0,.099.014.251-.213.251h-.645c-.242,0-.223-.152-.223-.251V30.659c0-.105-.014-.261.223-.261h1.114c.166,0,.403-.038.668.493.199.427.621,1.308.91,1.777a19.37849,19.37849,0,0,0,.929-1.777c.261-.531.493-.493.678-.493h1.109c.228,0,.204.156.204.261v3.062c0,.099.033.251-.204.251h-.649c-.237,0-.21906-.152-.21906-.251V31.493c-.45.806-1.10394,2.033-1.35,2.47894"/><path d="M44.528,33.98206c-1.057,0-1.01-1.133-1.01-1.868,0-.673-.076-1.725,1.247-1.73395h2.346c1.327,0,1.241,1.066,1.241,1.73395,0,.735.053,1.868-1.019,1.868m-.68195-.92c.53595,0,.517-.554.517-.924,0-.332.075-.854-.621-.854H45.367c-.693,0-.612.522-.612.854,0,.37-.033.924.50305.924Z"/><path d="M50.11911,33.972a1.24732,1.24732,0,0,1-1.379-1.43195V30.659c0-.114-.01-.266.232-.266h.702c.227,0,.213.161.213.266V32.54a.4531.4531,0,0,0,.517.494h1.175a.45408.45408,0,0,0,.512-.494V30.659c0-.105-.014-.266.213-.266h.706c.256,0,.233.161.233.266V32.54a1.2488,1.2488,0,0,1-1.384,1.43195"/><path d="M53.99606,30.398h3.185c.427,0,1.048-.005,1.048,1.147,0,.754-.161.792-.502,1.024.573.099.497.834.497,1.213,0,.194-.071.19-.128.19h-.934c-.194,0-.146-.308-.146-.47,0-.44-.24695-.422-.342-.422H55.3c-.133-.227-.389-.739-.389-.739v1.484c0,.12805-.128.147-.176.147h-.938c.052,0-.095.009-.095-.119v-3.147a.28407.28407,0,0,1,.294-.308m2.536.943H55.115c-.237,0-.228.08105-.228.152v.64h1.46c.707,0,.707-.176.707-.36,0-.37-.029-.432-.522-.432"/><path d="M58.53109,33.54706a.47338.47338,0,0,1,.462-.458.45723.45723,0,0,1,.466.458.47822.47822,0,0,1-.477.474.46335.46335,0,0,1-.451-.474m.462.35895a.35312.35312,0,1,0-.011-.706.3632.3632,0,0,0-.352.347.3564.3564,0,0,0,.363.35895m-.181-.137v-.399c0-.059.007-.074.063-.074h.203a.14721.14721,0,0,1,.148.155c0,.082-.037.144-.118.144.026.049.062.119.088.163.037.067-.062.081-.077.067-.059-.085-.096-.159-.137-.219h-.07v.178c0,.048-.041.052-.063.052-.037,0-.037-.037-.037-.067m.096-.277h.129c.067,0,.078-.019.078-.048v-.008c0-.037-.011-.059-.078-.059h-.129Z"/></svg>