<?xml version="1.0" encoding="utf-8"?>
<!-- Generator: Adobe Illustrator 12.0.0, SVG Export Plug-In . SVG Version: 6.00 Build 51448)  -->
<!DOCTYPE svg PUBLIC "-//W3C//DTD SVG 1.1//EN" "http://www.w3.org/Graphics/SVG/1.1/DTD/svg11.dtd" [
	<!ENTITY ns_svg "http://www.w3.org/2000/svg">
	<!ENTITY ns_xlink "http://www.w3.org/1999/xlink">
]>
<svg  version="1.1" id="Layer_1" xmlns="&ns_svg;" xmlns:xlink="&ns_xlink;" width="487.406" height="561.262"
	 viewBox="0 0 487.406 561.262" overflow="visible" enable-background="new 0 0 487.406 561.262" xml:space="preserve">
<g>
	<path fill-rule="evenodd" clip-rule="evenodd" fill="#FFFFFF" d="M316.096,524.424c-55.427,3.721-72.267,36.838-72.267,36.838
		s-16.718-36.838-72.268-36.838c-31.556,0-74.213-5.801-115.361-40.799C21.974,454.516,0,411.11,0,362.465
		c0-40.213,12.598-72.369,23.613-99.132c5.203-12.637,10.441-24.81,14.342-37.121c3.63-11.452,5.725-22.008,5.725-32.64
		c0-21.164-8.612-40.232-22.595-54.041l-16.34-16.137L120.406,0l16.077,8.944c31.733,17.656,68.287,27.741,107.232,27.741
		c38.941,0,75.475-10.085,107.209-27.741L367.002,0L482.66,123.396l-16.339,16.137c-13.983,13.809-22.594,32.877-22.594,54.041
		c0,10.632,2.092,21.188,5.725,32.64c3.899,12.311,9.138,24.483,14.341,37.121c11.016,26.763,23.613,58.919,23.613,99.132
		c0,48.645-21.973,92.051-56.2,121.16C390.059,518.624,347.587,522.309,316.096,524.424L316.096,524.424z"/>
	<path fill-rule="evenodd" clip-rule="evenodd" fill="#00529B" d="M243.715,60.256c-43.066,0-83.552-11.164-118.692-30.713
		L37.646,122.76c18.28,18.051,29.604,43.085,29.604,70.813c0,55.166-43.68,98.492-43.68,168.892
		c0,41.379,18.664,78.34,47.902,103.207c69.916,59.461,143.795,13.734,172.22,62.262c28.422-48.527,102.327-2.801,172.241-62.262
		c29.238-24.867,47.903-61.828,47.903-103.207c0-70.4-43.682-113.726-43.682-168.892c0-27.728,11.326-52.762,29.604-70.813
		l-87.375-93.217C327.243,49.093,286.781,60.256,243.715,60.256L243.715,60.256z"/>
	<path fill-rule="evenodd" clip-rule="evenodd" fill="#EF3E42" d="M58.767,444.842c-18.473-22.424-29.65-51.088-29.65-82.377
		c0-34.025,10.526-61.576,21.423-88.047c2.804-6.813,5.604-13.503,8.227-20.149l0.001,190.538L58.767,444.842L58.767,444.842z"/>
	<path fill-rule="evenodd" clip-rule="evenodd" fill="#EF3E42" d="M92.396,473.875V254.269h33.697v234.255
		C114.908,485.448,103.743,480.831,92.396,473.875L92.396,473.875z"/>
	<path fill-rule="evenodd" clip-rule="evenodd" fill="#EF3E42" d="M159.652,494.471V254.269h33.656v242.558
		c-6.294-0.598-12.918-0.996-19.794-1.459C169.021,495.069,164.292,494.905,159.652,494.471L159.652,494.471z"/>
	<path fill-rule="evenodd" clip-rule="evenodd" fill="#EF3E42" d="M428.619,444.842c18.472-22.424,29.648-51.088,29.648-82.377
		c0-34.025-10.526-61.576-21.422-88.047c-2.804-6.813-5.604-13.503-8.227-20.149l-0.003,190.538L428.619,444.842L428.619,444.842z"
		/>
	<path fill-rule="evenodd" clip-rule="evenodd" fill="#EF3E42" d="M394.989,473.875V254.269h-33.697v234.255
		C372.478,485.448,383.643,480.831,394.989,473.875L394.989,473.875z"/>
	<path fill-rule="evenodd" clip-rule="evenodd" fill="#EF3E42" d="M327.735,494.471V254.269h-33.659v242.558
		c6.296-0.598,12.92-0.996,19.796-1.459C318.363,495.069,323.095,494.905,327.735,494.471L327.735,494.471z"/>
	<path fill-rule="evenodd" clip-rule="evenodd" fill="#EF3E42" d="M243.693,518.202c-4.783-5.889-10.408-10.143-16.648-13.242
		v-250.69h33.293v250.69C254.101,508.059,248.476,512.313,243.693,518.202L243.693,518.202z"/>
	<path fill-rule="evenodd" clip-rule="evenodd" fill="#FFFFFF" d="M92.396,473.922c-5.725-3.51-11.632-7.629-17.332-12.475
		c-5.953-5.068-11.451-10.652-16.417-16.688l0.12,0.047l-0.001-190.538h33.63V473.922L92.396,473.922z"/>
	<path fill-rule="evenodd" clip-rule="evenodd" fill="#FFFFFF" d="M159.652,494.301c-10.903-1.02-22.11-2.613-33.558-5.76V254.269
		h33.558V494.301L159.652,494.301z"/>
	<path fill-rule="evenodd" clip-rule="evenodd" fill="#FFFFFF" d="M193.308,496.827V254.269h33.737v250.667
		c-3.451-1.711-7.094-3.076-10.884-4.172c-6.303-1.816-13.146-2.924-20.432-3.691L193.308,496.827L193.308,496.827z"/>
	<path fill-rule="evenodd" clip-rule="evenodd" fill="#FFFFFF" d="M394.989,473.922c5.725-3.51,11.631-7.629,17.332-12.475
		c5.953-5.068,11.449-10.652,16.415-16.688l-0.12,0.047l0.003-190.538h-33.63V473.922L394.989,473.922z"/>
	<path fill-rule="evenodd" clip-rule="evenodd" fill="#FFFFFF" d="M327.735,494.301c10.901-1.02,22.107-2.613,33.557-5.76V254.269
		h-33.557V494.301L327.735,494.301z"/>
	<path fill-rule="evenodd" clip-rule="evenodd" fill="#FFFFFF" d="M294.076,496.827V254.269h-33.738v250.667
		c3.454-1.711,7.096-3.076,10.887-4.172c6.302-1.816,13.146-2.924,20.432-3.691L294.076,496.827L294.076,496.827z"/>
	<polygon fill-rule="evenodd" clip-rule="evenodd" fill="#FFFFFF" points="333.571,167.78 318.325,167.78 318.325,219.615 
		333.571,219.615 333.571,167.78 	"/>
	<polygon fill-rule="evenodd" clip-rule="evenodd" fill="#FFFFFF" points="308.578,179.386 308.578,167.783 273.343,167.783 
		273.343,219.618 288.703,219.618 288.703,201.571 308.578,201.571 308.578,189.428 288.703,189.428 288.703,179.386 
		308.578,179.386 	"/>
	<polygon fill-rule="evenodd" clip-rule="evenodd" fill="#FFFFFF" points="262.491,167.78 247.245,167.78 247.245,219.615 
		262.491,219.615 262.491,167.78 	"/>
	<path fill-rule="evenodd" clip-rule="evenodd" fill="#FFFFFF" d="M130.238,167.773c9.674,0,17.448,7.844,17.448,17.518
		c0,9.675-7.843,17.517-17.518,17.517H120.13v16.824h-14.24v-51.858H130.238L130.238,167.773z"/>
	<polygon fill-rule="evenodd" clip-rule="evenodd" fill="#FFFFFF" points="160.833,210.706 157.683,219.633 143.253,219.633 
		161.959,167.773 179.134,167.773 197.842,219.633 183.41,219.633 180.261,210.706 160.833,210.706 	"/>
	<path fill-rule="evenodd" clip-rule="evenodd" fill="#FFFFFF" d="M211.006,194.451c-0.198-7.777,5.522-13.109,12.667-13.288
		c3.582-0.089,8.216,1.783,13.024,3.034v-14.288c-2.306-1.43-8.556-3.218-12.5-3.218c-14.588,0-27.502,11.06-27.502,27.615
		c0,16.554,12.914,27.65,27.502,27.65c3.943,0,10.194-1.789,12.5-3.218V204.45c-4.808,1.251-9.442,3.122-13.024,3.034
		c-7.144-0.179-12.864-5.511-12.667-13.288V194.451L211.006,194.451z"/>
	<path fill-rule="evenodd" clip-rule="evenodd" fill="#FFFFFF" d="M355.825,194.451c-0.196-7.777,5.522-13.109,12.665-13.288
		c3.583-0.089,8.218,1.783,13.025,3.034v-14.288c-2.306-1.43-8.558-3.218-12.498-3.218c-14.59,0-27.504,11.06-27.504,27.615
		c0,16.554,12.914,27.65,27.504,27.65c3.94,0,10.192-1.789,12.498-3.218V204.45c-4.808,1.251-9.442,3.122-13.025,3.034
		c-7.143-0.179-12.861-5.511-12.665-13.288V194.451L355.825,194.451z"/>
	<polygon fill-rule="evenodd" clip-rule="evenodd" fill="#00529B" points="175.917,198.929 170.572,182.306 170.452,182.306 
		165.044,198.929 175.917,198.929 	"/>
	<path fill-rule="evenodd" clip-rule="evenodd" fill="#00529B" d="M120.13,179.333h9.104c3.007,0,5.423,2.439,5.423,5.446
		c0,3.009-2.438,6.243-5.446,6.243h-9.081V179.333L120.13,179.333z"/>
	<polygon fill-rule="evenodd" clip-rule="evenodd" fill="#FFFFFF" points="250.573,95.385 235.329,95.385 235.329,147.221 
		250.573,147.221 250.573,95.385 	"/>
	<path fill-rule="evenodd" clip-rule="evenodd" fill="#FFFFFF" d="M259.4,121.392c0-15.05,12.322-27.248,27.519-27.248
		c15.199,0,27.521,12.198,27.521,27.248c0,15.048-12.322,27.248-27.521,27.248C271.723,148.639,259.4,136.44,259.4,121.392
		L259.4,121.392z"/>
	<polygon fill-rule="evenodd" clip-rule="evenodd" fill="#FFFFFF" points="323.927,147.214 338.602,147.214 338.602,121.094 
		338.739,121.094 356.329,147.221 372.973,147.221 372.973,95.385 357.193,95.385 357.193,122.76 357.056,122.76 339.413,95.385 
		323.927,95.385 323.927,147.214 	"/>
	<polygon fill-rule="evenodd" clip-rule="evenodd" fill="#FFFFFF" points="173.294,147.214 187.967,147.214 187.967,121.094 
		188.105,121.094 205.695,147.221 222.34,147.221 222.34,95.385 206.561,95.385 206.561,122.76 206.423,122.76 188.779,95.385 
		173.294,95.385 173.294,147.214 	"/>
	<path fill-rule="evenodd" clip-rule="evenodd" fill="#00529B" d="M273.949,121.392c0-7.093,5.807-12.842,12.97-12.842
		s12.97,5.75,12.97,12.842s-5.807,12.841-12.97,12.841S273.949,128.484,273.949,121.392L273.949,121.392z"/>
	<path fill-rule="evenodd" clip-rule="evenodd" fill="#FFFFFF" d="M144.965,95.341h15.013v28.868c0,6.605-0.277,13.141-5.468,18.111
		c-4.361,4.22-11.213,5.719-17.304,5.719s-12.943-1.499-17.306-5.719c-5.19-4.97-5.467-11.506-5.467-18.111V95.341h15.013v25.157
		c0,6.674-0.962,13.958,7.759,13.958s7.759-7.285,7.759-13.958V95.341L144.965,95.341z"/>
	<path fill="none" stroke="#00529B" stroke-width="0.648" stroke-miterlimit="2.6131" d="M159.652,494.301
		c-10.903-1.02-22.11-2.631-33.558-5.777c-11.186-3.076-22.351-7.693-33.697-14.648c-5.725-3.51-11.632-7.582-17.332-12.428
		c-5.953-5.068-11.451-10.652-16.417-16.688 M58.648,444.76l0.12,0.047l-0.001,0.035 M58.767,444.842
		c-18.473-22.424-29.65-51.088-29.65-82.377c0-34.025,10.526-61.576,21.423-88.047c2.804-6.813,5.604-13.503,8.227-20.149
		 M58.767,254.269h369.853 M428.619,254.269c2.622,6.646,5.423,13.336,8.227,20.149c10.896,26.471,21.422,54.022,21.422,88.047
		c0,31.289-11.177,59.953-29.648,82.377 M428.619,444.842l-0.003-0.035l0.12-0.047 M428.736,444.76
		c-4.966,6.035-10.462,11.619-16.415,16.688c-5.701,4.846-11.607,8.965-17.332,12.475c-11.347,6.955-22.512,11.525-33.697,14.602
		c-11.449,3.146-22.655,4.758-33.557,5.777c-4.641,0.434-9.372,0.768-13.863,1.066c-6.876,0.463-13.5,0.861-19.796,1.459
		 M294.076,496.827l-2.42,0.293 M291.656,497.12c-7.286,0.768-14.13,1.875-20.432,3.691c-3.791,1.096-7.433,2.455-10.887,4.172
		c-6.237,3.1-11.862,7.33-16.645,13.219c-4.783-5.889-10.408-10.143-16.648-13.242c-3.451-1.717-7.094-3.1-10.884-4.195
		c-6.303-1.816-13.146-2.924-20.432-3.691 M195.729,497.073l-2.421-0.246 M193.308,496.827c-6.294-0.598-12.918-0.996-19.794-1.459
		c-4.493-0.299-9.221-0.633-13.862-1.066"/>
</g>
</svg>
