<?xml version="1.0" encoding="utf-8"?>
<!-- Generator: Adobe Illustrator 13.0.2, SVG Export Plug-In  -->
<!DOCTYPE svg PUBLIC "-//W3C//DTD SVG 1.1//EN" "http://www.w3.org/Graphics/SVG/1.1/DTD/svg11.dtd" [
	<!ENTITY ns_flows "http://ns.adobe.com/Flows/1.0/">
]>
<svg version="1.1"
	 xmlns="http://www.w3.org/2000/svg" xmlns:xlink="http://www.w3.org/1999/xlink" xmlns:a="http://ns.adobe.com/AdobeSVGViewerExtensions/3.0/"
	 x="0px" y="0px" width="145px" height="35px" viewBox="-0.625 -0.323 145 35" enable-background="new -0.625 -0.323 145 35"
	 xml:space="preserve">
<defs>
</defs>
<path fill="#21368C" d="M42.692,1.552h3.391v9.971c-0.003,0.662,0.19,1.13,0.938,1.133c0.649,0.001,0.921-0.389,0.92-1.134v-9.97
	h3.392v9.649c0,2.258-1.131,3.999-4.33,3.999c-2.648,0-4.311-1.262-4.311-3.999V1.552z"/>
<path fill="#21368C" d="M63.061,4.95h3.265v9.952h-3.265V4.95z M63.061,1.573h3.265v2.398h-3.265V1.573z"/>
<path fill="#21368C" d="M67.597,6.995V4.951h0.915V2.107h3.206v2.844h1.351v2.044h-1.351v4.999c0,0.569,0.36,0.861,0.886,0.867
	c0.196,0.003,0.465,0,0.465,0v2.043c0,0-1.49,0-1.813,0c-1.733,0.001-2.744-0.947-2.744-2.527V6.995H67.597z"/>
<path fill="#21368C" d="M78.522,8.609V7.462c0.001-0.407-0.336-0.686-0.694-0.686c-0.409-0.001-0.698,0.314-0.697,0.689
	c0,0.126-0.001,0.65,0,1.144H78.522z M81.494,11.468v0.365c-0.037,2-1.181,3.367-3.666,3.368c-2.287,0-3.7-1.163-3.696-3.413V8.057
	c-0.004-2.249,1.409-3.412,3.696-3.412c2.525,0,3.668,1.366,3.668,3.412v2.542H77.13v1.781c0,0.375,0.288,0.689,0.698,0.689
	c0.357,0,0.695-0.281,0.694-0.689v-0.912H81.494z"/>
<path fill="#21368C" d="M86.436,12.27c0,0.523,0.318,0.76,0.685,0.76c0.319-0.001,0.71-0.226,0.71-0.73V7.495
	c0-0.505-0.381-0.729-0.701-0.73c-0.366,0-0.693,0.236-0.693,0.76C86.438,8.057,86.436,12.27,86.436,12.27 M90.949,1.566v13.331
	h-2.752l-0.059-0.774h-0.064c-0.178,0.266-0.817,1.075-2.239,1.078c-1.629,0.002-2.519-1.132-2.519-2.802V7.413
	c0-1.69,1.004-2.773,2.479-2.774c1.169,0,1.774,0.532,1.983,0.698H87.8V1.566H90.949z"/>
<path fill="#21368C" d="M56.114,4.944l0.058,0.893h0.065c0.282-0.409,1.041-1.205,2.351-1.205c1.651-0.001,2.493,1.18,2.498,2.634
	c0.003,1.08,0,7.633,0,7.633h-3.207c0,0-0.001-6.432,0-6.964c0.001-0.523-0.322-0.789-0.688-0.789
	c-0.321,0.002-0.706,0.255-0.706,0.76v6.993h-3.207V4.944H56.114z"/>
<polygon fill="#21368C" points="42.692,17.783 50.796,17.783 50.796,20.449 48.478,20.449 48.478,31.112 44.94,31.112 44.94,20.449 
	42.692,20.449 "/>
<rect x="97.861" y="17.785" fill="#21368C" width="3.295" height="13.329"/>
<path fill="#21368C" d="M122.184,21.168h3.265v9.952h-3.265V21.168z M122.184,17.791h3.265v2.398h-3.265V17.791z"/>
<path fill="#21368C" d="M64.068,27.274v1.296c0,0.408-0.308,0.658-0.667,0.658c-0.409,0-0.667-0.285-0.667-0.66
	c0,0,0.001-4.361,0-4.856c0-0.375,0.259-0.659,0.669-0.659c0.358,0,0.665,0.248,0.665,0.657v1.185h3.206v-0.621
	c0.001-2.046-1.346-3.411-3.871-3.412c-2.287,0-3.877,1.163-3.873,3.412v3.732c-0.004,2.251,1.585,3.413,3.871,3.413
	c2.526,0,3.874-1.367,3.873-3.413v-0.731H64.068z"/>
<path fill="#21368C" d="M54.795,24.826v-1.147c0.001-0.408-0.335-0.687-0.694-0.688c-0.409,0-0.699,0.315-0.698,0.69
	c0,0.127,0,0.65,0,1.145H54.795z M57.766,27.684v0.366c-0.036,1.999-1.18,3.367-3.666,3.367c-2.287,0-3.7-1.163-3.696-3.412v-3.732
	c-0.004-2.249,1.411-3.412,3.697-3.412c2.525,0,3.668,1.366,3.667,3.412v2.543h-4.365v1.781c-0.001,0.375,0.287,0.688,0.697,0.688
	c0.358,0,0.696-0.28,0.695-0.688v-0.913H57.766z"/>
<path fill="#21368C" d="M131.715,24.826c0-0.469,0-0.986,0-1.147c0-0.408-0.336-0.687-0.694-0.687
	c-0.409-0.001-0.699,0.314-0.699,0.689c0.001,0.127,0,0.65,0,1.145H131.715z M134.686,27.684v0.366
	c-0.036,1.999-1.18,3.367-3.666,3.367c-2.287,0-3.7-1.163-3.696-3.412v-3.732c-0.004-2.249,1.41-3.412,3.697-3.412
	c2.524,0.001,3.667,1.367,3.666,3.412v2.543h-4.365v1.781c0,0.375,0.288,0.688,0.698,0.688c0.357,0,0.695-0.28,0.695-0.688v-0.913
	H134.686z"/>
<path fill="#21368C" d="M143.711,24.356h-2.92c0,0,0-0.477,0-0.602c0-0.429-0.252-0.856-0.832-0.856s-0.808,0.333-0.808,0.657
	c0,0.732,1.121,1.145,2.234,1.682c1.421,0.685,2.614,1.341,2.614,3.008c0,2.114-1.722,3.168-4.03,3.168
	c-2.494-0.001-3.857-1.261-3.871-3.365v-0.369h2.946c0,0,0,0.659,0,0.796c-0.004,0.488,0.281,0.897,0.933,0.897
	c0.519,0.001,0.851-0.355,0.849-0.801c-0.002-0.64-0.604-1.066-1.908-1.584c-1.752-0.693-2.633-1.474-2.637-3.146
	c-0.005-2.08,1.768-2.986,3.707-2.985c2.047,0,3.727,0.894,3.723,3.233V24.356z"/>
<path fill="#21368C" d="M115.604,28.092c0,0.523,0.327,0.759,0.693,0.759c0.32,0,0.702-0.224,0.701-0.729v-4.349
	c0.001-0.507-0.391-0.73-0.711-0.73c-0.366-0.001-0.684,0.235-0.684,0.759C115.604,23.801,115.605,27.56,115.604,28.092
	 M115.628,31.506v0.201c-0.001,0.375,0.259,0.661,0.668,0.661c0.358,0,0.673-0.25,0.673-0.659v-1.634h-0.021
	c-0.351,0.3-0.991,0.666-1.994,0.666c-1.574-0.001-2.475-1.038-2.469-2.714c0.002-1.08,0-4.404,0-4.404
	c0-1.594,0.871-2.77,2.518-2.772c1.465-0.001,2.063,0.855,2.238,1.078h0.065l0.06-0.775h2.75v9.903c0,2.048-0.996,3.414-3.819,3.414
	c-2.449-0.001-3.774-1.077-3.806-2.965H115.628z"/>
<path fill="#21368C" d="M88.387,28.045c-0.005,2.251,1.557,3.414,3.844,3.414c2.526,0,3.847-1.366,3.846-3.414v-3.733
	c0.001-2.047-1.318-3.413-3.844-3.414c-2.289,0-3.851,1.163-3.846,3.414V28.045z M91.504,23.749
	c-0.001-0.376,0.318-0.689,0.729-0.689c0.357,0.001,0.724,0.278,0.724,0.688c-0.001,0.663,0,4.863,0,4.863
	c0,0.409-0.367,0.687-0.726,0.687c-0.41,0-0.728-0.313-0.727-0.688C91.504,28.608,91.505,24.243,91.504,23.749"/>
<path fill="#21368C" d="M102.973,28.011c-0.002,2.25,1.558,3.413,3.846,3.412c2.525,0,3.846-1.365,3.845-3.412v-3.735
	c0.001-2.047-1.317-3.413-3.844-3.414c-2.288,0-3.849,1.164-3.847,3.414V28.011z M106.092,23.713
	c-0.002-0.375,0.317-0.689,0.728-0.688c0.358,0,0.724,0.277,0.723,0.687v4.863c0.001,0.409-0.366,0.688-0.724,0.688
	c-0.41,0-0.729-0.314-0.727-0.689C106.092,28.572,106.092,24.207,106.092,23.713"/>
<path fill="#21368C" d="M72.139,17.779v3.977h0.026c0.335-0.366,1.067-0.899,2.084-0.9c1.752-0.001,2.487,1.2,2.493,2.655
	c0.003,1.08,0,7.604,0,7.604h-3.209c0,0,0-6.434,0-6.966c0.002-0.523-0.321-0.789-0.688-0.789c-0.32,0.001-0.705,0.253-0.705,0.76
	c0,0.384,0,6.995,0,6.995h-3.208V17.779H72.139z"/>
<path fill="#21368C" d="M81.635,21.158l0.059,0.893h0.065c0.282-0.409,1.041-1.205,2.35-1.205c1.651-0.001,2.494,1.18,2.499,2.634
	c0.003,1.08,0,7.632,0,7.632h-3.208c0,0-0.001-6.431,0-6.963c0.001-0.523-0.321-0.79-0.688-0.788c-0.319,0-0.705,0.253-0.705,0.759
	c0.001,0.384,0,6.992,0,6.992h-3.207v-9.953H81.635z"/>
<path fill="#21368C" d="M22.572,15.318c-0.049-0.308-0.12-0.607-0.212-0.899l9.694-2.472c0.103,0.293,0.206,0.753,0.256,1.056
	L22.572,15.318z M21.676,12.951c0.171,0.271,0.323,0.555,0.452,0.851l8.793-4.787c-0.134-0.313-0.378-0.763-0.573-1.043
	L21.676,12.951z M28.582,5.553c-0.263-0.32-0.669-0.761-0.997-1.036l-7.15,7.01c0.321,0.272,0.613,0.576,0.873,0.906L28.582,5.553z
	 M18.951,10.588c0.425,0.19,0.824,0.429,1.192,0.706l5.179-8.58c-0.374-0.271-0.913-0.604-1.34-0.797L18.951,10.588z M17.314,10.106
	c0.487,0.073,0.956,0.201,1.4,0.38l2.717-9.658c-0.451-0.173-1.073-0.344-1.555-0.426L17.314,10.106z M17.222,0.042
	C16.951,0.016,16.611,0,16.344,0c-0.242,0-0.578,0.013-0.812,0.036l0.091,10.045c0.246-0.029,0.498-0.045,0.753-0.045
	c0.257,0,0.51,0.016,0.759,0.045L17.222,0.042z M22.386,31.484l-1.069-3.832l0.132-0.051l2.098,3.365
	c1.03-0.463,2.046-1.12,2.869-1.811L24.5,26.07l0.109-0.091l2.727,2.398c0.911-0.777,1.747-1.759,2.367-2.694l-2.498-2.225
	l0.077-0.12l3.049,1.379c0.673-1.046,1.233-2.27,1.566-3.476l-2.765-1.28l0.034-0.14l3.026,0.36
	c0.326-1.207,0.471-2.523,0.457-3.852H22.65c-0.012,3.455-2.817,6.255-6.274,6.255c-3.466,0-6.275-2.81-6.275-6.275
	c0-3.173,2.356-5.796,5.415-6.216l-2.544-9.73c-0.541,0.09-1.218,0.267-1.718,0.46l2.519,9.111l-0.14,0.052L8.956,1.778
	c-0.561,0.248-1.19,0.625-1.663,0.974l4.627,7.65l-0.113,0.089L5.451,4.181c-0.47,0.386-1.019,0.928-1.386,1.4l6.137,5.848
	L10.11,11.54L2.754,7.293c-0.399,0.525-0.8,1.248-1.062,1.842l7.029,3.871L8.668,13.14l-7.75-2.152
	c-0.253,0.652-0.481,1.492-0.589,2.186l7.377,1.804L7.68,15.122l-7.613,0.005C0.042,15.493,0,15.956,0,16.328
	c0,0.363,0.04,0.802,0.064,1.158l7.164-0.061l0.014,0.138l-6.95,1.733c0.128,0.822,0.339,1.639,0.632,2.394l6.459-1.771l0.055,0.131
	L1.58,23.294c0.35,0.778,0.785,1.532,1.285,2.239L8.18,22.46l0.088,0.111l-4.402,4.277c0.552,0.689,1.191,1.326,1.883,1.894
	l3.958-3.916l0.115,0.083l-2.828,4.795C7.738,30.247,8.537,30.718,9.4,31.1l2.556-4.382l0.133,0.053l-1.324,4.897
	c0.869,0.344,1.813,0.588,2.796,0.74l1.235-4.527l0.141,0.021l0.03,4.685c0.453,0.037,0.907,0.078,1.369,0.078
	c0.554,0,1.101-0.049,1.641-0.103l0.002-4.345l0.141-0.02l1.188,4.176c1.112-0.176,2.17-0.496,3.073-0.888"/>
</svg>
