<?xml version="1.0" encoding="UTF-8" standalone="no"?>
<svg
   xmlns:dc="http://purl.org/dc/elements/1.1/"
   xmlns:cc="http://creativecommons.org/ns#"
   xmlns:rdf="http://www.w3.org/1999/02/22-rdf-syntax-ns#"
   xmlns:svg="http://www.w3.org/2000/svg"
   xmlns="http://www.w3.org/2000/svg"
   xmlns:sodipodi="http://sodipodi.sourceforge.net/DTD/sodipodi-0.dtd"
   xmlns:inkscape="http://www.inkscape.org/namespaces/inkscape"
   version="1.1"
   id="svg4841"
   viewBox="0 0 999.99996 154.46001"
   height="154.46001"
   width="1000"
   inkscape:version="0.91 r13725"
   sodipodi:docname="Viacom.svg">
  <sodipodi:namedview
     pagecolor="#ffffff"
     bordercolor="#666666"
     borderopacity="1"
     objecttolerance="10"
     gridtolerance="10"
     guidetolerance="10"
     inkscape:pageopacity="0"
     inkscape:pageshadow="2"
     inkscape:window-width="1366"
     inkscape:window-height="705"
     id="namedview23"
     showgrid="false"
     units="px"
     inkscape:zoom="0.7170963"
     inkscape:cx="515.99551"
     inkscape:cy="53.589115"
     inkscape:window-x="-8"
     inkscape:window-y="-8"
     inkscape:window-maximized="1"
     inkscape:current-layer="svg4841" />
  <defs
     id="defs4843">
    <clipPath
       id="clipPath4172"
       clipPathUnits="userSpaceOnUse">
      <path
         style="clip-rule:evenodd"
         id="path4174"
         d="M 1.16e-7,1.8311e-4 720,1.8311e-4 720,540.00018 1.16e-7,540.00018 l 0,-539.99999689 z"
         inkscape:connector-curvature="0" />
    </clipPath>
    <clipPath
       id="clipPath4182"
       clipPathUnits="userSpaceOnUse">
      <path
         id="path4184"
         d="m 0,0 368.63,0 0,56.843 L 0,56.843 0,0 Z"
         inkscape:connector-curvature="0" />
    </clipPath>
    <clipPath
       id="clipPath4196"
       clipPathUnits="userSpaceOnUse">
      <path
         style="clip-rule:evenodd"
         id="path4198"
         d="m 0,56.843 0,-57.48017 369.24,0 0,57.48017"
         inkscape:connector-curvature="0" />
    </clipPath>
  </defs>
  <metadata
     id="metadata4846">
    <rdf:RDF>
      <cc:Work
         rdf:about="">
        <dc:format>image/svg+xml</dc:format>
        <dc:type
           rdf:resource="http://purl.org/dc/dcmitype/StillImage" />
        <dc:title></dc:title>
      </cc:Work>
    </rdf:RDF>
  </metadata>
  <g
     transform="matrix(0.8565265,0,0,0.8565265,526.91946,-136.19704)"
     id="layer1"
     style="fill:#000000">
    <g
       id="g4168"
       transform="matrix(1.8201514,0,0,-1.8201514,-711.76988,999.1852)"
       style="fill:#000000">
      <g
         clip-path="url(#clipPath4172)"
         id="g4170"
         style="fill:#000000">
        <g
           transform="matrix(8.9087,0,0,1.3761,53.066,362.52)"
           id="g4176"
           style="fill:#000000">
          <g
             transform="scale(0.19532,1.2666)"
             id="g4178"
             style="fill:#000000">
            <g
               clip-path="url(#clipPath4182)"
               id="g4180"
               style="fill:#000000">
              <g
                 id="g4186"
                 style="fill:#000000">
                <g
                   id="g4188"
                   style="fill:#000000">
                  <g
                     id="g4190"
                     style="fill:#000000" />
                </g>
                <g
                   id="g4192"
                   style="fill:#000000">
                  <g
                     clip-path="url(#clipPath4196)"
                     id="g4194"
                     style="fill:#000000">
                    <path
                       id="path4200"
                       style="fill:#000000;fill-opacity:1;fill-rule:nonzero;stroke:none"
                       d="m 70.142,56.318 0,0 0,-49.076 c 0,-3.827 2.251,-6.60351 7.202,-6.60351 l 7.802,0 0,55.67951 -15.004,0 z m 259.268,-39.921 0,0 c 0,0 -9.46,27.089 -11.26,32.192 -1.12,3.452 -2.77,7.729 -10.5,7.729 l -17.63,0 0,-55.67951 5.93,0 c 4.57,0 7.42,2.02611 7.42,6.75361 l 0,38.8709 0.23,0 17.18,-45.62451 16.05,0 17.18,45.62451 0.23,0 0,-38.946 c 0,-3.902 2.1,-6.67851 7.42,-6.67851 l 7.43,0 0,55.67951 -16.58,0 c -5.85,0 -9.45,-1.651 -11.25,-6.829 -1.2,-3.452 -11.55,-33.092 -11.55,-33.092 l -0.3,0 z m -297.377,-0.525 0,0 c 0,0 -12.903,33.767 -13.654,35.718 -0.975,2.627 -2.325,4.728 -7.276,4.728 L 0,56.318 22.881,0.63849 l 16.654,0 23.705,55.67951 -9.827,0 c -4.201,0 -5.851,-1.801 -6.902,-4.503 l -14.253,-35.943 -0.225,0 z m 164.137,28.74 0,0 7.65,0 c 5.48,0 8.71,2.026 8.71,6.978 l 0,4.728 -21.76,0 c -18.15,0 -26.86,-10.731 -26.86,-27.84 0,-21.3111 13.28,-27.83951 26.86,-27.83951 l 21.76,0 0,4.80251 c 0,4.878 -3.38,6.904 -8.33,6.904 l -8.03,0 c -8.62,0 -16.65,3.076 -16.65,16.133 0,11.331 6.08,16.134 16.65,16.134 z m -58.29,-23.113 0,0 c 0,-5.552 -2.55,-9.905 -10.05,-9.905 l -7.8,0 c -5.48,0 -8.7,1.501 -8.7,5.928 0,4.278 3,6.004 8.7,6.004 l 17.85,0 0,-2.027 z m -7.27,34.819 0,0 -30.686,0 0,-4.277 c 0,-3.752 1.946,-7.429 7.276,-7.429 2.33,0 19.58,0 19.58,0 8.25,0 11.1,-2.702 11.1,-9.23 l 0,-0.976 -20.7,0 c -15.46,0 -21.082,-7.128 -21.082,-16.809 0,-11.7808 7.882,-16.95851 21.082,-16.95851 l 13.8,0 c 18.08,0 21.98,9.07981 21.98,21.01151 l 0,13.807 c 0,12.907 -4.8,20.861 -22.35,20.861 z m 117.03,-44.574 0,0 c 9.75,0 15.45,6.754 15.45,16.734 0,10.581 -6.08,16.734 -15.45,16.734 -9.98,0 -15.61,-6.679 -15.61,-16.734 0,-9.605 5.48,-16.734 15.61,-16.734 z m 0,45.174 0,0 c 18.22,0 31.2,-9.905 31.2,-28.44 0,-17.709 -12,-28.514858 -31.2,-28.514858 -18.76,0 -31.29,10.355858 -31.29,28.514858 0,17.935 12.38,28.44 31.29,28.44 z"
                       inkscape:connector-curvature="0" />
                  </g>
                </g>
              </g>
            </g>
          </g>
        </g>
      </g>
    </g>
  </g>
</svg>
