<?xml version="1.0" encoding="UTF-8" standalone="no"?>
<svg
   xmlns:dc="http://purl.org/dc/elements/1.1/"
   xmlns:cc="http://creativecommons.org/ns#"
   xmlns:rdf="http://www.w3.org/1999/02/22-rdf-syntax-ns#"
   xmlns:svg="http://www.w3.org/2000/svg"
   xmlns="http://www.w3.org/2000/svg"
   version="1.1"
   id="svg3601"
   viewBox="0 0 500.00001 112.31597"
   height="112.31597"
   width="500">
  <defs
     id="defs3603" />
  <metadata
     id="metadata3606">
    <rdf:RDF>
      <cc:Work
         rdf:about="">
        <dc:format>image/svg+xml</dc:format>
        <dc:type
           rdf:resource="http://purl.org/dc/dcmitype/StillImage" />
        <dc:title></dc:title>
      </cc:Work>
    </rdf:RDF>
  </metadata>
  <g
     transform="translate(-198.17266,-454.79177)"
     id="layer1">
    <g
       transform="matrix(2.459665,0,0,-2.459665,686.17304,455.79177)"
       id="g3346">
      <path
         id="path3348"
         style="fill:#cd040b;fill-opacity:1;fill-rule:nonzero;stroke:none"
         d="m 0,0 -11.035,-23.66 -4.17,8.977 -4.507,0 6.847,-14.683 3.642,0 L 4.472,-0.004 4.472,0 0,0 Z" />
    </g>
    <path
       id="path3358"
       style="fill:#000000;fill-opacity:1;fill-rule:nonzero;stroke:none"
       d="m 397.74633,466.32651 22.06074,0 0,19.5322 -22.06074,0 0,-19.5322 z m -173.55888,97.53064 23.04706,0 25.0148,-71.95258 -22.0632,0 -14.05206,46.23432 -0.28533,0 -14.05206,-46.23432 -22.624,0 25.01479,71.95258 z m 80.94512,-58.3162 c 7.72826,0 13.07066,5.76054 13.91186,14.19227 l -29.37086,0 c 1.68733,-8.5744 6.3238,-14.19227 15.459,-14.19227 m 1.12406,44.54453 c -9.696,0 -15.59673,-6.3238 -16.72326,-16.0198 l 51.85712,0 c 0.1403,-15.45899 -3.93301,-27.82373 -12.50986,-35.55199 -6.04094,-5.6228 -14.05206,-8.7146 -24.16867,-8.7146 -21.64259,0 -36.68098,16.44286 -36.68098,37.9428 0,21.64259 14.33739,38.22565 38.08545,38.22565 8.995,0 16.16,-2.3908 22.0632,-6.46892 6.3238,-4.35115 10.82006,-10.67741 12.08679,-17.0012 l -21.08179,0 c -2.10547,4.78158 -6.464,7.58806 -12.928,7.58806 m 40.33359,13.77167 21.92299,0 0,-33.02347 c 0,-15.03347 8.99254,-21.64259 22.76174,-19.81506 l 0.42306,0 0,-18.96893 c -1.12406,-0.42306 -2.38833,-0.56327 -4.49626,-0.56327 -8.56948,0 -14.33247,3.93547 -19.2518,12.36474 l -0.42306,0 0,-11.94659 -20.93667,0 0,71.95258 z m 51.15611,0 22.06074,0 0,-71.95258 -22.06074,0 0,71.95258 z m 28.10659,0 61.55312,0 0,-17.28653 -34.85591,0 0,-0.41814 33.31124,-37.37953 0,-16.86838 -60.00845,0 0,17.28652 33.72447,0 0,0.42307 -33.72447,37.66484 0,16.57815 z m 100.47732,-13.90941 c -10.39947,0 -15.87714,-8.71459 -15.87714,-21.92299 0,-13.35106 5.47767,-21.92792 15.87714,-21.92792 10.40192,0 16.16491,8.57686 16.16491,21.92792 0,13.2084 -5.76299,21.92299 -16.16491,21.92299 m 0.14266,-60.0109 c -22.90686,0 -38.22566,16.44532 -38.22566,38.08791 0,21.49993 15.3188,38.08299 38.22566,38.08299 22.9044,0 38.22319,-16.58306 38.22319,-38.08299 0,-21.64259 -15.31879,-38.08791 -38.22319,-38.08791 m 43.00232,73.92031 21.92299,0 0,-40.05073 c 0,-9.13273 5.33748,-15.59673 13.20594,-15.59673 7.59053,0 11.52599,5.33747 11.52599,12.928 l 0,42.71946 21.92546,0 0,-46.93779 c 0,-15.87714 -9.5558,-27.12027 -25.0148,-27.12027 -9.84112,0 -16.72326,4.21833 -21.92053,11.9466 l -0.42306,0 0,-9.84112 -21.22199,0 0,71.95258 z" />
  </g>
</svg>
