<?xml version="1.0" encoding="UTF-8" standalone="no"?>
<!-- Created with Inkscape (http://www.inkscape.org/) -->

<svg
   xmlns:dc="http://purl.org/dc/elements/1.1/"
   xmlns:cc="http://creativecommons.org/ns#"
   xmlns:rdf="http://www.w3.org/1999/02/22-rdf-syntax-ns#"
   xmlns:svg="http://www.w3.org/2000/svg"
   xmlns="http://www.w3.org/2000/svg"
   xmlns:sodipodi="http://sodipodi.sourceforge.net/DTD/sodipodi-0.dtd"
   xmlns:inkscape="http://www.inkscape.org/namespaces/inkscape"
   width="310.008"
   height="78.799957"
   viewBox="0 0 82.022948 20.849154"
   version="1.1"
   id="svg493"
   inkscape:version="0.92.0 r15299"
   sodipodi:docname="walgreens boots alliance.svg">
  <defs
     id="defs487" />
  <sodipodi:namedview
     id="base"
     pagecolor="#ffffff"
     bordercolor="#666666"
     borderopacity="1.0"
     inkscape:pageopacity="0.0"
     inkscape:pageshadow="2"
     inkscape:zoom="2.6038285"
     inkscape:cx="154.004"
     inkscape:cy="38.399979"
     inkscape:document-units="mm"
     inkscape:current-layer="layer1"
     showgrid="false"
     fit-margin-top="0"
     fit-margin-left="0"
     fit-margin-right="0"
     fit-margin-bottom="0"
     units="px"
     inkscape:window-width="1280"
     inkscape:window-height="744"
     inkscape:window-x="-4"
     inkscape:window-y="-4"
     inkscape:window-maximized="1" />
  <metadata
     id="metadata490">
    <rdf:RDF>
      <cc:Work
         rdf:about="">
        <dc:format>image/svg+xml</dc:format>
        <dc:type
           rdf:resource="http://purl.org/dc/dcmitype/StillImage" />
        <dc:title></dc:title>
      </cc:Work>
    </rdf:RDF>
  </metadata>
  <g
     inkscape:label="Layer 1"
     inkscape:groupmode="layer"
     id="layer1"
     transform="translate(-42.407871,-192.57275)">
    <g
       id="g529"
       transform="translate(0.26458307,-0.26457817)">
      <g
         transform="matrix(0.35277777,0,0,-0.35277777,59.078384,204.69594)"
         id="g34">
        <path
           inkscape:connector-curvature="0"
           id="path36"
           style="fill:#54c4a6;fill-opacity:1;fill-rule:nonzero;stroke:none"
           d="M 0,0 C 0.073,1.355 0.11,2.722 0.11,4.065 0.11,5.41 0.073,6.777 0,8.132 1.388,8.062 2.756,7.985 4.076,7.899 4.159,6.62 4.2,5.332 4.2,4.065 4.2,2.801 4.159,1.511 4.076,0.233 2.756,0.147 1.389,0.068 0,0 m -3.669,-16.661 c 0.429,1.261 0.819,2.585 1.165,3.943 -2.016,-0.475 -4.122,-0.863 -6.272,-1.151 -0.139,-1.36 -0.297,-2.702 -0.468,-3.996 1.907,0.307 3.779,0.712 5.575,1.204 m -7.173,-7.332 c 0.325,1.7 0.623,3.513 0.885,5.403 -1.343,-0.195 -2.717,-0.346 -4.093,-0.447 -0.133,-1.999 -0.286,-3.911 -0.453,-5.698 1.233,0.169 2.463,0.418 3.661,0.742 M -37.023,4.065 c 0,1.345 0.038,2.712 0.111,4.067 -1.387,-0.07 -2.756,-0.147 -4.076,-0.233 -0.083,-1.279 -0.124,-2.567 -0.124,-3.834 0,-1.264 0.041,-2.554 0.124,-3.832 1.32,-0.086 2.688,-0.165 4.076,-0.233 -0.073,1.355 -0.111,2.722 -0.111,4.065 m 22.949,-9.899 c 0.04,1.575 0.071,3.19 0.091,4.812 -1.496,-0.017 -2.999,-0.026 -4.473,-0.026 -1.474,0 -2.977,0.009 -4.473,0.026 0.02,-1.622 0.05,-3.237 0.09,-4.812 1.454,-0.033 2.928,-0.05 4.383,-0.05 1.455,0 2.929,0.017 4.382,0.05 m 4.741,27.292 c -1.444,0.183 -2.926,0.323 -4.415,0.417 0.112,-2.357 0.203,-4.815 0.269,-7.316 1.581,-0.04 3.156,-0.101 4.692,-0.181 -0.134,2.409 -0.318,4.789 -0.546,7.08 m -18.804,0.541 c 0.14,1.363 0.298,2.704 0.468,3.996 -1.907,-0.306 -3.781,-0.711 -5.575,-1.203 -0.427,-1.261 -0.818,-2.583 -1.165,-3.943 2.016,0.477 4.122,0.864 6.272,1.15 m 14.063,-8.035 c -1.457,0.034 -2.931,0.051 -4.382,0.051 -1.452,0 -2.925,-0.017 -4.383,-0.051 -0.04,-1.573 -0.07,-3.188 -0.09,-4.81 1.481,0.016 2.984,0.025 4.473,0.025 1.488,0 2.992,-0.009 4.473,-0.025 -0.02,1.621 -0.051,3.237 -0.091,4.81 m -25.608,-25.159 c -1.621,0.563 -3.158,1.191 -4.581,1.873 0.749,-1.44 1.623,-2.824 2.608,-4.125 1.007,-0.514 2.072,-0.998 3.175,-1.445 -0.444,1.197 -0.847,2.437 -1.202,3.697 M 4.743,21.579 c -1.007,0.512 -2.072,0.996 -3.174,1.444 0.443,-1.196 0.846,-2.436 1.201,-3.697 1.621,-0.562 3.158,-1.191 4.582,-1.874 -0.75,1.441 -1.624,2.825 -2.609,4.127" />
      </g>
      <g
         transform="matrix(0.35277777,0,0,-0.35277777,60.559347,206.26018)"
         id="g38">
        <path
           inkscape:connector-curvature="0"
           id="path40"
           style="fill:#77b5e6;fill-opacity:1;fill-rule:nonzero;stroke:none"
           d="M 0,0 C 0.196,1.346 0.347,2.72 0.448,4.092 2.442,4.226 4.355,4.379 6.145,4.545 5.977,3.312 5.728,2.084 5.404,0.885 3.707,0.561 1.891,0.263 0,0 m -1.929,-6.289 c 0.494,1.796 0.897,3.669 1.205,5.576 -1.295,-0.171 -2.637,-0.327 -3.997,-0.468 -0.287,-2.151 -0.675,-4.256 -1.151,-6.272 1.36,0.346 2.684,0.736 3.943,1.164 m -11.602,-2.603 c 0.228,2.289 0.412,4.668 0.546,7.079 -1.54,-0.079 -3.115,-0.141 -4.693,-0.181 -0.065,-2.5 -0.156,-4.959 -0.269,-7.316 1.49,0.094 2.972,0.235 4.416,0.418 M -33.149,3.522 c -2.51,0.066 -4.968,0.156 -7.314,0.269 0.094,-1.489 0.234,-2.972 0.416,-4.415 2.292,-0.228 4.671,-0.413 7.08,-0.545 -0.08,1.538 -0.14,3.113 -0.182,4.691 m 6.089,-18.126 c -1.376,0.103 -2.75,0.252 -4.093,0.448 0.263,-1.89 0.559,-3.704 0.885,-5.404 1.198,-0.324 2.426,-0.572 3.659,-0.74 -0.167,1.785 -0.317,3.697 -0.451,5.696 m 25.131,37.89 c -1.262,0.429 -2.585,0.821 -3.943,1.165 0.476,-2.016 0.864,-4.122 1.151,-6.271 1.36,-0.14 2.702,-0.297 3.996,-0.469 -0.307,1.907 -0.711,3.78 -1.204,5.575 M -15.04,36.557 c -1.198,0.325 -2.428,0.574 -3.661,0.742 0.167,-1.785 0.319,-3.7 0.453,-5.698 1.374,-0.101 2.748,-0.251 4.093,-0.446 -0.263,1.889 -0.56,3.704 -0.885,5.402 M -45.757,12.905 c 0.101,1.374 0.253,2.748 0.448,4.094 -1.888,-0.264 -3.703,-0.561 -5.404,-0.885 -0.324,-1.199 -0.572,-2.428 -0.74,-3.661 1.788,0.167 3.702,0.318 5.696,0.452 m 12.608,0.572 c 0.042,1.577 0.102,3.153 0.182,4.69 -2.408,-0.133 -4.787,-0.316 -7.08,-0.544 -0.182,-1.445 -0.322,-2.928 -0.416,-4.416 2.357,0.112 4.814,0.203 7.314,0.27 m 14.327,17.554 c -1.278,0.084 -2.566,0.125 -3.832,0.125 -1.266,0 -2.554,-0.041 -3.834,-0.125 -0.084,-1.32 -0.163,-2.688 -0.232,-4.076 1.353,0.073 2.72,0.111 4.066,0.111 1.346,0 2.711,-0.038 4.066,-0.111 -0.069,1.388 -0.148,2.756 -0.234,4.076 m -19.091,-43.758 c -1.261,0.355 -2.501,0.757 -3.699,1.201 0.447,-1.102 0.932,-2.167 1.446,-3.174 1.301,-0.985 2.685,-1.86 4.125,-2.609 -0.683,1.423 -1.312,2.96 -1.872,4.582 m 32.771,44.426 c -1.302,0.985 -2.685,1.859 -4.125,2.608 0.682,-1.424 1.311,-2.961 1.872,-4.582 1.259,-0.354 2.501,-0.756 3.699,-1.201 -0.448,1.102 -0.932,2.166 -1.446,3.175" />
      </g>
      <g
         transform="matrix(0.35277777,0,0,-0.35277777,46.646843,208.88942)"
         id="g42">
        <path
           inkscape:connector-curvature="0"
           id="path44"
           style="fill:#a5aadc;fill-opacity:1;fill-rule:nonzero;stroke:none"
           d="M 0,0 C -1.359,0.348 -2.682,0.738 -3.942,1.165 -4.435,2.96 -4.839,4.834 -5.145,6.74 -3.851,6.57 -2.509,6.413 -1.149,6.272 -0.863,4.122 -0.476,2.017 0,0 m 11.67,15.952 c 0,1.482 0.008,2.985 0.025,4.474 -1.61,-0.02 -3.225,-0.051 -4.81,-0.091 -0.034,-1.456 -0.051,-2.928 -0.051,-4.383 0,-1.453 0.017,-2.926 0.051,-4.383 1.581,-0.04 3.196,-0.07 4.81,-0.089 -0.017,1.489 -0.025,2.991 -0.025,4.472 M 20.617,-6.58 c 0.085,1.32 0.164,2.689 0.233,4.077 -1.357,-0.074 -2.723,-0.111 -4.066,-0.111 -1.344,0 -2.709,0.037 -4.067,0.111 0.071,-1.388 0.147,-2.757 0.233,-4.077 1.28,-0.084 2.568,-0.124 3.834,-0.124 1.265,0 2.554,0.04 3.833,0.124 m 13.559,31.656 c -2.293,0.227 -4.673,0.412 -7.08,0.544 0.08,-1.538 0.14,-3.113 0.181,-4.691 2.501,-0.066 4.958,-0.157 7.315,-0.268 -0.094,1.488 -0.234,2.971 -0.416,4.415 M 12.378,39.055 c 0.134,1.998 0.285,3.912 0.452,5.697 -1.233,-0.169 -2.462,-0.417 -3.661,-0.741 -0.324,-1.699 -0.623,-3.513 -0.885,-5.404 1.346,0.196 2.72,0.347 4.094,0.448 M 39.983,-1.561 c 0.985,1.301 1.858,2.687 2.608,4.125 -1.423,-0.681 -2.961,-1.31 -4.581,-1.872 -0.354,-1.261 -0.758,-2.501 -1.202,-3.697 1.103,0.448 2.167,0.931 3.175,1.444 M -4.442,31.212 c 0.354,1.261 0.758,2.501 1.201,3.698 -1.103,-0.448 -2.167,-0.931 -3.175,-1.445 -0.983,-1.302 -1.859,-2.685 -2.608,-4.125 1.424,0.682 2.961,1.31 4.582,1.872" />
      </g>
      <g
         transform="matrix(0.35277777,0,0,-0.35277777,56.206068,206.67221)"
         id="g46">
        <path
           inkscape:connector-curvature="0"
           id="path48"
           style="fill:#82cd27;fill-opacity:1;fill-rule:nonzero;stroke:none"
           d="M 0,0 C 0.079,1.538 0.139,3.113 0.18,4.692 2.691,4.757 5.149,4.848 7.495,4.961 7.401,3.472 7.261,1.989 7.079,0.545 4.787,0.317 2.409,0.133 0,0 m -0.414,5.285 c 0.033,1.457 0.05,2.929 0.05,4.383 0,1.455 -0.017,2.927 -0.05,4.383 -1.585,0.04 -3.201,0.071 -4.81,0.091 0.015,-1.489 0.024,-2.991 0.024,-4.474 0,-1.481 -0.009,-2.983 -0.024,-4.473 1.611,0.02 3.227,0.05 4.81,0.09 M -33.416,5.262 c -1.994,0.134 -3.907,0.285 -5.697,0.452 0.168,-1.233 0.417,-2.461 0.741,-3.66 1.697,-0.325 3.512,-0.621 5.404,-0.885 -0.196,1.346 -0.347,2.72 -0.448,4.093 m 13.422,-13.529 c -2.15,0.288 -4.256,0.676 -6.272,1.152 0.346,-1.359 0.737,-2.682 1.165,-3.943 1.796,-0.492 3.668,-0.898 5.575,-1.203 -0.171,1.292 -0.329,2.635 -0.468,3.994 m 4.704,7.442 c -1.578,0.04 -3.153,0.101 -4.693,0.181 0.134,-2.41 0.318,-4.789 0.546,-7.08 1.444,-0.182 2.926,-0.323 4.415,-0.417 -0.112,2.358 -0.203,4.815 -0.268,7.316 m 33.034,18.108 c -1.7,0.325 -3.515,0.622 -5.403,0.885 0.195,-1.347 0.347,-2.719 0.448,-4.093 1.994,-0.134 3.908,-0.286 5.696,-0.453 -0.168,1.233 -0.416,2.462 -0.741,3.661 M 4.474,30.394 c -1.794,0.493 -3.668,0.897 -5.575,1.204 0.17,-1.293 0.328,-2.634 0.469,-3.996 2.149,-0.287 4.256,-0.674 6.271,-1.15 -0.347,1.359 -0.738,2.681 -1.165,3.942 M -28.247,19.348 c 0.287,2.151 0.673,4.257 1.149,6.272 -1.356,-0.345 -2.679,-0.737 -3.941,-1.164 -0.493,-1.796 -0.897,-3.668 -1.204,-5.576 1.294,0.172 2.636,0.329 3.996,0.468 m 12.957,0.813 c 0.065,2.501 0.156,4.96 0.268,7.316 -1.489,-0.094 -2.971,-0.234 -4.415,-0.417 -0.228,-2.29 -0.412,-4.669 -0.546,-7.08 1.536,0.08 3.111,0.141 4.693,0.181 M 7.198,-13.532 c 0.514,1.009 0.998,2.073 1.446,3.176 -1.198,-0.445 -2.438,-0.848 -3.697,-1.201 -0.562,-1.622 -1.191,-3.159 -1.874,-4.583 1.439,0.749 2.824,1.623 4.125,2.608 m -32.771,44.427 c 0.561,1.621 1.189,3.158 1.872,4.581 -1.439,-0.749 -2.823,-1.624 -4.125,-2.608 -0.514,-1.008 -0.998,-2.073 -1.446,-3.174 1.198,0.444 2.439,0.846 3.699,1.201" />
      </g>
      <g
         transform="matrix(0.35277777,0,0,-0.35277777,71.231227,201.23837)"
         id="g50">
        <path
           inkscape:connector-curvature="0"
           id="path52"
           style="fill:#232d61;fill-opacity:1;fill-rule:nonzero;stroke:none"
           d="m 0,0 -3.398,-10.589 h -1.626 l -2.357,7.569 -2.371,-7.569 h -1.627 L -14.776,0 h 1.723 L -10.557,-8.047 -8.076,0 h 1.377 L -4.204,-8.047 -1.722,0 m 7.866,-5.848 v -2.244 c 0,-0.614 -0.24,-2.622 -3.323,-2.622 -3.143,0 -3.387,2.043 -3.387,2.671 0,1.604 1.406,2.56 3.76,2.56 0.457,0 0.888,-0.025 1.311,-0.078 -0.092,1.181 -0.657,1.623 -2.043,1.623 -0.672,0 -1.365,-0.125 -2.118,-0.383 L 0.213,-4.367 v 1.424 l 0.064,0.024 c 0.76,0.288 1.541,0.427 2.387,0.427 2.244,0 3.48,-1.192 3.48,-3.356 M 4.512,-6.899 c -0.348,0.052 -0.779,0.08 -1.255,0.08 -0.09,0 -2.205,-0.014 -2.205,-1.209 0,-0.824 0.578,-1.224 1.769,-1.224 1.138,0 1.691,0.385 1.691,1.177 z m 3.021,-3.69 H 9.165 V 0.343 H 7.533 Z m 9.576,5.552 v -5.779 c 0,-1.289 -0.61,-2.826 -3.51,-2.826 -0.798,0 -1.561,0.108 -2.334,0.33 l -0.073,0.022 v 1.567 l 0.13,-0.04 c 0.724,-0.225 1.448,-0.339 2.152,-0.339 2.018,0 2.018,0.774 2.018,1.286 v 0.555 c -0.496,-0.123 -0.992,-0.188 -1.474,-0.188 -2.294,0 -3.557,1.384 -3.557,3.901 0,2.587 1.252,4.072 3.434,4.072 2.013,0 3.214,-0.958 3.214,-2.561 m -1.617,0.094 c 0,0.27 0,0.989 -1.597,0.989 -0.891,0 -1.801,-0.307 -1.801,-2.594 0,-2.222 0.994,-2.409 1.924,-2.409 0.524,0 1.019,0.09 1.474,0.265 z m 3.301,1.665 -0.062,-0.026 v -7.285 h 1.634 v 6.284 c 0.764,0.189 1.522,0.293 2.253,0.306 l 0.098,10e-4 v 1.506 h -0.1 c -1.808,0 -3.261,-0.544 -3.823,-0.786 m 11.524,-3.068 c 0,-0.38 -0.017,-0.744 -0.047,-1.083 L 30.261,-7.52 h -5.334 c 0.199,-1.229 0.844,-1.779 2.08,-1.779 1.032,0 1.917,0.191 2.634,0.566 l 0.146,0.076 v -1.524 l -0.06,-0.027 c -0.815,-0.346 -1.756,-0.521 -2.797,-0.521 -1.68,0 -3.682,0.699 -3.682,4.025 0,1.042 0,4.212 3.542,4.212 2.142,0 3.527,-1.512 3.527,-3.854 m -1.643,0.318 c -0.105,0.964 -0.523,2.058 -1.884,2.058 -1.251,0 -1.751,-0.541 -1.885,-2.058 z m 10.111,-0.318 c 0,-0.38 -0.015,-0.744 -0.045,-1.083 L 38.731,-7.52 h -5.333 c 0.198,-1.229 0.843,-1.779 2.08,-1.779 1.03,0 1.916,0.191 2.633,0.566 l 0.147,0.076 v -1.524 l -0.061,-0.027 c -0.815,-0.346 -1.756,-0.521 -2.796,-0.521 -1.681,0 -3.683,0.699 -3.683,4.025 0,1.042 0,4.212 3.542,4.212 2.141,0 3.525,-1.512 3.525,-3.854 m -1.643,0.318 c -0.103,0.964 -0.521,2.058 -1.882,2.058 -1.25,0 -1.751,-0.541 -1.885,-2.058 z m 6.497,3.552 c -1.643,0 -2.979,-0.622 -3.362,-0.819 l -0.055,-0.029 v -7.265 h 1.632 v 6.335 c 0.535,0.164 1.145,0.255 1.723,0.255 1.458,0 1.659,-0.664 1.659,-1.38 v -5.21 h 1.633 v 5.116 c 0,1.877 -1.207,2.997 -3.23,2.997 m 7.221,-3.197 c -0.724,0.218 -1.298,0.389 -1.298,0.806 0,0.419 0.165,0.897 1.444,0.897 0.581,0 1.213,-0.154 1.873,-0.457 l 0.142,-0.066 v 1.449 l -0.055,0.027 c -0.686,0.344 -1.422,0.525 -2.132,0.525 -2.129,0 -2.887,-1.25 -2.887,-2.421 0,-1.557 1.256,-1.941 2.364,-2.281 0.855,-0.261 1.591,-0.487 1.591,-1.193 0,-0.533 -0.545,-0.865 -1.426,-0.865 -0.761,0 -1.458,0.185 -2.131,0.563 l -0.149,0.084 v -1.523 l 0.051,-0.028 c 0.684,-0.371 1.455,-0.558 2.291,-0.558 2.212,0 2.998,1.287 2.998,2.391 0,1.846 -1.548,2.31 -2.676,2.65 m 15.041,-1.842 c 0,-1.148 -0.496,-3.074 -3.822,-3.074 H 58.084 V 0 h 3.699 c 3.054,0 3.51,-1.838 3.51,-2.935 0,-1.255 -0.737,-1.874 -1.098,-2.103 0.492,-0.221 1.706,-0.924 1.706,-2.477 m -6.168,3.123 h 2.034 c 1.334,0 1.877,0.409 1.877,1.41 0,1.058 -0.583,1.489 -2.016,1.489 h -1.895 z m 4.52,-3.059 c 0,1.113 -0.689,1.567 -2.376,1.567 h -2.144 v -3.228 l 2.251,0.017 c 1.591,0 2.269,0.491 2.269,1.644 m 10.231,0.84 c 0,-3.392 -2.047,-4.103 -3.761,-4.103 -1.716,0 -3.761,0.711 -3.761,4.103 0,3.392 2.045,4.104 3.761,4.104 1.714,0 3.761,-0.712 3.761,-4.104 m -1.634,0 c 0,2.437 -1.099,2.641 -2.127,2.641 -1.03,0 -2.129,-0.204 -2.129,-2.641 0,-2.436 1.099,-2.641 2.129,-2.641 1.028,0 2.127,0.205 2.127,2.641 m 10.121,0 c 0,-3.392 -2.045,-4.103 -3.761,-4.103 -1.715,0 -3.759,0.711 -3.759,4.103 0,3.392 2.044,4.104 3.759,4.104 1.716,0 3.761,-0.712 3.761,-4.104 m -1.632,0 c 0,2.437 -1.099,2.641 -2.129,2.641 -1.029,0 -2.127,-0.204 -2.127,-2.641 0,-2.436 1.098,-2.641 2.127,-2.641 1.03,0 2.129,0.205 2.129,2.641 m 5.214,6.316 h -1.618 v -2.321 h -1.354 v -1.4 h 1.354 V -8.34 c 0,-2.26 2.07,-2.374 2.483,-2.374 0.395,0 0.76,0.071 1.144,0.226 l 0.062,0.026 v 1.523 l -0.151,-0.094 c -0.164,-0.1 -0.444,-0.219 -0.851,-0.219 -0.74,0 -1.069,0.252 -1.069,0.818 v 4.418 h 2.071 v 1.4 h -2.071 z m 5.828,-5.378 c -0.724,0.218 -1.297,0.389 -1.297,0.806 0,0.419 0.164,0.897 1.442,0.897 0.583,0 1.214,-0.154 1.874,-0.457 l 0.142,-0.066 v 1.449 l -0.056,0.027 c -0.685,0.344 -1.421,0.525 -2.13,0.525 -2.13,0 -2.888,-1.25 -2.888,-2.421 0,-1.557 1.255,-1.941 2.365,-2.281 0.853,-0.261 1.591,-0.487 1.591,-1.193 0,-0.533 -0.547,-0.865 -1.427,-0.865 -0.76,0 -1.457,0.185 -2.131,0.563 l -0.149,0.084 v -1.523 l 0.052,-0.028 c 0.683,-0.371 1.454,-0.558 2.29,-0.558 2.212,0 2.997,1.287 2.997,2.391 0,1.846 -1.545,2.31 -2.675,2.65 M 103.684,0 l 4.207,-10.589 h -1.773 l -1.123,2.928 h -4.192 l -1.121,-2.928 H 97.907 L 102.13,0 Z m 0.721,-6.121 -1.505,3.935 -1.507,-3.935 z m 4.717,-4.468 h 1.632 V 0.343 h -1.632 z m 3.41,0 h 1.632 V 0.343 h -1.632 z m 3.722,0 h 1.632 v 7.973 h -1.632 z m -0.046,8.972 h 1.726 v 1.7111 h -1.726 z m 9.576,-4.231 v -2.244 c 0,-0.614 -0.24,-2.622 -3.325,-2.622 -3.141,0 -3.385,2.043 -3.385,2.671 0,1.604 1.405,2.56 3.76,2.56 0.456,0 0.888,-0.025 1.31,-0.078 -0.091,1.181 -0.656,1.623 -2.042,1.623 -0.673,0 -1.365,-0.125 -2.118,-0.383 l -0.132,-0.046 v 1.424 l 0.065,0.024 c 0.76,0.288 1.54,0.427 2.387,0.427 2.244,0 3.48,-1.192 3.48,-3.356 m -1.633,-1.051 c -0.347,0.052 -0.778,0.08 -1.254,0.08 -0.091,0 -2.205,-0.014 -2.205,-1.209 0,-0.824 0.578,-1.224 1.767,-1.224 1.139,0 1.692,0.385 1.692,1.177 z m 6.579,4.423 c -1.643,0 -2.978,-0.622 -3.362,-0.819 l -0.056,-0.029 v -7.265 h 1.634 v 6.335 c 0.536,0.164 1.143,0.255 1.721,0.255 1.46,0 1.661,-0.664 1.661,-1.38 v -5.21 h 1.632 v 5.116 c 0,1.877 -1.208,2.997 -3.23,2.997 m 8.302,-0.016 c -2.425,0 -3.761,-1.457 -3.761,-4.103 0,-2.655 1.336,-4.119 3.761,-4.119 0.799,0 1.58,0.15 2.325,0.444 l 0.064,0.024 v 1.582 l -0.144,-0.068 c -0.682,-0.324 -1.396,-0.488 -2.121,-0.488 -1.06,0 -2.19,0.201 -2.19,2.625 0,2.308 1.053,2.625 2.19,2.625 0.703,0 1.418,-0.169 2.121,-0.503 l 0.144,-0.068 v 1.582 l -0.064,0.024 c -0.733,0.29 -1.537,0.443 -2.325,0.443 m 10.27,-3.854 c 0,-0.375 -0.015,-0.741 -0.048,-1.083 l -0.007,-0.091 h -5.335 c 0.197,-1.229 0.844,-1.779 2.081,-1.779 1.03,0 1.916,0.191 2.633,0.566 l 0.146,0.076 v -1.524 l -0.061,-0.027 c -0.815,-0.346 -1.755,-0.521 -2.796,-0.521 -1.679,0 -3.683,0.699 -3.683,4.025 0,1.042 0,4.212 3.542,4.212 2.144,0 3.528,-1.512 3.528,-3.854 m -1.644,0.318 c -0.105,0.964 -0.523,2.058 -1.884,2.058 -1.249,0 -1.75,-0.541 -1.885,-2.058" />
      </g>
    </g>
  </g>
</svg>
