<?xml version="1.0" encoding="UTF-8" standalone="no"?>
<!-- Created with Inkscape (http://www.inkscape.org/) -->
<svg
   xmlns:dc="http://purl.org/dc/elements/1.1/"
   xmlns:cc="http://web.resource.org/cc/"
   xmlns:rdf="http://www.w3.org/1999/02/22-rdf-syntax-ns#"
   xmlns:svg="http://www.w3.org/2000/svg"
   xmlns="http://www.w3.org/2000/svg"
   xmlns:sodipodi="http://sodipodi.sourceforge.net/DTD/sodipodi-0.dtd"
   xmlns:inkscape="http://www.inkscape.org/namespaces/inkscape"
   width="199.54602"
   height="54.769634"
   id="svg145868"
   sodipodi:version="0.32"
   inkscape:version="0.44"
   version="1.0"
   sodipodi:docbase="C:\Dokumente und Einstellungen\Andreas\Eigene Dateien\Eigene Bilder\sonstiges\Logos\Vektor"
   sodipodi:docname="WesternDigital-Logo.svg">
  <defs
     id="defs145870" />
  <sodipodi:namedview
     id="base"
     pagecolor="#ffffff"
     bordercolor="#666666"
     borderopacity="1.0"
     inkscape:pageopacity="0.0"
     inkscape:pageshadow="2"
     inkscape:zoom="2.5034934"
     inkscape:cx="122.51601"
     inkscape:cy="14.667184"
     inkscape:document-units="px"
     inkscape:current-layer="layer1"
     inkscape:window-width="904"
     inkscape:window-height="574"
     inkscape:window-x="48"
     inkscape:window-y="270" />
  <metadata
     id="metadata145873">
    <rdf:RDF>
      <cc:Work
         rdf:about="">
        <dc:format>image/svg+xml</dc:format>
        <dc:type
           rdf:resource="http://purl.org/dc/dcmitype/StillImage" />
      </cc:Work>
    </rdf:RDF>
  </metadata>
  <g
     inkscape:label="Ebene 1"
     inkscape:groupmode="layer"
     id="layer1"
     transform="translate(-557.497,-495.5936)">
    <g
       id="g146101">
      <path
         id="path818"
         class="ps034 ps112 ps20"
         d="M 648.67876,543.2571 C 648.67876,546.40552 646.13567,548.94173 643.00038,548.94173 L 563.17099,548.94173 C 560.03787,548.94173 557.49697,546.40552 557.49697,543.2571 L 557.49697,501.27829 C 557.49697,498.15172 560.03787,495.59365 563.17099,495.59365 L 643.00038,495.59365 C 646.13567,495.59365 648.67876,498.15172 648.67876,501.27829 L 648.67876,543.2571"
         style="font-size:3.15269995px;letter-spacing:-0.063054;word-spacing:0;fill:#00529f;fill-rule:nonzero;stroke:none;stroke-width:0.142;stroke-linecap:butt;stroke-linejoin:miter;stroke-miterlimit:4;stroke-dasharray:none;font-family:fnt0, &quot;Futura&quot;, Arial" />
      <path
         id="path822"
         class="ps02 ps115 ps20"
         d="M 607.91558,514.00313 L 609.99922,507.9468 L 601.81087,507.9468 L 599.88255,514.00313 L 607.91558,514.00313"
         style="font-size:3.15269995px;letter-spacing:-0.063054;word-spacing:0;fill:white;fill-rule:nonzero;stroke:none;stroke-width:0.18799999;stroke-linecap:butt;stroke-linejoin:miter;stroke-miterlimit:4;stroke-dasharray:none;font-family:fnt0, &quot;Futura&quot;, Arial" />
      <path
         id="path824"
         class="ps02 ps115 ps20"
         d="M 594.75564,514.00313 L 594.11723,507.9468 L 587.85319,507.9468 L 584.65642,514.00313 L 594.75564,514.00313"
         style="font-size:3.15269995px;letter-spacing:-0.063054;word-spacing:0;fill:white;fill-rule:nonzero;stroke:none;stroke-width:0.18799999;stroke-linecap:butt;stroke-linejoin:miter;stroke-miterlimit:4;stroke-dasharray:none;font-family:fnt0, &quot;Futura&quot;, Arial" />
      <path
         id="path826"
         class="ps02 ps115 ps20"
         d="M 599.11537,516.40816 L 596.02809,526.09388 L 594.9939,516.27699 L 583.66625,515.86157 L 578.5739,525.4817 L 580.02132,515.73036 L 572.15708,515.46801 L 569.87227,536.04199 L 580.67719,536.04199 L 588.93103,519.33793 L 590.61235,536.04199 L 600.32416,536.04199 L 606.99052,516.69237 L 599.11537,516.40816"
         style="font-size:3.15269995px;letter-spacing:-0.063054;word-spacing:0;fill:white;fill-rule:nonzero;stroke:none;stroke-width:0.18799999;stroke-linecap:butt;stroke-linejoin:miter;stroke-miterlimit:4;stroke-dasharray:none;font-family:fnt0, &quot;Futura&quot;, Arial" />
      <path
         id="path828"
         class="ps02 ps115 ps20"
         d="M 580.27923,514.00313 L 581.19119,507.83748 L 573.00102,507.83748 L 572.31859,513.98126 L 580.27923,514.00313"
         style="font-size:3.15269995px;letter-spacing:-0.063054;word-spacing:0;fill:white;fill-rule:nonzero;stroke:none;stroke-width:0.18799999;stroke-linecap:butt;stroke-linejoin:miter;stroke-miterlimit:4;stroke-dasharray:none;font-family:fnt0, &quot;Futura&quot;, Arial" />
      <path
         id="path830"
         class="ps02 ps115 ps20"
         d="M 627.58873,507.9468 L 612.10033,507.9468 L 610.08435,514.00313 L 624.05548,514.00313 C 627.90994,514.11244 629.80552,517.26086 628.50033,521.15264 C 627.1755,525.11001 623.30758,528.12726 618.9042,528.32402 C 617.77616,528.38961 617.38475,528.49892 615.77545,528.36775 L 619.58844,517.12965 L 609.16184,516.75799 L 602.73592,536.04199 L 618.22214,536.04199 C 626.01217,536.04199 634.54356,529.89822 637.17613,522.00534 C 639.80397,514.09057 635.41151,507.9468 627.58873,507.9468"
         style="font-size:3.15269995px;letter-spacing:-0.063054;word-spacing:0;fill:white;fill-rule:nonzero;stroke:none;stroke-width:0.18799999;stroke-linecap:butt;stroke-linejoin:miter;stroke-miterlimit:4;stroke-dasharray:none;font-family:fnt0, &quot;Futura&quot;, Arial" />
      <path
         id="path832"
         class="ps010 ps115 ps20"
         d="M 666.55673,500.03203 L 671.48502,500.03203 L 675.03355,515.33683 L 675.08812,515.33683 L 678.35691,500.03203 L 682.53076,500.03203 L 677.34237,520.36553 L 672.49738,520.36553 L 668.83718,504.88586 L 668.78043,504.88586 L 664.84049,520.36553 L 659.88164,520.36553 L 654.92533,500.03203 L 659.4313,500.03203 L 662.55568,515.33683 L 662.61461,515.33683 L 666.55673,500.03203"
         style="font-size:3.15269995px;letter-spacing:-0.063054;word-spacing:0;fill:black;fill-rule:nonzero;stroke:none;stroke-width:0.18799999;stroke-linecap:butt;stroke-linejoin:miter;stroke-miterlimit:4;stroke-dasharray:none;font-family:fnt0, &quot;Futura&quot;, Arial" />
      <path
         id="path836"
         class="ps07 ps115 ps20"
         d="M 685.70097,514.44041 C 685.70097,516.25512 685.94142,517.98235 688.10583,517.98235 C 689.59253,517.98235 690.31424,517.43576 690.70784,516.14578 L 694.5121,516.14578 C 694.14033,519.64403 691.40736,520.80281 688.10583,520.80281 C 683.27393,520.80281 681.32815,518.0698 681.32815,513.32532 C 681.32815,509.08371 683.79884,505.80415 688.10583,505.80415 C 690.77332,505.80415 692.95955,506.70054 694.14033,509.19306 C 694.53392,509.98014 694.73072,510.81098 694.83985,511.72926 C 694.94934,512.60383 694.94934,513.50026 694.94934,514.44041 L 685.70097,514.44041 z M 690.59835,511.61995 C 690.59835,510.06762 690.1611,508.6246 688.10583,508.6246 C 686.18187,508.6246 685.74462,510.06762 685.70097,511.61995 L 690.59835,511.61995"
         style="font-size:3.15269995px;letter-spacing:-0.063054;word-spacing:0;fill:black;fill-rule:nonzero;stroke:none;stroke-width:0.18799999;stroke-linecap:butt;stroke-linejoin:miter;stroke-miterlimit:4;stroke-dasharray:none;font-family:fnt0, &quot;Futura&quot;, Arial" />
      <path
         id="path840"
         class="ps07 ps115 ps20"
         d="M 704.15406,510.002 C 704.08858,509.03998 703.1919,508.6246 702.23011,508.6246 C 701.07115,508.6246 700.5466,508.9744 700.5466,509.89269 C 700.5466,512.12282 708.61419,510.8547 708.61419,516.14578 C 708.61419,519.22861 704.85358,520.80281 702.23011,520.80281 C 698.92857,520.80281 696.06428,519.49096 695.99881,516.25512 L 699.91256,516.25512 C 699.99986,517.34831 700.98385,517.98235 702.23011,517.98235 C 703.3887,517.98235 704.26355,517.50135 704.26355,516.40816 C 704.26355,515.27121 702.23011,514.7902 701.37744,514.59344 C 698.68812,513.93754 696.17378,513.34718 696.17378,510.06762 C 696.17378,507.09409 699.75941,505.80415 702.23011,505.80415 C 705.22535,505.80415 707.7397,506.87547 707.93649,510.002 L 704.15406,510.002"
         style="font-size:3.15269995px;letter-spacing:-0.063054;word-spacing:0;fill:black;fill-rule:nonzero;stroke:none;stroke-width:0.18799999;stroke-linecap:butt;stroke-linejoin:miter;stroke-miterlimit:4;stroke-dasharray:none;font-family:fnt0, &quot;Futura&quot;, Arial" />
      <path
         id="path844"
         class="ps07 ps115 ps20"
         d="M 710.45084,506.24143 L 710.45084,503.44284 L 714.67052,501.91233 L 714.67052,506.24143 L 717.86292,506.24143 L 717.86292,509.03998 L 714.67052,509.03998 L 714.67052,515.62104 C 714.67052,517.45762 714.95498,517.98235 716.41986,517.98235 C 716.87894,517.98235 717.31618,517.91677 717.77525,517.8949 L 717.77525,520.36553 C 717.29436,520.58419 715.04228,520.80281 714.45189,520.80281 C 711.15036,520.80281 710.45084,519.07558 710.45084,516.0146 L 710.45084,509.03998 L 708.89865,509.03998 L 708.89865,506.24143 L 710.45084,506.24143"
         style="font-size:3.15269995px;letter-spacing:-0.063054;word-spacing:0;fill:black;fill-rule:nonzero;stroke:none;stroke-width:0.18799999;stroke-linecap:butt;stroke-linejoin:miter;stroke-miterlimit:4;stroke-dasharray:none;font-family:fnt0, &quot;Futura&quot;, Arial" />
      <path
         id="path848"
         class="ps07 ps115 ps20"
         d="M 722.67299,514.44041 C 722.67299,516.25512 722.93527,517.98235 725.09967,517.98235 C 726.56455,517.98235 727.28626,517.43576 727.67986,516.14578 L 731.48411,516.14578 C 731.13417,519.64403 728.4012,520.80281 725.09967,520.80281 C 720.24595,520.80281 718.30017,518.0698 718.30017,513.32532 C 718.30017,509.08371 720.79269,505.80415 725.09967,505.80415 C 727.74533,505.80415 729.95339,506.70054 731.13417,509.19306 C 731.52777,509.98014 731.72456,510.81098 731.83369,511.72926 C 731.94319,512.60383 731.94319,513.50026 731.94319,514.44041 L 722.67299,514.44041 z M 727.57036,511.61995 C 727.57036,510.06762 727.15494,508.6246 725.09967,508.6246 C 723.15389,508.6246 722.73847,510.06762 722.67299,511.61995 L 727.57036,511.61995"
         style="font-size:3.15269995px;letter-spacing:-0.063054;word-spacing:0;fill:black;fill-rule:nonzero;stroke:none;stroke-width:0.18799999;stroke-linecap:butt;stroke-linejoin:miter;stroke-miterlimit:4;stroke-dasharray:none;font-family:fnt0, &quot;Futura&quot;, Arial" />
      <path
         id="path852"
         class="ps07 ps115 ps20"
         d="M 740.57934,509.80524 C 739.87982,509.87082 738.93948,510.26438 738.52406,510.8547 C 738.06499,511.64182 737.97769,512.42893 737.95586,513.34718 L 737.95586,520.36553 L 733.75801,520.36553 L 733.73619,509.03998 C 733.73619,508.44967 733.64852,507.26903 733.58304,506.24143 L 737.45278,506.24143 L 737.54044,508.7995 L 737.5841,508.7995 C 738.50224,506.56936 740.29524,506.00091 742.41599,506.06649 L 740.57934,509.80524"
         style="font-size:3.15269995px;letter-spacing:-0.063054;word-spacing:0;fill:black;fill-rule:nonzero;stroke:none;stroke-width:0.18799999;stroke-linecap:butt;stroke-linejoin:miter;stroke-miterlimit:4;stroke-dasharray:none;font-family:fnt0, &quot;Futura&quot;, Arial" />
      <path
         id="path856"
         class="ps07 ps115 ps20"
         d="M 747.70696,507.85935 L 747.7728,507.9468 C 748.64729,506.65681 749.98085,505.80415 752.10161,505.80415 C 753.52284,505.80415 756.25581,506.85361 756.75889,508.90881 C 756.97752,509.78337 757.04299,510.6798 757.04299,511.16081 L 757.04299,520.36553 L 752.82332,520.36553 L 752.82332,511.86044 C 752.77966,510.35183 752.36424,508.6246 750.28714,508.6246 C 748.95322,508.6246 747.79462,509.80524 747.75097,511.86044 L 747.75097,520.36553 L 743.5091,520.36553 L 743.5091,506.24143 L 747.70696,506.24143 L 747.70696,507.85935"
         style="font-size:3.15269995px;letter-spacing:-0.063054;word-spacing:0;fill:black;fill-rule:nonzero;stroke:none;stroke-width:0.18799999;stroke-linecap:butt;stroke-linejoin:miter;stroke-miterlimit:4;stroke-dasharray:none;font-family:fnt0, &quot;Futura&quot;, Arial" />
      <path
         id="path866"
         class="ps07 ps115 ps20"
         d="M 656.47534,524.43224 L 663.40398,524.43224 C 669.73568,524.38852 673.68217,527.53691 673.68217,534.59897 C 673.68217,541.6829 669.73568,544.83133 663.40398,544.76574 L 656.47534,544.76574 L 656.47534,524.43224 z M 660.83943,541.39866 L 663.0915,541.39866 C 668.27298,541.44242 669.03616,537.85671 669.03616,534.59897 C 669.03616,531.3631 668.27298,527.77743 663.0915,527.82115 L 660.83943,527.82115 L 660.83943,541.39866"
         style="font-size:3.15269995px;letter-spacing:-0.063054;word-spacing:0;fill:black;fill-rule:nonzero;stroke:none;stroke-width:0.18799999;stroke-linecap:butt;stroke-linejoin:miter;stroke-miterlimit:4;stroke-dasharray:none;font-family:fnt0, &quot;Futura&quot;, Arial" />
      <path
         id="path870"
         class="ps07 ps115 ps20"
         d="M 675.45552,524.43224 L 679.9724,524.43224 L 679.9724,528.06164 L 675.45552,528.06164 L 675.45552,524.43224 z M 675.59739,530.64161 L 679.81961,530.64161 L 679.81961,544.7876 L 675.59739,544.7876 L 675.59739,530.64161 z "
         style="font-size:3.15269995px;letter-spacing:-0.063054;word-spacing:0;fill:black;fill-rule:nonzero;stroke:none;stroke-width:0.18799999;stroke-linecap:butt;stroke-linejoin:miter;stroke-miterlimit:4;stroke-dasharray:none;font-family:fnt0, &quot;Futura&quot;, Arial" />
      <path
         id="path874"
         class="ps07 ps115 ps20"
         d="M 695.64886,543.51948 C 695.64886,546.79908 694.92752,550.40661 688.71804,550.36289 C 685.59148,550.36289 682.24629,549.59767 682.15899,545.79334 L 686.16004,545.79334 C 686.22552,547.06143 687.34083,547.54243 688.49942,547.54243 C 691.71365,547.54243 691.60416,544.61267 691.42919,542.55747 L 691.36371,542.55747 C 690.48922,543.9349 689.00251,544.50336 687.4063,544.50336 C 683.55803,544.50336 681.59042,540.89579 681.59042,537.46315 C 681.59042,533.85562 683.6457,530.20432 687.6031,530.20432 C 689.4834,530.20432 690.68601,530.83837 691.36371,532.28139 L 691.42919,532.28139 L 691.42919,530.64161 L 695.64886,530.64161 L 695.64886,543.51948 z M 688.69622,541.6829 C 691.01377,541.6829 691.42919,539.32159 691.42919,537.48501 C 691.42919,535.40795 691.01377,533.02478 688.69622,533.02478 C 686.37867,533.02478 685.96325,535.40795 685.96325,537.48501 C 685.96325,539.32159 686.37867,541.6829 688.69622,541.6829"
         style="font-size:3.15269995px;letter-spacing:-0.063054;word-spacing:0;fill:black;fill-rule:nonzero;stroke:none;stroke-width:0.18799999;stroke-linecap:butt;stroke-linejoin:miter;stroke-miterlimit:4;stroke-dasharray:none;font-family:fnt0, &quot;Futura&quot;, Arial" />
      <path
         id="path884"
         class="ps07 ps115 ps20"
         d="M 698.03225,524.43224 L 702.53603,524.43224 L 702.53603,528.06164 L 698.03225,528.06164 L 698.03225,524.43224 z M 698.16321,530.64161 L 702.40508,530.64161 L 702.40508,544.7876 L 698.16321,544.7876 L 698.16321,530.64161 z "
         style="font-size:3.15269995px;letter-spacing:-0.063054;word-spacing:0;fill:black;fill-rule:nonzero;stroke:none;stroke-width:0.18799999;stroke-linecap:butt;stroke-linejoin:miter;stroke-miterlimit:4;stroke-dasharray:none;font-family:fnt0, &quot;Futura&quot;, Arial" />
      <path
         id="path888"
         class="ps07 ps115 ps20"
         d="M 705.4658,530.64161 L 705.4658,527.84301 L 709.68548,526.33441 L 709.68548,530.64161 L 712.87788,530.64161 L 712.87788,533.46206 L 709.68548,533.46206 L 709.68548,540.02126 C 709.68548,541.87966 709.96994,542.38257 711.43482,542.38257 C 711.8939,542.38257 712.33114,542.31695 712.79021,542.29508 L 712.79021,544.76574 C 712.30932,545.00623 710.05724,545.20299 709.46685,545.20299 C 706.16568,545.20299 705.4658,543.47576 705.4658,540.41478 L 705.4658,533.46206 L 703.78229,533.46206 L 703.78229,530.64161 L 705.4658,530.64161"
         style="font-size:3.15269995px;letter-spacing:-0.063054;word-spacing:0;fill:black;fill-rule:nonzero;stroke:none;stroke-width:0.18799999;stroke-linecap:butt;stroke-linejoin:miter;stroke-miterlimit:4;stroke-dasharray:none;font-family:fnt0, &quot;Futura&quot;, Arial" />
      <path
         id="path892"
         class="ps07 ps115 ps20"
         d="M 714.49591,534.6427 C 714.53956,532.87174 715.30456,531.75666 716.41986,531.12261 C 717.57846,530.44481 719.06517,530.20432 720.59589,530.20432 C 723.43799,530.20432 726.6082,531.25379 726.6082,535.51726 L 726.6082,543.23523 C 726.65222,543.9349 726.76135,544.35032 726.805,544.76574 L 723.00074,544.76574 C 722.93527,544.13166 722.86979,543.47576 722.86979,542.88544 L 722.80395,542.88544 C 721.86398,544.52522 720.39909,545.20299 718.47514,545.20299 C 715.82947,545.20299 713.8615,543.67252 713.8615,540.91765 C 713.8615,539.93377 714.29911,537.52874 716.87894,536.43555 C 718.56244,535.71406 720.70502,535.62657 722.38853,535.6703 L 722.38853,534.35849 C 722.38853,533.76813 721.95128,532.60936 720.44275,532.60936 C 718.97786,532.60936 718.49696,533.98679 718.56244,534.6427 L 714.49591,534.6427 z M 717.90657,540.34919 C 717.90657,541.52987 718.78106,542.38257 719.96185,542.38257 C 722.30122,542.38257 722.38853,539.78074 722.38853,538.11909 C 720.92364,538.09723 717.90657,538.07533 717.90657,540.34919"
         style="font-size:3.15269995px;letter-spacing:-0.063054;word-spacing:0;fill:black;fill-rule:nonzero;stroke:none;stroke-width:0.18799999;stroke-linecap:butt;stroke-linejoin:miter;stroke-miterlimit:4;stroke-dasharray:none;font-family:fnt0, &quot;Futura&quot;, Arial" />
      <path
         id="path896"
         class="ps013 ps116 ps20"
         d="M 731.35279,544.76574 L 731.35279,524.43224"
         style="font-size:3.15269995px;letter-spacing:-0.063054;word-spacing:0;fill:black;stroke:#231e1f;stroke-width:4.22411919;stroke-linecap:butt;stroke-linejoin:miter;stroke-miterlimit:4;stroke-dasharray:none;font-family:fnt0, &quot;Futura&quot;, Arial" />
      <path
         id="path900"
         class="ps07 ps115 ps20"
         d="M 735.61649,526.81541 C 735.61649,525.13187 736.9937,523.75444 738.69904,523.75444 C 740.38254,523.75444 741.7383,525.13187 741.7383,526.81541 C 741.7383,528.52078 740.38254,529.89822 738.69904,529.89822 C 736.9937,529.89822 735.61649,528.52078 735.61649,526.81541 z M 741.21338,526.81541 C 741.21338,525.43798 740.07662,524.30103 738.69904,524.30103 C 737.2778,524.30103 736.16286,525.43798 736.16286,526.81541 C 736.16286,528.21471 737.2778,529.35162 738.69904,529.35162 C 740.07662,529.35162 741.21338,528.21471 741.21338,526.81541 z M 738.04317,527.01217 L 738.04317,528.5864 L 737.4746,528.5864 L 737.4746,524.97883 L 738.63356,524.97883 C 739.31125,524.97883 739.98895,525.15373 739.98895,525.96271 C 739.98895,526.37813 739.72667,526.7061 739.24578,526.81541 L 739.24578,526.81541 C 739.7485,526.92472 739.81434,527.14335 739.85799,527.53691 C 739.92347,527.88674 739.9453,528.25843 740.07662,528.5864 L 739.3549,528.5864 C 739.31125,528.36775 739.2676,528.14912 739.24578,527.93046 C 739.20212,527.62435 739.20212,527.34014 739.02715,527.16525 C 738.89583,527.01217 738.69904,527.03404 738.50224,527.01217 L 738.04317,527.01217 z M 738.63356,526.46558 C 739.15811,526.44372 739.28943,526.22509 739.28943,525.94085 C 739.28943,525.67846 739.15811,525.52543 738.72086,525.52543 L 738.04317,525.52543 L 738.04317,526.46558 L 738.63356,526.46558"
         style="font-size:3.15269995px;letter-spacing:-0.063054;word-spacing:0;fill:black;fill-rule:nonzero;stroke:none;stroke-width:0.18799999;stroke-linecap:butt;stroke-linejoin:miter;stroke-miterlimit:4;stroke-dasharray:none;font-family:fnt0, &quot;Futura&quot;, Arial" />
    </g>
  </g>
</svg>
