<?xml version="1.0" encoding="UTF-8" standalone="no"?>
<svg xmlns:svg="http://www.w3.org/2000/svg"
xmlns="http://www.w3.org/2000/svg"
xmlns:xlink="http://www.w3.org/1999/xlink"
version="1.0"
width="70.75"
height="70.75"
viewBox="0 0 70.75 70.75"
id="svg2645"
xml:space="preserve">

<g>
<g>
<g>
<g>
<path
d="M 0,0 L 70.751,0 L 70.751,70.751 L 0,70.751 L 0,0 z "
style="fill:#cd1309" />
<path
d="M 16.172,41.744 C 16.172,40.935 16.071,40.228 15.768,39.621 C 15.364,39.115 14.656,39.016 13.544,39.016 L 11.017,39.016 L 11.017,42.047 L 11.826,42.047 C 13.039,42.047 13.241,41.744 13.241,40.229 L 14.252,40.229 L 14.252,45.282 L 13.241,45.282 C 13.241,43.563 13.039,43.159 11.826,43.159 L 11.017,43.159 L 11.017,45.788 C 11.017,46.698 11.118,46.698 12.028,46.698 L 13.14,46.698 L 13.14,47.909 L 6.974,47.909 L 6.974,46.698 L 7.58,46.698 C 8.389,46.698 8.692,46.596 8.692,45.788 C 8.692,39.823 8.692,45.788 8.692,39.823 C 8.692,39.016 8.388,38.915 7.58,38.915 L 6.974,38.915 L 6.974,37.804 C 17.284,37.804 6.974,37.804 17.284,37.804 L 17.284,41.745 L 16.172,41.745 L 16.172,41.744 z "
fill="#ffff00"/>
<path
d="M 39.419,45.08 L 38.509,45.08 C 38.509,46.191 38.509,46.697 37.903,46.697 C 37.6,46.697 37.297,46.392 37.297,45.787 C 37.297,45.584 37.297,45.383 37.297,45.281 C 37.196,43.867 36.893,43.26 35.174,42.754 C 37.094,42.553 38.206,41.643 38.206,40.229 C 38.206,38.51 36.993,37.803 34.466,37.803 L 27.492,37.803 L 27.492,38.914 L 28.301,38.914 C 29.211,38.914 29.312,39.016 29.312,39.822 L 29.312,45.787 C 29.312,46.494 28.908,46.697 28.301,46.697 L 27.593,46.697 C 26.987,46.697 26.683,46.494 26.38,45.787 L 23.146,37.803 L 20.72,37.803 L 17.283,45.787 C 16.98,46.494 16.778,46.697 15.969,46.697 L 15.565,46.697 L 15.565,47.908 L 20.821,47.908 L 20.821,46.697 L 19.709,46.697 C 19.204,46.697 18.9,46.697 18.9,46.392 C 18.9,46.29 19.001,46.089 19.102,45.886 L 19.607,44.673 L 23.448,44.673 L 23.953,45.786 C 24.054,45.987 24.054,46.19 24.054,46.29 C 24.054,46.696 23.751,46.696 23.245,46.696 L 22.133,46.696 L 22.133,47.907 L 33.554,47.907 L 33.554,46.696 L 32.644,46.696 C 31.734,46.696 31.633,46.696 31.633,45.786 L 31.633,43.157 L 32.644,43.157 C 34.362,43.157 34.868,43.462 34.969,45.178 L 34.969,46.289 C 35.07,47.705 35.98,48.109 37.395,48.109 C 38.607,48.109 39.416,47.402 39.416,45.48 C 39.419,45.382 39.419,45.179 39.419,45.08 z M 20.013,43.462 L 21.63,39.62 L 23.146,43.462 L 20.013,43.462 z M 33.759,41.945 L 31.636,42.047 L 31.636,38.914 L 33.759,38.914 C 35.174,38.914 35.882,39.318 35.882,40.43 L 35.882,40.532 C 35.881,41.541 35.174,41.945 33.759,41.945 z "
fill="#ffff00" />
<path
d="M 48.415,41.035 C 47.909,39.519 46.899,38.812 45.282,38.812 C 43.665,38.812 42.35,40.126 42.35,42.753 C 42.35,45.382 43.361,46.696 45.282,46.796 C 46.596,46.796 47.809,46.089 47.809,44.978 L 47.809,44.371 C 47.809,43.664 47.707,43.664 46.697,43.664 L 46.192,43.664 L 46.192,42.553 L 50.942,42.553 L 50.942,43.664 L 50.538,43.664 C 49.831,43.664 49.729,43.664 49.729,44.473 L 49.729,47.809 L 48.819,47.809 L 48.313,47 C 47.403,47.707 46.089,48.111 44.876,48.111 C 43.461,48.111 42.349,47.605 41.44,46.595 C 40.429,45.583 39.823,44.269 39.823,42.753 C 39.823,41.136 40.328,39.923 41.339,38.913 C 42.249,38.003 43.563,37.599 44.978,37.599 C 46.089,37.599 47.404,37.902 48.111,38.71 L 48.616,37.599 L 49.425,37.599 L 49.425,41.035 L 48.415,41.035 z "
fill="#ffff00" />
<path
d="M 57.612,48.009 C 54.277,48.009 51.649,45.988 51.649,42.753 C 51.649,39.62 54.277,37.599 57.612,37.599 C 60.947,37.599 63.474,39.62 63.474,42.855 C 63.474,45.988 60.947,48.009 57.612,48.009 z M 61.048,42.855 C 61.048,39.216 58.622,38.812 57.611,38.812 C 55.691,38.812 54.174,40.228 54.174,42.855 C 54.174,45.482 55.691,46.898 57.611,46.898 C 58.623,46.898 61.048,46.392 61.048,42.855 z "
fill="#ffff00" />
<path
d="M 41.744,30.827 C 41.441,31.433 40.733,31.535 39.52,31.535 L 36.993,31.535 L 36.993,24.763 C 36.993,23.955 37.196,23.853 38.206,23.853 L 38.914,23.853 L 38.914,22.64 L 32.85,22.64 L 32.85,23.853 L 33.355,23.853 C 34.265,23.853 34.77,23.853 34.77,24.763 L 34.77,30.727 C 34.77,31.535 34.366,31.636 33.456,31.636 L 32.95,31.636 L 32.95,32.748 L 43.361,32.748 L 43.361,28.705 C 43.361,28.705 42.35,28.705 42.148,28.705 C 42.148,29.614 42.047,30.221 41.744,30.827 z "
fill="#ffff00" />
<path
d="M 28.503,31.535 L 25.269,31.535 L 25.269,28.098 L 25.977,28.098 C 27.19,28.098 27.392,28.3 27.493,30.018 L 28.605,30.018 L 28.605,24.964 L 27.493,24.964 C 27.392,26.48 27.19,26.884 25.977,26.884 L 25.269,26.884 L 25.269,23.852 L 27.998,23.852 C 30.019,23.852 30.626,24.256 30.727,26.581 L 31.839,26.581 L 31.839,22.64 C 21.226,22.64 31.233,22.64 21.833,22.64 L 16.88,22.64 L 16.88,23.853 L 17.588,23.853 C 18.194,23.853 18.397,23.955 18.397,24.257 C 18.397,24.46 18.397,24.662 18.296,25.066 L 16.376,30.12 C 16.376,30.12 16.376,30.12 16.275,30.12 C 15.365,27.593 14.152,24.662 14.152,24.662 C 14.051,24.46 14.051,24.358 14.051,24.257 C 14.051,23.954 14.253,23.853 14.759,23.853 L 15.568,23.853 L 15.568,22.64 L 10.211,22.64 L 10.211,23.853 L 10.919,23.853 C 11.728,23.853 12.031,24.257 12.132,25.066 L 10.111,30.12 C 10.111,30.12 10.111,30.12 10.01,30.12 C 9.1,27.391 7.887,24.561 7.887,24.561 C 7.786,24.46 7.887,24.359 7.887,24.258 C 7.786,23.955 8.089,23.854 8.696,23.854 L 9.1,23.854 L 9.1,22.64 L 4.043,22.64 L 4.043,23.853 L 4.245,23.853 C 4.953,23.853 5.558,24.257 5.862,25.167 L 8.894,32.747 L 10.713,32.747 L 12.937,27.188 L 15.262,32.747 L 17.081,32.747 L 19.911,25.065 C 20.315,24.155 20.517,23.852 21.427,23.852 L 21.528,23.852 C 22.438,23.852 22.943,23.852 22.943,24.762 C 22.943,30.726 22.943,24.762 22.943,30.726 C 22.943,31.534 22.438,31.635 21.528,31.635 L 20.922,31.635 L 20.922,32.747 L 32.04,32.747 L 32.04,28.704 L 30.827,28.704 C 30.727,30.727 30.322,31.535 28.503,31.535 z "
fill="#ffff00" />
<path
d="M 52.963,28.705 C 52.963,29.615 52.862,30.221 52.558,30.828 C 52.255,31.434 51.548,31.536 50.335,31.536 L 47.909,31.536 L 47.909,24.764 C 47.909,23.956 48.111,23.854 49.021,23.854 L 49.83,23.854 L 49.83,22.64 L 43.664,22.64 L 43.664,23.853 L 44.372,23.853 C 45.181,23.853 45.584,23.853 45.584,24.763 L 45.584,30.727 C 45.584,31.535 45.281,31.636 44.372,31.636 L 44.169,31.636 L 44.169,32.748 L 54.175,32.748 L 54.175,28.705 C 54.175,28.705 53.165,28.705 52.963,28.705 z "
fill="#ffff00" />
<path
d="M 64.485,29.816 C 64.485,32.141 62.666,32.949 60.038,32.949 C 58.421,32.949 56.804,32.039 56.5,31.736 L 56.096,32.747 L 55.085,32.747 L 55.085,28.704 L 56.298,28.704 C 56.601,30.624 57.915,31.433 59.735,31.534 C 61.352,31.635 62.464,31.231 62.565,30.119 C 62.767,28.805 61.352,28.906 60.14,28.704 L 58.421,28.401 C 55.895,27.895 54.985,27.188 54.985,25.469 C 54.883,23.65 56.602,22.437 58.825,22.437 C 59.937,22.437 61.352,22.639 62.363,23.448 L 62.868,22.639 L 63.778,22.639 L 63.778,26.177 L 62.666,26.177 C 62.464,24.257 60.442,23.65 58.825,23.65 C 57.612,23.752 56.905,24.358 56.905,25.167 C 56.905,25.975 57.612,26.077 58.522,26.279 L 60.644,26.582 C 62.868,26.986 64.485,27.391 64.485,29.816 z "
fill="#ffff00" />
</g>
</g>
</g>
</g>
</svg>