<?xml version="1.0" encoding="utf-8"?>
<!-- Generator: Adobe Illustrator 15.1.0, SVG Export Plug-In . SVG Version: 6.00 Build 0)  -->
<!DOCTYPE svg PUBLIC "-//W3C//DTD SVG 1.0//EN" "http://www.w3.org/TR/2001/REC-SVG-20010904/DTD/svg10.dtd">
<svg version="1.0" id="Layer_1" xmlns="http://www.w3.org/2000/svg" xmlns:xlink="http://www.w3.org/1999/xlink" x="0px" y="0px"
	 width="360.189px" height="150px" viewBox="0 0 360.189 150" enable-background="new 0 0 360.189 150" xml:space="preserve">
<polygon points="65.869,100.425 53.216,52.03 40.379,100.425 29.978,100.425 12.079,33.801 22.387,33.801 35.131,82.194 
	47.97,33.801 58.184,33.801 71.117,82.194 83.862,33.801 94.168,33.801 76.27,100.425 "/>
<path d="M98.941,33.992l10.309-0.858v16.32l-0.188,6.109h0.375c4.779-1.814,8.623-2.673,13.308-2.673
	c8.341,0,13.963,3.819,13.963,18.421v29.114h-10.309V72.17c0-8.78-4.216-9.926-8.995-9.926c-2.999,0-5.529,0.67-8.153,1.433v36.749
	H98.941V33.992z"/>
<path d="M150.853,34.659c5.342,0,6.186,3.151,6.186,6.683c0,3.531-1.125,6.777-6.186,6.777s-6.091-3.247-6.091-6.777
	C144.762,37.81,145.699,34.659,150.853,34.659 M145.699,53.559h10.31v46.866h-10.31V53.559z"/>
<path d="M164.72,53.559h7.027l1.407,3.818h0.656c2.717-2.386,7.027-4.487,12.651-4.487c0.655,0,1.405,0,2.154,0.097v10.308
	c-1.873-0.285-3.84-0.572-5.81-0.572c-2.811,0-5.06,0.668-7.778,1.91v35.793H164.72V53.559z"/>
<polygon points="193.019,100.425 193.019,33.993 203.327,33.133 203.327,100.425 "/>
<path d="M276.602,52.89c14.619,0,20.244,8.781,20.244,24.338c0,14.604-5.249,24.153-20.432,24.153
	c-15.18,0-20.521-9.548-20.521-24.153C255.893,61.671,261.984,52.89,276.602,52.89 M286.35,77.228
	c0-8.875-1.409-16.128-9.653-16.128c-8.34,0-10.403,6.966-10.403,16.128c0,8.496,1.688,15.846,9.936,15.846
	C284.474,93.074,286.35,86.107,286.35,77.228"/>
<path d="M322.799,52.89c14.619,0,20.241,8.781,20.241,24.338c0,14.604-5.248,24.153-20.43,24.153
	c-15.181,0-20.522-9.548-20.522-24.153C302.088,61.671,308.18,52.89,322.799,52.89 M332.546,77.228
	c0-8.875-1.408-16.128-9.653-16.128c-8.34,0-10.403,6.966-10.403,16.128c0,8.496,1.688,15.846,9.934,15.846
	C330.671,93.074,332.546,86.107,332.546,77.228"/>
<polygon points="349.876,100.425 349.876,33.993 360.183,33.133 360.183,100.425 "/>
<path d="M249.677,121.865c-0.666,0.132-1.837,0.355-2.882,0.355c-3.576,0-5.6-1.531-5.6-5.705c0-4.336,2.689-5.867,6.074-5.867
	c1.045,0,1.741,0.193,2.278,0.354v2.048c-0.396-0.113-1.501-0.307-2.324-0.307c-1.964,0-3.515,0.307-3.515,3.69
	c0,3.338,1.614,3.708,3.389,3.708c0.949,0,1.723-0.193,2.579-0.37V121.865z"/>
<path d="M252.083,116.435c0-4.289,2.041-5.787,5.111-5.787c3.068,0,5.063,1.598,5.063,5.787c0,4.173-2.009,5.786-5.095,5.786
	C254.094,122.22,252.083,120.658,252.083,116.435 M259.743,116.419c0-2.998-0.965-3.917-2.532-3.917
	c-1.598,0-2.561,1.081-2.611,3.917c-0.049,2.836,0.966,3.932,2.564,3.932C258.746,120.352,259.743,119.416,259.743,116.419"/>
<path d="M265.317,110.809h3.069c3.387,0,4.779,0.92,4.779,3.529c0,2.129-1.076,2.693-2.344,3.082v0.19l0.335,0.066
	c1.155,0.436,1.835,2.674,2.547,4.078v0.305h-2.643c-0.522-1.499-1.076-3.771-2.185-4.093h-1.17v4.093h-2.39V110.809z
	 M268.448,116.225c1.174,0,2.217-0.354,2.217-1.789c0-1.417-0.821-1.66-2.185-1.66h-0.773v3.449H268.448z"/>
<path d="M276.524,110.809h3.007c3.259,0,4.841,0.758,4.841,3.642c0,2.888-1.882,3.724-4.258,3.724h-1.202v3.885h-2.388V110.809z
	 M278.912,116.467h0.872c1.393,0,2.088-0.452,2.088-1.855c0-1.417-0.695-1.821-1.979-1.821h-0.981V116.467z"/>
<path d="M286.431,116.435c0-4.289,2.04-5.787,5.111-5.787c3.07,0,5.063,1.598,5.063,5.787c0,4.173-2.009,5.786-5.095,5.786
	C288.442,122.22,286.431,120.658,286.431,116.435 M294.09,116.419c0-2.998-0.966-3.917-2.533-3.917
	c-1.597,0-2.561,1.081-2.609,3.917c-0.049,2.836,0.966,3.932,2.563,3.932C293.094,120.352,294.09,119.416,294.09,116.419"/>
<path d="M299.666,110.809h3.068c3.386,0,4.778,0.92,4.778,3.529c0,2.129-1.076,2.693-2.342,3.082v0.19l0.334,0.066
	c1.154,0.436,1.835,2.674,2.546,4.078v0.305h-2.643c-0.522-1.499-1.076-3.771-2.185-4.093h-1.17v4.093h-2.388V110.809z
	 M302.796,116.225c1.172,0,2.215-0.354,2.215-1.789c0-1.417-0.819-1.66-2.183-1.66h-0.775v3.449H302.796z"/>
<path d="M309.936,121.803l3.943-11.074h2.341l4.13,11.074v0.257h-2.644l-0.916-2.514h-3.467l-0.809,2.514h-2.579V121.803z
	 M316.346,117.917l-1.108-3.884l-0.125-0.629h-0.157l-0.13,0.629l-1.155,3.884H316.346z"/>
<polygon points="324.419,112.744 321.318,112.824 321.318,110.809 329.927,110.809 329.927,112.824 326.808,112.744 326.808,122.06 
	324.419,122.06 "/>
<rect x="332.461" y="110.809" width="2.389" height="11.251"/>
<path d="M337.685,116.435c0-4.289,2.04-5.787,5.11-5.787c3.068,0,5.063,1.598,5.063,5.787c0,4.173-2.009,5.786-5.095,5.786
	C339.694,122.22,337.685,120.658,337.685,116.435 M345.343,116.419c0-2.998-0.966-3.917-2.533-3.917
	c-1.596,0-2.563,1.081-2.609,3.917c-0.047,2.836,0.965,3.932,2.563,3.932C344.346,120.352,345.343,119.416,345.343,116.419"/>
<polygon points="350.917,110.809 353.004,110.809 357.086,116.724 357.655,117.691 357.799,117.691 357.799,110.809 
	360.189,110.809 360.189,122.06 358.149,122.06 353.954,115.917 353.479,115.097 353.306,115.097 353.306,122.06 350.917,122.06 "/>
<path fill="#EEB111" d="M279.101,2.498c-8.594-9.284-40.709,8.355-73.479,35.907v3.582c32.093-27.285,62.302-43.344,69.269-35.815
	c3.541,3.824,0.423,15.788-7.584,29.672c-1.159,0.545-2.432,1.648-3.615,3.383c-10.182,14.912-25.11,33.021-41.343,48.614
	c-41.769,40.114-82.215,64.463-90.401,55.62c-4.668-5.04,2.987-21.342,16.953-40.697h-3.872
	c-14.809,20.571-22.831,38.32-16.898,44.728c10.315,11.134,57.1-16.078,98.785-56.122c18.896-18.134,33.242-33.531,42.091-47.203
	c2.553-3.945,2.66-6.742,1.588-7.99C280.61,20.321,284.205,8.008,279.101,2.498"/>
<path d="M221.972,64.344c2.53-0.859,5.06-1.335,7.684-1.335c5.317,0,8.764,1.558,9.989,6.789c2.674-3.01,5.258-6.035,7.743-9.038
	c-2.883-5.418-7.516-7.869-13.046-7.869c-5.154,0-10.4,2.386-13.495,4.104h-0.468l-0.844-3.437h-7.777v44.139
	c3.269-2.952,6.56-6.008,9.863-9.167C221.971,78.5,221.972,73.616,221.972,64.344"/>
<path d="M240.027,78.462c-0.713,10.629-4.702,13.466-10.465,13.466c-1.159,0-2.195-0.015-3.195-0.038
	c-4.825,4.617-9.716,9.061-14.608,13.292v17.577l10.308-1.146v-21.475h0.283c2.903,0.572,6.087,0.955,8.994,0.955
	c11.995,0,19.212-8.114,19.212-24.533c0-3.145-0.242-5.941-0.701-8.415C246.794,71.481,243.522,74.915,240.027,78.462"/>
<path d="M82.699,21.507c0.465-0.433,0.804-0.84,0.886-1.495c0.077-0.653-0.308-1.124-0.92-1.354
	c-1.135-0.429-2.578-0.024-3.583,0.328c-0.543,0.191-1.108,0.373-1.695,0.549c-1.177,0.346-2.439,0.658-3.772,0.929
	c-1.331,0.274-2.722,0.506-4.153,0.7c-1.435,0.19-2.912,0.341-4.399,0.449c-1.489,0.108-2.997,0.174-4.492,0.199
	c-0.448,0.009-0.896,0.012-1.343,0.012c-1.335,0-2.656-0.02-3.962-0.06c-1.86-0.056-3.683-0.151-5.438-0.284
	c-1.751-0.132-3.439-0.301-5.035-0.5c-1.593-0.202-3.097-0.433-4.491-0.695c-1.391-0.258-2.67-0.546-3.824-0.854
	c-1.077-0.288-2.041-0.591-2.887-0.912c-0.438-0.166-0.865-0.271-1.339-0.267c-0.412,0.002-0.972,0.111-1.193,0.521
	c-0.231,0.421,0.032,0.898,0.306,1.201c0.313,0.345,0.683,0.569,1.116,0.75c0.207,0.084,0.417,0.167,0.631,0.251
	c0.957,0.37,1.994,0.718,3.111,1.039c1.134,0.33,2.338,0.633,3.609,0.908c1.284,0.277,2.633,0.525,4.037,0.745
	c1.414,0.225,2.885,0.413,4.392,0.572c1.526,0.159,3.092,0.288,4.673,0.375c1.604,0.096,3.224,0.151,4.851,0.171
	c1.654,0.023,3.311,0.008,4.959-0.044c1.658-0.052,3.308-0.14,4.928-0.263c1.192-0.09,2.374-0.204,3.53-0.333
	c0.287-0.029,0.572-0.064,0.858-0.097c-0.002,0.609,0.767,0.978,1.238,1.129c0.599,0.19,1.176,0.241,1.797,0.194
	c2.532-0.189,5.008-0.442,7.397-0.746c2.424-0.31,4.753-0.675,6.957-1.095c2.2-0.419,4.271-0.894,6.181-1.411
	c1.909-0.518,3.656-1.085,5.203-1.69c1.55-0.604,2.902-1.25,4.04-1.922c1.13-0.672,2.047-1.378,2.716-2.099
	c0.679-0.723,1.109-1.463,1.289-2.213c0.181-0.754,0.114-1.51-0.214-2.265c-0.33-0.755-0.911-1.506-1.747-2.246
	c-0.839-0.733-1.926-1.455-3.258-2.15c-1.328-0.699-2.902-1.366-4.693-1.996c-1.796-0.63-3.81-1.222-6.025-1.768
	c-2.208-0.544-4.614-1.045-7.182-1.48c-2.569-0.441-5.3-0.828-8.151-1.146c-2.852-0.322-5.824-0.578-8.879-0.766
	c-3.053-0.19-6.188-0.31-9.354-0.355c-3.163-0.049-6.361-0.023-9.542,0.075c-3.178,0.098-6.341,0.27-9.436,0.512
	c-3.093,0.244-6.125,0.558-9.036,0.944c-2.915,0.383-5.711,0.833-8.352,1.351C20.372,3.419,17.897,4,15.616,4.631
	c-2.27,0.632-4.344,1.322-6.178,2.052C7.604,7.417,6.007,8.198,4.679,9.011c-1.328,0.808-2.39,1.658-3.159,2.525
	c-0.774,0.868-1.258,1.757-1.437,2.66C-0.101,15.095,0.021,16,0.447,16.901c0.423,0.901,1.156,1.798,2.188,2.675
	c1.028,0.874,2.361,1.731,3.974,2.556c1.617,0.821,3.517,1.613,5.678,2.352c2.163,0.748,4.58,1.445,7.227,2.085
	c2.645,0.641,5.521,1.222,8.583,1.738c3.062,0.517,6.315,0.961,9.695,1.334c3.384,0.371,6.897,0.666,10.531,0.879
	c0.523,0.032,1.046,0.061,1.574,0.09c0.493,0.026,0.936-0.03,1.388-0.236c0.406-0.184,0.827-0.526,0.868-1
	c0.041-0.493-0.353-0.859-0.75-1.065c-0.441-0.226-0.881-0.312-1.369-0.342c-1.846-0.118-3.674-0.262-5.465-0.434
	c-2.302-0.22-4.542-0.483-6.707-0.786c-2.154-0.302-4.228-0.646-6.201-1.028c-1.947-0.374-3.798-0.788-5.527-1.235
	c-1.418-0.365-2.756-0.749-3.999-1.158c-3.389-1.103-6.109-2.35-8.014-3.682c-0.83-0.579-1.506-1.174-2.02-1.779
	c-0.507-0.6-0.858-1.208-1.044-1.818c-0.184-0.61-0.208-1.22-0.067-1.829c0.139-0.601,0.436-1.2,0.891-1.792
	c0.456-0.586,1.065-1.166,1.828-1.731c0.748-0.556,1.645-1.097,2.688-1.621c1.031-0.521,2.207-1.02,3.505-1.499
	c0.711-0.26,1.458-0.515,2.245-0.758c1.414-0.441,2.943-0.855,4.576-1.237c0.872-0.207,1.768-0.4,2.7-0.587
	c1.706-0.343,3.5-0.652,5.369-0.926c1.865-0.275,3.801-0.515,5.79-0.72c1.964-0.195,3.975-0.357,6.022-0.481
	c2.037-0.12,4.107-0.204,6.189-0.249c2.052-0.042,4.115-0.05,6.172-0.012c2.041,0.03,4.074,0.102,6.074,0.214
	c1.98,0.107,3.93,0.256,5.828,0.439c1.884,0.178,3.724,0.395,5.491,0.646c1.754,0.248,3.438,0.525,5.039,0.836
	c3.156,0.612,5.983,1.341,8.372,2.164c2.337,0.807,4.247,1.698,5.644,2.645c1.37,0.929,2.246,1.908,2.581,2.9
	c0.329,0.967,0.142,1.952-0.562,2.907c-0.688,0.936-1.871,1.847-3.518,2.692c-1.604,0.826-3.651,1.592-6.064,2.264
	C86.278,20.755,84.551,21.156,82.699,21.507"/>
<path d="M30.925,13.075c-0.506,0.214-1.004,0.346-1.562,0.36c-0.452,0.012-1.169-0.069-1.431-0.537
	c-0.272-0.494,0.154-1.054,0.476-1.368c0.385-0.375,0.821-0.649,1.31-0.882c6.757-3.211,16.003-4.314,23.31-4.314h0.805
	c2.668,0.019,5.329,0.144,7.872,0.365c2.45,0.216,4.792,0.523,6.92,0.913c2.054,0.379,3.906,0.835,5.483,1.353
	c1.516,0.5,2.769,1.055,3.704,1.651c0.896,0.569,1.494,1.174,1.761,1.787c0.107,0.245,0.16,0.486,0.16,0.731
	c0,0.35-0.115,0.701-0.34,1.045c-0.371,0.559-1.05,1.106-2.017,1.614c-0.92,0.487-2.107,0.937-3.522,1.337
	c-1.345,0.381-2.901,0.714-4.607,0.981c-1.623,0.252-3.384,0.445-5.22,0.571c-0.88,0.059-1.77,0.104-2.671,0.132
	c-0.708,0.017-1.422,0.029-2.134,0.029c-0.165,0-0.327,0-0.493-0.003c-0.806-0.005-1.612-0.024-2.403-0.065
	c-0.773-0.036-1.537-0.088-2.281-0.157c-1.419-0.127-2.778-0.311-4.01-0.544c-1.153-0.22-2.199-0.482-3.083-0.783
	c-0.824-0.279-1.505-0.592-2.004-0.923c-0.467-0.311-0.773-0.639-0.903-0.971c-0.115-0.307-0.078-0.619,0.125-0.923
	c0.189-0.277,0.52-0.549,0.987-0.8c0.423-0.229,0.964-0.442,1.607-0.627c0.579-0.165,1.238-0.311,1.97-0.425
	c0.644-0.101,1.342-0.176,2.066-0.223c0.493-0.032,0.997-0.05,1.506-0.05c0.503,0,1.011,0.018,1.501,0.05
	c0.729,0.047,1.423,0.122,2.068,0.223c0.726,0.114,1.387,0.26,1.969,0.425c0.641,0.185,1.183,0.399,1.609,0.627
	c0.465,0.25,0.793,0.522,0.982,0.8c0.208,0.304,0.244,0.616,0.124,0.923c-0.074,0.197-0.211,0.39-0.406,0.578
	c0.225-0.013,0.442-0.029,0.662-0.049c0.073-0.005,0.144-0.011,0.21-0.02c0.458-0.044,0.915-0.105,1.356-0.18
	c0.445-0.08,0.877-0.172,1.285-0.28c0.413-0.107,0.8-0.229,1.155-0.367c0.354-0.138,0.675-0.292,0.952-0.456
	c0.277-0.164,0.512-0.34,0.69-0.53c0.186-0.183,0.311-0.382,0.383-0.583c0.069-0.203,0.079-0.412,0.02-0.625
	c-0.058-0.212-0.181-0.428-0.371-0.644c-0.191-0.216-0.452-0.432-0.78-0.641c-0.329-0.207-0.727-0.414-1.194-0.606
	c-0.466-0.195-0.996-0.378-1.593-0.55c-0.593-0.174-1.25-0.33-1.961-0.47c-0.71-0.139-1.477-0.263-2.288-0.367
	c-0.81-0.098-1.665-0.18-2.551-0.236c-0.885-0.055-1.806-0.087-2.74-0.093C53.286,9.28,53.179,9.28,53.072,9.28
	C46.033,9.28,37.515,10.291,30.925,13.075"/>
</svg>
