<?xml version="1.0" encoding="UTF-8" standalone="no"?>
<svg xmlns:rdf="http://www.w3.org/1999/02/22-rdf-syntax-ns#" xmlns="http://www.w3.org/2000/svg" xml:space="preserve" height="67.273" viewBox="0 0 182.00675 67.272873" width="182.01" version="1.1" xmlns:cc="http://creativecommons.org/ns#" xmlns:dc="http://purl.org/dc/elements/1.1/"><g transform="matrix(1.25 0 0 -1.25 -390.74 790.11)"><g><path d="m0.85352 1.1445l11.83 49.856h27.017l9.102-30.312h0.209l9.029 30.312h26.811l11.97-49.856-19.111 0.0005-6.649 31.142-0.21 0.001-9.311-31.142-23.729-0.0005-9.449 31.142-0.211 0.001-6.718-31.142-20.58-0.0005zm42.193 57.462c-3.01 0-4.52 0.729-4.52 2.354 0 0.42 0.127 0.942 0.532 1.293 1.01 0.875 4.606 1.224 5.031 1.695 0.085 0.093 0.135 0.208 0.135 0.342 0 0.596-0.711 0.75-1.366 0.75-0.417 0-0.696-0.102-0.906-0.297-0.2-0.199-0.28-0.494-0.291-0.906h-3.23c0.063 1.377 0.259 2.58 4.345 2.58 3.428 0 4.743-0.946 4.743-2.418 0-0.72-0.304-1.121-0.596-1.375-1-0.884-4.482-1.211-4.971-1.674-0.094-0.082-0.135-0.229-0.135-0.342 0-0.381 0.354-0.625 1.022-0.625 0.396 0 0.708 0.05 0.928 0.204 0.228 0.153 0.364 0.412 0.386 0.822h3.106c-0.043-1.528-1.016-2.403-4.213-2.403zm80.543 0c-3.32 0-5.31 1.212-5.31 3.997 0 2.19 1.17 3.814 4.95 3.814 1.66 0 3.62-0.257 5.1-0.596v-3.918h-5.01v1.563h1.84v1.133c-0.28 0.151-0.78 0.255-1.47 0.255-1.57 0-2.24-1.028-2.24-2.457 0-1.335 0.75-2.228 2.11-2.228 0.5 0 0.84 0.12 1.07 0.295 0.22 0.174 0.35 0.404 0.39 0.599h3.31c-0.05-1.872-2.01-2.457-4.74-2.457zm-110.95 0.196l1.759 7.42h4.024l1.355-4.516h0.03l1.345 4.516h3.991l1.783-7.42h-2.848l-0.99 4.635h-0.031l-1.383-4.635h-3.533l-1.407 4.635h-0.033l-1.002-4.635h-3.06zm17.759 0l-3.834 7.42h3.104l0.584-1.235h3.887l0.551 1.235h3.494l-3.838-7.42h-3.948zm17.924 0v1.806h2.469v5.614h3.168v-5.614h2.471v-1.806h-8.108zm9.235 0v7.42h7.252v-1.565h-4.19v-1.365h3.889v-1.563h-3.889v-1.367h4.149v-1.56h-7.211zm13.037 0v7.42h2.687v-5.584h0.033l1.938 5.584h3.064l2.063-5.584h0.023v5.584h2.934v-7.42h-4.822l-1.522 4.97h-0.021l-1.574-4.97h-4.803zm17.267 0l-3.832 7.42h3.104l0.584-1.235h3.887l0.552 1.235h3.491l-3.836-7.42h-3.95zm8.455 0v7.42h2.75v-5.285h0.02l2.686 5.285h4.5v-7.42h-2.76v4.97h-0.03l-2.53-4.97h-4.636zm14.456 0l-3.84 7.42h3.11l0.58-1.235h3.89l0.55 1.235h3.49l-3.83-7.42h-3.95zm19.27 0v7.42h7.25v-1.565h-4.19v-1.365h3.89v-1.563h-3.89v-1.367h4.15v-1.56h-7.21zm8.66 0v7.42h2.69v-5.584h0.03l1.94 5.584h3.06l2.06-5.584h0.02v5.584h2.94v-7.42h-4.82l-1.52 4.97h-0.03l-1.57-4.97h-4.8zm14.51 0v7.42h7.25v-1.565h-4.19v-1.365h3.89v-1.563h-3.89v-1.367h4.15v-1.56h-7.21zm8.63 0v7.42h2.76v-5.285h0.02l2.69 5.285h4.48v-7.42h-2.75v4.97h-0.03l-2.53-4.97h-4.64zm10.76 0v1.806h2.47v5.614h3.16v-5.614h2.48v-1.806h-8.11zm-140.37 1.97l1.165 2.59h-2.383l1.218-2.59zm57.465 0l1.164 2.59h-2.384l1.22-2.59zm22.905 0l1.17 2.59h-2.39l1.22-2.59z" transform="matrix(.8 0 0 -.8 312.59 632.09)" fill="#006838"/><path d="m389.97 631.15h21.616l7.28-24.251h0.169l7.221 24.251h21.449l9.577-39.885h-15.289l-5.319 24.914h-0.17l-7.445-24.914h-18.984l-7.561 24.914h-0.166l-5.379-24.914h-16.462" fill="#edac09"/></g></g></svg>
