<?xml version="1.0" encoding="UTF-8" standalone="no"?>
<!-- Created with Inkscape (http://www.inkscape.org/) -->

<svg
   xmlns:svg="http://www.w3.org/2000/svg"
   xmlns="http://www.w3.org/2000/svg"
   version="1.1"
   width="174"
   height="92"
   id="svg4060">
  <defs
     id="defs4062" />
  <g
     transform="translate(-104.7125,-334.84645)"
     id="layer1">
    <path
       d="m 146.0964,356.87022 -7.91371,0 -0.22373,0.51972 -8.05938,18.98918 0.49947,-18.63382 0.0243,-0.87508 -8.10622,0 -0.22199,0.51421 -8.22069,18.98643 0.65384,-18.61729 0.033,-0.88335 -7.78364,0 -0.01,0.84203 -0.43705,33.94453 -0.01,0.86498 8.00216,0 0.22025,-0.51972 8.62132,-20.3445 -0.3538,19.99557 -0.0156,0.86865 8.0039,0 0.22198,-0.51697 14.5683,-33.94361 0.50817,-1.19096"
       id="path230"
       style="fill:#231f20;fill-opacity:1;fill-rule:nonzero;stroke:none" />
    <path
       d="m 154.17834,366.36848 -7.56511,0 -0.14743,0.6694 -5.65041,25.48388 7.56511,0 0.14915,-0.67031 5.41975,-24.44536 0.22894,-1.03761"
       id="path232"
       style="fill:#231f20;fill-opacity:1;fill-rule:nonzero;stroke:none" />
    <path
       d="m 154.11069,363.58438 0.68506,0 0.14741,-0.66847 1.20709,-5.44883 0.23414,-1.04037 -7.56858,0 -0.14568,0.67032 -1.21055,5.44974 -0.22894,1.03761 6.88005,0"
       id="path234"
       style="fill:#231f20;fill-opacity:1;fill-rule:nonzero;stroke:none" />
    <path
       d="m 167.93496,356.87022 -7.56683,0 -0.14742,0.66756 -7.75415,34.98398 7.56684,0 0.14569,-0.67031 7.52521,-33.94362 0.23066,-1.03761"
       id="path236"
       style="fill:#231f20;fill-opacity:1;fill-rule:nonzero;stroke:none" />
    <path
       d="m 179.58614,356.87022 -7.56511,0 -0.14915,0.66756 -7.75242,34.98398 7.56338,0 0.14741,-0.67031 7.52696,-33.94362 0.22893,-1.03761"
       id="path238"
       style="fill:#231f20;fill-opacity:1;fill-rule:nonzero;stroke:none" />
    <path
       d="m 188.89598,366.36848 -7.56512,0 -0.14741,0.6694 -5.65042,25.48388 7.56511,0 0.14915,-0.67031 5.41976,-24.44536 0.22893,-1.03761"
       id="path240"
       style="fill:#231f20;fill-opacity:1;fill-rule:nonzero;stroke:none" />
    <path
       d="m 188.82834,363.58438 0.68505,0 0.14742,-0.66847 1.20709,-5.44883 0.23414,-1.04037 -7.56685,0 -0.14741,0.67032 -1.21057,5.44974 -0.22892,1.03761 6.88005,0"
       id="path242"
       style="fill:#231f20;fill-opacity:1;fill-rule:nonzero;stroke:none" />
    <path
       d="m 201.36054,384.67909 c -1.66321,1.1432 -3.83458,2.23958 -5.1648,2.23958 -0.38849,0 -0.91053,-0.0735 -1.19321,-0.42606 -0.30178,-0.37556 -0.25149,-0.96966 -0.1561,-1.40124 0.56886,-2.56372 3.85713,-3.42135 7.32925,-4.08708 l -0.81514,3.6748 z m 9.30463,-7.84636 c 0.8793,-3.95761 0.6521,-6.61407 -0.71973,-8.35781 -1.29554,-1.65466 -3.61433,-2.46088 -7.29283,-2.54076 -3.8103,-0.101 -8.54847,2.00359 -10.78401,4.79045 l -0.49775,0.62348 0.58794,0.54085 3.11657,2.85756 0.61915,0.56747 0.581,-0.60788 c 1.2834,-1.35164 2.92927,-2.73451 5.39722,-2.73451 0.8949,0 1.59383,0.23048 1.91642,0.63266 0.23239,0.292 0.29483,0.70613 0.1769,1.23504 l -0.32779,1.47469 c -9.94286,1.24697 -14.96546,4.39102 -16.24018,10.15021 -0.46654,2.10277 -0.10925,4.02556 1.00243,5.4121 0.7631,0.94854 2.25289,2.07981 5.01567,2.07981 2.8807,0.0276 5.20468,-0.83376 7.2564,-1.9182 l -0.0277,0.58584 -0.0381,0.89252 7.53562,0 -0.11787,-0.96139 c -0.104,-0.82366 -0.0125,-1.85209 0.29482,-3.23496 l 2.54599,-11.48717"
       id="path244"
       style="fill:#231f20;fill-opacity:1;fill-rule:nonzero;stroke:none" />
    <path
       d="m 248.31209,367.81655 c -0.97295,-1.21483 -2.5217,-1.88239 -4.35835,-1.88239 -3.94212,0 -6.67367,1.43612 -8.81383,3.03478 -0.96427,-1.89709 -3.00731,-3.03478 -5.60879,-3.03478 -2.74022,-0.0239 -4.67226,0.66205 -6.70315,1.96136 l 0.10575,-0.48208 0.23067,-1.03669 -7.04655,0 -0.15088,0.66848 -5.41455,24.43892 -0.23414,1.03761 7.56684,0 0.14743,-0.67031 3.82417,-17.24453 c 1.8193,-1.35807 3.67676,-2.25886 4.69308,-2.26713 0.4752,0.0239 1.08221,0.12213 1.33368,0.44535 0.21853,0.28741 0.24108,0.86222 0.0659,1.66017 l -3.77735,17.03884 -0.22894,1.03761 7.56338,0 0.14741,-0.67031 3.82419,-17.24453 c 1.81756,-1.35807 3.67848,-2.25886 4.6948,-2.26713 0.47693,0.0239 1.08222,0.12213 1.33022,0.44535 0.22373,0.28741 0.24454,0.86222 0.0676,1.66017 l -3.77735,17.03884 -0.23067,1.03761 7.56685,0 0.14742,-0.67031 3.89008,-17.55122 c 0.62435,-2.81807 0.33993,-4.99797 -0.85502,-6.48368"
       id="path246"
       style="fill:#231f20;fill-opacity:1;fill-rule:nonzero;stroke:none" />
    <path
       d="m 262.42079,371.97158 c 1.18281,0 2.23033,0.70337 3.30041,2.21203 l 0.49949,0.70705 0.70066,-0.51054 5.00005,-3.65276 -0.42144,-0.67307 c -1.63026,-2.61881 -4.72776,-4.12013 -8.49644,-4.12013 -4.21961,0 -9.29943,2.42782 -10.48051,7.75912 -1.26257,5.68665 3.22584,7.46252 6.50024,8.7554 2.36215,0.93293 3.45651,1.47286 3.25532,2.37916 -0.27402,1.23136 -1.61812,2.09083 -3.26572,2.09083 -1.78635,0 -3.1079,-0.96599 -4.15196,-3.03937 l -0.42492,-0.84386 -0.79605,0.5087 -4.53525,2.90164 -0.62262,0.39851 0.30524,0.67215 c 1.61292,3.5591 4.70175,5.43965 8.93348,5.43965 6.04759,0 10.31749,-2.98795 11.42919,-7.99327 1.32849,-5.9961 -3.41662,-7.81054 -6.55921,-9.00976 -2.29798,-0.87875 -3.35938,-1.38746 -3.1634,-2.26438 0.25147,-1.13861 1.26085,-1.7171 2.99344,-1.7171"
       id="path256"
       style="fill:#231f20;fill-opacity:1;fill-rule:nonzero;stroke:none" />
    <path
       d="m 168.93046,398.14965 c -29.96212,12.26951 -54.5496,15.27123 -54.91727,6.7059 -0.0989,-2.27999 1.54181,-5.1504 4.54565,-8.36516 l -4.37223,0 c -6.51757,6.24219 -9.88388,11.59093 -9.0705,15.27674 2.31707,10.49547 37.66253,3.62888 79.61749,-15.27674 l -11.86622,0 c -1.30248,0.56196 -2.61189,1.1175 -3.93692,1.65926"
       id="path258"
       style="fill:#1478c7;fill-opacity:1;fill-rule:evenodd;stroke:none" />
    <path
       d="m 261.98895,340.06921 c -2.21126,-10.31274 -35.36629,-4.57927 -75.939,12.58997 l 1.79676,0.94854 c 24.76958,-9.86189 46.1815,-15.86993 57.4095,-15.42183 13.39936,0.5335 8.99073,10.1291 -8.68547,24.08082 l 8.37676,0 c 11.61995,-9.14382 18.12366,-17.15545 17.04145,-22.1975"
       id="path260"
       style="fill:#1478c7;fill-opacity:1;fill-rule:evenodd;stroke:none" />
    <path
       d="m 265.34832,350.3544 c -0.40756,-1.47469 -1.49845,-2.59311 -3.18421,-3.37361 -1.05794,2.05502 -2.74196,4.32674 -4.99831,6.77293 -0.28444,2.22397 -2.16096,5.11459 -5.48219,8.51299 l 8.13223,0 c 4.32192,-4.81433 6.35802,-8.92895 5.53248,-11.91231"
       id="path262"
       style="fill:#1478c7;fill-opacity:1;fill-rule:evenodd;stroke:none" />
    <path
       d="m 193.71393,361.9894 1.769,0.93569 c 22.01373,-8.6645 41.73991,-14.1317 52.83609,-14.13445 0.77524,-1.08536 1.38052,-2.10093 1.80717,-3.0403 -13.13923,0.94763 -33.50363,6.67101 -56.41226,16.23906"
       id="path272"
       style="fill:#1478c7;fill-opacity:1;fill-rule:evenodd;stroke:none" />
    <path
       d="m 197.715,396.49039 c -6.63551,3.5343 -13.90232,6.99882 -21.54374,10.20439 -26.83688,11.2622 -49.58771,15.72668 -56.16946,11.62031 -5.58105,0.48851 -9.00806,-0.0918 -10.81696,-0.61797 -0.32779,0.76765 -0.55499,1.50132 -0.66598,2.19643 -1.83665,11.53032 27.83759,8.19711 66.27362,-7.44141 11.97375,-4.87034 23.38558,-10.36141 33.47586,-15.96175 l -10.55334,0"
       id="path274"
       style="fill:#1478c7;fill-opacity:1;fill-rule:evenodd;stroke:none" />
    <path
       d="m 135.41991,396.49039 -3.64207,0 c -5.41281,3.62337 -10.0608,7.1641 -13.76704,10.48537 0.83074,0.49401 2.59454,0.93385 3.70624,1.01006 2.99171,-3.44798 7.70212,-7.38447 13.70287,-11.49543"
       id="path276"
       style="fill:#1478c7;fill-opacity:1;fill-rule:evenodd;stroke:none" />
    <path
       d="m 273.92454,388.98746 0,-1.31492 0.8793,0 c 0.44572,0 0.92613,0.0973 0.92613,0.62349 0,0.65378 -0.49081,0.69143 -1.03538,0.69143 l -0.77005,0 z m 0,0.54635 0.74056,0 1.1221,1.84475 0.72321,0 -1.21229,-1.87413 c 0.62435,-0.0771 1.1013,-0.40862 1.1013,-1.16984 0,-0.83927 -0.49602,-1.20932 -1.50192,-1.20932 l -1.61639,0 0,4.25329 0.64343,0 0,-1.84475 z m 0.77871,3.40208 c 2.01009,0 3.72532,-1.55733 3.72532,-3.69316 0,-2.11746 -1.71523,-3.67663 -3.72532,-3.67663 -2.02741,0 -3.74266,1.55917 -3.74266,3.67663 0,2.13583 1.71525,3.69316 3.74266,3.69316 z m -3.00211,-3.69316 c 0,-1.74741 1.31635,-3.06324 3.00211,-3.06324 1.66842,0 2.98477,1.31583 2.98477,3.06324 0,1.77404 -1.31635,3.08069 -2.98477,3.08069 -1.68576,0 -3.00211,-1.30665 -3.00211,-3.08069"
       id="path278"
       style="fill:#231f20;fill-opacity:1;fill-rule:nonzero;stroke:none" />
  </g>
</svg>
