<?xml version="1.0" encoding="UTF-8" standalone="no"?>
<!-- Created with Inkscape (http://www.inkscape.org/) -->
<svg
   xmlns:svg="http://www.w3.org/2000/svg"
   xmlns="http://www.w3.org/2000/svg"
   version="1.0"
   width="145"
   height="30"
   id="svg2">
  <defs
     id="defs4" />
  <g
     transform="translate(-214.83894,-478.86059)"
     id="layer1">
    <g
       transform="translate(216.33179,480.35344)"
       id="g2384">
	<path
   d="M 13.038,0 L 0,22.547 L 8.928,22.549 C 8.928,22.549 10.84,22.658 11.228,20.936 C 11.576,19.388 12.147,15.707 12.147,15.707 L 11.745,15.707 C 11.745,15.707 11.516,16.358 11.391,16.633 C 11.303,16.827 10.885,17.793 8.882,17.755 C 8.882,17.755 8.117,17.751 7.783,17.755 L 13.023,8.734 L 18.249,17.756 C 18.249,17.756 17.242,17.761 16.899,17.756 C 16.036,17.744 14.939,17.549 14.532,16.337 C 14.384,15.899 14.297,15.707 14.302,15.707 L 13.899,15.707 L 14.752,20.696 C 14.752,20.696 15.03,22.55 16.977,22.55 C 18.391,22.551 26.065,22.552 26.065,22.552 L 13.038,0 z"
   id="path2386"
   style="fill:#008147" />

	<path
   d="M 49.022,10.141 C 49.217,10.249 49.447,10.599 49.234,11.202 C 49.02,11.801 48.052,14.259 47.287,15.994 C 46.766,17.172 46.16,18.603 45.639,19.701 C 44.929,18.164 44.197,16.429 43.508,14.882 C 43.943,13.707 44.896,11.593 45.566,10.465 C 45.737,10.178 46.107,9.92 46.825,9.967 C 46.879,9.971 46.88,9.955 46.881,9.907 C 46.888,9.708 46.891,9.54 46.892,9.285 C 46.892,9.264 46.903,9.227 46.849,9.231 C 46.268,9.261 45.904,9.276 45.384,9.279 C 44.899,9.282 43.477,9.222 43.432,9.216 C 43.387,9.209 43.373,9.222 43.369,9.266 C 43.354,9.429 43.349,9.669 43.371,9.931 C 43.371,9.955 43.364,9.947 43.421,9.952 C 44.073,10.012 44.292,10.401 44.204,10.663 C 43.86,11.682 42.998,13.573 42.972,13.572 C 42.95,13.572 42.195,12.035 41.748,10.772 C 41.67,10.555 41.693,10.418 41.785,10.273 C 41.937,10.029 42.285,9.996 42.508,9.982 C 42.549,9.979 42.567,9.961 42.567,9.928 C 42.58,9.64 42.567,9.495 42.559,9.316 C 42.558,9.283 42.556,9.256 42.502,9.26 C 42.448,9.263 41.037,9.302 40.561,9.303 C 40.086,9.305 39.16,9.269 38.595,9.234 C 38.55,9.231 38.51,9.23 38.506,9.275 C 38.481,9.516 38.502,9.676 38.504,9.925 C 38.504,9.948 38.497,9.974 38.553,9.976 C 38.922,9.986 39.481,10.205 39.692,10.588 C 40.642,12.317 41.183,13.909 42.059,15.663 C 41.514,16.926 40.882,18.477 40.266,19.721 C 39.889,18.899 37.889,13.919 36.766,10.933 C 36.663,10.658 36.685,10.417 36.782,10.278 C 36.95,10.038 37.295,9.958 37.602,9.968 C 37.644,9.969 37.655,9.948 37.656,9.916 C 37.666,9.687 37.661,9.475 37.653,9.277 C 37.652,9.256 37.665,9.232 37.611,9.235 C 37.076,9.266 36.155,9.298 35.309,9.307 C 34.833,9.312 33.891,9.279 33.409,9.239 C 33.333,9.232 33.316,9.244 33.315,9.289 C 33.308,9.447 33.302,9.624 33.313,9.877 C 33.314,9.9 33.312,9.937 33.369,9.94 C 33.817,9.964 34.083,10.086 34.267,10.225 C 34.673,10.526 35.037,11.413 35.304,12.066 C 37.496,17.409 38.64,20.287 39.596,22.629 C 39.659,22.783 39.626,22.77 39.779,22.768 C 39.947,22.765 39.9,22.782 39.964,22.629 C 41.139,19.891 41.91,18.267 42.478,17.146 C 42.61,16.886 42.589,16.921 42.697,17.148 C 43.267,18.345 44.528,21.217 45.167,22.649 C 45.225,22.778 45.194,22.753 45.351,22.751 C 45.502,22.749 45.475,22.756 45.516,22.65 C 47.743,17.063 49.639,12.929 50.524,11.053 C 50.835,10.396 51.104,10.036 52.042,9.918 C 52.096,9.912 52.104,9.913 52.107,9.866 C 52.113,9.621 52.124,9.459 52.118,9.254 C 52.116,9.219 52.108,9.207 52.073,9.209 C 52.02,9.215 50.592,9.273 50.116,9.283 C 49.641,9.292 48.887,9.251 48.176,9.209 C 48.097,9.205 48.09,9.206 48.09,9.269 C 48.09,9.549 48.089,9.614 48.1,9.9 C 48.101,9.922 48.1,9.934 48.155,9.938 C 48.515,9.966 48.805,10.02 49.022,10.141"
   id="path2388" />

	<path
   d="M 64.152,16.514 C 63.737,17.691 63.351,18.707 62.806,20.077 C 62.719,20.296 62.712,20.305 62.626,20.095 C 61.674,17.796 61.406,17.041 60.664,15.056 C 60.527,14.695 60.516,14.475 60.747,14.267 C 60.857,14.167 61.099,14.061 61.542,14.029 C 61.649,14.021 61.667,14.038 61.67,13.962 C 61.675,13.845 61.678,13.629 61.666,13.505 C 61.654,13.381 61.642,13.385 61.536,13.392 C 60.364,13.477 58.706,13.456 57.608,13.363 C 57.525,13.357 57.509,13.357 57.503,13.467 C 57.499,13.578 57.504,13.845 57.514,13.935 C 57.522,14.023 57.514,14.014 57.6,14.02 C 57.686,14.027 58.203,14.084 58.349,14.181 C 58.608,14.356 58.717,14.495 58.873,14.833 C 59.363,15.896 61.525,21.426 61.817,22.227 C 61.861,22.348 61.865,22.424 61.794,22.596 C 61.738,22.734 61.311,23.741 61.214,23.921 C 60.966,24.392 60.599,24.855 60.172,25.059 C 59.923,25.177 59.517,25.143 59.113,25.262 C 58.857,25.338 58.593,25.532 58.496,25.905 C 58.408,26.242 58.548,26.59 58.728,26.75 C 58.885,26.888 59.154,27.026 59.556,27 C 59.962,26.971 60.567,26.726 61.136,25.812 C 61.965,24.48 62.511,23.023 63.009,21.81 C 63.891,19.664 65.133,16.26 65.62,15.212 C 65.654,15.139 65.826,14.705 66.154,14.434 C 66.495,14.15 66.76,14.074 67.205,14.037 C 67.319,14.027 67.33,14.013 67.339,13.93 C 67.352,13.796 67.35,13.568 67.341,13.454 C 67.334,13.374 67.346,13.348 67.228,13.357 C 66.214,13.453 64.48,13.49 63.752,13.394 C 63.583,13.373 63.547,13.398 63.543,13.471 C 63.54,13.567 63.516,13.843 63.531,13.96 C 63.545,14.064 63.588,14.036 63.664,14.045 C 63.88,14.071 64.167,14.045 64.433,14.254 C 64.629,14.407 64.688,14.607 64.68,14.762 C 64.669,15 64.45,15.672 64.152,16.514"
   id="path2390" />

	<path
   d="M 78.277,15.175 C 78.509,14.83 79.416,13.31 80.866,13.374 C 81.146,13.387 81.642,13.496 81.681,13.888 C 81.72,14.28 81.462,15.281 80.966,15.143 C 80.08,14.893 79.226,14.76 78.642,15.53 C 78.474,15.751 78.287,16.157 78.264,16.972 C 78.244,17.399 78.259,19.409 78.283,21.175 C 78.289,21.738 78.682,21.86 78.792,21.906 C 79.015,21.997 79.435,21.972 79.641,21.988 C 79.682,21.991 79.705,22.001 79.71,22.05 C 79.73,22.228 79.733,22.427 79.708,22.579 C 79.703,22.609 79.696,22.625 79.607,22.619 C 79.391,22.61 78.812,22.547 77.628,22.539 C 76.501,22.532 75.626,22.622 75.367,22.643 C 75.313,22.646 75.281,22.638 75.275,22.601 C 75.251,22.459 75.245,22.277 75.271,22.051 C 75.275,22.024 75.288,22.011 75.344,22.006 C 75.534,21.991 76.111,21.986 76.425,21.754 C 76.592,21.629 76.692,21.467 76.692,21.187 C 76.686,19.645 76.683,18.359 76.688,16.641 C 76.689,16.305 76.606,15.512 76.485,15.275 C 76.311,14.933 75.869,14.943 75.556,14.919 C 75.483,14.913 75.454,14.905 75.452,14.852 C 75.446,14.721 75.444,14.574 75.452,14.47 C 75.458,14.385 75.425,14.383 75.538,14.337 C 76.402,13.987 77.159,13.641 77.83,13.237 C 77.905,13.19 77.923,13.173 77.967,13.194 C 78.013,13.215 78.092,13.261 78.145,13.287 C 78.195,13.31 78.195,13.323 78.199,13.4 C 78.203,13.477 78.21,14.952 78.236,15.172 C 78.242,15.219 78.253,15.21 78.277,15.175"
   id="path2392" />

	<path
   d="M 83.176,11.155 C 83.16,16.669 83.171,20.888 83.149,21.154 C 83.137,21.284 83.072,21.506 82.948,21.662 C 82.766,21.894 82.234,21.933 81.885,21.935 C 81.75,21.935 81.73,21.97 81.733,22.051 C 81.735,22.227 81.734,22.379 81.741,22.524 C 81.745,22.608 81.768,22.613 81.882,22.603 C 82.537,22.548 83.144,22.49 83.952,22.492 C 84.748,22.496 85.182,22.505 85.984,22.568 C 86.139,22.582 86.157,22.586 86.162,22.497 C 86.171,22.345 86.173,22.197 86.166,22.065 C 86.16,21.934 86.148,21.933 86.03,21.926 C 85.779,21.912 85.305,21.905 85.069,21.727 C 84.992,21.671 84.756,21.51 84.751,21.15 C 84.718,18.18 84.728,16.477 84.773,15.905 C 84.789,15.692 84.794,15.636 84.902,15.53 C 85.128,15.311 85.617,14.987 86.012,14.783 C 86.126,14.722 87.542,14.008 88.568,14.828 C 89.344,15.448 89.271,16.304 89.282,16.897 C 89.328,19.323 89.249,20.85 89.249,20.85 C 89.249,20.85 89.237,21.498 88.995,21.696 C 88.793,21.861 88.199,21.9 87.971,21.899 C 87.829,21.898 87.845,21.92 87.836,22.04 C 87.828,22.174 87.823,22.302 87.825,22.446 C 87.829,22.59 87.862,22.566 88.005,22.556 C 88.756,22.496 89.49,22.504 89.989,22.495 C 90.61,22.482 91.331,22.53 91.941,22.599 C 92.119,22.621 92.139,22.626 92.143,22.522 C 92.146,22.402 92.146,22.273 92.138,22.107 C 92.131,21.961 92.137,21.978 91.994,21.964 C 91.673,21.932 91.263,21.904 91.102,21.735 C 90.939,21.562 90.81,21.341 90.804,20.891 C 90.798,20.419 90.89,18.847 90.874,17.891 C 90.859,16.941 91.06,15.294 90.401,14.444 C 89.868,13.754 89.061,13.348 87.785,13.328 C 87.567,13.324 87.36,13.395 87.164,13.468 C 86.466,13.726 85.555,14.333 85.075,14.604 C 84.859,14.724 84.804,14.805 84.792,14.424 C 84.735,12.619 84.76,10.94 84.789,9.915 C 84.806,9.342 84.809,9.032 84.88,8.426 C 84.902,8.259 84.914,8.254 84.822,8.212 C 84.72,8.168 84.641,8.131 84.562,8.088 C 84.487,8.049 84.495,8.063 84.374,8.134 C 83.84,8.449 83.131,8.846 82.108,9.219 C 81.974,9.267 81.989,9.282 81.989,9.351 C 81.99,9.446 81.995,9.612 81.992,9.732 C 81.988,9.821 82.006,9.823 82.119,9.827 C 82.39,9.836 82.786,9.831 82.978,10.136 C 83.109,10.34 83.178,10.538 83.176,11.155"
   id="path2394" />

	<path
   d="M 116.231,22.454 C 116.223,22.486 116.473,22.746 116.521,22.757 C 116.571,22.768 117.055,22.573 117.73,22.423 C 118.473,22.259 119.235,22.235 119.262,22.204 C 119.288,22.173 119.295,21.657 119.271,21.624 C 119.248,21.589 119.182,21.622 118.714,21.573 C 118.279,21.528 117.941,21.249 117.932,20.506 C 117.916,19.07 117.871,16.651 117.911,15.008 C 117.937,13.905 118.019,13.299 117.987,13.281 C 117.966,13.27 117.286,13.35 116.544,13.424 C 115.842,13.494 114.814,13.52 114.794,13.546 C 114.753,13.606 114.761,14.124 114.801,14.171 C 114.831,14.207 115.397,14.199 115.609,14.22 C 116.088,14.266 116.385,14.515 116.385,15.286 C 116.385,16.713 116.363,20.361 116.363,20.361 C 116.363,20.361 115.079,21.455 114.056,21.432 C 112.952,21.41 112.073,21.097 112.06,18.803 C 112.048,16.487 112.087,13.335 112.039,13.296 C 111.987,13.256 111.358,13.378 110.636,13.433 C 110.055,13.478 109.294,13.443 109.257,13.504 C 109.22,13.567 109.215,14.107 109.256,14.151 C 109.286,14.186 109.451,14.184 109.666,14.184 C 110.104,14.184 110.421,14.404 110.42,15.191 C 110.418,16.55 110.563,20.18 110.563,20.18 C 110.563,20.18 110.584,21.262 111.147,21.893 C 111.759,22.575 113.06,23.247 114.883,22.228 C 115.821,21.703 116.309,21.168 116.362,21.201 C 116.392,21.221 116.297,22.199 116.231,22.454"
   id="path2396" />

	<path
   d="M 123.897,13.245 C 123.19,13.151 122.257,13.124 121.309,13.791 C 120.551,14.325 120.305,15.394 120.547,16.386 C 120.71,17.06 121.173,17.526 121.676,17.942 C 122.742,18.826 124.607,19.376 124.351,20.783 C 124.137,21.956 122.43,22.359 121.529,21.531 C 120.9,20.956 120.818,19.942 120.749,19.905 C 120.713,19.886 120.216,19.927 120.188,19.97 C 120.16,20.018 120.451,22.141 120.494,22.205 C 120.531,22.262 122.476,23.141 124.174,22.448 C 125.347,21.971 125.937,20.92 125.816,19.717 C 125.688,18.427 124.53,17.813 123.712,17.275 C 123.238,16.966 122.715,16.65 122.301,16.214 C 121.656,15.535 121.722,14.726 122.321,14.225 C 122.845,13.787 123.618,13.734 124.266,14.307 C 124.895,14.865 124.922,15.487 124.994,15.522 C 125.03,15.541 125.43,15.476 125.456,15.433 C 125.485,15.384 125.309,13.695 125.276,13.637 C 125.266,13.617 124.61,13.341 123.897,13.245"
   id="path2398" />

	<path
   d="M 138.343,15.173 C 138.574,14.829 139.483,13.308 140.932,13.372 C 141.213,13.385 141.709,13.495 141.747,13.888 C 141.785,14.279 141.528,15.28 141.031,15.141 C 140.146,14.892 139.292,14.759 138.708,15.528 C 138.54,15.75 138.354,16.154 138.33,16.971 C 138.31,17.396 138.325,19.408 138.349,21.174 C 138.355,21.737 138.749,21.859 138.859,21.905 C 139.081,21.996 139.501,21.97 139.707,21.986 C 139.747,21.991 139.771,21.999 139.776,22.048 C 139.797,22.227 139.8,22.426 139.774,22.579 C 139.769,22.608 139.762,22.623 139.674,22.619 C 139.457,22.608 138.878,22.546 137.695,22.539 C 136.568,22.532 135.695,22.623 135.434,22.642 C 135.38,22.647 135.349,22.638 135.342,22.6 C 135.318,22.458 135.312,22.277 135.338,22.051 C 135.342,22.023 135.357,22.01 135.411,22.006 C 135.601,21.991 136.179,21.985 136.491,21.752 C 136.659,21.629 136.76,21.467 136.758,21.188 C 136.753,19.645 136.75,18.358 136.755,16.64 C 136.757,16.305 136.673,15.512 136.551,15.274 C 136.378,14.932 135.936,14.943 135.624,14.919 C 135.55,14.914 135.522,14.906 135.52,14.851 C 135.513,14.719 135.512,14.574 135.52,14.469 C 135.525,14.385 135.491,14.383 135.605,14.337 C 136.469,13.986 137.226,13.64 137.897,13.235 C 137.973,13.19 137.99,13.172 138.034,13.193 C 138.081,13.215 138.158,13.261 138.212,13.287 C 138.262,13.31 138.262,13.321 138.266,13.399 C 138.271,13.476 138.277,14.953 138.303,15.171 C 138.308,15.218 138.32,15.209 138.343,15.173"
   id="path2400" />

	<path
   d="M 130.369,16.119 L 130.565,16.119 L 132.516,16.119 C 132.516,16.119 132.995,16.168 132.96,15.473 C 132.923,14.69 132.35,14.102 131.398,14.082 C 130.245,14.057 129.409,14.948 129.116,15.661 C 128.929,16.119 128.892,16.116 129.236,16.118 L 130.364,16.118 L 130.369,16.118 L 130.369,16.119 z M 130.569,16.91 L 130.365,16.912 C 129.515,16.918 128.838,16.935 128.81,16.974 C 128.657,17.178 128.682,18.918 129.246,19.775 C 130.021,20.95 131.151,21.47 132.421,21.427 C 133.378,21.395 134.239,20.727 134.239,20.727 L 134.586,21.211 C 134.053,21.9 131.4,23.857 128.94,21.948 C 126.905,20.371 127.27,17.669 127.386,16.981 C 127.58,15.822 128.631,13.3 131.52,13.297 C 134.29,13.295 134.621,15.6 134.467,16.387 C 134.346,16.99 133.85,16.922 133.85,16.922 C 133.85,16.922 132.023,16.902 130.569,16.91"
   id="path2402" />

	<path
   d="M 97.807,19.279 C 97.811,18.779 97.802,18.332 97.782,18.315 C 97.746,18.282 97.483,18.36 96.727,18.632 C 96.342,18.771 95.435,19.135 95.169,19.37 C 94.75,19.744 94.469,20.224 94.8,21.055 C 95.049,21.684 95.795,21.778 96.388,21.611 C 96.96,21.45 97.659,20.841 97.76,20.672 C 97.779,20.639 97.796,20.029 97.802,19.436 L 97.807,19.279 z M 99.338,19.422 C 99.321,20.041 99.311,20.553 99.311,20.853 C 99.311,21.723 99.788,21.806 99.788,21.806 C 100.235,21.878 100.671,21.496 100.671,21.496 L 100.938,21.894 C 99.441,23.045 98.667,22.864 98.262,22.556 C 97.835,22.236 97.865,21.535 97.77,21.498 C 97.694,21.471 96.512,22.788 95.113,22.796 C 93.477,22.804 92.979,21.555 92.967,20.672 C 92.961,20.255 93.081,19.686 93.688,19.218 C 94.486,18.608 97.69,17.766 97.794,17.594 C 97.868,17.472 97.867,16.642 97.797,15.783 C 97.694,14.571 96.882,14.174 96.193,14.298 C 95.681,14.388 94.915,14.904 94.767,15.121 C 94.669,15.267 94.621,15.593 94.613,15.712 C 94.601,15.891 94.506,16.01 94.385,16.058 C 94.203,16.131 93.731,16.299 93.66,16.313 C 93.359,16.374 93.266,16.275 93.345,15.926 C 93.421,15.587 93.492,15.422 93.61,15.239 C 93.633,15.205 93.723,15.08 93.874,14.977 C 94.573,14.496 96.375,13.373 96.652,13.297 C 97.131,13.169 97.889,13.228 98.656,13.803 C 99.139,14.165 99.427,14.995 99.42,15.82 C 99.407,16.935 99.372,18.22 99.345,19.25 L 99.338,19.422 z"
   id="path2404"
   style="fill-rule:evenodd" />

	<path
   d="M 104.441,16.119 L 104.637,16.119 L 106.589,16.119 C 106.589,16.119 107.068,16.168 107.033,15.473 C 106.996,14.69 106.422,14.102 105.47,14.082 C 104.318,14.057 103.481,14.948 103.188,15.661 C 103.001,16.119 102.964,16.116 103.308,16.118 L 104.436,16.118 L 104.441,16.118 L 104.441,16.119 z M 104.641,16.91 L 104.437,16.912 C 103.588,16.918 102.911,16.935 102.882,16.974 C 102.729,17.178 102.754,18.918 103.319,19.775 C 104.093,20.95 105.223,21.47 106.494,21.427 C 107.451,21.395 108.311,20.727 108.311,20.727 L 108.659,21.211 C 108.125,21.9 105.472,23.857 103.012,21.948 C 100.977,20.371 101.343,17.669 101.458,16.981 C 101.654,15.822 102.704,13.3 105.592,13.297 C 108.363,13.295 108.694,15.6 108.539,16.387 C 108.418,16.99 107.922,16.922 107.922,16.922 C 107.922,16.922 106.095,16.902 104.641,16.91"
   id="path2406" />

	<path
   d="M 70.296,16.119 L 70.494,16.119 L 72.445,16.119 C 72.445,16.119 72.923,16.168 72.888,15.473 C 72.851,14.69 72.278,14.102 71.326,14.082 C 70.174,14.057 69.337,14.948 69.044,15.661 C 68.857,16.119 68.82,16.116 69.164,16.118 L 70.291,16.118 L 70.296,16.118 L 70.296,16.119 z M 70.498,16.91 L 70.293,16.912 C 69.445,16.918 68.767,16.935 68.739,16.974 C 68.586,17.178 68.611,18.918 69.175,19.775 C 69.95,20.95 71.079,21.47 72.35,21.427 C 73.307,21.395 74.168,20.727 74.168,20.727 L 74.516,21.211 C 73.982,21.9 71.329,23.857 68.869,21.948 C 66.834,20.371 67.2,17.669 67.315,16.981 C 67.511,15.822 68.562,13.3 71.449,13.297 C 74.219,13.295 74.55,15.6 74.395,16.387 C 74.275,16.99 73.779,16.922 73.779,16.922 C 73.779,16.922 71.953,16.902 70.498,16.91"
   id="path2408" />

	<path
   d="M 53.092,16.119 L 53.289,16.119 L 55.24,16.119 C 55.24,16.119 55.719,16.168 55.685,15.473 C 55.648,14.69 55.074,14.102 54.123,14.082 C 52.97,14.057 52.134,14.948 51.841,15.661 C 51.653,16.119 51.617,16.116 51.96,16.118 L 53.089,16.118 L 53.092,16.118 L 53.092,16.119 z M 53.293,16.91 L 53.089,16.912 C 52.239,16.918 51.562,16.935 51.534,16.974 C 51.381,17.178 51.405,18.918 51.97,19.775 C 52.744,20.95 53.874,21.47 55.145,21.427 C 56.102,21.395 56.963,20.727 56.963,20.727 L 57.31,21.211 C 56.775,21.9 54.124,23.857 51.663,21.948 C 49.628,20.371 49.993,17.669 50.109,16.981 C 50.304,15.822 51.355,13.3 54.242,13.297 C 57.013,13.295 57.344,15.6 57.189,16.387 C 57.069,16.99 56.573,16.922 56.573,16.922 C 56.573,16.922 54.747,16.902 53.293,16.91"
   id="path2410" />

</g>
  </g>
</svg>
