<?xml version="1.0" encoding="UTF-8" standalone="no"?>
<!-- Created with Inkscape (http://www.inkscape.org/) -->

<svg
   xmlns:dc="http://purl.org/dc/elements/1.1/"
   xmlns:cc="http://creativecommons.org/ns#"
   xmlns:rdf="http://www.w3.org/1999/02/22-rdf-syntax-ns#"
   xmlns:svg="http://www.w3.org/2000/svg"
   xmlns="http://www.w3.org/2000/svg"
   xmlns:sodipodi="http://sodipodi.sourceforge.net/DTD/sodipodi-0.dtd"
   xmlns:inkscape="http://www.inkscape.org/namespaces/inkscape"
   width="245.11467"
   height="56.2187"
   viewBox="0 0 64.853255 14.874531"
   version="1.1"
   id="svg13209"
   inkscape:version="0.92.0 r15299"
   sodipodi:docname="wyndham worldwide.svg">
  <defs
     id="defs13203">
    <clipPath
       id="clipPath12989"
       clipPathUnits="userSpaceOnUse">
      <path
         inkscape:connector-curvature="0"
         id="path12987"
         d="M 0,0 H 612 V 792 H 0 Z" />
    </clipPath>
    <clipPath
       id="clipPath12965"
       clipPathUnits="userSpaceOnUse">
      <path
         inkscape:connector-curvature="0"
         id="path12963"
         d="M 0,0 H 612 V 792 H 0 Z" />
    </clipPath>
    <clipPath
       id="clipPath12937"
       clipPathUnits="userSpaceOnUse">
      <path
         inkscape:connector-curvature="0"
         id="path12935"
         d="M 0,0 H 612 V 792 H 0 Z" />
    </clipPath>
    <clipPath
       id="clipPath12919"
       clipPathUnits="userSpaceOnUse">
      <path
         inkscape:connector-curvature="0"
         id="path12917"
         d="M 0,0 H 612 V 792 H 0 Z" />
    </clipPath>
    <clipPath
       id="clipPath12899"
       clipPathUnits="userSpaceOnUse">
      <path
         inkscape:connector-curvature="0"
         id="path12897"
         d="M 0,0 H 612 V 792 H 0 Z" />
    </clipPath>
  </defs>
  <sodipodi:namedview
     id="base"
     pagecolor="#ffffff"
     bordercolor="#666666"
     borderopacity="1.0"
     inkscape:pageopacity="0.0"
     inkscape:pageshadow="2"
     inkscape:zoom="2.6266373"
     inkscape:cx="125.534"
     inkscape:cy="68.640522"
     inkscape:document-units="mm"
     inkscape:current-layer="layer1"
     showgrid="false"
     fit-margin-top="0"
     fit-margin-left="0"
     fit-margin-right="0"
     fit-margin-bottom="0"
     units="px"
     inkscape:window-width="1280"
     inkscape:window-height="744"
     inkscape:window-x="-4"
     inkscape:window-y="-4"
     inkscape:window-maximized="1" />
  <metadata
     id="metadata13206">
    <rdf:RDF>
      <cc:Work
         rdf:about="">
        <dc:format>image/svg+xml</dc:format>
        <dc:type
           rdf:resource="http://purl.org/dc/dcmitype/StillImage" />
        <dc:title></dc:title>
      </cc:Work>
    </rdf:RDF>
  </metadata>
  <g
     inkscape:label="Layer 1"
     inkscape:groupmode="layer"
     id="layer1"
     transform="translate(-14.707004,-182.70887)">
    <g
       id="g13364"
       style="fill:#0074c2;fill-opacity:0.99607843"
       transform="translate(0.26458457,-0.26457741)">
      <g
         style="fill:#0074c2;fill-opacity:0.99607843"
         transform="matrix(0.35277777,0,0,-0.35277777,26.489958,193.94607)"
         id="g12889">
        <path
           inkscape:connector-curvature="0"
           id="path12891"
           style="fill:#0074c2;fill-opacity:0.99607843;fill-rule:nonzero;stroke:none"
           d="M 0,0 H 1.926 L 4.344,-7.516 6.835,0.029 H 8.341 L 10.832,-7.516 13.25,0 h 1.869 L 11.585,-10.209 H 10.05 L 7.559,-2.925 5.068,-10.209 H 3.533 Z" />
      </g>
      <g
         style="fill:#0074c2;fill-opacity:0.99607843"
         transform="matrix(0.35277777,0,0,-0.35277777,-61.08095,216.25804)"
         id="g12893">
        <g
           style="fill:#0074c2;fill-opacity:0.99607843"
           clip-path="url(#clipPath12899)"
           id="g12895">
          <g
             style="fill:#0074c2;fill-opacity:0.99607843"
             transform="translate(266.2001,58.149)"
             id="g12901">
            <path
               inkscape:connector-curvature="0"
               id="path12903"
               style="fill:#0074c2;fill-opacity:0.99607843;fill-rule:nonzero;stroke:none"
               d="m 0,0 v 0.029 c 0,2.853 2.201,5.242 5.315,5.242 3.113,0 5.285,-2.36 5.285,-5.213 V 0.029 C 10.6,-2.824 8.399,-5.213 5.286,-5.213 2.172,-5.213 0,-2.853 0,0 m 8.732,0 v 0.029 c 0,1.97 -1.433,3.606 -3.446,3.606 -2.013,0 -3.418,-1.608 -3.418,-3.577 V 0.029 c 0,-1.969 1.434,-3.606 3.447,-3.606 2.012,0 3.417,1.608 3.417,3.577" />
          </g>
          <g
             style="fill:#0074c2;fill-opacity:0.99607843"
             transform="translate(280.983,63.2465)"
             id="g12905">
            <path
               inkscape:connector-curvature="0"
               id="path12907"
               style="fill:#0074c2;fill-opacity:0.99607843;fill-rule:nonzero;stroke:none"
               d="m 0,0 h 4.518 c 1.275,0 2.274,-0.376 2.925,-1.013 0.536,-0.551 0.84,-1.304 0.84,-2.187 v -0.029 c 0,-1.666 -0.999,-2.665 -2.418,-3.07 l 2.737,-3.838 h -2.1 L 4.011,-6.603 H 3.982 1.781 v -3.534 H 0 Z m 4.388,-5.025 c 1.274,0 2.085,0.667 2.085,1.695 v 0.029 c 0,1.085 -0.782,1.679 -2.1,1.679 H 1.781 v -3.403 z" />
          </g>
        </g>
      </g>
      <g
         style="fill:#0074c2;fill-opacity:0.99607843"
         transform="matrix(0.35277777,0,0,-0.35277777,42.451776,193.94607)"
         id="g12909">
        <path
           inkscape:connector-curvature="0"
           id="path12911"
           style="fill:#0074c2;fill-opacity:0.99607843;fill-rule:nonzero;stroke:none"
           d="M 0,0 H 1.781 V -8.515 H 7.11 v -1.622 H 0 Z" />
      </g>
      <g
         style="fill:#0074c2;fill-opacity:0.99607843"
         transform="matrix(0.35277777,0,0,-0.35277777,-61.08095,216.25804)"
         id="g12913">
        <g
           style="fill:#0074c2;fill-opacity:0.99607843"
           clip-path="url(#clipPath12919)"
           id="g12915">
          <g
             style="fill:#0074c2;fill-opacity:0.99607843"
             transform="translate(304.4684,63.2465)"
             id="g12921">
            <path
               inkscape:connector-curvature="0"
               id="path12923"
               style="fill:#0074c2;fill-opacity:0.99607843;fill-rule:nonzero;stroke:none"
               d="m 0,0 h 3.78 c 3.186,0 5.387,-2.187 5.387,-5.039 v -0.029 c 0,-2.853 -2.201,-5.069 -5.387,-5.069 H 0 Z m 3.78,-8.515 c 2.128,0 3.519,1.433 3.519,3.418 v 0.029 c 0,1.984 -1.391,3.446 -3.519,3.446 H 1.781 v -6.893 z" />
          </g>
        </g>
      </g>
      <g
         style="fill:#0074c2;fill-opacity:0.99607843"
         transform="matrix(0.35277777,0,0,-0.35277777,50.567923,193.94607)"
         id="g12925">
        <path
           inkscape:connector-curvature="0"
           id="path12927"
           style="fill:#0074c2;fill-opacity:0.99607843;fill-rule:nonzero;stroke:none"
           d="M 0,0 H 1.926 L 4.344,-7.516 6.835,0.029 H 8.341 L 10.832,-7.516 13.25,0 h 1.869 L 11.585,-10.209 H 10.05 L 7.559,-2.925 5.068,-10.209 H 3.534 Z" />
      </g>
      <path
         inkscape:connector-curvature="0"
         id="path12929"
         style="fill:#0074c2;fill-opacity:0.99607843;fill-rule:nonzero;stroke:none;stroke-width:0.35277778"
         d="m 57.295041,193.9459 h 0.628298 v 3.57611 h -0.628298 z" />
      <g
         style="fill:#0074c2;fill-opacity:0.99607843"
         transform="matrix(0.35277777,0,0,-0.35277777,-61.08095,216.25804)"
         id="g12931">
        <g
           style="fill:#0074c2;fill-opacity:0.99607843"
           clip-path="url(#clipPath12937)"
           id="g12933">
          <g
             style="fill:#0074c2;fill-opacity:0.99607843"
             transform="translate(342.0692,63.2465)"
             id="g12939">
            <path
               inkscape:connector-curvature="0"
               id="path12941"
               style="fill:#0074c2;fill-opacity:0.99607843;fill-rule:nonzero;stroke:none"
               d="m 0,0 h 3.78 c 3.186,0 5.387,-2.187 5.387,-5.039 v -0.029 c 0,-2.853 -2.201,-5.069 -5.387,-5.069 H 0 Z m 3.78,-8.515 c 2.129,0 3.519,1.433 3.519,3.418 v 0.029 c 0,1.984 -1.39,3.446 -3.519,3.446 H 1.781 v -6.893 z" />
          </g>
        </g>
      </g>
      <g
         style="fill:#0074c2;fill-opacity:0.99607843"
         transform="matrix(0.35277777,0,0,-0.35277777,64.302973,193.94607)"
         id="g12943">
        <path
           inkscape:connector-curvature="0"
           id="path12945"
           style="fill:#0074c2;fill-opacity:0.99607843;fill-rule:nonzero;stroke:none"
           d="M 0,0 H 7.516 V -1.593 H 1.781 V -4.228 H 6.865 V -5.822 H 1.781 v -2.722 h 5.808 v -1.593 H 0 Z" />
      </g>
      <g
         style="fill:#0074c2;fill-opacity:0.99607843"
         transform="matrix(0.35277777,0,0,-0.35277777,21.186824,183.28439)"
         id="g12947">
        <path
           inkscape:connector-curvature="0"
           id="path12949"
           style="fill:#0074c2;fill-opacity:0.99607843;fill-rule:nonzero;stroke:none"
           d="m 0,0 h 3.495 l 4.39,-13.641 4.52,13.693 h 2.734 L 19.659,-13.641 24.048,0 h 3.391 L 21.026,-18.529 H 18.24 l -4.521,13.22 -4.52,-13.22 H 6.413 Z" />
      </g>
      <g
         style="fill:#0074c2;fill-opacity:0.99607843"
         transform="matrix(0.35277777,0,0,-0.35277777,33.760708,187.21567)"
         id="g12951">
        <path
           inkscape:connector-curvature="0"
           id="path12953"
           style="fill:#0074c2;fill-opacity:0.99607843;fill-rule:nonzero;stroke:none"
           d="m 0,0 -7.307,11.144 h 3.811 L 1.656,2.996 6.86,11.144 h 3.705 L 3.259,0.079 V -7.254 H 0 Z" />
      </g>
      <g
         style="fill:#0074c2;fill-opacity:0.99607843"
         transform="matrix(0.35277777,0,0,-0.35277777,38.119171,183.28439)"
         id="g12955">
        <path
           inkscape:connector-curvature="0"
           id="path12957"
           style="fill:#0074c2;fill-opacity:0.99607843;fill-rule:nonzero;stroke:none"
           d="m 0,0 h 2.996 l 9.856,-12.721 V 0 h 3.18 V -18.398 H 13.325 L 3.18,-5.309 V -18.398 H 0 Z" />
      </g>
      <g
         style="fill:#0074c2;fill-opacity:0.99607843"
         transform="matrix(0.35277777,0,0,-0.35277777,-61.08095,216.25804)"
         id="g12959">
        <g
           style="fill:#0074c2;fill-opacity:0.99607843"
           clip-path="url(#clipPath12965)"
           id="g12961">
          <g
             style="fill:#0074c2;fill-opacity:0.99607843"
             transform="translate(301.438,93.4686)"
             id="g12967">
            <path
               inkscape:connector-curvature="0"
               id="path12969"
               style="fill:#0074c2;fill-opacity:0.99607843;fill-rule:nonzero;stroke:none"
               d="m 0,0 h 6.859 c 5.782,0 9.778,-3.969 9.778,-9.146 v -0.053 c 0,-5.178 -3.996,-9.199 -9.778,-9.199 H 0 Z m 6.859,-15.454 c 3.864,0 6.386,2.602 6.386,6.203 v 0.052 c 0,3.601 -2.522,6.255 -6.386,6.255 H 3.232 v -12.51 z" />
          </g>
        </g>
      </g>
      <g
         style="fill:#0074c2;fill-opacity:0.99607843"
         transform="matrix(0.35277777,0,0,-0.35277777,52.325954,183.28439)"
         id="g12971">
        <path
           inkscape:connector-curvature="0"
           id="path12973"
           style="fill:#0074c2;fill-opacity:0.99607843;fill-rule:nonzero;stroke:none"
           d="m 0,0 h 3.232 v -7.648 h 8.779 V 0 h 3.232 v -18.398 h -3.232 v 7.754 H 3.232 v -7.754 H 0 Z" />
      </g>
      <g
         style="fill:#0074c2;fill-opacity:0.99607843"
         transform="matrix(0.35277777,0,0,-0.35277777,61.487099,183.23803)"
         id="g12975">
        <path
           inkscape:connector-curvature="0"
           id="path12977"
           style="fill:#0074c2;fill-opacity:0.99607843;fill-rule:nonzero;stroke:none"
           d="m 0,0 h 2.997 l 8.094,-18.529 H 7.674 l -1.866,4.442 h -8.699 l -1.893,-4.442 h -3.312 z m 4.626,-11.223 -3.18,7.359 -3.155,-7.359 z" />
      </g>
      <g
         style="fill:#0074c2;fill-opacity:0.99607843"
         transform="matrix(0.35277777,0,0,-0.35277777,66.142742,183.28439)"
         id="g12979">
        <path
           inkscape:connector-curvature="0"
           id="path12981"
           style="fill:#0074c2;fill-opacity:0.99607843;fill-rule:nonzero;stroke:none"
           d="M 0,0 H 3.443 L 9.04,-8.699 14.639,0 h 3.442 V -18.398 H 14.849 V -5.204 L 9.04,-13.877 H 8.936 l -5.757,8.62 V -18.398 H 0 Z" />
      </g>
      <g
         style="fill:#0074c2;fill-opacity:0.99607843"
         transform="matrix(0.35277777,0,0,-0.35277777,-61.08095,216.25804)"
         id="g12983">
        <g
           style="fill:#0074c2;fill-opacity:0.99607843"
           clip-path="url(#clipPath12989)"
           id="g12985">
          <g
             style="fill:#0074c2;fill-opacity:0.99607843"
             transform="translate(214.832,64.1241)"
             id="g12991">
            <path
               inkscape:connector-curvature="0"
               id="path12993"
               style="fill:#0074c2;fill-opacity:0.99607843;fill-rule:nonzero;stroke:none"
               d="m 0,0 c 0,0 24.774,7.732 90.988,7.732 66.695,0 91.348,-7.685 91.348,-7.685 0,0 -30.16,5.273 -91.348,5.273 C 29.801,5.32 0,0 0,0" />
          </g>
        </g>
      </g>
    </g>
  </g>
</svg>
