<?xml version="1.0" encoding="UTF-8" standalone="no"?>
<!-- Created with Inkscape (http://www.inkscape.org/) -->

<svg
   xmlns:dc="http://purl.org/dc/elements/1.1/"
   xmlns:cc="http://creativecommons.org/ns#"
   xmlns:rdf="http://www.w3.org/1999/02/22-rdf-syntax-ns#"
   xmlns:svg="http://www.w3.org/2000/svg"
   xmlns="http://www.w3.org/2000/svg"
   xmlns:sodipodi="http://sodipodi.sourceforge.net/DTD/sodipodi-0.dtd"
   xmlns:inkscape="http://www.inkscape.org/namespaces/inkscape"
   id="svg2995"
   version="1.1"
   inkscape:version="0.48.2 r9819"
   width="323.73608"
   height="212.94495"
   sodipodi:docname="Wynn_Resorts_logo.svg">
  <metadata
     id="metadata3001">
    <rdf:RDF>
      <cc:Work
         rdf:about="">
        <dc:format>image/svg+xml</dc:format>
        <dc:type
           rdf:resource="http://purl.org/dc/dcmitype/StillImage" />
        <dc:title></dc:title>
      </cc:Work>
    </rdf:RDF>
  </metadata>
  <defs
     id="defs2999" />
  <sodipodi:namedview
     pagecolor="#ffffff"
     bordercolor="#666666"
     borderopacity="1"
     objecttolerance="10"
     gridtolerance="10"
     guidetolerance="10"
     inkscape:pageopacity="0"
     inkscape:pageshadow="2"
     inkscape:window-width="1366"
     inkscape:window-height="706"
     id="namedview2997"
     showgrid="false"
     inkscape:zoom="1"
     inkscape:cx="332.71436"
     inkscape:cy="13.778448"
     inkscape:window-x="-8"
     inkscape:window-y="-8"
     inkscape:window-maximized="1"
     inkscape:current-layer="svg2995"
     showguides="true"
     inkscape:guide-bbox="true"
     showborder="false"
     inkscape:showpageshadow="false"
     fit-margin-top="0"
     fit-margin-left="0"
     fit-margin-right="0"
     fit-margin-bottom="0" />
  <rect
     style="fill:#000000;fill-opacity:1;stroke:none"
     id="rect4244"
     width="323.73608"
     height="212.94495"
     x="0"
     y="0" />
  <path
     inkscape:connector-curvature="0"
     style="fill:#ffffff;stroke:none"
     d="m 227.76354,146.7695 c -2.37029,0 -4.29175,1.85881 -4.29175,4.15231 0,2.2935 1.92146,4.15307 4.29175,4.15307 2.3703,0 4.29175,-1.85957 4.29175,-4.15307 0,-2.2935 -1.92145,-4.15231 -4.29175,-4.15231 z m -0.0165,0.60638 c 2.02278,0 3.6626,1.58763 3.6626,3.54593 0,1.95829 -1.63982,3.54593 -3.6626,3.54593 -2.02276,0 -3.6626,-1.58764 -3.6626,-3.54593 0,-1.9583 1.63984,-3.54593 3.6626,-3.54593 z"
     id="path3575" />
  <rect
     style="fill:#ffffff;stroke:none"
     id="rect3578"
     width="0.45176882"
     height="3.7215097"
     x="226.44037"
     y="148.94151" />
  <rect
     y="-228.73148"
     x="150.76233"
     height="1.9200172"
     width="0.44721833"
     id="rect3580"
     style="fill:#ffffff;stroke:none"
     transform="matrix(0,1,-1,0,0,0)" />
  <rect
     transform="matrix(-0.99999832,0.00183351,-0.01204637,-0.99992744,0,0)"
     style="fill:#ffffff;stroke:none"
     id="rect3582"
     width="0.4390609"
     height="1.0548387"
     x="-227.59311"
     y="-153.09061" />
  <rect
     transform="matrix(0,1,-1,0,0,0)"
     style="fill:#ffffff;stroke:none"
     id="rect3584"
     width="0.44721833"
     height="1.8877479"
     x="148.94151"
     y="-228.65077" />
  <path
     style="fill:#ffffff;stroke:none"
     d="m 228.81496,151.07276 c -0.0456,7e-4 -0.0921,0.009 -0.13833,0.0227 -0.0383,0.0113 -0.0745,0.0274 -0.10747,0.0462 0.13479,0.0572 0.25156,0.18574 0.30431,0.35598 0.007,0.0212 0.0114,0.043 0.0157,0.0642 l 0.11139,0.28012 c 0.19529,-0.0971 0.30221,-0.30241 0.24343,-0.49215 -0.0541,-0.17477 -0.23204,-0.2828 -0.42917,-0.27696 z"
     id="path3586"
     inkscape:connector-curvature="0" />
  <path
     inkscape:connector-curvature="0"
     id="path3596"
     d="m 229.06367,151.25409 c -0.0416,-0.004 -0.0853,-0.004 -0.12953,0.003 -0.0366,0.007 -0.0718,0.0163 -0.10459,0.03 0.11534,0.0762 0.20443,0.22035 0.22923,0.39644 0.003,0.0219 0.005,0.0442 0.005,0.0658 l 0.0633,0.29329 c 0.19182,-0.0675 0.31773,-0.2551 0.29007,-0.45133 -0.0255,-0.18075 -0.17325,-0.31354 -0.35419,-0.33647 z"
     style="fill:#ffffff;stroke:none" />
  <path
     style="fill:#ffffff;stroke:none"
     d="m 229.05741,151.15824 c -0.0349,-0.004 -0.0713,-0.004 -0.10824,0.003 -0.0306,0.007 -0.0599,0.0163 -0.0873,0.0301 0.0963,0.0762 0.17076,0.22035 0.19148,0.39643 0.003,0.0219 0.004,0.0442 0.005,0.0658 l 0.053,0.29328 c 0.16026,-0.0675 0.26543,-0.2551 0.24234,-0.45134 -0.0212,-0.18074 -0.14475,-0.31353 -0.29592,-0.33646 z"
     id="path3598"
     inkscape:connector-curvature="0" />
  <path
     inkscape:connector-curvature="0"
     id="path3600"
     d="m 228.7108,150.92463 c -0.0345,-0.008 -0.0684,-0.0204 -0.10042,-0.04 -0.0266,-0.0163 -0.0503,-0.0362 -0.0709,-0.0587 0.11734,-0.0374 0.23851,-0.14625 0.32088,-0.30367 0.0102,-0.0197 0.0195,-0.0399 0.0279,-0.0598 l 0.15443,-0.25574 c 0.12569,0.11945 0.157,0.33162 0.0652,0.50703 -0.0846,0.16159 -0.2475,0.24251 -0.39708,0.21097 z"
     style="fill:#ffffff;stroke:none" />
  <path
     style="fill:#ffffff;stroke:none"
     d="m 229.01323,150.59787 c -0.0352,0.003 -0.0714,-1.7e-4 -0.10772,-0.01 -0.0302,-0.008 -0.0587,-0.0205 -0.085,-0.0361 0.10154,-0.0692 0.18615,-0.20778 0.21945,-0.38195 0.004,-0.0217 0.007,-0.0438 0.009,-0.0651 l 0.0738,-0.28883 c 0.155,0.0787 0.24646,0.2731 0.20935,0.46722 -0.0342,0.17879 -0.16688,0.30256 -0.31933,0.31481 z"
     id="path3602"
     inkscape:connector-curvature="0" />
  <path
     inkscape:connector-curvature="0"
     id="path3604"
     d="m 229.01323,149.62517 c -0.0352,-0.003 -0.0714,1.8e-4 -0.10772,0.01 -0.0302,0.008 -0.0587,0.0205 -0.085,0.0361 0.10154,0.0692 0.18615,0.20782 0.21945,0.38199 0.004,0.0216 0.007,0.0438 0.009,0.0651 l 0.0738,0.28882 c 0.155,-0.0787 0.24646,-0.27311 0.20935,-0.46721 -0.0342,-0.17881 -0.16688,-0.30258 -0.31933,-0.31482 z"
     style="fill:#ffffff;stroke:none" />
  <path
     style="fill:#ffffff;stroke:none"
     d="m 228.58652,149.23678 c -0.0397,0.009 -0.0784,0.0245 -0.11432,0.0459 -0.0297,0.0178 -0.056,0.0392 -0.0786,0.0628 0.13956,0.0304 0.28856,0.13181 0.39578,0.28406 0.0134,0.0189 0.0255,0.0388 0.0368,0.0581 l 0.19823,0.24612 c 0.13814,-0.12668 0.15968,-0.34032 0.0402,-0.51 -0.11001,-0.15629 -0.30585,-0.22737 -0.4781,-0.18702 z"
     id="path3606"
     inkscape:connector-curvature="0" />
  <path
     inkscape:connector-curvature="0"
     id="path3608"
     d="m 228.52641,148.94929 c -0.034,0.009 -0.067,0.0245 -0.0977,0.0459 -0.0255,0.0178 -0.0479,0.0392 -0.0672,0.0628 0.11937,0.0305 0.24693,0.13183 0.33869,0.28407 0.0114,0.0189 0.0219,0.0388 0.0315,0.0581 l 0.16962,0.2461 c 0.11823,-0.12667 0.13665,-0.34032 0.0344,-0.51 -0.0942,-0.15627 -0.26174,-0.22736 -0.40914,-0.18702 z"
     style="fill:#ffffff;stroke:none" />
  <path
     style="fill:#ffffff;stroke:none"
     d="m 228.52218,149.05274 c -0.0313,0.0161 -0.0604,0.0378 -0.086,0.0651 -0.0212,0.0226 -0.0387,0.0481 -0.0526,0.0752 0.12315,0.004 0.26926,0.078 0.39103,0.20799 0.0152,0.0161 0.0295,0.0334 0.043,0.0502 l 0.21769,0.20574 c 0.089,-0.14826 0.0621,-0.36104 -0.0737,-0.50588 -0.12492,-0.13346 -0.30383,-0.16844 -0.43951,-0.0985 z"
     id="path3610"
     inkscape:connector-curvature="0" />
  <path
     inkscape:connector-curvature="0"
     id="path3612"
     d="m 228.58673,149.1326 c -0.0313,0.0161 -0.0604,0.0378 -0.086,0.0651 -0.0211,0.0226 -0.0387,0.0481 -0.0525,0.0752 0.12317,0.004 0.26925,0.078 0.39102,0.208 0.0152,0.0161 0.0295,0.0334 0.043,0.0502 l 0.21771,0.20573 c 0.089,-0.14826 0.0621,-0.36102 -0.0737,-0.50589 -0.12495,-0.13342 -0.30385,-0.16839 -0.43952,-0.0985 z"
     style="fill:#ffffff;stroke:none" />
  <path
     style="fill:#ffffff;stroke:none"
     d="m 228.90897,149.25642 c -0.0353,-0.003 -0.0714,7e-4 -0.10748,0.0125 -0.0299,0.009 -0.0581,0.0219 -0.084,0.038 0.10319,0.0668 0.19108,0.20336 0.22858,0.37672 0.005,0.0216 0.007,0.0437 0.0114,0.0649 l 0.0808,0.28702 c 0.15305,-0.0823 0.23982,-0.27885 0.19804,-0.47203 -0.0384,-0.17795 -0.17409,-0.29857 -0.32679,-0.30721 z"
     id="path3614"
     inkscape:connector-curvature="0" />
  <path
     inkscape:connector-curvature="0"
     id="path3616"
     d="m 228.97349,149.35226 c -0.0353,-0.003 -0.0714,7e-4 -0.10748,0.0125 -0.0299,0.009 -0.0581,0.0219 -0.084,0.0381 0.10318,0.0669 0.1911,0.20335 0.22858,0.3767 0.004,0.0216 0.007,0.0437 0.0114,0.0649 l 0.0807,0.28703 c 0.15303,-0.0824 0.23982,-0.27886 0.19804,-0.47205 -0.0384,-0.17794 -0.1741,-0.29856 -0.32678,-0.30719 z"
     style="fill:#ffffff;stroke:none" />
  <path
     style="fill:#ffffff;stroke:none"
     d="m 229.12621,149.55355 c -0.0339,-0.01 -0.07,-0.0137 -0.10761,-0.0113 -0.0311,0.003 -0.0615,0.009 -0.0905,0.0189 0.0859,0.0876 0.1413,0.23991 0.13941,0.4172 -2.2e-4,0.022 -7e-4,0.0443 -0.004,0.0658 l 0.0152,0.29756 c 0.1676,-0.047 0.29585,-0.21989 0.29797,-0.41744 0.003,-0.18198 -0.10357,-0.32911 -0.25065,-0.37077 z"
     id="path3618"
     inkscape:connector-curvature="0" />
  <path
     inkscape:connector-curvature="0"
     id="path3620"
     d="m 229.21762,149.76872 c -0.0299,-0.0184 -0.0637,-0.032 -0.10054,-0.0397 -0.0305,-0.007 -0.0617,-0.009 -0.0923,-0.007 0.0585,0.10739 0.0702,0.26889 0.0196,0.439 -0.007,0.0212 -0.0139,0.0422 -0.0215,0.0623 l -0.0671,0.29044 c 0.17422,-2.3e-4 0.34508,-0.13204 0.40133,-0.32159 0.0518,-0.17461 -0.009,-0.34459 -0.13944,-0.42423 z"
     style="fill:#ffffff;stroke:none" />
  <path
     inkscape:connector-curvature="0"
     id="path3622"
     d="m 229.15923,149.76677 c -0.0305,-0.0177 -0.0645,-0.0304 -0.10155,-0.0372 -0.0306,-0.004 -0.0619,-0.007 -0.0924,-0.003 0.0612,0.1059 0.0771,0.267 0.031,0.43834 -0.007,0.0213 -0.0128,0.0425 -0.0199,0.0628 l -0.0596,0.29206 c 0.17413,-0.004 0.34149,-0.14084 0.39276,-0.33177 0.0473,-0.17586 -0.0184,-0.34424 -0.15049,-0.42052 z"
     style="fill:#ffffff;stroke:none" />
  <path
     style="fill:#ffffff;stroke:none"
     d="m 229.08972,149.76609 c -0.0333,-0.0113 -0.0691,-0.0176 -0.10686,-0.0171 -0.0313,2.6e-4 -0.0619,0.004 -0.0914,0.0137 0.0808,0.0923 0.12748,0.24741 0.11557,0.42429 -7e-4,0.022 -0.004,0.0442 -0.007,0.0655 l -7e-4,0.29793 c 0.16999,-0.0376 0.30784,-0.2031 0.32114,-0.40023 0.0127,-0.18157 -0.0847,-0.33433 -0.22921,-0.3841 z"
     id="path3624"
     inkscape:connector-curvature="0" />
  <path
     inkscape:connector-curvature="0"
     id="path3626"
     d="m 229.12197,149.46263 c -0.0333,-0.0113 -0.0692,-0.0176 -0.10685,-0.0171 -0.0312,2.5e-4 -0.0619,0.004 -0.0914,0.0137 0.0808,0.0923 0.12747,0.24741 0.11559,0.42432 -7e-4,0.022 -0.004,0.0441 -0.007,0.0655 l -7e-4,0.29791 c 0.16998,-0.0377 0.30784,-0.20308 0.32114,-0.4002 0.0127,-0.18157 -0.0847,-0.33436 -0.22922,-0.38411 z"
     style="fill:#ffffff;stroke:none" />
  <path
     inkscape:connector-curvature="0"
     id="path3630"
     d="m 228.93158,151.38345 c 0.0269,0.004 0.0549,0.004 0.0833,-0.003 0.0235,-0.007 0.0461,-0.0163 0.0673,-0.03 -0.0742,-0.0761 -0.13153,-0.22036 -0.14749,-0.39644 -0.003,-0.0219 -0.003,-0.0442 -0.004,-0.0658 l -0.0407,-0.29328 c -0.12342,0.0675 -0.20444,0.25509 -0.18663,0.45133 0.0164,0.18074 0.11152,0.31354 0.22791,0.33647 z"
     style="fill:#ffffff;stroke:none" />
  <path
     style="fill:#ffffff;stroke:none"
     d="m 229.23177,150.22106 c -0.0238,-0.0286 -0.0537,-0.0546 -0.0898,-0.0761 -0.0299,-0.018 -0.0628,-0.0318 -0.0968,-0.0421 0.0127,0.12156 -0.0517,0.27429 -0.18708,0.41041 -0.0168,0.0169 -0.035,0.0333 -0.053,0.0487 l -0.2104,0.23991 c 0.18851,0.0685 0.43587,0.015 0.58664,-0.13668 0.1389,-0.13973 0.1534,-0.31977 0.0505,-0.4441 z"
     id="path3632"
     inkscape:connector-curvature="0" />
  <path
     style="fill:#ffffff;stroke:none"
     d="m 161.66575,102.10312 c -4.14643,4.7399 -8.8042,9.23349 -13.96318,13.43579 4.41447,5.5871 9.07534,10.71467 13.92349,15.32592 5.29798,-4.97762 10.09061,-10.16988 14.32968,-15.51135 -5.19722,-4.02703 -9.98162,-8.44556 -14.28999,-13.25036 z m 14.38664,13.32868 c 0.0136,0.0798 0.0272,0.16051 0.0404,0.24045 l 0.0868,-0.14483 c -0.042,-0.0322 -0.0854,-0.063 -0.12731,-0.0956 z m -15.55015,16.47961 c -0.0554,0 -0.11081,0.007 -0.16622,0.01 l 0.0878,0.0651 c 0.0265,-0.0245 0.0519,-0.0504 0.0784,-0.0747 z"
     id="rect3231"
     inkscape:connector-curvature="0" />
  <path
     inkscape:connector-curvature="0"
     id="path3634"
     d="m 229.32857,150.04537 c -0.0153,-0.0286 -0.0346,-0.0546 -0.058,-0.0761 -0.0193,-0.018 -0.0406,-0.0318 -0.0624,-0.0421 0.007,0.12169 -0.0333,0.27432 -0.12076,0.41041 -0.0114,0.0169 -0.0226,0.0333 -0.0341,0.0487 l -0.1358,0.23991 c 0.12165,0.0685 0.28133,0.015 0.37866,-0.1367 0.0897,-0.1397 0.099,-0.31975 0.0326,-0.44408 z"
     style="fill:#ffffff;stroke:none" />
  <path
     style="fill:#ffffff;stroke:none"
     d="m 94.365387,188.47746 0,16.55937 2.581247,0 0,-12.62186 10.959386,12.55622 0.0656,0.0656 0.19687,0 2.34062,0 0,-16.55936 -2.60312,0 0,12.59999 -10.959385,-12.57812 0,-0.0218 -0.02183,0 -2.559376,0 z"
     id="rect3061"
     inkscape:connector-curvature="0" />
  <path
     id="path3090"
     d="m 119.05249,188.47746 0,16.55937 2.58125,0 0,-12.62186 10.95939,12.55622 0.0656,0.0656 0.19687,0 2.34063,0 0,-16.55936 -2.60313,0 0,12.59999 -10.95939,-12.57812 0,-0.0218 -0.0218,0 -2.55938,0 z"
     style="fill:#ffffff;stroke:none"
     inkscape:connector-curvature="0" />
  <path
     style="fill:#ffffff;stroke:none"
     d="m 71.37476,188.43371 0.48125,0.54688 1.290623,1.4875 5.66563,6.49687 0,8.02811 2.603125,0 0,-7.87499 5.796877,-6.64999 1.290616,-1.4875 0.437502,-0.50313 -2.296867,0 -1.159375,0 -4.790628,5.53438 -1.006249,0 -4.812507,-5.53438 -1.159375,0 -2.231253,0 0,-0.0437 -0.109369,0 z"
     id="rect3047"
     inkscape:connector-curvature="0" />
  <path
     style="fill:#ffffff;fill-rule:evenodd;stroke:none"
     d="m 43.221623,188.47746 0.546876,1.26876 4.178126,9.90935 1.09375,2.58126 0.08751,0.19687 0.196875,0.45937 0.196874,0.50312 0.546876,1.26876 0.721876,0 0.962498,-2.23125 0.08751,-0.19687 0.30625,-0.72188 0.7,-1.64063 3.084377,-7.32811 4.090626,9.69062 0.06559,0.19687 0.02183,0 0.240626,0.59063 0.153125,0.37186 0.546875,1.26876 0.721874,0 0.56875,-1.29062 0.393751,-0.94063 0.0875,-0.19687 4.353127,-10.32499 0.196875,-0.4375 1.290626,-2.99688 -2.843752,0 -0.0875,0.21875 -0.06559,0.17501 -4.243752,10.01873 -3.543752,-8.46561 -0.721875,-1.68437 0,-0.0218 -0.109376,-0.24062 -2.187499,0 -0.131249,0.28437 -0.13125,0.32813 -4.156253,9.79999 -4.200001,-9.95312 -0.08749,-0.21875 -0.131251,-0.24062 -2.8,0 z"
     id="rect3018"
     inkscape:connector-curvature="0" />
  <path
     style="fill:#ffffff;fill-rule:evenodd;stroke:none"
     d="m 176.76855,188.41183 0,0.0218 -0.0656,0 0,14.17498 0,2.40625 2.58126,0 7.98437,0 0,-2.40625 -7.98437,0 0,-5.14061 8.04999,0 0,-2.40626 -8.04999,0 0,-4.24374 8.04999,0 0,-2.40626 -10.56561,0 z"
     id="rect3022"
     inkscape:connector-curvature="0" />
  <path
     style="fill:#ffffff;stroke:none"
     d="m 252.63106,188.45559 0,2.27499 6.45313,0 0,14.30625 2.60314,0 0,-14.30625 6.2125,0 0,-2.27499 -6.2125,0 -2.60314,0 -6.45313,0 z"
     id="rect3031"
     inkscape:connector-curvature="0" />
  <path
     style="fill:#ffffff;stroke:none"
     d="m 219.38105,187.97176 c -5.20294,0 -9.42812,3.87613 -9.42812,8.66378 0,4.78766 4.22518,8.66378 9.42812,8.66378 5.20295,0 9.42813,-3.87612 9.42813,-8.66378 0,-4.78765 -4.22518,-8.66378 -9.42813,-8.66378 z m -0.0656,2.10623 c 3.85267,0 6.97813,2.90399 6.97813,6.49241 0,3.58842 -3.12546,6.49241 -6.97813,6.49241 -3.85267,0 -6.97813,-2.90399 -6.97813,-6.49241 0,-3.58842 3.12546,-6.49241 6.97813,-6.49241 z"
     id="path3038"
     inkscape:connector-curvature="0" />
  <path
     style="fill:#ffffff;fill-opacity:1;stroke:#ffffff;stroke-width:0.34649444;stroke-miterlimit:4;stroke-opacity:0.94117647;stroke-dasharray:none"
     d="m 199.47819,187.8981 c -2.85112,0 -5.1625,2.07073 -5.1625,4.61562 0,1.30207 0.62316,2.47086 1.59687,3.30311 0.19697,0.14319 0.37498,0.28079 0.59062,0.41562 1.06813,0.66782 2.27285,1.19301 3.50001,1.53126 1.19111,0.34462 2.07812,1.38237 2.07812,2.62501 0,0.45646 -0.14153,0.89105 -0.35,1.26874 -0.008,0.0137 -0.0142,0.0302 -0.0219,0.0437 -0.49304,0.85737 -1.46065,1.42187 -2.55938,1.42187 -0.38831,0 -0.74033,-0.0876 -1.07187,-0.21875 -0.019,-0.007 -0.0469,0.008 -0.0656,0 -0.2245,-0.0409 -0.45037,-0.08 -0.67812,-0.15312 -0.33317,-0.10695 -0.63593,-0.25983 -0.91875,-0.41563 -0.10503,-0.0524 -0.20371,-0.116 -0.30625,-0.175 -0.0568,-0.0327 -0.11904,-0.0528 -0.175,-0.0875 -0.46351,-0.28774 -0.82624,-0.61875 -1.11563,-0.96249 l 0,2.36249 c 0.28685,0.24986 0.61811,0.45525 0.98438,0.63437 0.21993,0.15224 0.58636,0.25105 0.83125,0.37188 0.13355,0.0497 0.25881,0.11057 0.39375,0.15313 0.94649,0.2985 1.92615,0.4201 2.93125,0.35 0.0349,-0.005 0.0746,0.006 0.10937,0 0.0295,-0.003 0.058,-0.0192 0.0875,-0.0219 2.35663,-0.42695 4.13437,-2.27946 4.13437,-4.50625 0,-1.15736 -0.49724,-2.21022 -1.29063,-3.01873 -0.74098,-0.62246 -1.59657,-1.20193 -2.60312,-1.68439 -0.62661,-0.30034 -1.27941,-0.54895 -1.94687,-0.76561 -1.05785,-0.40512 -1.79376,-1.38213 -1.79376,-2.5375 0,-1.51988 1.29223,-2.75626 2.8875,-2.75626 0.17126,0 0.33975,0.0384 0.50313,0.0656 0.11427,0.0192 0.21876,0.0342 0.32812,0.0656 0.0853,0.0203 0.15592,0.0563 0.24063,0.0875 0.0125,0.005 0.0314,-0.005 0.0437,0 0.009,0.004 0.0132,0.0187 0.0219,0.0219 0.0495,0.013 0.10339,0.029 0.15312,0.0437 0.81523,0.24223 1.64573,0.71405 2.31875,1.37813 0.24734,0.24407 0.4629,0.48948 0.63437,0.74376 l 0,-2.27502 c -0.87389,-1.17675 -2.38262,-1.92498 -4.30936,-1.92498 z"
     id="path3084"
     inkscape:connector-curvature="0" />
  <path
     style="fill:#ffffff;stroke:none"
     d="m 156.99353,188.56495 0,1.77189 0,5.35936 0,1.79375 0,7.7875 2.60313,0 0,-7.45937 2.8875,0 5.22813,7.45937 3.19375,0 -5.75313,-8.15937 0,-0.0875 c 1.96843,-0.76222 3.30313,-2.28974 3.30313,-4.06876 0,-1.05964 -0.48693,-2.02559 -1.29063,-2.79999 -0.68789,-0.63262 -1.39647,-1.16467 -2.12188,-1.59689 l -8.05,0 z m 2.60313,1.85939 4.59375,0 c 1.10613,0.57064 1.81562,1.45474 1.81562,2.44999 0,1.05625 -0.809,1.96312 -2.03437,2.51563 l -4.375,0 0,-4.96562 z"
     id="path3043"
     inkscape:connector-curvature="0" />
  <path
     id="path4035"
     d="m 234.76391,188.56513 0,1.77189 0,5.35935 0,1.79375 0,7.7875 2.60312,0 0,-7.45937 2.88749,0 5.22813,7.45937 3.19375,0 -5.75312,-8.15936 0,-0.0875 c 1.96842,-0.76222 3.30313,-2.28973 3.30313,-4.06876 0,-1.05963 -0.48694,-2.02559 -1.29063,-2.79999 -0.6879,-0.63261 -1.39648,-1.16467 -2.12188,-1.59688 l -8.04999,0 z m 2.60312,1.85938 4.59374,0 c 1.10614,0.57065 1.81564,1.45475 1.81564,2.45 0,1.05624 -0.80901,1.96312 -2.03438,2.51562 l -4.375,0 0,-4.96562 z"
     style="fill:#ffffff;stroke:none"
     inkscape:connector-curvature="0" />
  <path
     style="fill:#ffffff;stroke:none"
     d="m 141.26102,120.18382 c -3.40922,3.48753 -7.27208,6.50796 -11.55874,8.96875 5.23629,5.48267 10.70186,10.41752 16.31875,14.75246 3.85786,-2.91738 7.64648,-5.87095 11.375,-8.85063 -1.85571,-1.26511 -3.63939,-2.65448 -5.34187,-4.16934 -3.91315,-3.27277 -7.52412,-6.84298 -10.79314,-10.70124 z"
     id="rect3316"
     inkscape:connector-curvature="0" />
  <path
     id="path3386"
     d="m 182.03729,120.18382 c 3.40923,3.48753 7.27208,6.50796 11.55875,8.96875 -5.2363,5.48267 -10.70187,10.41752 -16.31876,14.75246 -3.85785,-2.91738 -7.64646,-5.87095 -11.37499,-8.85063 1.85572,-1.26511 3.63939,-2.65448 5.34188,-4.16934 3.91312,-3.27277 7.5241,-6.84298 10.79312,-10.70124 z"
     style="fill:#ffffff;stroke:none"
     inkscape:connector-curvature="0" />
  <path
     style="fill:#ffffff;stroke:none"
     d="m 158.74791,7.7595208 c -1.0447,0.007 -2.09755,0.0238 -3.15439,0.0525 -15.26099,0.41965 -30.00055,3.2219572 -43.32125,7.8444022 -0.006,16.716616 3.44087,36.279216 10.38625,54.976183 2.91077,7.83573 6.21187,14.91315 9.7475,21.10058 l 0.0132,0 c 3.89613,7.12613 7.99372,13.707464 12.18438,19.665644 l 0.81377,0 c 4.35784,-4.29086 8.6154,-8.88496 12.74437,-13.754994 -4.31188,-4.22245 -8.24185,-9.16888 -11.55001,-14.73064 -1.23807,-2.08145 -2.34884,-4.18166 -3.33374,-6.28684 -0.92796,-1.72662 -1.69174,-3.5525 -2.27063,-5.45564 l -0.004,0 c -2.33689,-5.89092 -3.26623,-12.665236 -2.35813,-19.683077 1.7142,-13.247697 9.50786,-23.923809 19.57376,-28.612473 0.003,0 0.006,0 0.009,-0.007 1.03337,-0.645679 2.16052,-1.001839 3.33811,-1.001839 0.95109,0 1.86798,0.23142 2.73001,0.66059 l 0.39375,0 0,0.01749 c 10.41605,4.505336 18.54476,15.375837 20.3,28.940633 0.90811,7.017842 -0.0213,13.792146 -2.35814,19.683066 l -0.004,0 c -0.57888,1.90315 -1.34266,3.72904 -2.27062,5.45566 -0.98491,2.10518 -2.09569,4.20538 -3.33374,6.28684 -3.30816,5.56175 -7.23815,10.50816 -11.55,14.73063 4.12894,4.870044 8.38653,9.464134 12.74437,13.755004 l 0.81374,0 c 4.19066,-5.95819 8.28826,-12.539544 12.1844,-19.665664 l 0.0131,0 c 3.53564,-6.18743 6.83675,-13.26484 9.74751,-21.10056 6.9454,-18.696975 10.39283,-38.259576 10.38625,-54.976191 -13.32103,-4.622446 -28.06061,-7.4247522 -43.32161,-7.8444012 -1.05682,-0.0294 -2.10968,-0.0469 -3.15439,-0.0525 -0.0666,-3.5e-4 -0.13028,2.8e-4 -0.19685,0 l -5.74438,0 c -0.0666,2.8e-4 -0.13026,-3.5e-4 -0.19688,0 z"
     id="rect3388"
     inkscape:connector-curvature="0" />
  <path
     style="fill:#ffffff;stroke:none"
     d="m 161.6573,138.39255 c -3.70511,2.99566 -7.69503,5.659 -11.94378,7.94499 3.71281,2.91052 7.70177,5.66774 11.94378,8.24248 4.2415,-2.57453 8.23166,-5.32824 11.94373,-8.23814 -4.25049,-2.28649 -8.23753,-4.95235 -11.94373,-7.94933 z"
     id="rect3393"
     inkscape:connector-curvature="0" />
  <path
     inkscape:connector-curvature="0"
     id="rect3405"
     style="fill:#ffffff;stroke:none"
     d="m 130.04915,129.12764 c 0.0314,0.042 0.0567,0.0877 0.088,0.13005 l 0.17604,-0.13005 -0.26406,0 z m -1.82635,6.69948 0,8.88928 c 0.66378,0.66353 1.40385,1.47427 2.17842,2.42831 0.53661,0.46752 1.07402,0.93526 1.60631,1.3659 l -0.44009,0.26019 c -0.30303,-0.15435 -0.60348,-0.28763 -0.90216,-0.43358 -0.87294,-0.34972 -1.68495,-0.65575 -2.44248,-0.91063 l 0,3.94596 c 0.75807,0.25431 1.61372,0.55791 2.53049,0.95404 0.0593,0.0217 0.11657,0.0427 0.17604,0.0651 0.0465,0.0203 0.0852,0.0441 0.13203,0.0651 1.0667,0.39934 2.16257,0.84574 3.27865,1.36589 l -0.13202,0.0651 0.044,0 -0.41809,0.34692 c 0.0147,0.014 0.0296,0.0287 0.044,0.0427 -0.9941,0.88262 -2.23406,1.69735 -3.65272,2.42828 -0.68234,0.4382 -1.35389,0.81725 -2.0024,1.10579 l 0,10.86232 c 7.86362,-1.6798 17.05459,-5.43431 26.62519,-10.79715 -8.26231,-4.46362 -17.04473,-11.6825 -25.67901,-21.09586 l 0.044,-0.0434 c -0.32662,-0.30372 -0.6636,-0.58988 -0.9902,-0.91063 z m 0,32.84712 0,0.0217 c 0.0209,-0.007 0.0449,0.007 0.066,0 -0.0223,-0.007 -0.0443,-0.0161 -0.066,-0.0217 z m -14.12677,-23.32903 c -4.79792,-0.0203 -8.64024,0.7623 -10.58407,2.23307 2.5132,1.4852 4.96972,2.7403 7.32744,3.75096 3.18203,0.0792 6.1379,-0.11286 8.80172,-0.5855 0.12498,-0.0266 0.2469,-0.0637 0.37407,-0.0867 0.33401,-0.063 0.66581,-0.12334 0.9902,-0.1951 0.007,0 0.0145,0 0.022,0 0.11469,0.0105 0.23655,0.0322 0.35206,0.0427 2.06488,-0.15231 4.37068,0.13651 6.84334,0.82391 l 0,-3.88102 c -0.62078,-0.1911 -1.24075,-0.39682 -1.84837,-0.56372 -0.097,-0.0231 -0.18856,-0.0644 -0.28604,-0.0867 -0.67034,-0.15399 -1.35403,-0.27775 -2.0464,-0.41188 -3.54079,-0.686 -6.9352,-1.02822 -9.94595,-1.04069 z m -11.11218,-44.53332 c 1.53143,6.49369 3.90917,13.05205 7.19542,19.49142 4.73841,9.28487 10.92232,17.48444 18.04353,24.39147 l 0,-8.97609 c -4.28229,-4.48539 -8.4017,-9.34016 -12.30041,-14.56978 -4.88342,-6.55059 -9.19443,-13.36074 -12.93854,-20.33702 z m -47.881376,56.82658 c -3.619253,-0.0175 -6.643729,0.2319 -9.043772,0.73716 l 0,0.0217 c -16.202428,2.22391 -29.188565,6.46155 -35.889031,11.70791 3.379188,0.95537 6.558002,1.58243 9.483855,1.8646 0.0441,0.007 0.08809,-0.007 0.132035,0 3.001922,0.17555 5.705323,0.0716 8.03157,-0.34685 -0.01841,0.0245 -0.04732,0.0406 -0.06601,0.0651 0.345876,-0.0866 0.696325,-0.16899 1.034208,-0.26019 3.751685,-3.01532 9.001421,-5.7407 15.336998,-7.97867 0.129997,-0.0455 0.243145,-0.10633 0.374072,-0.15176 l 0,0.0217 c 0.500193,-0.18179 1.030694,-0.35854 1.562309,-0.52031 l 0,-0.0651 c 5.434557,-1.37326 12.605639,-1.53755 20.794074,-0.45534 l 0,0.0217 c 1.087051,0.14274 2.191525,0.34573 3.344652,0.58548 4.746088,0.78841 10.114466,2.45889 15.777093,4.96496 1.871577,0.59002 3.696132,1.07429 5.457066,1.47434 l 0,0.10842 c 3.911575,0.88556 8.612787,1.4177 14.126777,1.49598 2.14701,0.0308 4.34107,-0.0105 6.6233,-0.10838 1.07301,-0.0455 2.17861,-0.12165 3.27864,-0.19515 4.65103,-0.4251 8.93246,-1.05525 12.7625,-1.86458 l 0,-10.97074 c -6.76319,4.2611 -20.23539,5.81713 -36.791217,4.53144 l 0,-0.0651 c -14.647828,-2.93006 -27.260282,-4.57395 -36.329114,-4.61818 z" />
  <path
     d="m 193.66917,129.12757 c -0.0313,0.0427 -0.0567,0.0878 -0.088,0.13005 l -0.17605,-0.13005 0.26408,0 z m 1.82633,6.69948 0,8.88928 c -0.66377,0.6636 -1.40385,1.47427 -2.17839,2.42831 -0.53665,0.46759 -1.07403,0.93533 -1.60633,1.36597 l 0.44007,0.26019 c 0.30309,-0.15435 0.60351,-0.28763 0.90217,-0.43365 0.87295,-0.34965 1.68496,-0.65575 2.44248,-0.91063 l 0,3.94603 c -0.75804,0.25424 -1.6137,0.55791 -2.53047,0.95397 -0.0593,0.0217 -0.1166,0.0427 -0.17604,0.0651 -0.0465,0.0203 -0.0852,0.0441 -0.132,0.0651 -1.06673,0.39934 -2.16261,0.84581 -3.27868,1.36589 l 0.13201,0.0651 -0.044,0 0.41811,0.34685 c -0.0147,0.014 -0.0297,0.0287 -0.044,0.0434 0.99408,0.88255 2.23405,1.69728 3.65272,2.42828 0.68236,0.4382 1.35388,0.81725 2.00238,1.10579 l 0,10.86232 c -7.86362,-1.6798 -17.05457,-5.43431 -26.62522,-10.79715 8.26239,-4.46369 17.04477,-11.6825 25.67902,-21.09593 l -0.044,-0.0427 c 0.32662,-0.30379 0.66359,-0.58988 0.9902,-0.91062 z m 0,32.84719 0,0.0217 c -0.0209,-0.007 -0.0449,0.007 -0.0659,0 0.0223,-0.007 0.0442,-0.0161 0.0659,-0.0217 z m 14.12677,-23.3291 c 4.79792,-0.0203 8.64024,0.76237 10.58406,2.23314 -2.51317,1.4852 -4.96969,2.74023 -7.32741,3.75089 -3.18204,0.0793 -6.13792,-0.11286 -8.80172,-0.58543 -0.12498,-0.0266 -0.24689,-0.0637 -0.3741,-0.0867 -0.334,-0.063 -0.66578,-0.12334 -0.99016,-0.1951 -0.007,0 -0.0146,0 -0.022,0 -0.1147,0.0105 -0.23654,0.0322 -0.35205,0.0427 -2.06489,-0.15224 -4.37069,0.13658 -6.84337,0.82391 l 0,-3.88095 c 0.62082,-0.1911 1.24078,-0.39682 1.84838,-0.56372 0.097,-0.0231 0.18857,-0.0644 0.28605,-0.0867 0.67034,-0.15406 1.35402,-0.27782 2.04642,-0.41195 3.54075,-0.68593 6.93517,-1.02815 9.94591,-1.04069 z m 11.11217,-44.53332 c -1.53141,6.49369 -3.90916,13.05205 -7.19542,19.49142 -4.73838,9.28487 -10.92229,17.48451 -18.04352,24.39147 l 0,-8.97602 c 4.28229,-4.48546 8.40171,-9.34023 12.30043,-14.56985 4.88341,-6.55059 9.1944,-13.36067 12.93851,-20.33702 z m 47.88136,56.82658 c 3.61926,-0.0175 6.64374,0.23197 9.0438,0.73716 l 0,0.0217 c 16.20239,2.22384 29.18851,6.46155 35.88899,11.70791 -3.37918,0.95537 -6.55801,1.58243 -9.48386,1.8646 -0.0441,0.007 -0.088,-0.007 -0.13202,0 -3.00192,0.17548 -5.70533,0.0716 -8.03157,-0.34692 0.0184,0.0245 0.0473,0.0413 0.0659,0.0651 -0.34585,-0.0866 -0.6963,-0.16906 -1.03419,-0.26019 -3.75168,-3.01532 -9.00143,-5.7407 -15.337,-7.97874 -0.12999,-0.0455 -0.24315,-0.10626 -0.37407,-0.15169 l 0,0.0217 c -0.50018,-0.18186 -1.03068,-0.35854 -1.56227,-0.52031 l 0,-0.0651 c -5.43457,-1.37319 -12.60569,-1.53748 -20.7941,-0.45527 l 0,0.0217 c -1.08707,0.14274 -2.19152,0.34573 -3.34464,0.58541 -4.74609,0.78848 -10.11447,2.45896 -15.77712,4.96503 -1.87158,0.58995 -3.69609,1.07422 -5.45704,1.47434 l 0,0.10835 c -3.91158,0.88563 -8.61277,1.41777 -14.12676,1.49605 -2.14703,0.0308 -4.34108,-0.0105 -6.62331,-0.10838 -1.073,-0.0455 -2.17859,-0.12165 -3.27862,-0.19522 -4.65105,-0.42503 -8.93247,-1.05525 -12.76251,-1.86458 l 0,-10.97067 c 6.76317,4.2611 20.23539,5.81706 36.7912,4.53137 l 0,-0.0651 c 14.64779,-2.93005 27.26026,-4.57401 36.32909,-4.61817 z"
     style="fill:#ffffff;stroke:none"
     id="path3581"
     inkscape:connector-curvature="0" />
  <path
     inkscape:connector-curvature="0"
     style="fill:#ffffff;stroke:none"
     d="m 99.779243,19.951408 -12.039998,6.146833 c -0.20857,16.742866 3.809708,36.937145 12.166871,56.923085 7.628744,18.243894 17.596534,33.261674 27.973764,43.426234 l 10.90689,-9.31875 C 128.82072,106.99541 119.30045,92.408536 111.95051,74.831336 103.92963,55.649624 99.905983,36.280854 99.779243,19.951408 z"
     id="path3089" />
  <path
     id="path4134"
     d="m 223.53907,19.951338 12.04,6.146903 c 0.20859,16.742796 -3.8097,36.937145 -12.16686,56.923015 -7.62875,18.243894 -17.59653,33.261674 -27.97375,43.426234 l -10.90689,-9.31875 c 9.96603,-10.1334 19.4863,-24.720274 26.83625,-42.297474 8.02088,-19.181642 12.04451,-38.550482 12.17125,-54.879928 z"
     style="fill:#ffffff;stroke:none"
     inkscape:connector-curvature="0" />
  <path
     style="fill:#ffffff;stroke:none"
     d="m 161.66603,25.430162 c -8.31361,0 -15.05438,15.151627 -15.05438,33.840554 0,0.0406 -7e-5,0.0816 0,0.12251 0.032,0.24199 0.0673,0.48195 0.10064,0.72191 l -0.10064,0 c 0.48829,4.58128 1.64019,8.88187 3.31625,12.73556 l -0.0394,0 c 1.2513,3.47039 2.75616,6.52713 4.34438,8.93815 l -0.0131,0 c 1.20956,2.26547 2.55626,4.3582 3.99873,6.24749 l 1.84627,0 0,0.007 -1.85063,0 3.325,4.95684 3.45186,-4.95684 -1.77186,0 0,-0.007 1.77625,0 c 1.4842,-1.88929 2.86795,-3.98202 4.1125,-6.24749 l -0.009,0 c 1.58822,-2.41102 3.09307,-5.46776 4.34437,-8.93815 l -0.0393,0 c 1.67607,-3.85369 2.82797,-8.15428 3.31625,-12.73556 l -0.10062,0 c 0.0335,-0.24052 0.0684,-0.4795 0.10062,-0.72191 1.1e-4,-0.0406 0,-0.0816 0,-0.12251 0,-18.688927 -6.74078,-33.840554 -15.05439,-33.840554 z"
     id="path3082"
     inkscape:connector-curvature="0" />
  <path
     id="path5212"
     d="m 277.00321,187.89803 c -2.85113,0 -5.1625,2.07073 -5.1625,4.61562 0,1.30207 0.62316,2.47086 1.59687,3.30311 0.19696,0.14319 0.37498,0.28079 0.59062,0.41562 1.06813,0.66782 2.27285,1.19301 3.50002,1.53126 1.19109,0.34462 2.07812,1.38237 2.07812,2.62501 0,0.45646 -0.14153,0.89105 -0.35,1.26874 -0.008,0.0137 -0.0141,0.0302 -0.0218,0.0437 -0.49303,0.85737 -1.46063,1.42187 -2.55936,1.42187 -0.38831,0 -0.74033,-0.0876 -1.07187,-0.21875 -0.019,-0.007 -0.0469,0.008 -0.0656,0 -0.22451,-0.0409 -0.45037,-0.08 -0.67813,-0.15312 -0.33316,-0.10695 -0.63593,-0.25984 -0.91875,-0.41563 -0.10503,-0.0524 -0.2037,-0.116 -0.30626,-0.175 -0.0568,-0.0327 -0.11904,-0.0528 -0.17499,-0.0875 -0.46351,-0.28774 -0.82623,-0.61875 -1.11562,-0.96249 l 0,2.36249 c 0.28685,0.24986 0.6181,0.45525 0.98437,0.63437 0.21994,0.15224 0.58636,0.25105 0.83125,0.37188 0.13356,0.0497 0.25882,0.11057 0.39374,0.15313 0.94651,0.2985 1.92617,0.4201 2.93126,0.35 0.0349,-0.005 0.0746,0.006 0.10938,0 0.0295,-0.003 0.058,-0.0192 0.0875,-0.0218 2.35663,-0.42695 4.13437,-2.27946 4.13437,-4.50624 0,-1.15736 -0.49723,-2.21022 -1.29062,-3.01874 -0.74098,-0.62245 -1.59658,-1.20192 -2.60313,-1.68439 -0.62661,-0.30033 -1.2794,-0.54895 -1.94688,-0.76561 -1.05784,-0.40512 -1.79374,-1.38213 -1.79374,-2.5375 0,-1.51987 1.29222,-2.75625 2.8875,-2.75625 0.17125,0 0.33974,0.0383 0.50312,0.0656 0.11426,0.0192 0.21876,0.0342 0.32812,0.0656 0.0853,0.0203 0.15593,0.0563 0.24063,0.0875 0.0125,0.005 0.0313,-0.005 0.0437,0 0.009,0.004 0.0132,0.0186 0.0218,0.0218 0.0496,0.013 0.10339,0.029 0.15313,0.0437 0.81523,0.24222 1.64574,0.71404 2.31876,1.37812 0.24734,0.24407 0.4629,0.48948 0.63437,0.74376 l 0,-2.27502 c -0.8739,-1.17675 -2.38263,-1.92498 -4.30938,-1.92498 z"
     style="fill:#ffffff;fill-opacity:1;stroke:#ffffff;stroke-width:0.34649444;stroke-miterlimit:4;stroke-opacity:1;stroke-dasharray:none"
     inkscape:connector-curvature="0" />
</svg>
