<?xml version="1.0" encoding="UTF-8" standalone="no"?>
<!-- Created with Inkscape (http://www.inkscape.org/) -->
<svg
   xmlns:svg="http://www.w3.org/2000/svg"
   xmlns="http://www.w3.org/2000/svg"
   version="1.0"
   width="656"
   height="128"
   viewBox="-0.972 -0.952 656 128"
   id="svg2"
   xml:space="preserve">
	<defs
   id="defs4">
	</defs>
	<g
   id="g6">
		<path
   d="M 128.453,91.727 C 123.608,97.783 116.34,103.84 106.346,110.502 C 73.942,132.309 32.149,132.309 14.886,110.502 C 7.92,101.416 5.497,90.513 7.315,79.004 C 10.343,60.23 24.88,41.452 48.199,26.007 C 55.467,21.162 61.221,21.162 64.552,22.071 C 68.792,23.281 71.216,26.007 72.125,27.827 L 72.125,27.827 C 73.639,30.852 77.575,38.423 62.735,50.235 C 32.755,73.252 22.456,94.15 33.36,108.985 C 44.566,124.131 81.21,123.522 105.74,107.471 C 113.311,102.325 119.974,98.086 126.334,90.512 C 126.938,89.607 127.848,89.607 128.15,89.908 C 128.757,90.513 129.06,91.422 128.453,91.727 L 128.453,91.727 z "
   style="fill:#d73f37;fill-rule:evenodd"
   id="path8" />
		<path
   d="M 0.349,35.094 C 5.194,29.037 12.462,22.979 22.154,16.316 C 54.862,-5.489 96.655,-5.489 113.916,16.619 C 120.882,25.403 123.306,36.305 121.489,48.117 C 118.461,66.588 103.924,85.366 80.605,100.811 C 73.337,105.655 67.583,105.655 64.251,104.749 C 60.013,103.841 57.589,100.811 56.68,99.298 L 56.68,99.298 C 54.864,95.966 51.229,88.395 66.07,76.886 C 96.05,53.566 106.347,32.672 95.445,18.135 C 84.239,2.689 47.595,3.598 23.065,19.649 C 15.492,24.494 8.829,29.038 2.47,36.304 C 1.561,37.213 0.956,37.213 0.349,36.912 C 0.047,36.304 -0.256,35.699 0.349,35.094 L 0.349,35.094 z "
   style="fill:#d73f37;fill-rule:evenodd"
   id="path10" />
		<polygon
   points="190.234,56.292 175.698,26.614 196.897,26.614 202.954,43.27 215.37,26.614 238.691,26.614 212.344,56.292 227.485,89.909 205.68,89.909 198.714,72.04 184.178,89.909 160.254,89.909 190.234,56.292 "
   style="fill-rule:evenodd"
   id="polygon12" />
		<path
   d="M 260.496,61.44 C 260.798,59.02 260.193,57.807 259.284,56.901 C 258.375,55.992 256.861,55.383 255.044,55.383 C 247.171,55.383 245.353,65.377 245.353,69.923 C 245.353,74.161 246.262,78.4 251.41,78.4 C 255.954,78.4 258.073,74.162 258.982,71.434 L 275.942,71.434 C 272.912,84.76 264.432,91.122 251.107,91.122 C 231.726,91.122 227.788,78.704 227.788,69.924 C 227.788,54.475 237.782,42.666 255.347,42.666 C 268.067,42.666 277.759,48.418 277.454,61.441 L 260.496,61.441 L 260.496,61.44 z "
   style="fill-rule:evenodd"
   id="path14" />
		<path
   d="M 298.049,61.745 C 299.564,56.901 302.592,54.174 307.134,54.174 C 311.677,54.174 313.796,56.902 313.796,60.231 C 313.796,60.532 313.796,61.14 313.796,61.746 L 298.049,61.746 L 298.049,61.745 z M 310.769,76.582 C 309.86,78.1 307.436,79.915 303.803,79.915 C 298.351,79.915 296.535,75.677 296.535,70.829 L 329.241,70.829 C 330.151,68.105 330.151,65.378 330.151,62.958 C 330.151,48.418 318.037,42.666 307.739,42.666 C 296.232,42.666 280.179,49.632 280.179,70.83 C 280.179,82.038 286.843,91.123 303.196,91.123 C 322.882,91.123 326.213,79.615 327.424,76.583 L 310.769,76.583 L 310.769,76.582 z "
   style="fill-rule:evenodd"
   id="path16" />
		<polygon
   points="344.385,26.614 361.95,26.614 348.927,89.909 331.362,89.909 344.385,26.614 "
   style="fill-rule:evenodd"
   id="polygon18" />
		<polygon
   points="384.057,26.614 427.667,26.614 426.153,33.884 391.023,33.884 386.785,53.87 419.491,53.87 417.977,60.834 385.267,60.834 380.725,82.641 416.159,82.641 414.645,89.909 370.731,89.909 384.057,26.614 "
   style="fill-rule:evenodd"
   id="polygon20" />
		<path
   d="M 431.604,44.179 L 438.875,44.179 L 437.359,51.145 L 437.66,51.145 C 441.295,45.998 447.654,42.969 453.711,42.969 C 462.492,42.969 466.734,46.907 466.734,54.778 C 466.734,56.901 466.129,60.23 465.22,63.867 L 459.767,89.909 L 452.197,89.909 L 457.953,63.259 C 458.254,61.441 459.164,57.503 459.164,55.992 C 459.164,51.75 455.529,49.631 450.988,49.631 C 447.05,49.631 442.508,52.054 439.779,55.083 C 437.056,57.202 435.841,60.835 434.633,64.469 L 429.485,89.909 L 421.915,89.909 L 431.604,44.179 L 431.604,44.179 z "
   style="fill-rule:evenodd"
   id="path22" />
		<path
   d="M 478.547,62.653 C 480.971,55.383 485.512,49.631 494.598,49.631 C 502.774,49.631 505.801,56.293 505.198,62.653 L 478.547,62.653 L 478.547,62.653 z M 511.858,69.315 C 512.163,68.105 512.768,65.682 512.768,63.258 C 512.768,50.536 506.711,42.969 493.385,42.969 C 480.666,42.969 469.762,55.082 469.762,72.647 C 469.762,80.519 474.004,90.817 489.147,90.817 C 499.141,90.817 507.317,85.671 509.739,75.676 L 502.473,75.676 C 500.35,81.127 495.807,84.155 489.147,84.155 C 483.09,84.155 477.334,80.217 477.334,73.252 C 477.334,72.039 477.334,70.524 477.637,69.314 L 511.858,69.314 L 511.858,69.315 z "
   style="fill-rule:evenodd"
   id="path24" />
		<path
   d="M 523.67,44.179 L 530.938,44.179 L 528.514,53.869 L 528.819,53.869 C 532.452,47.508 537.602,42.969 545.475,42.969 C 546.383,42.969 547.293,42.969 548.202,42.969 L 546.384,51.145 C 545.476,51.145 544.87,51.145 543.96,51.145 C 542.146,51.145 541.237,51.145 539.722,51.446 C 535.482,52.659 532.152,55.384 529.728,59.02 C 527.91,61.745 526.701,66.287 526.095,69.616 L 521.853,89.909 L 514.283,89.909 L 523.67,44.179 L 523.67,44.179 z "
   style="fill-rule:evenodd"
   id="path26" />
		<polygon
   points="592.417,108.383 603.016,89.909 594.84,44.179 603.016,44.179 608.163,80.519 608.467,80.519 627.547,44.179 636.026,44.179 599.684,108.383 592.417,108.383 "
   style="fill-rule:evenodd"
   id="polygon28" />
		<path
   d="M 551.532,71.133 C 551.532,62.957 557.288,49.631 567.886,49.631 C 575.761,49.631 579.699,54.474 579.699,61.745 C 579.699,70.829 574.248,83.548 563.041,83.548 C 555.469,83.547 551.532,77.795 551.532,71.133 L 551.532,71.133 z M 583.028,83.247 L 591.208,44.18 L 583.937,44.18 L 582.728,52.66 L 582.423,52.66 L 582.423,52.356 C 581.214,46.6 574.548,42.97 567.886,42.97 C 553.05,42.97 544.265,57.808 544.265,71.134 C 544.265,82.037 550.017,90.213 561.226,90.213 C 566.978,90.213 572.429,88.094 575.458,83.247 L 575.761,83.247 C 571.521,99.903 559.407,103.84 546.689,103.84 C 546.084,105.654 544.57,108.078 543.66,110.502 C 558.801,110.502 577.276,107.172 583.028,83.247 L 583.028,83.247 z "
   style="fill-rule:evenodd"
   id="path30" />
		<path
   d="M 639.36,49.631 C 639.055,50.537 639.661,51.145 640.569,51.145 C 641.479,51.145 642.688,50.841 642.688,49.631 C 642.993,49.026 642.387,48.722 641.78,48.418 C 640.569,48.418 638.45,48.117 639.055,46.299 C 639.36,44.481 640.873,43.876 642.387,43.876 C 643.598,43.876 644.811,44.481 644.506,45.999 L 643.293,45.999 C 643.598,45.09 642.992,44.786 642.082,44.786 C 641.478,44.786 640.268,45.09 640.268,45.999 C 639.963,46.908 640.569,46.908 641.174,47.209 C 642.387,47.814 644.506,47.814 643.901,49.632 C 643.598,51.447 641.78,52.055 640.268,52.055 C 638.754,52.055 637.844,51.146 638.145,49.632 L 639.36,49.632 L 639.36,49.631 z "
   style="fill-rule:evenodd"
   id="path32" />
		<polygon
   points="653.592,44.784 653.592,44.784 649.655,51.75 648.745,51.75 647.536,44.784 647.536,44.784 646.325,51.75 645.112,51.75 646.625,44.179 648.745,44.179 649.655,50.537 649.655,50.537 652.987,44.179 654.805,44.179 653.292,51.75 652.077,51.75 653.592,44.784 "
   style="fill-rule:evenodd"
   id="polygon34" />
	</g>
</svg>