<?xml version="1.0" encoding="utf-8"?>
<!-- Generator: Adobe Illustrator 12.0.0, SVG Export Plug-In . SVG Version: 6.00 Build 51448)  -->
<!DOCTYPE svg PUBLIC "-//W3C//DTD SVG 1.1//EN" "http://www.w3.org/Graphics/SVG/1.1/DTD/svg11.dtd" [
	<!ENTITY ns_svg "http://www.w3.org/2000/svg">
	<!ENTITY ns_xlink "http://www.w3.org/1999/xlink">
]>
<svg  version="1.1" id="Layer_1" xmlns="&ns_svg;" xmlns:xlink="&ns_xlink;" width="250" height="47.16" viewBox="0 0 250 47.16"
	 overflow="visible" enable-background="new 0 0 250 47.16" xml:space="preserve">
<path fill="#ED1B2D" d="M97.91,9.12h6.911v2.361c0.742-0.646,3.138-2.94,7.563-2.94c5.207,0,9.344,3.844,9.344,9.88v15.668h-7.3
	V20.363c0-3.365-1.641-5.361-4.611-5.361c-2.877,0-4.608,1.882-4.608,5.361v13.726H97.91V9.12 M167.442,21.604
	c0-7.203,5.768-13.063,13.322-13.063c7.552,0,13.318,5.86,13.318,13.063c0,7.201-5.767,13.054-13.318,13.054
	C173.21,34.658,167.442,28.805,167.442,21.604 M174.648,21.604c0,3.449,2.577,6.287,6.159,6.287c3.588,0,6.169-2.838,6.169-6.287
	c0-3.451-2.581-6.287-6.169-6.287C177.226,15.317,174.648,18.153,174.648,21.604 M67.188,21.609c0-7.206,5.771-13.066,13.318-13.066
	c7.556,0,13.325,5.86,13.325,13.066c0,7.199-5.769,13.05-13.325,13.05C72.958,34.66,67.188,28.808,67.188,21.609 M74.394,21.607
	c0,3.451,2.577,6.289,6.163,6.289c3.588,0,6.165-2.838,6.165-6.289c0-3.454-2.577-6.287-6.165-6.287
	C76.971,15.32,74.394,18.153,74.394,21.607 M229.493,6.354h7.399V0h-7.399V6.354z M229.493,34.089h7.399V9.12h-7.399V34.089z
	 M242.598,34.089H250V0h-7.402V34.089z M205.378,34.089h-7.017V0h7.097v11.102c0.352-0.259,2.651-2.561,7.674-2.561
	c6.57,0,12.053,5.642,12.053,13.068c0,7.412-5.84,13.054-12.137,13.054c-4.79,0-7.074-2.104-7.59-2.496L205.378,34.089
	 M217.686,21.59c0-3.511-2.662-6.235-6.227-6.235c-3.544,0-6.265,2.699-6.265,6.255c0,3.511,2.684,6.235,6.257,6.235
	C214.989,27.844,217.686,25.111,217.686,21.59 M24.15,34.089h8.559l7.694-9.888l4.797,4.859L34.223,42.804h8.589l7.029-9.109
	l13.23,13.465H73.44L54.425,28.039L69.4,9.12h-8.594L49.739,23.33l-4.789-4.814L57.261,3.012h-8.571L40.282,13.83l-4.566-4.71H25.49
	l10.3,10.399L24.15,34.089 M0,0v34.089h22.451v-6.361H7.638v-8.145h14.148v-6.166H7.638V6.351h14.813V0H0 M127.575,0v34.089h7.183
	V8.35h0.326l6.18,25.74h8.069l6.325-25.74h0.327v25.74h7.182V0h-11.729l-5.84,24.879h-0.26L139.643,0H127.575"/>
</svg>
