<?xml version="1.0" encoding="UTF-8" standalone="no"?>
<svg
   xmlns:dc="http://purl.org/dc/elements/1.1/"
   xmlns:cc="http://creativecommons.org/ns#"
   xmlns:rdf="http://www.w3.org/1999/02/22-rdf-syntax-ns#"
   xmlns:svg="http://www.w3.org/2000/svg"
   xmlns="http://www.w3.org/2000/svg"
   xmlns:sodipodi="http://sodipodi.sourceforge.net/DTD/sodipodi-0.dtd"
   xmlns:inkscape="http://www.inkscape.org/namespaces/inkscape"
   width="215"
   height="64"
   viewBox="0 0 172 51.2"
   version="1.1"
   id="svg4901"
   inkscape:version="0.48.2 r9819"
   sodipodi:docname="dentsply_sirona_logo.svg">
  <metadata
     id="metadata4953">
    <rdf:RDF>
      <cc:Work
         rdf:about="">
        <dc:format>image/svg+xml</dc:format>
        <dc:type
           rdf:resource="http://purl.org/dc/dcmitype/StillImage" />
        <dc:title></dc:title>
      </cc:Work>
    </rdf:RDF>
  </metadata>
  <defs
     id="defs4951" />
  <sodipodi:namedview
     pagecolor="#ffffff"
     bordercolor="#666666"
     borderopacity="1"
     objecttolerance="10"
     gridtolerance="10"
     guidetolerance="10"
     inkscape:pageopacity="0"
     inkscape:pageshadow="2"
     inkscape:window-width="1301"
     inkscape:window-height="746"
     id="namedview4949"
     showgrid="false"
     showborder="false"
     inkscape:showpageshadow="false"
     fit-margin-top="0"
     fit-margin-left="0"
     fit-margin-right="0"
     fit-margin-bottom="0"
     inkscape:zoom="2"
     inkscape:cx="54.308507"
     inkscape:cy="66.058822"
     inkscape:window-x="-8"
     inkscape:window-y="-8"
     inkscape:window-maximized="1"
     inkscape:current-layer="svg4901" />
  <rect
     style="fill:none;stroke:none"
     id="rect4955"
     width="172"
     height="51.200001"
     x="-4.773959e-015"
     y="0" />
  <path
     d="m 3.2000183,2.78031 c 3.534,-0.008 7.0679997,0 10.6019997,-0.006 5.104,-0.054 10.286,1.07999 14.724,3.65397 4.1,2.34998 7.434,6.05596 9.18,10.46193 1.91,4.82796 2.076,10.30392 0.574,15.26589 -0.806,-2.14799 -2.234,-4.04797 -4.078,-5.41196 -2.636,-1.97999 -5.796,-3.08398 -8.934,-3.97998 -2.862,-0.82199 -5.812,-1.27999 -8.672,-2.10198 -3.08,-0.864 -6.198,-1.84599 -8.8699997,-3.65398 -1.334,-0.90599 -2.498,-2.09598 -3.232,-3.54197 -0.946,-1.81399 -1.182,-3.88797 -1.294,-5.90196 l 0,-4.78396 z"
     id="path4905"
     inkscape:connector-curvature="0"
     style="fill:#5d5d5f" />
  <path
     style="fill:#5d5d5f"
     d="m 53.175,2.8 c -0.01,6.4919496 0.001,12.98304 -0.025,19.475 2.682,0.79999 5.527,1.335 8.325,0.925 C 65.381,22.49001 69.196,19.89797 70.45,16 71.378,13.13202 70.95,9.8219896 69.2,7.35 67.154,4.39603 63.522,2.85 60,2.8 57.718,2.794 55.457,2.798 53.175,2.8 z M 55.9,5.25 c 2.244,0.066 4.545,-0.236 6.725,0.45 1.734,0.51799 3.32,1.61401 4.3,3.15 1.274,1.96199 1.445,4.51401 0.675,6.7 -0.768,2.16798 -2.552,3.92701 -4.7,4.725 -2.234,0.866 -4.731,0.695 -7.025,0.175 0.03,-5.06796 0.025,-10.13204 0.025,-15.2 z"
     id="path4907"
     inkscape:connector-curvature="0" />
  <path
     d="m 108.13602,3.5323 c 0.91,-0.002 1.82,-0.002 2.732,0 0.016,1.48999 -0.008,2.97798 0.014,4.46597 0.892,-0.002 1.786,-0.002 2.68,-0.002 0,0.76799 0,1.53399 0,2.30198 -0.898,0 -1.792,0 -2.688,0 0,2.88398 -0.006,5.76596 0.002,8.64994 0.002,0.69 0.12,1.55399 0.834,1.86799 0.59,0.164 1.23,0.084 1.786,-0.168 0.296,0.70599 0.574,1.41799 0.844,2.13598 -1.462,0.586 -3.274,0.808 -4.65,-0.108 -1.15,-0.75999 -1.548,-2.21598 -1.552,-3.52397 -0.01,-5.20796 -0.004,-10.41393 -0.002,-15.61989 z"
     id="path4909"
     inkscape:connector-curvature="0"
     style="fill:#5d5d5f" />
  <path
     d="m 148.58002,3.6943 c 0.042,-0.038 0.126,-0.112 0.17,-0.15 0.852,-0.044 1.706,0.004 2.56,-0.016 0.022,6.50195 0,13.00591 0.01,19.50786 -0.918,0 -1.836,0.004 -2.752,-0.006 0.01,-6.44595 -0.014,-12.89191 0.012,-19.33586 z"
     id="path4911"
     inkscape:connector-curvature="0"
     style="fill:#5d5d5f" />
  <path
     style="fill:#5d5d5f"
     d="m 80.325,7.7 c -0.730523,0.016687 -1.4655,0.1115 -2.175,0.275 -1.616,0.374 -3.097,1.3510104 -3.975,2.775 -0.84,1.30199 -1.147,2.87401 -1.225,4.4 -0.076,2.18398 0.65,4.45601 2.3,5.95 2.022,1.90798 5.012,2.547 7.7,2.025 1.856,-0.328 3.451,-1.42701 4.725,-2.775 -0.592,-0.496 -1.181,-1.01 -1.775,-1.5 -1.84,2.03599 -5.047,2.83599 -7.525,1.55 -1.422,-0.69999 -2.31,-2.17801 -2.6,-3.7 4.104,-0.026 8.196,0.007 12.3,-0.025 C 88.147,15.15101 88.13404,13.59999 87.6,12.15 87.01,10.40601 85.63,8.9289904 83.9,8.275 82.76,7.845 81.542536,7.6721875 80.325,7.7 z m -0.1,2.3 c 1.019416,-0.054336 2.036248,0.135006 2.95,0.575 1.41,0.718 2.001,2.33501 2.125,3.825 -3.168,0.002 -6.332,-0.006 -9.5,0 0.028,-1.68998 0.931,-3.5 2.625,-4.05 0.57375,-0.182996 1.188351,-0.317399 1.8,-0.35 z"
     id="path4915"
     inkscape:connector-curvature="0" />
  <path
     d="m 117.44202,9.79026 c 0.938,-1.31999 2.572,-1.93999 4.14,-2.05799 2.288,-0.128 4.64,0.49 6.554,1.75799 -0.452,0.64399 -0.87,1.31199 -1.302,1.96798 -1.43,-0.93999 -3.132,-1.50998 -4.848,-1.51398 -1.038,0.058 -2.328,0.46599 -2.59,1.61198 -0.244,0.78 0.416,1.43999 1.062,1.74799 2.156,1.07199 4.788,1.10199 6.686,2.70398 1.374,1.09799 1.528,3.16998 0.774,4.66997 -0.742,1.44999 -2.326,2.26398 -3.882,2.51798 -2.876,0.412 -5.864,-0.472 -8.17,-2.20798 0.482,-0.604 0.952,-1.21999 1.402,-1.84999 1.858,1.21999 4.068,2.19798 6.338,1.86199 1.02,-0.162 2.176,-0.882 2.148,-2.03599 0.058,-0.90799 -0.794,-1.48799 -1.54,-1.77999 -2.102,-0.85599 -4.566,-0.96199 -6.36,-2.47798 -1.438,-1.18599 -1.44,-3.46797 -0.412,-4.91596 z"
     id="path4917"
     inkscape:connector-curvature="0"
     style="fill:#5d5d5f" />
  <path
     d="m 90.636018,9.33626 c 2.534,-1.19999 5.366,-1.72599 8.162,-1.67199 1.638002,0.03 3.328002,0.63 4.420002,1.88999 0.982,1.07999 1.414,2.56998 1.438,4.00597 -0.004,3.15798 -0.004,6.31795 -0.002,9.47593 -0.906,0 -1.81,0 -2.716,0 -0.002,-2.95598 0.014,-5.90996 -0.008,-8.86393 -0.016,-1.228 -0.42,-2.53799 -1.428,-3.30998 -0.980002,-0.776 -2.292002,-0.88799 -3.496002,-0.8 -1.26,0.068 -2.506,0.352 -3.662,0.862 0.002,4.03797 0,8.07794 0,12.11591 -0.904,-0.006 -1.806,-0.004 -2.71,-0.004 0.008,-4.56597 0.006,-9.13393 0.002,-13.6999 z"
     id="path4919"
     inkscape:connector-curvature="0"
     style="fill:#5d5d5f" />
  <path
     style="fill:#5d5d5f"
     d="m 138.3,7.65 c -2.56194,-0.02584 -5.1115,0.5847584 -7.425,1.675 0.002,6.06396 0.006,12.13404 0,18.2 0.906,-0.002 1.792,0.008 2.7,0 -0.014,-1.72199 -0.002,-3.45302 0,-5.175 1.554,0.52399 3.167,0.988 4.825,0.95 1.622,0.088 3.301,-0.18401 4.675,-1.1 1.786,-1.13999 2.781,-3.19402 3.025,-5.25 0.256,-2.27599 -0.038,-4.75001 -1.5,-6.6 -1.24,-1.6039896 -3.222,-2.464 -5.2,-2.65 -0.3655,-0.03 -0.73401,-0.046309 -1.1,-0.05 z M 137.825,10 c 0.87122,-0.00448 1.7395,0.118504 2.575,0.375 1.642,0.512 2.702,2.11701 2.9,3.775 0.182,1.84798 0.151,3.91301 -1.075,5.425 -0.772,0.96999 -2.027,1.383 -3.225,1.425 -1.888,0.006 -3.773,-0.45101 -5.425,-1.375 0.038,-2.89398 -0.035,-5.78302 0.025,-8.675 1.32,-0.5825 2.77297,-0.942501 4.225,-0.95 z"
     id="path4921"
     inkscape:connector-curvature="0" />
  <path
     d="m 166.89602,7.99627 c 0.968,-0.002 1.936,-0.006 2.904,0.018 l 0,0.352 -0.002,-0.264 c -2.292,5.15196 -4.472,10.35392 -6.738,15.51789 -0.644,1.42199 -1.542,2.86598 -2.998,3.56597 -1.874,0.824 -4.058,0.474 -5.86,-0.374 0.316,-0.70199 0.632,-1.40199 0.954,-2.09998 1.026,0.512 2.214,0.76799 3.35,0.502 1.118,-0.352 1.678,-1.47199 2.186,-2.43599 -2.43,-4.91196 -4.782,-9.86393 -7.198,-14.78189 0.998,0.002 1.998,0.008 2.998,-0.016 1.882,3.94797 3.692,7.92994 5.536,11.89591 1.624,-3.95997 3.246,-7.91994 4.868,-11.87991 z"
     id="path4923"
     inkscape:connector-curvature="0"
     style="fill:#5d5d5f" />
  <path
     d="m 3.2000183,24.36615 c 2.31,1.38199 4.74,2.58198 7.2859997,3.46798 4.86,1.74399 10.038,2.33598 14.916,4.01597 2.056,0.72199 4.208,1.53599 5.706,3.18798 1.392,1.52799 1.59,3.76197 1.318,5.72196 -0.452,2.76998 -2.578,4.96796 -5.002,6.21195 -3.684,1.90199 -7.944,2.33998 -12.034,2.13399 -2.832,-0.278 -5.5939997,-1.074 -8.2419997,-2.09399 -1.358,-0.558 -2.724,-1.13199 -3.948,-1.94999 l 0,-20.69585 z"
     id="path4929"
     inkscape:connector-curvature="0"
     style="fill:#5d5d5f" />
  <path
     d="m 55.202018,29.76411 c 1.872,-1.38599 4.33,-1.64198 6.584,-1.38599 2.176,0.202 4.276,1.08 5.98,2.44399 l 0.014,0.15799 c -0.472,0.686 -1.052,1.292 -1.55,1.95999 -1.606,-1.26999 -3.562,-2.14998 -5.63,-2.23198 -1.416,-0.062 -2.992,0.186 -4.032,1.23199 -1.146,1.07799 -0.988,3.25997 0.438,4.03397 2.504,1.49399 5.586,1.33799 8.18,2.61998 1.304,0.59 2.538,1.57799 2.976,2.99198 0.614,1.90999 0.112,4.17797 -1.386,5.54596 -1.642,1.53199 -3.984,2.04598 -6.174,1.94599 -3.142,0.024 -6.168,-1.298 -8.532,-3.32198 0.588,-0.646 1.188,-1.28399 1.748,-1.95599 1.632,1.41199 3.588,2.54199 5.764,2.79798 1.748,0.2 3.776,0.16 5.144,-1.10799 0.876,-0.76599 1.05,-2.07998 0.68,-3.13798 -0.572,-1.20799 -1.968,-1.63998 -3.152,-2.00198 -2.448,-0.658 -5.116,-0.896 -7.252,-2.38398 -1.238,-0.846 -2.002,-2.30199 -1.964,-3.80598 -0.122,-1.72199 0.77,-3.40997 2.164,-4.39597 z"
     id="path4931"
     inkscape:connector-curvature="0"
     style="fill:#5d5d5f" />
  <path
     d="m 71.724018,29.68811 c 0.91,0 1.822,0 2.734,-0.002 -0.002,0.854 -0.002,1.70799 0,2.56399 -0.912,0 -1.824,0 -2.734,-0.002 0,-0.854 0,-1.70799 0,-2.55999 z"
     id="path4933"
     inkscape:connector-curvature="0"
     style="fill:#5d5d5f" />
  <path
     style="fill:#5d5d5f"
     d="m 133.625,33.45 c -0.34563,-0.0074 -0.6795,0.01 -1.025,0.025 -1.89,0.09 -3.813,0.75801 -5.175,2.1 -1.234,1.20199 -1.926,2.90201 -2.1,4.6 -0.178,1.87799 0.05,3.84501 0.95,5.525 0.862,1.65799 2.472,2.887 4.3,3.275 2.5,0.46199 5.079,-0.16101 7.325,-1.275 -0.002,0.37399 -0.002,0.751 0,1.125 0.914,0 1.832,0.006 2.75,0 -0.002,-4.55797 -0.023,-9.11704 -0.025,-13.675 -2.18225,-1.04475 -4.5806,-1.647694 -7,-1.7 z M 134,35.8 c 1.34076,0.05318 2.68375,0.391256 3.9,0.95 0.01,2.74798 -0.01,5.50002 0,8.25 -1.724,1.01 -3.652,1.875 -5.7,1.725 -1.374,0.014 -2.741,-0.74501 -3.375,-1.975 -0.878,-1.63599 -0.938,-3.61802 -0.55,-5.4 0.354,-1.63399 1.689,-2.973 3.325,-3.325 0.786,-0.174 1.59554,-0.25691 2.4,-0.225 z"
     id="path4935"
     inkscape:connector-curvature="0" />
  <path
     d="m 78.506018,34.90408 c 2.03,-1.29799 4.546,-1.63599 6.908,-1.37599 1.206,0.152 2.338,0.62799 3.402,1.20199 -0.396,0.71799 -0.808,1.42599 -1.206,2.14398 -1.858,-1.22399 -4.42,-1.58999 -6.368,-0.35599 0.022,4.10197 0.002,8.20394 0.012,12.30591 -0.916,0.004 -1.83,0.002 -2.744,0.002 0,-4.63997 0.008,-9.28194 -0.004,-13.9219 z"
     id="path4937"
     inkscape:connector-curvature="0"
     style="fill:#5d5d5f" />
  <path
     style="fill:#5d5d5f"
     d="m 96.7,33.45 c -0.498752,0.0096 -0.984,0.0345 -1.475,0.1 -1.75,0.26999 -3.469,1.05101 -4.675,2.375 -2.228,2.43998 -2.518,6.26102 -1.1,9.175 1.092,2.25799 3.479,3.674 5.925,3.95 1.828,0.18199 3.748,0.10399 5.45,-0.65 1.372,-0.596 2.585,-1.58801 3.325,-2.9 1.208,-2.07198 1.362,-4.65702 0.65,-6.925 -0.588,-1.85599 -1.967,-3.447 -3.725,-4.275 -1.359,-0.643493 -2.878752,-0.878688 -4.375,-0.85 z m -0.07496,2.35 c 1.137656,-0.0405 2.292,0.101 3.3,0.65 1.318,0.70199 2.186,2.08601 2.4,3.55 0.346,1.89599 -0.011,4.05001 -1.425,5.45 -1.386,1.28399 -3.442,1.598 -5.25,1.3 -1.434,-0.21 -2.825,-1.02501 -3.525,-2.325 -0.914,-1.66599 -0.95,-3.72401 -0.35,-5.5 0.554,-1.61399 2.061,-2.778 3.725,-3.05 0.370496,-0.047 0.745784,-0.0615 1.125,-0.075 z"
     id="path4939"
     inkscape:connector-curvature="0" />
  <path
     d="m 108.16202,35.15208 c 2.494,-1.204 5.294,-1.72999 8.054,-1.69799 1.558,-0.004 3.166,0.51199 4.3,1.60999 1.212,1.15799 1.7,2.86798 1.71,4.50596 0.012,3.08398 0,6.16796 0.004,9.25194 -0.914,0.006 -1.83,0.004 -2.744,0.006 0.004,-2.95398 0.002,-5.90596 0.002,-8.85994 -0.002,-1.17199 -0.386,-2.41198 -1.288,-3.20398 -0.766,-0.65799 -1.796,-0.93599 -2.79,-0.92999 -1.546,-0.034 -3.092,0.266 -4.514,0.87199 0.004,4.03998 -0.006,8.07995 0.004,12.11992 -0.914,0 -1.828,0.002 -2.742,-0.004 0.006,-4.55597 -0.002,-9.11394 0.004,-13.6699 z"
     id="path4941"
     inkscape:connector-curvature="0"
     style="fill:#5d5d5f" />
  <path
     d="m 71.724018,33.79408 c 0.91,0.004 1.822,0.004 2.732,0.002 0.002,5.00997 -0.002,10.01993 0.002,15.0299 -0.912,0 -1.824,0 -2.736,0 0.006,-5.00997 0.002,-10.01993 0.002,-15.0319 z"
     id="path4943"
     inkscape:connector-curvature="0"
     style="fill:#5d5d5f" />
</svg>
