<?xml version="1.0" encoding="UTF-8" standalone="no"?>
<!-- Created with Inkscape (http://www.inkscape.org/) -->
<svg
   xmlns:svg="http://www.w3.org/2000/svg"
   xmlns="http://www.w3.org/2000/svg"
   version="1.0"
   width="120"
   height="100"
   id="svg2403"
   xml:space="preserve"><defs
     id="defs2406" /><g
     transform="matrix(1.1981848,0,0,1.1981848,-26.420874,-1137.0336)"
     id="g2503"><g
       transform="matrix(0.5,0,0,0.5,11.025373,521.22047)"
       id="g3300"><path
         d="M 28.671875,1022.4024 L 108.05175,980.40038 C 112.7685,980.8545 117.30475,981.12788 122.0215,981.12788 C 177.35875,981.12788 222.35375,952.82225 222.35375,918.17375 C 222.35375,883.515 177.35875,855.48875 122.0215,855.48875 C 66.7725,855.48875 22.05075,883.515 22.05075,918.17375 C 22.05075,941.75775 42.6465,962.34862 73.125,972.96388 L 28.671875,1022.4024"
         id="path2418"
         style="fill:#ed1c24;fill-opacity:1;fill-rule:evenodd;stroke:none" /><path
         d="M 87.09475,889.595 L 67.59275,889.595 L 68.315375,895.1275 L 70.21975,895.1275 C 72.578125,895.1275 73.3985,895.4 73.667,895.4 C 74.121125,895.67375 74.121125,895.9475 74.121125,896.21625 L 74.121125,896.21625 C 74.121125,896.48875 74.121125,897.5775 73.125,899.6625 C 72.309625,900.7525 71.22075,902.56875 69.951125,904.92625 C 69.951125,904.92625 67.045875,909.4625 64.868125,912.63625 C 62.78325,908.1 58.247125,898.30625 58.247125,898.30625 L 58.247125,898.30625 C 57.973625,898.0325 57.973625,897.75875 57.793,897.03625 C 57.5195,896.21625 57.251,895.9475 57.251,895.9475 C 57.251,895.67375 57.251,895.67375 57.251,895.67375 C 57.251,895.67375 57.251,895.67375 57.5195,895.67375 C 57.5195,895.4 58.247125,895.4 60.69825,895.1275 L 63.056625,895.1275 L 62.236375,889.595 L 38.19825,889.595 L 39.194375,894.85875 L 40.830125,895.1275 C 43.1885,895.4 44.003875,895.9475 44.277375,895.9475 C 44.277375,895.9475 44.819375,896.48875 46.088875,899.395 C 46.088875,899.395 55.888625,919.985 56.430625,921.07375 C 56.162125,922.1625 54.34575,938.03712 54.34575,938.03712 C 54.07225,939.8535 53.53025,941.21087 52.714875,941.48438 C 52.441375,941.75775 51.445375,942.21187 48.72075,942.21187 L 46.36225,942.48537 L 47.17775,947.83687 L 75.483375,947.83687 L 74.3945,942.48537 L 72.851625,942.21187 C 69.40425,942.21187 68.042,942.03125 67.59275,941.75775 C 67.319375,941.75775 67.045875,941.21087 66.7725,940.3955 C 66.7725,940.127 66.7725,939.58012 66.7725,938.8525 C 66.7725,938.3105 66.7725,937.22163 67.045875,936.13275 C 67.045875,936.13275 68.315375,923.70625 68.588875,921.3475 C 69.130875,920.5325 82.651375,899.12125 82.651375,899.12125 C 83.920875,897.03625 84.736375,896.21625 85.00975,895.9475 C 85.278375,895.67375 86.098625,895.4 87.63675,895.1275 L 89.8145,894.85875 L 88.725625,889.595 L 87.09475,889.595"
         id="path2420"
         style="fill:#ffffff;fill-opacity:1;fill-rule:evenodd;stroke:none" /><path
         d="M 93.715875,907.105 L 93.715875,907.105 L 87.63675,908.37375 L 80.0195,910.005 L 80.747125,914.72625 L 82.651375,914.72625 C 84.462875,914.72625 85.278375,914.72625 85.55175,914.995 C 85.55175,914.995 85.82525,915.26875 85.82525,915.5425 L 85.82525,915.81 C 85.82525,915.81 85.82525,916.3575 85.82525,916.63125 L 84.1895,939.03813 L 84.1895,940.669 C 84.1895,941.21087 84.1895,941.75775 84.1895,942.48537 C 85.00975,945.65913 86.82125,947.29 88.183625,948.1055 C 89.2725,948.55962 90.542,948.833 91.630875,948.833 C 95.8935,948.833 99.5215,946.20113 102.70025,941.21087 C 103.24225,940.3955 104.05763,939.03813 104.873,937.76363 C 104.6045,938.584 104.6045,939.30663 104.6045,940.127 L 104.6045,940.3955 C 104.6045,941.21087 104.873,942.21187 104.873,943.02738 C 105.1465,944.93163 106.1475,946.47462 107.2315,947.29 C 108.59375,948.37887 110.13675,948.833 111.76763,948.833 C 114.67287,948.833 117.57325,947.01662 119.93162,943.30075 C 121.294,941.75775 122.29487,939.8535 123.11037,937.76363 L 123.92575,936.13275 L 119.38963,933.23238 L 116.48925,937.76363 C 115.669,938.8525 115.40037,939.30663 115.40037,939.30663 L 115.21487,939.58012 C 115.21487,939.03813 115.21487,938.8525 115.21487,938.8525 L 117.84662,910.27875 L 118.12013,907.8325 L 108.05175,907.8325 L 107.50487,909.73625 C 106.6895,914.18 106.1475,917.35375 105.69338,919.53125 C 104.873,922.705 104.05763,925.61 102.70025,928.24212 C 101.42575,931.14262 99.794875,934.04787 98.252,936.67962 C 96.167,939.8535 94.80475,940.127 94.53125,940.127 L 94.53125,939.8535 L 94.53125,939.8535 L 94.53125,939.8535 L 94.53125,939.30663 L 94.53125,938.03712 L 96.8945,910.27875 L 96.8945,909.73625 C 96.8945,908.92125 96.621125,908.37375 96.167,907.8325 L 96.167,907.8325 C 95.078125,906.83125 94.26275,907.105 93.715875,907.105"
         id="path2422"
         style="fill:#ffffff;fill-opacity:1;fill-rule:evenodd;stroke:none" /><path
         d="M 137.44125,907.105 C 131.81625,908.37375 127.64625,909.4625 124.92188,909.73625 L 122.83687,910.27875 L 123.65237,915.26875 L 125.46875,915.26875 C 127.915,915.26875 128.6425,915.26875 128.91625,915.5425 C 128.91625,915.5425 129.185,915.5425 129.185,915.81 L 129.185,916.08375 C 129.185,916.3575 129.185,916.81125 129.185,916.81125 L 126.01125,947.83687 L 136.3525,947.83687 L 136.62625,945.93263 C 137.44125,941.48438 137.895,938.03712 138.16875,935.67875 C 138.985,931.958 139.8,928.78413 140.80125,926.60625 C 141.89,924.2475 143.52,921.61625 145.3325,918.98875 C 147.695,915.81 148.78375,915.5425 149.32625,915.5425 L 149.32625,915.5425 C 149.32625,915.81 149.32625,915.81 149.32625,916.08375 L 149.32625,916.3575 L 149.32625,916.81125 C 149.32625,917.085 146.69375,947.83687 146.69375,947.83687 L 156.94875,947.83687 L 157.21625,945.93263 C 157.76375,939.30663 158.30625,935.40525 158.57875,933.501 C 158.8525,931.6895 159.6675,929.331 160.66375,926.60625 C 161.7525,923.98 163.29625,921.3475 165.2,918.98875 C 166.47,916.81125 168.105,915.81 169.19375,915.5425 C 169.19375,915.81 169.19375,915.81 169.19375,915.81 L 169.19375,916.81125 L 167.29,939.58012 L 167.29,941.21087 C 167.29,941.75775 167.29,942.21187 167.29,942.75387 C 167.8325,945.20512 168.92125,946.748 170.19,947.83687 C 171.27875,948.37887 172.54875,948.833 173.6375,948.833 C 176.27,948.833 178.4475,947.83687 180.5325,945.65913 C 182.34875,943.84275 184.2525,941.48438 185.79625,938.584 L 186.065,938.03712 L 186.885,936.40625 L 182.1625,933.23238 L 178.98875,938.03712 L 178.71625,938.584 C 178.4475,938.8525 178.17375,939.30663 177.9,939.58012 C 177.9,939.58012 177.9,939.58012 177.9,939.8535 C 178.17375,937.22163 179.71625,919.2575 179.71625,919.2575 L 179.71625,918.98875 C 179.71625,917.6275 179.71625,916.81125 179.71625,916.08375 C 179.71625,914.995 179.71625,914.4525 179.71625,914.18 C 179.17,911.82125 178.17375,910.005 176.5425,908.6475 C 175,907.55875 173.36375,907.105 171.5525,907.105 C 167.8325,907.105 164.385,909.4625 160.66375,914.4525 L 160.66375,914.4525 C 160.395,914.995 160.1225,915.26875 159.6675,915.81 C 159.6675,915.26875 159.6675,914.72625 159.6675,914.18 C 159.12125,911.5475 157.76375,909.4625 155.9475,908.37375 C 154.59,907.55875 153.315,907.105 151.685,907.105 C 148.2375,907.105 144.79,909.19 141.3425,913.90625 L 141.3425,913.90625 C 140.80125,914.72625 140.34625,915.5425 139.8,916.3575 C 140.07375,913.18375 140.615,908.37375 140.615,908.37375 L 138.4425,906.83125 L 137.44125,907.105"
         id="path2424"
         style="fill:#ffffff;fill-opacity:1;fill-rule:evenodd;stroke:none" /><path
         d="M 194.0475,891.9525 L 194.0475,891.9525 C 193.2325,893.58875 192.95875,896.48875 192.95875,900.21 L 192.95875,907.55875 C 192.95875,908.1 192.95875,910.45875 192.69,918.4425 L 192.4175,932.50487 L 194.0475,932.959 L 197.495,933.501 L 200.4,920.25875 C 201.39625,914.72625 201.94375,912.63625 202.2125,911.82125 C 204.11625,904.65375 205.1175,900.48375 205.39125,899.12125 C 205.65875,897.305 205.65875,895.67375 205.39125,894.13125 C 205.1175,892.76875 204.39,891.41125 203.30125,890.14125 C 202.2125,889.0525 200.66875,888.50625 199.0375,888.50625 C 196.95375,888.50625 195.04875,889.595 194.0475,891.9525 z M 188.97,938.03712 L 188.97,938.03712 C 187.96875,939.30663 187.42625,940.94237 187.7,942.48537 C 188.2425,944.65825 188.97,946.20113 190.6,947.29 C 191.87,948.37887 193.50625,948.833 195.04875,948.833 C 196.95375,948.833 198.49625,948.1055 199.585,946.748 C 200.66875,945.38575 201.21625,943.84275 200.66875,942.03125 C 200.4,940.127 199.585,938.8525 198.0425,937.49513 C 196.68,936.40625 195.04875,935.85938 193.50625,935.85938 C 191.1475,935.85938 189.51125,936.94825 188.97,938.03712"
         id="path2426"
         style="fill:#ffffff;fill-opacity:1;fill-rule:evenodd;stroke:none" /></g></g></svg>