<?xml version="1.0" encoding="UTF-8" standalone="no"?>
<svg xmlns="http://www.w3.org/2000/svg" version="1.1" width="320" height="20">
<style type="text/css">
path {fill:#54534a;}
</style>
<path d="m 16.568289,2.08054 -11.7216893,15.174033 7.7038203,0 c 1.229357,0 1.660635,-0.132133 3.652128,-2.68915 l 0.365741,0 C 16.236374,15.461806 15.240627,17.620314 14.842118,19.5135 14.011271,19.081164 13.446803,18.915206 12.2851,18.915206 l -12.2851,0 12.052547,-15.5397732 -9.031482,0 c -0.6310624,0 -0.9302088,0.099359 -1.6268088,2.2240444 l -0.3319152,0 0,-5.1129772 c 1.0285152,1.0961668 1.0623411,1.2948927 1.7927659,1.2948927 l 13.9119091,0 -0.198727,0.2991473 z" />
<path d="m 18.084106,18.948504 0,-0.365742 c 2.722976,-0.730425 2.788513,-0.797019 2.788513,-1.659576 l 0,-13.2153091 c 0,-0.89744 -0.03277,-0.89744 -2.755744,-1.5612712 l 0,-0.4312786 8.401478,0 0,0.4312786 c -2.755744,0.7970195 -2.755744,0.7631937 -2.755744,1.5612712 l 0,13.2153091 c 0,0.962977 0,0.962977 2.788513,1.659576 l 0,0.365742 -8.467016,0 z"/>
<path d="m 35.876258,3.2423495 c -4.582344,-0.099359 -6.906805,3.6859523 -6.906805,7.5695745 0,2.889991 2.224042,6.875089 6.807436,6.875089 3.751489,0 6.574883,-3.188079 6.574883,-6.875089 0,-3.6848953 -1.959779,-7.5695745 -6.475514,-7.5695745 m 0.0983,16.1042415 c -4.680644,-0.03383 -9.595948,-2.987239 -9.595948,-8.632973 0,-6.2091446 4.948074,-9.0653085 9.927866,-9.0653085 4.749353,0 9.265088,3.3868059 9.265088,9.1319035 0,5.013614 -4.715524,8.600204 -9.597006,8.566378"/>
<path d="m 64.257989,3.7074539 0,15.1412641 -1.595101,0 L 49.980339,6.4959662 c -0.199789,-0.1987259 -0.266379,-0.1987259 -0.266379,0 l 0,10.3940278 c 0,0.795962 0,0.795962 2.689145,1.592983 l 0,0.365741 -7.10553,0 0,-0.365741 c 2.724035,-0.797021 2.755745,-0.797021 2.755745,-1.592983 l 0,-15.2406275 1.461912,0 12.850627,12.6508405 c 0.165949,0.165958 0.232549,0 0.232549,0 l 0,-10.6593477 c 0,-0.7304249 0.0328,-0.7970196 -2.722975,-1.6268079 l 0,-0.3646849 7.10553,0 0,0.3985107 c -2.722974,0.7959625 -2.722974,0.8625572 -2.722974,1.6595767"/>
<path d="m 72.256614,19.280947 c -1.958719,0 -3.154253,-0.266377 -4.682754,-0.995745 l -0.0994,-4.583393 0.300198,0 c 0.895325,2.689149 1.261073,2.790626 1.69341,3.055947 0.265319,0.132132 1.394252,0.829789 2.622556,0.829789 1.594031,0 3.054882,-0.89744 3.054882,-2.49148 -0.0666,-3.58659 -8.035734,-3.883622 -8.035734,-8.7661619 0,-3.1204284 2.955533,-5.0791524 6.109785,-5.0791524 1.460852,0 2.555956,0.1987269 3.718719,0.5972366 l -0.199779,4.5823363 -0.364687,0 C 75.510195,4.039264 75.643385,3.9399006 75.211047,3.6079854 75.012318,3.4420274 74.348492,2.9103284 73.086369,2.9441542 c -2.025319,0 -3.220852,0.9957464 -3.220852,2.8878757 0,3.2874426 8.302113,4.3836091 8.168924,8.7672191 -0.100419,3.685953 -3.785309,4.647873 -5.777867,4.681698"/>
<path d="m 96.439938,10.724611 c -0.634237,-0.202954 -2.916424,-0.506329 -2.916424,0.355171 l 0,5.55377 c 0,0.582438 0.355178,0.558125 0.684976,0.659602 0.482017,0.101478 1.927009,0.202955 3.094003,-0.228323 0.913295,-0.328744 2.078168,-0.862557 2.053858,-2.840308 -0.0254,-2.003121 -1.116253,-2.916417 -2.916413,-3.499912 M 95.653482,3.1423521 c -0.861495,-0.05074 -2.129968,0.05074 -2.129968,0.6849721 l 0,4.6404739 c 0,0.4820173 0.0761,0.4820173 0.431288,0.5073862 1.040134,0.1522161 2.611975,-0.4059088 2.611975,-0.4059088 1.446062,-0.7346538 1.901649,-1.775854 1.901649,-2.8656778 0,-1.3942562 -1.242043,-2.4597682 -2.814944,-2.5612456 m 0.989405,15.8505479 -8.876091,0 0,-0.38054 c 2.789565,-0.964035 2.789565,-0.964035 2.789565,-1.675433 l 0,-13.3886652 c 0,-0.8361313 -0.0254,-0.8361313 -2.789565,-1.6997455 l 0,-0.354114 8.850721,0 c 1.850909,0 4.665843,1.5221605 4.665843,3.9311899 0,1.6722616 -1.24309,3.7271781 -3.169052,4.0062405 2.382602,0.4302213 4.234562,2.3075523 4.234562,4.6161623 0,3.803285 -2.78956,4.944905 -5.705983,4.944905"/>
<path d="m 110.28535,5.1206319 -2.25681,5.7313551 4.23457,0 c -0.68498,-1.64795 -1.24204,-3.3984342 -1.97776,-5.7313551 m 2.51052,13.8717401 0,-0.38054 c 2.33185,-0.761081 2.33185,-0.761081 2.10564,-1.268467 0,0 -1.62469,-3.702866 -2.13207,-4.81806 l -5.37513,0 c -0.0254,0.101478 -1.90164,4.641531 -1.95238,4.767321 -0.17759,0.432336 -0.17759,0.583495 2.05386,1.371002 l 0,0.328744 -6.36454,0 0,-0.40591 c 2.38261,-0.76108 2.40904,-0.76108 2.76315,-1.571841 0,0 2.86567,-7.051618 6.11189,-15.5207467 l 1.64901,0 c 3.19442,8.8253567 5.95862,15.4700077 5.95862,15.4700077 0.37949,0.886869 0.37949,0.886869 2.78957,1.64795 l 0,0.38054 -7.60762,0 z"/>
<path d="m 138.35176,3.5481558 0,15.4446392 -1.62258,0 -12.9077,-12.5789613 c -0.20296,-0.2283247 -0.28012,-0.2029549 -0.28012,-0.02537 l 0,10.6001533 c 0,0.836131 0,0.811819 2.76526,1.62258 l 0,0.381598 -7.25352,0 0,-0.381598 c 2.79062,-0.786449 2.81599,-0.786449 2.81599,-1.62258 l 0,-15.5196896 1.49575,0 13.08528,12.8823356 c 0.15327,0.152216 0.22832,0.02537 0.22832,0.02537 l 0,-10.8538472 c 0,-0.7864486 0.0254,-0.8107614 -2.76419,-1.6733186 l 0,-0.355171 7.22709,0 0,0.3805409 c -2.78958,0.8371873 -2.78958,0.8615001 -2.78958,1.6733186"/>
<path d="m 155.34182,18.002861 c -0.76002,0.43128 -2.1046,1.191303 -5.50303,1.191303 -4.9449,0 -9.76297,-3.219792 -9.76297,-8.849669 0,-4.9967023 3.37201,-9.1044202 10.06846,-9.155159 0.78539,0 3.01683,0.2536936 5.47765,1.0147733 l -0.12683,4.4893148 -0.45665,0 C 154.53,4.2336559 153.18648,2.7368653 150.01743,2.7622352 c -3.55065,0.02537 -7.12666,2.8149382 -6.97445,7.7091058 0.15221,4.971332 3.90476,6.999821 6.89835,7.05056 3.27052,0.04968 4.79268,-1.902699 5.93324,-3.677496 l 0.30444,0.12579 -0.83719,4.032666 z"/>
<path d="m 166.77747,2.7622352 c -4.64047,-0.05074 -7.02519,3.8043426 -7.02519,7.7091058 0,2.967155 2.25681,7.049503 6.94908,7.049503 3.80434,0 6.69433,-3.270529 6.69433,-7.049503 0,-3.753604 -2.00311,-7.6583671 -6.61822,-7.7091058 m -0.22833,16.4076158 c -4.76732,-0.02643 -9.76402,-3.043263 -9.76402,-8.799988 0,-6.3148491 5.04744,-9.180527 10.09277,-9.180527 4.84342,0 9.45959,3.3984339 9.45959,9.257693 0,5.121434 -4.81806,8.747135 -9.78834,8.722822"/>
<path d="m 183.51267,3.1423521 c -0.86256,-0.05074 -2.12997,0.05074 -2.12997,0.6849721 l 0,5.5537698 c 0,0.482017 0.0751,0.482017 0.43128,0.506329 1.03908,0.152216 2.61092,-0.4048516 2.61092,-0.4048516 1.44711,-0.7357109 1.87628,-2.4597682 1.7748,-3.5760189 -0.12685,-1.3942561 -1.11519,-2.662723 -2.68703,-2.7642004 m 6.26411,16.0017069 c -1.92807,-0.202955 -6.97551,-6.492435 -7.48185,-7.049503 -0.22725,-0.253694 -0.91223,-0.989405 -0.91223,0 l 0,4.843428 c 0,0.734653 0,0.786449 3.11831,1.673319 l 0,0.381597 -8.87609,0 0,-0.381597 c 2.79169,-0.962978 2.79169,-0.962978 2.79169,-1.673319 l 0,-13.3897222 c 0,-0.8361313 -0.0264,-0.8361313 -2.79169,-1.6986885 l 0,-0.355171 8.85178,0 c 1.8509,0 4.74196,1.9270122 4.74196,4.3360416 0,3.4238038 -2.43441,4.9195371 -4.261,5.1224911 -0.45665,0.126847 -0.55707,0.202955 -0.22832,0.608865 2.15639,2.662723 5.83283,6.00936 6.06221,6.188003 0.63317,0.506329 1.39426,1.140563 1.9767,1.165932 l 0,0.38054 c -0.7854,0.0518 -2.38366,-0.07611 -2.99147,-0.152216"/>
<path d="m 199.43732,3.1423521 c -0.86362,-0.02537 -2.13103,0.05074 -2.13103,0.6849721 l 0,6.0093598 c 0,0.483076 0.10254,0.483076 0.45665,0.558126 1.3192,0.28012 3.06969,-0.227266 3.70287,-0.761079 0.7357,-0.607808 1.52216,-1.7747975 1.44605,-3.270531 -0.10254,-1.7758531 -1.9027,-3.1701092 -3.47454,-3.2208479 M 198.5737,12.17172 c -1.08877,-0.07717 -1.26741,-0.356227 -1.26741,0.530642 l 0,4.235622 c 0,0.710341 0,0.734653 3.11937,1.673319 l 0,0.381597 -8.87504,0 0,-0.381597 c 2.78958,-0.962978 2.78958,-0.962978 2.78958,-1.673319 l 0,-13.3897222 c 0,-0.8361313 -0.0254,-0.8361313 -2.78958,-1.6986885 l 0,-0.355171 9.45854,0 c 2.4344,0 4.81911,2.2060746 4.86879,4.7419514 0.0761,4.6922693 -4.03161,6.1362073 -7.30425,5.9353663"/>
<path d="m 216.50041,2.7622352 c -4.64047,-0.05074 -7.02519,3.8043426 -7.02519,7.7091058 0,2.967155 2.25787,7.049503 6.94908,7.049503 3.80329,0 6.6954,-3.270529 6.6954,-7.049503 0,-3.753604 -2.00418,-7.6583671 -6.61929,-7.7091058 m -0.22833,16.4076158 c -4.76731,-0.02643 -9.76401,-3.043263 -9.76401,-8.799988 0,-6.3148491 5.04743,-9.180527 10.09382,-9.180527 4.84237,0 9.45853,3.3984339 9.45853,9.257693 0,5.121434 -4.81805,8.747135 -9.78834,8.722822"/>
<path d="m 233.74268,3.1423521 c -0.86256,-0.05074 -2.12997,0.05074 -2.12997,0.6849721 l 0,5.5537698 c 0,0.482017 0.0751,0.482017 0.43129,0.506329 1.03908,0.152216 2.61197,-0.4048516 2.61197,-0.4048516 1.44605,-0.7357109 1.87522,-2.4597682 1.7748,-3.5760189 -0.12685,-1.3942561 -1.11519,-2.662723 -2.68809,-2.7642004 m 6.26411,16.0017069 c -1.92807,-0.202955 -6.97445,-6.492435 -7.48078,-7.049503 -0.22727,-0.253694 -0.9133,-0.989405 -0.9133,0 l 0,4.843428 c 0,0.734653 0,0.786449 3.11937,1.673319 l 0,0.381597 -8.87715,0 0,-0.381597 c 2.79168,-0.962978 2.79168,-0.962978 2.79168,-1.673319 l 0,-13.3897222 c 0,-0.8361313 -0.0264,-0.8361313 -2.79168,-1.6986885 l 0,-0.355171 8.85178,0 c 1.85091,0 4.74301,1.9270122 4.74301,4.3360416 0,3.4238038 -2.43545,4.9195371 -4.26204,5.1224911 -0.4556,0.126847 -0.55708,0.202955 -0.22727,0.608865 2.15534,2.662723 5.83283,6.00936 6.06115,6.188003 0.63318,0.506329 1.39426,1.140563 1.97775,1.165932 l 0,0.38054 c -0.78539,0.0518 -2.38471,-0.07611 -2.99252,-0.152216"/>
<path d="m 249.9726,5.1206319 -2.25681,5.7313551 4.23456,0 c -0.68496,-1.64795 -1.24204,-3.3984342 -1.97775,-5.7313551 m 2.51157,13.8717401 0,-0.38054 c 2.33187,-0.761081 2.33187,-0.761081 2.1046,-1.268467 0,0 -1.6247,-3.702866 -2.13209,-4.81806 l -5.37512,0 c -0.0254,0.101478 -1.90165,4.641531 -1.95239,4.767321 -0.17758,0.432336 -0.17758,0.583495 2.05492,1.371002 l 0,0.328744 -6.36664,0 0,-0.40591 c 2.38365,-0.76108 2.41008,-0.76108 2.7642,-1.571841 0,0 2.86567,-7.051618 6.1119,-15.5207467 l 1.649,0 c 3.19442,8.8253567 5.95862,15.4700077 5.95862,15.4700077 0.37948,0.886869 0.37948,0.886869 2.78957,1.64795 l 0,0.38054 -7.60657,0 z"/>
<path d="m 271.97849,6.0586627 c -0.96403,-2.8899898 -0.9376,-2.8656779 -1.49573,-2.8656779 l -3.90477,0 0,13.7438362 c 0,0.406967 0.0507,0.406967 2.78852,1.675433 l 0,0.380541 -8.57061,0 0,-0.356228 c 2.78852,-1.26741 2.78852,-1.26741 2.78852,-1.699746 l 0,-13.7945749 -3.90583,0 c -0.55707,0 -0.60781,0.02643 -1.54647,2.9164166 l -0.37948,0 0,-5.1985988 c 1.14056,0.5834937 1.1913,0.6342324 1.92595,0.6342324 l 10.80417,0 c 0.5835,0 0.60887,0.02537 1.90164,-0.6342324 l 0,5.1985988 -0.40591,0 z"/>
<path d="m 271.99826,18.992689 0,-0.38054 c 2.76525,-0.684972 2.81599,-0.811819 2.81599,-1.675434 l 0,-13.4129771 c 0,-0.9132958 -0.0264,-0.9132958 -2.79062,-1.6490067 l 0,-0.3805399 8.54735,0 0,0.3805399 c -2.81599,0.8107614 -2.78957,0.8371883 -2.78957,1.6490067 l 0,13.4129771 c 0,0.964035 0,0.964035 2.81388,1.675434 l 0,0.38054 -8.59703,0 z"/>
<path d="m 289.59548,2.7622352 c -4.64047,-0.05074 -7.02519,3.8043426 -7.02519,7.7091058 0,2.967155 2.25682,7.049503 6.94909,7.049503 3.80434,0 6.69433,-3.270529 6.69433,-7.049503 0,-3.753604 -2.00312,-7.6583671 -6.61823,-7.7091058 m -0.22832,16.4076158 c -4.76732,-0.02643 -9.76402,-3.043263 -9.76402,-8.799988 0,-6.3148491 5.0485,-9.180527 10.09277,-9.180527 4.84342,0 9.45959,3.3984339 9.45959,9.257693 0,5.121434 -4.81807,8.747135 -9.78834,8.722822"/>
<path d="m 317.20969,3.5481558 0,15.4446392 -1.62363,0 L 302.6794,6.4138337 c -0.20295,-0.2283247 -0.27906,-0.2029549 -0.27906,-0.02537 l 0,10.6001533 c 0,0.836131 0,0.811819 2.76314,1.62258 l 0,0.381598 -7.2514,0 0,-0.381598 c 2.78957,-0.786449 2.81494,-0.786449 2.81494,-1.62258 l 0,-15.5196896 1.49573,0 13.0853,12.8823356 c 0.15327,0.152216 0.22832,0.02537 0.22832,0.02537 l 0,-10.8538472 c 0,-0.7864486 0.0254,-0.8107614 -2.7642,-1.6733186 l 0,-0.355171 7.22603,0 0,0.3805409 c -2.78851,0.8371873 -2.78851,0.8615001 -2.78851,1.6733186"/>
</svg>