<?xml version="1.0" encoding="utf-8"?>
<!-- Generator: Adobe Illustrator 23.0.3, SVG Export Plug-In . SVG Version: 6.00 Build 0)  -->
<svg version="1.1" id="Layer_1" xmlns="http://www.w3.org/2000/svg" xmlns:xlink="http://www.w3.org/1999/xlink" x="0px" y="0px"
	 viewBox="0 0 448 512" style="enable-background:new 0 0 448 512;" xml:space="preserve">
<style type="text/css">
	.st0{fill:#FFFFFF;}
</style>
<path class="st0" d="M224,512c35.3,0,64-28.6,64-64H160C160,483.4,188.7,512,224,512z M439.4,362.3c-19.3-20.8-55.5-52-55.5-154.3
	c0-77.7-54.5-139.9-127.9-155.2V32c0-17.7-14.3-32-32-32s-32,14.3-32,32v20.8C118.6,68.1,64.1,130.3,64.1,208
	c0,102.3-36.2,133.5-55.5,154.3C2.6,368.7,0,376.4,0,384c0.1,16.4,13,32,32.1,32h383.8c19.1,0,32-15.6,32.1-32
	C448,376.4,445.4,368.7,439.4,362.3z"/>
</svg>
