<?xml version="1.0" encoding="utf-8"?>
<!-- Generator: Adobe Illustrator 23.0.3, SVG Export Plug-In . SVG Version: 6.00 Build 0)  -->
<svg version="1.1" id="Layer_1" xmlns="http://www.w3.org/2000/svg" xmlns:xlink="http://www.w3.org/1999/xlink" x="0px" y="0px"
	 viewBox="0 0 544 512" style="enable-background:new 0 0 544 512;" xml:space="preserve">
<style type="text/css">
	.st0{fill:#FFFFFF;}
</style>
<path class="st0" d="M527.8,288H290.5l158,158c6,6,16,6.5,22.2,0.7c38.7-36.5,65.3-85.6,73.1-140.9C545.2,296.4,537.3,288,527.8,288
	L527.8,288z M512,223.2C503.7,103.7,408.3,8.3,288.8,0C279.7-0.6,272,7.1,272,16.2V240h223.8C504.9,240,512.6,232.3,512,223.2
	L512,223.2z M224,288V50.7c0-9.5-8.4-17.4-17.8-16.1C87,51.5-4.1,155.6,0.1,280.4C4.5,408.5,114.8,513.6,243,512
	c50.4-0.6,97-16.9,135.3-44c7.9-5.6,8.4-17.2,1.6-24.1L224,288z"/>
</svg>
