<?xml version="1.0" encoding="utf-8"?>
<!-- Generator: Adobe Illustrator 23.0.3, SVG Export Plug-In . SVG Version: 6.00 Build 0)  -->
<svg version="1.1" id="Layer_1" xmlns="http://www.w3.org/2000/svg" xmlns:xlink="http://www.w3.org/1999/xlink" x="0px" y="0px"
	 viewBox="0 0 384 512" style="enable-background:new 0 0 384 512;" xml:space="preserve">
<style type="text/css">
	.st0{fill:#FFFFFF;}
</style>
<path class="st0" d="M224,136V0H24C10.7,0,0,10.7,0,24v464c0,13.3,10.7,24,24,24h336c13.3,0,24-10.7,24-24V160H248
	C234.8,160,224,149.2,224,136z M288,372c0,6.6-5.4,12-12,12H108c-6.6,0-12-5.4-12-12v-8c0-6.6,5.4-12,12-12h168c6.6,0,12,5.4,12,12
	V372z M288,308c0,6.6-5.4,12-12,12H108c-6.6,0-12-5.4-12-12v-8c0-6.6,5.4-12,12-12h168c6.6,0,12,5.4,12,12V308z M288,236v8
	c0,6.6-5.4,12-12,12H108c-6.6,0-12-5.4-12-12v-8c0-6.6,5.4-12,12-12h168C282.6,224,288,229.4,288,236z M384,121.9v6.1H256V0h6.1
	c6.4,0,12.5,2.5,17,7l97.9,98C381.5,109.5,384,115.6,384,121.9z"/>
</svg>
