<?xml version="1.0" encoding="utf-8"?>
<!-- Generator: Adobe Illustrator 23.0.3, SVG Export Plug-In . SVG Version: 6.00 Build 0)  -->
<svg version="1.1" id="Layer_1" xmlns="http://www.w3.org/2000/svg" xmlns:xlink="http://www.w3.org/1999/xlink" x="0px" y="0px"
	 viewBox="0 0 576 512" style="enable-background:new 0 0 576 512;" xml:space="preserve">
<style type="text/css">
	.st0{fill:#FFFFFF;}
</style>
<path class="st0" d="M280.4,148.3L96,300.1V464c0,8.8,7.2,16,16,16l112.1-0.3c8.8,0,15.9-7.2,15.9-16V368c0-8.8,7.2-16,16-16h64
	c8.8,0,16,7.2,16,16v95.6c0,8.8,7.1,16,15.9,16c0,0,0,0,0.1,0l112,0.3c8.8,0,16-7.2,16-16V300L295.7,148.3
	C291.2,144.7,284.8,144.7,280.4,148.3L280.4,148.3z M571.6,251.5L488,182.6V44c0-6.6-5.4-12-12-12h-56c-6.6,0-12,5.4-12,12v72.6
	L318.5,43c-17.7-14.6-43.3-14.6-61,0L4.3,251.5c-5.1,4.2-5.8,11.8-1.6,16.9c0,0,0,0,0,0l25.5,31c4.2,5.1,11.8,5.9,16.9,1.6
	c0,0,0,0,0,0l235.2-193.7c4.5-3.6,10.8-3.6,15.3,0L530.9,301c5.1,4.2,12.7,3.5,16.9-1.6c0,0,0,0,0,0l25.5-31
	C577.5,263.3,576.8,255.7,571.6,251.5C571.6,251.5,571.6,251.5,571.6,251.5L571.6,251.5z"/>
</svg>
