<?xml version="1.0" encoding="utf-8"?>
<!-- Generator: Adobe Illustrator 23.0.3, SVG Export Plug-In . SVG Version: 6.00 Build 0)  -->
<svg version="1.1" id="Layer_1" xmlns="http://www.w3.org/2000/svg" xmlns:xlink="http://www.w3.org/1999/xlink" x="0px" y="0px"
	 viewBox="0 0 640 512" style="enable-background:new 0 0 640 512;" xml:space="preserve">
<style type="text/css">
	.st0{fill:#FFFFFF;}
</style>
<path class="st0" d="M608,32H32C14.3,32,0,46.3,0,64v384c0,17.7,14.3,32,32,32h576c17.7,0,32-14.3,32-32V64
	C640,46.3,625.7,32,608,32z M176,327.9V344c0,4.4-3.6,8-8,8h-16c-4.4,0-8-3.6-8-8v-16.3c-11.3-0.6-22.3-4.5-31.4-11.4
	c-3.9-2.9-4.1-8.8-0.6-12.1l11.8-11.2c2.8-2.6,6.9-2.8,10.1-0.7c3.9,2.4,8.3,3.7,12.8,3.7h28.1c6.5,0,11.8-5.9,11.8-13.2
	c0-6-3.6-11.2-8.8-12.7l-45-13.5c-18.6-5.6-31.6-23.4-31.6-43.4c0-24.5,19.1-44.4,42.7-45.1V152c0-4.4,3.6-8,8-8h16c4.4,0,8,3.6,8,8
	v16.3c11.3,0.6,22.3,4.5,31.4,11.4c3.9,2.9,4.1,8.8,0.6,12.1L196.2,203c-2.8,2.6-6.9,2.8-10.1,0.7c-3.9-2.4-8.3-3.7-12.8-3.7h-28.1
	c-6.5,0-11.8,5.9-11.8,13.2c0,5.9,3.6,11.2,8.8,12.7l45,13.5c18.6,5.6,31.6,23.4,31.6,43.4C218.7,307.3,199.6,327.3,176,327.9
	L176,327.9z M416,312c0,4.4-3.6,8-8,8H296c-4.4,0-8-3.6-8-8v-16c0-4.4,3.6-8,8-8h112c4.4,0,8,3.6,8,8V312z M576,312c0,4.4-3.6,8-8,8
	h-80c-4.4,0-8-3.6-8-8v-16c0-4.4,3.6-8,8-8h80c4.4,0,8,3.6,8,8V312z M576,216c0,4.4-3.6,8-8,8H296c-4.4,0-8-3.6-8-8v-16
	c0-4.4,3.6-8,8-8h272c4.4,0,8,3.6,8,8V216z"/>
</svg>
