<?xml version="1.0" encoding="utf-8"?>
<!-- Generator: Adobe Illustrator 23.0.3, SVG Export Plug-In . SVG Version: 6.00 Build 0)  -->
<svg version="1.1" id="Layer_1" xmlns="http://www.w3.org/2000/svg" xmlns:xlink="http://www.w3.org/1999/xlink" x="0px" y="0px"
	 viewBox="0 0 640 512" style="enable-background:new 0 0 640 512;" xml:space="preserve">
<style type="text/css">
	.st0{fill:#FFFFFF;}
</style>
<path class="st0" d="M96,224c35.3,0,64-28.7,64-64s-28.7-64-64-64s-64,28.7-64,64S60.7,224,96,224z M544,224c35.3,0,64-28.7,64-64
	s-28.7-64-64-64s-64,28.7-64,64S508.7,224,544,224z M576,256h-64c-17.6,0-33.5,7.1-45.1,18.6c40.3,22.1,68.9,62,75.1,109.4h66
	c17.7,0,32-14.3,32-32v-32C640,284.7,611.3,256,576,256z M320,256c61.9,0,112-50.1,112-112S381.9,32,320,32S208,82.1,208,144
	S258.1,256,320,256z M396.8,288h-8.3c-20.8,10-43.9,16-68.5,16s-47.6-6-68.5-16h-8.3C179.6,288,128,339.6,128,403.2V432
	c0,26.5,21.5,48,48,48h288c26.5,0,48-21.5,48-48v-28.8C512,339.6,460.4,288,396.8,288z M173.1,274.6C161.5,263.1,145.6,256,128,256
	H64c-35.3,0-64,28.7-64,64v32c0,17.7,14.3,32,32,32h65.9C104.2,336.6,132.8,296.7,173.1,274.6L173.1,274.6z"/>
</svg>
